<?xml version="1.0" encoding="utf-8"?>
<!-- Generator: Adobe Illustrator 26.3.1, SVG Export Plug-In . SVG Version: 6.00 Build 0)  -->
<svg version="1.1" id="Layer_1" xmlns="http://www.w3.org/2000/svg" xmlns:xlink="http://www.w3.org/1999/xlink" x="0px" y="0px"
	 viewBox="0 0 40 60" style="enable-background:new 0 0 40 60;" xml:space="preserve">
<style type="text/css">
	.st0{fill:#FFFFFF;}
	.st1{fill:#2D2D2D;}
	.st2{fill:#0C0A35;}
</style>
<g>
	<g>
		<path class="st0" d="M36.54,59.91H3.46c-1.86,0-3.37-1.49-3.37-3.32V3.41c0-1.83,1.51-3.32,3.37-3.32h33.08
			c1.86,0,3.37,1.49,3.37,3.32v53.17C39.91,58.42,38.4,59.91,36.54,59.91z"/>
		<path class="st1" d="M36.54,60H3.46C1.55,60,0,58.47,0,56.59V3.41C0,1.53,1.55,0,3.46,0h33.08C38.45,0,40,1.53,40,3.41v53.17
			C40,58.47,38.45,60,36.54,60z M3.46,0.18c-1.81,0-3.28,1.45-3.28,3.23v53.17c0,1.78,1.47,3.23,3.28,3.23h33.08
			c1.81,0,3.28-1.45,3.28-3.23V3.41c0-1.78-1.47-3.23-3.28-3.23H3.46z"/>
	</g>
	<g>
		<g>
			<g>
				<path class="st2" d="M5.3,11.34c0,0.1-0.04,0.24-0.04,0.33c0,0.1,0,0.2,0.01,0.29c0.04,0.33,0.16,0.65,0.41,0.88
					c-0.23,0.01-0.81,0.01-1.04,0c0.25-0.22,0.38-0.54,0.41-0.88c0.01-0.1,0.01-0.2,0.01-0.29c0-0.1-0.04-0.24-0.04-0.33H5.3z"/>
			</g>
		</g>
		<g>
			<g>
				<path class="st2" d="M5.23,11.58c0.1,0.01,0.15,0.11,0.33,0.29c0.16,0.17,0.32,0.35,0.67,0.39c0.18,0.02,0.43-0.08,0.54-0.22
					c0.09-0.12,0.15-0.27,0.19-0.42c0.07-0.28,0.05-0.56-0.09-0.81c-0.14-0.25-0.51-0.36-0.75-0.23c-0.12,0.07-0.16,0.16-0.28,0.18
					c-0.03,0.01-0.06-0.03-0.06-0.06c0.04-0.17,0.17-0.19,0.23-0.39c0.07-0.24,0.1-0.43-0.24-0.73c-0.27-0.23-0.91-0.21-1.2,0
					C4.29,9.8,4.26,9.99,4.33,10.23c0.05,0.19,0.16,0.28,0.21,0.44c0.02,0.05-0.04,0.11-0.09,0.09c-0.08-0.03-0.13-0.11-0.23-0.17
					c-0.23-0.14-0.61-0.02-0.75,0.23c-0.14,0.25-0.17,0.53-0.09,0.81c0.04,0.15,0.09,0.3,0.19,0.42c0.11,0.14,0.35,0.24,0.54,0.22
					c0.36-0.04,0.52-0.22,0.67-0.39c0.18-0.19,0.23-0.28,0.33-0.29H5.23z"/>
			</g>
		</g>
	</g>
	<g>
		<g>
			<path class="st2" d="M4.35,7.91v0.51H2.24V7.91h0.77V3.63C2.51,4.14,2,4.54,1.46,4.83v-0.7C2.2,3.75,2.77,3.3,3.18,2.77h0.51
				v5.14H4.35z"/>
		</g>
		<g>
			<path class="st2" d="M6.78,8.54c-0.65,0-1.17-0.28-1.55-0.83C4.84,7.15,4.65,6.47,4.65,5.65c0-0.81,0.18-1.49,0.55-2.04
				c0.37-0.55,0.89-0.83,1.56-0.83c0.7,0,1.23,0.29,1.6,0.87C8.72,4.22,8.91,4.9,8.91,5.68c0,0.76-0.19,1.43-0.56,2
				C7.97,8.25,7.45,8.54,6.78,8.54z M6.79,7.99c0.47,0,0.83-0.21,1.05-0.63c0.23-0.42,0.34-0.96,0.34-1.6c0-0.7-0.12-1.28-0.35-1.75
				c-0.23-0.47-0.59-0.7-1.08-0.7c-0.47,0-0.82,0.21-1.05,0.64C5.48,4.37,5.36,4.93,5.36,5.62c0,0.72,0.12,1.29,0.36,1.72
				C5.97,7.78,6.32,7.99,6.79,7.99z"/>
		</g>
	</g>
	<g>
		<g>
			<g>
				<path class="st2" d="M34.7,48.66c0-0.1,0.04-0.24,0.04-0.33c0-0.1,0-0.2-0.01-0.29c-0.04-0.33-0.16-0.65-0.41-0.88
					c0.23-0.01,0.81-0.01,1.04,0c-0.25,0.22-0.38,0.54-0.41,0.88c-0.01,0.1-0.01,0.2-0.01,0.29c0,0.1,0.04,0.24,0.04,0.33H34.7z"/>
			</g>
		</g>
		<g>
			<g>
				<path class="st2" d="M34.77,48.42c-0.1-0.01-0.15-0.11-0.33-0.29c-0.16-0.17-0.32-0.35-0.68-0.39
					c-0.18-0.02-0.43,0.08-0.54,0.22c-0.09,0.12-0.15,0.27-0.19,0.42c-0.07,0.28-0.05,0.56,0.09,0.81c0.14,0.25,0.51,0.36,0.74,0.23
					c0.12-0.07,0.17-0.16,0.28-0.18c0.03-0.01,0.06,0.03,0.06,0.06c-0.04,0.17-0.17,0.19-0.23,0.39c-0.07,0.24-0.1,0.43,0.24,0.73
					c0.27,0.23,0.92,0.21,1.19,0c0.29-0.21,0.31-0.41,0.25-0.65c-0.05-0.19-0.16-0.28-0.21-0.44c-0.02-0.05,0.04-0.11,0.09-0.09
					c0.08,0.03,0.13,0.11,0.23,0.17c0.23,0.14,0.61,0.02,0.74-0.23c0.14-0.25,0.17-0.53,0.09-0.81c-0.04-0.15-0.09-0.3-0.19-0.42
					c-0.11-0.14-0.35-0.24-0.54-0.22c-0.36,0.04-0.52,0.22-0.68,0.39c-0.18,0.19-0.23,0.28-0.33,0.29H34.77z"/>
			</g>
		</g>
	</g>
	<g>
		<g>
			<path class="st2" d="M35.65,52.09v-0.52h2.11v0.52h-0.77v4.28c0.5-0.51,1.01-0.91,1.55-1.2v0.7c-0.74,0.38-1.31,0.83-1.72,1.36
				h-0.51v-5.14H35.65z"/>
		</g>
		<g>
			<path class="st2" d="M33.22,51.46c0.65,0,1.16,0.28,1.55,0.83c0.39,0.55,0.58,1.24,0.58,2.06c0,0.81-0.18,1.49-0.55,2.04
				c-0.37,0.56-0.89,0.83-1.56,0.83c-0.7,0-1.23-0.29-1.6-0.87c-0.36-0.58-0.55-1.26-0.55-2.04c0-0.76,0.19-1.43,0.56-2
				C32.03,51.75,32.55,51.46,33.22,51.46z M33.21,52.01c-0.47,0-0.83,0.21-1.05,0.63c-0.23,0.42-0.34,0.96-0.34,1.6
				c0,0.7,0.12,1.28,0.35,1.75c0.23,0.47,0.59,0.7,1.08,0.7c0.47,0,0.82-0.21,1.05-0.64c0.23-0.42,0.34-0.98,0.34-1.68
				c0-0.72-0.12-1.29-0.36-1.72C34.03,52.23,33.68,52.01,33.21,52.01z"/>
		</g>
	</g>
	<g>
		<g>
			<g>
				<g>
					<path class="st2" d="M13.34,8.5c0,0.25,0.1,0.6,0.1,0.85c0,0.25,0,0.5-0.03,0.75c-0.1,0.85-0.41,1.67-1.05,2.24
						c0.59,0.03,2.06,0.03,2.65,0c-0.65-0.57-0.96-1.38-1.05-2.24c-0.03-0.25-0.03-0.5-0.03-0.75c0-0.25,0.1-0.6,0.1-0.85H13.34z"/>
				</g>
			</g>
			<g>
				<g>
					<path class="st2" d="M13.52,9.12c-0.25,0.04-0.39,0.27-0.84,0.75c-0.41,0.43-0.81,0.9-1.73,1.01
						c-0.47,0.06-1.09-0.19-1.37-0.56C9.35,10,9.21,9.62,9.11,9.24C8.92,8.53,8.99,7.82,9.35,7.17c0.36-0.65,1.31-0.93,1.9-0.58
						c0.32,0.19,0.42,0.41,0.71,0.47c0.09,0.02,0.17-0.07,0.14-0.15c-0.12-0.44-0.43-0.49-0.58-1.01c-0.17-0.62-0.27-1.09,0.62-1.87
						c0.68-0.59,2.34-0.53,3.05,0c0.73,0.55,0.8,1.05,0.63,1.66c-0.14,0.48-0.42,0.71-0.55,1.12c-0.04,0.14,0.09,0.27,0.23,0.22
						c0.21-0.08,0.33-0.27,0.6-0.43c0.59-0.35,1.55-0.06,1.9,0.58c0.36,0.65,0.43,1.36,0.24,2.07c-0.1,0.38-0.23,0.76-0.47,1.08
						c-0.28,0.37-0.9,0.62-1.37,0.56c-0.92-0.11-1.32-0.57-1.73-1.01c-0.45-0.48-0.59-0.71-0.84-0.75H13.52z"/>
				</g>
			</g>
		</g>
		<g>
			<g>
				<g>
					<path class="st2" d="M25.98,8.5c0,0.25,0.1,0.6,0.1,0.85c0,0.25,0,0.5-0.03,0.75c-0.1,0.85-0.41,1.67-1.06,2.24
						c0.59,0.03,2.06,0.03,2.65,0c-0.65-0.57-0.96-1.38-1.05-2.24c-0.03-0.25-0.03-0.5-0.03-0.75c0-0.25,0.1-0.6,0.1-0.85H25.98z"/>
				</g>
			</g>
			<g>
				<g>
					<path class="st2" d="M26.15,9.12c-0.25,0.04-0.39,0.27-0.84,0.75c-0.41,0.43-0.81,0.9-1.73,1.01
						c-0.47,0.06-1.09-0.19-1.37-0.56c-0.24-0.31-0.37-0.7-0.47-1.08c-0.19-0.71-0.12-1.42,0.24-2.07c0.35-0.65,1.31-0.93,1.9-0.58
						C24.2,6.78,24.31,7,24.6,7.06c0.09,0.02,0.17-0.07,0.14-0.15c-0.12-0.44-0.43-0.49-0.57-1.01c-0.17-0.62-0.27-1.09,0.62-1.87
						c0.68-0.59,2.34-0.53,3.06,0c0.73,0.55,0.8,1.05,0.63,1.66c-0.14,0.48-0.42,0.71-0.55,1.12c-0.05,0.14,0.09,0.27,0.23,0.22
						c0.21-0.08,0.33-0.27,0.6-0.43c0.59-0.35,1.55-0.06,1.9,0.58c0.36,0.65,0.43,1.36,0.24,2.07c-0.1,0.38-0.23,0.76-0.47,1.08
						c-0.28,0.37-0.9,0.62-1.37,0.56c-0.92-0.11-1.32-0.57-1.73-1.01c-0.45-0.48-0.59-0.71-0.84-0.75H26.15z"/>
				</g>
			</g>
		</g>
	</g>
	<g>
		<g>
			<g>
				<g>
					<path class="st2" d="M26.66,51.5c0-0.25-0.1-0.6-0.1-0.85c0-0.25,0-0.5,0.03-0.75c0.1-0.85,0.41-1.67,1.05-2.24
						c-0.59-0.03-2.06-0.03-2.65,0c0.65,0.57,0.96,1.39,1.06,2.24c0.03,0.25,0.03,0.5,0.03,0.75c0,0.25-0.1,0.6-0.1,0.85H26.66z"/>
				</g>
			</g>
			<g>
				<g>
					<path class="st2" d="M26.48,50.88c0.25-0.04,0.39-0.27,0.84-0.75c0.41-0.43,0.81-0.9,1.73-1.01c0.47-0.06,1.09,0.19,1.37,0.56
						c0.24,0.31,0.37,0.7,0.47,1.08c0.19,0.71,0.12,1.42-0.24,2.07c-0.36,0.65-1.31,0.93-1.9,0.58c-0.32-0.19-0.42-0.41-0.71-0.47
						c-0.09-0.02-0.16,0.07-0.14,0.15c0.11,0.44,0.43,0.49,0.57,1.01c0.17,0.62,0.27,1.09-0.62,1.87c-0.68,0.59-2.34,0.54-3.06,0
						c-0.73-0.55-0.8-1.05-0.63-1.66c0.14-0.49,0.42-0.71,0.55-1.12c0.05-0.14-0.09-0.27-0.23-0.22c-0.21,0.08-0.33,0.27-0.6,0.43
						c-0.59,0.35-1.55,0.06-1.9-0.58c-0.36-0.65-0.43-1.36-0.24-2.07c0.1-0.38,0.23-0.76,0.47-1.08c0.28-0.37,0.9-0.62,1.37-0.56
						c0.92,0.11,1.32,0.57,1.73,1.01c0.45,0.48,0.59,0.71,0.84,0.75H26.48z"/>
				</g>
			</g>
		</g>
		<g>
			<g>
				<g>
					<path class="st2" d="M14.02,51.5c0-0.25-0.1-0.6-0.1-0.85c0-0.25,0-0.5,0.03-0.75c0.09-0.85,0.41-1.67,1.05-2.24
						c-0.59-0.03-2.06-0.03-2.65,0c0.65,0.57,0.96,1.39,1.05,2.24c0.03,0.25,0.03,0.5,0.03,0.75c0,0.25-0.1,0.6-0.1,0.85H14.02z"/>
				</g>
			</g>
			<g>
				<g>
					<path class="st2" d="M13.85,50.88c0.25-0.04,0.39-0.27,0.84-0.75c0.41-0.43,0.81-0.9,1.73-1.01c0.47-0.06,1.09,0.19,1.37,0.56
						c0.24,0.31,0.37,0.7,0.47,1.08c0.19,0.71,0.12,1.42-0.24,2.07c-0.36,0.65-1.31,0.93-1.9,0.58c-0.32-0.19-0.42-0.41-0.71-0.47
						c-0.09-0.02-0.17,0.07-0.14,0.15c0.12,0.44,0.43,0.49,0.58,1.01c0.17,0.62,0.27,1.09-0.62,1.87c-0.68,0.59-2.34,0.54-3.06,0
						c-0.73-0.55-0.8-1.05-0.63-1.66c0.14-0.49,0.42-0.71,0.55-1.12c0.04-0.14-0.09-0.27-0.23-0.22c-0.21,0.08-0.33,0.27-0.6,0.43
						c-0.59,0.35-1.55,0.06-1.9-0.58c-0.36-0.65-0.43-1.36-0.24-2.07c0.1-0.38,0.23-0.76,0.47-1.08c0.28-0.37,0.9-0.62,1.37-0.56
						c0.92,0.11,1.32,0.57,1.73,1.01c0.45,0.48,0.59,0.71,0.84,0.75H13.85z"/>
				</g>
			</g>
		</g>
	</g>
	<g>
		<g>
			<g>
				<g>
					<path class="st2" d="M13.34,25.63c0,0.25,0.1,0.6,0.1,0.85c0,0.25,0,0.5-0.03,0.75c-0.1,0.85-0.41,1.67-1.05,2.24
						c0.59,0.03,2.06,0.03,2.65,0c-0.65-0.57-0.96-1.39-1.05-2.24c-0.03-0.25-0.03-0.5-0.03-0.75c0-0.25,0.1-0.6,0.1-0.85H13.34z"/>
				</g>
			</g>
			<g>
				<g>
					<path class="st2" d="M13.52,26.25c-0.25,0.04-0.39,0.27-0.84,0.75c-0.41,0.43-0.81,0.9-1.73,1.01
						c-0.47,0.06-1.09-0.19-1.37-0.56c-0.24-0.31-0.37-0.7-0.47-1.08c-0.19-0.71-0.12-1.42,0.24-2.07c0.36-0.65,1.31-0.93,1.9-0.58
						c0.32,0.19,0.42,0.41,0.71,0.47c0.09,0.02,0.17-0.07,0.14-0.15c-0.12-0.44-0.43-0.49-0.58-1.01c-0.17-0.62-0.27-1.09,0.62-1.87
						c0.68-0.59,2.34-0.53,3.05,0c0.73,0.55,0.8,1.05,0.63,1.66c-0.14,0.49-0.42,0.71-0.55,1.12c-0.04,0.14,0.09,0.27,0.23,0.22
						c0.21-0.08,0.33-0.27,0.6-0.43c0.59-0.35,1.55-0.06,1.9,0.58c0.36,0.65,0.43,1.36,0.24,2.07c-0.1,0.38-0.23,0.76-0.47,1.08
						c-0.28,0.37-0.9,0.62-1.37,0.56c-0.92-0.11-1.32-0.57-1.73-1.01c-0.45-0.48-0.59-0.71-0.84-0.75H13.52z"/>
				</g>
			</g>
		</g>
		<g>
			<g>
				<g>
					<path class="st2" d="M25.98,25.63c0,0.25,0.1,0.6,0.1,0.85c0,0.25,0,0.5-0.03,0.75c-0.1,0.85-0.41,1.67-1.06,2.24
						c0.59,0.03,2.06,0.03,2.65,0c-0.65-0.57-0.96-1.39-1.05-2.24c-0.03-0.25-0.03-0.5-0.03-0.75c0-0.25,0.1-0.6,0.1-0.85H25.98z"/>
				</g>
			</g>
			<g>
				<g>
					<path class="st2" d="M26.15,26.25c-0.25,0.04-0.39,0.27-0.84,0.75c-0.41,0.43-0.81,0.9-1.73,1.01
						c-0.47,0.06-1.09-0.19-1.37-0.56c-0.24-0.31-0.37-0.7-0.47-1.08c-0.19-0.71-0.12-1.42,0.24-2.07c0.35-0.65,1.31-0.93,1.9-0.58
						c0.32,0.19,0.42,0.41,0.71,0.47c0.09,0.02,0.17-0.07,0.14-0.15c-0.12-0.44-0.43-0.49-0.57-1.01c-0.17-0.62-0.27-1.09,0.62-1.87
						c0.68-0.59,2.34-0.53,3.06,0c0.73,0.55,0.8,1.05,0.63,1.66c-0.14,0.49-0.42,0.71-0.55,1.12c-0.05,0.14,0.09,0.27,0.23,0.22
						c0.21-0.08,0.33-0.27,0.6-0.43c0.59-0.35,1.55-0.06,1.9,0.58c0.36,0.65,0.43,1.36,0.24,2.07c-0.1,0.38-0.23,0.76-0.47,1.08
						c-0.28,0.37-0.9,0.62-1.37,0.56c-0.92-0.11-1.32-0.57-1.73-1.01c-0.45-0.48-0.59-0.71-0.84-0.75H26.15z"/>
				</g>
			</g>
		</g>
	</g>
	<g>
		<g>
			<g>
				<g>
					<path class="st2" d="M26.66,34.84c0-0.25-0.1-0.6-0.1-0.85c0-0.25,0-0.5,0.03-0.75c0.1-0.85,0.41-1.67,1.05-2.24
						c-0.59-0.03-2.06-0.03-2.65,0c0.65,0.57,0.96,1.39,1.06,2.24c0.03,0.25,0.03,0.5,0.03,0.75c0,0.25-0.1,0.6-0.1,0.85H26.66z"/>
				</g>
			</g>
			<g>
				<g>
					<path class="st2" d="M26.48,34.22c0.25-0.04,0.39-0.27,0.84-0.75c0.41-0.43,0.81-0.9,1.73-1.01c0.47-0.06,1.09,0.19,1.37,0.56
						c0.24,0.31,0.37,0.7,0.47,1.08c0.19,0.71,0.12,1.42-0.24,2.07c-0.36,0.65-1.31,0.93-1.9,0.58c-0.32-0.19-0.42-0.41-0.71-0.47
						c-0.09-0.02-0.16,0.07-0.14,0.15c0.11,0.44,0.43,0.49,0.57,1.01c0.17,0.62,0.27,1.09-0.62,1.87c-0.68,0.59-2.34,0.53-3.06,0
						c-0.73-0.55-0.8-1.05-0.63-1.66c0.14-0.48,0.42-0.71,0.55-1.12c0.05-0.14-0.09-0.27-0.23-0.22c-0.21,0.08-0.33,0.27-0.6,0.43
						c-0.59,0.35-1.55,0.06-1.9-0.58c-0.36-0.65-0.43-1.36-0.24-2.07c0.1-0.38,0.23-0.76,0.47-1.08c0.28-0.37,0.9-0.62,1.37-0.56
						c0.92,0.11,1.32,0.57,1.73,1.01c0.45,0.48,0.59,0.71,0.84,0.75H26.48z"/>
				</g>
			</g>
		</g>
		<g>
			<g>
				<g>
					<path class="st2" d="M14.02,34.84c0-0.25-0.1-0.6-0.1-0.85c0-0.25,0-0.5,0.03-0.75c0.09-0.85,0.41-1.67,1.05-2.24
						c-0.59-0.03-2.06-0.03-2.65,0c0.65,0.57,0.96,1.39,1.05,2.24c0.03,0.25,0.03,0.5,0.03,0.75c0,0.25-0.1,0.6-0.1,0.85H14.02z"/>
				</g>
			</g>
			<g>
				<g>
					<path class="st2" d="M13.85,34.22c0.25-0.04,0.39-0.27,0.84-0.75c0.41-0.43,0.81-0.9,1.73-1.01c0.47-0.06,1.09,0.19,1.37,0.56
						c0.24,0.31,0.37,0.7,0.47,1.08c0.19,0.71,0.12,1.42-0.24,2.07c-0.36,0.65-1.31,0.93-1.9,0.58c-0.32-0.19-0.42-0.41-0.71-0.47
						c-0.09-0.02-0.17,0.07-0.14,0.15c0.12,0.44,0.43,0.49,0.58,1.01c0.17,0.62,0.27,1.09-0.62,1.87c-0.68,0.59-2.34,0.53-3.06,0
						c-0.73-0.55-0.8-1.05-0.63-1.66c0.14-0.48,0.42-0.71,0.55-1.12c0.04-0.14-0.09-0.27-0.23-0.22c-0.21,0.08-0.33,0.27-0.6,0.43
						c-0.59,0.35-1.55,0.06-1.9-0.58c-0.36-0.65-0.43-1.36-0.24-2.07c0.1-0.38,0.23-0.76,0.47-1.08c0.28-0.37,0.9-0.62,1.37-0.56
						c0.92,0.11,1.32,0.57,1.73,1.01c0.45,0.48,0.59,0.71,0.84,0.75H13.85z"/>
				</g>
			</g>
		</g>
	</g>
	<g>
		<g>
			<g>
				<path class="st2" d="M19.95,17.05c0,0.25,0.1,0.6,0.1,0.85c0,0.25,0,0.5-0.03,0.75c-0.09,0.85-0.41,1.67-1.05,2.24
					c0.59,0.03,2.06,0.03,2.65,0c-0.65-0.57-0.96-1.38-1.05-2.24c-0.03-0.25-0.03-0.5-0.03-0.75c0-0.25,0.1-0.6,0.1-0.85H19.95z"/>
			</g>
		</g>
		<g>
			<g>
				<path class="st2" d="M20.13,17.67c-0.25,0.04-0.39,0.27-0.84,0.75c-0.41,0.43-0.81,0.9-1.73,1.01
					c-0.47,0.06-1.09-0.19-1.37-0.56c-0.24-0.31-0.37-0.7-0.47-1.08c-0.19-0.71-0.12-1.42,0.24-2.07c0.36-0.65,1.31-0.93,1.9-0.58
					c0.32,0.19,0.42,0.41,0.71,0.47c0.09,0.02,0.16-0.07,0.14-0.15c-0.12-0.44-0.43-0.49-0.58-1.01c-0.17-0.62-0.27-1.09,0.62-1.87
					c0.68-0.59,2.34-0.53,3.06,0c0.73,0.55,0.8,1.05,0.63,1.66c-0.14,0.49-0.42,0.71-0.55,1.12c-0.04,0.14,0.09,0.27,0.23,0.22
					c0.21-0.08,0.33-0.27,0.6-0.43c0.59-0.35,1.55-0.06,1.9,0.58c0.36,0.65,0.43,1.36,0.24,2.07c-0.1,0.38-0.23,0.76-0.47,1.08
					c-0.28,0.37-0.9,0.62-1.37,0.56c-0.92-0.11-1.32-0.57-1.73-1.01c-0.45-0.48-0.59-0.71-0.84-0.75H20.13z"/>
			</g>
		</g>
	</g>
	<g>
		<g>
			<g>
				<path class="st2" d="M20.04,42.95c0-0.25-0.1-0.6-0.1-0.85c0-0.25,0-0.5,0.03-0.75c0.1-0.85,0.41-1.67,1.05-2.24
					c-0.59-0.03-2.06-0.03-2.65,0c0.65,0.57,0.96,1.39,1.05,2.24c0.03,0.25,0.03,0.5,0.03,0.75c0,0.25-0.1,0.6-0.1,0.85H20.04z"/>
			</g>
		</g>
		<g>
			<g>
				<path class="st2" d="M19.87,42.33c0.25-0.04,0.39-0.27,0.84-0.75c0.41-0.43,0.81-0.9,1.73-1.01c0.47-0.06,1.09,0.19,1.37,0.56
					c0.24,0.31,0.37,0.7,0.47,1.08c0.19,0.71,0.12,1.42-0.24,2.07c-0.36,0.65-1.31,0.93-1.9,0.58c-0.32-0.19-0.42-0.41-0.71-0.47
					c-0.09-0.02-0.17,0.07-0.14,0.15c0.12,0.44,0.43,0.49,0.58,1.01c0.17,0.62,0.27,1.09-0.62,1.87c-0.68,0.59-2.34,0.53-3.05,0
					c-0.73-0.55-0.8-1.05-0.63-1.66c0.14-0.48,0.42-0.71,0.55-1.12c0.04-0.14-0.09-0.27-0.23-0.22c-0.21,0.08-0.33,0.27-0.6,0.44
					c-0.59,0.35-1.55,0.06-1.9-0.58c-0.36-0.65-0.43-1.36-0.24-2.07c0.1-0.38,0.23-0.76,0.47-1.08c0.28-0.37,0.9-0.62,1.37-0.56
					c0.92,0.11,1.32,0.57,1.73,1.01c0.45,0.48,0.59,0.71,0.84,0.75H19.87z"/>
			</g>
		</g>
	</g>
</g>
</svg>
