<?xml version="1.0" encoding="utf-8"?>
<!-- Generator: Adobe Illustrator 26.3.1, SVG Export Plug-In . SVG Version: 6.00 Build 0)  -->
<svg version="1.0" id="Layer_1" xmlns="http://www.w3.org/2000/svg" xmlns:xlink="http://www.w3.org/1999/xlink" x="0px" y="0px"
	 viewBox="0 0 40 60" enable-background="new 0 0 40 60" xml:space="preserve">
<g>
	<g>
		<path fill="#FFFFFF" d="M36.12,59.41H3.88c-1.81,0-3.29-1.46-3.29-3.27V3.86c0-1.81,1.47-3.27,3.29-3.27h32.25
			c1.81,0,3.29,1.46,3.29,3.27v52.29C39.41,57.95,37.94,59.41,36.12,59.41z"/>
		<path fill="#2D2D2D" d="M36.12,59.5H3.88c-1.86,0-3.38-1.51-3.38-3.36V3.86C0.5,2,2.01,0.5,3.88,0.5h32.25
			c1.86,0,3.38,1.5,3.38,3.36v52.29C39.5,57.99,37.99,59.5,36.12,59.5z M3.88,0.68c-1.76,0-3.2,1.42-3.2,3.18v52.29
			c0,1.75,1.43,3.18,3.2,3.18h32.25c1.76,0,3.2-1.43,3.2-3.18V3.86c0-1.75-1.43-3.18-3.2-3.18H3.88z"/>
	</g>
	<g>
		<g>
			<path fill="#D6002B" d="M5.54,12.54c0.05,0,0.09-0.01,0.13-0.04c0.29-0.19,1.02-0.96,1.24-1.18c0.04-0.04,0.08-0.09,0.07-0.15
				c0-0.04-0.04-0.08-0.07-0.11c-0.32-0.32-0.66-0.62-0.96-0.95C5.81,9.96,5.66,9.8,5.56,9.79H5.51c-0.1,0.01-0.25,0.17-0.38,0.32
				c-0.3,0.33-0.64,0.63-0.96,0.95c-0.03,0.03-0.07,0.07-0.07,0.11c-0.01,0.06,0.04,0.11,0.08,0.15c0.21,0.21,0.95,0.99,1.24,1.18
				C5.45,12.53,5.49,12.54,5.54,12.54L5.54,12.54z"/>
		</g>
	</g>
	<g>
		<g>
			<path fill="#D6002B" d="M34.48,49.99c0.04,0,0.09-0.01,0.13-0.04c0.29-0.19,1.02-0.96,1.24-1.18c0.04-0.04,0.08-0.09,0.08-0.15
				c0-0.05-0.04-0.08-0.07-0.11c-0.32-0.32-0.66-0.62-0.96-0.95c-0.13-0.14-0.28-0.31-0.38-0.32h-0.05
				c-0.1,0.01-0.25,0.17-0.38,0.32c-0.3,0.34-0.64,0.64-0.96,0.95c-0.03,0.03-0.07,0.07-0.07,0.11c-0.01,0.06,0.04,0.11,0.08,0.15
				c0.21,0.22,0.95,0.99,1.24,1.18C34.39,49.97,34.43,49.99,34.48,49.99L34.48,49.99z"/>
		</g>
	</g>
	<g>
		<g>
			<path fill="#D6002B" d="M4.74,8.28v0.51H2.68V8.28h0.75v-4.2c-0.48,0.5-0.99,0.89-1.51,1.17V4.56C2.64,4.19,3.2,3.74,3.6,3.23
				h0.49v5.05H4.74z"/>
		</g>
		<g>
			<path fill="#D6002B" d="M7.11,8.89c-0.63,0-1.14-0.27-1.51-0.82C5.22,7.53,5.03,6.86,5.03,6.05c0-0.79,0.18-1.46,0.54-2.01
				C5.93,3.5,6.44,3.23,7.09,3.23c0.69,0,1.2,0.28,1.56,0.85c0.35,0.57,0.53,1.24,0.53,2c0,0.75-0.18,1.41-0.55,1.97
				C8.27,8.61,7.77,8.89,7.11,8.89z M7.12,8.36c0.46,0,0.8-0.21,1.03-0.62c0.22-0.42,0.33-0.94,0.33-1.57
				c0-0.69-0.11-1.26-0.34-1.72C7.91,3.99,7.56,3.76,7.08,3.76c-0.46,0-0.8,0.21-1.02,0.63C5.84,4.8,5.73,5.35,5.73,6.03
				c0,0.71,0.12,1.27,0.35,1.69C6.32,8.14,6.66,8.36,7.12,8.36z"/>
		</g>
	</g>
	<g>
		<g>
			<path fill="#D6002B" d="M35.26,51.72v-0.51h2.06v0.51h-0.75v4.21c0.48-0.5,0.99-0.9,1.51-1.18v0.69
				c-0.72,0.37-1.28,0.82-1.67,1.34h-0.49v-5.05H35.26z"/>
		</g>
		<g>
			<path fill="#D6002B" d="M32.89,51.1c0.63,0,1.14,0.27,1.51,0.82c0.38,0.54,0.57,1.22,0.57,2.03c0,0.79-0.18,1.46-0.54,2.01
				c-0.36,0.55-0.87,0.82-1.52,0.82c-0.68,0-1.2-0.28-1.56-0.85c-0.35-0.57-0.53-1.24-0.53-2c0-0.75,0.18-1.41,0.55-1.97
				C31.73,51.39,32.23,51.1,32.89,51.1z M32.88,51.64c-0.46,0-0.8,0.21-1.03,0.63c-0.22,0.42-0.33,0.94-0.33,1.57
				c0,0.69,0.11,1.26,0.34,1.72c0.23,0.46,0.58,0.68,1.05,0.68c0.46,0,0.8-0.21,1.02-0.63c0.22-0.42,0.33-0.97,0.33-1.65
				c0-0.71-0.12-1.27-0.35-1.69C33.68,51.85,33.34,51.64,32.88,51.64z"/>
		</g>
	</g>
	<g>
		<g>
			<g>
				<path fill="#D6002B" d="M13.94,13.01c0.15,0,0.29-0.04,0.42-0.12c0.94-0.62,3.37-3.16,4.07-3.87c0.13-0.13,0.27-0.3,0.25-0.49
					c-0.02-0.15-0.13-0.27-0.24-0.38c-1.05-1.05-2.17-2.04-3.16-3.14c-0.43-0.48-0.94-1.02-1.25-1.04h-0.16
					c-0.32,0.02-0.82,0.57-1.25,1.04c-0.99,1.1-2.11,2.09-3.16,3.14C9.33,8.25,9.22,8.37,9.2,8.53C9.18,8.71,9.31,8.88,9.45,9.01
					c0.7,0.71,3.13,3.25,4.07,3.87C13.64,12.97,13.79,13.01,13.94,13.01L13.94,13.01z"/>
			</g>
		</g>
		<g>
			<g>
				<path fill="#D6002B" d="M26.07,13.01c0.15,0,0.29-0.04,0.42-0.12c0.94-0.62,3.37-3.16,4.07-3.87c0.13-0.13,0.27-0.3,0.25-0.49
					c-0.02-0.15-0.13-0.27-0.24-0.38c-1.06-1.05-2.17-2.04-3.16-3.14c-0.43-0.48-0.94-1.02-1.25-1.04h-0.16
					c-0.32,0.02-0.82,0.57-1.25,1.04c-0.99,1.1-2.11,2.09-3.16,3.14c-0.11,0.11-0.22,0.23-0.24,0.38c-0.02,0.19,0.11,0.35,0.25,0.49
					c0.7,0.71,3.13,3.25,4.07,3.87C25.77,12.97,25.91,13.01,26.07,13.01L26.07,13.01z"/>
			</g>
		</g>
	</g>
	<g>
		<g>
			<g>
				<path fill="#D6002B" d="M13.94,28.91c0.15,0,0.29-0.04,0.42-0.12c0.94-0.62,3.37-3.16,4.07-3.88c0.13-0.13,0.27-0.3,0.25-0.49
					c-0.02-0.15-0.13-0.27-0.24-0.38c-1.05-1.05-2.17-2.04-3.16-3.14c-0.43-0.48-0.94-1.02-1.25-1.04h-0.16
					c-0.32,0.02-0.82,0.57-1.25,1.04c-0.99,1.1-2.11,2.09-3.16,3.14c-0.11,0.11-0.22,0.23-0.24,0.38c-0.02,0.19,0.11,0.36,0.25,0.49
					c0.7,0.71,3.13,3.25,4.07,3.88C13.64,28.87,13.79,28.91,13.94,28.91L13.94,28.91z"/>
			</g>
		</g>
		<g>
			<g>
				<path fill="#D6002B" d="M26.07,28.91c0.15,0,0.29-0.04,0.42-0.12c0.94-0.62,3.37-3.16,4.07-3.88c0.13-0.13,0.27-0.3,0.25-0.49
					c-0.02-0.15-0.13-0.27-0.24-0.38c-1.06-1.05-2.17-2.04-3.16-3.14c-0.43-0.48-0.94-1.02-1.25-1.04h-0.16
					c-0.32,0.02-0.82,0.57-1.25,1.04c-0.99,1.1-2.11,2.09-3.16,3.14c-0.11,0.11-0.22,0.23-0.24,0.38c-0.02,0.19,0.11,0.36,0.25,0.49
					c0.7,0.71,3.13,3.25,4.07,3.88C25.77,28.87,25.91,28.91,26.07,28.91L26.07,28.91z"/>
			</g>
		</g>
	</g>
	<g>
		<g>
			<path fill="#D6002B" d="M20,21.11c0.15,0,0.29-0.04,0.42-0.12c0.94-0.62,3.37-3.16,4.07-3.88c0.13-0.14,0.27-0.3,0.25-0.49
				c-0.02-0.15-0.13-0.27-0.24-0.38c-1.05-1.05-2.17-2.04-3.16-3.14c-0.43-0.48-0.94-1.02-1.25-1.04h-0.16
				c-0.32,0.02-0.82,0.57-1.25,1.04c-0.99,1.1-2.11,2.09-3.16,3.14c-0.11,0.11-0.22,0.23-0.24,0.38c-0.02,0.19,0.11,0.35,0.25,0.49
				c0.7,0.71,3.13,3.25,4.07,3.88C19.7,21.07,19.85,21.11,20,21.11L20,21.11z"/>
		</g>
	</g>
	<g>
		<g>
			<g>
				<path fill="#D6002B" d="M26.06,46.99c-0.15,0-0.29,0.04-0.42,0.12c-0.94,0.62-3.37,3.16-4.07,3.88
					c-0.13,0.14-0.27,0.3-0.25,0.49c0.02,0.15,0.13,0.27,0.24,0.38c1.05,1.05,2.17,2.04,3.16,3.14c0.43,0.48,0.94,1.02,1.25,1.04
					h0.16c0.32-0.02,0.83-0.57,1.25-1.04c0.99-1.1,2.11-2.09,3.16-3.14c0.11-0.11,0.22-0.23,0.24-0.38
					c0.02-0.19-0.11-0.35-0.25-0.49c-0.7-0.71-3.13-3.25-4.07-3.88C26.36,47.03,26.21,46.99,26.06,46.99L26.06,46.99z"/>
			</g>
		</g>
		<g>
			<g>
				<path fill="#D6002B" d="M13.93,46.99c-0.15,0-0.29,0.04-0.42,0.12c-0.94,0.62-3.37,3.16-4.07,3.88
					c-0.13,0.14-0.27,0.3-0.25,0.49c0.02,0.15,0.13,0.27,0.24,0.38c1.05,1.05,2.17,2.04,3.16,3.14c0.43,0.48,0.94,1.02,1.25,1.04
					h0.16c0.32-0.02,0.83-0.57,1.25-1.04c0.99-1.1,2.11-2.09,3.16-3.14c0.11-0.11,0.22-0.23,0.24-0.38
					c0.02-0.19-0.12-0.35-0.25-0.49c-0.7-0.71-3.13-3.25-4.07-3.88C14.23,47.03,14.09,46.99,13.93,46.99L13.93,46.99z"/>
			</g>
		</g>
	</g>
	<g>
		<g>
			<g>
				<path fill="#D6002B" d="M26.06,31.09c-0.15,0-0.29,0.04-0.42,0.12c-0.94,0.62-3.37,3.16-4.07,3.88
					c-0.13,0.13-0.27,0.3-0.25,0.49c0.02,0.15,0.13,0.27,0.24,0.38c1.05,1.05,2.17,2.04,3.16,3.14c0.43,0.48,0.94,1.02,1.25,1.04
					h0.16c0.32-0.02,0.83-0.57,1.25-1.04c0.99-1.1,2.11-2.09,3.16-3.14c0.11-0.11,0.22-0.23,0.24-0.38
					c0.02-0.19-0.11-0.36-0.25-0.49c-0.7-0.71-3.13-3.25-4.07-3.88C26.36,31.13,26.21,31.09,26.06,31.09L26.06,31.09z"/>
			</g>
		</g>
		<g>
			<g>
				<path fill="#D6002B" d="M13.93,31.09c-0.15,0-0.29,0.04-0.42,0.12c-0.94,0.62-3.37,3.16-4.07,3.88
					c-0.13,0.13-0.27,0.3-0.25,0.49c0.02,0.15,0.13,0.27,0.24,0.38c1.05,1.05,2.17,2.04,3.16,3.14c0.43,0.48,0.94,1.02,1.25,1.04
					h0.16c0.32-0.02,0.83-0.57,1.25-1.04c0.99-1.1,2.11-2.09,3.16-3.14c0.11-0.11,0.22-0.23,0.24-0.38
					c0.02-0.19-0.12-0.36-0.25-0.49c-0.7-0.71-3.13-3.25-4.07-3.88C14.23,31.13,14.09,31.09,13.93,31.09L13.93,31.09z"/>
			</g>
		</g>
	</g>
	<g>
		<g>
			<path fill="#D6002B" d="M20,38.89c-0.15,0-0.29,0.04-0.42,0.12c-0.94,0.62-3.36,3.16-4.07,3.88c-0.13,0.13-0.27,0.3-0.25,0.49
				c0.02,0.15,0.13,0.27,0.24,0.38c1.06,1.05,2.17,2.04,3.16,3.14c0.43,0.48,0.94,1.02,1.25,1.04h0.16
				c0.32-0.02,0.83-0.57,1.25-1.04c0.99-1.1,2.11-2.09,3.16-3.14c0.11-0.11,0.22-0.23,0.24-0.38c0.02-0.19-0.12-0.36-0.25-0.49
				c-0.7-0.71-3.13-3.25-4.07-3.88C20.29,38.93,20.15,38.89,20,38.89L20,38.89z"/>
		</g>
	</g>
</g>
</svg>
