<?xml version="1.0" encoding="utf-8"?>
<!-- Generator: Adobe Illustrator 26.3.1, SVG Export Plug-In . SVG Version: 6.00 Build 0)  -->
<svg version="1.1" id="Layer_1" xmlns="http://www.w3.org/2000/svg" xmlns:xlink="http://www.w3.org/1999/xlink" x="0px" y="0px"
	 viewBox="0 0 40 60" style="enable-background:new 0 0 40 60;" xml:space="preserve">
<style type="text/css">
	.st0{fill:#FFFFFF;}
	.st1{fill:#2D2D2D;}
	.st2{fill:#0C0A35;}
</style>
<g>
	<g>
		<path class="st0" d="M36.54,59.91H3.46c-1.86,0-3.37-1.49-3.37-3.32V3.41c0-1.83,1.51-3.32,3.37-3.32h33.08
			c1.86,0,3.37,1.49,3.37,3.32v53.17C39.91,58.42,38.4,59.91,36.54,59.91z"/>
		<path class="st1" d="M36.54,60H3.46C1.55,60,0,58.47,0,56.59V3.41C0,1.53,1.55,0,3.46,0h33.08C38.45,0,40,1.53,40,3.41v53.17
			C40,58.47,38.45,60,36.54,60z M3.46,0.18c-1.81,0-3.28,1.45-3.28,3.23v53.17c0,1.78,1.47,3.23,3.28,3.23h33.08
			c1.81,0,3.28-1.45,3.28-3.23V3.41c0-1.78-1.47-3.23-3.28-3.23H3.46z"/>
	</g>
	<g>
		<g>
			<g>
				<path class="st2" d="M34.63,48.79c0-0.1,0.04-0.24,0.04-0.34c0-0.1,0-0.2-0.01-0.3c-0.04-0.34-0.16-0.66-0.42-0.89
					c0.23-0.01,0.82-0.01,1.06,0c-0.26,0.23-0.38,0.55-0.42,0.89c-0.01,0.1-0.01,0.2-0.01,0.3c0,0.1,0.04,0.24,0.04,0.34H34.63z"/>
			</g>
		</g>
		<g>
			<path class="st2" d="M34.72,48.41c-0.21-0.31-0.57-0.53-0.96-0.52c-0.38,0.01-0.75,0.28-0.82,0.65c-0.06,0.32,0.1,0.66,0.32,0.9
				c0.23,0.24,0.54,0.4,0.82,0.58c0.28,0.18,0.69,0.65,0.69,0.65s0.44-0.45,0.68-0.63c0.27-0.2,0.6-0.35,0.82-0.59
				c0.23-0.24,0.39-0.58,0.32-0.9c-0.07-0.37-0.44-0.64-0.82-0.65c-0.38-0.01-0.75,0.21-0.95,0.52H34.72z"/>
		</g>
	</g>
	<g>
		<g>
			<g>
				<path class="st2" d="M5.24,10.94c0,0.1-0.04,0.24-0.04,0.34c0,0.1,0,0.2,0.01,0.3c0.04,0.34,0.16,0.67,0.42,0.9
					c-0.23,0.01-0.82,0.01-1.06,0c0.26-0.23,0.38-0.55,0.42-0.9C5,11.48,5,11.38,5,11.28c0-0.1-0.04-0.24-0.04-0.34H5.24z"/>
			</g>
		</g>
		<g>
			<path class="st2" d="M5.15,11.32c0.21,0.31,0.57,0.53,0.96,0.52c0.38-0.01,0.75-0.29,0.82-0.65c0.06-0.32-0.1-0.66-0.32-0.9
				c-0.23-0.24-0.54-0.4-0.82-0.58C5.5,9.52,5.1,9.06,5.1,9.06S4.66,9.51,4.42,9.69c-0.27,0.2-0.59,0.35-0.82,0.59
				c-0.23,0.24-0.39,0.58-0.32,0.9c0.07,0.37,0.44,0.64,0.82,0.65c0.38,0.01,0.75-0.21,0.95-0.52H5.15z"/>
		</g>
	</g>
	<g>
		<g>
			<path class="st2" d="M4.35,7.91v0.52H2.24V7.91h0.77V3.63C2.51,4.14,2,4.54,1.46,4.83v-0.7C2.2,3.75,2.77,3.3,3.18,2.77h0.51
				v5.14H4.35z"/>
		</g>
		<g>
			<path class="st2" d="M6.78,8.54c-0.65,0-1.17-0.28-1.55-0.83S4.65,6.47,4.65,5.65c0-0.81,0.18-1.49,0.55-2.04
				c0.37-0.56,0.89-0.83,1.56-0.83c0.7,0,1.23,0.29,1.6,0.87C8.72,4.22,8.91,4.9,8.91,5.68c0,0.76-0.19,1.43-0.56,2
				C7.97,8.25,7.45,8.54,6.78,8.54z M6.79,7.99c0.47,0,0.83-0.21,1.05-0.63c0.23-0.42,0.34-0.96,0.34-1.6c0-0.7-0.12-1.28-0.35-1.75
				c-0.23-0.46-0.59-0.7-1.08-0.7c-0.47,0-0.82,0.21-1.05,0.64C5.48,4.37,5.36,4.93,5.36,5.62c0,0.72,0.12,1.29,0.36,1.72
				C5.97,7.77,6.32,7.99,6.79,7.99z"/>
		</g>
	</g>
	<g>
		<g>
			<path class="st2" d="M35.65,52.09v-0.52h2.11v0.52h-0.77v4.28c0.5-0.51,1.01-0.91,1.55-1.2v0.7c-0.74,0.38-1.31,0.83-1.72,1.36
				h-0.51v-5.14H35.65z"/>
		</g>
		<g>
			<path class="st2" d="M33.22,51.46c0.65,0,1.16,0.28,1.55,0.83c0.39,0.55,0.58,1.24,0.58,2.06c0,0.81-0.18,1.49-0.55,2.04
				c-0.37,0.55-0.89,0.83-1.56,0.83c-0.7,0-1.23-0.29-1.6-0.87c-0.36-0.58-0.55-1.26-0.55-2.04c0-0.76,0.19-1.43,0.56-2
				C32.03,51.75,32.55,51.46,33.22,51.46z M33.21,52.01c-0.47,0-0.83,0.21-1.05,0.64c-0.23,0.42-0.34,0.95-0.34,1.6
				c0,0.7,0.12,1.28,0.35,1.75c0.23,0.47,0.59,0.7,1.08,0.7c0.47,0,0.82-0.21,1.05-0.64c0.23-0.43,0.34-0.98,0.34-1.68
				c0-0.72-0.12-1.29-0.36-1.72C34.03,52.22,33.68,52.01,33.21,52.01z"/>
		</g>
	</g>
	<g>
		<g>
			<g>
				<g>
					<path class="st2" d="M14.27,7.89c0,0.25-0.1,0.6-0.1,0.85c0,0.25,0,0.5,0.03,0.75c0.1,0.85,0.41,1.67,1.06,2.24
						c-0.59,0.03-2.06,0.03-2.65,0c0.65-0.57,0.96-1.39,1.06-2.24c0.03-0.25,0.03-0.5,0.03-0.75c0-0.25-0.1-0.6-0.1-0.85H14.27z"/>
				</g>
			</g>
			<g>
				<path class="st2" d="M14.05,8.83c0.52,0.79,1.44,1.34,2.39,1.31c0.95-0.03,1.88-0.72,2.07-1.64c0.16-0.81-0.24-1.65-0.81-2.25
					c-0.57-0.61-1.36-1-2.06-1.46c-0.71-0.46-1.72-1.62-1.72-1.62s-1.1,1.13-1.71,1.59c-0.67,0.5-1.49,0.88-2.06,1.49
					C9.58,6.85,9.18,7.69,9.34,8.5c0.19,0.92,1.11,1.61,2.06,1.64c0.95,0.03,1.87-0.52,2.39-1.31H14.05z"/>
			</g>
		</g>
		<g>
			<g>
				<g>
					<path class="st2" d="M26.42,7.89c0,0.25-0.1,0.6-0.1,0.85c0,0.25,0,0.5,0.03,0.75c0.1,0.85,0.41,1.67,1.06,2.24
						c-0.59,0.03-2.06,0.03-2.65,0c0.65-0.57,0.96-1.39,1.05-2.24c0.03-0.25,0.03-0.5,0.03-0.75c0-0.25-0.1-0.6-0.1-0.85H26.42z"/>
				</g>
			</g>
			<g>
				<path class="st2" d="M26.2,8.83c0.52,0.79,1.44,1.34,2.39,1.31c0.95-0.03,1.88-0.72,2.07-1.64c0.16-0.81-0.24-1.65-0.81-2.25
					c-0.57-0.61-1.36-1-2.05-1.46c-0.71-0.46-1.72-1.62-1.72-1.62s-1.1,1.13-1.71,1.59c-0.66,0.5-1.49,0.88-2.06,1.49
					c-0.57,0.6-0.97,1.44-0.81,2.25c0.18,0.92,1.11,1.61,2.07,1.64c0.95,0.03,1.87-0.52,2.39-1.31H26.2z"/>
			</g>
		</g>
	</g>
	<g>
		<g>
			<g>
				<g>
					<path class="st2" d="M14.26,24.75c-0.01,0.25-0.12,0.6-0.12,0.85c-0.01,0.25-0.01,0.5,0.01,0.75c0.07,0.86,0.36,1.68,1,2.27
						c-0.59,0.02-2.06-0.02-2.65-0.07c0.66-0.56,1-1.36,1.11-2.21c0.03-0.25,0.04-0.5,0.05-0.75c0.01-0.25-0.08-0.61-0.08-0.85
						L14.26,24.75z"/>
				</g>
			</g>
			<g>
				<path class="st2" d="M14.02,25.69c0.5,0.8,1.41,1.38,2.36,1.37c0.95-0.01,1.9-0.67,2.11-1.59c0.18-0.81-0.2-1.65-0.75-2.27
					c-0.56-0.62-1.33-1.04-2.02-1.51c-0.7-0.48-1.68-1.66-1.68-1.66s-1.13,1.1-1.75,1.55c-0.68,0.49-1.51,0.84-2.1,1.44
					c-0.59,0.59-1.01,1.41-0.86,2.23c0.16,0.93,1.07,1.63,2.02,1.69c0.95,0.05,1.88-0.48,2.42-1.25L14.02,25.69z"/>
			</g>
		</g>
		<g>
			<g>
				<g>
					<path class="st2" d="M26.4,25.05c0,0.25-0.12,0.6-0.12,0.85c-0.01,0.25-0.01,0.5,0.01,0.75c0.07,0.86,0.36,1.68,1,2.26
						c-0.59,0.02-2.06-0.02-2.65-0.06c0.66-0.56,1-1.36,1.11-2.21c0.03-0.25,0.04-0.5,0.05-0.75c0.01-0.25-0.09-0.61-0.08-0.85
						L26.4,25.05z"/>
				</g>
			</g>
			<g>
				<path class="st2" d="M26.16,25.99c0.5,0.8,1.41,1.38,2.36,1.37c0.95-0.01,1.9-0.67,2.11-1.59c0.18-0.81-0.2-1.65-0.75-2.27
					c-0.56-0.62-1.33-1.04-2.02-1.51c-0.7-0.48-1.68-1.66-1.68-1.66s-1.13,1.1-1.75,1.55c-0.68,0.49-1.51,0.85-2.1,1.44
					c-0.59,0.59-1.01,1.41-0.87,2.23c0.16,0.93,1.07,1.63,2.02,1.69c0.95,0.05,1.88-0.47,2.43-1.25L26.16,25.99z"/>
			</g>
		</g>
	</g>
	<g>
		<g>
			<g>
				<path class="st2" d="M20.34,16.47c0,0.25-0.1,0.6-0.1,0.85c0,0.25,0,0.5,0.03,0.75c0.09,0.85,0.41,1.67,1.06,2.24
					c-0.59,0.03-2.06,0.03-2.65,0c0.65-0.57,0.96-1.38,1.06-2.24c0.03-0.25,0.03-0.5,0.03-0.75c0-0.25-0.1-0.6-0.1-0.85H20.34z"/>
			</g>
		</g>
		<g>
			<path class="st2" d="M20.12,17.41c0.52,0.79,1.44,1.34,2.39,1.31c0.95-0.03,1.88-0.72,2.07-1.64c0.16-0.81-0.24-1.65-0.81-2.25
				c-0.57-0.61-1.36-1-2.06-1.46C21,12.91,20,11.75,20,11.75s-1.1,1.13-1.71,1.59c-0.67,0.5-1.49,0.88-2.06,1.49
				c-0.57,0.6-0.97,1.44-0.81,2.25c0.19,0.92,1.11,1.61,2.07,1.64c0.95,0.03,1.87-0.52,2.39-1.31H20.12z"/>
		</g>
	</g>
	<g>
		<g>
			<g>
				<g>
					<path class="st2" d="M25.73,52.11c0-0.25,0.1-0.6,0.1-0.85c0-0.25,0-0.5-0.03-0.75c-0.09-0.85-0.4-1.67-1.05-2.24
						c0.59-0.03,2.06-0.03,2.65,0c-0.65,0.57-0.96,1.38-1.06,2.24c-0.03,0.25-0.03,0.5-0.03,0.75c0,0.25,0.1,0.6,0.1,0.85H25.73z"/>
				</g>
			</g>
			<g>
				<path class="st2" d="M25.95,51.17c-0.52-0.79-1.44-1.34-2.39-1.31c-0.95,0.03-1.88,0.72-2.07,1.64
					c-0.16,0.81,0.24,1.64,0.81,2.25c0.57,0.6,1.36,1,2.06,1.46c0.71,0.46,1.72,1.62,1.72,1.62s1.1-1.13,1.71-1.59
					c0.67-0.5,1.49-0.88,2.06-1.49c0.57-0.61,0.97-1.44,0.81-2.25c-0.19-0.92-1.11-1.61-2.07-1.64c-0.95-0.03-1.87,0.52-2.39,1.31
					H25.95z"/>
			</g>
		</g>
		<g>
			<g>
				<g>
					<path class="st2" d="M13.59,52.11c0-0.25,0.1-0.6,0.1-0.85c0-0.25,0-0.5-0.03-0.75c-0.1-0.85-0.41-1.67-1.06-2.24
						c0.59-0.03,2.06-0.03,2.65,0c-0.65,0.57-0.96,1.38-1.06,2.24c-0.03,0.25-0.03,0.5-0.03,0.75c0,0.25,0.1,0.6,0.1,0.85H13.59z"/>
				</g>
			</g>
			<g>
				<path class="st2" d="M13.8,51.17c-0.52-0.79-1.44-1.34-2.39-1.31c-0.95,0.03-1.88,0.72-2.06,1.64
					c-0.16,0.81,0.24,1.64,0.81,2.25c0.57,0.6,1.36,1,2.06,1.46c0.71,0.46,1.72,1.62,1.72,1.62s1.1-1.13,1.71-1.59
					c0.67-0.5,1.49-0.88,2.06-1.49c0.57-0.61,0.97-1.44,0.81-2.25c-0.19-0.92-1.11-1.61-2.07-1.64c-0.95-0.03-1.87,0.52-2.39,1.31
					H13.8z"/>
			</g>
		</g>
	</g>
	<g>
		<g>
			<g>
				<g>
					<path class="st2" d="M25.74,35.24c0.01-0.25,0.12-0.6,0.12-0.85c0.01-0.25,0.01-0.5-0.01-0.75c-0.07-0.86-0.36-1.68-1-2.26
						c0.59-0.02,2.06,0.02,2.65,0.06c-0.66,0.56-0.99,1.36-1.11,2.21c-0.03,0.25-0.04,0.5-0.05,0.75c-0.01,0.25,0.09,0.61,0.08,0.85
						L25.74,35.24z"/>
				</g>
			</g>
			<g>
				<path class="st2" d="M25.98,34.31c-0.5-0.8-1.4-1.37-2.36-1.36c-0.95,0.01-1.9,0.67-2.11,1.59c-0.18,0.81,0.2,1.65,0.75,2.27
					c0.56,0.62,1.33,1.04,2.02,1.51c0.7,0.48,1.68,1.66,1.68,1.66s1.13-1.1,1.75-1.55c0.68-0.49,1.51-0.85,2.1-1.44
					c0.59-0.59,1.01-1.42,0.86-2.23c-0.16-0.93-1.07-1.63-2.02-1.69c-0.95-0.05-1.88,0.47-2.43,1.25L25.98,34.31z"/>
			</g>
		</g>
		<g>
			<g>
				<g>
					<path class="st2" d="M13.6,34.95c0.01-0.25,0.12-0.6,0.12-0.85c0.01-0.25,0.01-0.5-0.01-0.75c-0.07-0.86-0.36-1.68-1-2.27
						c0.59-0.02,2.06,0.02,2.65,0.07c-0.66,0.55-1,1.36-1.11,2.21c-0.03,0.25-0.04,0.5-0.05,0.75c-0.01,0.25,0.09,0.6,0.08,0.85
						L13.6,34.95z"/>
				</g>
			</g>
			<g>
				<path class="st2" d="M13.84,34.01c-0.5-0.8-1.41-1.37-2.36-1.37c-0.95,0.01-1.9,0.67-2.11,1.59c-0.18,0.81,0.2,1.65,0.75,2.27
					c0.56,0.62,1.33,1.04,2.02,1.51c0.7,0.48,1.68,1.66,1.68,1.66s1.12-1.1,1.75-1.55c0.68-0.49,1.51-0.85,2.1-1.44
					c0.59-0.59,1.01-1.41,0.87-2.23c-0.16-0.93-1.07-1.63-2.02-1.69c-0.95-0.05-1.88,0.48-2.42,1.25L13.84,34.01z"/>
			</g>
		</g>
	</g>
	<g>
		<g>
			<g>
				<path class="st2" d="M19.66,43.53c0-0.25,0.1-0.6,0.1-0.85c0-0.25,0-0.5-0.03-0.75c-0.1-0.85-0.41-1.67-1.06-2.24
					c0.59-0.03,2.06-0.03,2.65,0c-0.65,0.57-0.96,1.38-1.06,2.24c-0.03,0.25-0.03,0.5-0.03,0.75c0,0.25,0.1,0.6,0.1,0.85H19.66z"/>
			</g>
		</g>
		<g>
			<path class="st2" d="M19.88,42.59c-0.52-0.79-1.44-1.34-2.39-1.31c-0.95,0.03-1.88,0.72-2.07,1.64
				c-0.16,0.81,0.24,1.64,0.81,2.25c0.57,0.6,1.36,1,2.06,1.46C19,47.09,20,48.25,20,48.25s1.1-1.13,1.71-1.59
				c0.67-0.5,1.49-0.88,2.06-1.49c0.57-0.61,0.97-1.44,0.81-2.25c-0.19-0.92-1.11-1.61-2.07-1.64s-1.87,0.52-2.39,1.31H19.88z"/>
		</g>
	</g>
</g>
</svg>
