<?xml version="1.0" encoding="utf-8"?>
<!-- Generator: Adobe Illustrator 26.3.1, SVG Export Plug-In . SVG Version: 6.00 Build 0)  -->
<svg version="1.1" id="Layer_1" xmlns="http://www.w3.org/2000/svg" xmlns:xlink="http://www.w3.org/1999/xlink" x="0px" y="0px"
	 viewBox="0 0 40 60" style="enable-background:new 0 0 40 60;" xml:space="preserve">
<style type="text/css">
	.st0{fill:#FFFFFF;}
	.st1{fill:#2D2D2D;}
	.st2{fill:#D6002B;}
</style>
<g>
	<g>
		<path class="st0" d="M36.54,59.91H3.46c-1.86,0-3.37-1.49-3.37-3.32V3.41c0-1.84,1.51-3.32,3.37-3.32h33.08
			c1.86,0,3.37,1.49,3.37,3.32v53.17C39.91,58.42,38.4,59.91,36.54,59.91z"/>
		<path class="st1" d="M36.54,60H3.46C1.55,60,0,58.47,0,56.59V3.41C0,1.53,1.55,0,3.46,0h33.08C38.45,0,40,1.53,40,3.41v53.17
			C40,58.47,38.45,60,36.54,60z M3.46,0.18c-1.81,0-3.28,1.45-3.28,3.23v53.17c0,1.78,1.47,3.23,3.28,3.23h33.08
			c1.81,0,3.28-1.45,3.28-3.23V3.41c0-1.78-1.47-3.23-3.28-3.23H3.46z"/>
	</g>
	<g>
		<g>
			<path class="st2" d="M5.17,12.24c0.05,0,0.09-0.01,0.13-0.04c0.29-0.19,1.05-0.98,1.27-1.2c0.04-0.04,0.08-0.09,0.08-0.15
				c0-0.05-0.04-0.08-0.07-0.12c-0.33-0.32-0.68-0.63-0.99-0.97C5.45,9.62,5.29,9.45,5.19,9.45H5.14c-0.1,0.01-0.26,0.18-0.39,0.32
				c-0.31,0.34-0.66,0.65-0.99,0.97c-0.03,0.03-0.07,0.07-0.07,0.12c-0.01,0.06,0.04,0.11,0.08,0.15c0.22,0.22,0.97,1,1.27,1.2
				C5.08,12.23,5.12,12.24,5.17,12.24L5.17,12.24z"/>
		</g>
	</g>
	<g>
		<g>
			<path class="st2" d="M34.85,50.32c0.05,0,0.09-0.01,0.13-0.04c0.29-0.19,1.05-0.98,1.27-1.2c0.04-0.04,0.08-0.09,0.08-0.15
				c-0.01-0.05-0.04-0.08-0.07-0.12c-0.33-0.32-0.68-0.63-0.98-0.97c-0.13-0.15-0.29-0.31-0.39-0.32h-0.05
				c-0.1,0.01-0.26,0.17-0.39,0.32c-0.31,0.34-0.66,0.65-0.99,0.97c-0.03,0.03-0.07,0.07-0.07,0.12c-0.01,0.06,0.04,0.11,0.08,0.15
				c0.22,0.22,0.98,1.01,1.27,1.2C34.76,50.31,34.8,50.32,34.85,50.32L34.85,50.32z"/>
		</g>
	</g>
	<g>
		<path class="st2" d="M7.06,4.02L6.42,4.19C6.21,3.63,5.81,3.34,5.24,3.34c-1.05,0-1.59,0.86-1.62,2.58
			c0.17-0.38,0.4-0.66,0.71-0.85C4.64,4.89,4.97,4.8,5.31,4.8c0.52,0,0.96,0.18,1.31,0.54c0.35,0.36,0.53,0.79,0.53,1.29
			c0,0.52-0.19,0.97-0.56,1.35C6.21,8.35,5.73,8.54,5.15,8.54c-0.66,0-1.19-0.25-1.59-0.74C3.17,7.3,2.97,6.63,2.97,5.78
			c0-0.83,0.19-1.54,0.56-2.13C3.9,3.07,4.48,2.77,5.26,2.77C6.15,2.77,6.75,3.19,7.06,4.02z M5.14,7.98c0.4,0,0.72-0.13,0.98-0.39
			c0.25-0.26,0.38-0.57,0.38-0.93C6.49,6.3,6.37,6,6.12,5.74C5.87,5.48,5.57,5.36,5.2,5.36c-0.38,0-0.71,0.13-0.99,0.4
			C3.92,6.03,3.78,6.34,3.78,6.7c0,0.33,0.13,0.63,0.38,0.89C4.41,7.85,4.74,7.98,5.14,7.98z"/>
	</g>
	<g>
		<path class="st2" d="M32.77,55.98l0.63-0.17c0.22,0.56,0.61,0.84,1.19,0.84c1.05,0,1.59-0.86,1.62-2.58
			c-0.17,0.38-0.4,0.66-0.71,0.85c-0.31,0.18-0.63,0.27-0.98,0.27c-0.52,0-0.96-0.18-1.31-0.54c-0.35-0.36-0.53-0.79-0.53-1.29
			c0-0.52,0.19-0.97,0.56-1.35s0.85-0.57,1.44-0.57c0.66,0,1.19,0.25,1.59,0.74c0.39,0.49,0.59,1.16,0.59,2.01
			c0,0.83-0.19,1.54-0.56,2.13c-0.37,0.59-0.95,0.88-1.73,0.88C33.68,57.23,33.08,56.81,32.77,55.98z M34.7,52.02
			c-0.4,0-0.72,0.13-0.98,0.39c-0.25,0.26-0.38,0.57-0.38,0.93c0,0.36,0.12,0.66,0.37,0.92c0.25,0.26,0.56,0.39,0.92,0.39
			c0.38,0,0.71-0.14,0.99-0.4c0.28-0.27,0.42-0.58,0.42-0.94c0-0.33-0.13-0.63-0.38-0.89C35.42,52.15,35.09,52.02,34.7,52.02z"/>
	</g>
	<g>
		<g>
			<g>
				<path class="st2" d="M13.78,12.72c0.15,0,0.3-0.04,0.43-0.13c0.97-0.63,3.45-3.22,4.17-3.94c0.14-0.14,0.28-0.31,0.25-0.5
					c-0.02-0.15-0.13-0.28-0.25-0.39c-1.08-1.06-2.23-2.07-3.24-3.19c-0.44-0.48-0.96-1.04-1.29-1.06H13.7
					c-0.33,0.02-0.85,0.58-1.29,1.06c-1.02,1.12-2.16,2.13-3.24,3.19C9.06,7.88,8.94,8.01,8.92,8.16C8.9,8.35,9.04,8.52,9.18,8.66
					c0.72,0.72,3.21,3.31,4.17,3.94C13.48,12.68,13.63,12.72,13.78,12.72L13.78,12.72z"/>
			</g>
		</g>
		<g>
			<g>
				<path class="st2" d="M26.22,12.72c0.15,0,0.3-0.04,0.43-0.13c0.97-0.63,3.45-3.22,4.17-3.94c0.14-0.14,0.28-0.31,0.25-0.5
					c-0.02-0.15-0.14-0.28-0.25-0.39c-1.08-1.06-2.23-2.07-3.24-3.19c-0.44-0.48-0.96-1.04-1.29-1.06h-0.17
					c-0.33,0.02-0.85,0.58-1.29,1.06c-1.02,1.12-2.16,2.13-3.24,3.19c-0.11,0.11-0.23,0.23-0.25,0.39c-0.02,0.19,0.12,0.36,0.25,0.5
					c0.72,0.72,3.21,3.31,4.17,3.94C25.92,12.68,26.06,12.72,26.22,12.72L26.22,12.72z"/>
			</g>
		</g>
	</g>
	<g>
		<g>
			<g>
				<path class="st2" d="M13.78,34.6c0.15,0,0.3-0.04,0.43-0.12c0.97-0.63,3.45-3.22,4.17-3.94c0.14-0.14,0.28-0.3,0.25-0.5
					c-0.02-0.15-0.13-0.27-0.25-0.39c-1.08-1.06-2.23-2.07-3.24-3.19c-0.44-0.49-0.96-1.04-1.29-1.06H13.7
					c-0.33,0.02-0.85,0.58-1.29,1.06c-1.02,1.12-2.16,2.13-3.24,3.19c-0.11,0.11-0.23,0.23-0.25,0.39c-0.02,0.19,0.12,0.36,0.25,0.5
					c0.72,0.72,3.21,3.31,4.17,3.94C13.48,34.56,13.63,34.6,13.78,34.6L13.78,34.6z"/>
			</g>
		</g>
		<g>
			<g>
				<path class="st2" d="M26.22,34.6c0.15,0,0.3-0.04,0.43-0.12c0.97-0.63,3.45-3.22,4.17-3.94c0.14-0.14,0.28-0.3,0.25-0.5
					c-0.02-0.15-0.14-0.27-0.25-0.39c-1.08-1.06-2.23-2.07-3.24-3.19c-0.44-0.49-0.96-1.04-1.29-1.06h-0.17
					c-0.33,0.02-0.85,0.58-1.29,1.06c-1.02,1.12-2.16,2.13-3.24,3.19c-0.11,0.11-0.23,0.23-0.25,0.39c-0.02,0.19,0.12,0.36,0.25,0.5
					c0.72,0.72,3.21,3.31,4.17,3.94C25.92,34.56,26.06,34.6,26.22,34.6L26.22,34.6z"/>
			</g>
		</g>
	</g>
	<g>
		<g>
			<g>
				<path class="st2" d="M26.83,47.28c-0.15,0-0.3,0.04-0.43,0.12c-0.97,0.63-3.45,3.22-4.17,3.94c-0.14,0.14-0.28,0.3-0.25,0.5
					c0.02,0.15,0.13,0.27,0.25,0.38c1.08,1.06,2.23,2.07,3.24,3.19c0.44,0.49,0.96,1.04,1.29,1.06h0.17
					c0.33-0.02,0.85-0.58,1.29-1.06c1.02-1.12,2.16-2.13,3.24-3.19c0.11-0.11,0.23-0.23,0.25-0.38c0.02-0.19-0.12-0.36-0.25-0.5
					c-0.72-0.72-3.21-3.31-4.17-3.94C27.13,47.32,26.98,47.28,26.83,47.28L26.83,47.28z"/>
			</g>
		</g>
		<g>
			<g>
				<path class="st2" d="M14.39,47.28c-0.15,0-0.3,0.04-0.43,0.12c-0.97,0.63-3.45,3.22-4.17,3.94c-0.14,0.14-0.28,0.3-0.25,0.5
					c0.02,0.15,0.13,0.27,0.25,0.38c1.08,1.06,2.23,2.07,3.24,3.19c0.44,0.49,0.96,1.04,1.29,1.06h0.17
					c0.33-0.02,0.85-0.58,1.29-1.06c1.02-1.12,2.16-2.13,3.24-3.19c0.11-0.11,0.23-0.23,0.25-0.38c0.02-0.19-0.12-0.36-0.25-0.5
					c-0.72-0.72-3.21-3.31-4.17-3.94C14.69,47.32,14.54,47.28,14.39,47.28L14.39,47.28z"/>
			</g>
		</g>
	</g>
	<g>
		<g>
			<g>
				<path class="st2" d="M13.78,12.72c0.15,0,0.3-0.04,0.43-0.13c0.97-0.63,3.45-3.22,4.17-3.94c0.14-0.14,0.28-0.31,0.25-0.5
					c-0.02-0.15-0.13-0.28-0.25-0.39c-1.08-1.06-2.23-2.07-3.24-3.19c-0.44-0.48-0.96-1.04-1.29-1.06H13.7
					c-0.33,0.02-0.85,0.58-1.29,1.06c-1.02,1.12-2.16,2.13-3.24,3.19C9.06,7.88,8.94,8.01,8.92,8.16C8.9,8.35,9.04,8.52,9.18,8.66
					c0.72,0.72,3.21,3.31,4.17,3.94C13.48,12.68,13.63,12.72,13.78,12.72L13.78,12.72z"/>
			</g>
		</g>
		<g>
			<g>
				<path class="st2" d="M26.22,12.72c0.15,0,0.3-0.04,0.43-0.13c0.97-0.63,3.45-3.22,4.17-3.94c0.14-0.14,0.28-0.31,0.25-0.5
					c-0.02-0.15-0.14-0.28-0.25-0.39c-1.08-1.06-2.23-2.07-3.24-3.19c-0.44-0.48-0.96-1.04-1.29-1.06h-0.17
					c-0.33,0.02-0.85,0.58-1.29,1.06c-1.02,1.12-2.16,2.13-3.24,3.19c-0.11,0.11-0.23,0.23-0.25,0.39c-0.02,0.19,0.12,0.36,0.25,0.5
					c0.72,0.72,3.21,3.31,4.17,3.94C25.92,12.68,26.06,12.72,26.22,12.72L26.22,12.72z"/>
			</g>
		</g>
	</g>
	<g>
		<g>
			<g>
				<path class="st2" d="M13.78,34.6c0.15,0,0.3-0.04,0.43-0.12c0.97-0.63,3.45-3.22,4.17-3.94c0.14-0.14,0.28-0.3,0.25-0.5
					c-0.02-0.15-0.13-0.27-0.25-0.39c-1.08-1.06-2.23-2.07-3.24-3.19c-0.44-0.49-0.96-1.04-1.29-1.06H13.7
					c-0.33,0.02-0.85,0.58-1.29,1.06c-1.02,1.12-2.16,2.13-3.24,3.19c-0.11,0.11-0.23,0.23-0.25,0.39c-0.02,0.19,0.12,0.36,0.25,0.5
					c0.72,0.72,3.21,3.31,4.17,3.94C13.48,34.56,13.63,34.6,13.78,34.6L13.78,34.6z"/>
			</g>
		</g>
		<g>
			<g>
				<path class="st2" d="M26.22,34.6c0.15,0,0.3-0.04,0.43-0.12c0.97-0.63,3.45-3.22,4.17-3.94c0.14-0.14,0.28-0.3,0.25-0.5
					c-0.02-0.15-0.14-0.27-0.25-0.39c-1.08-1.06-2.23-2.07-3.24-3.19c-0.44-0.49-0.96-1.04-1.29-1.06h-0.17
					c-0.33,0.02-0.85,0.58-1.29,1.06c-1.02,1.12-2.16,2.13-3.24,3.19c-0.11,0.11-0.23,0.23-0.25,0.39c-0.02,0.19,0.12,0.36,0.25,0.5
					c0.72,0.72,3.21,3.31,4.17,3.94C25.92,34.56,26.06,34.6,26.22,34.6L26.22,34.6z"/>
			</g>
		</g>
	</g>
	<g>
		<g>
			<g>
				<path class="st2" d="M26.83,47.28c-0.15,0-0.3,0.04-0.43,0.12c-0.97,0.63-3.45,3.22-4.17,3.94c-0.14,0.14-0.28,0.3-0.25,0.5
					c0.02,0.15,0.13,0.27,0.25,0.38c1.08,1.06,2.23,2.07,3.24,3.19c0.44,0.49,0.96,1.04,1.29,1.06h0.17
					c0.33-0.02,0.85-0.58,1.29-1.06c1.02-1.12,2.16-2.13,3.24-3.19c0.11-0.11,0.23-0.23,0.25-0.38c0.02-0.19-0.12-0.36-0.25-0.5
					c-0.72-0.72-3.21-3.31-4.17-3.94C27.13,47.32,26.98,47.28,26.83,47.28L26.83,47.28z"/>
			</g>
		</g>
		<g>
			<g>
				<path class="st2" d="M14.39,47.28c-0.15,0-0.3,0.04-0.43,0.12c-0.97,0.63-3.45,3.22-4.17,3.94c-0.14,0.14-0.28,0.3-0.25,0.5
					c0.02,0.15,0.13,0.27,0.25,0.38c1.08,1.06,2.23,2.07,3.24,3.19c0.44,0.49,0.96,1.04,1.29,1.06h0.17
					c0.33-0.02,0.85-0.58,1.29-1.06c1.02-1.12,2.16-2.13,3.24-3.19c0.11-0.11,0.23-0.23,0.25-0.38c0.02-0.19-0.12-0.36-0.25-0.5
					c-0.72-0.72-3.21-3.31-4.17-3.94C14.69,47.32,14.54,47.28,14.39,47.28L14.39,47.28z"/>
			</g>
		</g>
	</g>
</g>
</svg>
