<?xml version="1.0" encoding="utf-8"?>
<!-- Generator: Adobe Illustrator 26.3.1, SVG Export Plug-In . SVG Version: 6.00 Build 0)  -->
<svg version="1.1" id="Layer_1" xmlns="http://www.w3.org/2000/svg" xmlns:xlink="http://www.w3.org/1999/xlink" x="0px" y="0px"
	 viewBox="0 0 40 60" style="enable-background:new 0 0 40 60;" xml:space="preserve">
<style type="text/css">
	.st0{fill:#FFFFFF;}
	.st1{fill:#2D2D2D;}
	.st2{fill:#D6002B;}
</style>
<g>
	<g>
		<path class="st0" d="M36.54,59.91H3.46c-1.86,0-3.37-1.49-3.37-3.32V3.41c0-1.84,1.51-3.32,3.37-3.32h33.07
			c1.86,0,3.37,1.49,3.37,3.32v53.17C39.91,58.42,38.4,59.91,36.54,59.91z"/>
		<path class="st1" d="M36.54,60H3.46C1.55,60,0,58.47,0,56.59V3.41C0,1.53,1.55,0,3.46,0h33.07C38.45,0,40,1.53,40,3.41v53.17
			C40,58.47,38.45,60,36.54,60z M3.46,0.18c-1.81,0-3.28,1.45-3.28,3.23v53.17c0,1.78,1.47,3.23,3.28,3.23h33.07
			c1.81,0,3.28-1.45,3.28-3.23V3.41c0-1.78-1.47-3.23-3.28-3.23H3.46z"/>
	</g>
	<g>
		<g>
			<path class="st2" d="M5.17,12.24c0.05,0,0.09-0.01,0.13-0.04c0.29-0.19,1.05-0.98,1.27-1.2c0.04-0.04,0.08-0.09,0.08-0.15
				c-0.01-0.05-0.04-0.08-0.07-0.12c-0.33-0.32-0.68-0.63-0.99-0.97C5.45,9.62,5.29,9.45,5.19,9.45H5.14
				c-0.1,0.01-0.26,0.18-0.39,0.32c-0.31,0.34-0.66,0.65-0.99,0.97c-0.03,0.03-0.07,0.07-0.07,0.12c-0.01,0.06,0.04,0.11,0.08,0.15
				c0.22,0.22,0.97,1,1.27,1.2C5.08,12.23,5.12,12.24,5.17,12.24L5.17,12.24z"/>
		</g>
	</g>
	<g>
		<g>
			<path class="st2" d="M34.85,50.32c0.05,0,0.09-0.01,0.13-0.04c0.29-0.19,1.05-0.98,1.27-1.2c0.04-0.04,0.08-0.09,0.08-0.15
				c0-0.05-0.04-0.08-0.07-0.12c-0.33-0.32-0.68-0.63-0.98-0.97c-0.13-0.15-0.29-0.31-0.39-0.32h-0.05
				c-0.1,0.01-0.26,0.17-0.39,0.32c-0.31,0.34-0.66,0.65-0.98,0.97c-0.03,0.03-0.07,0.07-0.08,0.12c-0.01,0.06,0.04,0.11,0.08,0.15
				c0.22,0.22,0.98,1.01,1.27,1.2C34.76,50.31,34.8,50.32,34.85,50.32L34.85,50.32z"/>
		</g>
	</g>
	<g>
		<path class="st2" d="M5.28,8.42H4.55c0-0.93,0.19-1.83,0.58-2.71C5.51,4.84,5.98,4.1,6.54,3.49H3.49l0.07-0.61h3.71V3.3
			C6.6,4.09,6.1,4.92,5.77,5.78c-0.33,0.86-0.5,1.68-0.5,2.45C5.27,8.27,5.27,8.34,5.28,8.42z"/>
	</g>
	<g>
		<path class="st2" d="M34.56,51.58h0.72c0,0.93-0.19,1.83-0.58,2.71c-0.38,0.88-0.86,1.62-1.41,2.22h3.05l-0.07,0.61h-3.71V56.7
			c0.67-0.79,1.17-1.62,1.5-2.48c0.33-0.86,0.5-1.68,0.5-2.45C34.56,51.72,34.56,51.66,34.56,51.58z"/>
	</g>
	<g>
		<g>
			<g>
				<path class="st2" d="M13.78,12.72c0.15,0,0.3-0.04,0.43-0.13c0.97-0.63,3.45-3.22,4.17-3.94c0.14-0.14,0.28-0.31,0.25-0.5
					c-0.02-0.15-0.14-0.28-0.25-0.39c-1.08-1.06-2.23-2.07-3.24-3.19c-0.44-0.48-0.96-1.04-1.29-1.06H13.7
					c-0.33,0.02-0.85,0.58-1.29,1.06c-1.02,1.12-2.16,2.13-3.24,3.19C9.06,7.88,8.94,8.01,8.92,8.16C8.9,8.35,9.04,8.52,9.18,8.66
					c0.72,0.72,3.21,3.31,4.17,3.94C13.48,12.68,13.63,12.72,13.78,12.72L13.78,12.72z"/>
			</g>
		</g>
		<g>
			<g>
				<path class="st2" d="M26.22,12.72c0.15,0,0.3-0.04,0.43-0.13c0.96-0.63,3.45-3.22,4.17-3.94c0.14-0.14,0.27-0.31,0.25-0.5
					c-0.02-0.15-0.13-0.28-0.25-0.39c-1.08-1.06-2.23-2.07-3.24-3.19c-0.44-0.48-0.96-1.04-1.29-1.06h-0.17
					c-0.33,0.02-0.85,0.58-1.28,1.06c-1.02,1.12-2.16,2.13-3.24,3.19c-0.11,0.11-0.23,0.23-0.25,0.39c-0.02,0.19,0.12,0.36,0.25,0.5
					c0.72,0.72,3.21,3.31,4.17,3.94C25.91,12.68,26.06,12.72,26.22,12.72L26.22,12.72z"/>
			</g>
		</g>
	</g>
	<g>
		<g>
			<g>
				<path class="st2" d="M13.78,34.6c0.15,0,0.3-0.04,0.43-0.12c0.97-0.63,3.45-3.22,4.17-3.94c0.14-0.14,0.28-0.3,0.25-0.5
					c-0.02-0.15-0.14-0.27-0.25-0.39c-1.08-1.06-2.23-2.07-3.24-3.19c-0.44-0.49-0.96-1.04-1.29-1.06H13.7
					c-0.33,0.02-0.85,0.58-1.29,1.06c-1.02,1.12-2.16,2.13-3.24,3.19c-0.11,0.11-0.23,0.23-0.25,0.39c-0.02,0.19,0.12,0.36,0.25,0.5
					c0.72,0.72,3.21,3.31,4.17,3.94C13.48,34.56,13.63,34.6,13.78,34.6L13.78,34.6z"/>
			</g>
		</g>
		<g>
			<g>
				<path class="st2" d="M26.22,34.6c0.15,0,0.3-0.04,0.43-0.12c0.96-0.63,3.45-3.22,4.17-3.94c0.14-0.14,0.27-0.3,0.25-0.5
					c-0.02-0.15-0.13-0.27-0.25-0.39c-1.08-1.06-2.23-2.07-3.24-3.19c-0.44-0.49-0.96-1.04-1.29-1.06h-0.17
					c-0.33,0.02-0.85,0.58-1.28,1.06c-1.02,1.12-2.16,2.13-3.24,3.19c-0.11,0.11-0.23,0.23-0.25,0.39c-0.02,0.19,0.12,0.36,0.25,0.5
					c0.72,0.72,3.21,3.31,4.17,3.94C25.91,34.56,26.06,34.6,26.22,34.6L26.22,34.6z"/>
			</g>
		</g>
	</g>
	<g>
		<g>
			<g>
				<path class="st2" d="M26.83,47.28c-0.15,0-0.3,0.04-0.43,0.12c-0.97,0.63-3.45,3.22-4.17,3.94c-0.14,0.14-0.28,0.3-0.25,0.5
					c0.02,0.15,0.13,0.27,0.25,0.38c1.08,1.06,2.23,2.07,3.24,3.19c0.44,0.49,0.96,1.04,1.29,1.06h0.17
					c0.32-0.02,0.85-0.58,1.28-1.06c1.02-1.12,2.16-2.13,3.24-3.19c0.11-0.11,0.23-0.23,0.25-0.38c0.02-0.19-0.12-0.36-0.25-0.5
					c-0.72-0.72-3.21-3.31-4.17-3.94C27.13,47.32,26.98,47.28,26.83,47.28L26.83,47.28z"/>
			</g>
		</g>
		<g>
			<g>
				<path class="st2" d="M14.39,47.28c-0.15,0-0.3,0.04-0.43,0.12c-0.97,0.63-3.45,3.22-4.17,3.94c-0.14,0.14-0.28,0.3-0.25,0.5
					c0.02,0.15,0.13,0.27,0.25,0.38c1.08,1.06,2.23,2.07,3.24,3.19c0.44,0.49,0.96,1.04,1.29,1.06h0.17
					c0.32-0.02,0.85-0.58,1.29-1.06c1.02-1.12,2.16-2.13,3.24-3.19c0.11-0.11,0.23-0.23,0.25-0.38c0.02-0.19-0.12-0.36-0.25-0.5
					c-0.72-0.72-3.21-3.31-4.17-3.94C14.69,47.32,14.54,47.28,14.39,47.28L14.39,47.28z"/>
			</g>
		</g>
	</g>
	<g>
		<g>
			<path class="st2" d="M19.82,23.42c0.15,0,0.3-0.04,0.43-0.13c0.97-0.63,3.45-3.22,4.17-3.94c0.14-0.14,0.28-0.31,0.25-0.5
				c-0.02-0.15-0.13-0.28-0.25-0.39c-1.08-1.06-2.23-2.07-3.24-3.19c-0.44-0.48-0.96-1.04-1.29-1.06h-0.17
				c-0.33,0.02-0.85,0.58-1.29,1.06c-1.02,1.12-2.16,2.13-3.24,3.19c-0.11,0.11-0.23,0.23-0.25,0.39c-0.02,0.19,0.12,0.36,0.25,0.5
				c0.72,0.72,3.21,3.31,4.17,3.94C19.51,23.38,19.66,23.42,19.82,23.42L19.82,23.42z"/>
		</g>
	</g>
	<g>
		<g>
			<g>
				<path class="st2" d="M13.78,12.72c0.15,0,0.3-0.04,0.43-0.13c0.97-0.63,3.45-3.22,4.17-3.94c0.14-0.14,0.28-0.31,0.25-0.5
					c-0.02-0.15-0.14-0.28-0.25-0.39c-1.08-1.06-2.23-2.07-3.24-3.19c-0.44-0.48-0.96-1.04-1.29-1.06H13.7
					c-0.33,0.02-0.85,0.58-1.29,1.06c-1.02,1.12-2.16,2.13-3.24,3.19C9.06,7.88,8.94,8.01,8.92,8.16C8.9,8.35,9.04,8.52,9.18,8.66
					c0.72,0.72,3.21,3.31,4.17,3.94C13.48,12.68,13.63,12.72,13.78,12.72L13.78,12.72z"/>
			</g>
		</g>
		<g>
			<g>
				<path class="st2" d="M26.22,12.72c0.15,0,0.3-0.04,0.43-0.13c0.96-0.63,3.45-3.22,4.17-3.94c0.14-0.14,0.27-0.31,0.25-0.5
					c-0.02-0.15-0.13-0.28-0.25-0.39c-1.08-1.06-2.23-2.07-3.24-3.19c-0.44-0.48-0.96-1.04-1.29-1.06h-0.17
					c-0.33,0.02-0.85,0.58-1.28,1.06c-1.02,1.12-2.16,2.13-3.24,3.19c-0.11,0.11-0.23,0.23-0.25,0.39c-0.02,0.19,0.12,0.36,0.25,0.5
					c0.72,0.72,3.21,3.31,4.17,3.94C25.91,12.68,26.06,12.72,26.22,12.72L26.22,12.72z"/>
			</g>
		</g>
	</g>
	<g>
		<g>
			<g>
				<path class="st2" d="M13.78,34.6c0.15,0,0.3-0.04,0.43-0.12c0.97-0.63,3.45-3.22,4.17-3.94c0.14-0.14,0.28-0.3,0.25-0.5
					c-0.02-0.15-0.14-0.27-0.25-0.39c-1.08-1.06-2.23-2.07-3.24-3.19c-0.44-0.49-0.96-1.04-1.29-1.06H13.7
					c-0.33,0.02-0.85,0.58-1.29,1.06c-1.02,1.12-2.16,2.13-3.24,3.19c-0.11,0.11-0.23,0.23-0.25,0.39c-0.02,0.19,0.12,0.36,0.25,0.5
					c0.72,0.72,3.21,3.31,4.17,3.94C13.48,34.56,13.63,34.6,13.78,34.6L13.78,34.6z"/>
			</g>
		</g>
		<g>
			<g>
				<path class="st2" d="M26.22,34.6c0.15,0,0.3-0.04,0.43-0.12c0.96-0.63,3.45-3.22,4.17-3.94c0.14-0.14,0.27-0.3,0.25-0.5
					c-0.02-0.15-0.13-0.27-0.25-0.39c-1.08-1.06-2.23-2.07-3.24-3.19c-0.44-0.49-0.96-1.04-1.29-1.06h-0.17
					c-0.33,0.02-0.85,0.58-1.28,1.06c-1.02,1.12-2.16,2.13-3.24,3.19c-0.11,0.11-0.23,0.23-0.25,0.39c-0.02,0.19,0.12,0.36,0.25,0.5
					c0.72,0.72,3.21,3.31,4.17,3.94C25.91,34.56,26.06,34.6,26.22,34.6L26.22,34.6z"/>
			</g>
		</g>
	</g>
	<g>
		<g>
			<g>
				<path class="st2" d="M26.83,47.28c-0.15,0-0.3,0.04-0.43,0.12c-0.97,0.63-3.45,3.22-4.17,3.94c-0.14,0.14-0.28,0.3-0.25,0.5
					c0.02,0.15,0.13,0.27,0.25,0.38c1.08,1.06,2.23,2.07,3.24,3.19c0.44,0.49,0.96,1.04,1.29,1.06h0.17
					c0.32-0.02,0.85-0.58,1.28-1.06c1.02-1.12,2.16-2.13,3.24-3.19c0.11-0.11,0.23-0.23,0.25-0.38c0.02-0.19-0.12-0.36-0.25-0.5
					c-0.72-0.72-3.21-3.31-4.17-3.94C27.13,47.32,26.98,47.28,26.83,47.28L26.83,47.28z"/>
			</g>
		</g>
		<g>
			<g>
				<path class="st2" d="M14.39,47.28c-0.15,0-0.3,0.04-0.43,0.12c-0.97,0.63-3.45,3.22-4.17,3.94c-0.14,0.14-0.28,0.3-0.25,0.5
					c0.02,0.15,0.13,0.27,0.25,0.38c1.08,1.06,2.23,2.07,3.24,3.19c0.44,0.49,0.96,1.04,1.29,1.06h0.17
					c0.32-0.02,0.85-0.58,1.29-1.06c1.02-1.12,2.16-2.13,3.24-3.19c0.11-0.11,0.23-0.23,0.25-0.38c0.02-0.19-0.12-0.36-0.25-0.5
					c-0.72-0.72-3.21-3.31-4.17-3.94C14.69,47.32,14.54,47.28,14.39,47.28L14.39,47.28z"/>
			</g>
		</g>
	</g>
	<g>
		<g>
			<path class="st2" d="M19.82,23.42c0.15,0,0.3-0.04,0.43-0.13c0.97-0.63,3.45-3.22,4.17-3.94c0.14-0.14,0.28-0.31,0.25-0.5
				c-0.02-0.15-0.13-0.28-0.25-0.39c-1.08-1.06-2.23-2.07-3.24-3.19c-0.44-0.48-0.96-1.04-1.29-1.06h-0.17
				c-0.33,0.02-0.85,0.58-1.29,1.06c-1.02,1.12-2.16,2.13-3.24,3.19c-0.11,0.11-0.23,0.23-0.25,0.39c-0.02,0.19,0.12,0.36,0.25,0.5
				c0.72,0.72,3.21,3.31,4.17,3.94C19.51,23.38,19.66,23.42,19.82,23.42L19.82,23.42z"/>
		</g>
	</g>
</g>
</svg>
