<?xml version="1.0" encoding="utf-8"?>
<!-- Generator: Adobe Illustrator 26.3.1, SVG Export Plug-In . SVG Version: 6.00 Build 0)  -->
<svg version="1.1" id="Layer_1" xmlns="http://www.w3.org/2000/svg" xmlns:xlink="http://www.w3.org/1999/xlink" x="0px" y="0px"
	 viewBox="0 0 40 60" style="enable-background:new 0 0 40 60;" xml:space="preserve">
<style type="text/css">
	.st0{fill:#FFFFFF;}
	.st1{fill:#2D2D2D;}
	.st2{fill:#D6002B;}
</style>
<g>
	<g>
		<path class="st0" d="M36.54,59.91H3.46c-1.86,0-3.37-1.49-3.37-3.32V3.41c0-1.84,1.51-3.32,3.37-3.32h33.08
			c1.86,0,3.37,1.49,3.37,3.32v53.17C39.91,58.42,38.4,59.91,36.54,59.91z"/>
		<path class="st1" d="M36.54,60H3.46C1.55,60,0,58.47,0,56.59V3.41C0,1.53,1.55,0,3.46,0h33.07C38.45,0,40,1.53,40,3.41v53.17
			C40,58.47,38.45,60,36.54,60z M3.46,0.18c-1.81,0-3.28,1.45-3.28,3.23v53.17c0,1.78,1.47,3.23,3.28,3.23h33.07
			c1.81,0,3.28-1.45,3.28-3.23V3.41c0-1.78-1.47-3.23-3.28-3.23H3.46z"/>
	</g>
	<g>
		<g>
			<path class="st2" d="M5.62,12.15c0.16-0.15,0.34-0.26,0.52-0.39c0.19-0.14,0.4-0.27,0.56-0.45c0.13-0.15,0.19-0.3,0.25-0.48
				c0.06-0.18,0.07-0.58-0.03-0.75c-0.3-0.48-1.15-0.89-1.7,0.16c-0.01,0.01-0.02,0.02-0.04,0.02h0c-0.02,0-0.03-0.01-0.04-0.02
				c-0.56-1.05-1.4-0.63-1.7-0.16c-0.11,0.17-0.1,0.56-0.03,0.75c0.06,0.18,0.12,0.33,0.25,0.48c0.16,0.18,0.36,0.31,0.55,0.45
				c0.18,0.13,0.36,0.24,0.52,0.39c0.08,0.07,0.45,0.46,0.45,0.46S5.54,12.23,5.62,12.15z"/>
		</g>
	</g>
	<g>
		<g>
			<path class="st2" d="M34.42,47.74c-0.16,0.14-0.34,0.26-0.52,0.39c-0.19,0.14-0.4,0.27-0.56,0.45c-0.13,0.15-0.19,0.3-0.25,0.48
				c-0.06,0.18-0.07,0.58,0.03,0.75c0.3,0.48,1.14,0.9,1.7-0.15c0.01-0.02,0.02-0.02,0.04-0.02h0c0.02,0,0.03,0.01,0.04,0.02
				c0.55,1.05,1.4,0.63,1.7,0.15c0.1-0.16,0.1-0.56,0.03-0.75c-0.06-0.18-0.12-0.33-0.25-0.48c-0.15-0.18-0.36-0.31-0.55-0.45
				c-0.18-0.13-0.36-0.24-0.52-0.39c-0.08-0.07-0.45-0.46-0.45-0.46S34.5,47.66,34.42,47.74z"/>
		</g>
	</g>
	<g>
		<path class="st2" d="M4.19,5.46C3.48,5.15,3.12,4.71,3.12,4.13c0-0.42,0.18-0.77,0.53-1.04c0.35-0.27,0.82-0.41,1.41-0.41
			c0.58,0,1.03,0.13,1.38,0.39c0.34,0.26,0.51,0.6,0.51,1.02c0,0.59-0.36,1.01-1.09,1.26c0.59,0.27,0.96,0.53,1.1,0.78
			c0.15,0.25,0.23,0.5,0.23,0.75C7.18,7.33,6.99,7.7,6.61,8c-0.38,0.3-0.9,0.45-1.56,0.45c-0.7,0-1.24-0.15-1.63-0.46
			C3.04,7.68,2.85,7.32,2.85,6.9C2.85,6.28,3.3,5.8,4.19,5.46z M4.96,5.75C4.01,5.98,3.54,6.37,3.54,6.93
			c0,0.29,0.13,0.53,0.39,0.72c0.26,0.19,0.64,0.28,1.15,0.28c0.43,0,0.77-0.09,1.03-0.27C6.37,7.47,6.5,7.24,6.5,6.96
			C6.5,6.42,5.98,6.02,4.96,5.75z M5.04,5.12c0.47-0.12,0.8-0.27,1-0.43c0.19-0.16,0.29-0.37,0.29-0.61c0-0.28-0.12-0.5-0.35-0.65
			C5.75,3.28,5.45,3.21,5.07,3.21c-0.36,0-0.66,0.08-0.89,0.23C3.95,3.6,3.83,3.81,3.83,4.07c0,0.26,0.13,0.48,0.38,0.67
			C4.47,4.93,4.75,5.06,5.04,5.12z"/>
	</g>
	<g>
		<path class="st2" d="M35.65,54.36c0.71,0.3,1.07,0.75,1.07,1.33c0,0.42-0.18,0.77-0.53,1.04c-0.35,0.27-0.82,0.41-1.41,0.41
			c-0.58,0-1.03-0.13-1.37-0.39c-0.34-0.26-0.51-0.6-0.51-1.02c0-0.59,0.36-1.01,1.09-1.26c-0.59-0.27-0.96-0.53-1.11-0.78
			c-0.15-0.25-0.22-0.5-0.22-0.75c0-0.44,0.19-0.82,0.57-1.12c0.38-0.3,0.9-0.45,1.56-0.45c0.7,0,1.24,0.15,1.63,0.46
			c0.38,0.3,0.58,0.67,0.58,1.09C36.99,53.54,36.54,54.02,35.65,54.36z M34.87,54.07c0.95-0.22,1.42-0.61,1.42-1.17
			c0-0.29-0.13-0.53-0.39-0.72c-0.26-0.18-0.64-0.28-1.15-0.28c-0.43,0-0.77,0.09-1.03,0.27c-0.26,0.18-0.39,0.41-0.39,0.7
			C33.34,53.4,33.85,53.8,34.87,54.07z M34.8,54.7c-0.47,0.12-0.8,0.27-1,0.43c-0.2,0.16-0.29,0.36-0.29,0.61
			c0,0.28,0.12,0.5,0.35,0.65c0.23,0.15,0.54,0.22,0.92,0.22c0.36,0,0.66-0.08,0.89-0.23c0.23-0.16,0.35-0.36,0.35-0.63
			c0-0.26-0.13-0.49-0.38-0.67C35.36,54.89,35.09,54.76,34.8,54.7z"/>
	</g>
	<g>
		<g>
			<g>
				<path class="st2" d="M14.73,11.43c0.46-0.41,0.97-0.73,1.47-1.09c0.54-0.4,1.13-0.75,1.56-1.26c0.36-0.42,0.53-0.83,0.71-1.35
					c0.18-0.52,0.2-1.64-0.1-2.1c-0.85-1.34-3.22-2.52-4.79,0.44c-0.02,0.04-0.06,0.07-0.11,0.07h0c-0.05,0-0.09-0.03-0.11-0.07
					C11.8,3.11,9.43,4.28,8.58,5.62c-0.29,0.47-0.27,1.58-0.1,2.1c0.18,0.52,0.35,0.93,0.71,1.35c0.44,0.51,1.02,0.86,1.56,1.26
					c0.5,0.36,1,0.68,1.47,1.09c0.23,0.2,1.26,1.3,1.26,1.3S14.5,11.63,14.73,11.43z"/>
			</g>
		</g>
		<g>
			<g>
				<path class="st2" d="M27.78,11.43c0.46-0.41,0.97-0.73,1.47-1.09c0.54-0.4,1.13-0.75,1.56-1.26c0.36-0.42,0.53-0.83,0.71-1.35
					c0.18-0.52,0.2-1.64-0.1-2.1c-0.85-1.34-3.22-2.52-4.78,0.44c-0.02,0.04-0.06,0.07-0.11,0.07h0c-0.05,0-0.09-0.03-0.11-0.07
					c-1.56-2.96-3.93-1.78-4.78-0.44c-0.29,0.47-0.27,1.58-0.09,2.1c0.18,0.52,0.34,0.93,0.7,1.35c0.44,0.51,1.02,0.86,1.56,1.26
					c0.5,0.36,1.01,0.68,1.47,1.09c0.23,0.2,1.26,1.3,1.26,1.3S27.55,11.63,27.78,11.43z"/>
			</g>
		</g>
	</g>
	<g>
		<g>
			<g>
				<path class="st2" d="M14.73,32.86c0.46-0.41,0.97-0.72,1.47-1.09c0.54-0.4,1.13-0.75,1.56-1.26c0.36-0.42,0.53-0.83,0.71-1.35
					c0.18-0.52,0.2-1.64-0.1-2.1c-0.85-1.34-3.22-2.52-4.79,0.44c-0.02,0.04-0.06,0.07-0.11,0.07h0c-0.05,0-0.09-0.03-0.11-0.07
					c-1.56-2.96-3.93-1.78-4.78-0.44c-0.29,0.47-0.27,1.58-0.1,2.1c0.18,0.52,0.35,0.93,0.71,1.35c0.44,0.51,1.02,0.86,1.56,1.26
					c0.5,0.36,1,0.68,1.47,1.09c0.23,0.2,1.26,1.3,1.26,1.3S14.5,33.07,14.73,32.86z"/>
			</g>
		</g>
		<g>
			<g>
				<path class="st2" d="M27.78,32.86c0.46-0.41,0.97-0.72,1.47-1.09c0.54-0.4,1.13-0.75,1.56-1.26c0.36-0.42,0.53-0.83,0.71-1.35
					c0.18-0.52,0.2-1.64-0.1-2.1c-0.85-1.34-3.22-2.52-4.78,0.44c-0.02,0.04-0.06,0.07-0.11,0.07h0c-0.05,0-0.09-0.03-0.11-0.07
					c-1.56-2.96-3.93-1.78-4.78-0.44c-0.29,0.47-0.27,1.58-0.09,2.1c0.18,0.52,0.34,0.93,0.7,1.35c0.44,0.51,1.02,0.86,1.56,1.26
					c0.5,0.36,1.01,0.68,1.47,1.09c0.23,0.2,1.26,1.3,1.26,1.3S27.55,33.07,27.78,32.86z"/>
			</g>
		</g>
	</g>
	<g>
		<g>
			<g>
				<path class="st2" d="M25.27,48.39c-0.46,0.41-0.97,0.73-1.47,1.09c-0.54,0.4-1.12,0.75-1.56,1.26c-0.36,0.42-0.53,0.83-0.7,1.35
					c-0.18,0.52-0.2,1.64,0.09,2.1c0.85,1.34,3.22,2.52,4.78-0.44c0.02-0.04,0.06-0.07,0.11-0.07h0c0.05,0,0.09,0.03,0.11,0.07
					c1.56,2.96,3.93,1.78,4.78,0.44c0.3-0.47,0.27-1.58,0.1-2.1c-0.18-0.52-0.35-0.94-0.71-1.35c-0.44-0.51-1.02-0.86-1.56-1.26
					c-0.5-0.36-1.01-0.68-1.47-1.09c-0.23-0.2-1.26-1.29-1.26-1.29S25.5,48.19,25.27,48.39z"/>
			</g>
		</g>
		<g>
			<g>
				<path class="st2" d="M12.22,48.39c-0.46,0.41-0.97,0.73-1.47,1.09c-0.54,0.4-1.13,0.75-1.56,1.26
					c-0.36,0.42-0.53,0.83-0.71,1.35c-0.18,0.52-0.2,1.64,0.1,2.1c0.85,1.34,3.22,2.52,4.78-0.44c0.02-0.04,0.07-0.07,0.11-0.07h0
					c0.05,0,0.09,0.03,0.11,0.07c1.56,2.96,3.93,1.78,4.79,0.44c0.29-0.47,0.27-1.58,0.1-2.1c-0.18-0.52-0.35-0.94-0.71-1.35
					c-0.44-0.51-1.02-0.86-1.56-1.26c-0.5-0.36-1.01-0.68-1.47-1.09c-0.23-0.2-1.26-1.29-1.26-1.29S12.45,48.19,12.22,48.39z"/>
			</g>
		</g>
	</g>
	<g>
		<g>
			<path class="st2" d="M21.26,22.23c0.46-0.41,0.97-0.73,1.47-1.09c0.54-0.4,1.13-0.75,1.56-1.26c0.36-0.42,0.53-0.83,0.71-1.35
				c0.18-0.52,0.2-1.64-0.1-2.1c-0.85-1.34-3.22-2.52-4.78,0.44c-0.02,0.04-0.06,0.07-0.11,0.07h0c-0.05,0-0.09-0.03-0.11-0.07
				c-1.56-2.96-3.93-1.78-4.78-0.44c-0.29,0.47-0.27,1.58-0.1,2.1c0.18,0.52,0.35,0.93,0.71,1.35c0.44,0.51,1.02,0.86,1.56,1.26
				c0.5,0.36,1.01,0.68,1.47,1.09c0.23,0.2,1.26,1.3,1.26,1.3S21.03,22.43,21.26,22.23z"/>
		</g>
	</g>
	<g>
		<g>
			<path class="st2" d="M18.74,37.05c-0.46,0.41-0.97,0.73-1.47,1.09c-0.54,0.4-1.13,0.75-1.56,1.26c-0.36,0.42-0.53,0.83-0.71,1.35
				c-0.18,0.52-0.2,1.64,0.1,2.1c0.85,1.34,3.22,2.52,4.78-0.44c0.02-0.04,0.06-0.07,0.11-0.07h0c0.05,0,0.09,0.03,0.11,0.07
				c1.56,2.96,3.93,1.78,4.78,0.44c0.29-0.47,0.27-1.58,0.1-2.1c-0.18-0.52-0.35-0.93-0.71-1.35c-0.44-0.51-1.02-0.86-1.56-1.26
				c-0.5-0.36-1.01-0.68-1.47-1.09c-0.23-0.2-1.26-1.29-1.26-1.29S18.97,36.85,18.74,37.05z"/>
		</g>
	</g>
</g>
</svg>
