<?xml version="1.0" encoding="utf-8"?>
<!-- Generator: Adobe Illustrator 26.3.1, SVG Export Plug-In . SVG Version: 6.00 Build 0)  -->
<svg version="1.1" id="Layer_1" xmlns="http://www.w3.org/2000/svg" xmlns:xlink="http://www.w3.org/1999/xlink" x="0px" y="0px"
	 viewBox="0 0 40 60" style="enable-background:new 0 0 40 60;" xml:space="preserve">
<style type="text/css">
	.st0{fill:#FFFFFF;}
	.st1{fill:#2D2D2D;}
	.st2{fill:#D6002B;}
</style>
<g>
	<g>
		<path class="st0" d="M36.54,59.91H3.46c-1.86,0-3.37-1.49-3.37-3.32V3.41c0-1.84,1.51-3.32,3.37-3.32h33.08
			c1.86,0,3.37,1.49,3.37,3.32v53.17C39.91,58.42,38.4,59.91,36.54,59.91z"/>
		<path class="st1" d="M36.54,60H3.46C1.55,60,0,58.47,0,56.59V3.41C0,1.53,1.55,0,3.46,0h33.08C38.45,0,40,1.53,40,3.41v53.17
			C40,58.47,38.45,60,36.54,60z M3.46,0.18c-1.81,0-3.28,1.45-3.28,3.23v53.17c0,1.78,1.47,3.23,3.28,3.23h33.08
			c1.81,0,3.28-1.45,3.28-3.23V3.41c0-1.78-1.47-3.23-3.28-3.23H3.46z"/>
	</g>
	<g>
		<g>
			<path class="st2" d="M5.17,12.24c0.05,0,0.09-0.01,0.13-0.04c0.29-0.19,1.05-0.98,1.27-1.2c0.04-0.04,0.08-0.09,0.08-0.15
				c-0.01-0.05-0.04-0.08-0.08-0.12c-0.33-0.32-0.68-0.63-0.99-0.97C5.45,9.62,5.29,9.45,5.19,9.45H5.14
				c-0.1,0.01-0.26,0.18-0.39,0.32c-0.31,0.34-0.66,0.65-0.99,0.97c-0.03,0.03-0.07,0.07-0.07,0.12c-0.01,0.06,0.04,0.11,0.08,0.15
				c0.22,0.22,0.97,1,1.27,1.2C5.08,12.23,5.12,12.24,5.17,12.24L5.17,12.24z"/>
		</g>
	</g>
	<g>
		<g>
			<path class="st2" d="M34.85,50.32c0.05,0,0.09-0.01,0.13-0.04c0.29-0.19,1.05-0.98,1.27-1.2c0.04-0.04,0.08-0.09,0.08-0.15
				c-0.01-0.05-0.04-0.08-0.07-0.12c-0.33-0.32-0.68-0.63-0.99-0.97c-0.13-0.15-0.29-0.31-0.39-0.32h-0.05
				c-0.1,0.01-0.26,0.17-0.39,0.32c-0.31,0.34-0.66,0.65-0.99,0.97c-0.03,0.03-0.07,0.07-0.07,0.12c-0.01,0.06,0.04,0.11,0.08,0.15
				c0.22,0.22,0.97,1.01,1.27,1.2C34.76,50.31,34.8,50.32,34.85,50.32L34.85,50.32z"/>
		</g>
	</g>
	<g>
		<path class="st2" d="M3.21,7.42l0.57-0.2C4.01,7.73,4.4,7.98,4.95,7.98c0.54,0,0.94-0.22,1.21-0.67c0.27-0.44,0.41-1.04,0.42-1.8
			c-0.37,0.67-0.92,1-1.66,1c-0.52,0-0.96-0.17-1.31-0.52C3.25,5.63,3.07,5.2,3.07,4.68c0-0.52,0.19-0.97,0.56-1.35
			C4,2.96,4.48,2.77,5.05,2.77c0.71,0,1.25,0.24,1.62,0.73c0.38,0.49,0.56,1.16,0.56,2.01c0,0.9-0.2,1.63-0.6,2.18
			c-0.4,0.56-0.96,0.83-1.7,0.83C4.08,8.54,3.51,8.16,3.21,7.42z M5.07,5.95c0.39,0,0.71-0.13,0.97-0.4
			c0.26-0.27,0.39-0.58,0.39-0.94c0-0.35-0.12-0.64-0.37-0.89C5.82,3.47,5.49,3.35,5.09,3.35c-0.41,0-0.74,0.13-0.98,0.39
			C3.87,3.99,3.75,4.3,3.75,4.67c0,0.4,0.13,0.71,0.4,0.94C4.41,5.84,4.72,5.95,5.07,5.95z"/>
	</g>
	<g>
		<path class="st2" d="M36.62,52.58l-0.56,0.2c-0.23-0.51-0.63-0.77-1.18-0.77c-0.53,0-0.94,0.22-1.21,0.67
			c-0.27,0.44-0.41,1.05-0.42,1.81c0.37-0.67,0.92-1,1.66-1c0.52,0,0.96,0.17,1.31,0.53c0.35,0.35,0.53,0.78,0.53,1.3
			c0,0.52-0.19,0.97-0.56,1.35c-0.37,0.37-0.85,0.56-1.42,0.56c-0.71,0-1.25-0.24-1.62-0.73c-0.38-0.49-0.56-1.16-0.56-2.01
			c0-0.9,0.2-1.63,0.6-2.18c0.4-0.56,0.96-0.84,1.7-0.84C35.75,51.46,36.33,51.83,36.62,52.58z M34.76,54.05
			c-0.39,0-0.71,0.13-0.97,0.4c-0.26,0.27-0.39,0.58-0.39,0.94c0,0.35,0.12,0.64,0.37,0.89c0.25,0.25,0.58,0.37,0.98,0.37
			c0.41,0,0.74-0.13,0.98-0.38c0.24-0.26,0.36-0.57,0.36-0.94c0-0.4-0.13-0.71-0.4-0.94C35.42,54.16,35.11,54.05,34.76,54.05z"/>
	</g>
	<g>
		<g>
			<g>
				<path class="st2" d="M13.78,12.72c0.15,0,0.3-0.04,0.43-0.13c0.97-0.63,3.45-3.22,4.17-3.94c0.14-0.14,0.28-0.31,0.25-0.5
					c-0.02-0.15-0.13-0.28-0.25-0.39c-1.08-1.06-2.23-2.07-3.24-3.19c-0.44-0.48-0.96-1.04-1.28-1.06H13.7
					c-0.32,0.02-0.85,0.58-1.29,1.06c-1.02,1.12-2.16,2.13-3.24,3.19C9.06,7.88,8.94,8.01,8.92,8.16C8.9,8.35,9.04,8.52,9.18,8.66
					c0.72,0.72,3.21,3.31,4.17,3.94C13.48,12.68,13.63,12.72,13.78,12.72L13.78,12.72z"/>
			</g>
		</g>
		<g>
			<g>
				<path class="st2" d="M26.22,12.72c0.15,0,0.3-0.04,0.43-0.13c0.96-0.63,3.45-3.22,4.17-3.94c0.14-0.14,0.27-0.31,0.25-0.5
					c-0.02-0.15-0.13-0.28-0.25-0.39c-1.08-1.06-2.23-2.07-3.24-3.19c-0.44-0.48-0.96-1.04-1.29-1.06h-0.17
					c-0.33,0.02-0.85,0.58-1.29,1.06c-1.02,1.12-2.16,2.13-3.24,3.19c-0.11,0.11-0.23,0.23-0.25,0.39c-0.02,0.19,0.12,0.36,0.25,0.5
					c0.72,0.72,3.21,3.31,4.17,3.94C25.91,12.68,26.07,12.72,26.22,12.72L26.22,12.72z"/>
			</g>
		</g>
	</g>
	<g>
		<g>
			<g>
				<path class="st2" d="M13.78,24.68c0.15,0,0.3-0.04,0.43-0.12c0.97-0.63,3.45-3.22,4.17-3.94c0.14-0.14,0.28-0.31,0.25-0.5
					c-0.02-0.15-0.13-0.27-0.25-0.38c-1.08-1.06-2.23-2.07-3.24-3.19c-0.44-0.49-0.96-1.04-1.28-1.06H13.7
					c-0.32,0.02-0.85,0.58-1.29,1.06c-1.02,1.12-2.16,2.13-3.24,3.19c-0.11,0.11-0.23,0.23-0.25,0.38c-0.02,0.19,0.12,0.36,0.25,0.5
					c0.72,0.72,3.21,3.31,4.17,3.94C13.48,24.64,13.63,24.68,13.78,24.68L13.78,24.68z"/>
			</g>
		</g>
		<g>
			<g>
				<path class="st2" d="M26.22,24.68c0.15,0,0.3-0.04,0.43-0.12c0.96-0.63,3.45-3.22,4.17-3.94c0.14-0.14,0.27-0.31,0.25-0.5
					c-0.02-0.15-0.13-0.27-0.25-0.38c-1.08-1.06-2.23-2.07-3.24-3.19c-0.44-0.49-0.96-1.04-1.29-1.06h-0.17
					c-0.33,0.02-0.85,0.58-1.29,1.06c-1.02,1.12-2.16,2.13-3.24,3.19c-0.11,0.11-0.23,0.23-0.25,0.38c-0.02,0.19,0.12,0.36,0.25,0.5
					c0.72,0.72,3.21,3.31,4.17,3.94C25.91,24.64,26.07,24.68,26.22,24.68L26.22,24.68z"/>
			</g>
		</g>
	</g>
	<g>
		<g>
			<path class="st2" d="M20,34.6c0.15,0,0.3-0.04,0.43-0.12c0.96-0.63,3.45-3.22,4.17-3.94c0.14-0.14,0.28-0.3,0.25-0.5
				c-0.02-0.15-0.13-0.27-0.25-0.39c-1.08-1.06-2.23-2.07-3.24-3.19c-0.44-0.49-0.96-1.04-1.29-1.06h-0.17
				c-0.32,0.02-0.85,0.58-1.29,1.06c-1.02,1.12-2.16,2.13-3.24,3.19c-0.11,0.11-0.23,0.23-0.25,0.39c-0.02,0.19,0.12,0.36,0.25,0.5
				c0.72,0.72,3.21,3.31,4.17,3.94C19.7,34.56,19.85,34.6,20,34.6L20,34.6z"/>
		</g>
	</g>
	<g>
		<g>
			<g>
				<path class="st2" d="M26.22,47.28c-0.15,0-0.3,0.04-0.43,0.12c-0.96,0.63-3.45,3.22-4.17,3.94c-0.14,0.14-0.27,0.3-0.25,0.5
					c0.02,0.15,0.13,0.27,0.25,0.38c1.08,1.06,2.23,2.07,3.24,3.19c0.44,0.49,0.96,1.04,1.29,1.06h0.17
					c0.32-0.02,0.85-0.58,1.29-1.06c1.02-1.12,2.16-2.13,3.24-3.19c0.11-0.11,0.23-0.23,0.25-0.38c0.02-0.19-0.12-0.36-0.25-0.5
					c-0.72-0.72-3.21-3.31-4.17-3.94C26.52,47.32,26.37,47.28,26.22,47.28L26.22,47.28z"/>
			</g>
		</g>
		<g>
			<g>
				<path class="st2" d="M13.78,47.28c-0.15,0-0.3,0.04-0.43,0.12c-0.97,0.63-3.45,3.22-4.17,3.94c-0.14,0.14-0.28,0.3-0.25,0.5
					c0.02,0.15,0.13,0.27,0.25,0.38c1.08,1.06,2.23,2.07,3.24,3.19c0.44,0.49,0.96,1.04,1.29,1.06h0.17
					c0.32-0.02,0.85-0.58,1.28-1.06c1.02-1.12,2.16-2.13,3.24-3.19c0.11-0.11,0.23-0.23,0.25-0.38c0.02-0.19-0.12-0.36-0.25-0.5
					c-0.72-0.72-3.21-3.31-4.17-3.94C14.08,47.32,13.94,47.28,13.78,47.28L13.78,47.28z"/>
			</g>
		</g>
	</g>
	<g>
		<g>
			<g>
				<path class="st2" d="M26.22,35.32c-0.15,0-0.3,0.04-0.43,0.12c-0.96,0.63-3.45,3.22-4.17,3.94c-0.14,0.14-0.27,0.31-0.25,0.5
					c0.02,0.15,0.13,0.28,0.25,0.38c1.08,1.06,2.23,2.07,3.24,3.19c0.44,0.48,0.96,1.04,1.29,1.06h0.17
					c0.32-0.02,0.85-0.58,1.29-1.06c1.02-1.12,2.16-2.13,3.24-3.19c0.11-0.11,0.23-0.23,0.25-0.38c0.02-0.19-0.12-0.36-0.25-0.5
					c-0.72-0.72-3.21-3.31-4.17-3.94C26.52,35.36,26.37,35.32,26.22,35.32L26.22,35.32z"/>
			</g>
		</g>
		<g>
			<g>
				<path class="st2" d="M13.78,35.32c-0.15,0-0.3,0.04-0.43,0.12c-0.97,0.63-3.45,3.22-4.17,3.94c-0.14,0.14-0.28,0.31-0.25,0.5
					c0.02,0.15,0.13,0.28,0.25,0.38c1.08,1.06,2.23,2.07,3.24,3.19c0.44,0.48,0.96,1.04,1.29,1.06h0.17
					c0.32-0.02,0.85-0.58,1.28-1.06c1.02-1.12,2.16-2.13,3.24-3.19c0.11-0.11,0.23-0.23,0.25-0.38c0.02-0.19-0.12-0.36-0.25-0.5
					c-0.72-0.72-3.21-3.31-4.17-3.94C14.08,35.36,13.94,35.32,13.78,35.32L13.78,35.32z"/>
			</g>
		</g>
	</g>
</g>
</svg>
