<?xml version="1.0" encoding="utf-8"?>
<!-- Generator: Adobe Illustrator 26.3.1, SVG Export Plug-In . SVG Version: 6.00 Build 0)  -->
<svg version="1.1" id="Layer_1" xmlns="http://www.w3.org/2000/svg" xmlns:xlink="http://www.w3.org/1999/xlink" x="0px" y="0px"
	 viewBox="0 0 40 60" style="enable-background:new 0 0 40 60;" xml:space="preserve">
<style type="text/css">
	.st0{fill:#FFFFFF;}
	.st1{fill:#2D2D2D;}
	.st2{fill:#D6002B;}
</style>
<g>
	<g>
		<path class="st0" d="M36.54,59.91H3.46c-1.86,0-3.37-1.49-3.37-3.32V3.41c0-1.84,1.51-3.32,3.37-3.32h33.08
			c1.86,0,3.37,1.49,3.37,3.32v53.17C39.91,58.42,38.4,59.91,36.54,59.91z"/>
		<path class="st1" d="M36.54,60H3.46C1.55,60,0,58.47,0,56.59V3.41C0,1.53,1.55,0,3.46,0h33.08C38.45,0,40,1.53,40,3.41v53.17
			C40,58.47,38.45,60,36.54,60z M3.46,0.18c-1.81,0-3.28,1.45-3.28,3.23v53.17c0,1.78,1.47,3.23,3.28,3.23h33.08
			c1.81,0,3.28-1.45,3.28-3.23V3.41c0-1.78-1.47-3.23-3.28-3.23H3.46z"/>
	</g>
	<g>
		<g>
			<path class="st2" d="M5.62,12.24c0.16-0.15,0.34-0.26,0.52-0.39c0.19-0.14,0.4-0.27,0.55-0.45c0.13-0.15,0.19-0.3,0.25-0.48
				c0.06-0.18,0.07-0.58-0.03-0.75c-0.3-0.48-1.14-0.89-1.7,0.16c-0.01,0.02-0.02,0.02-0.04,0.02h0c-0.02,0-0.03-0.01-0.04-0.02
				c-0.56-1.05-1.4-0.63-1.7-0.16c-0.1,0.17-0.1,0.56-0.03,0.75c0.06,0.18,0.12,0.33,0.25,0.48c0.15,0.18,0.36,0.31,0.56,0.45
				c0.18,0.13,0.36,0.24,0.52,0.39c0.08,0.07,0.45,0.46,0.45,0.46S5.54,12.32,5.62,12.24z"/>
		</g>
	</g>
	<g>
		<g>
			<path class="st2" d="M34.42,47.83c-0.16,0.14-0.34,0.26-0.52,0.39c-0.19,0.14-0.4,0.27-0.55,0.45c-0.13,0.15-0.19,0.3-0.25,0.48
				c-0.06,0.18-0.07,0.58,0.03,0.75c0.3,0.48,1.15,0.9,1.7-0.15c0.01-0.02,0.02-0.02,0.04-0.02l0,0c0.02,0,0.03,0.01,0.04,0.02
				c0.56,1.05,1.4,0.63,1.7,0.15c0.1-0.16,0.1-0.56,0.03-0.75c-0.06-0.18-0.12-0.33-0.25-0.48c-0.15-0.18-0.36-0.31-0.55-0.45
				c-0.18-0.13-0.36-0.24-0.52-0.39c-0.08-0.07-0.45-0.46-0.45-0.46S34.5,47.75,34.42,47.83z"/>
		</g>
	</g>
	<g>
		<path class="st2" d="M3.21,7.42l0.57-0.2C4.01,7.73,4.4,7.98,4.95,7.98c0.54,0,0.94-0.22,1.21-0.67c0.27-0.44,0.41-1.05,0.42-1.81
			c-0.37,0.67-0.92,1-1.66,1c-0.52,0-0.96-0.18-1.31-0.53C3.25,5.63,3.07,5.2,3.07,4.68c0-0.53,0.19-0.97,0.56-1.35
			C4,2.96,4.48,2.77,5.05,2.77c0.71,0,1.25,0.24,1.62,0.73c0.38,0.49,0.56,1.16,0.56,2.02c0,0.9-0.2,1.63-0.6,2.18
			c-0.4,0.56-0.96,0.83-1.7,0.83C4.08,8.54,3.51,8.16,3.21,7.42z M5.07,5.95c0.39,0,0.71-0.13,0.97-0.4
			c0.26-0.27,0.39-0.58,0.39-0.94c0-0.35-0.12-0.64-0.37-0.89C5.82,3.47,5.49,3.35,5.09,3.35c-0.41,0-0.74,0.13-0.98,0.38
			C3.87,3.99,3.75,4.3,3.75,4.67c0,0.4,0.13,0.71,0.4,0.94C4.41,5.84,4.72,5.95,5.07,5.95z"/>
	</g>
	<g>
		<path class="st2" d="M36.62,52.58l-0.56,0.2c-0.23-0.51-0.63-0.77-1.18-0.77c-0.53,0-0.94,0.22-1.21,0.67
			c-0.27,0.44-0.41,1.05-0.42,1.81c0.37-0.67,0.92-1,1.66-1c0.52,0,0.96,0.17,1.31,0.53c0.35,0.35,0.53,0.78,0.53,1.3
			c0,0.52-0.19,0.97-0.56,1.35c-0.37,0.37-0.85,0.56-1.42,0.56c-0.71,0-1.25-0.24-1.62-0.73c-0.38-0.49-0.56-1.16-0.56-2.01
			c0-0.9,0.2-1.63,0.6-2.18c0.4-0.56,0.96-0.84,1.7-0.84C35.75,51.46,36.33,51.84,36.62,52.58z M34.76,54.05
			c-0.39,0-0.71,0.13-0.97,0.4c-0.26,0.27-0.39,0.58-0.39,0.94c0,0.35,0.12,0.65,0.37,0.89c0.25,0.25,0.58,0.37,0.98,0.37
			c0.41,0,0.74-0.13,0.98-0.38s0.36-0.57,0.36-0.94c0-0.4-0.13-0.71-0.4-0.94C35.42,54.16,35.11,54.05,34.76,54.05z"/>
	</g>
	<g>
		<g>
			<g>
				<path class="st2" d="M14.73,11.52c0.46-0.41,0.97-0.72,1.47-1.09c0.54-0.4,1.13-0.75,1.56-1.26c0.36-0.42,0.53-0.83,0.7-1.35
					c0.18-0.52,0.2-1.64-0.09-2.1c-0.85-1.34-3.22-2.52-4.79,0.44c-0.02,0.04-0.06,0.07-0.11,0.07h0c-0.05,0-0.09-0.03-0.11-0.07
					C11.8,3.2,9.43,4.37,8.58,5.71c-0.3,0.47-0.27,1.58-0.1,2.1c0.18,0.52,0.35,0.93,0.7,1.35c0.44,0.51,1.02,0.86,1.56,1.26
					c0.5,0.36,1.01,0.68,1.47,1.09c0.23,0.2,1.26,1.3,1.26,1.3S14.5,11.72,14.73,11.52z"/>
			</g>
		</g>
		<g>
			<g>
				<path class="st2" d="M27.78,11.52c0.46-0.41,0.97-0.72,1.47-1.09c0.54-0.4,1.13-0.75,1.56-1.26c0.36-0.42,0.53-0.83,0.71-1.35
					c0.18-0.52,0.2-1.64-0.1-2.1c-0.85-1.34-3.22-2.52-4.79,0.44c-0.02,0.04-0.06,0.07-0.11,0.07h0c-0.05,0-0.09-0.03-0.11-0.07
					c-1.56-2.96-3.93-1.78-4.78-0.44c-0.29,0.47-0.27,1.58-0.1,2.1c0.18,0.52,0.35,0.93,0.71,1.35c0.44,0.51,1.02,0.86,1.56,1.26
					c0.5,0.36,1.01,0.68,1.47,1.09c0.23,0.2,1.26,1.3,1.26,1.3S27.55,11.72,27.78,11.52z"/>
			</g>
		</g>
	</g>
	<g>
		<g>
			<g>
				<path class="st2" d="M14.73,22.87c0.46-0.41,0.97-0.73,1.47-1.09c0.54-0.4,1.13-0.75,1.56-1.26c0.36-0.42,0.53-0.83,0.7-1.35
					c0.18-0.52,0.2-1.64-0.09-2.1c-0.85-1.34-3.22-2.52-4.79,0.44c-0.02,0.04-0.06,0.07-0.11,0.07h0c-0.05,0-0.09-0.03-0.11-0.07
					c-1.56-2.96-3.93-1.78-4.78-0.44c-0.3,0.47-0.27,1.58-0.1,2.1c0.18,0.52,0.35,0.93,0.7,1.35c0.44,0.51,1.02,0.86,1.56,1.26
					c0.5,0.36,1.01,0.68,1.47,1.09c0.23,0.2,1.26,1.3,1.26,1.3S14.5,23.08,14.73,22.87z"/>
			</g>
		</g>
		<g>
			<g>
				<path class="st2" d="M27.78,22.87c0.46-0.41,0.97-0.73,1.47-1.09c0.54-0.4,1.13-0.75,1.56-1.26c0.36-0.42,0.53-0.83,0.71-1.35
					c0.18-0.52,0.2-1.64-0.1-2.1c-0.85-1.34-3.22-2.52-4.79,0.44c-0.02,0.04-0.06,0.07-0.11,0.07h0c-0.05,0-0.09-0.03-0.11-0.07
					c-1.56-2.96-3.93-1.78-4.78-0.44c-0.29,0.47-0.27,1.58-0.1,2.1c0.18,0.52,0.35,0.93,0.71,1.35c0.44,0.51,1.02,0.86,1.56,1.26
					c0.5,0.36,1.01,0.68,1.47,1.09c0.23,0.2,1.26,1.3,1.26,1.3S27.55,23.08,27.78,22.87z"/>
			</g>
		</g>
	</g>
	<g>
		<g>
			<g>
				<path class="st2" d="M25.27,48.48c-0.46,0.41-0.97,0.73-1.47,1.09c-0.54,0.4-1.13,0.75-1.56,1.26
					c-0.36,0.42-0.53,0.83-0.71,1.35c-0.18,0.52-0.2,1.64,0.1,2.1c0.85,1.34,3.22,2.52,4.78-0.44c0.02-0.04,0.06-0.07,0.11-0.07h0
					c0.05,0,0.09,0.03,0.11,0.07c1.56,2.96,3.93,1.78,4.79,0.44c0.29-0.46,0.27-1.58,0.1-2.1c-0.18-0.52-0.35-0.93-0.71-1.35
					c-0.44-0.51-1.02-0.86-1.56-1.26c-0.5-0.36-1.01-0.68-1.47-1.09c-0.23-0.2-1.26-1.29-1.26-1.29S25.5,48.28,25.27,48.48z"/>
			</g>
		</g>
		<g>
			<g>
				<path class="st2" d="M12.22,48.48c-0.46,0.41-0.97,0.73-1.47,1.09c-0.54,0.4-1.13,0.75-1.56,1.26c-0.36,0.42-0.53,0.83-0.7,1.35
					c-0.18,0.52-0.2,1.64,0.1,2.1c0.85,1.34,3.22,2.52,4.78-0.44c0.02-0.04,0.06-0.07,0.11-0.07h0c0.05,0,0.09,0.03,0.11,0.07
					c1.56,2.96,3.93,1.78,4.79,0.44c0.29-0.46,0.27-1.58,0.09-2.1c-0.18-0.52-0.34-0.93-0.7-1.35c-0.44-0.51-1.02-0.86-1.56-1.26
					c-0.5-0.36-1.01-0.68-1.47-1.09c-0.23-0.2-1.26-1.29-1.26-1.29S12.45,48.28,12.22,48.48z"/>
			</g>
		</g>
	</g>
	<g>
		<g>
			<g>
				<path class="st2" d="M25.27,36.95c-0.46,0.41-0.97,0.72-1.47,1.09c-0.54,0.4-1.13,0.75-1.56,1.26
					c-0.36,0.42-0.53,0.83-0.71,1.35c-0.18,0.52-0.2,1.64,0.1,2.1c0.85,1.34,3.22,2.52,4.78-0.44c0.02-0.04,0.06-0.07,0.11-0.07h0
					c0.05,0,0.09,0.03,0.11,0.07c1.56,2.96,3.93,1.78,4.79,0.44c0.29-0.46,0.27-1.58,0.1-2.1c-0.18-0.52-0.35-0.93-0.71-1.35
					c-0.44-0.51-1.02-0.86-1.56-1.26c-0.5-0.36-1.01-0.68-1.47-1.09c-0.23-0.21-1.26-1.3-1.26-1.3S25.5,36.74,25.27,36.95z"/>
			</g>
		</g>
		<g>
			<g>
				<path class="st2" d="M12.22,36.95c-0.46,0.41-0.97,0.72-1.47,1.09c-0.54,0.4-1.13,0.75-1.56,1.26c-0.36,0.42-0.53,0.83-0.7,1.35
					c-0.18,0.52-0.2,1.64,0.1,2.1c0.85,1.34,3.22,2.52,4.78-0.44c0.02-0.04,0.06-0.07,0.11-0.07h0c0.05,0,0.09,0.03,0.11,0.07
					c1.56,2.96,3.93,1.78,4.79,0.44c0.29-0.46,0.27-1.58,0.09-2.1c-0.18-0.52-0.34-0.93-0.7-1.35c-0.44-0.51-1.02-0.86-1.56-1.26
					c-0.5-0.36-1.01-0.68-1.47-1.09c-0.23-0.21-1.26-1.3-1.26-1.3S12.45,36.74,12.22,36.95z"/>
			</g>
		</g>
	</g>
	<g>
		<g>
			<path class="st2" d="M21.26,32.95c0.46-0.41,0.97-0.72,1.47-1.09c0.54-0.4,1.13-0.75,1.56-1.26c0.36-0.42,0.53-0.83,0.7-1.35
				c0.18-0.52,0.2-1.64-0.09-2.1c-0.85-1.34-3.22-2.52-4.79,0.44c-0.02,0.04-0.06,0.07-0.11,0.07h0c-0.05,0-0.09-0.03-0.11-0.07
				c-1.56-2.96-3.93-1.78-4.78-0.44c-0.3,0.47-0.27,1.58-0.1,2.1c0.18,0.52,0.35,0.93,0.71,1.35c0.44,0.51,1.02,0.86,1.56,1.26
				c0.5,0.36,1,0.68,1.47,1.09c0.23,0.21,1.26,1.3,1.26,1.3S21.03,33.16,21.26,32.95z"/>
		</g>
	</g>
</g>
</svg>
