<?xml version="1.0" encoding="utf-8"?>
<!-- Generator: Adobe Illustrator 26.3.1, SVG Export Plug-In . SVG Version: 6.00 Build 0)  -->
<svg version="1.1" id="Layer_1" xmlns="http://www.w3.org/2000/svg" xmlns:xlink="http://www.w3.org/1999/xlink" x="0px" y="0px"
	 viewBox="0 0 40 60" style="enable-background:new 0 0 40 60;" xml:space="preserve">
<style type="text/css">
	.st0{fill:#FFFFFF;}
	.st1{fill:#2D2D2D;}
	.st2{fill:#0C0A35;}
</style>
<g>
	<g>
		<path class="st0" d="M36.54,59.91H3.46c-1.86,0-3.37-1.49-3.37-3.32V3.41c0-1.83,1.51-3.32,3.37-3.32h33.08
			c1.86,0,3.37,1.49,3.37,3.32v53.17C39.91,58.42,38.4,59.91,36.54,59.91z"/>
		<path class="st1" d="M36.54,60H3.46C1.55,60,0,58.47,0,56.59V3.41C0,1.53,1.55,0,3.46,0h33.08C38.45,0,40,1.53,40,3.41v53.17
			C40,58.47,38.45,60,36.54,60z M3.46,0.18c-1.81,0-3.28,1.45-3.28,3.23v53.17c0,1.78,1.47,3.23,3.28,3.23h33.08
			c1.81,0,3.28-1.45,3.28-3.23V3.41c0-1.78-1.47-3.23-3.28-3.23H3.46z"/>
	</g>
	<g>
		<g>
			<g>
				<path class="st2" d="M34.63,48.79c0-0.1,0.04-0.24,0.04-0.34c0-0.1,0-0.2-0.01-0.3c-0.04-0.34-0.16-0.66-0.42-0.89
					c0.23-0.01,0.82-0.01,1.06,0c-0.26,0.23-0.38,0.55-0.42,0.89c-0.01,0.1-0.01,0.2-0.01,0.3c0,0.1,0.04,0.24,0.04,0.34H34.63z"/>
			</g>
		</g>
		<g>
			<path class="st2" d="M34.72,48.41c-0.21-0.31-0.57-0.53-0.96-0.52c-0.38,0.01-0.75,0.28-0.82,0.65c-0.06,0.32,0.1,0.66,0.32,0.9
				c0.23,0.24,0.54,0.4,0.82,0.58c0.29,0.18,0.69,0.65,0.69,0.65s0.44-0.45,0.68-0.63c0.27-0.2,0.6-0.35,0.82-0.59
				c0.23-0.24,0.39-0.58,0.32-0.9c-0.07-0.37-0.44-0.64-0.82-0.65c-0.38-0.01-0.75,0.21-0.96,0.52H34.72z"/>
		</g>
	</g>
	<g>
		<g>
			<g>
				<path class="st2" d="M5.24,10.94c0,0.1-0.04,0.24-0.04,0.34c0,0.1,0,0.2,0.01,0.3c0.04,0.34,0.16,0.67,0.42,0.9
					c-0.23,0.01-0.82,0.01-1.06,0c0.26-0.23,0.38-0.55,0.42-0.9C5,11.48,5,11.38,5,11.28c0-0.1-0.04-0.24-0.04-0.34H5.24z"/>
			</g>
		</g>
		<g>
			<path class="st2" d="M5.15,11.32c0.21,0.31,0.57,0.53,0.95,0.52c0.38-0.01,0.75-0.29,0.82-0.65c0.07-0.32-0.09-0.66-0.32-0.9
				c-0.23-0.24-0.54-0.4-0.82-0.58C5.5,9.52,5.1,9.06,5.1,9.06S4.66,9.51,4.42,9.69c-0.27,0.2-0.6,0.35-0.82,0.59
				c-0.23,0.24-0.39,0.58-0.32,0.9c0.07,0.37,0.44,0.64,0.82,0.65c0.38,0.01,0.75-0.21,0.96-0.52H5.15z"/>
		</g>
	</g>
	<g>
		<path class="st2" d="M3.21,7.42l0.57-0.2C4.01,7.73,4.4,7.98,4.95,7.98c0.54,0,0.94-0.22,1.21-0.67c0.27-0.44,0.41-1.04,0.42-1.8
			c-0.37,0.67-0.92,1-1.66,1c-0.52,0-0.96-0.17-1.31-0.52C3.25,5.63,3.07,5.2,3.07,4.68c0-0.52,0.19-0.97,0.56-1.35
			C4,2.96,4.48,2.77,5.05,2.77c0.71,0,1.25,0.24,1.62,0.73c0.38,0.49,0.56,1.16,0.56,2.01c0,0.9-0.2,1.63-0.6,2.18
			c-0.4,0.56-0.96,0.83-1.7,0.83C4.08,8.54,3.51,8.16,3.21,7.42z M5.07,5.95c0.39,0,0.71-0.13,0.97-0.4
			c0.26-0.27,0.39-0.58,0.39-0.94c0-0.35-0.12-0.64-0.37-0.89C5.82,3.47,5.49,3.35,5.09,3.35c-0.41,0-0.74,0.13-0.98,0.38
			C3.87,3.99,3.75,4.3,3.75,4.67c0,0.4,0.13,0.71,0.4,0.94C4.41,5.84,4.72,5.95,5.07,5.95z"/>
	</g>
	<g>
		<path class="st2" d="M36.62,52.58l-0.56,0.2c-0.23-0.51-0.63-0.77-1.18-0.77c-0.53,0-0.94,0.22-1.21,0.66
			c-0.27,0.44-0.41,1.05-0.42,1.81c0.37-0.67,0.92-1,1.66-1c0.52,0,0.96,0.17,1.31,0.53c0.35,0.35,0.53,0.78,0.53,1.3
			c0,0.52-0.19,0.97-0.56,1.35c-0.37,0.37-0.85,0.56-1.42,0.56c-0.71,0-1.25-0.24-1.62-0.73c-0.38-0.49-0.56-1.16-0.56-2.02
			c0-0.9,0.2-1.63,0.6-2.18c0.4-0.56,0.96-0.84,1.7-0.84C35.75,51.46,36.33,51.84,36.62,52.58z M34.76,54.05
			c-0.39,0-0.71,0.13-0.97,0.4c-0.26,0.27-0.39,0.58-0.39,0.94c0,0.35,0.12,0.65,0.37,0.89c0.25,0.25,0.58,0.37,0.98,0.37
			c0.41,0,0.74-0.13,0.98-0.38s0.36-0.57,0.36-0.94c0-0.4-0.13-0.71-0.4-0.94C35.42,54.16,35.11,54.05,34.76,54.05z"/>
	</g>
	<g>
		<g>
			<g>
				<g>
					<path class="st2" d="M14.27,7.89c0,0.25-0.1,0.6-0.1,0.85c0,0.25,0,0.5,0.03,0.75c0.1,0.85,0.41,1.67,1.05,2.24
						c-0.59,0.03-2.06,0.03-2.65,0c0.65-0.57,0.96-1.39,1.06-2.24c0.03-0.25,0.03-0.5,0.03-0.75c0-0.25-0.1-0.6-0.1-0.85H14.27z"/>
				</g>
			</g>
			<g>
				<path class="st2" d="M14.05,8.83c0.52,0.79,1.44,1.34,2.39,1.31c0.95-0.03,1.88-0.72,2.07-1.64c0.16-0.81-0.24-1.65-0.81-2.25
					c-0.57-0.61-1.36-1-2.05-1.46c-0.71-0.46-1.72-1.62-1.72-1.62s-1.1,1.13-1.71,1.59c-0.67,0.5-1.49,0.88-2.06,1.49
					C9.58,6.85,9.18,7.69,9.34,8.5c0.19,0.92,1.11,1.61,2.07,1.64c0.95,0.03,1.87-0.52,2.39-1.31H14.05z"/>
			</g>
		</g>
		<g>
			<g>
				<g>
					<path class="st2" d="M26.42,7.89c0,0.25-0.1,0.6-0.1,0.85c0,0.25,0,0.5,0.03,0.75c0.1,0.85,0.41,1.67,1.05,2.24
						c-0.59,0.03-2.06,0.03-2.65,0c0.65-0.57,0.96-1.39,1.06-2.24c0.03-0.25,0.03-0.5,0.03-0.75c0-0.25-0.1-0.6-0.1-0.85H26.42z"/>
				</g>
			</g>
			<g>
				<path class="st2" d="M26.2,8.83c0.52,0.79,1.44,1.34,2.39,1.31c0.95-0.03,1.88-0.72,2.07-1.64c0.16-0.81-0.24-1.65-0.81-2.25
					c-0.57-0.61-1.36-1-2.06-1.46c-0.71-0.46-1.72-1.62-1.72-1.62s-1.1,1.13-1.71,1.59c-0.67,0.5-1.49,0.88-2.06,1.49
					c-0.57,0.6-0.97,1.44-0.81,2.25c0.19,0.92,1.11,1.61,2.07,1.64c0.95,0.03,1.87-0.52,2.39-1.31H26.2z"/>
			</g>
		</g>
	</g>
	<g>
		<g>
			<g>
				<g>
					<path class="st2" d="M14.27,19.7c0,0.25-0.1,0.6-0.1,0.85c0,0.25,0,0.5,0.03,0.75c0.1,0.85,0.41,1.67,1.05,2.24
						c-0.59,0.03-2.06,0.03-2.65,0c0.65-0.57,0.96-1.38,1.06-2.24c0.03-0.25,0.03-0.5,0.03-0.75c0-0.25-0.1-0.6-0.1-0.85H14.27z"/>
				</g>
			</g>
			<g>
				<path class="st2" d="M14.05,20.64c0.52,0.79,1.44,1.34,2.39,1.31c0.95-0.03,1.88-0.72,2.07-1.64c0.16-0.81-0.24-1.65-0.81-2.25
					c-0.57-0.61-1.36-1-2.05-1.46c-0.71-0.46-1.72-1.62-1.72-1.62s-1.1,1.13-1.71,1.59c-0.67,0.5-1.49,0.88-2.06,1.49
					c-0.57,0.6-0.97,1.44-0.81,2.25c0.19,0.92,1.11,1.61,2.07,1.64c0.95,0.03,1.87-0.52,2.39-1.31H14.05z"/>
			</g>
		</g>
		<g>
			<g>
				<g>
					<path class="st2" d="M26.42,19.7c0,0.25-0.1,0.6-0.1,0.85c0,0.25,0,0.5,0.03,0.75c0.1,0.85,0.41,1.67,1.05,2.24
						c-0.59,0.03-2.06,0.03-2.65,0c0.65-0.57,0.96-1.38,1.06-2.24c0.03-0.25,0.03-0.5,0.03-0.75c0-0.25-0.1-0.6-0.1-0.85H26.42z"/>
				</g>
			</g>
			<g>
				<path class="st2" d="M26.2,20.64c0.52,0.79,1.44,1.34,2.39,1.31c0.95-0.03,1.88-0.72,2.07-1.64c0.16-0.81-0.24-1.65-0.81-2.25
					c-0.57-0.61-1.36-1-2.06-1.46c-0.71-0.46-1.72-1.62-1.72-1.62s-1.1,1.13-1.71,1.59c-0.67,0.5-1.49,0.88-2.06,1.49
					c-0.57,0.6-0.97,1.44-0.81,2.25c0.19,0.92,1.11,1.61,2.07,1.64c0.95,0.03,1.87-0.52,2.39-1.31H26.2z"/>
			</g>
		</g>
	</g>
	<g>
		<g>
			<g>
				<path class="st2" d="M20.34,30.24c0,0.25-0.1,0.6-0.1,0.85c0,0.25,0,0.5,0.03,0.75c0.1,0.85,0.41,1.67,1.06,2.24
					c-0.59,0.03-2.06,0.03-2.65,0c0.65-0.57,0.96-1.38,1.06-2.24c0.03-0.25,0.03-0.5,0.03-0.75c0-0.25-0.1-0.6-0.1-0.85H20.34z"/>
			</g>
		</g>
		<g>
			<path class="st2" d="M20.13,31.18c0.52,0.79,1.44,1.34,2.39,1.31c0.95-0.03,1.88-0.72,2.07-1.64c0.16-0.81-0.24-1.64-0.81-2.25
				c-0.57-0.61-1.36-1-2.06-1.46C21,26.68,20,25.53,20,25.53s-1.1,1.13-1.71,1.59c-0.67,0.5-1.49,0.88-2.06,1.49
				c-0.57,0.61-0.97,1.44-0.81,2.25c0.19,0.92,1.11,1.61,2.07,1.64c0.95,0.03,1.87-0.52,2.39-1.31H20.13z"/>
		</g>
	</g>
	<g>
		<g>
			<g>
				<g>
					<path class="st2" d="M25.73,52.11c0-0.25,0.1-0.6,0.1-0.85c0-0.25,0-0.5-0.03-0.75c-0.1-0.85-0.41-1.67-1.06-2.24
						c0.59-0.03,2.06-0.03,2.65,0c-0.65,0.57-0.96,1.38-1.05,2.24c-0.03,0.25-0.03,0.5-0.03,0.75c0,0.25,0.1,0.6,0.1,0.85H25.73z"/>
				</g>
			</g>
			<g>
				<path class="st2" d="M25.95,51.17c-0.52-0.79-1.44-1.34-2.39-1.31c-0.95,0.03-1.88,0.72-2.07,1.64
					c-0.16,0.81,0.24,1.64,0.81,2.25c0.57,0.6,1.36,1,2.06,1.46c0.71,0.46,1.72,1.62,1.72,1.62s1.1-1.13,1.71-1.59
					c0.67-0.5,1.49-0.88,2.06-1.49c0.57-0.61,0.97-1.44,0.81-2.25c-0.19-0.92-1.11-1.61-2.07-1.64c-0.95-0.03-1.87,0.52-2.39,1.31
					H25.95z"/>
			</g>
		</g>
		<g>
			<g>
				<g>
					<path class="st2" d="M13.58,52.11c0-0.25,0.1-0.6,0.1-0.85c0-0.25,0-0.5-0.03-0.75c-0.1-0.85-0.41-1.67-1.06-2.24
						c0.59-0.03,2.06-0.03,2.65,0c-0.65,0.57-0.96,1.38-1.05,2.24c-0.03,0.25-0.03,0.5-0.03,0.75c0,0.25,0.1,0.6,0.1,0.85H13.58z"/>
				</g>
			</g>
			<g>
				<path class="st2" d="M13.8,51.17c-0.52-0.79-1.44-1.34-2.39-1.31c-0.95,0.03-1.88,0.72-2.07,1.64
					c-0.16,0.81,0.24,1.64,0.81,2.25c0.57,0.6,1.36,1,2.05,1.46c0.71,0.46,1.72,1.62,1.72,1.62s1.1-1.13,1.71-1.59
					c0.67-0.5,1.49-0.88,2.06-1.49c0.57-0.61,0.97-1.44,0.81-2.25c-0.19-0.92-1.11-1.61-2.07-1.64c-0.95-0.03-1.87,0.52-2.39,1.31
					H13.8z"/>
			</g>
		</g>
	</g>
	<g>
		<g>
			<g>
				<g>
					<path class="st2" d="M25.73,40.3c0-0.25,0.1-0.6,0.1-0.85c0-0.25,0-0.5-0.03-0.75c-0.1-0.85-0.41-1.67-1.06-2.24
						c0.59-0.03,2.06-0.03,2.65,0c-0.65,0.57-0.96,1.39-1.05,2.24c-0.03,0.25-0.03,0.5-0.03,0.75c0,0.25,0.1,0.6,0.1,0.85H25.73z"/>
				</g>
			</g>
			<g>
				<path class="st2" d="M25.95,39.36c-0.52-0.79-1.44-1.34-2.39-1.31c-0.95,0.03-1.88,0.71-2.07,1.64
					c-0.16,0.81,0.24,1.65,0.81,2.25c0.57,0.6,1.36,1,2.06,1.46c0.71,0.47,1.72,1.62,1.72,1.62s1.1-1.13,1.71-1.59
					c0.67-0.5,1.49-0.88,2.06-1.49c0.57-0.61,0.97-1.44,0.81-2.25c-0.19-0.92-1.11-1.6-2.07-1.64c-0.95-0.03-1.87,0.52-2.39,1.31
					H25.95z"/>
			</g>
		</g>
		<g>
			<g>
				<g>
					<path class="st2" d="M13.58,40.3c0-0.25,0.1-0.6,0.1-0.85c0-0.25,0-0.5-0.03-0.75c-0.1-0.85-0.41-1.67-1.06-2.24
						c0.59-0.03,2.06-0.03,2.65,0c-0.65,0.57-0.96,1.39-1.05,2.24c-0.03,0.25-0.03,0.5-0.03,0.75c0,0.25,0.1,0.6,0.1,0.85H13.58z"/>
				</g>
			</g>
			<g>
				<path class="st2" d="M13.8,39.36c-0.52-0.79-1.44-1.34-2.39-1.31c-0.95,0.03-1.88,0.71-2.07,1.64
					c-0.16,0.81,0.24,1.65,0.81,2.25c0.57,0.6,1.36,1,2.05,1.46c0.71,0.47,1.72,1.62,1.72,1.62s1.1-1.13,1.71-1.59
					c0.67-0.5,1.49-0.88,2.06-1.49c0.57-0.61,0.97-1.44,0.81-2.25c-0.19-0.92-1.11-1.6-2.07-1.64c-0.95-0.03-1.87,0.52-2.39,1.31
					H13.8z"/>
			</g>
		</g>
	</g>
</g>
</svg>
