<?xml version="1.0" encoding="utf-8"?>
<!-- Generator: Adobe Illustrator 26.3.1, SVG Export Plug-In . SVG Version: 6.00 Build 0)  -->
<svg version="1.1" id="Layer_1" xmlns="http://www.w3.org/2000/svg" xmlns:xlink="http://www.w3.org/1999/xlink" x="0px" y="0px"
	 viewBox="0 0 40 60" style="enable-background:new 0 0 40 60;" xml:space="preserve">
<style type="text/css">
	.st0{fill:#FFFFFF;}
	.st1{fill:#2D2D2D;}
	.st2{fill:#D6002B;}
	.st3{fill:#0C0A35;}
	.st4{fill:#990028;}
	.st5{fill:#FFD6A1;}
	.st6{fill:#F70032;}
	.st7{fill:#E20C3F;}
	.st8{clip-path:url(#SVGID_00000002386047390043378490000000181922615864317869_);}
	.st9{clip-path:url(#SVGID_00000027580420823383990120000006171934341188800959_);}
	.st10{fill:#222272;}
	.st11{fill:#B70027;}
	.st12{clip-path:url(#SVGID_00000111890567334741390870000003958131886518813072_);}
	.st13{clip-path:url(#SVGID_00000037663418570024542130000016688729998058142637_);}
</style>
<g>
	<g>
		<path class="st0" d="M36.45,59.93H3.38c-1.86,0-3.37-1.49-3.37-3.32V3.43c0-1.83,1.51-3.32,3.37-3.32h33.08
			c1.86,0,3.37,1.49,3.37,3.32v53.17C39.82,58.44,38.31,59.93,36.45,59.93z"/>
		<path class="st1" d="M36.45,60.02H3.38c-1.91,0-3.46-1.53-3.46-3.41V3.43c0-1.88,1.55-3.41,3.46-3.41h33.08
			c1.91,0,3.46,1.53,3.46,3.41v53.17C39.91,58.49,38.36,60.02,36.45,60.02z M3.38,0.2C1.57,0.2,0.1,1.65,0.1,3.43v53.17
			c0,1.78,1.47,3.23,3.28,3.23h33.08c1.81,0,3.28-1.45,3.28-3.23V3.43c0-1.78-1.47-3.23-3.28-3.23H3.38z"/>
	</g>
	<g>
		<g>
			<path class="st2" d="M32.59,26.19c0.56,1.36,0.74,2.68,0.78,4.09c0.05,1.7-0.15,2.39-0.1,4.09c0.01,0.41-1.7,2.14-1.98,2.5
				c-0.48,0.62-0.86,1.15-1.44,1.19c-3.52,0.24-6.29,1.05-9.82,0.94c-3.27-0.1-5.4-0.83-8.65-0.49c-0.2,0.02-0.13,0.27-0.28,0.17
				c-1.66-1.09-4.31-2.14-5-3.92c-1.21-3.14-2.11-3.58-1.37-6.79c0.27-1.14,1.56-3.61,5.28-4.96c1.73-0.63,3.47-2.04,5.6-2.25
				c2.8-0.28,5.67-0.18,8.43,0.29c2.3,0.39,6.07,2.03,7.43,3.42C31.99,24.99,32.34,25.58,32.59,26.19z"/>
		</g>
		<g>
			<path class="st2" d="M6.86,34.01c-0.56-1.36-0.74-2.68-0.78-4.09c-0.05-1.7,0.15-2.39,0.1-4.09c-0.01-0.41,1.7-2.14,1.98-2.5
				c0.48-0.62,0.86-1.15,1.44-1.19c3.52-0.24,6.29-1.05,9.82-0.94c3.27,0.1,5.4,0.83,8.65,0.49c0.2-0.02,0.13-0.27,0.28-0.17
				c1.66,1.09,4.31,2.14,5,3.92c1.21,3.14,2.11,3.58,1.37,6.79c-0.27,1.14-1.56,3.61-5.28,4.96c-1.73,0.63-3.47,2.04-5.6,2.25
				c-2.8,0.28-5.67,0.18-8.43-0.29c-2.3-0.39-6.07-2.03-7.43-3.42C7.46,35.21,7.11,34.62,6.86,34.01z"/>
		</g>
		<path class="st3" d="M5.35,26.52c0.22-1.73,1.21-3.07,3.15-4.41c1.69-1.16,3.66-1.4,4.25-1.23c1.8,0.53,1.62,2.61,3.32,3.39
			c1.78,0.81,4.72,1.57,6.42,2.54c4.42,2.52,7.47,4.35,12.46,5.42c-1.15,3.04-3.2,6.19-6.48,6.48c-1.67,0.15-3.08-1.05-4.66-1.57
			C21.22,36.3,5.28,27.07,5.35,26.52z"/>
		<g>
			<path class="st3" d="M18.85,0.81c0.13-0.04,0.27,0.04,0.35,0.15c0.17,0.22,0.17,0.53,0.16,0.81c0,0.03,0,0.06-0.03,0.08
				c-0.02,0.02-0.04,0.02-0.07,0.02c-0.17,0.01-0.34,0-0.5-0.03c-0.08-0.19-0.12-0.39-0.13-0.6C18.63,1.07,18.68,0.86,18.85,0.81z"
				/>
		</g>
		<g>
			<path class="st4" d="M11.81,21.34c-0.56,0.44-1.19,0.78-1.74,1.23c-0.37,0.31-0.7,0.69-0.88,1.12c-0.1,0.25,0.14,0.5,0.39,0.41
				c0.35-0.13,0.71-0.17,1.02,0.01c0.39,0.24,0.5,0.74,0.72,1.14c0.44,0.81,1.48,1.25,2.38,1c0.98-0.27,1.72-1.24,2.74-1.27
				c1.21-0.04,2.15,1.28,3.36,1.21c1.04-0.06,1.79-1.13,2.82-1.25c1.15-0.13,2.29,0.96,3.37,0.56c0.15-0.06,0.29-0.16,0.41-0.27
				c1.35-1.25,0.92-1.93,2.72-1.49c0.04,0.01,0.08,0.01,0.11-0.01c0.76-0.45-1.85-2.43-3.03-3.43c-1.1-0.93-1.98-2.17-2.17-3.58
				c-0.11-0.81-0.01-1.72-0.53-2.35c-0.06-0.08-0.14-0.15-0.23-0.2c-0.48-0.29-1.06,0.09-1.52,0.41c-1.56,1.07-3.48,1.51-5.36,1.81
				c-0.83,0.14-1.68,0.25-2.46,0.56c-0.15,0.06-0.27,0.17-0.32,0.32c-0.08,0.24,0.13,0.31,0.19,0.46c0.04,0.09,0.02,0.19,0.01,0.28
				C13.58,19.3,12.85,20.51,11.81,21.34z"/>
		</g>
		<g>
			<path class="st5" d="M16.41,5.94c-0.75,0.48-1.89,1.11-2.2,1.94c-0.31,0.83-0.51,1.69-0.93,2.47c-0.39,0.73-0.94,1.36-1.47,2
				c-0.27,0.33-0.54,0.8-0.3,1.15c0.2,0.3,0.64,0.31,1,0.25s0.75-0.17,1.07-0.01c-0.08,0.96-0.12,1.85-0.2,2.82
				c-0.03,0.4-0.06,0.82,0.07,1.2c0.3,0.83,1.3,1.19,2.19,1.25c1.91,0.12,3.77-0.71,5.27-1.87c0.36-0.28,0.71-0.59,1.01-0.94
				c0.52-0.62,0.88-1.35,1.22-2.08c0.17-0.36,0.34-0.72,0.43-1.1c0.1-0.44,0.09-0.89,0.05-1.34c-0.08-1.08-0.28-2.16-0.74-3.15
				c-0.46-0.99-1.18-1.87-2.14-2.4c-0.54-0.3-1.15-0.47-1.76-0.57C17.93,5.41,17.32,5.37,16.41,5.94z"/>
		</g>
		<g>
			<path class="st6" d="M18.41,1.25c0.45-0.05,0.9,0.01,1.33,0.13c0.93,0.27,1.76,0.87,2.28,1.68c0.52,0.81,0.71,1.82,0.5,2.75
				c-2.37-0.49-4.85-0.48-7.21,0.04c-0.12-1.02,0.05-2.09,0.59-2.96C16.44,2.01,17.37,1.35,18.41,1.25z"/>
		</g>
		<g>
			<path class="st3" d="M20.78,9.97c0,0-0.12,0.03-0.23,0.02c-1.21-0.08-2.86-0.33-3.99-0.07c-0.14,0.03-0.3,0.03-0.41,0.08
				c-0.07,0.04-0.05,0.17-0.12,0.14c-0.15-0.08-0.3-1.3-0.28-1.91c0-0.06,0.04-0.11,0.09-0.12C16.3,7.97,16.96,8,17.42,8.03
				c0.57,0.04,1.37,0.2,1.76,0.41C19.62,8.67,20.33,9.03,20.78,9.97z"/>
		</g>
		<g>
			<path class="st0" d="M15.99,10.09c-0.01-0.01,0-0.03,0-0.04c0.25-0.37,0.59-0.71,1.46-0.94c1.2-0.31,2.48-0.05,3.32,0.84
				c-1.25,0.64-2.13,0.72-4.16,0.4C16.41,10.33,16.06,10.28,15.99,10.09z"/>
		</g>
		<g>
			<path class="st2" d="M19.04,14.98c0.07-0.04-0.14-0.34,0.33-0.43c0.21-0.04,0.33,0.03,0.37,0.24c0.05,0.27-0.21,0.72-0.57,0.94
				c-0.36,0.22-0.67,0.35-1.09,0.32c-1.16-0.06-2.3-0.51-3.19-1.25c-0.31-0.26-0.95-0.78-1.11-0.72c-0.16,0.05-0.46,0.44-1.04,1.19
				c-0.36,0.46-0.93,1.02-1.52,1c-0.29-0.01-0.51-0.16-0.63-0.42c-0.12-0.26-0.08-0.55,0.15-0.71c0.33-0.23,0.48,0.01,0.61,0.06
				c0.08,0.03,0.03-0.22-0.01-0.29c-0.32-0.49-0.92-0.35-1.26-0.11c-0.34,0.23-0.49,0.61-0.57,1.01c-0.06,0.32-0.02,0.69,0.1,0.99
				c0.24,0.65,1.05,0.78,1.76,0.81c0.89,0.04,1.7-0.44,1.98-1.08c0.53-1.18,0.43-1.33,0.57-1.31c0.09,0.01,0.23,0.9,0.42,1.23
				c0.98,1.64,3.21,1.5,4.21,1.26c1-0.25,1.7-0.84,2.06-1.79c0.35-0.91,0.06-1.41-0.33-1.86c-0.24-0.29-0.64-0.41-1.02-0.36
				c-0.27,0.04-0.5,0.29-0.54,0.56C18.65,14.76,18.95,15.03,19.04,14.98z"/>
		</g>
		<g>
			<path class="st7" d="M24.2,8.04c0.32,0.43,0.95,1.54,1.26,1.97c0.61,0.84,0.86,1.81,1.8,2.28c0.45,0.22,1.05,0.35,1.54,0.46
				c0.5,0.11,0.83,0.33,1.06,0.78c0.27,0.52,0.37,1.04,0.05,1.9c-0.12,0.34-0.72,1.05-2.37,1.22c-0.45,0.04-1.13,0.1-1.97,0.05
				c-1.04-0.06-0.97-0.09-2.01-0.09c-0.72,0-0.72-0.03-1-0.68c-0.19-0.43-0.47-2.04-0.69-2.77c-0.08-0.26-1-4.1-1.16-4.66
				c-0.12-0.44-0.25-0.89-0.37-1.33c-0.07-0.24-0.13-0.51-0.02-0.74c0.17-0.34,0.62-0.41,1-0.43c0.27-0.01,0.53-0.03,0.8-0.04
				c0.11-0.01,0.22-0.01,0.32,0.02c0.13,0.04,0.06,0.33,0.15,0.42C23.33,7.13,23.59,7.22,24.2,8.04z"/>
		</g>
		<g>
			<path class="st3" d="M18.15,10.34c0.72,0.04,0.73-0.5,0.73-0.68c-0.01-0.26-0.25-0.48-0.51-0.51c-0.3-0.03-0.6,0.2-0.66,0.49
				C17.66,9.95,17.85,10.33,18.15,10.34z"/>
		</g>
		<g>
			<defs>
				<path id="SVGID_1_" d="M19.04,14.98c0.07-0.04-0.14-0.34,0.33-0.43c0.21-0.04,0.33,0.03,0.37,0.24
					c0.05,0.27-0.21,0.72-0.57,0.94c-0.36,0.22-0.67,0.35-1.09,0.32c-1.16-0.06-2.3-0.51-3.19-1.25c-0.31-0.26-0.95-0.78-1.11-0.72
					c-0.16,0.05-0.46,0.44-1.04,1.19c-0.36,0.46-0.93,1.02-1.52,1c-0.29-0.01-0.51-0.16-0.63-0.42c-0.12-0.26-0.08-0.55,0.15-0.71
					c0.33-0.23,0.48,0.01,0.61,0.06c0.08,0.03,0.03-0.22-0.01-0.29c-0.32-0.49-0.92-0.35-1.26-0.11c-0.34,0.23-0.49,0.61-0.57,1.01
					c-0.06,0.32-0.02,0.69,0.1,0.99c0.24,0.65,1.05,0.78,1.76,0.81c0.89,0.04,1.7-0.44,1.98-1.08c0.53-1.18,0.43-1.33,0.57-1.31
					c0.09,0.01,0.23,0.9,0.42,1.23c0.98,1.64,3.21,1.5,4.21,1.26c1-0.25,1.7-0.84,2.06-1.79c0.35-0.91,0.06-1.41-0.33-1.86
					c-0.24-0.29-0.64-0.41-1.02-0.36c-0.27,0.04-0.5,0.29-0.54,0.56C18.65,14.76,18.95,15.03,19.04,14.98z"/>
			</defs>
			<clipPath id="SVGID_00000166652401498598513070000016685868065626386879_">
				<use xlink:href="#SVGID_1_"  style="overflow:visible;"/>
			</clipPath>
			<g style="clip-path:url(#SVGID_00000166652401498598513070000016685868065626386879_);">
				<g>
					<path class="st3" d="M14.3,13.71c-0.5-0.24-0.86,0.26-1.04,0.67c-0.11,0.25-0.22,0.52-0.16,0.79c0.15,0.8,0.38,1.29,0.02,2.09
						c-0.02,0.04,0.03,0.08,0.06,0.05c0.41-0.4,0.52-0.81,0.44-1.36c-0.05-0.38-0.27-0.69-0.26-1.08c0.02-0.55,0.3-1.08,0.92-1.11
						C14.31,13.75,14.32,13.72,14.3,13.71L14.3,13.71z"/>
				</g>
			</g>
			<g style="clip-path:url(#SVGID_00000166652401498598513070000016685868065626386879_);">
				<g>
					<path class="st3" d="M14.14,14.03c0.49,0.92-0.14,1.33-0.15,2.21c-0.01,0.58,0.25,1.24,0.7,1.63c0.03,0.03,0.09,0,0.08-0.04
						c-0.11-0.37-0.26-0.72-0.37-1.08c-0.17-0.54,0.16-1.1,0.3-1.61c0.13-0.5-0.09-0.87-0.47-1.16
						C14.18,13.94,14.11,13.98,14.14,14.03L14.14,14.03z"/>
				</g>
			</g>
			<g style="clip-path:url(#SVGID_00000166652401498598513070000016685868065626386879_);">
				<g>
					<path class="st3" d="M12.78,14.65c-0.48,0.22-0.45,0.83-0.39,1.27c0.07,0.53,0.18,1.05-0.22,1.49
						c-0.28,0.32-0.72,0.26-1.06,0.43c-0.09,0.05-0.05,0.16,0.03,0.2c0.61,0.25,1.26-0.31,1.5-0.82c0.15-0.31,0.12-0.67,0.08-1
						c-0.08-0.58-0.13-0.94,0.17-1.47C12.92,14.69,12.85,14.62,12.78,14.65L12.78,14.65z"/>
				</g>
			</g>
			<g style="clip-path:url(#SVGID_00000166652401498598513070000016685868065626386879_);">
				<g>
					<path class="st3" d="M12.07,15.28c-0.4,0.21-0.48,0.6-0.53,1.02c-0.04,0.39-0.1,0.72-0.31,1.07c-0.23,0.38-0.63,0.56-0.96,0.82
						c-0.04,0.03,0,0.1,0.05,0.09c0.56-0.11,1-0.6,1.25-1.08c0.3-0.57,0.08-1.33,0.58-1.82C12.19,15.32,12.13,15.24,12.07,15.28
						L12.07,15.28z"/>
				</g>
			</g>
			<g style="clip-path:url(#SVGID_00000166652401498598513070000016685868065626386879_);">
				<g>
					<path class="st3" d="M11.46,15.52c-0.53-0.06-0.65,0.72-0.82,1.05c-0.33,0.65-1.09,0.76-1.72,0.89
						c-0.06,0.01-0.07,0.08-0.03,0.12c0.34,0.37,1.12-0.07,1.44-0.28c0.24-0.15,0.42-0.35,0.56-0.59c0.17-0.29,0.21-0.96,0.58-1.09
						C11.54,15.61,11.52,15.53,11.46,15.52L11.46,15.52z"/>
				</g>
			</g>
			<g style="clip-path:url(#SVGID_00000166652401498598513070000016685868065626386879_);">
				<g>
					<path class="st3" d="M10.91,15.28c-0.3,0.51-0.87,0.57-1.32,0.89C9.28,16.39,8.9,16.81,8.9,17.2c0,0.05,0.07,0.08,0.11,0.04
						c0.19-0.19,0.28-0.45,0.46-0.66c0.2-0.23,0.46-0.37,0.74-0.49c0.36-0.15,0.76-0.37,0.77-0.8
						C10.98,15.26,10.93,15.25,10.91,15.28L10.91,15.28z"/>
				</g>
			</g>
			<g style="clip-path:url(#SVGID_00000166652401498598513070000016685868065626386879_);">
				<g>
					<path class="st3" d="M11.49,15.11c-0.39-0.35-0.91-0.5-1.41-0.27c-0.7,0.3-0.94,0.99-1.57,1.37c-0.06,0.04-0.04,0.13,0.04,0.13
						c0.38,0.01,0.61-0.25,0.83-0.53c0.57-0.75,1.17-0.92,2.1-0.66C11.49,15.14,11.51,15.12,11.49,15.11L11.49,15.11z"/>
				</g>
			</g>
			<g style="clip-path:url(#SVGID_00000166652401498598513070000016685868065626386879_);">
				<g>
					<path class="st3" d="M14.92,14.45c0.15,0.09,0.22,0.63,0.27,0.79c0.17,0.55,0.04,1.03-0.1,1.56c-0.13,0.47,0.13,0.82,0.43,1.14
						c0.05,0.06,0.14,0,0.13-0.07c-0.09-0.45-0.33-0.7-0.19-1.21c0.1-0.34,0.19-0.67,0.13-1.03c-0.06-0.37-0.14-1.2-0.61-1.31
						C14.89,14.29,14.84,14.41,14.92,14.45L14.92,14.45z"/>
				</g>
			</g>
			<g style="clip-path:url(#SVGID_00000166652401498598513070000016685868065626386879_);">
				<g>
					<path class="st3" d="M16,15.16c0.54,0.56,0.1,1.53,0.27,2.22c0.13,0.5,0.59,1.04,1.11,1.14c0.06,0.01,0.12-0.05,0.09-0.11
						c-0.16-0.29-0.44-0.49-0.64-0.76c-0.25-0.34-0.28-0.76-0.28-1.16c0.01-0.54-0.06-1.03-0.53-1.36C16,15.12,15.98,15.15,16,15.16
						L16,15.16z"/>
				</g>
			</g>
			<g style="clip-path:url(#SVGID_00000166652401498598513070000016685868065626386879_);">
				<g>
					<path class="st3" d="M16.98,15.42c0.3,0.62,0.03,1.31,0.3,1.94c0.17,0.4,0.6,0.91,1.03,1.03c0.04,0.01,0.08-0.03,0.07-0.07
						c-0.2-0.53-0.76-0.82-0.94-1.4c-0.18-0.58,0.03-1.05-0.4-1.56C17.01,15.33,16.96,15.38,16.98,15.42L16.98,15.42z"/>
				</g>
			</g>
			<g style="clip-path:url(#SVGID_00000166652401498598513070000016685868065626386879_);">
				<g>
					<path class="st3" d="M17.71,15.44c0.55,0.04,0.44,1.13,0.55,1.52c0.14,0.49,0.53,1.1,1.1,1.15c0.06,0.01,0.09-0.07,0.06-0.11
						c-0.22-0.33-0.57-0.53-0.79-0.87c-0.18-0.28-0.23-0.58-0.28-0.89c-0.06-0.34-0.21-0.87-0.64-0.88
						C17.66,15.36,17.66,15.44,17.71,15.44L17.71,15.44z"/>
				</g>
			</g>
			<g style="clip-path:url(#SVGID_00000166652401498598513070000016685868065626386879_);">
				<g>
					<path class="st3" d="M18.67,15.34c0.38,0.17,0.48,0.94,0.68,1.29c0.23,0.41,0.6,0.87,1.12,0.86c0.07,0,0.1-0.08,0.06-0.13
						c-0.18-0.21-0.4-0.37-0.6-0.57c-0.21-0.22-0.35-0.49-0.49-0.76c-0.15-0.29-0.36-0.75-0.75-0.77
						C18.65,15.26,18.63,15.32,18.67,15.34L18.67,15.34z"/>
				</g>
			</g>
			<g style="clip-path:url(#SVGID_00000166652401498598513070000016685868065626386879_);">
				<g>
					<path class="st3" d="M19.15,13.57c-0.26,0.56-0.11,0.99,0.25,1.48c0.22,0.3,0.56,0.52,0.81,0.79c0.39,0.43,0.34,0.91,0.48,1.41
						c0.02,0.07,0.13,0.09,0.16,0.02c0.25-0.49,0.03-1.03-0.26-1.47c-0.54-0.8-1.49-1.09-1.43-2.23
						C19.16,13.57,19.15,13.56,19.15,13.57L19.15,13.57z"/>
				</g>
			</g>
			<g style="clip-path:url(#SVGID_00000166652401498598513070000016685868065626386879_);">
				<g>
					<path class="st3" d="M19.72,13.4c-0.06,0.55,0.15,0.89,0.53,1.29c0.31,0.32,0.67,0.45,0.85,0.89c0.1,0.25,0.12,0.46,0.31,0.65
						c0.05,0.05,0.15,0.02,0.15-0.06c-0.01-0.42-0.18-0.84-0.45-1.16c-0.47-0.56-1.18-0.81-1.34-1.61
						C19.77,13.35,19.72,13.37,19.72,13.4L19.72,13.4z"/>
				</g>
			</g>
		</g>
		<g>
			<defs>
				<path id="SVGID_00000030488531808825251510000008913082502018664324_" d="M24.2,8.04c0.32,0.43,0.95,1.54,1.26,1.97
					c0.61,0.84,0.86,1.81,1.8,2.28c0.45,0.22,1.05,0.35,1.54,0.46c0.5,0.11,0.83,0.33,1.06,0.78c0.27,0.52,0.37,1.04,0.05,1.9
					c-0.12,0.34-0.72,1.05-2.37,1.22c-0.45,0.04-1.13,0.1-1.97,0.05c-1.04-0.06-0.97-0.09-2.01-0.09c-0.72,0-0.72-0.03-1-0.68
					c-0.19-0.43-0.47-2.04-0.69-2.77c-0.08-0.26-1-4.1-1.16-4.66c-0.12-0.44-0.25-0.89-0.37-1.33c-0.07-0.24-0.13-0.51-0.02-0.74
					c0.17-0.34,0.62-0.41,1-0.43c0.27-0.01,0.53-0.03,0.8-0.04c0.11-0.01,0.22-0.01,0.32,0.02c0.13,0.04,0.06,0.33,0.15,0.42
					C23.33,7.13,23.59,7.22,24.2,8.04z"/>
			</defs>
			<clipPath id="SVGID_00000022539065084086723620000016502666003432378259_">
				<use xlink:href="#SVGID_00000030488531808825251510000008913082502018664324_"  style="overflow:visible;"/>
			</clipPath>
			<g style="clip-path:url(#SVGID_00000022539065084086723620000016502666003432378259_);">
				<g>
					<path class="st3" d="M20.62,6.46c1.03,0.78,0.51,1.39,0.52,2.28c0,0.19,0.15,0.52,0.32,0.61c1.48,0.79,0.29,2.07,0.56,3.25
						c0.08,0.34,0.52,0.76,0.71,1.03c0.63,0.88,0.4,1.6,0.18,2.53c-0.17,0.71,0.21,1.4,0.8,1.78c0.07,0.05,0.18-0.03,0.15-0.11
						c-0.24-0.66-0.64-1.08-0.46-1.86c0.09-0.41,0.33-0.81,0.24-1.25c-0.12-0.59-0.37-1.06-0.74-1.55c-0.41-0.55-0.68-0.6-0.52-1.51
						c0.06-0.32,0.21-0.61,0.24-0.94c0.1-1.21-1.32-1.69-1.07-2.82c0.16-0.7-0.15-1.45-0.9-1.55C20.6,6.37,20.59,6.43,20.62,6.46
						L20.62,6.46z"/>
				</g>
			</g>
			<g style="clip-path:url(#SVGID_00000022539065084086723620000016502666003432378259_);">
				<g>
					<path class="st3" d="M21.87,6.37c0.43,0.08-0.12,1.74,0.32,2.17c0.58,0.57,1.3,1.02,1,2.02c-0.12,0.42-0.32,0.88-0.21,1.33
						c0.35,1.35,1.64,1.77,1.22,3.42c-0.2,0.79-0.54,1.67,0.22,2.25c0.06,0.05,0.13-0.04,0.1-0.1c-0.67-1.22,0.46-2.46-0.02-3.76
						c-0.12-0.34-0.41-0.63-0.64-0.9c-0.69-0.8-0.55-1.51-0.28-2.46c0.23-0.81-0.23-1.26-0.85-1.68c-1.03-0.7,0.09-1.89-0.68-2.44
						c-0.03-0.02-0.07-0.02-0.1,0c-0.03,0.02-0.07,0.04-0.1,0.05C21.81,6.29,21.82,6.36,21.87,6.37L21.87,6.37z"/>
				</g>
			</g>
			<g style="clip-path:url(#SVGID_00000022539065084086723620000016502666003432378259_);">
				<g>
					<path class="st3" d="M22.99,6.16c-0.58,0.45-0.09,1.27,0.23,1.74c0.33,0.49,0.81,0.72,1.01,1.33c0.25,0.77-0.29,1.4-0.2,2.14
						c0.17,1.42,2.01,1.73,1.44,3.44c-0.41,1.22-1.07,2.03-0.35,3.31c0.03,0.05,0.13,0.03,0.12-0.03c-0.06-0.83-0.21-1.5,0.25-2.29
						c0.27-0.47,0.48-0.92,0.58-1.46c0.14-0.75-0.43-1.42-0.89-1.94c-0.55-0.63-0.81-1.22-0.52-2.03c0.15-0.39,0.06-0.85-0.02-1.25
						c-0.21-1.04-2.11-1.61-1.54-2.87C23.14,6.18,23.06,6.11,22.99,6.16L22.99,6.16z"/>
				</g>
			</g>
			<g style="clip-path:url(#SVGID_00000022539065084086723620000016502666003432378259_);">
				<g>
					<path class="st3" d="M25.69,9.33c-1,1.24-0.18,2.62,0.78,3.53c1.29,1.22,0.11,2.35-0.39,3.56c-0.24,0.58-0.24,1.38,0.34,1.73
						c0.07,0.04,0.18-0.03,0.14-0.11c-0.71-1.74,1.25-2.78,0.81-4.54c-0.13-0.52-0.64-0.92-1.02-1.26c-0.87-0.8-0.82-1.78-0.53-2.83
						C25.84,9.33,25.74,9.26,25.69,9.33L25.69,9.33z"/>
				</g>
			</g>
			<g style="clip-path:url(#SVGID_00000022539065084086723620000016502666003432378259_);">
				<g>
					<path class="st3" d="M26.75,11.49c0.06,0.47,0.28,0.78,0.62,1.12c0.77,0.77,1.15,1.49,0.55,2.5c-0.41,0.69-1.12,1.47-0.54,2.26
						c0.05,0.06,0.15,0.05,0.15-0.04c0-0.73,0.22-1.21,0.62-1.81c0.22-0.32,0.49-0.73,0.5-1.13c0.04-1.45-1.13-1.8-1.8-2.92
						C26.82,11.42,26.74,11.44,26.75,11.49L26.75,11.49z"/>
				</g>
			</g>
			<g style="clip-path:url(#SVGID_00000022539065084086723620000016502666003432378259_);">
				<g>
					<path class="st3" d="M28.45,12.02c0.55,0.76,1.05,1.34,0.8,2.34c-0.16,0.67-0.65,1.18-0.78,1.87
						c-0.12,0.63,0.06,1.41,0.73,1.61c0.08,0.02,0.15-0.08,0.08-0.14c-1.19-1.05,0.13-2.4,0.38-3.54c0.21-0.96-0.44-1.64-1.12-2.2
						C28.5,11.92,28.41,11.97,28.45,12.02L28.45,12.02z"/>
				</g>
			</g>
		</g>
		<g>
			<path class="st4" d="M23.15,7.26c0.08,0.02,0.16,0.03,0.23,0c0.06-0.03,0.1-0.09,0.14-0.14c0.37-0.56,0.56-1.08,0.9-1.64
				c0.06-0.09,0.01-0.21-0.09-0.24c-3.22-0.9-7.76-0.67-10.34-0.09c-0.07,0.02-0.14,0.04-0.18,0.1c-0.08,0.11,0,0.25,0.08,0.36
				c0.27,0.38,0.55,0.77,0.82,1.15c0.07,0.1,0.14,0.2,0.25,0.24C15.06,7.03,21.55,6.95,23.15,7.26z"/>
		</g>
		<g>
			<g>
				<path class="st3" d="M15.25,6.38c0.27,0,0.5-0.22,0.5-0.49c0-0.27-0.23-0.49-0.5-0.49c-0.27,0-0.5,0.22-0.5,0.49
					C14.75,6.15,14.98,6.38,15.25,6.38L15.25,6.38z"/>
			</g>
		</g>
		<g>
			<g>
				<path class="st3" d="M16.84,6.26c0.22,0.15,0.59,0.11,0.76-0.1c0.13-0.16,0.2-0.32,0.14-0.53c-0.05-0.19-0.2-0.32-0.38-0.38
					c-0.22-0.07-0.47,0-0.63,0.16C16.47,5.67,16.56,6.06,16.84,6.26L16.84,6.26z"/>
			</g>
		</g>
		<g>
			<g>
				<path class="st3" d="M19.66,6.13c0-0.01,0.01-0.01,0.01-0.02c0.17-0.33,0.03-0.75-0.35-0.86c-0.35-0.09-0.78,0.18-0.75,0.56
					c0,0.01,0,0.02,0,0.02c0.02,0.26,0.16,0.48,0.43,0.55C19.24,6.46,19.54,6.35,19.66,6.13L19.66,6.13z"/>
			</g>
		</g>
		<g>
			<g>
				<path class="st3" d="M21.17,6.42c0.29,0,0.53-0.24,0.53-0.52c0-0.28-0.24-0.52-0.53-0.52c-0.29,0-0.53,0.24-0.53,0.52
					C20.64,6.19,20.88,6.42,21.17,6.42L21.17,6.42z"/>
			</g>
		</g>
		<g>
			<g>
				<path class="st3" d="M23.04,6.54c0.22,0,0.41-0.18,0.41-0.41c0-0.22-0.19-0.41-0.41-0.41c-0.23,0-0.41,0.18-0.41,0.41
					C22.63,6.36,22.82,6.54,23.04,6.54L23.04,6.54z"/>
			</g>
		</g>
		<g>
			<g>
				<path class="st3" d="M16.76,3.02c-0.01,0.12-0.09,0.25-0.04,0.37c0.03,0.08,0.13,0.1,0.18,0.02c0.07-0.12,0.04-0.28,0.01-0.41
					C16.89,2.91,16.77,2.94,16.76,3.02L16.76,3.02z"/>
			</g>
		</g>
		<g>
			<g>
				<path class="st3" d="M18.24,3.76c-0.05,0.09-0.04,0.15-0.05,0.25c0,0.15,0.24,0.14,0.23,0c-0.01-0.1-0.02-0.17-0.07-0.25
					C18.32,3.72,18.26,3.72,18.24,3.76L18.24,3.76z"/>
			</g>
		</g>
		<g>
			<g>
				<path class="st3" d="M17.92,1.75c-0.05,0.16-0.09,0.32-0.07,0.49c0.02,0.11,0.21,0.11,0.22,0c0.02-0.17-0.01-0.33-0.07-0.49
					C18,1.7,17.94,1.7,17.92,1.75L17.92,1.75z"/>
			</g>
		</g>
		<g>
			<g>
				<path class="st3" d="M19.29,2.58c-0.02,0.13-0.07,0.32,0.05,0.41c0.03,0.02,0.06,0,0.08-0.02c0.07-0.1,0-0.28-0.02-0.39
					C19.39,2.53,19.3,2.53,19.29,2.58L19.29,2.58z"/>
			</g>
		</g>
		<g>
			<g>
				<path class="st3" d="M20.16,1.8c-0.06,0.11-0.07,0.22-0.04,0.35c0.03,0.15,0.28,0.12,0.27-0.04c0-0.05-0.01-0.09-0.03-0.14
					c-0.02-0.06-0.07-0.1-0.09-0.16C20.25,1.76,20.19,1.75,20.16,1.8L20.16,1.8z"/>
			</g>
		</g>
		<g>
			<g>
				<path class="st3" d="M20.47,3.98c-0.02,0.09-0.04,0.19-0.04,0.28c0.01,0.14,0.23,0.14,0.22,0c0-0.1-0.04-0.19-0.06-0.28
					C20.58,3.92,20.48,3.92,20.47,3.98L20.47,3.98z"/>
			</g>
		</g>
		<g>
			<g>
				<path class="st3" d="M21.26,2.97c0,0.02-0.02,0.04-0.03,0.06c-0.01,0.04-0.02,0.09-0.02,0.13c0,0.09,0,0.18,0.07,0.25
					c0.06,0.05,0.16,0.05,0.2-0.02c0.04-0.08,0.03-0.17,0.01-0.26c-0.02-0.09-0.07-0.13-0.13-0.19C21.32,2.9,21.27,2.92,21.26,2.97
					L21.26,2.97z"/>
			</g>
		</g>
		<g>
			<g>
				<path class="st3" d="M22.02,4.17c0.01,0.13-0.04,0.29,0.04,0.4c0.07,0.1,0.25,0.04,0.21-0.09c-0.02-0.06-0.05-0.11-0.09-0.17
					c-0.03-0.05-0.06-0.11-0.09-0.17C22.08,4.12,22.02,4.13,22.02,4.17L22.02,4.17z"/>
			</g>
		</g>
		<g>
			<g>
				<path class="st3" d="M15.93,4.16c-0.02,0.14-0.11,0.36,0.02,0.47c0.02,0.02,0.06,0.02,0.08,0c0.12-0.11,0.04-0.33,0.02-0.47
					C16.03,4.1,15.94,4.1,15.93,4.16L15.93,4.16z"/>
			</g>
		</g>
		<g>
			<g>
				<path class="st6" d="M15.27,6.03c0.2,0,0.2-0.31,0-0.31C15.06,5.72,15.06,6.03,15.27,6.03L15.27,6.03z"/>
			</g>
		</g>
		<g>
			<g>
				<path class="st6" d="M17.18,5.88c0.18,0,0.18-0.27,0-0.27C17.01,5.61,17.01,5.88,17.18,5.88L17.18,5.88z"/>
			</g>
		</g>
		<g>
			<g>
				<path class="st6" d="M19.18,6.04c0.25,0,0.25-0.38,0-0.38S18.93,6.04,19.18,6.04L19.18,6.04z"/>
			</g>
		</g>
		<g>
			<g>
				<path class="st6" d="M21.19,6.09c0.23,0,0.23-0.35,0-0.35C20.96,5.73,20.96,6.09,21.19,6.09L21.19,6.09z"/>
			</g>
		</g>
		<g>
			<g>
				<path class="st6" d="M23.03,6.31c0.23,0,0.23-0.35,0-0.35C22.8,5.96,22.8,6.31,23.03,6.31L23.03,6.31z"/>
			</g>
		</g>
		<g>
			<g>
				<path class="st6" d="M14.94,20.21c-0.52,1.21-0.84,2.7-1.8,3.68c-0.56,0.57,0.33,1.44,0.88,0.87c1.02-1.05,1.43-3.12,1.23-4.5
					C15.23,20.11,15,20.08,14.94,20.21L14.94,20.21z"/>
			</g>
		</g>
		<g>
			<g>
				<path class="st6" d="M19.22,20.27c-0.36,1.44-0.35,3.42,0.3,4.78c0.33,0.69,1.33,0.09,1.02-0.59c-0.56-1.24-0.79-2.8-0.94-4.14
					C19.58,20.12,19.28,20.05,19.22,20.27L19.22,20.27z"/>
			</g>
		</g>
		<g>
			<g>
				<path class="st6" d="M22.65,19.55c-0.1,0.93,0.26,1.81,0.69,2.63c0.32,0.62,1.04,1.98,1.88,1.89c0.27-0.03,0.44-0.19,0.46-0.46
					c0.05-0.66-0.81-1.3-1.19-1.79c-0.56-0.74-0.97-1.57-1.41-2.38C22.96,19.21,22.67,19.34,22.65,19.55L22.65,19.55z"/>
			</g>
		</g>
		<g>
			<g>
				<path class="st3" d="M13.3,13.68c0.46-0.01,0.96,0.04,1.4-0.1c0.31-0.09,0.62-0.42,0.55-0.76c-0.06-0.31-0.31-0.54-0.63-0.58
					c-0.22-0.03-0.76,0.17-0.55,0.47c0.02,0.03,0.06,0.05,0.1,0.04c0.19-0.03,0.24-0.22,0.47-0.19c0.37,0.06,0.45,0.4,0.21,0.66
					c-0.37,0.41-1.12,0.13-1.57,0.41C13.27,13.65,13.28,13.68,13.3,13.68L13.3,13.68z"/>
			</g>
		</g>
		<g>
			<g>
				<path class="st3" d="M16.94,19.91c-0.24,0.7-0.39,1.39-0.49,2.12c-0.09,0.67-0.29,1.37-0.2,2.05c0.07,0.53,0.94,0.78,1.05,0.14
					c0.25-1.4,0.05-2.84,0.06-4.25C17.37,19.72,17.01,19.69,16.94,19.91L16.94,19.91z"/>
			</g>
		</g>
		<g>
			<g>
				<path class="st3" d="M13.84,19.9c-0.48,1.21-1.8,2.11-2.74,2.97c-0.52,0.47,0.24,1.2,0.77,0.75c0.9-0.76,2.82-2.35,2.3-3.72
					C14.11,19.74,13.9,19.74,13.84,19.9L13.84,19.9z"/>
			</g>
		</g>
		<g>
			<g>
				<path class="st3" d="M20.62,19.48c-0.19,1.07,0.05,2.08,0.33,3.12c0.19,0.7,0.53,1.89,1.26,2.19c0.62,0.25,0.93-0.59,0.59-1
					c-0.34-0.41-0.57-1.14-0.8-1.63c-0.42-0.86-0.72-1.76-0.96-2.68C20.99,19.28,20.65,19.27,20.62,19.48L20.62,19.48z"/>
			</g>
		</g>
		<g>
			<g>
				<path class="st3" d="M24.38,19.77c-0.12,0.87,0.48,1.48,1.07,2.05c0.52,0.5,0.95,1.26,1.74,1.32c0.76,0.06,0.78-1.19,0-1.18
					c-0.28,0.01-0.73-0.56-0.95-0.72c-0.44-0.33-1.38-0.87-1.44-1.48C24.76,19.51,24.42,19.51,24.38,19.77L24.38,19.77z"/>
			</g>
		</g>
		<g>
			<g>
				<path class="st3" d="M19.41,21.81c0.31,0,0.31-0.47,0-0.47C19.1,21.33,19.1,21.81,19.41,21.81L19.41,21.81z"/>
			</g>
		</g>
		<g>
			<g>
				<path class="st3" d="M19.49,22.88c0.35,0,0.35-0.53,0-0.53C19.14,22.34,19.14,22.88,19.49,22.88L19.49,22.88z"/>
			</g>
		</g>
		<g>
			<g>
				<path class="st3" d="M19.81,23.78C19.82,23.77,19.82,23.77,19.81,23.78c0.12-0.11,0.12-0.29,0.01-0.4c0,0,0,0-0.01-0.01
					c-0.18-0.17-0.49-0.05-0.49,0.2C19.32,23.83,19.63,23.95,19.81,23.78L19.81,23.78z"/>
			</g>
		</g>
		<g>
			<g>
				<path class="st3" d="M19.8,24.37c0,0-0.01,0.01-0.01,0.01c-0.08,0.07-0.08,0.2,0,0.27c0,0,0.01,0.01,0.01,0.01
					c0.13,0.12,0.36,0.04,0.36-0.15C20.16,24.33,19.94,24.24,19.8,24.37L19.8,24.37z"/>
			</g>
		</g>
		<g>
			<g>
				<path class="st3" d="M23.07,20.52c0.29,0,0.29-0.44,0-0.44C22.78,20.08,22.78,20.52,23.07,20.52L23.07,20.52z"/>
			</g>
		</g>
		<g>
			<g>
				<path class="st3" d="M23.38,21.39c0.34,0,0.34-0.51,0-0.51C23.05,20.88,23.05,21.39,23.38,21.39L23.38,21.39z"/>
			</g>
		</g>
		<g>
			<g>
				<path class="st3" d="M23.9,22.34c0.19,0,0.34-0.15,0.34-0.34c0-0.18-0.15-0.33-0.34-0.33c-0.18,0-0.34,0.15-0.34,0.33
					C23.56,22.19,23.71,22.34,23.9,22.34L23.9,22.34z"/>
			</g>
		</g>
		<g>
			<g>
				<path class="st3" d="M24.54,23.1c0.17,0,0.31-0.14,0.31-0.31s-0.14-0.31-0.31-0.31c-0.17,0-0.31,0.14-0.31,0.31
					S24.36,23.1,24.54,23.1L24.54,23.1z"/>
			</g>
		</g>
		<g>
			<g>
				<path class="st3" d="M25.08,23.59c0.3,0,0.3-0.45,0-0.45C24.78,23.14,24.78,23.59,25.08,23.59L25.08,23.59z"/>
			</g>
		</g>
		<g>
			<g>
				<path class="st3" d="M14.94,21.48c0.29,0,0.29-0.44,0-0.44C14.65,21.04,14.65,21.48,14.94,21.48L14.94,21.48z"/>
			</g>
		</g>
		<g>
			<g>
				<path class="st3" d="M14.75,22.43c0.36,0,0.36-0.55,0-0.55C14.39,21.88,14.39,22.43,14.75,22.43L14.75,22.43z"/>
			</g>
		</g>
		<g>
			<g>
				<path class="st3" d="M14.42,23.32c0.38,0,0.38-0.58,0-0.58C14.04,22.74,14.04,23.32,14.42,23.32L14.42,23.32z"/>
			</g>
		</g>
		<g>
			<g>
				<path class="st3" d="M14,24.04c0.31,0,0.31-0.48,0-0.48C13.69,23.56,13.69,24.04,14,24.04L14,24.04z"/>
			</g>
		</g>
		<g>
			<g>
				<path class="st3" d="M13.52,24.67c0.23,0,0.23-0.35,0-0.35C13.28,24.31,13.28,24.67,13.52,24.67L13.52,24.67z"/>
			</g>
		</g>
		<g>
			<g>
				<path class="st10" d="M26.21,32.53c0.09,0.1,0.2,0.19,0.32,0.27c0.08,0.05,0.22,0.17,0.31,0.09c0.1-0.09-0.1-0.18-0.16-0.21
					c-0.13-0.07-0.26-0.16-0.36-0.26C26.25,32.35,26.15,32.46,26.21,32.53L26.21,32.53z"/>
			</g>
		</g>
		<g>
			<g>
				<path class="st10" d="M28.71,34.34c0.09,0.1,0.2,0.19,0.32,0.27c0.08,0.05,0.22,0.17,0.31,0.08c0.1-0.09-0.1-0.18-0.16-0.21
					c-0.13-0.07-0.26-0.16-0.36-0.26C28.74,34.16,28.64,34.27,28.71,34.34L28.71,34.34z"/>
			</g>
		</g>
		<g>
			<g>
				<path class="st10" d="M18,32.51c0.09,0.11,0.2,0.19,0.32,0.28c0.08,0.05,0.22,0.17,0.31,0.08c0.1-0.09-0.1-0.18-0.15-0.21
					c-0.14-0.07-0.26-0.16-0.36-0.26C18.03,32.33,17.93,32.44,18,32.51L18,32.51z"/>
			</g>
		</g>
		<g>
			<g>
				<path class="st10" d="M32.69,32.73c0.09,0.11,0.2,0.19,0.32,0.28c0.08,0.05,0.22,0.17,0.31,0.08c0.1-0.09-0.1-0.18-0.16-0.21
					c-0.13-0.07-0.26-0.16-0.36-0.26C32.73,32.56,32.62,32.66,32.69,32.73L32.69,32.73z"/>
			</g>
		</g>
		<g>
			<g>
				<path class="st10" d="M23.6,32.56c-0.08,0.19-0.1,0.4-0.07,0.6c0.02,0.14,0.24,0.1,0.24-0.03c0-0.19-0.04-0.4-0.11-0.57
					C23.65,32.54,23.61,32.54,23.6,32.56L23.6,32.56z"/>
			</g>
		</g>
		<g>
			<g>
				<path class="st10" d="M15.59,30.5c-0.08,0.19-0.1,0.4-0.07,0.6c0.02,0.14,0.24,0.1,0.24-0.03c0-0.19-0.04-0.4-0.11-0.57
					C15.63,30.47,15.6,30.47,15.59,30.5L15.59,30.5z"/>
			</g>
		</g>
		<g>
			<g>
				<path class="st10" d="M7.69,26.21c-0.08,0.19-0.1,0.4-0.07,0.6c0.02,0.14,0.24,0.1,0.24-0.03c0-0.19-0.04-0.4-0.11-0.57
					C7.74,26.18,7.71,26.18,7.69,26.21L7.69,26.21z"/>
			</g>
		</g>
		<g>
			<g>
				<path class="st10" d="M21.55,33.07c-0.08,0.19-0.1,0.4-0.07,0.6c0.02,0.14,0.24,0.1,0.24-0.03c0-0.19-0.04-0.4-0.11-0.57
					C21.59,33.04,21.56,33.04,21.55,33.07L21.55,33.07z"/>
			</g>
		</g>
		<g>
			<g>
				<path class="st10" d="M22.98,27.93c0.1-0.03,0.22-0.03,0.33-0.04c0.09-0.01,0.23,0,0.27-0.1c0.01-0.02,0-0.04-0.01-0.05
					c-0.08-0.07-0.22-0.02-0.31-0.01c-0.12,0.02-0.23,0.03-0.32,0.12C22.9,27.88,22.93,27.95,22.98,27.93L22.98,27.93z"/>
			</g>
		</g>
		<g>
			<g>
				<path class="st10" d="M10.74,27.65c0.1-0.03,0.22-0.03,0.33-0.04c0.09-0.01,0.23,0,0.27-0.1c0.01-0.02,0-0.04-0.01-0.05
					c-0.07-0.07-0.22-0.02-0.31-0.01c-0.12,0.02-0.23,0.03-0.32,0.12C10.66,27.6,10.69,27.66,10.74,27.65L10.74,27.65z"/>
			</g>
		</g>
		<g>
			<g>
				<path class="st10" d="M16.37,26.44c0.1-0.03,0.22-0.03,0.33-0.04c0.09-0.01,0.23,0,0.27-0.1c0.01-0.02,0-0.04-0.01-0.05
					c-0.07-0.07-0.22-0.02-0.31-0.01c-0.12,0.02-0.23,0.03-0.32,0.12C16.28,26.39,16.32,26.46,16.37,26.44L16.37,26.44z"/>
			</g>
		</g>
		<g>
			<g>
				<path class="st10" d="M23.62,29.37c0.1,0.02,0.21,0.08,0.3,0.13c0.08,0.04,0.2,0.11,0.28,0.05c0.02-0.01,0.02-0.04,0.02-0.05
					c-0.03-0.1-0.17-0.13-0.26-0.16c-0.11-0.05-0.22-0.09-0.34-0.06C23.57,29.29,23.57,29.36,23.62,29.37L23.62,29.37z"/>
			</g>
		</g>
		<g>
			<g>
				<path class="st10" d="M31.14,35.71c0.1,0.02,0.21,0.08,0.3,0.13c0.08,0.04,0.2,0.11,0.28,0.05c0.02-0.01,0.02-0.04,0.02-0.05
					c-0.03-0.1-0.17-0.13-0.26-0.17c-0.11-0.05-0.22-0.09-0.34-0.06C31.09,35.63,31.09,35.7,31.14,35.71L31.14,35.71z"/>
			</g>
		</g>
		<g>
			<g>
				<path class="st10" d="M8.81,22.66c0.1-0.04,0.22-0.04,0.32-0.05c0.09-0.01,0.23-0.02,0.26-0.12c0.01-0.02,0-0.04-0.02-0.05
					c-0.08-0.06-0.22-0.01-0.31,0c-0.12,0.02-0.23,0.04-0.31,0.14C8.72,22.61,8.76,22.68,8.81,22.66L8.81,22.66z"/>
			</g>
		</g>
		<g>
			<g>
				<path class="st10" d="M30.96,34.15c0.1,0.02,0.21,0.08,0.3,0.13c0.08,0.04,0.2,0.11,0.28,0.05c0.01-0.01,0.02-0.04,0.02-0.05
					c-0.03-0.1-0.18-0.13-0.26-0.16c-0.11-0.05-0.22-0.09-0.34-0.06C30.91,34.06,30.9,34.14,30.96,34.15L30.96,34.15z"/>
			</g>
		</g>
		<g>
			<g>
				<path class="st10" d="M29.24,32.97c0.1,0.02,0.21,0.08,0.3,0.13c0.08,0.04,0.2,0.11,0.28,0.05c0.02-0.01,0.02-0.04,0.02-0.05
					c-0.03-0.1-0.18-0.13-0.26-0.16c-0.11-0.05-0.22-0.09-0.34-0.06C29.19,32.88,29.18,32.95,29.24,32.97L29.24,32.97z"/>
			</g>
		</g>
		<g>
			<g>
				<path class="st10" d="M24.29,31.42c0.05,0.1,0.17,0.1,0.26,0.08c0.07-0.01,0.14-0.04,0.21-0.07c0.08-0.02,0.16-0.03,0.23-0.08
					c0.06-0.04,0.08-0.14,0-0.17c-0.12-0.05-0.24,0-0.36,0.05c-0.11,0.05-0.22,0.09-0.33,0.15C24.29,31.39,24.28,31.41,24.29,31.42
					L24.29,31.42z"/>
			</g>
		</g>
		<g>
			<g>
				<path class="st10" d="M9.82,26.02c0.05,0.1,0.17,0.1,0.26,0.08c0.07-0.01,0.14-0.04,0.21-0.07c0.08-0.02,0.16-0.03,0.23-0.08
					c0.06-0.04,0.07-0.14,0-0.17c-0.13-0.05-0.24,0-0.36,0.05c-0.12,0.05-0.22,0.09-0.33,0.15C9.82,25.99,9.82,26,9.82,26.02
					L9.82,26.02z"/>
			</g>
		</g>
		<g>
			<g>
				<path class="st10" d="M14.1,27.74c0.05,0.1,0.17,0.1,0.26,0.08c0.07-0.01,0.14-0.04,0.21-0.06c0.08-0.02,0.16-0.03,0.23-0.08
					c0.06-0.04,0.07-0.14,0-0.17c-0.13-0.05-0.24,0-0.36,0.05c-0.11,0.05-0.22,0.09-0.33,0.15C14.1,27.71,14.1,27.73,14.1,27.74
					L14.1,27.74z"/>
			</g>
		</g>
		<g>
			<g>
				<path class="st10" d="M20.55,27.28c0.05,0.1,0.17,0.1,0.26,0.09c0.07-0.01,0.14-0.04,0.21-0.07c0.08-0.02,0.16-0.03,0.23-0.08
					c0.05-0.04,0.07-0.14,0-0.17c-0.13-0.05-0.24,0-0.36,0.05c-0.12,0.05-0.22,0.09-0.33,0.15C20.54,27.25,20.54,27.27,20.55,27.28
					L20.55,27.28z"/>
			</g>
		</g>
		<g>
			<g>
				<path class="st10" d="M7.65,24.7c0.05,0.1,0.17,0.1,0.26,0.08c0.07-0.01,0.14-0.04,0.21-0.07c0.08-0.02,0.16-0.03,0.23-0.08
					c0.05-0.04,0.07-0.14,0-0.17c-0.13-0.05-0.24,0-0.36,0.05c-0.12,0.05-0.23,0.09-0.33,0.15C7.65,24.68,7.65,24.69,7.65,24.7
					L7.65,24.7z"/>
			</g>
		</g>
		<g>
			<g>
				<g>
					<path class="st3" d="M25.02,23.7c0.08,0.06,0.15,0.13,0.23,0.19c0.06,0.05,0.12,0.13,0.21,0.11c0.04-0.01,0.06-0.03,0.06-0.07
						c0-0.09-0.09-0.13-0.16-0.18c-0.08-0.06-0.16-0.12-0.24-0.17C25.03,23.52,24.94,23.64,25.02,23.7L25.02,23.7z"/>
				</g>
			</g>
			<g>
				<g>
					<path class="st3" d="M27.67,24.51c0.04-0.1,0.09-0.19,0.14-0.28c0.05-0.08,0.09-0.16,0.04-0.26c-0.01-0.03-0.05-0.05-0.08-0.03
						c-0.09,0.05-0.11,0.12-0.15,0.21c-0.04,0.11-0.07,0.21-0.09,0.32C27.52,24.54,27.64,24.58,27.67,24.51L27.67,24.51z"/>
				</g>
			</g>
			<g>
				<g>
					<path class="st3" d="M26.89,26.22c0.12-0.04,0.23-0.07,0.35-0.1c0.1-0.03,0.24-0.08,0.32-0.14c0.09-0.07,0.06-0.23-0.06-0.24
						c-0.28-0.04-0.47,0.24-0.68,0.36C26.73,26.13,26.81,26.25,26.89,26.22L26.89,26.22z"/>
				</g>
			</g>
			<g>
				<g>
					<path class="st3" d="M34.29,27.69c0.05-0.13,0.1-0.25,0.16-0.38c0.05-0.1,0.1-0.21,0.06-0.32c-0.01-0.04-0.06-0.05-0.1-0.04
						c-0.12,0.03-0.17,0.16-0.21,0.27c-0.04,0.13-0.08,0.26-0.12,0.39C34.04,27.74,34.23,27.83,34.29,27.69L34.29,27.69z"/>
				</g>
			</g>
			<g>
				<path class="st6" d="M26.22,22.69c-0.78,0.83-1.71,1.62-2.03,2.71c-0.19,0.66-0.08,1.37,0.09,2.04c0.2,0.77,0.48,1.54,0.92,2.2
					c0.45,0.66,1.42,1.56,2.17,1.85c1.14,0.45,2.32,0.73,3.53,0.6c1.42-0.15,2.66-1.29,3.28-2.56c0.63-1.26,1.04-3.11,0.58-4.44
					c-0.05-0.15-0.11-0.3-0.16-0.45c-0.58-1.53-2.05-2.85-3.62-3.37C29.89,20.9,28.29,20.47,26.22,22.69z"/>
			</g>
			<g>
				<path class="st11" d="M24.01,25.62c-0.01,0.73,0.09,1.38,0.46,1.88c0.79,1.05,2.3,2.13,3.39,2.88c0.09,0.06,0.19,0.12,0.29,0.14
					c0.11,0.01,0.23-0.03,0.27-0.14c0-0.01,0.01-0.03,0.01-0.04c0.03-0.23-0.06-0.45-0.2-0.64c-0.88-1.19-1.25-1.22-2.4-2.82
					c-0.32-0.45,0.37-0.71,0.61-0.49c0.79,0.75,1.2,1.17,1.99,1.92c0.37,0.35,0.92,0.74,1.39,0.93c0.18,0.07,0.44-0.25,0.38-0.44
					c-0.21-0.59-0.71-1.14-1.22-1.55c-0.51-0.4-1.5-1.04-1.78-1.57c-0.24-0.45,0.18-0.82,0.23-0.79c1.35,0.92,2.39,1.79,3.5,2.26
					c0.28,0.12,0.91-0.42-0.15-1.24c-1.23-0.96-1.81-1.14-2.74-2.02c-0.25-0.24,0.17-0.74,0.51-0.64c0.1,0.03,1.52,1.17,3,1.74
					c0.23,0.09,0.74,0.17,0.79-0.05c0.11-0.47-0.6-1.06-1.18-1.43c-0.63-0.4-1.6-1.11-2.27-1.43c-0.5-0.24-1.47-0.46-2.92,0.37
					c-0.59,0.34-1.05,0.81-1.38,1.4C24.24,24.43,24.02,24.94,24.01,25.62z"/>
			</g>
			<g>
				<g>
					<path class="st3" d="M33.42,25.9c0.14-0.18,0.11-0.45-0.07-0.59c-0.18-0.14-0.46-0.11-0.6,0.07c-0.15,0.18-0.11,0.45,0.07,0.59
						C33.01,26.12,33.28,26.08,33.42,25.9L33.42,25.9z"/>
				</g>
			</g>
			<g>
				<g>
					<path class="st3" d="M33.52,26.54c0.01,0.01,0.01,0.01,0.02,0.02c0.1,0.1,0.29,0.08,0.4,0.01c0.13-0.1,0.2-0.33,0.07-0.46
						c0-0.01-0.01-0.01-0.02-0.02c-0.12-0.13-0.31-0.19-0.47-0.07c-0.07,0.05-0.12,0.13-0.13,0.22
						C33.38,26.37,33.44,26.46,33.52,26.54L33.52,26.54z"/>
				</g>
			</g>
			<g>
				<g>
					<path class="st3" d="M34.45,27.1c0.15-0.19-0.15-0.42-0.3-0.23C33.99,27.06,34.29,27.29,34.45,27.1L34.45,27.1z"/>
				</g>
			</g>
			<g>
				<g>
					<path class="st3" d="M32.27,27.78c0.14-0.17,0.11-0.43-0.07-0.57c-0.18-0.14-0.44-0.11-0.58,0.07
						c-0.14,0.17-0.11,0.43,0.07,0.57C31.87,27.98,32.13,27.95,32.27,27.78L32.27,27.78z"/>
				</g>
			</g>
			<g>
				<g>
					<path class="st3" d="M33.03,28.34c0.26-0.33-0.25-0.73-0.52-0.4C32.26,28.26,32.77,28.66,33.03,28.34L33.03,28.34z"/>
				</g>
			</g>
			<g>
				<g>
					<path class="st3" d="M33.63,28.62c0.12-0.15-0.12-0.33-0.24-0.18C33.28,28.58,33.51,28.77,33.63,28.62L33.63,28.62z"/>
				</g>
			</g>
			<g>
				<g>
					<path class="st3" d="M30.72,29.1c-0.01,0-0.02,0.01-0.02,0.01c-0.13,0.07-0.23,0.16-0.25,0.31c-0.02,0.14,0.04,0.28,0.15,0.36
						c0.11,0.09,0.26,0.11,0.39,0.06c0.14-0.06,0.22-0.17,0.25-0.31c0-0.01,0-0.02,0.01-0.02C31.31,29.24,30.96,28.97,30.72,29.1
						L30.72,29.1z"/>
				</g>
			</g>
			<g>
				<g>
					<path class="st3" d="M31.87,30.02c0.09-0.11,0.07-0.28-0.04-0.37c-0.11-0.09-0.29-0.07-0.38,0.04
						c-0.09,0.11-0.07,0.28,0.04,0.37C31.61,30.15,31.78,30.13,31.87,30.02L31.87,30.02z"/>
				</g>
			</g>
			<g>
				<g>
					<path class="st3" d="M29.53,31.16c0.12-0.15,0.09-0.37-0.06-0.48c-0.15-0.12-0.37-0.09-0.49,0.06
						c-0.12,0.15-0.09,0.36,0.06,0.48C29.19,31.33,29.41,31.3,29.53,31.16L29.53,31.16z"/>
				</g>
			</g>
			<g>
				<g>
					<path class="st3" d="M30.3,31.36c0.18-0.23-0.18-0.5-0.36-0.28C29.77,31.31,30.12,31.58,30.3,31.36L30.3,31.36z"/>
				</g>
			</g>
			<g>
				<g>
					<path class="st3" d="M31.1,31.42c0.15-0.18-0.14-0.41-0.29-0.22C30.66,31.38,30.95,31.6,31.1,31.42L31.1,31.42z"/>
				</g>
			</g>
			<g>
				<g>
					<path class="st3" d="M26.41,24.99c0.25-0.12,0.42-0.21,0.54-0.48c0.12-0.27,0.07-0.6-0.04-0.86c-0.27-0.64-0.94-0.93-1.61-0.76
						c-0.65,0.17-1.06,0.96-1.07,1.58c-0.01,0.79,0.52,1.33,1.33,1.28c1.16-0.06,2.06-2.16,0.84-2.75
						c-0.76-0.37-1.46,0.22-1.65,0.94c-0.09,0.35-0.04,0.69,0.15,0.99c0.19,0.31,0.66,0.54,0.99,0.26c0.3-0.26,0.4-0.66,0.43-1.05
						c0.05-0.69-1.03-0.84-1.08-0.15c0,0.03,0,0.06-0.01,0.09c0.04-0.09,0.07-0.17,0.11-0.26c-0.09,0.14-0.11,0.24-0.11,0.4
						c0,0.63,0.99,0.6,1.08,0.01c0.01-0.03,0.01-0.06,0.01-0.09c-0.36-0.05-0.72-0.1-1.08-0.15c-0.01,0.12-0.03,0.24-0.05,0.35
						c0.02-0.09-0.03,0.07-0.03,0.07c0.11-0.26,0.76,0.18,0.64-0.13c-0.01-0.02,0.06-0.21,0.1-0.27c0-0.01,0.08-0.07,0.04-0.05
						c-0.04,0.02,0.09,0.03,0.01,0.01c-0.03-0.01-0.06-0.1-0.05-0.01c0.01,0.05-0.02,0.17-0.04,0.23c-0.05,0.15-0.09,0.21-0.16,0.31
						c-0.07,0.09-0.05,0.07-0.1,0.11c-0.03,0.02-0.06,0.05-0.09,0.06c0.05-0.02,0.04-0.02-0.01,0c0.09-0.04-0.01,0.01-0.06,0.01
						c-0.12,0-0.01,0.03-0.08-0.02c0.08,0.06-0.02-0.07-0.02-0.11c0-0.24,0.11-0.55,0.32-0.64c0.07-0.04,0.14-0.01,0.18,0
						c0.06,0.02,0.21,0.13,0.26,0.19c0.14,0.16,0.2,0.43,0.08,0.55C26.01,24.81,26.22,25.09,26.41,24.99L26.41,24.99z"/>
				</g>
			</g>
			<g>
				<g>
					<path class="st4" d="M25.81,24.46c0.24-0.3-0.23-0.67-0.47-0.37C25.1,24.4,25.57,24.76,25.81,24.46L25.81,24.46z"/>
				</g>
			</g>
			<g>
				<g>
					<path class="st4" d="M26.58,24.29c0.16-0.2-0.16-0.45-0.32-0.25C26.1,24.24,26.42,24.49,26.58,24.29L26.58,24.29z"/>
				</g>
			</g>
			<g>
				<g>
					<path class="st4" d="M26.16,23.66c0.15-0.18-0.14-0.4-0.29-0.22C25.72,23.62,26.01,23.84,26.16,23.66L26.16,23.66z"/>
				</g>
			</g>
			<g>
				<g>
					<path class="st4" d="M25.01,23.41c0,0-0.01,0.01-0.01,0.01c-0.09,0.09-0.08,0.21,0.03,0.27c0.01,0,0.01,0.01,0.02,0.01
						c0.12,0.07,0.25-0.06,0.24-0.18C25.27,23.42,25.11,23.32,25.01,23.41L25.01,23.41z"/>
				</g>
			</g>
			<g>
				<g>
					<path class="st4" d="M24.82,24.47c0.14-0.17-0.13-0.38-0.27-0.21C24.41,24.43,24.68,24.64,24.82,24.47L24.82,24.47z"/>
				</g>
			</g>
			<g>
				<g>
					<path class="st4" d="M25.13,25.19c0.13-0.16-0.13-0.36-0.26-0.2C24.74,25.16,25,25.36,25.13,25.19L25.13,25.19z"/>
				</g>
			</g>
			<g>
				<g>
					<path class="st4" d="M26.02,25.22c0.13-0.17-0.13-0.37-0.26-0.2C25.62,25.18,25.89,25.38,26.02,25.22L26.02,25.22z"/>
				</g>
			</g>
		</g>
		<g>
			<path class="st3" d="M20.86,59.43c-0.13,0.04-0.27-0.04-0.35-0.15c-0.17-0.22-0.17-0.53-0.16-0.81c0-0.03,0-0.07,0.03-0.08
				c0.02-0.02,0.04-0.02,0.07-0.02c0.17-0.01,0.34,0,0.5,0.03c0.08,0.19,0.12,0.4,0.13,0.6C21.08,59.16,21.03,59.37,20.86,59.43z"/>
		</g>
		<g>
			<path class="st4" d="M27.64,38.86c0.56-0.44,1.19-0.78,1.74-1.23c0.37-0.31,0.69-0.69,0.88-1.12c0.1-0.25-0.14-0.5-0.39-0.41
				c-0.35,0.13-0.71,0.17-1.02-0.01c-0.39-0.23-0.5-0.74-0.72-1.14c-0.44-0.81-1.49-1.25-2.38-1c-0.98,0.27-1.72,1.24-2.74,1.27
				c-1.21,0.04-2.15-1.28-3.36-1.21c-1.04,0.06-1.79,1.13-2.82,1.25c-1.15,0.13-2.29-0.96-3.37-0.56c-0.15,0.06-0.29,0.16-0.41,0.27
				c-1.35,1.25-0.92,1.93-2.72,1.5c-0.04-0.01-0.08-0.01-0.11,0.01c-0.76,0.44,1.85,2.43,3.03,3.43c1.1,0.92,1.98,2.17,2.17,3.58
				c0.11,0.81,0,1.72,0.53,2.35c0.06,0.08,0.14,0.15,0.23,0.21c0.48,0.29,1.06-0.1,1.52-0.41c1.56-1.07,3.48-1.51,5.36-1.81
				c0.83-0.14,1.67-0.26,2.46-0.56c0.15-0.06,0.27-0.17,0.32-0.32c0.08-0.24-0.13-0.31-0.2-0.46c-0.04-0.09-0.02-0.19-0.01-0.28
				C25.86,40.9,26.59,39.69,27.64,38.86z"/>
		</g>
		<g>
			<path class="st5" d="M23.04,54.26c0.75-0.48,1.89-1.11,2.2-1.94c0.31-0.83,0.51-1.69,0.93-2.47c0.39-0.73,0.95-1.36,1.47-2
				c0.27-0.33,0.54-0.8,0.3-1.16c-0.2-0.3-0.64-0.31-1-0.25c-0.36,0.06-0.75,0.17-1.07,0.01c0.08-0.97,0.12-1.86,0.2-2.82
				c0.03-0.4,0.06-0.82-0.07-1.2c-0.3-0.83-1.3-1.19-2.19-1.25c-1.91-0.12-3.78,0.71-5.27,1.88c-0.36,0.28-0.71,0.59-1.01,0.94
				c-0.52,0.62-0.87,1.35-1.22,2.08c-0.17,0.36-0.34,0.72-0.43,1.1c-0.1,0.44-0.09,0.89-0.05,1.34c0.08,1.08,0.28,2.16,0.74,3.15
				c0.46,0.98,1.18,1.87,2.14,2.39c0.54,0.3,1.15,0.47,1.76,0.57C21.52,54.79,22.13,54.83,23.04,54.26z"/>
		</g>
		<g>
			<path class="st6" d="M21.04,58.96c-0.45,0.05-0.9-0.01-1.33-0.14c-0.93-0.27-1.76-0.87-2.28-1.68c-0.52-0.81-0.71-1.82-0.5-2.75
				c2.37,0.49,4.85,0.48,7.21-0.04c0.12,1.02-0.05,2.09-0.59,2.96C23,58.19,22.07,58.85,21.04,58.96z"/>
		</g>
		<g>
			<path class="st3" d="M18.66,50.23c0,0,0.13-0.03,0.23-0.02c1.21,0.08,2.86,0.33,3.99,0.07c0.14-0.03,0.3-0.03,0.41-0.08
				c0.07-0.04,0.05-0.17,0.12-0.14c0.15,0.08,0.3,1.3,0.28,1.9c0,0.06-0.04,0.11-0.09,0.12c-0.45,0.13-1.11,0.11-1.57,0.08
				c-0.57-0.04-1.37-0.2-1.76-0.41C19.83,51.53,19.12,51.17,18.66,50.23z"/>
		</g>
		<g>
			<path class="st0" d="M23.45,50.11c0,0.01,0,0.03-0.01,0.04c-0.25,0.37-0.59,0.71-1.46,0.93c-1.2,0.31-2.48,0.05-3.32-0.84
				c1.25-0.64,2.13-0.72,4.16-0.4C23.03,49.87,23.38,49.92,23.45,50.11z"/>
		</g>
		<g>
			<path class="st2" d="M20.41,45.22c-0.07,0.04,0.14,0.34-0.33,0.43c-0.21,0.04-0.33-0.03-0.37-0.24
				c-0.05-0.27,0.21-0.72,0.57-0.94c0.36-0.22,0.67-0.35,1.09-0.32c1.16,0.06,2.3,0.51,3.19,1.25c0.31,0.26,0.95,0.78,1.11,0.72
				c0.16-0.05,0.46-0.44,1.04-1.19c0.36-0.46,0.94-1.02,1.52-1c0.29,0.01,0.51,0.16,0.63,0.42c0.12,0.26,0.08,0.55-0.15,0.71
				c-0.33,0.23-0.48-0.01-0.61-0.06c-0.08-0.03-0.03,0.22,0.01,0.29c0.32,0.5,0.92,0.35,1.26,0.11c0.34-0.23,0.49-0.61,0.57-1.02
				c0.06-0.32,0.02-0.69-0.1-0.99c-0.24-0.65-1.05-0.78-1.76-0.81c-0.89-0.04-1.7,0.44-1.98,1.08c-0.53,1.18-0.43,1.33-0.57,1.31
				c-0.09-0.01-0.23-0.9-0.42-1.23c-0.98-1.64-3.21-1.5-4.21-1.25c-1,0.25-1.7,0.84-2.06,1.79c-0.35,0.91-0.05,1.41,0.33,1.86
				c0.24,0.29,0.64,0.41,1.02,0.36c0.27-0.04,0.51-0.29,0.54-0.56C20.79,45.44,20.5,45.17,20.41,45.22z"/>
		</g>
		<g>
			<path class="st7" d="M15.24,52.16c-0.32-0.43-0.94-1.54-1.26-1.97c-0.61-0.84-0.86-1.81-1.79-2.28
				c-0.46-0.23-1.05-0.35-1.55-0.46c-0.5-0.11-0.83-0.33-1.06-0.78c-0.27-0.52-0.37-1.03-0.05-1.89c0.13-0.34,0.72-1.05,2.38-1.22
				c0.45-0.05,1.13-0.1,1.97-0.05c1.04,0.06,0.97,0.08,2.01,0.08c0.72,0,0.72,0.03,1,0.68c0.19,0.43,0.47,2.04,0.69,2.78
				c0.08,0.26,1,4.1,1.16,4.66c0.12,0.44,0.25,0.89,0.37,1.33c0.07,0.24,0.13,0.51,0.02,0.74c-0.17,0.34-0.62,0.41-1,0.43
				c-0.27,0.02-0.53,0.03-0.8,0.04c-0.11,0.01-0.22,0.01-0.32-0.02c-0.13-0.04-0.06-0.33-0.15-0.42
				C16.12,53.07,15.85,52.98,15.24,52.16z"/>
		</g>
		<g>
			<path class="st3" d="M21.29,49.85c-0.72-0.04-0.73,0.5-0.73,0.68c0.01,0.26,0.25,0.48,0.51,0.51c0.3,0.03,0.6-0.2,0.66-0.49
				C21.79,50.25,21.6,49.87,21.29,49.85z"/>
		</g>
		<g>
			<defs>
				<path id="SVGID_00000059270247545271188370000002748935075770176386_" d="M20.41,45.22c-0.07,0.04,0.14,0.34-0.33,0.43
					c-0.21,0.04-0.33-0.03-0.37-0.24c-0.05-0.27,0.21-0.72,0.57-0.94c0.36-0.22,0.67-0.35,1.09-0.32c1.16,0.06,2.3,0.51,3.19,1.25
					c0.31,0.26,0.95,0.78,1.11,0.72c0.16-0.05,0.46-0.44,1.04-1.19c0.36-0.46,0.94-1.02,1.52-1c0.29,0.01,0.51,0.16,0.63,0.42
					c0.12,0.26,0.08,0.55-0.15,0.71c-0.33,0.23-0.48-0.01-0.61-0.06c-0.08-0.03-0.03,0.22,0.01,0.29c0.32,0.5,0.92,0.35,1.26,0.11
					c0.34-0.23,0.49-0.61,0.57-1.02c0.06-0.32,0.02-0.69-0.1-0.99c-0.24-0.65-1.05-0.78-1.76-0.81c-0.89-0.04-1.7,0.44-1.98,1.08
					c-0.53,1.18-0.43,1.33-0.57,1.31c-0.09-0.01-0.23-0.9-0.42-1.23c-0.98-1.64-3.21-1.5-4.21-1.25c-1,0.25-1.7,0.84-2.06,1.79
					c-0.35,0.91-0.05,1.41,0.33,1.86c0.24,0.29,0.64,0.41,1.02,0.36c0.27-0.04,0.51-0.29,0.54-0.56
					C20.79,45.44,20.5,45.17,20.41,45.22z"/>
			</defs>
			<clipPath id="SVGID_00000052066083982151564870000014269602394692499590_">
				<use xlink:href="#SVGID_00000059270247545271188370000002748935075770176386_"  style="overflow:visible;"/>
			</clipPath>
			<g style="clip-path:url(#SVGID_00000052066083982151564870000014269602394692499590_);">
				<g>
					<path class="st3" d="M25.14,46.49c0.5,0.24,0.86-0.27,1.04-0.67c0.11-0.25,0.22-0.51,0.16-0.79c-0.15-0.8-0.38-1.3-0.02-2.09
						c0.02-0.04-0.03-0.08-0.06-0.05c-0.41,0.4-0.52,0.81-0.44,1.36c0.05,0.38,0.27,0.69,0.26,1.08c-0.02,0.55-0.3,1.08-0.93,1.11
						C25.13,46.45,25.12,46.48,25.14,46.49L25.14,46.49z"/>
				</g>
			</g>
			<g style="clip-path:url(#SVGID_00000052066083982151564870000014269602394692499590_);">
				<g>
					<path class="st3" d="M25.3,46.17c-0.49-0.92,0.14-1.33,0.15-2.21c0.01-0.59-0.25-1.24-0.7-1.63c-0.03-0.03-0.09,0-0.08,0.04
						c0.11,0.37,0.26,0.72,0.38,1.08c0.17,0.54-0.17,1.1-0.3,1.61c-0.13,0.5,0.09,0.87,0.47,1.16
						C25.27,46.26,25.33,46.22,25.3,46.17L25.3,46.17z"/>
				</g>
			</g>
			<g style="clip-path:url(#SVGID_00000052066083982151564870000014269602394692499590_);">
				<g>
					<path class="st3" d="M26.66,45.55c0.48-0.22,0.45-0.83,0.39-1.27c-0.08-0.52-0.18-1.05,0.21-1.49
						c0.28-0.32,0.72-0.26,1.06-0.43c0.09-0.05,0.05-0.17-0.03-0.2c-0.61-0.25-1.26,0.31-1.5,0.82c-0.15,0.31-0.12,0.67-0.08,1
						c0.08,0.58,0.13,0.94-0.17,1.46C26.52,45.51,26.59,45.58,26.66,45.55L26.66,45.55z"/>
				</g>
			</g>
			<g style="clip-path:url(#SVGID_00000052066083982151564870000014269602394692499590_);">
				<g>
					<path class="st3" d="M27.37,44.92c0.4-0.21,0.48-0.6,0.53-1.02c0.05-0.39,0.1-0.72,0.31-1.07c0.23-0.38,0.63-0.56,0.96-0.82
						c0.04-0.03,0-0.1-0.05-0.09c-0.56,0.12-1,0.61-1.25,1.08c-0.3,0.57-0.08,1.33-0.58,1.82C27.25,44.88,27.31,44.96,27.37,44.92
						L27.37,44.92z"/>
				</g>
			</g>
			<g style="clip-path:url(#SVGID_00000052066083982151564870000014269602394692499590_);">
				<g>
					<path class="st3" d="M27.99,44.68c0.53,0.06,0.65-0.71,0.82-1.05c0.33-0.65,1.09-0.76,1.72-0.89c0.06-0.01,0.07-0.08,0.03-0.12
						c-0.34-0.37-1.12,0.07-1.44,0.27c-0.24,0.15-0.42,0.35-0.56,0.59c-0.17,0.29-0.21,0.97-0.58,1.09
						C27.9,44.58,27.92,44.67,27.99,44.68L27.99,44.68z"/>
				</g>
			</g>
			<g style="clip-path:url(#SVGID_00000052066083982151564870000014269602394692499590_);">
				<g>
					<path class="st3" d="M28.54,44.92c0.3-0.51,0.87-0.57,1.32-0.89c0.31-0.22,0.69-0.64,0.69-1.03c0-0.05-0.07-0.08-0.11-0.04
						c-0.19,0.19-0.29,0.45-0.46,0.66c-0.2,0.23-0.46,0.37-0.74,0.49c-0.36,0.15-0.76,0.37-0.77,0.8
						C28.46,44.94,28.52,44.95,28.54,44.92L28.54,44.92z"/>
				</g>
			</g>
			<g style="clip-path:url(#SVGID_00000052066083982151564870000014269602394692499590_);">
				<g>
					<path class="st3" d="M27.95,45.09c0.39,0.34,0.9,0.5,1.41,0.27c0.7-0.3,0.94-0.99,1.57-1.37c0.06-0.04,0.04-0.13-0.04-0.13
						c-0.38-0.01-0.61,0.25-0.83,0.53c-0.57,0.75-1.17,0.92-2.1,0.66C27.95,45.06,27.94,45.08,27.95,45.09L27.95,45.09z"/>
				</g>
			</g>
			<g style="clip-path:url(#SVGID_00000052066083982151564870000014269602394692499590_);">
				<g>
					<path class="st3" d="M24.53,45.75c-0.15-0.09-0.22-0.63-0.27-0.79c-0.17-0.55-0.04-1.03,0.1-1.56
						c0.13-0.47-0.12-0.82-0.43-1.14c-0.05-0.06-0.14,0-0.13,0.07c0.09,0.45,0.33,0.71,0.18,1.21c-0.1,0.34-0.19,0.67-0.13,1.03
						c0.06,0.37,0.14,1.2,0.61,1.31C24.55,45.91,24.6,45.79,24.53,45.75L24.53,45.75z"/>
				</g>
			</g>
			<g style="clip-path:url(#SVGID_00000052066083982151564870000014269602394692499590_);">
				<g>
					<path class="st3" d="M23.44,45.04c-0.54-0.56-0.1-1.53-0.27-2.22c-0.13-0.5-0.59-1.04-1.11-1.14
						c-0.07-0.01-0.12,0.05-0.09,0.11c0.16,0.29,0.44,0.49,0.64,0.76c0.25,0.33,0.28,0.76,0.27,1.16c0,0.54,0.06,1.03,0.53,1.36
						C23.44,45.08,23.46,45.05,23.44,45.04L23.44,45.04z"/>
				</g>
			</g>
			<g style="clip-path:url(#SVGID_00000052066083982151564870000014269602394692499590_);">
				<g>
					<path class="st3" d="M22.46,44.78c-0.3-0.62-0.03-1.31-0.3-1.94c-0.17-0.4-0.6-0.91-1.03-1.03c-0.04-0.01-0.09,0.03-0.07,0.07
						c0.2,0.53,0.76,0.82,0.94,1.4c0.18,0.58-0.03,1.05,0.4,1.56C22.43,44.87,22.48,44.82,22.46,44.78L22.46,44.78z"/>
				</g>
			</g>
			<g style="clip-path:url(#SVGID_00000052066083982151564870000014269602394692499590_);">
				<g>
					<path class="st3" d="M21.73,44.76c-0.55-0.04-0.44-1.13-0.55-1.52c-0.14-0.49-0.53-1.1-1.1-1.15
						c-0.06-0.01-0.09,0.07-0.06,0.11c0.22,0.33,0.57,0.53,0.79,0.87c0.18,0.28,0.23,0.58,0.28,0.89c0.06,0.34,0.21,0.87,0.64,0.88
						C21.78,44.83,21.78,44.76,21.73,44.76L21.73,44.76z"/>
				</g>
			</g>
			<g style="clip-path:url(#SVGID_00000052066083982151564870000014269602394692499590_);">
				<g>
					<path class="st3" d="M20.77,44.86c-0.38-0.17-0.48-0.94-0.68-1.29c-0.23-0.41-0.6-0.87-1.12-0.86c-0.07,0-0.1,0.08-0.06,0.13
						c0.18,0.21,0.4,0.37,0.6,0.57c0.21,0.22,0.35,0.49,0.49,0.76c0.15,0.3,0.36,0.75,0.75,0.77
						C20.79,44.94,20.81,44.88,20.77,44.86L20.77,44.86z"/>
				</g>
			</g>
			<g style="clip-path:url(#SVGID_00000052066083982151564870000014269602394692499590_);">
				<g>
					<path class="st3" d="M20.3,46.63c0.26-0.56,0.11-1-0.25-1.48c-0.22-0.3-0.56-0.52-0.81-0.79c-0.39-0.43-0.34-0.91-0.48-1.41
						c-0.02-0.07-0.12-0.09-0.16-0.02c-0.25,0.49-0.03,1.03,0.26,1.47c0.54,0.8,1.49,1.09,1.42,2.23
						C20.28,46.63,20.29,46.64,20.3,46.63L20.3,46.63z"/>
				</g>
			</g>
			<g style="clip-path:url(#SVGID_00000052066083982151564870000014269602394692499590_);">
				<g>
					<path class="st3" d="M19.73,46.8c0.06-0.55-0.15-0.89-0.53-1.29c-0.31-0.32-0.67-0.45-0.85-0.89c-0.1-0.25-0.12-0.46-0.31-0.65
						c-0.05-0.05-0.15-0.02-0.15,0.06c0.01,0.42,0.18,0.84,0.45,1.16c0.47,0.56,1.18,0.81,1.34,1.61
						C19.67,46.85,19.72,46.83,19.73,46.8L19.73,46.8z"/>
				</g>
			</g>
		</g>
		<g>
			<defs>
				<path id="SVGID_00000150101442961965511730000010819083260025494930_" d="M15.24,52.16c-0.32-0.43-0.94-1.54-1.26-1.97
					c-0.61-0.84-0.86-1.81-1.79-2.28c-0.46-0.23-1.05-0.35-1.55-0.46c-0.5-0.11-0.83-0.33-1.06-0.78c-0.27-0.52-0.37-1.03-0.05-1.89
					c0.13-0.34,0.72-1.05,2.38-1.22c0.45-0.05,1.13-0.1,1.97-0.05c1.04,0.06,0.97,0.08,2.01,0.08c0.72,0,0.72,0.03,1,0.68
					c0.19,0.43,0.47,2.04,0.69,2.78c0.08,0.26,1,4.1,1.16,4.66c0.12,0.44,0.25,0.89,0.37,1.33c0.07,0.24,0.13,0.51,0.02,0.74
					c-0.17,0.34-0.62,0.41-1,0.43c-0.27,0.02-0.53,0.03-0.8,0.04c-0.11,0.01-0.22,0.01-0.32-0.02c-0.13-0.04-0.06-0.33-0.15-0.42
					C16.12,53.07,15.85,52.98,15.24,52.16z"/>
			</defs>
			<clipPath id="SVGID_00000152252412575991509000000016412600522722517415_">
				<use xlink:href="#SVGID_00000150101442961965511730000010819083260025494930_"  style="overflow:visible;"/>
			</clipPath>
			<g style="clip-path:url(#SVGID_00000152252412575991509000000016412600522722517415_);">
				<g>
					<path class="st3" d="M18.82,53.74c-1.03-0.78-0.51-1.39-0.52-2.28c0-0.19-0.15-0.52-0.32-0.61c-1.48-0.79-0.29-2.08-0.56-3.25
						c-0.08-0.34-0.52-0.76-0.71-1.03c-0.63-0.87-0.4-1.6-0.18-2.53c0.17-0.71-0.21-1.4-0.8-1.78c-0.07-0.05-0.18,0.03-0.15,0.11
						c0.24,0.66,0.64,1.08,0.47,1.86c-0.09,0.41-0.33,0.81-0.24,1.25c0.12,0.59,0.38,1.06,0.74,1.55c0.41,0.55,0.68,0.6,0.52,1.51
						c-0.05,0.32-0.21,0.61-0.24,0.94c-0.1,1.21,1.32,1.7,1.07,2.82c-0.16,0.7,0.15,1.45,0.91,1.55
						C18.85,53.83,18.85,53.77,18.82,53.74L18.82,53.74z"/>
				</g>
			</g>
			<g style="clip-path:url(#SVGID_00000152252412575991509000000016412600522722517415_);">
				<g>
					<path class="st3" d="M17.58,53.83c-0.43-0.08,0.12-1.75-0.31-2.17c-0.58-0.57-1.3-1.02-1-2.02c0.12-0.42,0.32-0.88,0.21-1.33
						c-0.35-1.35-1.64-1.77-1.22-3.42c0.2-0.79,0.54-1.67-0.22-2.25c-0.06-0.05-0.13,0.04-0.1,0.1c0.67,1.22-0.46,2.46,0.02,3.76
						c0.12,0.34,0.41,0.63,0.64,0.9c0.69,0.8,0.55,1.51,0.28,2.46c-0.23,0.81,0.23,1.26,0.85,1.68c1.03,0.7-0.09,1.89,0.68,2.44
						c0.03,0.02,0.07,0.02,0.1,0c0.03-0.02,0.07-0.04,0.1-0.06C17.63,53.91,17.63,53.84,17.58,53.83L17.58,53.83z"/>
				</g>
			</g>
			<g style="clip-path:url(#SVGID_00000152252412575991509000000016412600522722517415_);">
				<g>
					<path class="st3" d="M16.45,54.04c0.58-0.46,0.09-1.27-0.23-1.74c-0.33-0.49-0.81-0.71-1.01-1.33c-0.25-0.77,0.29-1.4,0.2-2.14
						c-0.17-1.42-2.01-1.73-1.44-3.44c0.41-1.22,1.07-2.03,0.35-3.31c-0.03-0.05-0.12-0.03-0.12,0.03c0.05,0.83,0.2,1.5-0.25,2.29
						c-0.27,0.47-0.48,0.92-0.58,1.46c-0.14,0.75,0.43,1.42,0.89,1.95c0.55,0.63,0.81,1.22,0.52,2.03c-0.14,0.4-0.06,0.85,0.02,1.25
						c0.2,1.04,2.11,1.61,1.54,2.87C16.3,54.02,16.39,54.09,16.45,54.04L16.45,54.04z"/>
				</g>
			</g>
			<g style="clip-path:url(#SVGID_00000152252412575991509000000016412600522722517415_);">
				<g>
					<path class="st3" d="M13.76,50.87c1-1.24,0.18-2.62-0.78-3.53c-1.28-1.22-0.11-2.35,0.39-3.56c0.24-0.58,0.23-1.38-0.34-1.73
						c-0.07-0.04-0.18,0.03-0.14,0.11c0.71,1.74-1.25,2.78-0.81,4.54c0.13,0.52,0.64,0.92,1.02,1.26c0.87,0.8,0.82,1.78,0.53,2.83
						C13.6,50.87,13.71,50.94,13.76,50.87L13.76,50.87z"/>
				</g>
			</g>
			<g style="clip-path:url(#SVGID_00000152252412575991509000000016412600522722517415_);">
				<g>
					<path class="st3" d="M12.7,48.71c-0.06-0.47-0.28-0.78-0.62-1.12c-0.77-0.77-1.15-1.49-0.55-2.5c0.41-0.69,1.12-1.47,0.54-2.26
						c-0.04-0.06-0.15-0.05-0.15,0.04c0,0.73-0.22,1.22-0.62,1.81c-0.22,0.32-0.49,0.73-0.5,1.13c-0.04,1.45,1.13,1.8,1.8,2.92
						C12.62,48.77,12.7,48.76,12.7,48.71L12.7,48.71z"/>
				</g>
			</g>
			<g style="clip-path:url(#SVGID_00000152252412575991509000000016412600522722517415_);">
				<g>
					<path class="st3" d="M10.99,48.18c-0.55-0.76-1.05-1.34-0.8-2.34c0.16-0.67,0.65-1.18,0.78-1.87c0.12-0.63-0.06-1.41-0.73-1.61
						c-0.08-0.02-0.15,0.08-0.08,0.14c1.2,1.06-0.13,2.4-0.37,3.54c-0.2,0.96,0.44,1.64,1.12,2.21
						C10.95,48.28,11.03,48.23,10.99,48.18L10.99,48.18z"/>
				</g>
			</g>
		</g>
		<g>
			<path class="st4" d="M16.29,52.93c-0.07-0.01-0.16-0.03-0.23,0c-0.06,0.03-0.1,0.09-0.14,0.14c-0.37,0.56-0.56,1.08-0.9,1.64
				c-0.06,0.09-0.01,0.21,0.09,0.24c3.22,0.9,7.76,0.66,10.34,0.09c0.07-0.02,0.14-0.04,0.18-0.1c0.08-0.11,0-0.25-0.08-0.36
				c-0.27-0.38-0.55-0.77-0.82-1.15c-0.07-0.09-0.14-0.2-0.25-0.24C24.38,53.17,17.9,53.25,16.29,52.93z"/>
		</g>
		<g>
			<g>
				<path class="st3" d="M24.19,53.82c-0.27,0-0.5,0.22-0.5,0.49c0,0.27,0.23,0.49,0.5,0.49c0.27,0,0.5-0.22,0.5-0.49
					C24.69,54.05,24.46,53.82,24.19,53.82L24.19,53.82z"/>
			</g>
		</g>
		<g>
			<g>
				<path class="st3" d="M22.6,53.94c-0.22-0.15-0.59-0.11-0.76,0.1c-0.13,0.16-0.2,0.32-0.14,0.52c0.05,0.19,0.2,0.32,0.38,0.38
					c0.22,0.07,0.47,0,0.63-0.16C22.98,54.53,22.89,54.14,22.6,53.94L22.6,53.94z"/>
			</g>
		</g>
		<g>
			<g>
				<path class="st3" d="M19.78,54.07c0,0.01-0.01,0.02-0.01,0.02c-0.17,0.33-0.03,0.75,0.35,0.85c0.35,0.09,0.78-0.18,0.75-0.56
					c0-0.01,0-0.02,0-0.02c-0.02-0.26-0.16-0.48-0.43-0.56C20.2,53.74,19.9,53.85,19.78,54.07L19.78,54.07z"/>
			</g>
		</g>
		<g>
			<g>
				<path class="st3" d="M18.28,53.78c-0.29,0-0.53,0.24-0.53,0.52c0,0.28,0.24,0.52,0.53,0.52c0.29,0,0.53-0.24,0.53-0.52
					C18.8,54.01,18.56,53.78,18.28,53.78L18.28,53.78z"/>
			</g>
		</g>
		<g>
			<g>
				<path class="st3" d="M16.4,53.66c-0.22,0-0.41,0.18-0.41,0.41c0,0.22,0.19,0.4,0.41,0.4c0.23,0,0.41-0.18,0.41-0.4
					C16.81,53.84,16.63,53.66,16.4,53.66L16.4,53.66z"/>
			</g>
		</g>
		<g>
			<g>
				<path class="st3" d="M22.68,57.18c0.01-0.12,0.09-0.25,0.05-0.37c-0.03-0.08-0.13-0.1-0.18-0.02c-0.07,0.12-0.04,0.28-0.01,0.41
					C22.56,57.28,22.67,57.26,22.68,57.18L22.68,57.18z"/>
			</g>
		</g>
		<g>
			<g>
				<path class="st3" d="M21.21,56.44c0.05-0.08,0.04-0.15,0.04-0.25c0-0.15-0.24-0.14-0.23,0c0.01,0.09,0.02,0.17,0.07,0.25
					C21.12,56.48,21.18,56.48,21.21,56.44L21.21,56.44z"/>
			</g>
		</g>
		<g>
			<g>
				<path class="st3" d="M21.52,58.45c0.05-0.16,0.09-0.32,0.07-0.49c-0.02-0.11-0.21-0.11-0.22,0c-0.02,0.17,0.01,0.33,0.07,0.49
					C21.44,58.5,21.5,58.5,21.52,58.45L21.52,58.45z"/>
			</g>
		</g>
		<g>
			<g>
				<path class="st3" d="M20.15,57.62c0.02-0.12,0.07-0.32-0.05-0.41c-0.03-0.02-0.06,0-0.08,0.02c-0.07,0.1,0,0.28,0.02,0.39
					C20.05,57.67,20.14,57.67,20.15,57.62L20.15,57.62z"/>
			</g>
		</g>
		<g>
			<g>
				<path class="st3" d="M19.29,58.41c0.06-0.11,0.07-0.22,0.04-0.35c-0.03-0.15-0.28-0.12-0.27,0.04c0,0.05,0.01,0.09,0.03,0.14
					c0.02,0.06,0.07,0.1,0.09,0.16C19.19,58.44,19.26,58.45,19.29,58.41L19.29,58.41z"/>
			</g>
		</g>
		<g>
			<g>
				<path class="st3" d="M18.97,56.22c0.02-0.09,0.04-0.19,0.03-0.28c-0.01-0.14-0.23-0.14-0.22,0c0,0.1,0.04,0.19,0.06,0.28
					C18.86,56.28,18.96,56.28,18.97,56.22L18.97,56.22z"/>
			</g>
		</g>
		<g>
			<g>
				<path class="st3" d="M18.18,57.23c0-0.02,0.02-0.04,0.03-0.06c0.01-0.04,0.02-0.09,0.02-0.13c0-0.09,0-0.18-0.07-0.25
					c-0.06-0.05-0.16-0.05-0.2,0.02c-0.04,0.08-0.03,0.17-0.01,0.26c0.02,0.09,0.07,0.13,0.13,0.19
					C18.13,57.3,18.17,57.28,18.18,57.23L18.18,57.23z"/>
			</g>
		</g>
		<g>
			<g>
				<path class="st3" d="M17.42,56.03c-0.01-0.13,0.04-0.29-0.04-0.4c-0.07-0.1-0.25-0.04-0.21,0.09c0.02,0.06,0.06,0.11,0.09,0.16
					c0.03,0.05,0.06,0.11,0.09,0.17C17.36,56.08,17.43,56.07,17.42,56.03L17.42,56.03z"/>
			</g>
		</g>
		<g>
			<g>
				<path class="st3" d="M23.51,56.04c0.02-0.14,0.11-0.36-0.02-0.47c-0.02-0.02-0.05-0.02-0.08,0c-0.12,0.11-0.04,0.33-0.02,0.47
					C23.41,56.1,23.5,56.1,23.51,56.04L23.51,56.04z"/>
			</g>
		</g>
		<g>
			<g>
				<path class="st6" d="M24.18,54.17c-0.2,0-0.2,0.31,0,0.31C24.38,54.48,24.38,54.17,24.18,54.17L24.18,54.17z"/>
			</g>
		</g>
		<g>
			<g>
				<path class="st6" d="M22.26,54.32c-0.18,0-0.18,0.27,0,0.27C22.44,54.59,22.44,54.32,22.26,54.32L22.26,54.32z"/>
			</g>
		</g>
		<g>
			<g>
				<path class="st6" d="M20.26,54.16c-0.25,0-0.25,0.38,0,0.38C20.51,54.54,20.51,54.16,20.26,54.16L20.26,54.16z"/>
			</g>
		</g>
		<g>
			<g>
				<path class="st6" d="M18.26,54.11c-0.23,0-0.23,0.35,0,0.35C18.49,54.47,18.49,54.11,18.26,54.11L18.26,54.11z"/>
			</g>
		</g>
		<g>
			<g>
				<path class="st6" d="M16.41,53.89c-0.23,0-0.23,0.35,0,0.35S16.64,53.89,16.41,53.89L16.41,53.89z"/>
			</g>
		</g>
		<g>
			<g>
				<path class="st6" d="M20.22,39.92c0.36-1.44,0.35-3.42-0.3-4.78c-0.33-0.68-1.33-0.09-1.02,0.59c0.56,1.24,0.79,2.8,0.94,4.14
					C19.86,40.08,20.16,40.15,20.22,39.92L20.22,39.92z"/>
			</g>
		</g>
		<g>
			<g>
				<path class="st6" d="M16.8,40.65c0.09-0.93-0.27-1.81-0.69-2.63c-0.32-0.62-1.04-1.98-1.88-1.89c-0.27,0.03-0.44,0.19-0.46,0.46
					c-0.05,0.66,0.81,1.3,1.19,1.79c0.56,0.74,0.97,1.57,1.41,2.38C16.48,40.99,16.78,40.86,16.8,40.65L16.8,40.65z"/>
			</g>
		</g>
		<g>
			<g>
				<path class="st3" d="M22.51,40.29c0.24-0.7,0.39-1.39,0.49-2.12c0.09-0.67,0.29-1.37,0.2-2.05c-0.07-0.53-0.94-0.78-1.05-0.14
					c-0.25,1.4-0.05,2.84-0.06,4.25C22.08,40.48,22.43,40.51,22.51,40.29L22.51,40.29z"/>
			</g>
		</g>
		<g>
			<g>
				<path class="st3" d="M18.83,40.72c0.19-1.07-0.05-2.08-0.33-3.12c-0.19-0.7-0.53-1.89-1.26-2.19c-0.62-0.25-0.93,0.6-0.59,1
					c0.34,0.41,0.56,1.14,0.8,1.63c0.42,0.86,0.73,1.76,0.96,2.68C18.45,40.92,18.79,40.93,18.83,40.72L18.83,40.72z"/>
			</g>
		</g>
		<g>
			<g>
				<path class="st3" d="M15.06,40.43c0.12-0.87-0.48-1.48-1.06-2.05c-0.52-0.51-0.95-1.26-1.74-1.32c-0.76-0.06-0.78,1.19,0,1.17
					c0.28-0.01,0.73,0.56,0.95,0.72c0.44,0.33,1.38,0.87,1.44,1.48C14.68,40.69,15.02,40.69,15.06,40.43L15.06,40.43z"/>
			</g>
		</g>
		<g>
			<g>
				<path class="st3" d="M20.03,38.39c-0.31,0-0.31,0.47,0,0.47C20.34,38.87,20.34,38.39,20.03,38.39L20.03,38.39z"/>
			</g>
		</g>
		<g>
			<g>
				<path class="st3" d="M19.95,37.32c-0.35,0-0.35,0.53,0,0.53C20.3,37.86,20.3,37.32,19.95,37.32L19.95,37.32z"/>
			</g>
		</g>
		<g>
			<g>
				<path class="st3" d="M19.63,36.42C19.63,36.43,19.63,36.43,19.63,36.42c-0.12,0.11-0.12,0.29-0.01,0.4c0,0,0,0,0.01,0.01
					c0.18,0.17,0.49,0.05,0.49-0.2C20.13,36.37,19.81,36.25,19.63,36.42L19.63,36.42z"/>
			</g>
		</g>
		<g>
			<g>
				<path class="st3" d="M19.64,35.83c0,0,0.01-0.01,0.01-0.01c0.08-0.07,0.08-0.2,0-0.27c0,0-0.01-0.01-0.01-0.01
					c-0.13-0.12-0.36-0.04-0.36,0.15C19.28,35.87,19.51,35.96,19.64,35.83L19.64,35.83z"/>
			</g>
		</g>
		<g>
			<g>
				<path class="st3" d="M16.38,39.68c-0.29,0-0.29,0.44,0,0.44C16.67,40.12,16.67,39.68,16.38,39.68L16.38,39.68z"/>
			</g>
		</g>
		<g>
			<g>
				<path class="st3" d="M16.06,38.81c-0.33,0-0.33,0.51,0,0.51C16.4,39.32,16.4,38.81,16.06,38.81L16.06,38.81z"/>
			</g>
		</g>
		<g>
			<g>
				<path class="st3" d="M15.55,37.86c-0.19,0-0.34,0.15-0.34,0.33c0,0.18,0.15,0.33,0.34,0.33c0.19,0,0.34-0.15,0.34-0.33
					C15.89,38.01,15.73,37.86,15.55,37.86L15.55,37.86z"/>
			</g>
		</g>
		<g>
			<g>
				<path class="st3" d="M14.91,37.1c-0.17,0-0.31,0.14-0.31,0.31c0,0.17,0.14,0.31,0.31,0.31c0.17,0,0.31-0.14,0.31-0.31
					C15.22,37.24,15.08,37.1,14.91,37.1L14.91,37.1z"/>
			</g>
		</g>
		<g>
			<g>
				<path class="st3" d="M14.36,36.61c-0.29,0-0.29,0.45,0,0.45C14.66,37.06,14.66,36.61,14.36,36.61L14.36,36.61z"/>
			</g>
		</g>
		<g>
			<g>
				<g>
					<path class="st3" d="M14.43,36.49c-0.08-0.06-0.15-0.13-0.23-0.19c-0.06-0.05-0.12-0.13-0.21-0.11
						c-0.04,0.01-0.06,0.03-0.06,0.07c0,0.09,0.09,0.13,0.16,0.18c0.08,0.06,0.16,0.12,0.24,0.17
						C14.41,36.68,14.51,36.56,14.43,36.49L14.43,36.49z"/>
				</g>
			</g>
			<g>
				<g>
					<path class="st3" d="M11.78,35.69c-0.04,0.1-0.09,0.19-0.14,0.28c-0.05,0.08-0.09,0.16-0.04,0.25
						c0.01,0.03,0.05,0.05,0.08,0.03c0.09-0.05,0.11-0.12,0.15-0.21c0.04-0.11,0.07-0.21,0.09-0.32
						C11.92,35.65,11.8,35.62,11.78,35.69L11.78,35.69z"/>
				</g>
			</g>
			<g>
				<g>
					<path class="st3" d="M12.55,33.98c-0.11,0.04-0.23,0.07-0.35,0.1c-0.1,0.03-0.24,0.08-0.32,0.14
						c-0.09,0.07-0.06,0.23,0.06,0.24c0.28,0.04,0.47-0.24,0.68-0.36C12.71,34.07,12.63,33.95,12.55,33.98L12.55,33.98z"/>
				</g>
			</g>
			<g>
				<g>
					<path class="st3" d="M5.15,32.51C5.1,32.63,5.05,32.76,5,32.89c-0.04,0.1-0.1,0.21-0.06,0.33c0.01,0.04,0.06,0.05,0.1,0.04
						c0.12-0.03,0.17-0.16,0.21-0.27c0.04-0.13,0.08-0.26,0.12-0.39C5.4,32.46,5.21,32.37,5.15,32.51L5.15,32.51z"/>
				</g>
			</g>
			<g>
				<path class="st6" d="M13.22,37.51c0.78-0.83,1.71-1.62,2.03-2.71c0.19-0.66,0.08-1.37-0.09-2.04c-0.2-0.77-0.48-1.53-0.92-2.2
					c-0.45-0.66-1.42-1.56-2.17-1.85c-1.14-0.45-2.32-0.73-3.53-0.6c-1.42,0.15-2.66,1.29-3.28,2.56c-0.62,1.26-1.04,3.11-0.58,4.44
					c0.05,0.15,0.11,0.3,0.16,0.45c0.58,1.53,2.05,2.85,3.62,3.37C9.55,39.3,11.16,39.73,13.22,37.51z"/>
			</g>
			<g>
				<path class="st11" d="M15.43,34.58c0.01-0.73-0.09-1.38-0.46-1.87c-0.79-1.06-2.3-2.13-3.39-2.88
					c-0.09-0.06-0.19-0.12-0.29-0.14c-0.11-0.01-0.23,0.04-0.27,0.14c0,0.01-0.01,0.03-0.01,0.04c-0.03,0.23,0.06,0.45,0.2,0.64
					c0.88,1.2,1.25,1.22,2.41,2.82c0.33,0.45-0.37,0.71-0.61,0.49c-0.79-0.75-1.2-1.17-1.99-1.92c-0.37-0.35-0.92-0.74-1.39-0.93
					c-0.18-0.07-0.44,0.25-0.38,0.44c0.21,0.59,0.71,1.14,1.22,1.55c0.51,0.4,1.5,1.04,1.78,1.57c0.24,0.45-0.18,0.82-0.23,0.79
					c-1.35-0.92-2.39-1.79-3.5-2.26c-0.28-0.12-0.91,0.42,0.15,1.24c1.24,0.96,1.81,1.14,2.74,2.02c0.25,0.24-0.17,0.74-0.51,0.64
					c-0.1-0.03-1.52-1.17-3-1.74c-0.22-0.09-0.74-0.17-0.79,0.05c-0.11,0.47,0.6,1.07,1.18,1.43c0.62,0.4,1.6,1.11,2.27,1.43
					c0.5,0.24,1.47,0.46,2.92-0.37c0.59-0.34,1.05-0.81,1.38-1.4C15.21,35.77,15.42,35.26,15.43,34.58z"/>
			</g>
			<g>
				<g>
					<path class="st3" d="M6.02,34.3c-0.15,0.18-0.11,0.45,0.07,0.59c0.18,0.14,0.46,0.11,0.6-0.07c0.15-0.18,0.11-0.45-0.07-0.59
						C6.44,34.08,6.16,34.12,6.02,34.3L6.02,34.3z"/>
				</g>
			</g>
			<g>
				<g>
					<path class="st3" d="M5.92,33.66c-0.01-0.01-0.01-0.01-0.02-0.02c-0.1-0.1-0.29-0.08-0.4-0.01c-0.13,0.1-0.19,0.33-0.07,0.46
						c0,0.01,0.01,0.01,0.02,0.02c0.12,0.13,0.31,0.19,0.46,0.07c0.07-0.05,0.12-0.13,0.13-0.22C6.06,33.83,6.01,33.74,5.92,33.66
						L5.92,33.66z"/>
				</g>
			</g>
			<g>
				<g>
					<path class="st3" d="M5,33.1c-0.15,0.19,0.15,0.42,0.3,0.23C5.45,33.14,5.15,32.91,5,33.1L5,33.1z"/>
				</g>
			</g>
			<g>
				<g>
					<path class="st3" d="M7.17,32.42c-0.14,0.17-0.11,0.43,0.07,0.57c0.18,0.14,0.44,0.11,0.58-0.07c0.14-0.17,0.11-0.43-0.07-0.57
						C7.57,32.22,7.31,32.25,7.17,32.42L7.17,32.42z"/>
				</g>
			</g>
			<g>
				<g>
					<path class="st3" d="M6.41,31.86c-0.26,0.33,0.25,0.73,0.52,0.4C7.19,31.94,6.67,31.54,6.41,31.86L6.41,31.86z"/>
				</g>
			</g>
			<g>
				<g>
					<path class="st3" d="M5.81,31.58c-0.12,0.15,0.12,0.33,0.24,0.18C6.17,31.62,5.93,31.43,5.81,31.58L5.81,31.58z"/>
				</g>
			</g>
			<g>
				<g>
					<path class="st3" d="M8.73,31.1c0.01,0,0.02-0.01,0.02-0.01c0.13-0.07,0.23-0.16,0.25-0.31c0.02-0.14-0.04-0.28-0.15-0.36
						c-0.11-0.09-0.26-0.11-0.39-0.06c-0.14,0.06-0.21,0.17-0.25,0.31c0,0.01,0,0.02-0.01,0.02C8.14,30.96,8.48,31.23,8.73,31.1
						L8.73,31.1z"/>
				</g>
			</g>
			<g>
				<g>
					<path class="st3" d="M7.57,30.18c-0.09,0.11-0.07,0.28,0.04,0.37c0.11,0.09,0.29,0.07,0.38-0.04c0.09-0.11,0.07-0.28-0.04-0.37
						C7.83,30.04,7.66,30.06,7.57,30.18L7.57,30.18z"/>
				</g>
			</g>
			<g>
				<g>
					<path class="st3" d="M9.92,29.04c-0.12,0.15-0.09,0.37,0.06,0.48c0.15,0.12,0.37,0.09,0.49-0.06c0.12-0.15,0.09-0.37-0.06-0.48
						C10.26,28.87,10.03,28.89,9.92,29.04L9.92,29.04z"/>
				</g>
			</g>
			<g>
				<g>
					<path class="st3" d="M9.14,28.84c-0.18,0.23,0.17,0.5,0.36,0.28C9.68,28.89,9.32,28.62,9.14,28.84L9.14,28.84z"/>
				</g>
			</g>
			<g>
				<g>
					<path class="st3" d="M8.34,28.78c-0.15,0.18,0.14,0.41,0.29,0.22C8.78,28.82,8.49,28.6,8.34,28.78L8.34,28.78z"/>
				</g>
			</g>
			<g>
				<g>
					<path class="st3" d="M13.03,35.21c-0.25,0.12-0.42,0.21-0.54,0.48c-0.12,0.27-0.07,0.59,0.04,0.86
						c0.26,0.64,0.94,0.93,1.61,0.76c0.64-0.17,1.06-0.96,1.07-1.57c0.01-0.79-0.52-1.33-1.33-1.28c-1.16,0.06-2.06,2.16-0.84,2.75
						c0.77,0.37,1.46-0.23,1.65-0.94c0.09-0.35,0.05-0.69-0.15-0.99c-0.19-0.31-0.66-0.54-0.99-0.26c-0.3,0.26-0.4,0.67-0.43,1.05
						c-0.05,0.69,1.03,0.84,1.08,0.15c0-0.03,0-0.06,0.01-0.09c-0.04,0.09-0.08,0.17-0.11,0.26c0.09-0.14,0.11-0.24,0.11-0.4
						c0-0.63-0.99-0.59-1.08-0.01c-0.01,0.03-0.01,0.06-0.01,0.09c0.36,0.05,0.72,0.1,1.08,0.15c0.01-0.12,0.03-0.24,0.05-0.35
						c-0.02,0.09,0.03-0.07,0.03-0.07c-0.11,0.27-0.76-0.18-0.63,0.13c0.01,0.02-0.07,0.21-0.1,0.27c0,0.01-0.08,0.07-0.04,0.05
						c0.04-0.02-0.09-0.03-0.01,0c0.03,0.01,0.06,0.1,0.05,0.01c-0.01-0.05,0.02-0.16,0.04-0.23c0.05-0.15,0.09-0.21,0.16-0.31
						c0.07-0.09,0.05-0.07,0.1-0.11c0.03-0.02,0.06-0.04,0.09-0.06c-0.05,0.02-0.04,0.02,0.02,0c-0.09,0.04,0.01-0.01,0.06-0.01
						c0.12,0,0.01-0.03,0.08,0.02c-0.08-0.06,0.02,0.07,0.02,0.11c0,0.24-0.11,0.54-0.32,0.64c-0.07,0.04-0.14,0.01-0.18,0
						c-0.06-0.02-0.21-0.13-0.26-0.19c-0.14-0.16-0.2-0.43-0.08-0.55C13.43,35.39,13.22,35.11,13.03,35.21L13.03,35.21z"/>
				</g>
			</g>
			<g>
				<g>
					<path class="st4" d="M13.63,35.73c-0.24,0.3,0.23,0.67,0.47,0.37C14.34,35.8,13.87,35.44,13.63,35.73L13.63,35.73z"/>
				</g>
			</g>
			<g>
				<g>
					<path class="st4" d="M12.86,35.92c-0.16,0.2,0.16,0.45,0.32,0.24C13.34,35.96,13.02,35.71,12.86,35.92L12.86,35.92z"/>
				</g>
			</g>
			<g>
				<g>
					<path class="st4" d="M13.29,36.54c-0.15,0.18,0.14,0.4,0.29,0.22C13.72,36.58,13.43,36.36,13.29,36.54L13.29,36.54z"/>
				</g>
			</g>
			<g>
				<g>
					<path class="st4" d="M14.43,36.79c0,0,0.01-0.01,0.01-0.01c0.09-0.09,0.08-0.21-0.03-0.27c0,0-0.01-0.01-0.02-0.01
						c-0.12-0.07-0.25,0.06-0.24,0.18C14.18,36.78,14.34,36.88,14.43,36.79L14.43,36.79z"/>
				</g>
			</g>
			<g>
				<g>
					<path class="st4" d="M14.62,35.73c-0.14,0.17,0.13,0.38,0.27,0.21C15.03,35.77,14.76,35.56,14.62,35.73L14.62,35.73z"/>
				</g>
			</g>
			<g>
				<g>
					<path class="st4" d="M14.31,35.01c-0.13,0.16,0.13,0.36,0.26,0.2C14.7,35.04,14.44,34.84,14.31,35.01L14.31,35.01z"/>
				</g>
			</g>
			<g>
				<g>
					<path class="st4" d="M13.43,34.98c-0.13,0.17,0.13,0.37,0.26,0.2C13.82,35.02,13.56,34.82,13.43,34.98L13.43,34.98z"/>
				</g>
			</g>
		</g>
		<g>
			<g>
				<g>
					<path class="st10" d="M17.07,29.08c0.38,1.21,2.12,1.87,3.09,2.56c0.73,0.52,1.67,0.62,2.33-0.08c0.75-0.8,0.48-2.02-0.45-2.55
						c-1.12-0.64-2.29-1.26-3.47-1.79c-2.01-0.9-3.5,1.9-1.59,3c1.12,0.65,2.35,1.14,3.53,1.67c0.37-1.01,0.74-2.02,1.11-3.03
						c-0.67-0.21-1.36-0.4-2.05-0.54c-0.66-0.14-1.36-0.38-2.03-0.16C17.18,28.28,16.95,28.69,17.07,29.08L17.07,29.08z"/>
				</g>
			</g>
			<g>
				<g>
					<path class="st11" d="M19.4,30.25c0.01,0,0.02,0,0.03,0.01c0.3,0.08,0.64-0.1,0.78-0.36c0.14-0.27,0.1-0.64-0.15-0.84
						c-0.01-0.01-0.02-0.01-0.02-0.02c-0.15-0.12-0.33-0.2-0.53-0.19c-0.25,0.01-0.49,0.16-0.6,0.38c-0.09,0.17-0.1,0.36-0.05,0.54
						C18.94,30.02,19.14,30.18,19.4,30.25L19.4,30.25z"/>
				</g>
			</g>
			<g>
				<g>
					<path class="st11" d="M18.33,28.93c0.28-0.52-0.55-0.94-0.82-0.42C17.24,29.03,18.06,29.46,18.33,28.93L18.33,28.93z"/>
				</g>
			</g>
			<g>
				<g>
					<path class="st11" d="M21.67,30.44c0.25-0.46-0.48-0.84-0.73-0.37C20.7,30.53,21.43,30.91,21.67,30.44L21.67,30.44z"/>
				</g>
			</g>
		</g>
	</g>
	<g>
		<g>
			<path class="st2" d="M5.53,12.26c0.16-0.15,0.34-0.26,0.52-0.39c0.19-0.14,0.4-0.27,0.56-0.45c0.13-0.15,0.19-0.3,0.25-0.48
				c0.06-0.18,0.07-0.58-0.03-0.75c-0.3-0.48-1.14-0.89-1.7,0.16c-0.01,0.02-0.02,0.02-0.04,0.02l0,0c-0.02,0-0.03-0.01-0.04-0.02
				c-0.56-1.05-1.4-0.63-1.7-0.16c-0.1,0.17-0.1,0.56-0.03,0.75c0.06,0.18,0.12,0.33,0.25,0.48c0.16,0.18,0.36,0.31,0.56,0.45
				c0.18,0.13,0.36,0.24,0.52,0.39c0.08,0.07,0.45,0.46,0.45,0.46S5.45,12.34,5.53,12.26z"/>
		</g>
	</g>
	<g>
		<g>
			<path class="st2" d="M34.33,47.85c-0.16,0.14-0.34,0.26-0.52,0.39c-0.19,0.14-0.4,0.27-0.55,0.45c-0.13,0.15-0.19,0.3-0.25,0.48
				c-0.06,0.18-0.07,0.58,0.03,0.75c0.3,0.48,1.14,0.9,1.7-0.15c0.01-0.02,0.02-0.02,0.04-0.02h0c0.02,0,0.03,0.01,0.04,0.02
				c0.56,1.05,1.4,0.63,1.7,0.15c0.11-0.16,0.1-0.56,0.03-0.75c-0.06-0.18-0.12-0.33-0.25-0.48c-0.16-0.18-0.36-0.31-0.56-0.45
				c-0.18-0.13-0.36-0.24-0.52-0.39c-0.08-0.07-0.45-0.46-0.45-0.46S34.42,47.77,34.33,47.85z"/>
		</g>
	</g>
	<g>
		<path class="st2" d="M6.24,2.9v3.85c0,0.67-0.15,1.14-0.46,1.4c-0.31,0.27-0.71,0.4-1.22,0.4c-0.27,0-0.54-0.04-0.82-0.11V7.87
			c0.27,0.06,0.51,0.09,0.73,0.09c0.31,0,0.54-0.05,0.69-0.14c0.15-0.09,0.25-0.21,0.3-0.36c0.05-0.15,0.08-0.38,0.08-0.71V2.9H6.24
			z"/>
	</g>
	<g>
		<path class="st2" d="M33.59,57.13v-3.85c0-0.67,0.15-1.14,0.46-1.4c0.31-0.27,0.71-0.4,1.22-0.4c0.27,0,0.55,0.04,0.82,0.11v0.57
			c-0.27-0.06-0.51-0.08-0.73-0.08c-0.31,0-0.54,0.05-0.69,0.14c-0.15,0.09-0.25,0.21-0.3,0.36c-0.05,0.15-0.08,0.38-0.08,0.71v3.85
			H33.59z"/>
	</g>
	<g>
		<g>
			<g>
				<path class="st2" d="M16.37,56.96H5.97c-1.62,0-2.93-1.38-2.93-3.07V15.1h0.18v38.78c0,1.6,1.23,2.89,2.75,2.89h10.4V56.96z"/>
			</g>
		</g>
		<g>
			<g>
				<rect x="24.72" y="56.78" class="st2" width="7.22" height="0.18"/>
			</g>
		</g>
		<g>
			<g>
				<path class="st2" d="M36.8,45.12h-0.18V6.15c0-1.6-1.23-2.89-2.75-2.89H23.14V3.08h10.72c1.62,0,2.93,1.38,2.93,3.07V45.12z"/>
			</g>
		</g>
		<g>
			<g>
				<rect x="8.17" y="3.08" class="st2" width="6.69" height="0.18"/>
			</g>
		</g>
	</g>
</g>
</svg>
