<?xml version="1.0" encoding="utf-8"?>
<!-- Generator: Adobe Illustrator 26.3.1, SVG Export Plug-In . SVG Version: 6.00 Build 0)  -->
<svg version="1.1" id="Layer_1" xmlns="http://www.w3.org/2000/svg" xmlns:xlink="http://www.w3.org/1999/xlink" x="0px" y="0px"
	 viewBox="0 0 40 60" style="enable-background:new 0 0 40 60;" xml:space="preserve">
<style type="text/css">
	.st0{fill:#FFFFFF;}
	.st1{fill:#2D2D2D;}
	.st2{fill:#B70027;}
	.st3{fill:#141247;}
	.st4{fill:#0C0A35;}
	.st5{fill:#FFD6A1;}
	.st6{fill:#F70032;}
	.st7{clip-path:url(#SVGID_00000067195224070578478330000015662359821566649516_);}
	.st8{fill:#191956;}
	.st9{clip-path:url(#SVGID_00000051371593503051228980000004265028590176898700_);}
	.st10{clip-path:url(#SVGID_00000182525269642236855380000006424093570026198956_);}
	.st11{fill:#222272;}
	.st12{fill:#990028;}
	.st13{clip-path:url(#SVGID_00000165916507398759100990000012887176169867293571_);}
	.st14{clip-path:url(#SVGID_00000001660970865403960840000005092258533431006393_);}
	.st15{clip-path:url(#SVGID_00000067204219994573601260000005752541600060199809_);}
</style>
<g>
	<g>
		<path class="st0" d="M36.54,59.91H3.46c-1.86,0-3.37-1.49-3.37-3.32V3.41c0-1.83,1.51-3.32,3.37-3.32h33.08
			c1.86,0,3.37,1.49,3.37,3.32v53.17C39.91,58.42,38.4,59.91,36.54,59.91z"/>
		<path class="st1" d="M36.54,60H3.46C1.55,60,0,58.47,0,56.59V3.41C0,1.53,1.55,0,3.46,0h33.08C38.45,0,40,1.53,40,3.41v53.17
			C40,58.47,38.45,60,36.54,60z M3.46,0.18c-1.81,0-3.28,1.45-3.28,3.23v53.17c0,1.78,1.47,3.23,3.28,3.23h33.08
			c1.81,0,3.28-1.45,3.28-3.23V3.41c0-1.78-1.47-3.23-3.28-3.23H3.46z"/>
	</g>
	<g>
		<path class="st2" d="M4.86,28.97c0.36,0.79,1.25,1.01,2.04,1.05c1.27,0.07,2.54-0.1,3.8-0.26c0.34-0.04,0.77-0.16,0.84-0.55
			c0.03-0.14,0-0.28-0.04-0.42c-0.07-0.31-0.15-0.62-0.29-0.89c-0.4-0.81-1.19-1.27-1.98-1.55c-1.08-0.38-2.29-0.49-3.3,0.07
			c-0.42,0.23-0.8,0.58-1.02,1.04C4.7,27.92,4.65,28.5,4.86,28.97z"/>
		<path class="st2" d="M34.47,30.72c-0.31-0.78-1.19-1.05-1.97-1.13c-1.26-0.14-2.54-0.06-3.81,0.02c-0.35,0.02-0.77,0.11-0.87,0.48
			c-0.04,0.13-0.01,0.27,0.01,0.41c0.05,0.3,0.12,0.6,0.23,0.88c0.35,0.81,1.11,1.3,1.88,1.61c1.05,0.43,2.25,0.61,3.3,0.14
			c0.43-0.2,0.83-0.51,1.08-0.94C34.57,31.75,34.65,31.19,34.47,30.72z"/>
		<g>
			<path class="st3" d="M6.27,24.63c-0.01-0.18,0.09-0.35,0.19-0.51c1.62-2.58,5.38-4.18,9.21-4.61c3.83-0.43,7.73,0.14,11.46,0.91
				c0.69,0.14,1.38,0.29,2,0.55c1.73,0.72,2.66,2.15,3.27,3.54c-0.77,0.1-1.59,0.22-2.18,0.61c-0.9,0.59-0.95,1.6-0.92,2.48
				c0.11,2.97,0.53,5.93,1.23,8.86c-0.92,0.2-1.89,0.2-2.85,0.19c-5.77-0.03-11.55-0.06-17.32-0.19c-0.12,0-0.25-0.01-0.34-0.07
				c-0.07-0.05-0.09-0.13-0.1-0.21c-0.57-3.24-0.02-6.21-0.89-9.41c-0.07-0.27,1.34-0.87,1.13-1.1c-0.29-0.3-0.74-0.47-1.19-0.64
				C8.13,24.73,7.17,24.41,6.27,24.63z"/>
		</g>
		<g>
			<path class="st3" d="M33.74,34.45c0.01,0.19-0.09,0.37-0.19,0.54c-1.62,2.71-5.38,4.39-9.21,4.85
				c-3.83,0.45-7.73-0.15-11.46-0.96c-0.69-0.15-1.38-0.31-2-0.58c-1.73-0.76-2.66-2.26-3.26-3.72c0.77-0.11,1.59-0.23,2.18-0.64
				c0.9-0.62,0.95-1.68,0.92-2.61c-0.12-3.12-0.53-6.23-1.23-9.31c0.92-0.21,1.89-0.21,2.85-0.2c5.78,0.03,11.55,0.06,17.32,0.2
				c0.12,0,0.25,0.01,0.34,0.07c0.07,0.06,0.09,0.14,0.1,0.22c0.57,3.4,0.02,6.52,0.89,9.88c0.07,0.28-1.34,0.92-1.13,1.15
				c0.29,0.31,0.74,0.49,1.19,0.67C31.88,34.35,32.84,34.69,33.74,34.45z"/>
		</g>
		<path class="st4" d="M31.05,37.67c-0.48,0.16-12.44-5.63-14.43-6.83c-2.56-1.53-9.72-3.76-10.14-4.11
			c-0.43-0.35-0.74-0.88-0.68-1.42c0.04-0.34,0.21-0.66,0.39-0.95c0.68-1.13,1.59-2.32,2.91-2.53c1.47-0.23,2.66,1.04,3.97,1.74
			c6.27,3.36,11.55,5.48,15.36,7.22c3.07,1.4,3.71,1.45,5.33,2.36c0.19,0.11,0.44,0.99-0.29,2.07
			C32.35,36.86,32.35,37.25,31.05,37.67z"/>
		<g>
			<path class="st5" d="M15.62,20.91c0.49,0.03,0.99,0.05,1.45-0.12c0.39-0.15,0.71-0.43,1.02-0.71c0.48-0.43,0.97-0.86,1.4-1.34
				c1.17-1.3,1.92-2.94,2.3-4.64c0.08-0.35,0.14-0.73,0-1.06c-0.21-0.48-0.76-0.7-1.26-0.87c-0.7-0.24-1.42-0.48-2.17-0.51
				c-0.45-0.01-0.89,0.06-1.33,0.12c-0.72,0.11-1.43,0.22-2.15,0.33c-0.3,0.05-0.41,0.16-0.64,0.35c-0.42,0.35-0.6,0.92-0.6,1.47
				c0,0.14,0,0.29-0.08,0.41c-0.07,0.12-0.2,0.2-0.32,0.28c-0.77,0.51-1.41,1.21-1.86,2.01c-0.11,0.2-0.21,0.44-0.11,0.64
				c0.1,0.22,0.37,0.3,0.61,0.29c0.24-0.01,0.48-0.08,0.72-0.08c-0.01,0.51-0.02,1.02-0.03,1.53c-0.01,0.32-0.01,0.67,0.15,0.95
				c0.19,0.33,0.56,0.51,0.93,0.63C14.28,20.81,14.96,20.86,15.62,20.91z"/>
		</g>
		<g>
			<path class="st4" d="M12.82,19.71c-0.54,0.05-0.81,0.61-0.93,1.14c-0.06,0.26-0.08,0.53-0.08,0.79c0,0.9,0.19,1.81,0.7,2.56
				c0.51,0.74,1.36,1.29,2.27,1.29c0.42,0,0.83-0.11,1.23-0.24c1.69-0.55,3.28-1.45,4.5-2.73c1.22-1.28,2.05-2.94,2.17-4.69
				c0.01-0.1,0-0.23-0.09-0.28c-0.26-0.67-0.77-1.12-1.44-1.38c-0.67-0.27-1.46-0.24-2.11,0.06c-0.33,0.15-0.63,0.38-0.82,0.69
				c-0.22,0.37-0.26,0.8-0.34,1.22c-0.08,0.42-0.23,0.86-0.59,1.09c-0.2,0.13-0.44,0.18-0.67,0.23c-0.6,0.12-1.21,0.2-1.82,0.26
				L12.82,19.71z"/>
		</g>
		<g>
			<path class="st0" d="M17.3,15.02c-0.57-0.07-1.11-0.3-1.64-0.53c0.4-0.35,0.96-0.45,1.5-0.52c1.06-0.14,2.2-0.2,3.14,0.29
				C19.35,14.69,18.34,15.14,17.3,15.02z"/>
		</g>
		<g>
			<path class="st4" d="M24.1,11.25c0.26-0.13,0.41-0.38,0.55-0.63c0.32-0.58,0.62-1.17,0.89-1.77c0.1-0.21,0.25-0.17,0.2-0.4
				c-0.05-0.22-0.29-0.67-0.46-0.82c-0.22-0.2-0.69-0.7-0.91-0.9c-0.34-0.31-1.45-1.04-1.85-1.18c-1.32-0.46-2.91-0.54-4.26-0.16
				c-0.47,0.13-0.91,0.33-1.35,0.54c-0.78,0.39-1.55,0.91-1.88,1.71c-0.31,0.74-0.18,1.59-0.04,2.38c0.26,0.29,0.38,0.6,0.64,0.89
				c0.19,0.21,0.39,0.43,0.65,0.56c0.23,0.11,0.48,0.15,0.73,0.18c2.06,0.24,4.16,0.24,6.22,0C23.58,11.61,23.98,11.57,24.1,11.25z"
				/>
		</g>
		<g>
			<path class="st6" d="M18.53,4.3c-0.14,0.03-0.27,0.1-0.38,0.18C18,4.6,17.87,4.76,17.84,4.94c-0.03,0.21,0.08,0.43,0.25,0.56
				c0.17,0.13,0.4,0.18,0.61,0.17c0.18,0,0.36-0.04,0.49-0.15c0.07-0.06,0.12-0.13,0.15-0.2c0.12-0.24,0.08-0.55-0.09-0.76
				C19.09,4.35,18.8,4.25,18.53,4.3z"/>
		</g>
		<g>
			<g>
				<path class="st4" d="M17.82,14.97c0.25,0,0.45-0.2,0.45-0.45c0-0.24-0.21-0.45-0.45-0.45c-0.25,0-0.45,0.2-0.45,0.45
					C17.37,14.77,17.57,14.97,17.82,14.97L17.82,14.97z"/>
			</g>
		</g>
		<g>
			<g>
				<path class="st4" d="M15.72,14.01c0.66,0.07,1.35-0.07,2-0.13c0.67-0.05,1.43,0.21,2.07,0.01c0.15-0.05,0.19-0.22,0.09-0.34
					c-0.48-0.56-1.48-0.45-2.15-0.4c-0.71,0.06-1.52,0.22-2.07,0.71C15.6,13.92,15.65,14,15.72,14.01L15.72,14.01z"/>
			</g>
		</g>
		<g>
			<g>
				<path class="st4" d="M13.32,17.07c0.09-0.18-0.13-0.38-0.29-0.22C12.83,17.05,13.21,17.3,13.32,17.07L13.32,17.07z"/>
			</g>
		</g>
		<g>
			<defs>
				<path id="SVGID_1_" d="M12.82,19.71c-0.54,0.05-0.81,0.61-0.93,1.14c-0.06,0.26-0.08,0.53-0.08,0.79c0,0.9,0.19,1.81,0.7,2.56
					c0.51,0.74,1.36,1.29,2.27,1.29c0.42,0,0.83-0.11,1.23-0.24c1.69-0.55,3.28-1.45,4.5-2.73c1.22-1.28,2.05-2.94,2.17-4.69
					c0.01-0.1,0-0.23-0.09-0.28c-0.26-0.67-0.77-1.12-1.44-1.38c-0.67-0.27-1.46-0.24-2.11,0.06c-0.33,0.15-0.63,0.38-0.82,0.69
					c-0.22,0.37-0.26,0.8-0.34,1.22c-0.08,0.42-0.23,0.86-0.59,1.09c-0.2,0.13-0.44,0.18-0.67,0.23c-0.6,0.12-1.21,0.2-1.82,0.26
					L12.82,19.71z"/>
			</defs>
			<clipPath id="SVGID_00000031890912580841193200000002680300873024505234_">
				<use xlink:href="#SVGID_1_"  style="overflow:visible;"/>
			</clipPath>
			<g style="clip-path:url(#SVGID_00000031890912580841193200000002680300873024505234_);">
				<g>
					<path class="st2" d="M12.25,19.45c-0.08,0.45-0.31,0.91-0.22,1.38c0.12,0.64,0.63,1.18,0.5,1.85
						c-0.15,0.78-0.73,1.45-0.53,2.27c0.01,0.05,0.1,0.04,0.09-0.01c-0.08-1.01,0.78-1.52,0.84-2.42c0.02-0.28,0-0.52-0.12-0.77
						c-0.37-0.78-0.33-1.43-0.41-2.26C12.4,19.39,12.27,19.36,12.25,19.45L12.25,19.45z"/>
				</g>
			</g>
			<g style="clip-path:url(#SVGID_00000031890912580841193200000002680300873024505234_);">
				<g>
					<path class="st2" d="M11.29,21.01c0.01,0.36,0.16,0.68,0.25,1.02c0.06,0.21,0.09,0.44,0.06,0.66c-0.03,0.17-0.12,0.3-0.1,0.47
						c0.01,0.07,0.06,0.15,0.14,0.14c0.45-0.05,0.54-0.57,0.48-0.94c-0.08-0.5-0.34-1-0.63-1.4C11.43,20.87,11.28,20.89,11.29,21.01
						L11.29,21.01z"/>
				</g>
			</g>
			<g style="clip-path:url(#SVGID_00000031890912580841193200000002680300873024505234_);">
				<g>
					<path class="st2" d="M12.52,19.08c0.85,1.02,1.04,3.06,0.7,4.31c-0.16,0.57-0.76,1.03-0.75,1.65c0.01,0.61,0.19,1.1,0.58,1.57
						c0.07,0.09,0.19-0.01,0.17-0.1c-0.1-0.6-0.37-1.09-0.24-1.72c0.07-0.35,0.41-0.71,0.54-1.05c0.27-0.68,0.23-1.35,0.19-2.07
						c-0.06-0.87-0.17-2.33-1.13-2.7C12.52,18.93,12.48,19.03,12.52,19.08L12.52,19.08z"/>
				</g>
			</g>
			<g style="clip-path:url(#SVGID_00000031890912580841193200000002680300873024505234_);">
				<g>
					<path class="st2" d="M13.19,19.47c0.65,0.54,1.04,1.44,1.15,2.25c0.13,0.92-0.26,1.65-0.7,2.41c-0.51,0.89-0.16,1.98,0.54,2.68
						c0.07,0.07,0.22,0.02,0.21-0.08c-0.13-0.98-0.81-1.55-0.2-2.62c0.34-0.59,0.56-1.07,0.62-1.75c0.09-1.01-0.35-2.8-1.51-3.07
						C13.2,19.29,13.11,19.41,13.19,19.47L13.19,19.47z"/>
				</g>
			</g>
			<g style="clip-path:url(#SVGID_00000031890912580841193200000002680300873024505234_);">
				<g>
					<path class="st2" d="M14,19.36c0.48,0.58,1.03,1,1.47,1.64c0.74,1.1-0.16,1.89-0.52,2.9c-0.41,1.16-0.07,2.49,1.05,3.16
						c0.1,0.06,0.25-0.04,0.21-0.16c-0.37-1.04-1.15-1.62-0.73-2.86c0.25-0.73,0.71-1.32,0.78-2.1c0.12-1.16-1.27-2.25-2.16-2.72
						C14.02,19.18,13.94,19.29,14,19.36L14,19.36z"/>
				</g>
			</g>
			<g style="clip-path:url(#SVGID_00000031890912580841193200000002680300873024505234_);">
				<g>
					<path class="st2" d="M14.66,18.98c0.68,0.64,1.35,1.15,1.92,1.91c0.88,1.17-0.1,1.9-0.25,3.03c-0.13,1.02,0.51,2.81,1.75,2.89
						c0.1,0.01,0.13-0.12,0.08-0.18c-0.63-0.8-1.36-1.28-1.42-2.39c-0.05-0.84,0.68-1.5,0.71-2.33c0.04-1.25-1.65-2.62-2.68-3.05
						C14.68,18.82,14.59,18.92,14.66,18.98L14.66,18.98z"/>
				</g>
			</g>
			<g style="clip-path:url(#SVGID_00000031890912580841193200000002680300873024505234_);">
				<g>
					<path class="st2" d="M15.89,19.06c0.82,0.42,1.32,1.15,1.8,1.9c0.42,0.65,0.54,1.33,0.12,2.03c-0.14,0.24-0.32,0.46-0.42,0.71
						c-0.45,1.13,0.39,2.62,1.45,3.15c0.12,0.06,0.23-0.06,0.18-0.18c-0.48-1.09-1.81-1.66-1.15-3.05c0.25-0.53,0.68-1.04,0.59-1.67
						c-0.16-1.09-1.26-3.01-2.54-3.03C15.86,18.92,15.83,19.02,15.89,19.06L15.89,19.06z"/>
				</g>
			</g>
			<g style="clip-path:url(#SVGID_00000031890912580841193200000002680300873024505234_);">
				<g>
					<path class="st2" d="M16.32,18.31c1.16,1.19,3.16,2.17,2.55,4.16c-0.37,1.21-0.51,2.47,0.63,3.35c0.07,0.06,0.21,0.01,0.17-0.1
						c-0.37-1.05-0.87-1.68-0.48-2.85c0.23-0.69,0.3-1.19,0.1-1.89c-0.37-1.29-1.8-2.16-2.92-2.73
						C16.33,18.22,16.28,18.27,16.32,18.31L16.32,18.31z"/>
				</g>
			</g>
			<g style="clip-path:url(#SVGID_00000031890912580841193200000002680300873024505234_);">
				<g>
					<path class="st2" d="M17.08,18.11c1.04,0.6,1.93,1.38,2.53,2.42c0.49,0.85,0.36,1.78,0.31,2.71c-0.06,1.02,0.08,2.69,1.41,2.8
						c0.12,0.01,0.16-0.14,0.09-0.21c-0.35-0.36-0.72-0.59-0.91-1.08c-0.15-0.4-0.14-0.86-0.13-1.28c0.02-0.69,0.19-1.42,0.03-2.1
						c-0.36-1.59-1.66-3.02-3.3-3.36C17.06,18,17.03,18.08,17.08,18.11L17.08,18.11z"/>
				</g>
			</g>
			<g style="clip-path:url(#SVGID_00000031890912580841193200000002680300873024505234_);">
				<g>
					<path class="st2" d="M17.41,17.85c1.03,0.39,1.85,0.79,2.65,1.57c0.77,0.75,0.84,1.97,0.84,2.96
						c-0.01,1.11-0.12,2.89,1.34,3.16c0.13,0.02,0.22-0.12,0.13-0.21c-0.39-0.43-0.8-0.68-1.02-1.26c-0.19-0.51-0.12-1.14-0.11-1.68
						c0.01-0.8-0.04-1.67-0.4-2.4c-0.52-1.05-2.14-2.47-3.42-2.21C17.36,17.78,17.37,17.84,17.41,17.85L17.41,17.85z"/>
				</g>
			</g>
			<g style="clip-path:url(#SVGID_00000031890912580841193200000002680300873024505234_);">
				<g>
					<path class="st2" d="M17.77,17.28c1.15,0.2,2.08,0.94,2.83,1.78c0.81,0.91,0.82,2.02,1.04,3.14c0.21,1.07-0.01,2.63,1.36,2.96
						c0.11,0.03,0.16-0.11,0.07-0.17c-1.51-1.08-0.81-3.66-1.47-5.18c-0.66-1.53-2.18-2.51-3.82-2.69
						C17.7,17.11,17.68,17.27,17.77,17.28L17.77,17.28z"/>
				</g>
			</g>
			<g style="clip-path:url(#SVGID_00000031890912580841193200000002680300873024505234_);">
				<g>
					<path class="st2" d="M17.74,16.66c0.27,0.15,0.45,0.14,0.77,0.15c0.84,0.01,1.47,0.66,2.08,1.15c0.49,0.4,0.98,0.83,1.3,1.37
						c0.31,0.52,0.51,1.17,0.79,1.71c0.78,1.55,1.8,3.09,3.7,1.95c0.04-0.02,0.01-0.1-0.03-0.08c-2.7,1.12-3.24-2.82-4.44-4.3
						c-1.01-1.25-2.48-2.31-4.15-2.06C17.7,16.56,17.69,16.63,17.74,16.66L17.74,16.66z"/>
				</g>
			</g>
			<g style="clip-path:url(#SVGID_00000031890912580841193200000002680300873024505234_);">
				<g>
					<path class="st2" d="M18.56,16c1.16,0.15,2.02,0.77,2.73,1.64c0.5,0.61,1.12,1.14,1.88,1.41c0.11,0.04,0.2-0.12,0.11-0.19
						c-0.42-0.4-0.9-0.71-1.34-1.08c-0.42-0.37-0.69-0.86-1.13-1.22c-0.6-0.49-1.5-0.73-2.26-0.69C18.46,15.86,18.47,15.98,18.56,16
						L18.56,16z"/>
				</g>
			</g>
		</g>
		<g>
			<path class="st8" d="M14.19,17.26c0.39-0.1,0.81-0.1,1.22-0.07c0.42,0.03,0.84,0.16,1.21,0.36c0.43,0.24,0.74,0.53,1.03,0.92
				c0.1,0.13,0.18,0.27,0.22,0.43c0.06,0.27-0.06,0.56-0.25,0.76c-0.19,0.2-0.46,0.32-0.73,0.4c-1.04,0.3-2.24-0.06-2.93-0.88
				c-0.09-0.11-0.2-0.23-0.34-0.23c-0.15,0-0.25,0.14-0.33,0.26c-0.18,0.26-0.36,0.41-0.6,0.6c-0.17,0.13-0.4,0.34-0.62,0.32
				c-0.36-0.03-0.56-0.45-0.53-0.81c0.04-0.5,0.4-1.07,0.81-1.36C12.76,17.67,13.06,17.54,14.19,17.26z"/>
		</g>
		<g>
			<defs>
				<path id="SVGID_00000017478382171644636650000000074421497696331152_" d="M14.19,17.26c0.39-0.1,0.81-0.1,1.22-0.07
					c0.42,0.03,0.84,0.16,1.21,0.36c0.43,0.24,0.74,0.53,1.03,0.92c0.1,0.13,0.18,0.27,0.22,0.43c0.06,0.27-0.06,0.56-0.25,0.76
					c-0.19,0.2-0.46,0.32-0.73,0.4c-1.04,0.3-2.24-0.06-2.93-0.88c-0.09-0.11-0.2-0.23-0.34-0.23c-0.15,0-0.21,0.15-0.31,0.27
					c-0.2,0.26-0.34,0.34-0.68,0.66c-0.16,0.15-0.34,0.28-0.56,0.26c-0.36-0.03-0.56-0.45-0.53-0.81c0.04-0.5,0.4-1.07,0.81-1.36
					C12.76,17.67,13.06,17.54,14.19,17.26z"/>
			</defs>
			<clipPath id="SVGID_00000032628997433864385060000005993401065599928214_">
				<use xlink:href="#SVGID_00000017478382171644636650000000074421497696331152_"  style="overflow:visible;"/>
			</clipPath>
			<g style="clip-path:url(#SVGID_00000032628997433864385060000005993401065599928214_);">
				<g>
					<path class="st2" d="M12.66,17.15c0.63,0.88-0.83,1.75-1.04,2.61c-0.14,0.55,0.14,1.08,0.65,1.29
						c0.06,0.03,0.13-0.06,0.09-0.11c-0.76-1.07-0.08-1.6,0.54-2.49c0.33-0.47,0.27-1-0.15-1.37
						C12.71,17.04,12.62,17.09,12.66,17.15L12.66,17.15z"/>
				</g>
			</g>
			<g style="clip-path:url(#SVGID_00000032628997433864385060000005993401065599928214_);">
				<g>
					<path class="st2" d="M13.19,16.79c0.1,0.53,0.24,0.98,0.11,1.53c-0.09,0.35-0.38,0.69-0.54,1.01
						c-0.19,0.38-0.31,0.77-0.08,1.16c0.03,0.05,0.12,0.03,0.12-0.03c-0.1-0.83,0.6-1.31,0.89-2.03c0.24-0.58,0.03-1.26-0.39-1.7
						C13.25,16.68,13.18,16.73,13.19,16.79L13.19,16.79z"/>
				</g>
			</g>
			<g style="clip-path:url(#SVGID_00000032628997433864385060000005993401065599928214_);">
				<g>
					<path class="st2" d="M13.24,16.32c1.09,1.39,1.44,4.31,3.55,4.65c0.05,0.01,0.08-0.05,0.04-0.08c-0.93-0.62-1.5-1.36-2.01-2.33
						c-0.43-0.81-0.8-1.67-1.51-2.29C13.26,16.23,13.21,16.28,13.24,16.32L13.24,16.32z"/>
				</g>
			</g>
			<g style="clip-path:url(#SVGID_00000032628997433864385060000005993401065599928214_);">
				<g>
					<path class="st2" d="M14.31,16.87c1.02,1.55,1.63,3.44,3.58,4.1c0.08,0.03,0.14-0.08,0.08-0.14c-0.66-0.68-1.46-1.12-2.05-1.89
						c-0.55-0.71-0.78-1.56-1.46-2.18C14.38,16.69,14.25,16.77,14.31,16.87L14.31,16.87z"/>
				</g>
			</g>
			<g style="clip-path:url(#SVGID_00000032628997433864385060000005993401065599928214_);">
				<g>
					<path class="st2" d="M14.41,15.87c0.96,1.81,2.26,3.6,4.07,4.65c0.04,0.02,0.09-0.03,0.05-0.07c-1.54-1.4-2.73-3.02-3.99-4.66
						C14.48,15.73,14.37,15.79,14.41,15.87L14.41,15.87z"/>
				</g>
			</g>
			<g style="clip-path:url(#SVGID_00000032628997433864385060000005993401065599928214_);">
				<g>
					<path class="st2" d="M15.25,16.39c1.16,1.06,2.12,2.28,3.22,3.39c0.05,0.05,0.15,0,0.12-0.07c-0.23-0.6-0.79-1.14-1.23-1.61
						c-0.61-0.67-1.27-1.3-2-1.85C15.28,16.18,15.17,16.32,15.25,16.39L15.25,16.39z"/>
				</g>
			</g>
		</g>
		<g>
			<defs>
				<path id="SVGID_00000108280988153166375560000008191609852294147255_" d="M25.49,22.16c0.19-0.11,0.5-0.36,0.62-0.54
					c0.59-0.85,0.85-1.76,0.88-2.79c0.01-0.39-0.03-0.77-0.1-1.16c-0.26-1.46-0.89-2.86-1.81-4.03c-0.33-0.42-0.72-0.83-1.22-1.03
					c-0.21-0.09-0.44-0.13-0.67-0.2c-0.51-0.15-0.99-0.39-1.51-0.53c-0.51-0.14-1.09-0.18-1.56,0.06c-0.2,1.78,0.27,3.56,0.82,5.26
					c0.39,1.2,0.83,2.4,1.52,3.46c0.29,0.44,0.62,0.86,1.04,1.17c0.43,0.31,0.96,0.51,1.48,0.46
					C25.17,22.29,25.34,22.25,25.49,22.16z"/>
			</defs>
			<use xlink:href="#SVGID_00000108280988153166375560000008191609852294147255_"  style="overflow:visible;fill:#191956;"/>
			<clipPath id="SVGID_00000150066497091898111260000011541529605298035903_">
				<use xlink:href="#SVGID_00000108280988153166375560000008191609852294147255_"  style="overflow:visible;"/>
			</clipPath>
			<g style="clip-path:url(#SVGID_00000150066497091898111260000011541529605298035903_);">
				<g>
					<path class="st2" d="M19.82,12.27c-0.13,0.96-0.01,1.68,0.57,2.48c0.48,0.66,0.8,1.13,0.41,1.98
						c-0.12,0.28-0.28,0.67-0.19,0.98c0.29,0.98,1.26,1.39,1.46,2.43c0.21,1.07-0.26,2.36,0.41,3.29c0.07,0.09,0.26,0.08,0.25-0.07
						c-0.1-1.04,0.1-2.06-0.1-3.09c-0.07-0.36-0.11-0.79-0.31-1.12c-0.28-0.46-0.73-0.73-1.05-1.16c-0.4-0.56,0.15-1.31,0.29-1.85
						c0.09-0.34-0.05-0.66-0.21-0.95c-0.29-0.55-0.8-0.94-1.04-1.54c-0.19-0.48-0.08-0.97-0.35-1.42
						C19.94,12.15,19.83,12.19,19.82,12.27L19.82,12.27z"/>
				</g>
			</g>
			<g style="clip-path:url(#SVGID_00000150066497091898111260000011541529605298035903_);">
				<g>
					<path class="st2" d="M20.51,11.86c-0.06,0.49,0.15,0.86,0.32,1.32c0.23,0.63,0.88,0.9,1.25,1.44c0.65,0.93-0.12,1.64-0.27,2.52
						c-0.05,0.3,0.09,0.7,0.31,0.92c0.44,0.44,0.97,0.68,1.36,1.19c0.73,0.94-0.2,1.62-0.23,2.52c-0.02,0.55,0.25,1.8,1.07,1.67
						c0.12-0.02,0.16-0.17,0.11-0.26c-0.35-0.58-0.69-0.89-0.52-1.63c0.13-0.57,0.45-0.93,0.45-1.53c0.01-0.92-0.87-1.6-1.57-2.02
						c-0.92-0.55-0.31-1.18-0.09-1.87c0.16-0.49,0.11-0.86-0.08-1.34c-0.13-0.33-0.4-0.7-0.69-0.91c-0.66-0.47-1.06-1.24-1.3-2.01
						C20.61,11.78,20.52,11.8,20.51,11.86L20.51,11.86z"/>
				</g>
			</g>
			<g style="clip-path:url(#SVGID_00000150066497091898111260000011541529605298035903_);">
				<g>
					<path class="st2" d="M21.66,11.98c0.2,0.52,0.48,0.97,0.82,1.41c0.57,0.74,1.28,0.98,1.02,2.1c-0.18,0.79-0.62,1.58,0.22,2.14
						c0.75,0.51,1.74,1.12,1.57,2.18c-0.09,0.55-0.52,0.99-0.68,1.51c-0.26,0.84,0.06,1.77,0.94,2.09c0.1,0.04,0.21-0.1,0.14-0.19
						c-0.51-0.72-0.94-1.27-0.46-2.15c0.2-0.38,0.43-0.71,0.56-1.12c0.3-0.88-0.47-1.81-1.13-2.28c-0.77-0.54-1.11-0.76-0.78-1.76
						c0.17-0.52,0.22-0.97,0.08-1.51c-0.09-0.35-0.37-0.6-0.63-0.83c-0.61-0.51-1.08-1.05-1.58-1.65
						C21.72,11.89,21.64,11.93,21.66,11.98L21.66,11.98z"/>
				</g>
			</g>
			<g style="clip-path:url(#SVGID_00000150066497091898111260000011541529605298035903_);">
				<g>
					<path class="st2" d="M23.31,12.58c1.1,0.73,1.59,1.68,1.24,3c-0.18,0.68-0.1,1.18,0.38,1.7c0.38,0.42,0.89,0.62,1.25,1.09
						c0.46,0.6,0.22,1.31,0.02,1.95c-0.21,0.68-0.36,1.39,0.06,2.03c0.06,0.09,0.18,0.05,0.19-0.05c0.11-1.89,1.46-3.84-0.72-5.09
						c-1.1-0.63-0.68-1.2-0.6-2.16c0.04-0.45,0.04-0.93-0.17-1.35c-0.3-0.59-0.88-1.27-1.59-1.36
						C23.24,12.34,23.22,12.52,23.31,12.58L23.31,12.58z"/>
				</g>
			</g>
			<g style="clip-path:url(#SVGID_00000150066497091898111260000011541529605298035903_);">
				<g>
					<path class="st2" d="M26.46,13.3c-0.68,0.6-1.14,1.71-0.88,2.59c0.3,1.02,1.59,1.77,2.63,1.63c0.09-0.01,0.11-0.16,0.03-0.19
						c-0.91-0.39-1.83-0.52-2.26-1.54c-0.25-0.61,0.19-1.89,0.6-2.36C26.66,13.34,26.55,13.23,26.46,13.3L26.46,13.3z"/>
				</g>
			</g>
		</g>
		<g>
			<path class="st11" d="M24.33,13.05c0.35,0,0.7-0.01,1.05-0.01c0.13,0,0.27-0.01,0.37-0.08c0.08-0.06,0.13-0.15,0.13-0.25
				c0-0.24-0.27-0.38-0.48-0.5c-0.13-0.08-0.25-0.18-0.36-0.29c-0.04-0.04,0.15-0.62,0.21-0.64c0.92-1.86,2.82-5.92,3.27-6.74
				c0.31,0.23,0.75,0.42,1.13,0.34c0.04-0.01,0.09-0.02,0.12-0.06c0.06-0.08-0.03-0.18-0.1-0.24c-0.28-0.22-0.59-0.41-0.9-0.57
				c0.19-0.37,0.31-0.55,0.45-0.9c0.03-0.08,0.24-0.81-0.16-0.78c-0.45,0.03-0.73,0.91-0.84,1.35c-0.28-0.15-0.63-0.3-0.97-0.41
				c-0.19-0.06-0.35,0.17-0.22,0.32c0.17,0.21,0.42,0.39,0.65,0.44c-1.38,2.07-2.65,4.22-3.79,6.43c-0.04,0.07-0.08,0.15-0.15,0.19
				c-0.07,0.04-0.18,0.01-0.2-0.07c0-0.01,0-0.12,0-0.13C23.91,7.89,24.4,5.42,25,2.91c0.22,0.05,0.45,0.03,0.68,0.08
				C25.8,3.01,25.92,3.03,26.03,3c0.12-0.04,0.21-0.16,0.18-0.27c-0.02-0.08-0.1-0.13-0.18-0.17c-0.28-0.14-0.62-0.12-0.93-0.13
				c0.08-0.31,0.31-0.9,0.27-1.21C25.34,1,25.03,0.97,24.94,1.17c-0.17,0.37-0.33,0.71-0.44,1.12c-0.26-0.21-0.69-0.33-0.97-0.34
				c-0.1,0-0.18,0.08-0.16,0.18c0.02,0.14,0.13,0.27,0.25,0.35c0.17,0.11,0.39,0.19,0.59,0.22c-0.62,2.61-1.59,5.15-2.7,7.6
				c-0.04,0.09-0.19,0.08-0.2-0.03c-0.24-1.4-0.4-2.52-0.41-3.95c-0.01-1.22,0.02-2.79,0.04-4.09c0-0.04,0.03-0.07,0.08-0.07
				c0.35,0,0.64,0.07,0.99-0.03c0.07-0.02,0.15-0.04,0.19-0.11c0.09-0.14-0.1-0.3-0.26-0.35c-0.27-0.08-0.78-0.05-0.9-0.03
				c-0.01,0-0.02-0.01-0.02-0.02c0.01-0.23,0-0.52,0.01-0.75c0-0.13,0.01-0.26-0.05-0.37c-0.06-0.11-0.19-0.2-0.31-0.16
				c-0.13,0.05-0.17,0.2-0.19,0.33c-0.05,0.32-0.08,0.64-0.08,0.96c0,0.02-0.02,0.03-0.04,0.03c-0.26-0.02-0.52-0.02-0.78,0.01
				c-0.12,0.01-0.25,0.03-0.34,0.12c-0.13,0.14-0.03,0.37,0.16,0.4c0.44,0.08,0.88-0.08,0.88-0.08c0.01,0,0.02,0.01,0.02,0.02
				c-0.53,4.16-0.95,7.73-1.45,8.03c-0.13,0.08-0.29,0.01-0.34-0.13c-0.58-1.69-0.95-3.45-1.26-5.22C17.08,4,16.89,3.21,16.97,2.38
				c0.01-0.09,0.08-0.16,0.17-0.17c0.24-0.03,0.51-0.15,0.71-0.26c0.06-0.04,0.12-0.08,0.15-0.15c0.06-0.14-0.07-0.32-0.22-0.35
				c-0.16-0.03-0.32,0.03-0.46,0.09c-0.15,0.07-0.3,0.14-0.46,0.13c-0.07,0-0.13-0.71-0.32-1.06c-0.06-0.1-0.18-0.06-0.22,0.06
				c-0.08,0.23-0.1,0.69-0.02,1.03c0.02,0.06-0.03,0.11-0.09,0.12c-0.28,0.03-0.61,0.08-0.87,0.11c-0.19,0.02-0.46,0.13-0.4,0.31
				c0.05,0.14,0.16,0.29,0.44,0.23c0.36-0.07,0.57-0.13,0.93-0.17c0.09,3.04,0.23,4.97,0.47,7.71c0.04,0.48-0.39,0.44-0.52,0.2
				c-0.55-0.97-1.38-2.76-1.9-3.74c-0.52-0.96-1.26-2-1.81-2.94c-0.09-0.16-0.15-0.33-0.18-0.51c-0.02-0.11-0.02-0.17,0.1-0.24
				c0.11-0.06,0.34-0.19,0.45-0.24C13.03,2.5,13.1,2.34,13,2.27c-0.03-0.02-0.07-0.03-0.11-0.03c-0.2-0.01-0.35,0.09-0.52,0.19
				c-0.07,0.04-0.5,0.27-0.67-0.53c-0.03-0.15-0.07-0.3-0.2-0.37c-0.29-0.17-0.5,0.14-0.46,0.38c0.03,0.2,0.17,0.36,0.28,0.53
				c0.11,0.17,0.2,0.38,0.12,0.57c-0.08,0.2-0.28,0.19-0.47,0.28c-0.1,0.05-0.21,0.14-0.28,0.24c-0.1,0.14,0.04,0.32,0.2,0.28
				c0.17-0.04,0.33-0.14,0.46-0.25c0.21-0.17,0.46-0.36,0.57-0.12c0.84,1.83,1.27,3.27,2.01,4.86c0.23,0.49,0.45,0.98,0.65,1.48
				c0.2,0.48,0.41,1.1,0.11,1.56c-0.14,0.22-0.37,0.36-0.58,0.51c-0.22,0.16-0.45,0.34-0.52,0.6c-0.08,0.27,0.1,0.55,0.38,0.61
				c1.15,0.24,2.4-0.08,3.58-0.15c2.38-0.14,4.78,0.33,7.15,0.08L24.33,13.05z"/>
		</g>
		<g>
			<g>
				<path class="st4" d="M14.12,12.74c0.31,0,0.31-0.47,0-0.47C13.81,12.27,13.81,12.74,14.12,12.74L14.12,12.74z"/>
			</g>
		</g>
		<g>
			<g>
				<path class="st4" d="M14.95,12.76c0.34,0,0.34-0.52,0-0.52S14.61,12.76,14.95,12.76L14.95,12.76z"/>
			</g>
		</g>
		<g>
			<g>
				<path class="st4" d="M15.94,12.76c0.33,0,0.33-0.51,0-0.51C15.6,12.25,15.6,12.76,15.94,12.76L15.94,12.76z"/>
			</g>
		</g>
		<g>
			<g>
				<path class="st4" d="M16.77,12.72c0.32,0,0.32-0.49,0-0.49C16.45,12.23,16.45,12.72,16.77,12.72L16.77,12.72z"/>
			</g>
		</g>
		<g>
			<g>
				<path class="st4" d="M17.78,12.7c0.36,0,0.36-0.56,0-0.56C17.42,12.15,17.42,12.7,17.78,12.7L17.78,12.7z"/>
			</g>
		</g>
		<g>
			<g>
				<path class="st4" d="M18.74,12.65c0.36,0,0.36-0.56,0-0.56C18.38,12.1,18.38,12.65,18.74,12.65L18.74,12.65z"/>
			</g>
		</g>
		<g>
			<g>
				<path class="st4" d="M19.63,12.66c0.01,0,0.01,0,0.02,0c0.21,0.02,0.33-0.24,0.23-0.4c-0.11-0.18-0.35-0.16-0.46,0
					c0,0-0.01,0.01-0.01,0.01C19.29,12.45,19.46,12.64,19.63,12.66L19.63,12.66z"/>
			</g>
		</g>
		<g>
			<g>
				<path class="st4" d="M20.56,12.68c0.33,0,0.33-0.5,0-0.5C20.23,12.18,20.23,12.68,20.56,12.68L20.56,12.68z"/>
			</g>
		</g>
		<g>
			<g>
				<path class="st4" d="M21.52,12.79c0.35,0,0.35-0.53,0-0.53C21.17,12.26,21.17,12.79,21.52,12.79L21.52,12.79z"/>
			</g>
		</g>
		<g>
			<g>
				<path class="st4" d="M22.4,12.81c0.38,0,0.38-0.57,0-0.57C22.03,12.24,22.03,12.81,22.4,12.81L22.4,12.81z"/>
			</g>
		</g>
		<g>
			<g>
				<path class="st4" d="M23.42,12.82c0.34,0,0.34-0.52,0-0.52C23.07,12.29,23.07,12.82,23.42,12.82L23.42,12.82z"/>
			</g>
		</g>
		<g>
			<g>
				<path class="st4" d="M24.3,12.8c0.32,0,0.32-0.48,0-0.48C23.98,12.31,23.98,12.8,24.3,12.8L24.3,12.8z"/>
			</g>
		</g>
		<g>
			<g>
				<path class="st4" d="M25.08,12.81c0.33,0,0.33-0.51,0-0.51C24.75,12.3,24.75,12.81,25.08,12.81L25.08,12.81z"/>
			</g>
		</g>
		<g>
			<g>
				<path class="st12" d="M15.69,10.49c0,0,0.01-0.01,0.01-0.01c0.12-0.13,0.12-0.32,0-0.45c0,0-0.01-0.01-0.01-0.01
					c-0.21-0.21-0.58-0.05-0.58,0.24C15.11,10.54,15.48,10.7,15.69,10.49L15.69,10.49z"/>
			</g>
		</g>
		<g>
			<g>
				<path class="st12" d="M17.55,10.3c0.23,0,0.42-0.19,0.42-0.41c0-0.22-0.19-0.41-0.42-0.41c-0.23,0-0.42,0.19-0.42,0.41
					C17.13,10.12,17.32,10.3,17.55,10.3L17.55,10.3z"/>
			</g>
		</g>
		<g>
			<g>
				<path class="st12" d="M20.18,10.18c0.23,0,0.42-0.19,0.42-0.41s-0.19-0.41-0.42-0.41c-0.23,0-0.42,0.19-0.42,0.41
					S19.95,10.18,20.18,10.18L20.18,10.18z"/>
			</g>
		</g>
		<g>
			<g>
				<path class="st12" d="M23.02,10.39c0,0,0.01-0.01,0.01-0.01c0.13-0.12,0.15-0.33,0.06-0.49C23,9.73,22.81,9.67,22.63,9.71
					c0,0-0.01,0-0.02,0c-0.26,0.06-0.37,0.38-0.25,0.59C22.51,10.54,22.83,10.57,23.02,10.39L23.02,10.39z"/>
			</g>
		</g>
		<g>
			<g>
				<path class="st12" d="M24.81,11.19c0,0,0.01-0.01,0.01-0.01c0.2-0.14,0.25-0.39,0.08-0.58c0,0-0.01-0.01-0.01-0.01
					c-0.2-0.21-0.57-0.1-0.65,0.17c-0.04,0.13,0,0.28,0.1,0.37C24.45,11.24,24.67,11.29,24.81,11.19L24.81,11.19z"/>
			</g>
		</g>
		<g>
			<g>
				<path class="st4" d="M18.56,4.39c0.34,0,0.34-0.52,0-0.52C18.22,3.87,18.22,4.39,18.56,4.39L18.56,4.39z"/>
			</g>
		</g>
		<g>
			<g>
				<path class="st4" d="M14.86,9.57C14.86,9.57,14.86,9.57,14.86,9.57c0,0.33,0.51,0.33,0.51,0.01c0,0,0-0.01,0-0.01
					C15.37,9.25,14.86,9.25,14.86,9.57L14.86,9.57z"/>
			</g>
		</g>
		<g>
			<g>
				<path class="st4" d="M17.42,9.39c0.39,0,0.39-0.59,0-0.59S17.03,9.39,17.42,9.39L17.42,9.39z"/>
			</g>
		</g>
		<g>
			<g>
				<path class="st4" d="M20.25,9.24c0.32,0,0.32-0.49,0-0.49C19.93,8.75,19.93,9.24,20.25,9.24L20.25,9.24z"/>
			</g>
		</g>
		<g>
			<g>
				<path class="st4" d="M22.97,9.51c0.34,0,0.34-0.52,0-0.52C22.63,8.99,22.63,9.51,22.97,9.51L22.97,9.51z"/>
			</g>
		</g>
		<g>
			<g>
				<path class="st4" d="M24.95,10.36c0.31,0,0.31-0.48,0-0.48C24.63,9.88,24.63,10.36,24.95,10.36L24.95,10.36z"/>
			</g>
		</g>
		<g>
			<g>
				<path class="st11" d="M26.64,27.64c-0.18,0.17-0.18,0.45-0.16,0.7c0.03,0.39,0.07,0.79,0.22,1.15c0.15,0.36,0.43,0.69,0.81,0.8
					c0.45,0.14,3.57-0.16,4.66-0.29c0.21-0.02,0.43-0.06,0.62-0.15c0.49-0.21,0.83-0.69,0.91-1.2c0.11-0.73-0.3-1.5-0.98-1.82
					c-0.63-0.3-1.38-0.21-2.07-0.1c-1.24,0.18-2.48,0.37-3.68,0.75C26.85,27.51,26.73,27.55,26.64,27.64z"/>
			</g>
			<g>
				<path class="st8" d="M25.99,26.64c-0.21-0.57,0.05-1.21,0.25-1.79c0.1-0.3,1.37-1.56,3.32-2.32c1.55-0.61,2.7,0.26,3.25,0.62
					c0.59,0.39,1.06,1.7,0.9,2.39c-0.19,0.81-0.65,1.25-1.45,1.5c-1.32,0.41-1.94,0.13-2.99,0.28c-0.83,0.11-1.91,0.52-2.68,0.2
					C26.28,27.4,26.1,26.94,25.99,26.64z"/>
			</g>
			<g>
				<g>
					<path class="st12" d="M30.69,23.05c0.66-0.4,1.48,0.59,1.8,1.04c0.24,0.34,0.4,0.73,0.4,1.15c0,0.47-0.38,0.96-0.9,0.82
						c-0.18-0.05-0.37-0.25-0.34-0.45c0.02-0.16,0.13-0.38,0.14-0.44c0.01-0.22-0.1-0.47-0.2-0.66c-0.21-0.42-0.51-0.8-0.89-1.08
						C30.57,23.32,30.54,23.14,30.69,23.05L30.69,23.05z"/>
				</g>
			</g>
			<g>
				<g>
					<path class="st12" d="M29.64,23.52c0.44-0.07,0.82,0.69,1,1c0.31,0.55,0.43,1.24-0.14,1.66c-0.39,0.28-0.93-0.27-0.66-0.65
						c0.21-0.29-0.08-0.71-0.2-0.99C29.56,24.32,29.19,23.59,29.64,23.52L29.64,23.52z"/>
				</g>
			</g>
			<g>
				<g>
					<path class="st12" d="M28.62,24.41c0.15,0.22,0.18,0.53,0.25,0.79c0.07,0.28,0.16,0.62,0.12,0.91
						c-0.07,0.49-0.68,0.59-0.86,0.12c-0.11-0.28-0.1-0.61-0.13-0.91c-0.03-0.29-0.04-0.64,0.1-0.9
						C28.21,24.19,28.5,24.23,28.62,24.41L28.62,24.41z"/>
				</g>
			</g>
			<g>
				<g>
					<path class="st12" d="M27.23,25.03c0.07,0.24,0.01,0.49,0.05,0.74c0.04,0.3,0.19,0.57,0.28,0.86c0.09,0.29-0.31,0.54-0.53,0.3
						c-0.43-0.48-0.67-1.57-0.06-2.01C27.07,24.86,27.2,24.93,27.23,25.03L27.23,25.03z"/>
				</g>
			</g>
			<g>
				<g>
					<path class="st6" d="M32.62,27.54c-0.17,0-0.17-0.26,0-0.26S32.79,27.54,32.62,27.54L32.62,27.54z"/>
				</g>
			</g>
			<g>
				<g>
					<path class="st6" d="M33.21,28.05c-0.1,0-0.1-0.16,0-0.16S33.31,28.05,33.21,28.05L33.21,28.05z"/>
				</g>
			</g>
			<g>
				<g>
					<path class="st6" d="M32.56,28.33c-0.21,0-0.21-0.32,0-0.32S32.77,28.33,32.56,28.33L32.56,28.33z"/>
				</g>
			</g>
			<g>
				<g>
					<path class="st6" d="M32.85,28.92c-0.14,0-0.14-0.21,0-0.21C32.99,28.71,32.99,28.92,32.85,28.92L32.85,28.92z"/>
				</g>
			</g>
			<g>
				<g>
					<path class="st6" d="M31.99,28.88c-0.02,0-0.02-0.02,0-0.02C32.01,28.85,32.01,28.88,31.99,28.88L31.99,28.88z"/>
				</g>
			</g>
			<g>
				<g>
					<path class="st6" d="M31.94,28.91c-0.12,0-0.12-0.19,0-0.19C32.06,28.72,32.06,28.91,31.94,28.91L31.94,28.91z"/>
				</g>
			</g>
			<g>
				<g>
					<path class="st6" d="M31.86,27.63c-0.13,0-0.13-0.2,0-0.2C31.99,27.44,31.99,27.63,31.86,27.63L31.86,27.63z"/>
				</g>
			</g>
			<g>
				<g>
					<path class="st6" d="M31.5,28.2c-0.17,0-0.17-0.26,0-0.26C31.67,27.94,31.67,28.2,31.5,28.2L31.5,28.2z"/>
				</g>
			</g>
			<g>
				<g>
					<path class="st6" d="M32.33,29.75c-0.19,0-0.19-0.29,0-0.29C32.52,29.46,32.52,29.75,32.33,29.75L32.33,29.75z"/>
				</g>
			</g>
			<g>
				<g>
					<path class="st6" d="M31.27,29.38c-0.17,0-0.17-0.26,0-0.26S31.43,29.38,31.27,29.38L31.27,29.38z"/>
				</g>
			</g>
			<g>
				<g>
					<path class="st6" d="M30.82,28.75c-0.15,0-0.15-0.22,0-0.22C30.97,28.52,30.97,28.75,30.82,28.75L30.82,28.75z"/>
				</g>
			</g>
			<g>
				<g>
					<path class="st6" d="M30.67,27.89c-0.17,0-0.17-0.25,0-0.25C30.83,27.64,30.83,27.89,30.67,27.89L30.67,27.89z"/>
				</g>
			</g>
			<g>
				<g>
					<path class="st6" d="M29.76,27.73c-0.15,0-0.15-0.23,0-0.23C29.91,27.49,29.91,27.73,29.76,27.73L29.76,27.73z"/>
				</g>
			</g>
			<g>
				<g>
					<path class="st6" d="M29.86,28.45c-0.16,0-0.16-0.24,0-0.24C30.02,28.21,30.02,28.45,29.86,28.45L29.86,28.45z"/>
				</g>
			</g>
			<g>
				<g>
					<path class="st6" d="M29.19,28.15c-0.1,0-0.1-0.15,0-0.15C29.29,27.99,29.29,28.15,29.19,28.15L29.19,28.15z"/>
				</g>
			</g>
			<g>
				<g>
					<path class="st6" d="M30.07,29.25c-0.17,0-0.17-0.27,0-0.27S30.25,29.25,30.07,29.25L30.07,29.25z"/>
				</g>
			</g>
			<g>
				<g>
					<path class="st6" d="M30.54,29.9c-0.11,0-0.11-0.17,0-0.17C30.65,29.73,30.65,29.9,30.54,29.9L30.54,29.9z"/>
				</g>
			</g>
			<g>
				<g>
					<path class="st6" d="M31.62,29.96c0,0-0.01,0.01-0.01,0.01c-0.07,0.06-0.2,0.02-0.2-0.08c0-0.1,0.12-0.14,0.2-0.08
						c0,0,0.01,0.01,0.01,0.01C31.66,29.85,31.66,29.92,31.62,29.96L31.62,29.96z"/>
				</g>
			</g>
			<g>
				<g>
					<path class="st6" d="M29.24,29.19c-0.15,0-0.15-0.23,0-0.23C29.39,28.95,29.39,29.19,29.24,29.19L29.24,29.19z"/>
				</g>
			</g>
			<g>
				<g>
					<path class="st6" d="M29.47,29.94c-0.13,0-0.13-0.2,0-0.2C29.6,29.74,29.6,29.94,29.47,29.94L29.47,29.94z"/>
				</g>
			</g>
		</g>
		<g>
			<g>
				<g>
					<path class="st12" d="M17.41,30.02c0.02,0.36,0.01,0.59,0.19,0.92c0.2,0.37,0.37,0.52,0.69,0.79c0.34,0.3,0.93,0.49,1.38,0.48
						c0.59-0.01,0.71-0.03,1.26-0.23c0.42-0.15,0.74-0.49,1.02-0.82c0.74-0.89,0.55-2.35-0.22-3.16c-0.51-0.53-1.08-0.8-1.81-0.89
						c-0.45-0.06-1.1,0.07-1.49,0.29c-0.4,0.22-0.84,0.52-1.07,0.93c-0.34,0.59-0.61,1.29-0.4,1.99c0.17,0.58,0.19,0.64,0.55,1.13
						c0.15,0.2,0.36,0.36,0.56,0.51c0.2,0.15,0.44,0.27,0.68,0.34c0.6,0.17,0.73,0.15,1.35,0.1c0.64-0.05,1.31-0.57,1.66-1.08
						c0.52-0.76,0.59-1.69,0.19-2.53c-0.26-0.54-0.75-0.97-1.32-1.18c-0.83-0.3-1.65-0.09-2.34,0.41c-0.39,0.29-0.6,0.67-0.8,1.1
						c0.1-0.18,0.19-0.37,0.29-0.55c-0.01,0.02-0.02,0.04-0.04,0.05c0.14-0.15,0.28-0.3,0.42-0.45c-0.01,0.01-0.02,0.01-0.02,0.02
						c0.17-0.11,0.35-0.22,0.52-0.33c-0.02,0.01-0.03,0.02-0.06,0.03c0.2-0.06,0.4-0.13,0.6-0.19c-0.01,0-0.02,0-0.03,0
						c0.22-0.01,0.43-0.02,0.65-0.03c-0.01,0-0.02,0-0.04,0c0.21,0.05,0.42,0.09,0.63,0.14c-0.03-0.01-0.06-0.01-0.08-0.03
						c0.19,0.09,0.37,0.19,0.56,0.29c-0.03-0.02-0.06-0.03-0.09-0.06c0.15,0.14,0.3,0.27,0.46,0.41c-0.02-0.02-0.05-0.04-0.06-0.07
						c0.11,0.17,0.22,0.34,0.34,0.51c-0.02-0.02-0.03-0.05-0.03-0.07c0.06,0.2,0.13,0.39,0.2,0.59c0-0.01,0-0.02-0.01-0.04
						c0.01,0.21,0.02,0.43,0.03,0.64c0-0.02,0-0.05,0.01-0.07c-0.05,0.21-0.09,0.42-0.14,0.62c0.01-0.02,0.02-0.05,0.03-0.07
						c-0.1,0.18-0.19,0.36-0.29,0.55c0.01-0.02,0.03-0.04,0.05-0.06c-0.14,0.15-0.28,0.3-0.42,0.45c0.02-0.02,0.04-0.04,0.07-0.05
						c-0.17,0.11-0.34,0.22-0.52,0.33c0.04-0.02,0.08-0.04,0.12-0.06c-0.2,0.06-0.4,0.13-0.59,0.19c0.03-0.01,0.06-0.02,0.09-0.02
						c-0.21,0.01-0.43,0.02-0.64,0.03c0.05,0,0.09,0,0.14,0.01c-0.21-0.05-0.42-0.09-0.63-0.13c0.05,0.02,0.09,0.03,0.14,0.05
						c-0.18-0.09-0.36-0.19-0.55-0.28c0.03,0.02,0.05,0.03,0.08,0.05c-0.15-0.13-0.3-0.27-0.45-0.4c0.03,0.02,0.05,0.05,0.07,0.08
						c-0.11-0.17-0.22-0.33-0.33-0.49c0.02,0.04,0.05,0.08,0.06,0.12c-0.06-0.19-0.12-0.37-0.19-0.55c0.01,0.02,0.01,0.03,0.01,0.05
						c-0.01-0.2-0.02-0.4-0.03-0.59c0,0.04,0,0.07-0.01,0.11c0.04-0.19,0.08-0.38,0.12-0.57c-0.01,0.04-0.03,0.08-0.05,0.12
						c0.08-0.16,0.17-0.32,0.25-0.48c-0.05,0.1-0.13,0.19-0.2,0.27c0.11-0.12,0.22-0.23,0.33-0.35c-0.04,0.04-0.08,0.08-0.13,0.11
						c0.13-0.08,0.25-0.16,0.38-0.24c-0.04,0.02-0.08,0.04-0.12,0.06c0.14-0.04,0.27-0.09,0.41-0.13c-0.05,0.02-0.1,0.03-0.15,0.04
						c0.14-0.01,0.27-0.01,0.41-0.02c-0.01,0-0.02,0-0.03,0c-0.42,0.02-0.76,0.07-1.09,0.35C17.67,29.24,17.39,29.65,17.41,30.02
						L17.41,30.02z"/>
				</g>
			</g>
			<g>
				<g>
					<path class="st12" d="M15.94,30.8c0.26-0.86,0.06-1.75,0.39-2.6c0.16-0.42,0.35-0.82,0.61-1.19c0.2-0.3,0.76-0.44,1.05-0.66
						c0.53-0.4-0.04-1.24-0.63-0.96c-1.11,0.53-1.59,1.07-2.08,2.19c-0.43,1-0.7,2.5,0.2,3.31C15.61,31.01,15.87,31.02,15.94,30.8
						L15.94,30.8z"/>
				</g>
			</g>
			<g>
				<g>
					<path class="st12" d="M21.11,33.78c2.39,0.93,4.66-3.44,2.87-5c-0.14-0.13-0.42-0.03-0.47,0.15c-0.12,0.43-0.08,0.83-0.08,1.27
						c-0.01,0.68-0.22,1.22-0.58,1.8c-0.44,0.71-0.97,1.06-1.75,1.34C20.87,33.41,20.93,33.71,21.11,33.78L21.11,33.78z"/>
				</g>
			</g>
			<g>
				<g>
					<path class="st4" d="M19.3,29.5c-0.2-0.02-0.41-0.09-0.61-0.14c-0.2-0.06-0.36-0.2-0.56-0.25c-0.32-0.08-0.65,0.08-0.68,0.43
						c-0.03,0.35,0.28,0.56,0.6,0.53c0.19-0.02,0.39,0,0.58-0.01c0.27-0.02,0.49-0.08,0.74-0.19C19.56,29.8,19.5,29.52,19.3,29.5
						L19.3,29.5z"/>
				</g>
			</g>
			<g>
				<g>
					<path class="st4" d="M19.42,30.21c-0.19,0.44-0.5,0.95-0.51,1.44c0,0.63,0.86,0.68,0.97,0.08c0.05-0.24,0.02-0.5,0.04-0.75
						c0.01-0.26-0.03-0.49-0.1-0.74C19.77,30.04,19.51,30.01,19.42,30.21L19.42,30.21z"/>
				</g>
			</g>
			<g>
				<g>
					<path class="st4" d="M19.92,29.16c0.18-0.41,0.33-0.94,0.38-1.38c0.07-0.63-0.9-0.7-0.99-0.08c-0.06,0.45-0.17,1.19,0.2,1.54
						C19.65,29.36,19.84,29.34,19.92,29.16L19.92,29.16z"/>
				</g>
			</g>
			<g>
				<g>
					<path class="st4" d="M19.94,29.83c0.16,0.24,0.51,0.34,0.78,0.4c0.4,0.09,0.92,0.18,1.2-0.2c0.24-0.31,0-0.78-0.38-0.8
						c-0.12-0.01-0.19,0.01-0.3,0.05c0.14-0.05-0.05,0-0.09,0c-0.14,0.01-0.28,0.04-0.41,0.05c-0.22,0.02-0.57,0.03-0.73,0.2
						C19.93,29.6,19.88,29.73,19.94,29.83L19.94,29.83z"/>
				</g>
			</g>
			<g>
				<g>
					<path class="st4" d="M16.02,28.01c0-0.01,0-0.01,0.01-0.02c0.04-0.15-0.02-0.31-0.17-0.36c-0.13-0.05-0.33,0.02-0.37,0.17
						c0,0.01,0,0.01,0,0.02c-0.04,0.15,0.01,0.3,0.17,0.36C15.8,28.23,15.98,28.16,16.02,28.01L16.02,28.01z"/>
				</g>
			</g>
			<g>
				<g>
					<path class="st4" d="M15.74,28.97c0.03-0.34-0.51-0.39-0.54-0.04C15.17,29.27,15.71,29.31,15.74,28.97L15.74,28.97z"/>
				</g>
			</g>
			<g>
				<g>
					<path class="st4" d="M15.7,29.87c0.02-0.28-0.42-0.32-0.44-0.04C15.24,30.12,15.68,30.15,15.7,29.87L15.7,29.87z"/>
				</g>
			</g>
			<g>
				<g>
					<path class="st4" d="M16.57,26.93c0.01-0.15-0.11-0.29-0.26-0.3c-0.16-0.01-0.3,0.1-0.31,0.26c-0.01,0.15,0.11,0.29,0.26,0.3
						C16.42,27.2,16.56,27.08,16.57,26.93L16.57,26.93z"/>
				</g>
			</g>
			<g>
				<g>
					<path class="st4" d="M17.14,26.26c0.02-0.23-0.34-0.26-0.36-0.03C16.76,26.45,17.12,26.48,17.14,26.26L17.14,26.26z"/>
				</g>
			</g>
			<g>
				<g>
					<path class="st4" d="M17.84,25.81c0.02-0.2-0.3-0.23-0.32-0.03C17.5,25.99,17.82,26.02,17.84,25.81L17.84,25.81z"/>
				</g>
			</g>
			<g>
				<g>
					<path class="st4" d="M23.8,32.24c0.01-0.17-0.12-0.32-0.29-0.33c-0.17-0.01-0.32,0.11-0.34,0.28
						c-0.01,0.17,0.12,0.32,0.29,0.33C23.63,32.53,23.79,32.4,23.8,32.24L23.8,32.24z"/>
				</g>
			</g>
			<g>
				<g>
					<path class="st4" d="M24.25,31.32c0.01-0.17-0.12-0.33-0.3-0.34c-0.18-0.01-0.33,0.12-0.35,0.29
						c-0.02,0.17,0.12,0.33,0.29,0.34C24.08,31.62,24.24,31.49,24.25,31.32L24.25,31.32z"/>
				</g>
			</g>
			<g>
				<g>
					<path class="st4" d="M23.05,33.02c0.02-0.3-0.45-0.34-0.47-0.04C22.56,33.29,23.03,33.32,23.05,33.02L23.05,33.02z"/>
				</g>
			</g>
			<g>
				<g>
					<path class="st4" d="M22.22,33.41c0.02-0.22-0.33-0.25-0.35-0.03C21.86,33.6,22.21,33.63,22.22,33.41L22.22,33.41z"/>
				</g>
			</g>
			<g>
				<g>
					<path class="st4" d="M24,30.02c-0.1,0.05-0.16,0.14-0.14,0.25c0.03,0.14,0.19,0.22,0.32,0.16C24.44,30.31,24.24,29.89,24,30.02
						L24,30.02z"/>
				</g>
			</g>
			<g>
				<g>
					<path class="st4" d="M23.77,29.38c0,0.01,0,0.01,0,0.02c-0.04,0.18,0.21,0.27,0.34,0.17c0.12-0.1,0.07-0.36-0.12-0.36
						c-0.01,0-0.01,0-0.02,0C23.86,29.22,23.8,29.28,23.77,29.38L23.77,29.38z"/>
				</g>
			</g>
			<g>
				<g>
					<path class="st6" d="M18.49,31.04C18.49,31.03,18.49,31.03,18.49,31.04c-0.03,0.05-0.06,0.12-0.09,0.18
						c0.1-0.1,0.14-0.26,0.06-0.39c-0.05-0.09-0.12-0.15-0.23-0.16c-0.12-0.01-0.25,0.06-0.29,0.18c-0.03,0.09-0.04,0.18,0.02,0.27
						c0.07,0.12,0.17,0.16,0.31,0.15c0,0,0.01,0,0.01,0C18.38,31.25,18.49,31.15,18.49,31.04L18.49,31.04z"/>
				</g>
			</g>
			<g>
				<g>
					<path class="st6" d="M21.04,31.14c0,0,0-0.01,0-0.01c-0.02-0.28-0.51-0.32-0.57-0.05c0,0,0,0.01,0,0.01
						c-0.04,0.18,0.04,0.38,0.26,0.39C20.93,31.5,21.05,31.33,21.04,31.14L21.04,31.14z"/>
				</g>
			</g>
			<g>
				<g>
					<path class="st6" d="M18.75,28.29c0.01-0.16-0.11-0.3-0.27-0.31c-0.16-0.01-0.31,0.11-0.32,0.27c-0.01,0.16,0.11,0.3,0.27,0.31
						C18.59,28.57,18.73,28.45,18.75,28.29L18.75,28.29z"/>
				</g>
			</g>
			<g>
				<g>
					<path class="st6" d="M20.8,28.12C20.8,28.12,20.8,28.12,20.8,28.12c-0.24,0.13-0.24,0.4-0.05,0.56c0,0,0,0,0.01,0
						c0.09,0.08,0.24,0.08,0.34,0.03c0.14-0.07,0.22-0.22,0.19-0.36c-0.06-0.33-0.53-0.36-0.65-0.05c0,0,0,0,0,0.01
						c0.17-0.05,0.33-0.1,0.5-0.16C21.03,28.09,20.91,28.06,20.8,28.12L20.8,28.12z"/>
				</g>
			</g>
		</g>
		<g>
			<g>
				<path class="st4" d="M15.44,33.82c0.05,0.05,0.1,0.08,0.17,0.1c0.1,0.03,0.22-0.02,0.27-0.11c0.07-0.12,0.02-0.25-0.09-0.32
					c-0.04-0.03-0.08-0.04-0.13-0.05C15.46,33.39,15.26,33.65,15.44,33.82L15.44,33.82z"/>
			</g>
		</g>
		<g>
			<g>
				<path class="st4" d="M20.87,26.51c0.19,0,0.19-0.29,0-0.29C20.68,26.22,20.68,26.51,20.87,26.51L20.87,26.51z"/>
			</g>
		</g>
		<g>
			<g>
				<path class="st4" d="M16.84,32.8c0.17,0,0.17-0.26,0-0.26C16.67,32.54,16.67,32.8,16.84,32.8L16.84,32.8z"/>
			</g>
		</g>
		<g>
			<g>
				<path class="st4" d="M18.31,34.94c0.27,0,0.27-0.41,0-0.41C18.04,34.53,18.04,34.94,18.31,34.94L18.31,34.94z"/>
			</g>
		</g>
		<g>
			<g>
				<path class="st4" d="M17.52,26.09c0.27,0,0.27-0.41,0-0.41S17.25,26.09,17.52,26.09L17.52,26.09z"/>
			</g>
		</g>
		<g>
			<g>
				<path class="st4" d="M16.1,35.46c-0.03,0.02-0.05,0.05-0.07,0.08c-0.12,0.25,0.23,0.45,0.37,0.21c0,0,0.01-0.01,0.01-0.01
					c-0.03,0.03-0.05,0.05-0.08,0.08c0.01-0.01,0.02-0.01,0.03-0.02c0.09-0.07,0.14-0.18,0.08-0.29
					C16.37,35.38,16.2,35.37,16.1,35.46L16.1,35.46z"/>
			</g>
		</g>
		<g>
			<g>
				<path class="st4" d="M21.75,24.64c0.28,0,0.28-0.44,0-0.44C21.47,24.2,21.47,24.64,21.75,24.64L21.75,24.64z"/>
			</g>
		</g>
		<g>
			<g>
				<path class="st4" d="M12.54,32.96c-0.07,0.01-0.11,0.04-0.17,0.08c-0.18,0.14,0.05,0.41,0.24,0.3c-0.01,0-0.01,0-0.02,0.01
					C12.88,33.35,12.83,32.91,12.54,32.96L12.54,32.96z"/>
			</g>
		</g>
		<g>
			<g>
				<path class="st4" d="M13.34,34.08c0,0.01,0.01,0.01,0.01,0.02c0.07,0.13,0.28,0.13,0.35,0c0-0.01,0.01-0.01,0.01-0.02
					c0.07-0.14-0.01-0.32-0.18-0.32C13.35,33.76,13.27,33.94,13.34,34.08L13.34,34.08z"/>
			</g>
		</g>
		<g>
			<path class="st5" d="M24.38,38.45c-0.49-0.03-0.99-0.05-1.45,0.12c-0.39,0.15-0.71,0.43-1.02,0.71c-0.48,0.43-0.97,0.86-1.4,1.34
				c-1.17,1.3-1.92,2.94-2.3,4.64c-0.08,0.35-0.14,0.73,0,1.06c0.21,0.48,0.76,0.7,1.26,0.87c0.7,0.24,1.42,0.48,2.17,0.51
				c0.45,0.01,0.89-0.06,1.33-0.12c0.72-0.11,1.43-0.22,2.15-0.33c0.3-0.05,0.41-0.16,0.64-0.35c0.42-0.35,0.6-0.92,0.6-1.47
				c0-0.14,0-0.29,0.08-0.41c0.07-0.12,0.2-0.2,0.32-0.28c0.77-0.51,1.41-1.21,1.86-2.01c0.11-0.2,0.21-0.44,0.11-0.64
				c-0.1-0.22-0.37-0.3-0.61-0.29c-0.24,0.01-0.48,0.08-0.72,0.08c0.01-0.51,0.02-1.02,0.03-1.53c0.01-0.32,0.01-0.67-0.15-0.95
				c-0.19-0.33-0.56-0.51-0.93-0.63C25.73,38.54,25.05,38.49,24.38,38.45z"/>
		</g>
		<g>
			<path class="st4" d="M27.19,39.64c0.54-0.05,0.81-0.61,0.93-1.14c0.06-0.26,0.08-0.53,0.08-0.79c0-0.9-0.19-1.81-0.7-2.56
				c-0.51-0.74-1.36-1.29-2.27-1.29c-0.42,0-0.83,0.11-1.23,0.24c-1.69,0.55-3.28,1.45-4.5,2.73c-1.22,1.28-2.05,2.95-2.17,4.7
				c-0.01,0.1,0,0.23,0.09,0.28c0.26,0.67,0.77,1.12,1.44,1.38c0.67,0.27,1.46,0.24,2.11-0.06c0.33-0.15,0.63-0.38,0.82-0.69
				c0.22-0.37,0.26-0.8,0.34-1.22c0.08-0.42,0.23-0.86,0.59-1.09c0.2-0.13,0.44-0.18,0.67-0.23c0.6-0.12,1.21-0.2,1.82-0.26
				L27.19,39.64z"/>
		</g>
		<g>
			<path class="st0" d="M22.71,44.33c0.57,0.07,1.11,0.3,1.64,0.53c-0.4,0.35-0.96,0.45-1.5,0.52c-1.06,0.14-2.2,0.2-3.14-0.29
				C20.66,44.66,21.67,44.22,22.71,44.33z"/>
		</g>
		<g>
			<path class="st4" d="M15.9,48.1c-0.25,0.13-0.41,0.38-0.55,0.63c-0.32,0.58-0.62,1.17-0.89,1.77c-0.1,0.21-0.25,0.17-0.2,0.4
				c0.05,0.22,0.29,0.67,0.46,0.82c0.22,0.2,0.69,0.7,0.91,0.9c0.34,0.31,1.45,1.04,1.85,1.18c1.32,0.46,2.91,0.54,4.26,0.16
				c0.47-0.13,0.92-0.33,1.35-0.54c0.78-0.39,1.55-0.91,1.88-1.71c0.31-0.74,0.18-1.59,0.04-2.38c-0.26-0.29-0.38-0.6-0.64-0.89
				c-0.19-0.22-0.39-0.43-0.65-0.56c-0.23-0.11-0.48-0.15-0.73-0.18c-2.06-0.24-4.16-0.24-6.22,0C16.43,47.75,16.03,47.78,15.9,48.1
				z"/>
		</g>
		<g>
			<path class="st6" d="M21.48,55.05c0.14-0.03,0.26-0.1,0.38-0.18c0.15-0.11,0.29-0.27,0.31-0.45c0.03-0.21-0.08-0.43-0.25-0.56
				c-0.17-0.13-0.4-0.18-0.61-0.17c-0.18,0-0.36,0.04-0.49,0.15c-0.07,0.06-0.12,0.13-0.16,0.2c-0.12,0.24-0.08,0.55,0.09,0.76
				C20.92,55,21.21,55.11,21.48,55.05z"/>
		</g>
		<g>
			<g>
				<path class="st4" d="M22.19,44.38c-0.25,0-0.45,0.2-0.45,0.45c0,0.24,0.21,0.45,0.45,0.45c0.25,0,0.45-0.2,0.45-0.45
					C22.64,44.59,22.43,44.38,22.19,44.38L22.19,44.38z"/>
			</g>
		</g>
		<g>
			<g>
				<path class="st4" d="M24.29,45.34c-0.66-0.07-1.35,0.07-2,0.13c-0.67,0.05-1.43-0.21-2.07-0.01c-0.15,0.05-0.19,0.22-0.09,0.34
					c0.48,0.56,1.48,0.45,2.16,0.4c0.71-0.06,1.52-0.22,2.07-0.71C24.41,45.43,24.36,45.35,24.29,45.34L24.29,45.34z"/>
			</g>
		</g>
		<g>
			<g>
				<path class="st4" d="M26.69,42.28c-0.09,0.18,0.13,0.38,0.29,0.22C27.18,42.3,26.8,42.05,26.69,42.28L26.69,42.28z"/>
			</g>
		</g>
		<g>
			<defs>
				<path id="SVGID_00000111167709029345083270000015204505684387719068_" d="M27.19,39.64c0.54-0.05,0.81-0.61,0.93-1.14
					c0.06-0.26,0.08-0.53,0.08-0.79c0-0.9-0.19-1.81-0.7-2.56c-0.51-0.74-1.36-1.29-2.27-1.29c-0.42,0-0.83,0.11-1.23,0.24
					c-1.69,0.55-3.28,1.45-4.5,2.73c-1.22,1.28-2.05,2.95-2.17,4.7c-0.01,0.1,0,0.23,0.09,0.28c0.26,0.67,0.77,1.12,1.44,1.38
					c0.67,0.27,1.46,0.24,2.11-0.06c0.33-0.15,0.63-0.38,0.82-0.69c0.22-0.37,0.26-0.8,0.34-1.22c0.08-0.42,0.23-0.86,0.59-1.09
					c0.2-0.13,0.44-0.18,0.67-0.23c0.6-0.12,1.21-0.2,1.82-0.26L27.19,39.64z"/>
			</defs>
			<clipPath id="SVGID_00000098928192790287470730000013867989208206528702_">
				<use xlink:href="#SVGID_00000111167709029345083270000015204505684387719068_"  style="overflow:visible;"/>
			</clipPath>
			<g style="clip-path:url(#SVGID_00000098928192790287470730000013867989208206528702_);">
				<g>
					<path class="st2" d="M27.76,39.9c0.08-0.45,0.31-0.91,0.22-1.38c-0.12-0.64-0.63-1.18-0.5-1.85c0.15-0.78,0.73-1.45,0.53-2.27
						c-0.01-0.05-0.1-0.04-0.09,0.01c0.08,1.01-0.78,1.52-0.84,2.42c-0.02,0.28,0,0.52,0.12,0.77c0.37,0.79,0.33,1.43,0.41,2.26
						C27.61,39.96,27.74,40,27.76,39.9L27.76,39.9z"/>
				</g>
			</g>
			<g style="clip-path:url(#SVGID_00000098928192790287470730000013867989208206528702_);">
				<g>
					<path class="st2" d="M28.73,38.34c-0.01-0.36-0.16-0.68-0.25-1.02c-0.06-0.21-0.09-0.44-0.06-0.66c0.03-0.17,0.12-0.3,0.1-0.47
						c-0.01-0.07-0.06-0.15-0.14-0.14c-0.45,0.05-0.54,0.57-0.48,0.94c0.08,0.5,0.34,1,0.63,1.4
						C28.58,38.48,28.73,38.46,28.73,38.34L28.73,38.34z"/>
				</g>
			</g>
			<g style="clip-path:url(#SVGID_00000098928192790287470730000013867989208206528702_);">
				<g>
					<path class="st2" d="M27.49,40.28c-0.85-1.02-1.04-3.06-0.7-4.31c0.16-0.57,0.76-1.03,0.75-1.65c-0.01-0.61-0.19-1.1-0.58-1.57
						c-0.07-0.09-0.19,0.01-0.17,0.1c0.1,0.6,0.37,1.09,0.24,1.72c-0.07,0.35-0.41,0.71-0.55,1.05c-0.27,0.68-0.23,1.35-0.18,2.07
						c0.06,0.87,0.17,2.33,1.13,2.7C27.49,40.42,27.53,40.32,27.49,40.28L27.49,40.28z"/>
				</g>
			</g>
			<g style="clip-path:url(#SVGID_00000098928192790287470730000013867989208206528702_);">
				<g>
					<path class="st2" d="M26.82,39.88c-0.65-0.54-1.04-1.44-1.15-2.25c-0.12-0.92,0.26-1.65,0.7-2.41
						c0.51-0.89,0.15-1.98-0.54-2.68c-0.07-0.07-0.22-0.02-0.21,0.08c0.13,0.98,0.82,1.55,0.2,2.62c-0.34,0.59-0.56,1.07-0.62,1.75
						c-0.09,1.01,0.35,2.79,1.51,3.07C26.81,40.07,26.9,39.95,26.82,39.88L26.82,39.88z"/>
				</g>
			</g>
			<g style="clip-path:url(#SVGID_00000098928192790287470730000013867989208206528702_);">
				<g>
					<path class="st2" d="M26.01,39.99c-0.48-0.58-1.03-1-1.47-1.64c-0.74-1.1,0.16-1.89,0.52-2.9c0.41-1.16,0.07-2.49-1.04-3.16
						c-0.1-0.06-0.25,0.04-0.21,0.16c0.37,1.04,1.15,1.62,0.73,2.86c-0.25,0.73-0.71,1.32-0.78,2.1c-0.11,1.16,1.27,2.25,2.16,2.72
						C25.99,40.17,26.07,40.06,26.01,39.99L26.01,39.99z"/>
				</g>
			</g>
			<g style="clip-path:url(#SVGID_00000098928192790287470730000013867989208206528702_);">
				<g>
					<path class="st2" d="M25.35,40.37c-0.68-0.64-1.35-1.15-1.92-1.91c-0.88-1.17,0.1-1.9,0.25-3.03c0.13-1.02-0.51-2.81-1.75-2.89
						c-0.1-0.01-0.13,0.12-0.08,0.18c0.63,0.8,1.36,1.28,1.42,2.39c0.05,0.84-0.69,1.5-0.71,2.33c-0.04,1.25,1.65,2.62,2.68,3.05
						C25.33,40.53,25.42,40.44,25.35,40.37L25.35,40.37z"/>
				</g>
			</g>
			<g style="clip-path:url(#SVGID_00000098928192790287470730000013867989208206528702_);">
				<g>
					<path class="st2" d="M24.12,40.3c-0.82-0.42-1.32-1.15-1.81-1.9c-0.41-0.65-0.54-1.33-0.12-2.03c0.14-0.24,0.32-0.46,0.42-0.71
						c0.45-1.13-0.39-2.62-1.44-3.15c-0.12-0.06-0.23,0.06-0.18,0.18c0.48,1.09,1.81,1.66,1.14,3.05c-0.25,0.53-0.68,1.04-0.59,1.67
						c0.16,1.09,1.26,3.01,2.54,3.03C24.15,40.43,24.18,40.33,24.12,40.3L24.12,40.3z"/>
				</g>
			</g>
			<g style="clip-path:url(#SVGID_00000098928192790287470730000013867989208206528702_);">
				<g>
					<path class="st2" d="M23.69,41.04c-1.16-1.19-3.16-2.17-2.55-4.16c0.37-1.21,0.51-2.47-0.63-3.35
						c-0.07-0.06-0.21-0.01-0.17,0.1c0.37,1.05,0.87,1.68,0.48,2.85c-0.23,0.69-0.3,1.19-0.1,1.89c0.37,1.29,1.8,2.16,2.92,2.73
						C23.69,41.13,23.73,41.08,23.69,41.04L23.69,41.04z"/>
				</g>
			</g>
			<g style="clip-path:url(#SVGID_00000098928192790287470730000013867989208206528702_);">
				<g>
					<path class="st2" d="M22.93,41.24c-1.04-0.6-1.93-1.38-2.53-2.42c-0.49-0.85-0.36-1.78-0.31-2.71c0.06-1.02-0.08-2.69-1.41-2.8
						c-0.12-0.01-0.16,0.14-0.09,0.22c0.35,0.36,0.72,0.59,0.91,1.08c0.15,0.4,0.14,0.86,0.13,1.28c-0.01,0.68-0.19,1.42-0.03,2.1
						c0.36,1.59,1.66,3.02,3.3,3.36C22.94,41.35,22.98,41.27,22.93,41.24L22.93,41.24z"/>
				</g>
			</g>
			<g style="clip-path:url(#SVGID_00000098928192790287470730000013867989208206528702_);">
				<g>
					<path class="st2" d="M22.6,41.5c-1.03-0.39-1.86-0.79-2.65-1.57c-0.77-0.75-0.84-1.97-0.84-2.96c0.01-1.11,0.12-2.89-1.34-3.16
						c-0.13-0.02-0.22,0.12-0.13,0.22c0.39,0.43,0.8,0.68,1.02,1.26c0.19,0.51,0.12,1.14,0.11,1.68c-0.01,0.8,0.04,1.67,0.4,2.4
						c0.52,1.05,2.14,2.47,3.42,2.21C22.65,41.58,22.64,41.52,22.6,41.5L22.6,41.5z"/>
				</g>
			</g>
			<g style="clip-path:url(#SVGID_00000098928192790287470730000013867989208206528702_);">
				<g>
					<path class="st2" d="M22.24,42.07c-1.15-0.2-2.08-0.94-2.83-1.78c-0.81-0.91-0.82-2.02-1.04-3.14
						c-0.21-1.07,0.01-2.63-1.36-2.96c-0.11-0.03-0.16,0.11-0.07,0.17c1.51,1.08,0.81,3.66,1.47,5.18c0.66,1.53,2.18,2.51,3.82,2.69
						C22.31,42.24,22.33,42.09,22.24,42.07L22.24,42.07z"/>
				</g>
			</g>
			<g style="clip-path:url(#SVGID_00000098928192790287470730000013867989208206528702_);">
				<g>
					<path class="st2" d="M22.27,42.7c-0.27-0.15-0.45-0.14-0.77-0.15c-0.84-0.01-1.47-0.66-2.08-1.15c-0.49-0.4-0.98-0.83-1.3-1.37
						c-0.31-0.52-0.51-1.17-0.78-1.71c-0.78-1.55-1.8-3.09-3.7-1.95c-0.04,0.02-0.01,0.1,0.04,0.08c2.7-1.12,3.24,2.82,4.44,4.3
						c1.01,1.25,2.48,2.31,4.15,2.06C22.31,42.79,22.32,42.72,22.27,42.7L22.27,42.7z"/>
				</g>
			</g>
			<g style="clip-path:url(#SVGID_00000098928192790287470730000013867989208206528702_);">
				<g>
					<path class="st2" d="M21.45,43.36c-1.16-0.15-2.02-0.77-2.73-1.64c-0.5-0.61-1.12-1.14-1.88-1.41
						c-0.11-0.04-0.2,0.12-0.11,0.19c0.42,0.39,0.9,0.71,1.34,1.08c0.42,0.37,0.69,0.86,1.13,1.22c0.6,0.49,1.5,0.73,2.26,0.69
						C21.55,43.5,21.54,43.37,21.45,43.36L21.45,43.36z"/>
				</g>
			</g>
		</g>
		<g>
			<path class="st8" d="M25.82,42.1c-0.39,0.1-0.81,0.1-1.22,0.07c-0.42-0.03-0.84-0.16-1.21-0.36c-0.43-0.24-0.74-0.53-1.03-0.92
				c-0.1-0.13-0.18-0.27-0.22-0.43c-0.06-0.27,0.06-0.56,0.25-0.76c0.19-0.2,0.46-0.32,0.73-0.4c1.04-0.3,2.24,0.06,2.93,0.88
				c0.09,0.11,0.2,0.23,0.34,0.23c0.15,0,0.24-0.14,0.33-0.26c0.18-0.26,0.36-0.41,0.6-0.6c0.17-0.14,0.4-0.34,0.62-0.32
				c0.36,0.03,0.56,0.45,0.53,0.81c-0.04,0.5-0.4,1.07-0.81,1.36C27.25,41.69,26.95,41.81,25.82,42.1z"/>
		</g>
		<g>
			<defs>
				<path id="SVGID_00000028315430227732712630000017585350969804642203_" d="M25.82,42.1c-0.39,0.1-0.81,0.1-1.22,0.07
					c-0.42-0.03-0.84-0.16-1.21-0.36c-0.43-0.24-0.74-0.53-1.03-0.92c-0.1-0.13-0.18-0.27-0.22-0.43c-0.06-0.27,0.06-0.56,0.25-0.76
					c0.19-0.2,0.46-0.32,0.73-0.4c1.04-0.3,2.24,0.06,2.93,0.88c0.09,0.11,0.2,0.23,0.34,0.23c0.15,0,0.21-0.15,0.31-0.27
					c0.2-0.26,0.34-0.34,0.68-0.66c0.16-0.15,0.34-0.28,0.56-0.26c0.36,0.03,0.56,0.45,0.53,0.81c-0.04,0.5-0.4,1.07-0.81,1.36
					C27.25,41.69,26.95,41.81,25.82,42.1z"/>
			</defs>
			<clipPath id="SVGID_00000072279976962302244970000000024682244412916098_">
				<use xlink:href="#SVGID_00000028315430227732712630000017585350969804642203_"  style="overflow:visible;"/>
			</clipPath>
			<g style="clip-path:url(#SVGID_00000072279976962302244970000000024682244412916098_);">
				<g>
					<path class="st2" d="M27.35,42.21c-0.63-0.88,0.83-1.75,1.04-2.61c0.14-0.55-0.14-1.08-0.65-1.29
						c-0.06-0.03-0.13,0.06-0.09,0.11c0.76,1.07,0.08,1.6-0.54,2.49c-0.33,0.47-0.27,1,0.15,1.37
						C27.3,42.31,27.39,42.26,27.35,42.21L27.35,42.21z"/>
				</g>
			</g>
			<g style="clip-path:url(#SVGID_00000072279976962302244970000000024682244412916098_);">
				<g>
					<path class="st2" d="M26.82,42.56c-0.1-0.53-0.24-0.98-0.11-1.53c0.09-0.35,0.38-0.69,0.54-1.01c0.19-0.38,0.31-0.77,0.08-1.16
						c-0.03-0.05-0.12-0.03-0.11,0.03c0.1,0.83-0.6,1.31-0.89,2.03c-0.24,0.58-0.03,1.26,0.39,1.7
						C26.76,42.67,26.83,42.62,26.82,42.56L26.82,42.56z"/>
				</g>
			</g>
			<g style="clip-path:url(#SVGID_00000072279976962302244970000000024682244412916098_);">
				<g>
					<path class="st2" d="M26.77,43.03c-1.09-1.39-1.44-4.31-3.55-4.65c-0.05-0.01-0.08,0.05-0.04,0.08
						c0.93,0.62,1.5,1.36,2.01,2.33c0.43,0.81,0.8,1.67,1.51,2.29C26.75,43.13,26.8,43.07,26.77,43.03L26.77,43.03z"/>
				</g>
			</g>
			<g style="clip-path:url(#SVGID_00000072279976962302244970000000024682244412916098_);">
				<g>
					<path class="st2" d="M25.7,42.49c-1.01-1.55-1.63-3.44-3.58-4.1c-0.08-0.03-0.14,0.08-0.08,0.14c0.66,0.68,1.46,1.12,2.05,1.89
						c0.55,0.71,0.78,1.56,1.47,2.18C25.63,42.67,25.76,42.58,25.7,42.49L25.7,42.49z"/>
				</g>
			</g>
			<g style="clip-path:url(#SVGID_00000072279976962302244970000000024682244412916098_);">
				<g>
					<path class="st2" d="M25.6,43.48c-0.96-1.81-2.25-3.6-4.07-4.65c-0.04-0.02-0.09,0.03-0.05,0.07c1.54,1.4,2.73,3.02,3.99,4.66
						C25.53,43.62,25.64,43.56,25.6,43.48L25.6,43.48z"/>
				</g>
			</g>
			<g style="clip-path:url(#SVGID_00000072279976962302244970000000024682244412916098_);">
				<g>
					<path class="st2" d="M24.76,42.96c-1.16-1.06-2.12-2.28-3.22-3.39c-0.05-0.05-0.15,0-0.12,0.07c0.23,0.6,0.79,1.14,1.23,1.61
						c0.61,0.67,1.27,1.3,2,1.85C24.73,43.17,24.84,43.03,24.76,42.96L24.76,42.96z"/>
				</g>
			</g>
		</g>
		<g>
			<defs>
				<path id="SVGID_00000053506137719945989460000014373221712105208483_" d="M14.52,37.19c-0.19,0.11-0.5,0.36-0.62,0.54
					c-0.59,0.85-0.85,1.76-0.88,2.79c-0.01,0.39,0.03,0.77,0.1,1.16c0.26,1.46,0.89,2.86,1.81,4.03c0.33,0.42,0.72,0.83,1.22,1.03
					c0.22,0.09,0.45,0.13,0.67,0.2c0.51,0.15,0.99,0.39,1.51,0.53c0.51,0.14,1.09,0.18,1.56-0.06c0.21-1.78-0.27-3.56-0.82-5.26
					c-0.39-1.2-0.83-2.4-1.52-3.46c-0.29-0.44-0.62-0.86-1.04-1.17c-0.43-0.31-0.96-0.51-1.48-0.46
					C14.84,37.07,14.67,37.11,14.52,37.19z"/>
			</defs>
			<use xlink:href="#SVGID_00000053506137719945989460000014373221712105208483_"  style="overflow:visible;fill:#191956;"/>
			<clipPath id="SVGID_00000059309601869888321810000013812407378325197483_">
				<use xlink:href="#SVGID_00000053506137719945989460000014373221712105208483_"  style="overflow:visible;"/>
			</clipPath>
			<g style="clip-path:url(#SVGID_00000059309601869888321810000013812407378325197483_);">
				<g>
					<path class="st2" d="M20.19,47.08c0.13-0.96,0.01-1.68-0.57-2.48c-0.48-0.66-0.8-1.13-0.41-1.98c0.13-0.28,0.28-0.67,0.19-0.98
						c-0.29-0.98-1.26-1.39-1.46-2.43c-0.21-1.07,0.26-2.36-0.41-3.29c-0.07-0.09-0.26-0.08-0.25,0.07c0.1,1.04-0.1,2.06,0.1,3.09
						c0.07,0.36,0.11,0.79,0.31,1.12c0.28,0.46,0.73,0.73,1.05,1.16c0.41,0.56-0.15,1.31-0.29,1.86c-0.09,0.34,0.06,0.66,0.21,0.95
						c0.29,0.55,0.8,0.94,1.04,1.54c0.19,0.48,0.08,0.97,0.35,1.42C20.07,47.21,20.18,47.16,20.19,47.08L20.19,47.08z"/>
				</g>
			</g>
			<g style="clip-path:url(#SVGID_00000059309601869888321810000013812407378325197483_);">
				<g>
					<path class="st2" d="M19.5,47.49c0.06-0.49-0.15-0.86-0.32-1.32c-0.23-0.63-0.88-0.9-1.26-1.44c-0.65-0.93,0.12-1.64,0.27-2.52
						c0.05-0.3-0.09-0.7-0.31-0.92c-0.44-0.44-0.97-0.68-1.36-1.19c-0.73-0.94,0.2-1.62,0.23-2.52c0.02-0.55-0.25-1.8-1.07-1.67
						c-0.12,0.02-0.17,0.17-0.11,0.26c0.36,0.58,0.69,0.89,0.52,1.63c-0.13,0.56-0.45,0.93-0.45,1.53c-0.01,0.92,0.87,1.6,1.57,2.02
						c0.92,0.55,0.31,1.18,0.09,1.87c-0.16,0.49-0.11,0.86,0.08,1.34c0.13,0.33,0.4,0.7,0.69,0.91c0.66,0.47,1.06,1.24,1.3,2.01
						C19.4,47.57,19.49,47.55,19.5,47.49L19.5,47.49z"/>
				</g>
			</g>
			<g style="clip-path:url(#SVGID_00000059309601869888321810000013812407378325197483_);">
				<g>
					<path class="st2" d="M18.35,47.37c-0.21-0.52-0.48-0.97-0.83-1.41c-0.57-0.74-1.28-0.98-1.02-2.1
						c0.18-0.79,0.62-1.58-0.22-2.15c-0.75-0.51-1.74-1.12-1.57-2.18c0.09-0.55,0.52-0.99,0.68-1.51c0.26-0.84-0.06-1.77-0.94-2.09
						c-0.1-0.04-0.21,0.1-0.15,0.19c0.51,0.72,0.94,1.27,0.46,2.15c-0.2,0.38-0.43,0.71-0.56,1.12c-0.3,0.88,0.47,1.81,1.13,2.28
						c0.77,0.54,1.11,0.76,0.78,1.76c-0.17,0.52-0.22,0.97-0.08,1.51c0.09,0.35,0.37,0.61,0.63,0.83c0.61,0.51,1.08,1.05,1.58,1.65
						C18.29,47.46,18.37,47.42,18.35,47.37L18.35,47.37z"/>
				</g>
			</g>
			<g style="clip-path:url(#SVGID_00000059309601869888321810000013812407378325197483_);">
				<g>
					<path class="st2" d="M16.7,46.77c-1.1-0.73-1.59-1.68-1.24-3c0.18-0.68,0.1-1.18-0.39-1.7c-0.38-0.42-0.89-0.62-1.25-1.09
						c-0.46-0.6-0.22-1.31-0.02-1.95c0.21-0.68,0.36-1.39-0.06-2.03c-0.06-0.09-0.18-0.05-0.19,0.05c-0.11,1.89-1.46,3.84,0.72,5.09
						c1.1,0.63,0.68,1.2,0.6,2.16c-0.04,0.45-0.04,0.93,0.17,1.35c0.3,0.59,0.88,1.27,1.59,1.36C16.77,47.01,16.79,46.83,16.7,46.77
						L16.7,46.77z"/>
				</g>
			</g>
			<g style="clip-path:url(#SVGID_00000059309601869888321810000013812407378325197483_);">
				<g>
					<path class="st2" d="M13.55,46.05c0.68-0.6,1.13-1.71,0.88-2.59c-0.3-1.02-1.59-1.77-2.63-1.63c-0.09,0.01-0.11,0.16-0.03,0.2
						c0.91,0.39,1.83,0.52,2.26,1.54c0.25,0.61-0.19,1.89-0.6,2.36C13.35,46.01,13.46,46.12,13.55,46.05L13.55,46.05z"/>
				</g>
			</g>
		</g>
		<g>
			<path class="st11" d="M15.68,46.3c-0.35,0-0.7,0.01-1.05,0.01c-0.13,0-0.27,0.01-0.37,0.08c-0.08,0.06-0.12,0.15-0.12,0.25
				c0,0.24,0.27,0.38,0.48,0.5c0.13,0.08,0.25,0.18,0.36,0.29c0.04,0.04-0.15,0.62-0.21,0.64c-0.92,1.86-2.82,5.92-3.27,6.74
				c-0.31-0.22-0.75-0.42-1.13-0.34c-0.05,0.01-0.09,0.02-0.12,0.06c-0.06,0.08,0.03,0.18,0.1,0.24c0.28,0.22,0.58,0.41,0.9,0.57
				c-0.19,0.37-0.31,0.55-0.45,0.9c-0.03,0.08-0.24,0.81,0.16,0.78c0.45-0.03,0.73-0.91,0.84-1.35c0.28,0.15,0.63,0.3,0.97,0.41
				c0.19,0.06,0.35-0.17,0.22-0.32c-0.18-0.21-0.42-0.39-0.65-0.44c1.38-2.07,2.65-4.22,3.79-6.43c0.04-0.07,0.08-0.15,0.15-0.18
				c0.07-0.04,0.18-0.01,0.2,0.06c0,0.01,0,0.12,0,0.13c-0.37,2.55-0.86,5.02-1.46,7.54c-0.23-0.05-0.45-0.03-0.68-0.08
				c-0.12-0.03-0.24-0.05-0.36-0.01c-0.12,0.04-0.21,0.16-0.18,0.27c0.03,0.08,0.1,0.13,0.18,0.17c0.27,0.14,0.62,0.12,0.93,0.13
				c-0.08,0.31-0.31,0.9-0.27,1.21c0.03,0.22,0.34,0.24,0.43,0.04c0.17-0.37,0.33-0.71,0.44-1.12c0.26,0.21,0.69,0.33,0.97,0.34
				c0.1,0,0.18-0.08,0.16-0.18c-0.02-0.14-0.13-0.27-0.25-0.35c-0.17-0.11-0.39-0.19-0.59-0.22c0.62-2.61,1.59-5.15,2.7-7.6
				c0.04-0.1,0.19-0.08,0.2,0.03c0.24,1.4,0.4,2.52,0.41,3.95c0.01,1.22-0.02,2.79-0.04,4.09c0,0.04-0.03,0.07-0.08,0.07
				c-0.35,0-0.64-0.07-0.99,0.03c-0.07,0.02-0.15,0.04-0.19,0.11c-0.09,0.14,0.1,0.3,0.26,0.35c0.28,0.08,0.78,0.05,0.89,0.03
				c0.01,0,0.02,0.01,0.02,0.02c-0.01,0.23,0,0.52-0.01,0.75c0,0.13-0.01,0.26,0.05,0.37c0.06,0.11,0.19,0.2,0.31,0.16
				c0.13-0.05,0.17-0.2,0.19-0.33c0.05-0.32,0.08-0.64,0.08-0.96c0-0.02,0.02-0.03,0.03-0.03c0.26,0.02,0.52,0.02,0.78-0.01
				c0.12-0.01,0.25-0.03,0.34-0.12c0.13-0.14,0.03-0.37-0.16-0.4c-0.44-0.08-0.88,0.08-0.88,0.08c-0.01,0-0.02-0.01-0.02-0.02
				c0.53-4.16,0.95-7.73,1.45-8.03c0.13-0.08,0.29-0.01,0.34,0.13c0.58,1.7,0.95,3.45,1.26,5.22c0.15,0.83,0.34,1.62,0.26,2.45
				c-0.01,0.09-0.08,0.16-0.17,0.17c-0.24,0.03-0.51,0.15-0.71,0.26c-0.06,0.04-0.12,0.08-0.15,0.15c-0.06,0.14,0.07,0.31,0.23,0.35
				c0.16,0.03,0.31-0.03,0.46-0.09c0.15-0.06,0.3-0.14,0.46-0.13c0.07,0,0.13,0.71,0.32,1.06c0.06,0.1,0.18,0.06,0.22-0.06
				c0.08-0.23,0.1-0.69,0.02-1.03c-0.02-0.06,0.03-0.11,0.09-0.12c0.28-0.03,0.61-0.08,0.87-0.11c0.19-0.02,0.45-0.13,0.4-0.31
				c-0.05-0.14-0.16-0.28-0.44-0.23c-0.36,0.07-0.58,0.13-0.94,0.17c-0.09-3.04-0.22-4.97-0.47-7.71c-0.04-0.48,0.39-0.44,0.52-0.2
				c0.55,0.97,1.37,2.76,1.9,3.74c0.52,0.96,1.26,2,1.81,2.94c0.09,0.16,0.15,0.33,0.18,0.51c0.02,0.11,0.02,0.17-0.1,0.24
				c-0.11,0.06-0.34,0.19-0.45,0.24c-0.11,0.06-0.18,0.23-0.08,0.3c0.03,0.02,0.07,0.03,0.11,0.03c0.2,0.01,0.35-0.09,0.52-0.19
				c0.07-0.04,0.5-0.27,0.67,0.53c0.03,0.15,0.07,0.3,0.2,0.37c0.29,0.17,0.5-0.14,0.46-0.38c-0.03-0.2-0.17-0.36-0.28-0.53
				c-0.11-0.17-0.2-0.38-0.12-0.57c0.08-0.19,0.28-0.19,0.47-0.28c0.1-0.05,0.21-0.14,0.28-0.24c0.1-0.14-0.04-0.32-0.2-0.28
				c-0.17,0.04-0.33,0.14-0.46,0.25c-0.21,0.17-0.46,0.36-0.57,0.12c-0.84-1.83-1.27-3.27-2-4.86c-0.23-0.49-0.45-0.98-0.65-1.48
				c-0.19-0.48-0.41-1.1-0.11-1.56c0.14-0.22,0.37-0.36,0.58-0.51c0.22-0.16,0.45-0.34,0.52-0.6c0.08-0.27-0.11-0.55-0.39-0.61
				c-1.15-0.24-2.4,0.07-3.57,0.15c-2.38,0.14-4.78-0.33-7.15-0.08L15.68,46.3z"/>
		</g>
		<g>
			<g>
				<path class="st4" d="M25.89,46.61c-0.31,0-0.31,0.47,0,0.47C26.2,47.09,26.2,46.61,25.89,46.61L25.89,46.61z"/>
			</g>
		</g>
		<g>
			<g>
				<path class="st4" d="M25.06,46.59c-0.34,0-0.34,0.52,0,0.52C25.4,47.11,25.4,46.59,25.06,46.59L25.06,46.59z"/>
			</g>
		</g>
		<g>
			<g>
				<path class="st4" d="M24.07,46.59c-0.34,0-0.34,0.51,0,0.51C24.41,47.11,24.41,46.59,24.07,46.59L24.07,46.59z"/>
			</g>
		</g>
		<g>
			<g>
				<path class="st4" d="M23.24,46.63c-0.32,0-0.32,0.49,0,0.49C23.56,47.12,23.56,46.63,23.24,46.63L23.24,46.63z"/>
			</g>
		</g>
		<g>
			<g>
				<path class="st4" d="M22.23,46.65c-0.36,0-0.36,0.56,0,0.56C22.59,47.2,22.59,46.65,22.23,46.65L22.23,46.65z"/>
			</g>
		</g>
		<g>
			<g>
				<path class="st4" d="M21.27,46.7c-0.36,0-0.36,0.56,0,0.56C21.63,47.26,21.63,46.7,21.27,46.7L21.27,46.7z"/>
			</g>
		</g>
		<g>
			<g>
				<path class="st4" d="M20.38,46.69c-0.01,0-0.01,0-0.02,0c-0.21-0.02-0.33,0.23-0.23,0.4c0.11,0.18,0.35,0.16,0.46,0
					c0,0,0.01-0.01,0.01-0.01C20.72,46.9,20.55,46.71,20.38,46.69L20.38,46.69z"/>
			</g>
		</g>
		<g>
			<g>
				<path class="st4" d="M19.45,46.68c-0.33,0-0.33,0.5,0,0.5C19.78,47.18,19.78,46.68,19.45,46.68L19.45,46.68z"/>
			</g>
		</g>
		<g>
			<g>
				<path class="st4" d="M18.49,46.56c-0.35,0-0.35,0.53,0,0.53C18.84,47.09,18.84,46.56,18.49,46.56L18.49,46.56z"/>
			</g>
		</g>
		<g>
			<g>
				<path class="st4" d="M17.61,46.54c-0.37,0-0.37,0.57,0,0.57C17.98,47.11,17.98,46.54,17.61,46.54L17.61,46.54z"/>
			</g>
		</g>
		<g>
			<g>
				<path class="st4" d="M16.59,46.54c-0.34,0-0.34,0.52,0,0.52C16.94,47.06,16.94,46.54,16.59,46.54L16.59,46.54z"/>
			</g>
		</g>
		<g>
			<g>
				<path class="st4" d="M15.71,46.56c-0.32,0-0.32,0.48,0,0.48C16.03,47.04,16.03,46.56,15.71,46.56L15.71,46.56z"/>
			</g>
		</g>
		<g>
			<g>
				<path class="st4" d="M14.93,46.54c-0.33,0-0.33,0.51,0,0.51C15.26,47.05,15.26,46.54,14.93,46.54L14.93,46.54z"/>
			</g>
		</g>
		<g>
			<g>
				<path class="st12" d="M24.32,48.86c0,0-0.01,0.01-0.01,0.01c-0.12,0.13-0.12,0.32,0,0.45c0,0,0.01,0.01,0.01,0.01
					c0.21,0.21,0.58,0.05,0.58-0.24C24.9,48.82,24.53,48.65,24.32,48.86L24.32,48.86z"/>
			</g>
		</g>
		<g>
			<g>
				<path class="st12" d="M22.46,49.05c-0.23,0-0.42,0.19-0.42,0.41c0,0.22,0.19,0.41,0.42,0.41c0.23,0,0.42-0.19,0.42-0.41
					C22.88,49.24,22.69,49.05,22.46,49.05L22.46,49.05z"/>
			</g>
		</g>
		<g>
			<g>
				<path class="st12" d="M19.83,49.17c-0.23,0-0.42,0.19-0.42,0.41c0,0.23,0.19,0.41,0.42,0.41s0.42-0.19,0.42-0.41
					C20.25,49.36,20.05,49.17,19.83,49.17L19.83,49.17z"/>
			</g>
		</g>
		<g>
			<g>
				<path class="st12" d="M16.99,48.96C16.99,48.97,16.98,48.97,16.99,48.96c-0.14,0.13-0.16,0.34-0.07,0.5
					c0.1,0.16,0.28,0.22,0.46,0.18c0,0,0.01,0,0.01,0c0.26-0.06,0.38-0.38,0.25-0.6C17.5,48.82,17.18,48.78,16.99,48.96L16.99,48.96
					z"/>
			</g>
		</g>
		<g>
			<g>
				<path class="st12" d="M15.2,48.16c-0.01,0-0.01,0.01-0.02,0.01c-0.2,0.14-0.25,0.39-0.08,0.58c0,0,0.01,0.01,0.01,0.01
					c0.2,0.21,0.57,0.1,0.65-0.17c0.04-0.13,0-0.28-0.1-0.37C15.56,48.11,15.34,48.06,15.2,48.16L15.2,48.16z"/>
			</g>
		</g>
		<g>
			<g>
				<path class="st4" d="M21.45,54.96c-0.34,0-0.34,0.52,0,0.52C21.79,55.48,21.79,54.96,21.45,54.96L21.45,54.96z"/>
			</g>
		</g>
		<g>
			<g>
				<path class="st4" d="M25.15,49.78C25.15,49.78,25.15,49.78,25.15,49.78c0-0.33-0.51-0.33-0.51-0.01c0,0,0,0.01,0,0.01
					C24.64,50.11,25.15,50.11,25.15,49.78L25.15,49.78z"/>
			</g>
		</g>
		<g>
			<g>
				<path class="st4" d="M22.59,49.96c-0.39,0-0.39,0.59,0,0.59C22.98,50.55,22.98,49.96,22.59,49.96L22.59,49.96z"/>
			</g>
		</g>
		<g>
			<g>
				<path class="st4" d="M19.76,50.11c-0.32,0-0.32,0.49,0,0.49C20.08,50.6,20.08,50.11,19.76,50.11L19.76,50.11z"/>
			</g>
		</g>
		<g>
			<g>
				<path class="st4" d="M17.04,49.84c-0.34,0-0.34,0.52,0,0.52C17.38,50.36,17.38,49.84,17.04,49.84L17.04,49.84z"/>
			</g>
		</g>
		<g>
			<g>
				<path class="st4" d="M15.06,48.99c-0.31,0-0.31,0.48,0,0.48C15.38,49.47,15.38,48.99,15.06,48.99L15.06,48.99z"/>
			</g>
		</g>
		<g>
			<g>
				<path class="st11" d="M13.37,31.72c0.18-0.17,0.18-0.45,0.16-0.7c-0.03-0.39-0.07-0.79-0.22-1.15c-0.15-0.36-0.43-0.69-0.81-0.8
					c-0.45-0.14-3.57,0.16-4.66,0.29c-0.21,0.02-0.43,0.06-0.63,0.15c-0.49,0.21-0.83,0.69-0.91,1.2c-0.11,0.73,0.3,1.5,0.97,1.82
					c0.63,0.3,1.38,0.21,2.08,0.1c1.24-0.18,2.48-0.37,3.68-0.75C13.16,31.84,13.28,31.8,13.37,31.72z"/>
			</g>
			<g>
				<path class="st8" d="M14.02,32.71c0.21,0.57-0.05,1.21-0.25,1.79c-0.1,0.3-1.37,1.56-3.32,2.32c-1.55,0.61-2.7-0.26-3.25-0.62
					c-0.59-0.39-1.06-1.7-0.9-2.39c0.19-0.81,0.65-1.25,1.45-1.5c1.32-0.41,1.94-0.13,2.99-0.28c0.83-0.11,1.91-0.52,2.68-0.2
					C13.73,31.96,13.91,32.41,14.02,32.71z"/>
			</g>
			<g>
				<g>
					<path class="st12" d="M9.32,36.3c-0.66,0.4-1.48-0.59-1.8-1.04c-0.24-0.34-0.4-0.73-0.4-1.15c0-0.48,0.38-0.96,0.9-0.82
						c0.19,0.05,0.37,0.25,0.34,0.45c-0.02,0.16-0.13,0.38-0.14,0.44c-0.01,0.22,0.1,0.47,0.2,0.66c0.21,0.42,0.51,0.8,0.89,1.08
						C9.44,36.03,9.47,36.21,9.32,36.3L9.32,36.3z"/>
				</g>
			</g>
			<g>
				<g>
					<path class="st12" d="M10.37,35.83c-0.44,0.07-0.82-0.69-1-1c-0.31-0.55-0.43-1.24,0.14-1.66c0.39-0.28,0.93,0.27,0.66,0.65
						c-0.21,0.29,0.08,0.71,0.2,0.99C10.45,35.03,10.82,35.76,10.37,35.83L10.37,35.83z"/>
				</g>
			</g>
			<g>
				<g>
					<path class="st12" d="M11.39,34.95c-0.15-0.22-0.18-0.53-0.25-0.79c-0.07-0.28-0.16-0.62-0.12-0.91
						c0.07-0.49,0.68-0.59,0.86-0.12c0.11,0.28,0.11,0.61,0.13,0.91c0.03,0.29,0.05,0.64-0.1,0.9
						C11.8,35.16,11.51,35.13,11.39,34.95L11.39,34.95z"/>
				</g>
			</g>
			<g>
				<g>
					<path class="st12" d="M12.78,34.32c-0.07-0.24-0.01-0.49-0.05-0.74c-0.04-0.3-0.19-0.57-0.28-0.86
						c-0.09-0.29,0.31-0.54,0.53-0.3c0.43,0.48,0.67,1.57,0.06,2.01C12.94,34.5,12.81,34.42,12.78,34.32L12.78,34.32z"/>
				</g>
			</g>
			<g>
				<g>
					<path class="st6" d="M7.4,31.81c0.17,0,0.17,0.26,0,0.26C7.22,32.08,7.22,31.81,7.4,31.81L7.4,31.81z"/>
				</g>
			</g>
			<g>
				<g>
					<path class="st6" d="M6.8,31.3c0.1,0,0.1,0.16,0,0.16C6.7,31.46,6.7,31.3,6.8,31.3L6.8,31.3z"/>
				</g>
			</g>
			<g>
				<g>
					<path class="st6" d="M7.45,31.02c0.21,0,0.21,0.31,0,0.31C7.24,31.34,7.24,31.02,7.45,31.02L7.45,31.02z"/>
				</g>
			</g>
			<g>
				<g>
					<path class="st6" d="M7.16,30.43c0.14,0,0.14,0.21,0,0.21C7.02,30.64,7.02,30.43,7.16,30.43L7.16,30.43z"/>
				</g>
			</g>
			<g>
				<g>
					<path class="st6" d="M8.02,30.47c0.02,0,0.02,0.02,0,0.02C8,30.5,8,30.47,8.02,30.47L8.02,30.47z"/>
				</g>
			</g>
			<g>
				<g>
					<path class="st6" d="M8.07,30.44c0.12,0,0.12,0.19,0,0.19C7.95,30.63,7.95,30.44,8.07,30.44L8.07,30.44z"/>
				</g>
			</g>
			<g>
				<g>
					<path class="st6" d="M8.15,31.72c0.13,0,0.13,0.2,0,0.2C8.02,31.92,8.02,31.72,8.15,31.72L8.15,31.72z"/>
				</g>
			</g>
			<g>
				<g>
					<path class="st6" d="M8.51,31.15c0.17,0,0.17,0.26,0,0.26S8.34,31.15,8.51,31.15L8.51,31.15z"/>
				</g>
			</g>
			<g>
				<g>
					<path class="st6" d="M7.68,29.6c0.19,0,0.19,0.29,0,0.29C7.49,29.89,7.49,29.6,7.68,29.6L7.68,29.6z"/>
				</g>
			</g>
			<g>
				<g>
					<path class="st6" d="M8.74,29.97c0.17,0,0.17,0.26,0,0.26C8.58,30.23,8.58,29.97,8.74,29.97L8.74,29.97z"/>
				</g>
			</g>
			<g>
				<g>
					<path class="st6" d="M9.19,30.61c0.15,0,0.15,0.22,0,0.22C9.04,30.83,9.04,30.61,9.19,30.61L9.19,30.61z"/>
				</g>
			</g>
			<g>
				<g>
					<path class="st6" d="M9.34,31.46c0.17,0,0.17,0.25,0,0.25C9.18,31.71,9.18,31.46,9.34,31.46L9.34,31.46z"/>
				</g>
			</g>
			<g>
				<g>
					<path class="st6" d="M10.25,31.62c0.15,0,0.15,0.23,0,0.23C10.1,31.86,10.1,31.62,10.25,31.62L10.25,31.62z"/>
				</g>
			</g>
			<g>
				<g>
					<path class="st6" d="M10.15,30.9c0.16,0,0.16,0.24,0,0.24C9.99,31.15,9.99,30.9,10.15,30.9L10.15,30.9z"/>
				</g>
			</g>
			<g>
				<g>
					<path class="st6" d="M10.82,31.2c0.1,0,0.1,0.15,0,0.15C10.72,31.36,10.72,31.2,10.82,31.2L10.82,31.2z"/>
				</g>
			</g>
			<g>
				<g>
					<path class="st6" d="M9.94,30.1c0.17,0,0.17,0.27,0,0.27C9.76,30.36,9.76,30.1,9.94,30.1L9.94,30.1z"/>
				</g>
			</g>
			<g>
				<g>
					<path class="st6" d="M9.47,29.45c0.11,0,0.11,0.17,0,0.17C9.36,29.62,9.36,29.45,9.47,29.45L9.47,29.45z"/>
				</g>
			</g>
			<g>
				<g>
					<path class="st6" d="M8.39,29.39c0,0,0.01-0.01,0.01-0.01c0.07-0.06,0.2-0.02,0.2,0.08c0,0.1-0.12,0.14-0.2,0.08
						c0,0-0.01-0.01-0.01-0.01C8.35,29.5,8.35,29.43,8.39,29.39L8.39,29.39z"/>
				</g>
			</g>
			<g>
				<g>
					<path class="st6" d="M10.77,30.17c0.15,0,0.15,0.23,0,0.23C10.62,30.4,10.62,30.17,10.77,30.17L10.77,30.17z"/>
				</g>
			</g>
			<g>
				<g>
					<path class="st6" d="M10.54,29.41c0.13,0,0.13,0.2,0,0.2C10.41,29.61,10.41,29.41,10.54,29.41L10.54,29.41z"/>
				</g>
			</g>
		</g>
		<g>
			<g>
				<path class="st4" d="M25.15,23.94c-0.05-0.05-0.1-0.08-0.17-0.1c-0.1-0.03-0.22,0.02-0.27,0.11c-0.07,0.12-0.02,0.25,0.09,0.32
					c0.04,0.03,0.08,0.04,0.13,0.05C25.13,24.37,25.34,24.11,25.15,23.94L25.15,23.94z"/>
			</g>
		</g>
		<g>
			<g>
				<path class="st4" d="M13.25,36.48c-0.19,0-0.19,0.29,0,0.29C13.44,36.77,13.44,36.48,13.25,36.48L13.25,36.48z"/>
			</g>
		</g>
		<g>
			<g>
				<path class="st4" d="M17.94,33.23c-0.17,0-0.17,0.26,0,0.26C18.11,33.49,18.11,33.23,17.94,33.23L17.94,33.23z"/>
			</g>
		</g>
		<g>
			<g>
				<path class="st4" d="M22.78,26.75c-0.27,0-0.27,0.41,0,0.41C23.05,27.17,23.05,26.75,22.78,26.75L22.78,26.75z"/>
			</g>
		</g>
		<g>
			<g>
				<path class="st4" d="M17.79,36.41c-0.27,0-0.27,0.41,0,0.41C18.06,36.82,18.06,36.41,17.79,36.41L17.79,36.41z"/>
			</g>
		</g>
		<g>
			<g>
				<path class="st4" d="M24.92,27.74c0.03-0.02,0.05-0.05,0.07-0.08c0.12-0.25-0.23-0.45-0.37-0.22c0,0-0.01,0.01-0.01,0.02
					c0.03-0.03,0.05-0.05,0.08-0.08c-0.01,0.01-0.02,0.01-0.03,0.02c-0.09,0.07-0.14,0.18-0.08,0.29
					C24.65,27.82,24.82,27.83,24.92,27.74L24.92,27.74z"/>
			</g>
		</g>
		<g>
			<g>
				<path class="st4" d="M23.58,25.21c-0.29,0-0.29,0.44,0,0.44C23.87,25.65,23.87,25.21,23.58,25.21L23.58,25.21z"/>
			</g>
		</g>
		<g>
			<g>
				<path class="st4" d="M27.52,22.28c0.07-0.01,0.11-0.04,0.17-0.09c0.18-0.14-0.05-0.41-0.24-0.3c0.01,0,0.01,0,0.02-0.01
					C27.17,21.89,27.23,22.34,27.52,22.28L27.52,22.28z"/>
			</g>
		</g>
		<g>
			<g>
				<path class="st4" d="M23.14,23.04c0-0.01-0.01-0.01-0.01-0.02c-0.07-0.13-0.28-0.13-0.35,0c0,0.01-0.01,0.01-0.01,0.02
					c-0.07,0.14,0.01,0.32,0.19,0.32C23.13,23.36,23.21,23.18,23.14,23.04L23.14,23.04z"/>
			</g>
		</g>
	</g>
	<g>
		<g>
			<g>
				<path class="st4" d="M5.3,11.34c0,0.1-0.04,0.24-0.04,0.33c0,0.1,0,0.2,0.01,0.29c0.04,0.33,0.16,0.65,0.41,0.88
					c-0.23,0.01-0.81,0.01-1.04,0c0.25-0.22,0.38-0.54,0.41-0.88c0.01-0.1,0.01-0.2,0.01-0.29c0-0.1-0.04-0.24-0.04-0.33H5.3z"/>
			</g>
		</g>
		<g>
			<g>
				<path class="st4" d="M5.23,11.58c0.1,0.01,0.15,0.11,0.33,0.29c0.16,0.17,0.32,0.35,0.68,0.39c0.18,0.02,0.43-0.08,0.54-0.22
					c0.09-0.12,0.15-0.27,0.19-0.42c0.07-0.28,0.05-0.56-0.09-0.81c-0.14-0.25-0.51-0.36-0.75-0.23c-0.12,0.07-0.16,0.16-0.28,0.18
					c-0.04,0.01-0.06-0.03-0.06-0.06c0.05-0.17,0.17-0.19,0.23-0.39c0.07-0.24,0.11-0.43-0.24-0.73c-0.27-0.23-0.92-0.21-1.2,0
					C4.28,9.8,4.26,9.99,4.32,10.23c0.05,0.19,0.16,0.28,0.22,0.44c0.02,0.05-0.04,0.11-0.09,0.09c-0.08-0.03-0.13-0.11-0.23-0.17
					c-0.23-0.14-0.61-0.02-0.74,0.23c-0.14,0.25-0.17,0.53-0.09,0.81c0.04,0.15,0.09,0.3,0.19,0.42c0.11,0.14,0.35,0.24,0.54,0.22
					c0.36-0.04,0.52-0.22,0.67-0.39c0.18-0.19,0.23-0.28,0.33-0.29H5.23z"/>
			</g>
		</g>
	</g>
	<g>
		<path class="st4" d="M7.69,8.42H6.92L5.24,5.36L3.95,6.95v1.48h-0.7V2.89h0.7V6.1l2.54-3.21h0.76L5.73,4.82L7.69,8.42z"/>
	</g>
	<g>
		<g>
			<g>
				<path class="st4" d="M34.7,48.66c0-0.1,0.04-0.24,0.04-0.33c0-0.1,0-0.2-0.01-0.29c-0.04-0.33-0.16-0.65-0.41-0.88
					c0.23-0.01,0.81-0.01,1.04,0c-0.25,0.22-0.38,0.54-0.41,0.88c-0.01,0.1-0.01,0.2-0.01,0.29c0,0.1,0.04,0.24,0.04,0.33H34.7z"/>
			</g>
		</g>
		<g>
			<g>
				<path class="st4" d="M34.77,48.42c-0.1-0.01-0.15-0.11-0.33-0.29c-0.16-0.17-0.32-0.35-0.68-0.39
					c-0.18-0.02-0.43,0.08-0.54,0.22c-0.09,0.12-0.15,0.27-0.19,0.42c-0.07,0.28-0.05,0.56,0.09,0.81c0.14,0.25,0.51,0.36,0.75,0.23
					c0.12-0.07,0.16-0.16,0.28-0.18c0.04-0.01,0.06,0.03,0.06,0.06c-0.05,0.17-0.17,0.19-0.23,0.39c-0.07,0.24-0.11,0.43,0.24,0.73
					c0.27,0.23,0.92,0.21,1.2,0c0.29-0.21,0.31-0.41,0.25-0.65c-0.05-0.19-0.16-0.28-0.21-0.44c-0.02-0.05,0.04-0.11,0.09-0.09
					c0.08,0.03,0.13,0.11,0.23,0.17c0.23,0.14,0.61,0.02,0.74-0.23c0.14-0.25,0.17-0.53,0.09-0.81c-0.04-0.15-0.09-0.3-0.18-0.42
					c-0.11-0.14-0.35-0.24-0.54-0.22c-0.36,0.04-0.52,0.22-0.67,0.39c-0.18,0.19-0.23,0.28-0.33,0.29H34.77z"/>
			</g>
		</g>
	</g>
	<g>
		<path class="st4" d="M32.31,51.58h0.77l1.68,3.06l1.29-1.58v-1.48h0.7v5.54h-0.7V53.9l-2.54,3.21h-0.76l1.52-1.94L32.31,51.58z"/>
	</g>
	<g>
		<g>
			<path class="st8" d="M10.1,56.94H5.96c-1.54,0-2.84-1.41-2.84-3.07V15.09c0-0.05,0.04-0.09,0.09-0.09c0.05,0,0.09,0.04,0.09,0.09
				v38.78c0,1.57,1.22,2.89,2.66,2.89h4.14c0.05,0,0.09,0.04,0.09,0.09C10.19,56.9,10.15,56.94,10.1,56.94z"/>
		</g>
		<g>
			<path class="st8" d="M32.03,56.94h-2.37c-0.05,0-0.09-0.04-0.09-0.09c0-0.05,0.04-0.09,0.09-0.09h2.37
				c0.05,0,0.09,0.04,0.09,0.09C32.12,56.9,32.08,56.94,32.03,56.94z"/>
		</g>
		<g>
			<path class="st8" d="M36.79,45.2c-0.05,0-0.09-0.04-0.09-0.09V6.13c0-1.6-1.23-2.89-2.75-2.89h-3.99c-0.05,0-0.09-0.04-0.09-0.09
				c0-0.05,0.04-0.09,0.09-0.09h3.99c1.62,0,2.94,1.38,2.94,3.07v38.97C36.88,45.16,36.84,45.2,36.79,45.2z"/>
		</g>
		<g>
			<path class="st8" d="M10.37,3.24H8.25c-0.05,0-0.09-0.04-0.09-0.09c0-0.05,0.04-0.09,0.09-0.09h2.12c0.05,0,0.09,0.04,0.09,0.09
				C10.46,3.2,10.42,3.24,10.37,3.24z"/>
		</g>
	</g>
</g>
</svg>
