<?xml version="1.0" encoding="utf-8"?>
<!-- Generator: Adobe Illustrator 26.3.1, SVG Export Plug-In . SVG Version: 6.00 Build 0)  -->
<svg version="1.1" id="Layer_1" xmlns="http://www.w3.org/2000/svg" xmlns:xlink="http://www.w3.org/1999/xlink" x="0px" y="0px"
	 viewBox="0 0 40 60" style="enable-background:new 0 0 40 60;" xml:space="preserve">
<style type="text/css">
	.st0{fill:#FFFFFF;}
	.st1{fill:#2D2D2D;}
	.st2{fill:#F70032;}
	.st3{fill:#990028;}
	.st4{fill:#FFD6A1;}
	.st5{fill:#B70027;}
	.st6{fill:#0C0A35;}
	.st7{clip-path:url(#SVGID_00000000941134269238752820000004679275838345289901_);}
	.st8{clip-path:url(#SVGID_00000039816271437051606050000015003385914933319864_);}
	.st9{clip-path:url(#SVGID_00000009548367532837373960000010213705289171285394_);}
	.st10{clip-path:url(#SVGID_00000128448122548278033890000006085023749336260743_);}
	.st11{clip-path:url(#SVGID_00000156582005623022824430000006760929685734497209_);}
	.st12{clip-path:url(#SVGID_00000034779539749431010510000007912346737714634913_);}
	.st13{fill:#222272;}
	.st14{fill:#D6002B;}
</style>
<g>
	<g>
		<path class="st0" d="M36.43,59.91H3.45c-1.86,0-3.36-1.49-3.36-3.32V3.41c0-1.84,1.51-3.32,3.36-3.32h32.97
			c1.86,0,3.36,1.49,3.48,3.26v53.17C39.79,58.42,38.28,59.91,36.43,59.91z"/>
		<path class="st1" d="M36.43,60H3.45C1.55,60,0,58.47,0,56.59V3.41C0,1.53,1.55,0,3.45,0h32.97C38.3,0,39.87,1.47,40,3.35v53.18
			C39.88,58.48,38.31,60,36.43,60z M3.45,0.18c-1.8,0-3.27,1.45-3.27,3.23v53.17c0,1.78,1.47,3.23,3.27,3.23h32.97
			c1.78,0,3.27-1.45,3.39-3.3V3.35c-0.12-1.78-1.61-3.17-3.39-3.17H3.45z"/>
	</g>
	<g>
		<g>
			<path class="st2" d="M31.17,34.91c0-0.23,1.42-2.78,2.41-4.04c1.29-1.64,1.23-4.63,0.51-5.41c-2.1-2.26-2.8-1.36-5.46-3.37
				c-0.51-0.39-1.73-1.49-2.24-1.88c-0.54-0.41,0.46-0.72-0.15-1.03c-1.47-0.74-3.09-1.14-4.7-1.53c-0.51-0.12-1.03-0.25-1.55-0.28
				c-0.5-0.03-1,0.04-1.5,0.11c-2,0.3-4.8,1.75-6.47,2.87c-1.67,1.12-0.99,0.5-5.46,3.52C4.43,25.33,4.69,28.99,5,29.75
				c0.83,2.09,4.19,4.38,4.35,5.35C15.03,36.01,31.17,36.61,31.17,34.91z"/>
		</g>
		<g>
			<path class="st2" d="M8.8,25.06c0,0.23-1.42,2.77-2.41,4.03c-1.29,1.64-1.23,4.63-0.51,5.41c2.09,2.26,2.8,1.36,5.46,3.37
				c0.51,0.39,1.73,1.49,2.24,1.88c0.54,0.41-0.45,0.72,0.15,1.03c1.47,0.74,3.09,1.14,4.7,1.53c0.51,0.13,1.03,0.25,1.55,0.28
				c0.5,0.03,1-0.04,1.5-0.11c2-0.3,4.8-1.75,6.47-2.87c1.67-1.12,0.99-0.5,5.46-3.52c2.14-1.44,1.88-5.11,1.58-5.87
				c-0.83-2.09-4.19-4.38-4.35-5.35C24.94,23.97,8.8,23.36,8.8,25.06z"/>
		</g>
		<g>
			<path class="st3" d="M16.89,23.57c0.5,0.4,1.26,0.11,1.76-0.29c0.5-0.4,0.98-0.91,1.62-0.98c0.63-0.07,1.22,0.32,1.85,0.38
				c0.53,0.05,1.07-0.14,1.45-0.52c0.28-0.28,0.47-0.65,0.81-0.85c0.58-0.33,1.3-0.03,1.96-0.08c0.45-0.04,1.11-0.42,1.4-0.76
				c0.05-0.05,0.09-0.12,0.1-0.19c0.01-0.14-0.12-0.25-0.25-0.32c-0.38-0.19-0.68-0.34-1.8-1.61c-0.35-0.4-0.41-1.02-0.84-1.34
				c-0.37-0.27-0.86-0.32-1.33-0.35c-2.19-0.12-4.4,0.05-6.55,0.5c-0.85,0.18-1.7,0.4-2.47,0.8c-0.6,0.31-1.14,0.71-1.67,1.11
				c-1.01,0.75-2.55,1.63-3.09,2.76c0.5-0.4,1.53-0.47,2.16-0.33c0.29,0.06,0.73,0.02,0.89,0.27c0.12,0.19,0.15,0.43,0.25,0.63
				c0.21,0.44,0.75,0.7,1.23,0.58c0.42-0.11,0.77-0.46,1.2-0.46c0.42,0.01,0.75,0.34,1,0.68C16.66,23.33,16.75,23.47,16.89,23.57z"
				/>
		</g>
		<g>
			<path class="st4" d="M23.23,8.42c-0.44-0.69-1.38-0.83-2.21-0.89c-1.44-0.11-2.93-0.22-4.28,0.3c-0.5,0.19-0.98,0.49-1.21,0.96
				c-0.13,0.27-0.17,0.57-0.25,0.86c-0.15,0.53-0.44,1.02-0.73,1.49c-0.55,0.91-1.11,1.81-1.66,2.72c-0.04,0.06-0.08,0.13-0.07,0.21
				c0.02,0.18,0.28,0.2,0.46,0.18c0.66-0.1,1.32-0.21,1.98-0.31c-0.04,0.32-0.29,0.59-0.33,0.92c-0.07,0.61-0.3,1.08,0.01,1.61
				c0.38,0.66,1.63,1.18,2.39,1.06c0.76-0.11,1.43-0.53,2.05-0.99c1.22-0.91,2.29-2.02,3.16-3.26c0.28-0.4,0.55-0.83,0.71-1.29
				c0.24-0.68,0.25-1.41,0.25-2.13C23.5,9.37,23.49,8.84,23.23,8.42z"/>
		</g>
		<g>
			<path class="st5" d="M22.31,13.01c-0.97,0.31-1.88,0.78-2.7,1.38c-0.7,0.52-1.57,0.78-2.32,1.22c-0.75,0.44-2.3,1.12-2.27-0.27
				c0-0.22-0.56,0.18-0.79,0.21c-0.18,0.02-0.31,0.18-0.42,0.32c-0.29,0.39-0.5,0.61-0.44,1.09c0.06,0.44,0.32,0.87,0.59,1.22
				c0.28,0.38,0.5,0.94,0.72,1.36c0.4,0.77,0.8,1.54,1.2,2.31c0.11,0.22,0.23,0.44,0.42,0.6c0.19,0.16,0.46,0.24,0.68,0.13
				c0.12-0.06,0.21-0.17,0.29-0.27c0.48-0.57,1.02-1.1,1.63-1.54c1.37-0.97,3.02-1.44,4.53-2.19c1.51-0.74,2.97-1.9,3.33-3.53
				c0.2-0.9,0.01-1.88-0.5-2.65c-0.09-0.14-0.2-0.27-0.35-0.33c-0.17-0.07-0.36-0.04-0.53-0.01C24.32,12.27,23.35,12.68,22.31,13.01
				z"/>
		</g>
		<g>
			<path class="st3" d="M16.25,7.2c-0.03-0.09-0.03-0.19-0.02-0.29c0.03-0.27,0.09-0.54,0.15-0.81c0.21-0.91,0.39-2.11,1.23-2.7
				c0.28-0.19,0.6-0.3,0.92-0.41c0.71-0.24,1.52-0.54,2.23-0.79c-0.12-0.18-0.16-0.33-0.27-0.5c-0.06-0.1-0.06-0.23,0.01-0.33
				c0.16-0.21,0.32-0.51,0.44-0.75c0.05-0.09,0.17-0.08,0.22,0c0.11,0.23,0.23,0.48,0.38,0.69c0.08,0.11,0.1,0.25,0.05,0.37
				c-0.09,0.22-0.19,0.49-0.18,0.52c0.01,0.04,1.61,0.48,2.06,0.64c0.79,0.28,1.63,0.6,2.14,1.26c0.27,0.35,0.43,0.77,0.59,1.19
				c0.16,0.43,0.32,0.85,0.48,1.28c-1.19,0.07-2.39,0.13-3.58,0.2c-0.48,0.03-0.96,0.05-1.45,0.06c-0.37,0-0.74-0.01-1.12,0
				c-1.38,0.05-2.74,0.5-4.12,0.45c-0.05,0-0.09-0.02-0.13-0.05C16.24,7.2,16.19,7.22,16.25,7.2z"/>
		</g>
		<g>
			<path class="st0" d="M16.89,10.5c0.43-0.48,1-0.71,1.58-0.81c1.01-0.17,1.4,0.17,1.83,0.58c-0.76,0.49-1.64,0.68-2.51,0.55
				C17.48,10.77,17.17,10.68,16.89,10.5z"/>
		</g>
		<g>
			<g>
				<path class="st6" d="M18.14,9.99c-0.08,0.14-0.09,0.27-0.06,0.43c0.04,0.22,0.21,0.32,0.4,0.4c0.22,0.09,0.5-0.06,0.61-0.24
					c0.13-0.22,0.07-0.46-0.08-0.64c-0.03-0.04-0.07-0.08-0.12-0.1c-0.16-0.07-0.17-0.07-0.03-0.01c0.06,0.06,0.13,0.13,0.19,0.19
					c0,0,0-0.01-0.01-0.01c-0.1-0.15-0.25-0.25-0.45-0.25C18.41,9.74,18.22,9.83,18.14,9.99L18.14,9.99z"/>
			</g>
		</g>
		<g>
			<defs>
				<path id="SVGID_1_" d="M22.31,13.01c-0.97,0.31-1.88,0.78-2.7,1.38c-0.7,0.52-1.57,0.78-2.32,1.22
					c-0.75,0.44-2.3,1.12-2.27-0.27c0-0.22-0.56,0.18-0.79,0.21c-0.18,0.02-0.31,0.18-0.42,0.32c-0.29,0.39-0.5,0.61-0.44,1.09
					c0.06,0.44,0.32,0.87,0.59,1.22c0.28,0.38,0.5,0.94,0.72,1.36c0.4,0.77,0.8,1.54,1.2,2.31c0.11,0.22,0.23,0.44,0.42,0.6
					c0.19,0.16,0.46,0.24,0.68,0.13c0.12-0.06,0.21-0.17,0.29-0.27c0.48-0.57,1.02-1.1,1.63-1.54c1.37-0.97,3.02-1.44,4.53-2.19
					c1.51-0.74,2.97-1.9,3.33-3.53c0.2-0.9,0.01-1.88-0.5-2.65c-0.09-0.14-0.2-0.27-0.35-0.33c-0.17-0.07-0.36-0.04-0.53-0.01
					C24.32,12.27,23.35,12.68,22.31,13.01z"/>
			</defs>
			<clipPath id="SVGID_00000128483749935275378360000014131326210138842040_">
				<use xlink:href="#SVGID_1_"  style="overflow:visible;"/>
			</clipPath>
			<g style="clip-path:url(#SVGID_00000128483749935275378360000014131326210138842040_);">
				<g>
					<path class="st6" d="M14.19,14.39C14.14,15.34,14,16.28,14,17.23c0,0.96,0.11,1.92,0.15,2.88c0,0.08,0.13,0.11,0.15,0.02
						c0.16-0.84,0.18-1.68,0.14-2.54c-0.05-1.07,0.04-2.13-0.02-3.2C14.41,14.25,14.19,14.25,14.19,14.39L14.19,14.39z"/>
				</g>
			</g>
			<g style="clip-path:url(#SVGID_00000128483749935275378360000014131326210138842040_);">
				<g>
					<path class="st6" d="M15.18,14.14c-0.04,0.67-0.18,1.32-0.21,1.99c-0.04,0.82,0,1.65-0.03,2.47c-0.05,1.44-0.39,3.06-0.01,4.47
						c0.02,0.1,0.18,0.1,0.2,0c0.28-1.31,0.18-2.79,0.21-4.13c0.03-1.6,0-3.21,0.01-4.81C15.35,14.04,15.19,14.04,15.18,14.14
						L15.18,14.14z"/>
				</g>
			</g>
			<g style="clip-path:url(#SVGID_00000128483749935275378360000014131326210138842040_);">
				<g>
					<path class="st6" d="M15.79,14.39c-0.14,3.55-0.19,7.07,0.5,10.57c0.02,0.09,0.15,0.06,0.15-0.02
						c0.15-1.72-0.18-3.52-0.23-5.24c-0.05-1.77-0.05-3.53-0.23-5.3C15.98,14.26,15.8,14.26,15.79,14.39L15.79,14.39z"/>
				</g>
			</g>
			<g style="clip-path:url(#SVGID_00000128483749935275378360000014131326210138842040_);">
				<g>
					<path class="st6" d="M16.76,14.21c-0.14,3.54-0.19,7.07,0.5,10.57c0.02,0.09,0.15,0.06,0.15-0.02
						c0.15-1.72-0.18-3.52-0.23-5.24c-0.05-1.77-0.04-3.53-0.23-5.3C16.94,14.09,16.77,14.09,16.76,14.21L16.76,14.21z"/>
				</g>
			</g>
			<g style="clip-path:url(#SVGID_00000128483749935275378360000014131326210138842040_);">
				<g>
					<path class="st6" d="M17.4,14.25c-0.15,1.89,0.1,3.78,0.34,5.65c0.2,1.52,0.24,3.25,0.94,4.65c0.03,0.07,0.15,0.04,0.14-0.04
						c-0.11-1.64-0.43-3.3-0.62-4.94c-0.21-1.78-0.37-3.57-0.64-5.34C17.54,14.14,17.4,14.17,17.4,14.25L17.4,14.25z"/>
				</g>
			</g>
			<g style="clip-path:url(#SVGID_00000128483749935275378360000014131326210138842040_);">
				<g>
					<path class="st6" d="M18.29,13.35c-0.22,0.83-0.12,1.75-0.09,2.6c0.02,0.98,0.11,1.98,0.26,2.95c0.17,1.07,0.41,2.12,0.59,3.19
						c0.12,0.72,0.01,1.59,0.53,2.17c0.06,0.06,0.19,0.02,0.17-0.07c-0.21-1.58-0.41-3.13-0.72-4.7c-0.21-1.05-0.32-2.11-0.43-3.18
						c-0.1-0.93-0.33-2.02-0.24-2.95C18.36,13.32,18.3,13.31,18.29,13.35L18.29,13.35z"/>
				</g>
			</g>
			<g style="clip-path:url(#SVGID_00000128483749935275378360000014131326210138842040_);">
				<g>
					<path class="st6" d="M18.83,13.29c-0.04,0.88-0.14,1.7-0.02,2.59c0.1,0.77,0.29,1.52,0.44,2.28c0.35,1.81,0.7,3.76,1.38,5.47
						c0.03,0.08,0.16,0.07,0.15-0.02c-0.14-1.74-0.67-3.51-1.03-5.23c-0.18-0.85-0.39-1.7-0.56-2.56c-0.17-0.85-0.14-1.71-0.29-2.55
						C18.88,13.25,18.83,13.26,18.83,13.29L18.83,13.29z"/>
				</g>
			</g>
			<g style="clip-path:url(#SVGID_00000128483749935275378360000014131326210138842040_);">
				<g>
					<path class="st6" d="M19.8,13.11c-0.4,1.27,0.15,2.8,0.48,4.03c0.45,1.67,1.02,3.32,1.47,4.99c0.02,0.08,0.16,0.09,0.18,0
						c0.1-0.52-0.04-0.96-0.18-1.46c-0.2-0.77-0.42-1.54-0.65-2.3c-0.24-0.79-0.49-1.57-0.72-2.36c-0.25-0.86-0.68-1.97-0.45-2.86
						C19.96,13.06,19.82,13.02,19.8,13.11L19.8,13.11z"/>
				</g>
			</g>
			<g style="clip-path:url(#SVGID_00000128483749935275378360000014131326210138842040_);">
				<g>
					<path class="st6" d="M20.58,12.13c-0.2,0.6-0.06,1.21,0.03,1.82c0.15,1.02,0.42,2.02,0.73,3c0.57,1.8,1.13,3.7,1.93,5.41
						c0.04,0.08,0.17,0.04,0.16-0.04c-0.02-0.76-0.36-1.52-0.57-2.25c-0.25-0.87-0.58-1.73-0.9-2.58c-0.32-0.86-0.58-1.74-0.8-2.62
						c-0.22-0.84-0.56-1.84-0.48-2.71C20.68,12.09,20.6,12.08,20.58,12.13L20.58,12.13z"/>
				</g>
			</g>
			<g style="clip-path:url(#SVGID_00000128483749935275378360000014131326210138842040_);">
				<g>
					<path class="st6" d="M21.34,12.07c0.04,1.52,0.41,2.93,0.9,4.36c0.53,1.57,0.89,3.31,1.7,4.76c0.05,0.09,0.18,0.02,0.16-0.07
						c-0.47-3.11-2.33-5.91-2.6-9.06C21.49,11.97,21.34,11.97,21.34,12.07L21.34,12.07z"/>
				</g>
			</g>
			<g style="clip-path:url(#SVGID_00000128483749935275378360000014131326210138842040_);">
				<g>
					<path class="st6" d="M22.62,11.81c-0.07,1.6,0.42,3.11,0.95,4.6c0.26,0.73,0.6,1.44,0.87,2.17c0.21,0.57,0.19,1.18,0.61,1.66
						c0.08,0.09,0.2-0.01,0.18-0.11c-0.47-2.87-2.01-5.43-2.47-8.33C22.75,11.71,22.62,11.74,22.62,11.81L22.62,11.81z"/>
				</g>
			</g>
			<g style="clip-path:url(#SVGID_00000128483749935275378360000014131326210138842040_);">
				<g>
					<path class="st6" d="M23.81,11.12c-0.29,2.93,1.21,5.43,2.41,7.99c0.04,0.08,0.14,0.02,0.13-0.05
						c-0.22-1.37-0.92-2.56-1.43-3.83c-0.53-1.32-0.74-2.73-1.01-4.11C23.9,11.05,23.82,11.07,23.81,11.12L23.81,11.12z"/>
				</g>
			</g>
			<g style="clip-path:url(#SVGID_00000128483749935275378360000014131326210138842040_);">
				<g>
					<path class="st6" d="M24.92,11.1c-0.31,1.19,0.31,2.68,0.69,3.8c0.46,1.33,0.94,3.01,1.82,4.14c0.05,0.07,0.2,0.06,0.19-0.05
						c-0.16-1.22-0.82-2.43-1.27-3.57c-0.26-0.64-0.49-1.3-0.71-1.95c-0.25-0.73-0.64-1.57-0.54-2.35
						C25.11,11.03,24.95,11.01,24.92,11.1L24.92,11.1z"/>
				</g>
			</g>
			<g style="clip-path:url(#SVGID_00000128483749935275378360000014131326210138842040_);">
				<g>
					<path class="st6" d="M25.9,10.92c-0.18,2.34,1.53,4.52,2.47,6.55c0.04,0.08,0.14,0.02,0.13-0.06c-0.14-1.03-0.69-1.9-1.16-2.81
						c-0.59-1.13-1.13-2.43-1.31-3.7C26.03,10.82,25.91,10.85,25.9,10.92L25.9,10.92z"/>
				</g>
			</g>
		</g>
		<g>
			<defs>
				<path id="SVGID_00000138536633779040033400000005415335855000819085_" d="M12.92,16.2c0.11-0.37,0.62-1.63,1.97-2.21
					c0.4-0.17,0.8-0.4,1.23-0.37c0.43,0.04,0.82,0.27,1.18,0.5c0.63,0.39,1.29,0.81,1.69,1.43c-1.14,0.13-2.32-0.08-3.35-0.59
					C14.86,15.53,13.88,16.04,12.92,16.2z"/>
			</defs>
			<use xlink:href="#SVGID_00000138536633779040033400000005415335855000819085_"  style="overflow:visible;fill:#B70027;"/>
			<clipPath id="SVGID_00000042718098851818793210000007168977074437967520_">
				<use xlink:href="#SVGID_00000138536633779040033400000005415335855000819085_"  style="overflow:visible;"/>
			</clipPath>
			<g style="clip-path:url(#SVGID_00000042718098851818793210000007168977074437967520_);">
				<g>
					<path class="st6" d="M14.04,12.59c-0.61,1.67-1.29,3.5-1.33,5.3c0,0.09,0.14,0.11,0.16,0.02c0.46-1.76,0.76-3.54,1.32-5.28
						C14.22,12.54,14.07,12.5,14.04,12.59L14.04,12.59z"/>
				</g>
			</g>
			<g style="clip-path:url(#SVGID_00000042718098851818793210000007168977074437967520_);">
				<g>
					<path class="st6" d="M14.75,12.5c-0.99,1.81-1.28,3.88-1.42,5.89c-0.01,0.09,0.14,0.13,0.18,0.05
						c0.34-0.78,0.36-1.65,0.54-2.47c0.25-1.13,0.33-2.33,0.85-3.38C14.93,12.49,14.8,12.42,14.75,12.5L14.75,12.5z"/>
				</g>
			</g>
			<g style="clip-path:url(#SVGID_00000042718098851818793210000007168977074437967520_);">
				<g>
					<path class="st6" d="M15.52,12.11c-0.35,0.94-0.61,1.9-0.86,2.87c-0.25,0.98-0.59,1.96-0.71,2.96
						c-0.01,0.11,0.14,0.13,0.19,0.05c1.03-1.65,1.18-3.97,1.51-5.84C15.69,12.05,15.56,12.02,15.52,12.11L15.52,12.11z"/>
				</g>
			</g>
			<g style="clip-path:url(#SVGID_00000042718098851818793210000007168977074437967520_);">
				<g>
					<path class="st6" d="M15.85,11.9c0.01,1.89-0.02,3.82,0.33,5.69c0.02,0.1,0.15,0.06,0.16-0.02c0.21-1.88-0.19-3.79-0.31-5.66
						C16.02,11.79,15.85,11.78,15.85,11.9L15.85,11.9z"/>
				</g>
			</g>
			<g style="clip-path:url(#SVGID_00000042718098851818793210000007168977074437967520_);">
				<g>
					<path class="st6" d="M16.61,12c-0.03,1.19,0.14,2.34,0.22,3.52c0.06,0.88,0.12,1.8,0.61,2.56c0.05,0.08,0.18,0.03,0.16-0.07
						c-0.2-0.92-0.26-1.85-0.35-2.78c-0.1-1.08-0.34-2.15-0.47-3.23C16.77,11.89,16.61,11.89,16.61,12L16.61,12z"/>
				</g>
			</g>
			<g style="clip-path:url(#SVGID_00000042718098851818793210000007168977074437967520_);">
				<g>
					<path class="st6" d="M17.32,12.72c0.01,1.04,0.27,2.02,0.49,3.03c0.21,1,0.1,2.17,0.57,3.1c0.05,0.09,0.19,0.05,0.19-0.05
						c0-2.07-0.9-4.03-1.03-6.08C17.52,12.59,17.32,12.59,17.32,12.72L17.32,12.72z"/>
				</g>
			</g>
			<g style="clip-path:url(#SVGID_00000042718098851818793210000007168977074437967520_);">
				<g>
					<path class="st6" d="M18.18,13.26c0.01,1.04,0.27,2.02,0.49,3.03c0.21,1,0.1,2.17,0.57,3.1c0.05,0.09,0.19,0.05,0.19-0.05
						c0-2.07-0.9-4.03-1.03-6.08C18.38,13.13,18.17,13.13,18.18,13.26L18.18,13.26z"/>
				</g>
			</g>
		</g>
		<g>
			<defs>
				<path id="SVGID_00000116207326618484247610000018434917747228662695_" d="M20.97,7.76c0.22,1.01,0.44,2.03,0.66,3.04
					c0.23,1.08,0.47,2.17,0.43,3.27c0,0.14,0.1,0.23,0.23,0.2c2.27-0.46,4.27-1.78,6.42-2.61c0.12-0.05,0.16-0.2,0.07-0.29
					c-0.96-0.99-1.6-2.29-1.8-3.65c-0.01-0.09-0.09-0.16-0.18-0.15c-1.87,0.06-3.74,0.12-5.62,0.18
					C21.01,7.76,20.86,7.64,20.97,7.76z"/>
			</defs>
			<use xlink:href="#SVGID_00000116207326618484247610000018434917747228662695_"  style="overflow:visible;fill:#B70027;"/>
			<clipPath id="SVGID_00000034089121359624582890000014809331445956206009_">
				<use xlink:href="#SVGID_00000116207326618484247610000018434917747228662695_"  style="overflow:visible;"/>
			</clipPath>
			<g style="clip-path:url(#SVGID_00000034089121359624582890000014809331445956206009_);">
				<g>
					<path class="st6" d="M21.25,7.01c0.16,1.72,0.59,3.49,0.93,5.18c0.25,1.25,0.21,3.32,1.28,4.21c0.09,0.08,0.22,0,0.2-0.11
						c-0.11-0.65-0.43-1.27-0.6-1.91c-0.19-0.76-0.3-1.54-0.45-2.31c-0.17-0.88-0.36-1.76-0.55-2.65C21.89,8.59,21.54,7.82,21.35,7
						C21.34,6.94,21.24,6.96,21.25,7.01L21.25,7.01z"/>
				</g>
			</g>
			<g style="clip-path:url(#SVGID_00000034089121359624582890000014809331445956206009_);">
				<g>
					<path class="st6" d="M21.99,6.68c0.02,1.69,0.43,3.27,0.87,4.89c0.42,1.52,0.38,3.45,1.28,4.79c0.06,0.08,0.21,0.08,0.23-0.03
						c0.11-0.53-0.12-0.98-0.28-1.49c-0.29-0.88-0.38-1.83-0.59-2.74c-0.42-1.81-1.14-3.56-1.32-5.42
						C22.16,6.57,21.99,6.56,21.99,6.68L21.99,6.68z"/>
				</g>
			</g>
			<g style="clip-path:url(#SVGID_00000034089121359624582890000014809331445956206009_);">
				<g>
					<path class="st6" d="M22.82,6.46c0.42,1.68,0.6,3.38,1.16,5.03c0.29,0.87,0.53,1.76,0.8,2.63c0.15,0.5,0.3,1.03,0.76,1.34
						c0.07,0.04,0.17-0.03,0.14-0.11c-0.51-1.41-0.81-2.9-1.3-4.33c-0.5-1.48-0.61-3.27-1.39-4.64C22.94,6.3,22.8,6.36,22.82,6.46
						L22.82,6.46z"/>
				</g>
			</g>
			<g style="clip-path:url(#SVGID_00000034089121359624582890000014809331445956206009_);">
				<g>
					<path class="st6" d="M24,6.27c-0.11,1.58,0.32,3.12,0.83,4.6c0.29,0.85,0.6,1.68,0.86,2.54c0.23,0.76,0.43,1.56,0.9,2.22
						c0.09,0.12,0.26,0.05,0.23-0.1c-0.25-1.52-0.83-3.05-1.37-4.49c-0.59-1.57-0.98-3.16-1.26-4.81C24.17,6.13,24.01,6.17,24,6.27
						L24,6.27z"/>
				</g>
			</g>
			<g style="clip-path:url(#SVGID_00000034089121359624582890000014809331445956206009_);">
				<g>
					<path class="st6" d="M25.01,6.15c0.03,1.89,0.77,3.55,1.39,5.3c0.41,1.17,0.29,3.29,1.43,4.03c0.08,0.05,0.16-0.03,0.14-0.11
						c-0.14-0.66-0.4-1.28-0.53-1.95c-0.14-0.72-0.3-1.41-0.54-2.11c-0.6-1.71-1.43-3.34-1.61-5.17
						C25.28,5.97,25.01,5.96,25.01,6.15L25.01,6.15z"/>
				</g>
			</g>
			<g style="clip-path:url(#SVGID_00000034089121359624582890000014809331445956206009_);">
				<g>
					<path class="st6" d="M26.19,6.13c-0.25,1.49,0.14,2.81,0.7,4.19c0.31,0.76,0.64,1.51,0.96,2.26c0.3,0.73,0.49,1.62,1.04,2.21
						c0.07,0.08,0.18,0.01,0.19-0.08c0.13-1.19-0.86-2.71-1.34-3.78c-0.65-1.46-1.5-3.13-1.32-4.77C26.43,6.03,26.21,6,26.19,6.13
						L26.19,6.13z"/>
				</g>
			</g>
		</g>
		<g>
			<path class="st2" d="M14.19,6.22c0.23-0.56,0.44-1.94,0.44-2.02c0-0.08,0.06-0.17,0.14-0.14c0.02,0.01,0.03,0.02,0.05,0.04
				c0.79,0.88,1.52,1.81,2.19,2.78c0.02,0.03,0.07,0.03,0.08,0l1.68-2.9c0.02-0.03,0.04-0.06,0.08-0.05
				c0.46,0.69,0.87,1.41,1.22,2.17c0.11,0.24,0.25,0.51,0.49,0.61c0.04,0.02,0.09,0,0.12-0.03c0.72-0.82,1.48-1.71,2.08-2.61
				c0.45,0.81,0.91,1.61,1.37,2.42c0.03,0.06,0.09,0.13,0.16,0.11c0.03-0.01,0.04-0.03,0.06-0.05c0.69-0.81,1.33-1.79,1.99-2.64
				c0.03-0.03,0.08-0.02,0.08,0.02c0.03,0.18,0.2,0.41,0.28,0.54c0.28,0.45,0.85,1.59,0.91,1.66c0.12,0.13,0.14,0.32,0.06,0.48
				c-0.12,0.25-0.24,1.48-0.54,1.66c-0.13,0.08-0.58,0.07-0.73,0.06c-2.11-0.15-4.23,0.26-6.35,0.19c-0.69-0.02-1.38-0.1-2.07-0.08
				c-0.96,0.03-1.63,0.23-2.57,0.44c-0.41-0.27-1.07-0.69-1.46-1.06C13.56,7.43,14.02,6.64,14.19,6.22z"/>
		</g>
		<g>
			<g>
				<path class="st5" d="M14.46,2.31c0.04-0.08,0.1-0.18,0.19-0.15c0.03,0.01,0.04,0.03,0.06,0.05c0.21,0.23,0.41,0.47,0.59,0.73
					c0.08,0.11,0.25,0.36,0.26,0.59c0,0.12-0.21,0.27-0.36,0.47c-0.1,0.14-0.27,0.35-0.31,0.38c-0.11,0.08-0.27-0.01-0.37-0.1
					c-0.2-0.16-0.41-0.33-0.61-0.49c-0.05-0.04-0.18-0.21-0.16-0.28C13.81,3.3,14.3,2.68,14.46,2.31z"/>
			</g>
			<g>
				<path class="st6" d="M14.62,2.82c0.02-0.04,0.05-0.09,0.09-0.07c0.01,0,0.02,0.02,0.03,0.02c0.1,0.11,0.2,0.23,0.29,0.35
					c0.04,0.05,0.12,0.17,0.13,0.29c0,0.06-0.1,0.13-0.18,0.23c-0.05,0.07-0.13,0.17-0.15,0.19c-0.06,0.04-0.13,0-0.18-0.05
					c-0.1-0.08-0.2-0.16-0.3-0.24c-0.03-0.02-0.09-0.1-0.08-0.14C14.3,3.31,14.54,3,14.62,2.82z"/>
			</g>
		</g>
		<g>
			<g>
				<path class="st5" d="M18.6,2.09c0.04-0.08,0.1-0.18,0.19-0.15c0.02,0.01,0.04,0.03,0.06,0.05c0.21,0.23,0.41,0.47,0.59,0.73
					c0.08,0.11,0.25,0.35,0.26,0.59c0,0.12-0.21,0.27-0.36,0.47c-0.1,0.14-0.27,0.35-0.31,0.38c-0.11,0.08-0.27-0.01-0.38-0.1
					c-0.2-0.16-0.4-0.33-0.61-0.49C18,3.54,17.87,3.37,17.89,3.3C17.95,3.08,18.45,2.46,18.6,2.09z"/>
			</g>
			<g>
				<path class="st6" d="M18.76,2.6c0.02-0.04,0.05-0.09,0.09-0.08c0.01,0.01,0.02,0.02,0.03,0.02c0.1,0.11,0.2,0.23,0.29,0.35
					c0.04,0.05,0.12,0.17,0.13,0.29c0,0.06-0.1,0.13-0.18,0.23c-0.05,0.07-0.13,0.17-0.15,0.19c-0.06,0.04-0.13,0-0.18-0.05
					c-0.1-0.08-0.2-0.16-0.3-0.24c-0.03-0.02-0.09-0.1-0.08-0.13C18.44,3.09,18.69,2.78,18.76,2.6z"/>
			</g>
		</g>
		<g>
			<g>
				<path class="st5" d="M22.4,2.24c0.04-0.08,0.1-0.18,0.19-0.15c0.03,0.01,0.04,0.03,0.06,0.05c0.21,0.23,0.41,0.47,0.59,0.73
					c0.08,0.11,0.25,0.36,0.26,0.59c0,0.12-0.21,0.27-0.36,0.47c-0.1,0.14-0.27,0.35-0.31,0.38c-0.11,0.08-0.27-0.01-0.38-0.1
					c-0.2-0.16-0.4-0.33-0.61-0.49c-0.05-0.04-0.18-0.21-0.16-0.28C21.75,3.22,22.25,2.6,22.4,2.24z"/>
			</g>
			<g>
				<path class="st6" d="M22.56,2.74c0.02-0.04,0.05-0.09,0.09-0.07c0.01,0,0.02,0.01,0.03,0.02c0.1,0.11,0.2,0.23,0.29,0.36
					c0.04,0.05,0.12,0.17,0.13,0.29c0,0.06-0.1,0.13-0.18,0.23c-0.05,0.07-0.13,0.17-0.15,0.19c-0.05,0.04-0.13,0-0.18-0.05
					c-0.1-0.08-0.2-0.16-0.3-0.24c-0.03-0.02-0.09-0.1-0.08-0.14C22.24,3.23,22.49,2.92,22.56,2.74z"/>
			</g>
		</g>
		<g>
			<g>
				<path class="st5" d="M26.06,2.16c0.04-0.08,0.1-0.18,0.19-0.15c0.03,0.01,0.04,0.03,0.06,0.05c0.21,0.23,0.41,0.47,0.59,0.73
					c0.08,0.11,0.25,0.36,0.26,0.59c0,0.12-0.21,0.27-0.36,0.47c-0.1,0.14-0.27,0.35-0.31,0.38c-0.11,0.08-0.27-0.01-0.38-0.1
					c-0.2-0.16-0.4-0.33-0.61-0.49c-0.05-0.04-0.18-0.21-0.16-0.27C25.41,3.15,25.91,2.52,26.06,2.16z"/>
			</g>
			<g>
				<path class="st6" d="M26.22,2.67c0.02-0.04,0.05-0.09,0.09-0.07c0.01,0,0.02,0.02,0.03,0.02c0.1,0.11,0.2,0.23,0.29,0.36
					c0.04,0.05,0.12,0.17,0.13,0.29c0,0.06-0.1,0.13-0.18,0.23c-0.05,0.07-0.13,0.17-0.15,0.19c-0.06,0.04-0.13,0-0.18-0.05
					c-0.1-0.08-0.2-0.16-0.3-0.24c-0.03-0.02-0.09-0.1-0.08-0.14C25.9,3.15,26.15,2.85,26.22,2.67z"/>
			</g>
		</g>
		<g>
			<g>
				<path class="st2" d="M19.36,11.18c-0.08,0.03-0.17,0.06-0.25,0.1c-0.18,0.1-0.25,0.21-0.37,0.37c-0.09,0.16-0.14,0.33-0.14,0.51
					c0,0.27,0.11,0.53,0.3,0.72c0.31,0.31,0.86,0.41,1.24,0.16c0.01,0,0.01-0.01,0.02-0.01c0.22-0.15,0.39-0.33,0.46-0.59
					c0.07-0.26,0.03-0.53-0.1-0.76c-0.11-0.19-0.22-0.27-0.39-0.39c0.16,0.2,0.31,0.4,0.46,0.6c0,0,0-0.01,0-0.01
					c-0.09-0.25-0.22-0.45-0.46-0.59C19.92,11.15,19.61,11.09,19.36,11.18L19.36,11.18z"/>
			</g>
		</g>
		<g>
			<g>
				<path class="st6" d="M14.59,14.05c0.64-0.11,1.81-0.05,2.11-0.78c0.13-0.33,0.09-0.66-0.24-0.84c-0.3-0.16-0.77-0.06-0.92,0.25
					c-0.03,0.06,0,0.14,0.08,0.14c0.22-0.02,0.48-0.12,0.69-0.01c0.24,0.12,0.09,0.5-0.07,0.61c-0.18,0.12-0.43,0.16-0.64,0.21
					c-0.36,0.08-0.68,0.21-1.02,0.33C14.51,13.99,14.53,14.06,14.59,14.05L14.59,14.05z"/>
			</g>
		</g>
		<g>
			<g>
				<path class="st6" d="M20.39,9.06c-0.59-0.53-3.52-0.98-3.53,0.27c0,0.1,0.07,0.17,0.16,0.21c0.38,0.13,0.84-0.16,1.22-0.23
					c0.6-0.12,1.39-0.11,1.99,0.05C20.38,9.39,20.52,9.18,20.39,9.06L20.39,9.06z"/>
			</g>
		</g>
		<g>
			<g>
				<path class="st6" d="M14.77,4.97c-0.11,0.39-0.06,0.8,0,1.2c0.04,0.3,0.17,0.59,0.18,0.89c0.01,0.57,0.83,0.55,0.88,0
					c0.03-0.31-0.15-0.63-0.28-0.91c-0.18-0.4-0.23-0.84-0.45-1.23C15.03,4.78,14.81,4.82,14.77,4.97L14.77,4.97z"/>
			</g>
		</g>
		<g>
			<g>
				<path class="st6" d="M18.61,4.88c-0.2,0.28-0.23,0.65-0.27,0.98C18.3,6.24,18.15,6.61,18.22,7c0.09,0.51,0.98,0.4,0.92-0.12
					c-0.07-0.65,0.02-1.31-0.17-1.95C18.92,4.75,18.71,4.74,18.61,4.88L18.61,4.88z"/>
			</g>
		</g>
		<g>
			<g>
				<path class="st6" d="M22.52,5.07C22.38,5.68,22.07,6.23,22,6.85c-0.08,0.67,1.13,0.67,1.05,0c-0.07-0.59,0.1-1.21-0.09-1.78
					C22.89,4.87,22.57,4.85,22.52,5.07L22.52,5.07z"/>
			</g>
		</g>
		<g>
			<g>
				<path class="st6" d="M26.24,5.03c-0.2,0.21-0.3,0.44-0.39,0.71c-0.11,0.3-0.28,0.58-0.36,0.89c-0.14,0.58,0.76,0.83,0.9,0.25
					c0.07-0.28,0.14-0.56,0.18-0.85c0.03-0.26-0.02-0.53,0.04-0.78C26.67,5.04,26.4,4.86,26.24,5.03L26.24,5.03z"/>
			</g>
		</g>
		<g>
			<g>
				<path class="st3" d="M15.27,8.39c0.04,0.11,0.12,0.18,0.17,0.28c0.08,0.16,0.33,0.02,0.24-0.14c-0.04-0.08-0.12-0.13-0.15-0.21
					C15.47,8.16,15.21,8.22,15.27,8.39L15.27,8.39z"/>
			</g>
		</g>
		<g>
			<g>
				<path class="st3" d="M15.78,8.13c-0.07,0.14-0.08,0.3,0.01,0.43c0.06,0.08,0.14,0.12,0.24,0.1c0.16-0.04,0.19-0.21,0.12-0.33
					c-0.05-0.08-0.11-0.16-0.19-0.22C15.91,8.06,15.81,8.06,15.78,8.13L15.78,8.13z"/>
			</g>
		</g>
		<g>
			<g>
				<path class="st3" d="M16.33,8c-0.01,0.08,0.01,0.16,0.04,0.24c0.03,0.1,0.05,0.2,0.16,0.24c0.1,0.05,0.23,0.02,0.26-0.1
					c0.04-0.18-0.13-0.43-0.3-0.49C16.4,7.85,16.33,7.93,16.33,8L16.33,8z"/>
			</g>
		</g>
		<g>
			<g>
				<path class="st3" d="M16.91,7.88c-0.03,0.17-0.06,0.39,0.1,0.49c0.06,0.04,0.17,0.03,0.21-0.03c0.08-0.09,0.09-0.22,0.02-0.32
					c-0.05-0.08-0.1-0.15-0.19-0.2C17,7.8,16.92,7.82,16.91,7.88L16.91,7.88z"/>
			</g>
		</g>
		<g>
			<g>
				<path class="st3" d="M17.6,7.77c-0.1,0.02-0.13,0.13-0.15,0.22c-0.03,0.13-0.01,0.28,0.12,0.35c0.08,0.05,0.21,0.02,0.26-0.07
					c0.06-0.11,0.02-0.22-0.01-0.33C17.78,7.86,17.71,7.75,17.6,7.77L17.6,7.77z"/>
			</g>
		</g>
		<g>
			<g>
				<path class="st3" d="M18.17,7.7c-0.12,0.05-0.13,0.22-0.14,0.32c-0.01,0.16,0.14,0.39,0.32,0.28c0.15-0.08,0.12-0.26,0.08-0.4
					C18.39,7.8,18.3,7.65,18.17,7.7L18.17,7.7z"/>
			</g>
		</g>
		<g>
			<g>
				<path class="st3" d="M18.78,7.68c-0.2,0.08-0.23,0.5-0.03,0.6c0.05,0.03,0.13,0.04,0.18,0c0.14-0.1,0.12-0.23,0.09-0.37
					C19,7.82,18.9,7.63,18.78,7.68L18.78,7.68z"/>
			</g>
		</g>
		<g>
			<g>
				<path class="st3" d="M19.3,7.72c-0.12,0.14-0.12,0.36-0.03,0.52c0.12,0.21,0.46,0.07,0.4-0.17c-0.04-0.12-0.1-0.25-0.18-0.35
					C19.45,7.66,19.34,7.66,19.3,7.72L19.3,7.72z"/>
			</g>
		</g>
		<g>
			<g>
				<path class="st3" d="M19.91,7.7c-0.1,0.04-0.11,0.17-0.12,0.26c-0.01,0.12,0,0.24,0.09,0.33c0.08,0.09,0.26,0.08,0.32-0.04
					c0.06-0.12,0.04-0.24,0-0.37C20.16,7.76,20.05,7.64,19.91,7.7L19.91,7.7z"/>
			</g>
		</g>
		<g>
			<g>
				<path class="st3" d="M20.51,7.76c-0.16,0.11-0.21,0.43-0.06,0.56c0.06,0.05,0.17,0.07,0.22,0c0.07-0.08,0.09-0.2,0.05-0.3
					c-0.03-0.08-0.06-0.18-0.12-0.25C20.58,7.74,20.53,7.74,20.51,7.76L20.51,7.76z"/>
			</g>
		</g>
		<g>
			<g>
				<path class="st3" d="M20.96,7.84c-0.05,0.14-0.1,0.29-0.02,0.43c0.07,0.12,0.3,0.11,0.33-0.04c0.03-0.16-0.05-0.27-0.11-0.42
					C21.11,7.72,20.98,7.76,20.96,7.84L20.96,7.84z"/>
			</g>
		</g>
		<g>
			<g>
				<path class="st3" d="M21.61,7.76c-0.09,0.04-0.11,0.14-0.13,0.22c-0.03,0.14,0.01,0.3,0.14,0.38c0.11,0.07,0.24-0.01,0.28-0.11
					C21.94,8.12,21.81,7.67,21.61,7.76L21.61,7.76z"/>
			</g>
		</g>
		<g>
			<g>
				<path class="st3" d="M22.2,7.79c-0.11,0.12-0.12,0.36-0.03,0.49c0.1,0.14,0.29,0.11,0.34-0.05c0.06-0.16-0.03-0.42-0.21-0.47
					C22.27,7.75,22.22,7.76,22.2,7.79L22.2,7.79z"/>
			</g>
		</g>
		<g>
			<g>
				<path class="st3" d="M22.85,7.77c-0.12,0.11-0.12,0.4,0.04,0.47c0.07,0.03,0.15,0.02,0.19-0.05c0.07-0.12-0.01-0.37-0.14-0.43
					C22.9,7.75,22.88,7.75,22.85,7.77L22.85,7.77z"/>
			</g>
		</g>
		<g>
			<g>
				<path class="st3" d="M23.4,7.7c-0.11,0.12-0.16,0.43,0.01,0.52c0.04,0.02,0.09,0.03,0.13,0c0.1-0.08,0.1-0.17,0.08-0.28
					c-0.01-0.08-0.06-0.18-0.12-0.24C23.46,7.68,23.42,7.67,23.4,7.7L23.4,7.7z"/>
			</g>
		</g>
		<g>
			<g>
				<path class="st3" d="M23.94,7.69c-0.01,0.03-0.03,0.13-0.04,0.17c-0.02,0.11-0.02,0.24,0.07,0.31c0.08,0.07,0.17,0.07,0.26,0
					c0.1-0.08,0.09-0.22,0.06-0.33c-0.04-0.11-0.09-0.19-0.2-0.23C24.02,7.58,23.96,7.63,23.94,7.69L23.94,7.69z"/>
			</g>
		</g>
		<g>
			<g>
				<path class="st3" d="M24.56,7.63c-0.01,0.04-0.06,0.13-0.08,0.21c-0.02,0.11-0.02,0.23,0.07,0.32c0.08,0.07,0.23,0.05,0.25-0.07
					c0.01-0.09,0-0.17-0.02-0.25c-0.02-0.08-0.04-0.14-0.07-0.21C24.7,7.55,24.59,7.55,24.56,7.63L24.56,7.63z"/>
			</g>
		</g>
		<g>
			<g>
				<path class="st3" d="M25.22,7.52c-0.17,0.07-0.18,0.3-0.15,0.45c0.01,0.07,0.08,0.11,0.14,0.13c0.05,0.02,0.1,0,0.15-0.02
					c0.06-0.03,0.09-0.1,0.1-0.16c0.01-0.09,0-0.22-0.06-0.3C25.36,7.58,25.29,7.5,25.22,7.52L25.22,7.52z"/>
			</g>
		</g>
		<g>
			<g>
				<path class="st3" d="M25.78,7.62c-0.05,0.13-0.18,0.35-0.03,0.47c0.05,0.04,0.1,0.05,0.15,0.02c0.19-0.08,0.11-0.38,0.04-0.51
					C25.9,7.53,25.81,7.55,25.78,7.62L25.78,7.62z"/>
			</g>
		</g>
		<g>
			<g>
				<path class="st3" d="M26.33,7.57c-0.11,0.13-0.26,0.39-0.09,0.53c0.05,0.04,0.12,0.06,0.18,0.02c0.17-0.11,0.15-0.39,0.04-0.54
					C26.44,7.54,26.37,7.52,26.33,7.57L26.33,7.57z"/>
			</g>
		</g>
		<g>
			<g>
				<path class="st3" d="M26.87,7.67c-0.06,0.1-0.14,0.19-0.16,0.31c-0.04,0.21,0.26,0.3,0.33,0.09c0.04-0.13,0.02-0.26-0.03-0.39
					C26.99,7.63,26.91,7.61,26.87,7.67L26.87,7.67z"/>
			</g>
		</g>
		<g>
			<g>
				<path class="st2" d="M15.12,7.02c0.09,0.28,0.52,0.17,0.44-0.12C15.48,6.62,15.03,6.75,15.12,7.02L15.12,7.02z"/>
			</g>
		</g>
		<g>
			<g>
				<path class="st2" d="M15.2,6.59c0.25,0,0.25-0.38,0-0.38S14.95,6.59,15.2,6.59L15.2,6.59z"/>
			</g>
		</g>
		<g>
			<g>
				<path class="st2" d="M15.09,6.03c0.17,0,0.17-0.27,0-0.27C14.91,5.76,14.91,6.03,15.09,6.03L15.09,6.03z"/>
			</g>
		</g>
		<g>
			<g>
				<path class="st2" d="M18.69,7.09c0.33,0,0.33-0.5,0-0.5C18.36,6.58,18.36,7.09,18.69,7.09L18.69,7.09z"/>
			</g>
		</g>
		<g>
			<g>
				<path class="st2" d="M18.7,6.46c0.23,0,0.23-0.35,0-0.35C18.47,6.11,18.47,6.46,18.7,6.46L18.7,6.46z"/>
			</g>
		</g>
		<g>
			<g>
				<path class="st2" d="M18.72,5.98c0.15,0,0.15-0.22,0-0.22C18.58,5.75,18.58,5.98,18.72,5.98L18.72,5.98z"/>
			</g>
		</g>
		<g>
			<g>
				<path class="st2" d="M22.52,7.14c0.32,0,0.32-0.49,0-0.49S22.2,7.14,22.52,7.14L22.52,7.14z"/>
			</g>
		</g>
		<g>
			<g>
				<path class="st2" d="M22.62,6.45c0.21,0,0.21-0.31,0-0.31S22.42,6.45,22.62,6.45L22.62,6.45z"/>
			</g>
		</g>
		<g>
			<g>
				<path class="st2" d="M22.64,5.97c0.11,0,0.11-0.18,0-0.18C22.53,5.79,22.53,5.97,22.64,5.97L22.64,5.97z"/>
			</g>
		</g>
		<g>
			<g>
				<path class="st2" d="M25.98,6.9c0.27,0,0.27-0.41,0-0.41C25.71,6.5,25.71,6.9,25.98,6.9L25.98,6.9z"/>
			</g>
		</g>
		<g>
			<g>
				<path class="st2" d="M26.15,6.38c0.19,0,0.19-0.29,0-0.29S25.96,6.38,26.15,6.38L26.15,6.38z"/>
			</g>
		</g>
		<g>
			<g>
				<path class="st2" d="M26.29,5.82c0,0-0.01,0-0.01,0c-0.11-0.05-0.12,0.2,0.02,0.13c0,0,0.01,0,0.01,0
					C26.37,5.91,26.34,5.84,26.29,5.82L26.29,5.82z"/>
			</g>
		</g>
		<g>
			<g>
				<path class="st2" d="M13.56,19.27c-0.33,0.01-0.57,0.28-0.79,0.49c-0.31,0.29-0.65,0.55-0.86,0.91
					c-0.23,0.38,0.34,0.85,0.63,0.49c0.41-0.51,0.86-1.06,1.16-1.64C13.75,19.41,13.68,19.27,13.56,19.27L13.56,19.27z"/>
			</g>
		</g>
		<g>
			<g>
				<path class="st2" d="M14.43,20.58c-0.05,0.1-0.17,0.19-0.25,0.27c-0.13,0.12-0.24,0.25-0.35,0.39c-0.2,0.26-0.5,0.64-0.36,0.98
					c0.15,0.39,0.73,0.45,0.86,0c0.14-0.47,0.34-0.94,0.57-1.37C15.04,20.54,14.58,20.27,14.43,20.58L14.43,20.58z"/>
			</g>
		</g>
		<g>
			<g>
				<path class="st2" d="M17.85,22.06c-0.16,0.23-0.14,0.59-0.07,0.85c0.1,0.38,0.67,0.29,0.67-0.09c0-0.28-0.16-0.53-0.3-0.76
					C18.08,21.94,17.92,21.96,17.85,22.06L17.85,22.06z"/>
			</g>
		</g>
		<g>
			<g>
				<path class="st2" d="M21.56,20.04c-0.11,0.44,0.18,0.81,0.29,1.22c0.12,0.46,0.41,1.03,0.98,0.9c0.29-0.06,0.42-0.37,0.36-0.63
					c-0.03-0.15-0.15-0.28-0.2-0.36c-0.07-0.12-0.12-0.25-0.2-0.37c-0.21-0.32-0.54-0.62-0.83-0.86
					C21.82,19.83,21.6,19.86,21.56,20.04L21.56,20.04z"/>
			</g>
		</g>
		<g>
			<g>
				<path class="st2" d="M24.41,18.71c-0.05,0.37,0.22,0.74,0.41,1.04c0.27,0.42,0.62,0.76,1.02,1.06c0.24,0.18,0.63,0.04,0.77-0.2
					c0.17-0.28,0.05-0.58-0.2-0.76c-0.32-0.23-0.6-0.5-0.9-0.75c-0.25-0.21-0.56-0.53-0.9-0.53C24.52,18.57,24.42,18.63,24.41,18.71
					L24.41,18.71z"/>
			</g>
		</g>
		<g>
			<g>
				<path class="st6" d="M18.23,24.01c0.17,0,0.31-0.14,0.31-0.3s-0.14-0.3-0.31-0.3c-0.17,0-0.31,0.14-0.31,0.3
					S18.06,24.01,18.23,24.01L18.23,24.01z"/>
			</g>
		</g>
		<g>
			<g>
				<path class="st6" d="M13.55,23.24c0.17,0,0.31-0.14,0.31-0.31c0-0.17-0.14-0.31-0.31-0.31c-0.17,0-0.31,0.14-0.31,0.31
					C13.24,23.1,13.38,23.24,13.55,23.24L13.55,23.24z"/>
			</g>
		</g>
		<g>
			<g>
				<path class="st6" d="M10.04,22.01c0.17,0,0.31-0.14,0.31-0.31c0-0.17-0.14-0.31-0.31-0.31c-0.17,0-0.31,0.14-0.31,0.31
					C9.73,21.87,9.87,22.01,10.04,22.01L10.04,22.01z"/>
			</g>
		</g>
		<g>
			<g>
				<path class="st6" d="M22.99,22.99c0.22,0,0.4-0.18,0.4-0.4c0-0.22-0.18-0.4-0.4-0.4c-0.22,0-0.4,0.18-0.4,0.4
					C22.59,22.81,22.77,22.99,22.99,22.99L22.99,22.99z"/>
			</g>
		</g>
		<g>
			<g>
				<path class="st6" d="M26.35,21.71c0.14,0.05,0.3-0.01,0.39-0.1c0.18-0.18,0.14-0.5-0.08-0.63c-0.19-0.11-0.44-0.04-0.55,0.14
					C25.97,21.36,26.11,21.62,26.35,21.71L26.35,21.71z"/>
			</g>
		</g>
		<g>
			<g>
				<path class="st6" d="M27.9,20.7c0.13,0.05,0.3-0.01,0.39-0.1c0.18-0.18,0.14-0.5-0.08-0.63c-0.19-0.11-0.44-0.05-0.55,0.14
					C27.52,20.35,27.66,20.61,27.9,20.7L27.9,20.7z"/>
			</g>
		</g>
		<g>
			<g>
				<path class="st2" d="M19.04,22.28c-0.04,0.02-0.06,0.04-0.08,0.08c-0.07,0.15,0.07,0.31,0.23,0.22c0,0,0.01,0,0.01-0.01
					c-0.04,0.01-0.09,0.01-0.13,0.02c0.01,0,0.01,0,0.02,0c0.11,0.02,0.22-0.05,0.22-0.17C19.3,22.29,19.15,22.23,19.04,22.28
					L19.04,22.28z"/>
			</g>
		</g>
		<g>
			<g>
				<path class="st2" d="M19.76,22.25c0.21,0,0.21-0.32,0-0.32C19.55,21.93,19.55,22.25,19.76,22.25L19.76,22.25z"/>
			</g>
		</g>
		<g>
			<g>
				<path class="st2" d="M20.52,22.17c0.25,0,0.25-0.38,0-0.38S20.27,22.17,20.52,22.17L20.52,22.17z"/>
			</g>
		</g>
		<g>
			<g>
				<path class="st2" d="M21.14,22.21c0.01,0,0.02,0.01,0.03,0.01c0.1,0.03,0.2-0.05,0.2-0.15c0-0.09-0.1-0.18-0.2-0.15
					c-0.01,0-0.02,0.01-0.03,0.01C21.01,21.98,20.99,22.16,21.14,22.21L21.14,22.21z"/>
			</g>
		</g>
		<g>
			<g>
				<path class="st2" d="M21.58,22.14c0,0.01-0.01,0.01-0.01,0.02c-0.04,0.08-0.03,0.16,0.03,0.22c0,0,0.01,0.01,0.01,0.01
					c0.09,0.1,0.25,0.04,0.29-0.08c0.02-0.05,0.01-0.08,0-0.13C21.88,22.03,21.66,22.01,21.58,22.14L21.58,22.14z"/>
			</g>
		</g>
		<g>
			<g>
				<path class="st2" d="M23.57,21.75c0.18,0,0.18-0.28,0-0.28C23.39,21.48,23.39,21.75,23.57,21.75L23.57,21.75z"/>
			</g>
		</g>
		<g>
			<g>
				<path class="st2" d="M23.91,21.33c0.21,0,0.21-0.32,0-0.32C23.7,21.01,23.7,21.33,23.91,21.33L23.91,21.33z"/>
			</g>
		</g>
		<g>
			<g>
				<path class="st2" d="M24.59,20.98c0.01,0,0.01,0,0.02,0c-0.03,0-0.05,0-0.08,0c0.01,0,0.01,0,0.02,0
					c0.13,0.02,0.26-0.13,0.14-0.24c-0.03-0.03-0.06-0.04-0.1-0.06c-0.1-0.04-0.2,0.06-0.2,0.15
					C24.39,20.93,24.49,20.99,24.59,20.98L24.59,20.98z"/>
			</g>
		</g>
		<g>
			<g>
				<path class="st2" d="M25.22,21.03c0.21,0,0.21-0.33,0-0.33C25.01,20.7,25.01,21.03,25.22,21.03L25.22,21.03z"/>
			</g>
		</g>
		<g>
			<g>
				<path class="st2" d="M27.35,20.37c0.2,0,0.2-0.3,0-0.3C27.15,20.06,27.15,20.37,27.35,20.37L27.35,20.37z"/>
			</g>
		</g>
		<g>
			<g>
				<path class="st2" d="M17.5,23.31c0.13,0,0.13-0.21,0-0.21C17.37,23.1,17.37,23.31,17.5,23.31L17.5,23.31z"/>
			</g>
		</g>
		<g>
			<g>
				<path class="st2" d="M16.86,23.09c0,0.01,0.01,0.01,0.01,0.02c0.1,0.1,0.29,0.03,0.29-0.12c0-0.14-0.19-0.23-0.29-0.12
					c0,0.01-0.01,0.01-0.01,0.02C16.81,22.95,16.8,23.04,16.86,23.09L16.86,23.09z"/>
			</g>
		</g>
		<g>
			<g>
				<path class="st2" d="M15.47,22.29c0.2,0,0.2-0.3,0-0.3C15.27,21.99,15.27,22.29,15.47,22.29L15.47,22.29z"/>
			</g>
		</g>
		<g>
			<g>
				<path class="st2" d="M14.79,22.37c0.24,0,0.24-0.37,0-0.37C14.55,22,14.55,22.37,14.79,22.37L14.79,22.37z"/>
			</g>
		</g>
		<g>
			<g>
				<path class="st2" d="M13.15,21.52c0.2,0,0.2-0.3,0-0.3C12.95,21.22,12.95,21.52,13.15,21.52L13.15,21.52z"/>
			</g>
		</g>
		<g>
			<g>
				<path class="st2" d="M11.28,20.87C11.27,20.87,11.27,20.87,11.28,20.87c0.03-0.01,0.08-0.02,0.12-0.04c0,0-0.01,0-0.01,0
					c-0.16,0.02-0.27,0.2-0.14,0.33c0.12,0.12,0.33,0.03,0.33-0.14c0-0.06-0.02-0.1-0.06-0.15C11.46,20.79,11.34,20.81,11.28,20.87
					L11.28,20.87z"/>
			</g>
		</g>
		<g>
			<g>
				<path class="st3" d="M28.66,26.12c0.43-0.24,0.83-0.59,1.2-0.91c0.37-0.32,0.23-1.13,0.51-1.78c0.05-0.11,0.2-0.12,0.32-0.13
					c1.2-0.15,2.66,0.61,3.42,1.54c0.76,0.93,1.09,2.14,1.09,3.34c0,0.41-0.04,0.83-0.17,1.22c-0.14,0.42-1.41,1.09-1.59,1.5
					c-0.45,1.04-0.34,2.41,0.02,3.49c-1.27,0.27-1.7-0.09-2.99-0.16c-0.11-0.01-0.22-0.01-0.31-0.06c-0.19-0.1-0.26-0.34-0.28-0.56
					c-0.04-0.62,0.25-1.28,0-1.85c-0.21-0.49-1.64-0.44-2.71-1.6c-0.57-0.62-0.69-1.57-0.33-2.32
					C27.21,27.07,27.92,26.53,28.66,26.12z"/>
			</g>
			<g>
				<path class="st6" d="M29.48,28.66c0.09,0.48,0.02,0.75-0.1,1.22c-0.11,0.45-0.13,0.52-0.25,0.5c-0.03-0.01-0.05-0.02-0.08-0.04
					c-0.38-0.27-0.76-0.54-1.15-0.81c-0.16-0.11-0.32-0.24-0.36-0.42c-0.03-0.15,0.03-0.31,0.09-0.45c0.18-0.42,0.35-0.83,0.53-1.25
					c0.01-0.03,0.02-0.05,0.04-0.08c0.07-0.09,0.22-0.1,0.32-0.04C28.63,27.36,29.42,28.31,29.48,28.66z"/>
			</g>
			<g>
				<path class="st6" d="M30.26,29.65c-0.24-0.4-0.55-0.82-0.47-1.28c0.02-0.11,0.38-0.82,0.61-1.27c0.08-0.15,0.28-0.16,0.37-0.02
					c0.26,0.36,0.44,0.91,0.67,1.24c0.04,0.05,0.05,0.11,0.04,0.17c-0.15,0.7-0.29,1.12-0.44,1.85c0,0,0,0,0,0.01
					c-0.04,0.21-0.34,0.23-0.42,0.03C30.52,30.13,30.4,29.88,30.26,29.65z"/>
			</g>
			<g>
				<path class="st6" d="M32.1,30.09c-0.04-0.4-0.08-0.79-0.12-1.19c-0.01-0.11-0.02-0.21-0.02-0.32c0.02-0.39,0.68-1.08,1.04-1.38
					c0.1-0.08,0.25-0.04,0.29,0.08c0.11,0.33,0.2,0.72,0.31,1.06c0.08,0.25,0.02,0.52-0.14,0.72c-0.37,0.45-0.77,0.84-1.09,1.34
					c-0.05,0.08-0.17,0.07-0.2-0.02C32.13,30.29,32.11,30.18,32.1,30.09z"/>
			</g>
			<g>
				<g>
					<path class="st2" d="M28.44,28.45c0,0-0.01,0.01-0.02,0.01c-0.22,0.14-0.24,0.47,0,0.61c0.11,0.06,0.25,0.06,0.36,0
						c0.12-0.07,0.16-0.18,0.18-0.3c0-0.01,0-0.01,0-0.02C28.99,28.49,28.64,28.32,28.44,28.45L28.44,28.45z"/>
				</g>
			</g>
			<g>
				<g>
					<path class="st2" d="M30.63,28.95c0.19,0,0.35-0.16,0.35-0.34c0-0.19-0.16-0.34-0.35-0.34c-0.19,0-0.35,0.15-0.35,0.34
						C30.28,28.79,30.44,28.95,30.63,28.95L30.63,28.95z"/>
				</g>
			</g>
			<g>
				<g>
					<path class="st2" d="M32.82,29c0.49,0,0.49-0.75,0-0.75C32.33,28.25,32.33,29,32.82,29L32.82,29z"/>
				</g>
			</g>
			<g>
				<g>
					<path class="st5" d="M28.6,27.18c0.37,0,0.37-0.57,0-0.57C28.23,26.6,28.23,27.18,28.6,27.18L28.6,27.18z"/>
				</g>
			</g>
			<g>
				<g>
					<path class="st5" d="M30.53,26.89c0.37,0,0.37-0.57,0-0.57S30.16,26.89,30.53,26.89L30.53,26.89z"/>
				</g>
			</g>
			<g>
				<g>
					<path class="st5" d="M33.07,27.04c0.2,0,0.37-0.17,0.37-0.36s-0.17-0.36-0.37-0.36c-0.2,0-0.37,0.17-0.37,0.36
						S32.87,27.04,33.07,27.04L33.07,27.04z"/>
				</g>
			</g>
			<g>
				<g>
					<path class="st5" d="M29.25,30.94c0.32,0,0.32-0.49,0-0.49C28.92,30.44,28.92,30.94,29.25,30.94L29.25,30.94z"/>
				</g>
			</g>
			<g>
				<g>
					<path class="st5" d="M30.88,31.22c0.35,0,0.35-0.54,0-0.54C30.53,30.68,30.53,31.22,30.88,31.22L30.88,31.22z"/>
				</g>
			</g>
			<g>
				<g>
					<path class="st5" d="M32.23,31.14c0.4,0,0.4-0.61,0-0.61C31.83,30.53,31.83,31.14,32.23,31.14L32.23,31.14z"/>
				</g>
			</g>
		</g>
		<g>
			<g>
				<path class="st5" d="M20.65,2.78c0.08,0.08,0.13,0.18,0.19,0.27c0.04,0.06,0.1,0.16,0.19,0.11c0.03-0.02,0.05-0.05,0.05-0.08
					c-0.02-0.18-0.21-0.31-0.36-0.39C20.66,2.66,20.6,2.74,20.65,2.78L20.65,2.78z"/>
			</g>
		</g>
		<g>
			<g>
				<path class="st5" d="M20.24,3.77c-0.01,0.15-0.01,0.27,0.1,0.38c0.02,0.02,0.07,0.02,0.08-0.01c0.02-0.05,0.04-0.1,0.04-0.15
					c0-0.07-0.03-0.15-0.03-0.22C20.43,3.65,20.25,3.65,20.24,3.77L20.24,3.77z"/>
			</g>
		</g>
		<g>
			<g>
				<path class="st5" d="M21.22,4.14c0.03,0.11,0.09,0.27,0.21,0.31c0.03,0.01,0.07-0.02,0.06-0.05c-0.01-0.11-0.1-0.2-0.14-0.3
					C21.33,4.01,21.2,4.05,21.22,4.14L21.22,4.14z"/>
			</g>
		</g>
		<g>
			<g>
				<path class="st5" d="M20.37,5.03c0.08,0.13,0.15,0.31,0.29,0.38c0.08,0.04,0.21-0.02,0.17-0.13c-0.06-0.16-0.22-0.26-0.36-0.35
					C20.41,4.88,20.33,4.97,20.37,5.03L20.37,5.03z"/>
			</g>
		</g>
		<g>
			<g>
				<path class="st5" d="M17.6,4.31c0.12-0.04,0.26-0.01,0.38-0.05c0.03-0.01,0.03-0.05,0-0.06c-0.13-0.04-0.28-0.02-0.4,0.03
					C17.53,4.25,17.55,4.32,17.6,4.31L17.6,4.31z"/>
			</g>
		</g>
		<g>
			<g>
				<path class="st5" d="M17.39,5.25c-0.1,0.05-0.17,0.11-0.24,0.2c-0.05,0.06-0.14,0.19-0.06,0.27c0.13,0.13,0.32-0.33,0.36-0.4
					C17.48,5.27,17.43,5.23,17.39,5.25L17.39,5.25z"/>
			</g>
		</g>
		<g>
			<g>
				<path class="st5" d="M23.86,4.27c-0.04-0.03-0.07-0.04-0.12-0.03c-0.01,0,0,0.01,0,0.01C23.79,4.24,23.82,4.24,23.86,4.27
					C23.86,4.27,23.86,4.27,23.86,4.27L23.86,4.27z"/>
			</g>
		</g>
		<g>
			<g>
				<path class="st5" d="M23.84,4.19c0.09,0.03,0.19,0.05,0.28,0.07c0.04,0.01,0.08,0.02,0.13,0.03c0.04,0.01,0.07-0.01,0.1-0.03
					c0.02-0.01,0.03-0.03,0.02-0.05c-0.07-0.18-0.36-0.16-0.52-0.15C23.78,4.06,23.76,4.17,23.84,4.19L23.84,4.19z"/>
			</g>
		</g>
		<g>
			<g>
				<path class="st5" d="M24.86,3.95c-0.02,0.11-0.02,0.22,0,0.33c0.02,0.09,0.04,0.27,0.17,0.28c0.11,0,0.12-0.12,0.09-0.2
					c-0.04-0.12-0.09-0.26-0.1-0.39C25.01,3.89,24.87,3.85,24.86,3.95L24.86,3.95z"/>
			</g>
		</g>
		<g>
			<g>
				<path class="st5" d="M24.17,5c-0.03,0.1-0.02,0.21,0,0.31c0.02,0.11,0.04,0.23,0.15,0.28c0.06,0.03,0.14,0.01,0.16-0.06
					c0.02-0.1-0.03-0.19-0.06-0.29c-0.03-0.09-0.07-0.2-0.14-0.27C24.24,4.94,24.19,4.95,24.17,5L24.17,5z"/>
			</g>
		</g>
		<g>
			<g>
				<path class="st5" d="M23.83,3.47c0.05,0,0.09,0,0.12-0.04c0.02-0.02,0.02-0.05,0-0.07c-0.04-0.04-0.07-0.03-0.12-0.03
					C23.74,3.33,23.74,3.47,23.83,3.47L23.83,3.47z"/>
			</g>
		</g>
		<g>
			<path class="st3" d="M23.11,36.33c-0.5-0.4-1.26-0.11-1.76,0.29c-0.5,0.4-0.98,0.91-1.62,0.98c-0.63,0.07-1.22-0.32-1.85-0.39
				c-0.53-0.05-1.07,0.14-1.45,0.52c-0.28,0.28-0.47,0.66-0.82,0.85c-0.57,0.33-1.3,0.03-1.96,0.08c-0.45,0.04-1.11,0.42-1.4,0.76
				c-0.05,0.06-0.09,0.12-0.1,0.19c-0.01,0.14,0.12,0.25,0.24,0.32c0.38,0.19,0.68,0.34,1.81,1.61c0.35,0.4,0.41,1.02,0.84,1.34
				c0.37,0.27,0.86,0.32,1.33,0.35c2.19,0.12,4.4-0.05,6.55-0.49c0.85-0.18,1.7-0.4,2.47-0.8c0.6-0.3,1.14-0.71,1.68-1.11
				c1.01-0.75,2.55-1.63,3.09-2.76c-0.5,0.4-1.53,0.47-2.16,0.33c-0.29-0.06-0.73-0.02-0.89-0.27c-0.12-0.19-0.15-0.43-0.25-0.63
				c-0.21-0.44-0.75-0.7-1.23-0.58c-0.42,0.11-0.77,0.46-1.2,0.46c-0.42,0-0.75-0.34-1-0.68C23.34,36.57,23.24,36.44,23.11,36.33z"
				/>
		</g>
		<g>
			<path class="st4" d="M16.76,51.48c0.44,0.69,1.38,0.83,2.21,0.89c1.44,0.11,2.93,0.22,4.28-0.3c0.49-0.19,0.98-0.49,1.21-0.96
				c0.13-0.27,0.17-0.57,0.25-0.86c0.14-0.53,0.44-1.02,0.73-1.49c0.55-0.91,1.11-1.81,1.66-2.72c0.04-0.06,0.08-0.13,0.07-0.21
				c-0.02-0.18-0.28-0.21-0.46-0.18c-0.66,0.1-1.32,0.21-1.98,0.31c0.04-0.32,0.29-0.59,0.33-0.92c0.07-0.61,0.3-1.08-0.01-1.61
				c-0.38-0.66-1.63-1.18-2.39-1.07c-0.76,0.11-1.43,0.53-2.05,0.99c-1.22,0.91-2.29,2.02-3.16,3.26c-0.28,0.4-0.55,0.83-0.71,1.29
				c-0.24,0.68-0.25,1.41-0.25,2.14C16.49,50.53,16.5,51.06,16.76,51.48z"/>
		</g>
		<g>
			<path class="st5" d="M17.68,46.9c0.97-0.31,1.89-0.78,2.7-1.38c0.7-0.52,1.57-0.78,2.32-1.22c0.75-0.44,2.3-1.12,2.27,0.27
				c0,0.22,0.56-0.18,0.79-0.21c0.18-0.02,0.31-0.18,0.42-0.32c0.29-0.39,0.5-0.61,0.44-1.09c-0.06-0.44-0.32-0.87-0.59-1.22
				c-0.28-0.38-0.5-0.94-0.72-1.36c-0.4-0.77-0.8-1.54-1.2-2.31c-0.11-0.22-0.23-0.44-0.42-0.6c-0.19-0.16-0.47-0.24-0.69-0.13
				c-0.12,0.06-0.21,0.17-0.29,0.27c-0.48,0.57-1.02,1.1-1.63,1.54c-1.37,0.97-3.02,1.44-4.53,2.19c-1.51,0.74-2.98,1.9-3.33,3.53
				c-0.2,0.9-0.01,1.88,0.5,2.65c0.09,0.14,0.2,0.27,0.35,0.34c0.17,0.07,0.36,0.04,0.53,0.01C15.67,47.64,16.65,47.23,17.68,46.9z"
				/>
		</g>
		<g>
			<path class="st3" d="M23.75,52.7c0.03,0.09,0.03,0.19,0.02,0.29c-0.03,0.27-0.09,0.54-0.15,0.81c-0.21,0.91-0.39,2.11-1.23,2.7
				c-0.28,0.19-0.6,0.3-0.92,0.41c-0.71,0.24-1.52,0.54-2.23,0.79c0.12,0.18,0.16,0.33,0.27,0.5c0.07,0.1,0.06,0.23-0.01,0.33
				c-0.16,0.21-0.32,0.51-0.44,0.75c-0.05,0.09-0.17,0.08-0.21,0c-0.11-0.23-0.23-0.48-0.38-0.69c-0.08-0.11-0.1-0.25-0.04-0.37
				c0.09-0.22,0.19-0.49,0.18-0.52c-0.01-0.04-1.61-0.48-2.06-0.64c-0.79-0.28-1.63-0.6-2.14-1.26c-0.27-0.35-0.43-0.77-0.59-1.19
				c-0.16-0.43-0.32-0.85-0.48-1.28c1.19-0.07,2.38-0.13,3.58-0.2c0.48-0.03,0.96-0.05,1.45-0.05c0.37,0,0.74,0.01,1.12,0
				c1.38-0.05,2.74-0.5,4.12-0.45c0.05,0,0.09,0.02,0.13,0.05C23.75,52.7,23.8,52.69,23.75,52.7z"/>
		</g>
		<g>
			<path class="st0" d="M23.1,49.4c-0.43,0.47-1,0.71-1.58,0.81c-1.02,0.17-1.4-0.17-1.83-0.59c0.76-0.49,1.64-0.68,2.51-0.55
				C22.51,49.13,22.82,49.22,23.1,49.4z"/>
		</g>
		<g>
			<g>
				<path class="st6" d="M21.86,49.91c0.08-0.14,0.09-0.27,0.06-0.43c-0.04-0.22-0.21-0.32-0.4-0.4c-0.22-0.09-0.5,0.06-0.61,0.24
					c-0.13,0.22-0.07,0.46,0.08,0.64c0.03,0.04,0.07,0.08,0.12,0.1c0.16,0.07,0.17,0.07,0.03,0.01c-0.06-0.06-0.13-0.12-0.19-0.18
					c0,0,0,0.01,0.01,0.01c0.1,0.15,0.25,0.25,0.45,0.25C21.58,50.17,21.77,50.07,21.86,49.91L21.86,49.91z"/>
			</g>
		</g>
		<g>
			<defs>
				<path id="SVGID_00000167368196337034074010000017964490871305629626_" d="M17.68,46.9c0.97-0.31,1.89-0.78,2.7-1.38
					c0.7-0.52,1.57-0.78,2.32-1.22c0.75-0.44,2.3-1.12,2.27,0.27c0,0.22,0.56-0.18,0.79-0.21c0.18-0.02,0.31-0.18,0.42-0.32
					c0.29-0.39,0.5-0.61,0.44-1.09c-0.06-0.44-0.32-0.87-0.59-1.22c-0.28-0.38-0.5-0.94-0.72-1.36c-0.4-0.77-0.8-1.54-1.2-2.31
					c-0.11-0.22-0.23-0.44-0.42-0.6c-0.19-0.16-0.47-0.24-0.69-0.13c-0.12,0.06-0.21,0.17-0.29,0.27c-0.48,0.57-1.02,1.1-1.63,1.54
					c-1.37,0.97-3.02,1.44-4.53,2.19c-1.51,0.74-2.98,1.9-3.33,3.53c-0.2,0.9-0.01,1.88,0.5,2.65c0.09,0.14,0.2,0.27,0.35,0.34
					c0.17,0.07,0.36,0.04,0.53,0.01C15.67,47.64,16.65,47.23,17.68,46.9z"/>
			</defs>
			<clipPath id="SVGID_00000005950691695996992960000006534765974031032721_">
				<use xlink:href="#SVGID_00000167368196337034074010000017964490871305629626_"  style="overflow:visible;"/>
			</clipPath>
			<g style="clip-path:url(#SVGID_00000005950691695996992960000006534765974031032721_);">
				<g>
					<path class="st6" d="M25.81,45.51c0.04-0.95,0.19-1.89,0.19-2.84c0-0.96-0.11-1.92-0.15-2.88c0-0.08-0.13-0.11-0.15-0.02
						c-0.16,0.85-0.17,1.68-0.14,2.54c0.05,1.07-0.04,2.13,0.02,3.2C25.58,45.65,25.8,45.66,25.81,45.51L25.81,45.51z"/>
				</g>
			</g>
			<g style="clip-path:url(#SVGID_00000005950691695996992960000006534765974031032721_);">
				<g>
					<path class="st6" d="M24.81,45.76c0.04-0.67,0.18-1.32,0.22-1.99c0.04-0.82,0-1.65,0.03-2.47c0.05-1.44,0.39-3.06,0.01-4.47
						c-0.03-0.09-0.18-0.1-0.2,0c-0.28,1.31-0.18,2.79-0.21,4.13c-0.03,1.6,0,3.21-0.01,4.81C24.65,45.86,24.8,45.86,24.81,45.76
						L24.81,45.76z"/>
				</g>
			</g>
			<g style="clip-path:url(#SVGID_00000005950691695996992960000006534765974031032721_);">
				<g>
					<path class="st6" d="M24.2,45.52c0.14-3.54,0.19-7.07-0.5-10.56c-0.02-0.09-0.15-0.06-0.15,0.02
						c-0.15,1.72,0.18,3.52,0.23,5.24c0.05,1.77,0.04,3.54,0.23,5.3C24.02,45.64,24.19,45.64,24.2,45.52L24.2,45.52z"/>
				</g>
			</g>
			<g style="clip-path:url(#SVGID_00000005950691695996992960000006534765974031032721_);">
				<g>
					<path class="st6" d="M23.23,45.69c0.14-3.54,0.19-7.07-0.5-10.56c-0.02-0.09-0.15-0.06-0.15,0.02
						c-0.15,1.72,0.18,3.52,0.23,5.24c0.05,1.77,0.05,3.54,0.23,5.3C23.05,45.81,23.23,45.81,23.23,45.69L23.23,45.69z"/>
				</g>
			</g>
			<g style="clip-path:url(#SVGID_00000005950691695996992960000006534765974031032721_);">
				<g>
					<path class="st6" d="M22.6,45.65c0.15-1.89-0.1-3.78-0.34-5.65c-0.2-1.52-0.24-3.25-0.94-4.65c-0.03-0.07-0.14-0.04-0.14,0.04
						c0.11,1.64,0.43,3.3,0.62,4.94c0.21,1.78,0.37,3.57,0.64,5.34C22.46,45.77,22.59,45.74,22.6,45.65L22.6,45.65z"/>
				</g>
			</g>
			<g style="clip-path:url(#SVGID_00000005950691695996992960000006534765974031032721_);">
				<g>
					<path class="st6" d="M21.71,46.56c0.22-0.83,0.12-1.75,0.1-2.6c-0.02-0.98-0.11-1.98-0.26-2.95c-0.17-1.07-0.41-2.12-0.59-3.19
						c-0.12-0.72-0.01-1.59-0.53-2.17c-0.06-0.06-0.19-0.02-0.17,0.07c0.21,1.58,0.41,3.13,0.72,4.7c0.2,1.05,0.32,2.11,0.43,3.17
						c0.1,0.93,0.33,2.02,0.24,2.95C21.64,46.58,21.7,46.59,21.71,46.56L21.71,46.56z"/>
				</g>
			</g>
			<g style="clip-path:url(#SVGID_00000005950691695996992960000006534765974031032721_);">
				<g>
					<path class="st6" d="M21.17,46.61c0.04-0.88,0.14-1.7,0.03-2.59c-0.1-0.77-0.29-1.52-0.44-2.28c-0.35-1.81-0.7-3.76-1.38-5.47
						c-0.03-0.07-0.16-0.07-0.15,0.02c0.14,1.74,0.67,3.51,1.03,5.23c0.18,0.85,0.39,1.7,0.56,2.56c0.17,0.84,0.14,1.7,0.3,2.55
						C21.12,46.66,21.16,46.65,21.17,46.61L21.17,46.61z"/>
				</g>
			</g>
			<g style="clip-path:url(#SVGID_00000005950691695996992960000006534765974031032721_);">
				<g>
					<path class="st6" d="M20.2,46.8c0.4-1.27-0.15-2.81-0.48-4.03c-0.45-1.67-1.02-3.32-1.46-4.98c-0.02-0.09-0.17-0.09-0.18,0
						c-0.1,0.52,0.04,0.95,0.18,1.46c0.2,0.77,0.42,1.54,0.65,2.3c0.24,0.79,0.5,1.57,0.72,2.36c0.25,0.86,0.68,1.97,0.45,2.86
						C20.04,46.85,20.17,46.88,20.2,46.8L20.2,46.8z"/>
				</g>
			</g>
			<g style="clip-path:url(#SVGID_00000005950691695996992960000006534765974031032721_);">
				<g>
					<path class="st6" d="M19.41,47.77c0.2-0.59,0.06-1.21-0.03-1.82c-0.15-1.02-0.42-2.02-0.72-3c-0.57-1.8-1.12-3.7-1.93-5.41
						c-0.04-0.08-0.17-0.04-0.16,0.04c0.03,0.76,0.36,1.52,0.58,2.25c0.25,0.87,0.58,1.73,0.9,2.58c0.32,0.86,0.58,1.74,0.8,2.62
						c0.22,0.84,0.56,1.84,0.48,2.71C19.31,47.82,19.39,47.82,19.41,47.77L19.41,47.77z"/>
				</g>
			</g>
			<g style="clip-path:url(#SVGID_00000005950691695996992960000006534765974031032721_);">
				<g>
					<path class="st6" d="M18.65,47.83c-0.04-1.52-0.41-2.93-0.9-4.36c-0.53-1.57-0.89-3.31-1.7-4.76
						c-0.05-0.09-0.18-0.02-0.16,0.07c0.47,3.11,2.33,5.91,2.6,9.06C18.5,47.93,18.66,47.93,18.65,47.83L18.65,47.83z"/>
				</g>
			</g>
			<g style="clip-path:url(#SVGID_00000005950691695996992960000006534765974031032721_);">
				<g>
					<path class="st6" d="M17.37,48.09c0.07-1.6-0.42-3.11-0.95-4.6c-0.26-0.73-0.6-1.44-0.87-2.17c-0.21-0.57-0.19-1.18-0.61-1.66
						c-0.08-0.09-0.2,0.01-0.18,0.11c0.47,2.87,2.01,5.43,2.47,8.33C17.25,48.19,17.37,48.16,17.37,48.09L17.37,48.09z"/>
				</g>
			</g>
			<g style="clip-path:url(#SVGID_00000005950691695996992960000006534765974031032721_);">
				<g>
					<path class="st6" d="M16.18,48.78c0.29-2.93-1.22-5.43-2.41-7.99c-0.04-0.08-0.14-0.02-0.13,0.05
						c0.22,1.37,0.92,2.56,1.43,3.83c0.53,1.32,0.74,2.73,1.01,4.11C16.1,48.85,16.18,48.83,16.18,48.78L16.18,48.78z"/>
				</g>
			</g>
			<g style="clip-path:url(#SVGID_00000005950691695996992960000006534765974031032721_);">
				<g>
					<path class="st6" d="M15.07,48.8c0.31-1.19-0.31-2.68-0.69-3.8c-0.46-1.33-0.94-3.01-1.82-4.14c-0.05-0.07-0.2-0.06-0.19,0.05
						c0.16,1.22,0.82,2.43,1.27,3.57c0.26,0.64,0.49,1.29,0.71,1.95C14.61,47.16,15,48,14.9,48.78
						C14.89,48.87,15.04,48.89,15.07,48.8L15.07,48.8z"/>
				</g>
			</g>
			<g style="clip-path:url(#SVGID_00000005950691695996992960000006534765974031032721_);">
				<g>
					<path class="st6" d="M14.09,48.98c0.18-2.34-1.53-4.53-2.47-6.55c-0.04-0.08-0.14-0.02-0.13,0.06c0.14,1.03,0.69,1.9,1.16,2.81
						c0.59,1.13,1.13,2.43,1.3,3.7C13.97,49.08,14.08,49.05,14.09,48.98L14.09,48.98z"/>
				</g>
			</g>
		</g>
		<g>
			<defs>
				<path id="SVGID_00000176729564051896673510000004162017111373109951_" d="M27.07,43.7c-0.11,0.37-0.62,1.63-1.97,2.21
					c-0.4,0.17-0.8,0.4-1.23,0.37c-0.43-0.04-0.82-0.27-1.18-0.5c-0.63-0.39-1.29-0.81-1.69-1.43c1.14-0.13,2.32,0.08,3.35,0.59
					C25.13,44.37,26.12,43.87,27.07,43.7z"/>
			</defs>
			<use xlink:href="#SVGID_00000176729564051896673510000004162017111373109951_"  style="overflow:visible;fill:#B70027;"/>
			<clipPath id="SVGID_00000158028471096359039630000007050351852553713553_">
				<use xlink:href="#SVGID_00000176729564051896673510000004162017111373109951_"  style="overflow:visible;"/>
			</clipPath>
			<g style="clip-path:url(#SVGID_00000158028471096359039630000007050351852553713553_);">
				<g>
					<path class="st6" d="M25.96,47.31c0.61-1.67,1.3-3.5,1.34-5.3c0-0.09-0.14-0.11-0.16-0.02c-0.46,1.76-0.76,3.54-1.32,5.28
						C25.78,47.37,25.92,47.4,25.96,47.31L25.96,47.31z"/>
				</g>
			</g>
			<g style="clip-path:url(#SVGID_00000158028471096359039630000007050351852553713553_);">
				<g>
					<path class="st6" d="M25.25,47.4c0.99-1.8,1.28-3.88,1.42-5.89c0.01-0.09-0.14-0.13-0.18-0.05c-0.34,0.78-0.36,1.65-0.54,2.47
						c-0.25,1.13-0.33,2.33-0.85,3.38C25.07,47.41,25.2,47.49,25.25,47.4L25.25,47.4z"/>
				</g>
			</g>
			<g style="clip-path:url(#SVGID_00000158028471096359039630000007050351852553713553_);">
				<g>
					<path class="st6" d="M24.47,47.8c0.35-0.94,0.61-1.9,0.85-2.87c0.25-0.97,0.59-1.95,0.71-2.95c0.01-0.11-0.14-0.13-0.2-0.05
						c-1.02,1.65-1.18,3.97-1.51,5.84C24.31,47.85,24.44,47.89,24.47,47.8L24.47,47.8z"/>
				</g>
			</g>
			<g style="clip-path:url(#SVGID_00000158028471096359039630000007050351852553713553_);">
				<g>
					<path class="st6" d="M24.14,48c-0.01-1.89,0.02-3.82-0.33-5.68c-0.02-0.1-0.15-0.06-0.16,0.02c-0.21,1.88,0.19,3.79,0.31,5.66
						C23.97,48.12,24.14,48.12,24.14,48L24.14,48z"/>
				</g>
			</g>
			<g style="clip-path:url(#SVGID_00000158028471096359039630000007050351852553713553_);">
				<g>
					<path class="st6" d="M23.39,47.9c0.03-1.18-0.14-2.34-0.22-3.52c-0.06-0.88-0.12-1.81-0.61-2.57
						c-0.06-0.08-0.18-0.03-0.16,0.07c0.2,0.92,0.26,1.85,0.35,2.78c0.1,1.08,0.34,2.15,0.47,3.23
						C23.22,48.01,23.39,48.02,23.39,47.9L23.39,47.9z"/>
				</g>
			</g>
			<g style="clip-path:url(#SVGID_00000158028471096359039630000007050351852553713553_);">
				<g>
					<path class="st6" d="M22.67,47.18c-0.01-1.04-0.27-2.02-0.49-3.03c-0.21-1-0.1-2.17-0.57-3.1c-0.05-0.09-0.19-0.05-0.19,0.05
						c0,2.07,0.9,4.03,1.03,6.08C22.47,47.31,22.68,47.32,22.67,47.18L22.67,47.18z"/>
				</g>
			</g>
			<g style="clip-path:url(#SVGID_00000158028471096359039630000007050351852553713553_);">
				<g>
					<path class="st6" d="M21.82,46.64c-0.01-1.04-0.27-2.02-0.49-3.03c-0.21-1-0.1-2.17-0.57-3.1c-0.05-0.09-0.19-0.05-0.19,0.05
						c0,2.07,0.9,4.03,1.03,6.08C21.61,46.77,21.82,46.78,21.82,46.64L21.82,46.64z"/>
				</g>
			</g>
		</g>
		<g>
			<defs>
				<path id="SVGID_00000170254574746882098250000001701427728820255900_" d="M19.02,52.14c-0.22-1.01-0.44-2.03-0.66-3.04
					c-0.23-1.08-0.47-2.17-0.43-3.27c0-0.14-0.1-0.23-0.23-0.2c-2.27,0.46-4.27,1.78-6.42,2.61c-0.12,0.05-0.16,0.2-0.07,0.29
					c0.96,0.99,1.6,2.29,1.8,3.65c0.01,0.09,0.09,0.16,0.19,0.16c1.87-0.06,3.75-0.12,5.62-0.18
					C18.98,52.14,19.14,52.26,19.02,52.14z"/>
			</defs>
			<use xlink:href="#SVGID_00000170254574746882098250000001701427728820255900_"  style="overflow:visible;fill:#B70027;"/>
			<clipPath id="SVGID_00000033357169092124123180000011162992178824981936_">
				<use xlink:href="#SVGID_00000170254574746882098250000001701427728820255900_"  style="overflow:visible;"/>
			</clipPath>
			<g style="clip-path:url(#SVGID_00000033357169092124123180000011162992178824981936_);">
				<g>
					<path class="st6" d="M18.75,52.89c-0.15-1.72-0.59-3.49-0.93-5.18c-0.25-1.25-0.21-3.32-1.28-4.21c-0.09-0.08-0.22,0-0.2,0.11
						c0.11,0.65,0.43,1.27,0.6,1.91c0.19,0.76,0.3,1.54,0.45,2.31c0.17,0.88,0.36,1.76,0.55,2.65c0.17,0.84,0.53,1.61,0.72,2.43
						C18.66,52.96,18.75,52.95,18.75,52.89L18.75,52.89z"/>
				</g>
			</g>
			<g style="clip-path:url(#SVGID_00000033357169092124123180000011162992178824981936_);">
				<g>
					<path class="st6" d="M18,53.22c-0.02-1.69-0.43-3.27-0.87-4.89c-0.42-1.52-0.38-3.45-1.28-4.79c-0.06-0.08-0.21-0.08-0.23,0.03
						c-0.11,0.53,0.12,0.98,0.29,1.49c0.29,0.88,0.38,1.84,0.59,2.74c0.42,1.81,1.14,3.56,1.32,5.42
						C17.83,53.33,18.01,53.34,18,53.22L18,53.22z"/>
				</g>
			</g>
			<g style="clip-path:url(#SVGID_00000033357169092124123180000011162992178824981936_);">
				<g>
					<path class="st6" d="M17.17,53.44c-0.42-1.68-0.6-3.38-1.16-5.03c-0.29-0.87-0.53-1.76-0.8-2.63c-0.15-0.5-0.3-1.03-0.76-1.34
						c-0.07-0.04-0.17,0.03-0.14,0.11c0.51,1.41,0.81,2.9,1.3,4.33c0.5,1.49,0.62,3.28,1.39,4.64C17.05,53.6,17.2,53.54,17.17,53.44
						L17.17,53.44z"/>
				</g>
			</g>
			<g style="clip-path:url(#SVGID_00000033357169092124123180000011162992178824981936_);">
				<g>
					<path class="st6" d="M15.99,53.63c0.1-1.58-0.32-3.12-0.83-4.6c-0.29-0.85-0.6-1.68-0.86-2.54c-0.23-0.76-0.43-1.56-0.9-2.22
						c-0.09-0.12-0.26-0.05-0.23,0.1c0.25,1.52,0.83,3.05,1.37,4.49c0.59,1.57,0.98,3.16,1.26,4.8
						C15.82,53.77,15.99,53.73,15.99,53.63L15.99,53.63z"/>
				</g>
			</g>
			<g style="clip-path:url(#SVGID_00000033357169092124123180000011162992178824981936_);">
				<g>
					<path class="st6" d="M14.98,53.75c-0.03-1.89-0.77-3.55-1.39-5.3c-0.41-1.17-0.29-3.29-1.43-4.03
						c-0.08-0.05-0.16,0.03-0.14,0.11c0.14,0.66,0.4,1.28,0.53,1.95c0.14,0.72,0.3,1.41,0.54,2.11c0.6,1.71,1.42,3.34,1.61,5.17
						C14.71,53.93,14.99,53.94,14.98,53.75L14.98,53.75z"/>
				</g>
			</g>
			<g style="clip-path:url(#SVGID_00000033357169092124123180000011162992178824981936_);">
				<g>
					<path class="st6" d="M13.8,53.78c0.25-1.49-0.14-2.81-0.7-4.19c-0.31-0.76-0.64-1.51-0.96-2.26c-0.3-0.73-0.49-1.62-1.04-2.21
						c-0.07-0.08-0.18-0.01-0.19,0.08c-0.13,1.19,0.86,2.71,1.34,3.78c0.66,1.46,1.5,3.13,1.32,4.77
						C13.56,53.87,13.78,53.9,13.8,53.78L13.8,53.78z"/>
				</g>
			</g>
		</g>
		<g>
			<path class="st2" d="M25.8,53.68c-0.23,0.56-0.44,1.94-0.44,2.02c0,0.08-0.07,0.17-0.14,0.14c-0.02-0.01-0.03-0.02-0.05-0.04
				c-0.79-0.88-1.52-1.81-2.19-2.78c-0.02-0.03-0.07-0.03-0.08,0l-1.68,2.9c-0.02,0.03-0.04,0.06-0.08,0.05
				c-0.46-0.69-0.87-1.41-1.22-2.17c-0.11-0.24-0.25-0.51-0.49-0.61c-0.04-0.02-0.09,0-0.12,0.03c-0.72,0.82-1.48,1.71-2.08,2.61
				c-0.45-0.81-0.91-1.61-1.37-2.42c-0.04-0.06-0.09-0.13-0.16-0.11c-0.03,0.01-0.04,0.03-0.06,0.05c-0.69,0.81-1.32,1.8-1.99,2.64
				c-0.03,0.03-0.08,0.02-0.08-0.02c-0.03-0.18-0.2-0.41-0.28-0.54c-0.28-0.45-0.85-1.59-0.91-1.66c-0.12-0.14-0.14-0.32-0.06-0.48
				c0.12-0.25,0.24-1.47,0.54-1.66c0.13-0.08,0.58-0.07,0.73-0.06c2.11,0.15,4.23-0.26,6.35-0.19c0.69,0.02,1.38,0.1,2.07,0.08
				c0.96-0.03,1.63-0.23,2.57-0.44c0.41,0.27,1.08,0.69,1.46,1.06C26.44,52.47,25.97,53.26,25.8,53.68z"/>
		</g>
		<g>
			<g>
				<path class="st5" d="M25.53,57.59c-0.04,0.08-0.1,0.18-0.19,0.15c-0.03-0.01-0.04-0.03-0.06-0.05
					c-0.21-0.23-0.41-0.47-0.59-0.73c-0.08-0.11-0.25-0.36-0.26-0.59c0-0.12,0.21-0.27,0.36-0.47c0.1-0.14,0.27-0.35,0.31-0.38
					c0.11-0.08,0.27,0.01,0.38,0.1c0.2,0.16,0.41,0.33,0.61,0.49c0.05,0.04,0.18,0.21,0.16,0.28C26.19,56.6,25.69,57.23,25.53,57.59
					z"/>
			</g>
			<g>
				<path class="st6" d="M25.37,57.08c-0.02,0.04-0.05,0.09-0.09,0.07c-0.01,0-0.02-0.02-0.03-0.02c-0.1-0.11-0.2-0.23-0.29-0.35
					c-0.04-0.05-0.12-0.17-0.13-0.29c0-0.06,0.1-0.13,0.18-0.23c0.05-0.07,0.13-0.17,0.15-0.19c0.05-0.04,0.13,0,0.18,0.05
					c0.1,0.08,0.2,0.16,0.3,0.24c0.02,0.02,0.09,0.1,0.08,0.13C25.69,56.6,25.45,56.9,25.37,57.08z"/>
			</g>
		</g>
		<g>
			<g>
				<path class="st5" d="M21.39,57.81c-0.04,0.08-0.1,0.18-0.19,0.15c-0.03-0.01-0.05-0.03-0.06-0.05
					c-0.21-0.23-0.41-0.47-0.59-0.73c-0.08-0.11-0.25-0.35-0.26-0.59c0-0.12,0.21-0.27,0.36-0.47c0.1-0.14,0.27-0.35,0.31-0.38
					c0.11-0.08,0.27,0.01,0.38,0.1c0.2,0.16,0.4,0.33,0.61,0.49c0.05,0.04,0.18,0.21,0.16,0.28C22.04,56.82,21.55,57.45,21.39,57.81
					z"/>
			</g>
			<g>
				<path class="st6" d="M21.23,57.3c-0.02,0.04-0.05,0.09-0.09,0.08c-0.01,0-0.02-0.02-0.03-0.02c-0.1-0.11-0.2-0.23-0.29-0.35
					c-0.04-0.05-0.12-0.17-0.13-0.29c0-0.06,0.1-0.13,0.18-0.23c0.05-0.07,0.13-0.17,0.15-0.19c0.06-0.04,0.13,0,0.18,0.05
					c0.1,0.08,0.2,0.16,0.3,0.24c0.03,0.02,0.09,0.1,0.08,0.14C21.55,56.82,21.31,57.12,21.23,57.3z"/>
			</g>
		</g>
		<g>
			<g>
				<path class="st5" d="M17.59,57.67c-0.04,0.08-0.1,0.18-0.19,0.15c-0.02-0.01-0.04-0.03-0.06-0.05
					c-0.21-0.23-0.41-0.47-0.59-0.73c-0.08-0.11-0.25-0.35-0.26-0.59c0-0.12,0.21-0.27,0.36-0.47c0.1-0.14,0.27-0.35,0.31-0.38
					c0.11-0.08,0.27,0.01,0.38,0.1c0.2,0.16,0.4,0.33,0.61,0.49c0.05,0.04,0.18,0.21,0.16,0.27C18.24,56.68,17.75,57.31,17.59,57.67
					z"/>
			</g>
			<g>
				<path class="st6" d="M17.43,57.16c-0.02,0.04-0.05,0.09-0.09,0.07c-0.01,0-0.02-0.01-0.03-0.02c-0.1-0.11-0.2-0.23-0.29-0.36
					c-0.04-0.05-0.12-0.17-0.13-0.29c0-0.06,0.1-0.13,0.18-0.23c0.05-0.07,0.13-0.17,0.15-0.19c0.06-0.04,0.13,0.01,0.18,0.05
					c0.1,0.08,0.2,0.16,0.3,0.24c0.03,0.02,0.09,0.1,0.08,0.14C17.75,56.68,17.51,56.98,17.43,57.16z"/>
			</g>
		</g>
		<g>
			<g>
				<path class="st5" d="M13.93,57.74c-0.04,0.08-0.1,0.18-0.19,0.15c-0.03-0.01-0.05-0.03-0.06-0.05
					c-0.21-0.23-0.41-0.47-0.59-0.73c-0.08-0.11-0.25-0.35-0.26-0.59c0-0.12,0.21-0.27,0.36-0.47c0.1-0.14,0.27-0.35,0.31-0.38
					c0.11-0.08,0.27,0.01,0.38,0.1c0.2,0.16,0.41,0.33,0.61,0.49c0.05,0.04,0.18,0.21,0.16,0.27
					C14.58,56.75,14.09,57.38,13.93,57.74z"/>
			</g>
			<g>
				<path class="st6" d="M13.77,57.23c-0.02,0.04-0.05,0.09-0.09,0.07c-0.01,0-0.02-0.01-0.03-0.02c-0.1-0.11-0.2-0.23-0.29-0.36
					c-0.04-0.05-0.12-0.17-0.13-0.29c0-0.06,0.1-0.13,0.18-0.23c0.05-0.07,0.13-0.17,0.15-0.19c0.06-0.04,0.13,0,0.18,0.05
					c0.1,0.08,0.2,0.16,0.3,0.24c0.02,0.02,0.09,0.1,0.08,0.13C14.09,56.75,13.85,57.06,13.77,57.23z"/>
			</g>
		</g>
		<g>
			<g>
				<path class="st2" d="M20.63,48.73c0.08-0.03,0.17-0.06,0.25-0.1c0.18-0.11,0.25-0.21,0.37-0.37c0.09-0.16,0.14-0.33,0.14-0.51
					c0-0.27-0.11-0.53-0.3-0.72c-0.31-0.31-0.86-0.41-1.24-0.16c-0.01,0-0.01,0.01-0.02,0.01c-0.22,0.14-0.39,0.33-0.46,0.59
					c-0.07,0.26-0.03,0.53,0.1,0.76c0.11,0.19,0.22,0.27,0.39,0.39c-0.15-0.2-0.31-0.4-0.46-0.6c0,0,0,0.01,0,0.01
					c0.09,0.25,0.22,0.46,0.46,0.59C20.08,48.75,20.39,48.81,20.63,48.73L20.63,48.73z"/>
			</g>
		</g>
		<g>
			<g>
				<path class="st6" d="M25.41,45.85c-0.64,0.11-1.81,0.05-2.11,0.78c-0.13,0.33-0.09,0.66,0.24,0.84c0.3,0.16,0.77,0.06,0.92-0.25
					c0.03-0.06,0-0.14-0.08-0.14c-0.22,0.02-0.48,0.12-0.69,0.01c-0.24-0.12-0.08-0.5,0.08-0.61c0.18-0.12,0.43-0.16,0.64-0.21
					c0.36-0.09,0.68-0.21,1.02-0.33C25.48,45.91,25.46,45.84,25.41,45.85L25.41,45.85z"/>
			</g>
		</g>
		<g>
			<g>
				<path class="st6" d="M19.61,50.84c0.59,0.53,3.52,0.98,3.53-0.27c0-0.1-0.07-0.18-0.16-0.21c-0.38-0.13-0.84,0.16-1.22,0.23
					c-0.6,0.12-1.39,0.11-1.99-0.05C19.61,50.51,19.47,50.72,19.61,50.84L19.61,50.84z"/>
			</g>
		</g>
		<g>
			<g>
				<path class="st6" d="M25.22,54.94c0.11-0.39,0.06-0.8,0-1.2c-0.04-0.3-0.17-0.59-0.18-0.89c-0.01-0.57-0.83-0.55-0.88,0
					c-0.03,0.31,0.15,0.63,0.28,0.91c0.18,0.4,0.24,0.84,0.45,1.23C24.97,55.12,25.18,55.08,25.22,54.94L25.22,54.94z"/>
			</g>
		</g>
		<g>
			<g>
				<path class="st6" d="M21.38,55.02c0.2-0.28,0.22-0.65,0.27-0.98c0.05-0.38,0.19-0.75,0.13-1.14c-0.09-0.51-0.98-0.4-0.92,0.12
					c0.07,0.65-0.02,1.31,0.17,1.95C21.07,55.15,21.29,55.16,21.38,55.02L21.38,55.02z"/>
			</g>
		</g>
		<g>
			<g>
				<path class="st6" d="M17.47,54.83c0.14-0.61,0.45-1.16,0.52-1.78c0.08-0.67-1.13-0.67-1.05,0c0.07,0.59-0.1,1.21,0.09,1.78
					C17.1,55.03,17.42,55.06,17.47,54.83L17.47,54.83z"/>
			</g>
		</g>
		<g>
			<g>
				<path class="st6" d="M13.75,54.87c0.2-0.21,0.3-0.44,0.39-0.71c0.11-0.3,0.28-0.58,0.36-0.89c0.14-0.58-0.76-0.83-0.9-0.25
					c-0.07,0.28-0.14,0.56-0.18,0.85c-0.03,0.26,0.02,0.52-0.04,0.78C13.32,54.86,13.59,55.04,13.75,54.87L13.75,54.87z"/>
			</g>
		</g>
		<g>
			<g>
				<path class="st3" d="M24.72,51.51c-0.04-0.11-0.12-0.18-0.17-0.28c-0.08-0.16-0.33-0.02-0.24,0.14
					c0.04,0.07,0.12,0.13,0.15,0.21C24.53,51.74,24.78,51.68,24.72,51.51L24.72,51.51z"/>
			</g>
		</g>
		<g>
			<g>
				<path class="st3" d="M24.22,51.77c0.07-0.14,0.08-0.3-0.01-0.43c-0.06-0.08-0.14-0.12-0.24-0.1c-0.16,0.04-0.19,0.21-0.12,0.33
					c0.05,0.08,0.11,0.16,0.19,0.22C24.08,51.84,24.18,51.84,24.22,51.77L24.22,51.77z"/>
			</g>
		</g>
		<g>
			<g>
				<path class="st3" d="M23.67,51.9c0.01-0.08-0.01-0.16-0.04-0.24c-0.03-0.1-0.05-0.2-0.16-0.24c-0.1-0.05-0.23-0.02-0.26,0.1
					c-0.04,0.18,0.13,0.43,0.3,0.49C23.59,52.05,23.66,51.98,23.67,51.9L23.67,51.9z"/>
			</g>
		</g>
		<g>
			<g>
				<path class="st3" d="M23.08,52.02c0.03-0.17,0.06-0.38-0.1-0.49c-0.06-0.04-0.16-0.03-0.21,0.03c-0.08,0.09-0.08,0.22-0.02,0.32
					c0.05,0.08,0.1,0.15,0.19,0.2C22.99,52.1,23.07,52.08,23.08,52.02L23.08,52.02z"/>
			</g>
		</g>
		<g>
			<g>
				<path class="st3" d="M22.39,52.13c0.1-0.02,0.13-0.13,0.15-0.22c0.03-0.13,0.01-0.28-0.12-0.35c-0.08-0.05-0.21-0.02-0.26,0.07
					c-0.06,0.11-0.02,0.22,0.01,0.33C22.21,52.05,22.28,52.16,22.39,52.13L22.39,52.13z"/>
			</g>
		</g>
		<g>
			<g>
				<path class="st3" d="M21.83,52.2c0.12-0.05,0.13-0.22,0.14-0.32c0.01-0.16-0.14-0.39-0.32-0.28c-0.14,0.08-0.12,0.26-0.08,0.4
					C21.61,52.1,21.69,52.26,21.83,52.2L21.83,52.2z"/>
			</g>
		</g>
		<g>
			<g>
				<path class="st3" d="M21.21,52.22c0.2-0.08,0.23-0.5,0.03-0.6c-0.05-0.03-0.13-0.04-0.18,0c-0.14,0.1-0.12,0.23-0.09,0.38
					C21,52.08,21.1,52.27,21.21,52.22L21.21,52.22z"/>
			</g>
		</g>
		<g>
			<g>
				<path class="st3" d="M20.69,52.18c0.12-0.14,0.12-0.36,0.03-0.52c-0.12-0.21-0.46-0.07-0.4,0.17c0.04,0.12,0.1,0.25,0.17,0.35
					C20.54,52.24,20.65,52.24,20.69,52.18L20.69,52.18z"/>
			</g>
		</g>
		<g>
			<g>
				<path class="st3" d="M20.08,52.2c0.1-0.04,0.11-0.17,0.12-0.26c0.01-0.12,0-0.24-0.09-0.33c-0.08-0.09-0.26-0.08-0.32,0.04
					c-0.06,0.13-0.04,0.24,0,0.37C19.83,52.15,19.95,52.26,20.08,52.2L20.08,52.2z"/>
			</g>
		</g>
		<g>
			<g>
				<path class="st3" d="M19.49,52.15c0.16-0.11,0.2-0.43,0.06-0.56c-0.06-0.05-0.17-0.07-0.22,0c-0.07,0.08-0.09,0.2-0.05,0.3
					c0.03,0.08,0.06,0.18,0.12,0.25C19.41,52.16,19.46,52.17,19.49,52.15L19.49,52.15z"/>
			</g>
		</g>
		<g>
			<g>
				<path class="st3" d="M19.04,52.07c0.05-0.14,0.1-0.29,0.02-0.43c-0.07-0.12-0.3-0.11-0.33,0.04c-0.03,0.16,0.05,0.28,0.11,0.42
					C18.88,52.19,19.01,52.15,19.04,52.07L19.04,52.07z"/>
			</g>
		</g>
		<g>
			<g>
				<path class="st3" d="M18.39,52.15c0.09-0.04,0.11-0.14,0.13-0.22c0.03-0.14-0.01-0.3-0.14-0.38c-0.11-0.07-0.24,0.01-0.28,0.11
					C18.05,51.79,18.19,52.23,18.39,52.15L18.39,52.15z"/>
			</g>
		</g>
		<g>
			<g>
				<path class="st3" d="M17.79,52.11c0.11-0.12,0.12-0.36,0.03-0.49c-0.1-0.14-0.28-0.11-0.34,0.04c-0.06,0.16,0.03,0.42,0.21,0.48
					C17.72,52.15,17.77,52.14,17.79,52.11L17.79,52.11z"/>
			</g>
		</g>
		<g>
			<g>
				<path class="st3" d="M17.14,52.13c0.12-0.11,0.12-0.4-0.04-0.47c-0.07-0.03-0.15-0.02-0.19,0.05c-0.07,0.12,0.01,0.37,0.14,0.43
					C17.09,52.15,17.12,52.15,17.14,52.13L17.14,52.13z"/>
			</g>
		</g>
		<g>
			<g>
				<path class="st3" d="M16.6,52.2c0.11-0.12,0.16-0.43-0.01-0.52c-0.04-0.02-0.09-0.03-0.13,0c-0.1,0.08-0.1,0.17-0.08,0.28
					c0.01,0.08,0.06,0.18,0.12,0.24C16.53,52.22,16.57,52.23,16.6,52.2L16.6,52.2z"/>
			</g>
		</g>
		<g>
			<g>
				<path class="st3" d="M16.06,52.21c0.01-0.03,0.03-0.13,0.04-0.17c0.02-0.11,0.02-0.24-0.07-0.31c-0.08-0.07-0.17-0.07-0.26,0
					c-0.1,0.08-0.1,0.22-0.06,0.33c0.04,0.11,0.09,0.19,0.2,0.23C15.97,52.33,16.03,52.27,16.06,52.21L16.06,52.21z"/>
			</g>
		</g>
		<g>
			<g>
				<path class="st3" d="M15.43,52.27c0.01-0.04,0.06-0.13,0.08-0.21c0.02-0.11,0.02-0.23-0.07-0.32c-0.08-0.07-0.23-0.05-0.25,0.07
					c-0.01,0.09,0,0.17,0.02,0.25c0.02,0.08,0.04,0.14,0.07,0.21C15.3,52.35,15.4,52.35,15.43,52.27L15.43,52.27z"/>
			</g>
		</g>
		<g>
			<g>
				<path class="st3" d="M14.77,52.38c0.17-0.07,0.18-0.3,0.15-0.45c-0.01-0.07-0.08-0.11-0.14-0.13c-0.05-0.02-0.1,0-0.15,0.02
					c-0.06,0.03-0.09,0.1-0.1,0.17c-0.01,0.09,0,0.22,0.06,0.3C14.63,52.32,14.7,52.41,14.77,52.38L14.77,52.38z"/>
			</g>
		</g>
		<g>
			<g>
				<path class="st3" d="M14.21,52.29c0.05-0.13,0.17-0.35,0.03-0.47c-0.05-0.04-0.1-0.05-0.15-0.02c-0.18,0.08-0.11,0.38-0.04,0.51
					C14.09,52.38,14.19,52.35,14.21,52.29L14.21,52.29z"/>
			</g>
		</g>
		<g>
			<g>
				<path class="st3" d="M13.66,52.34c0.11-0.13,0.26-0.39,0.09-0.53c-0.05-0.04-0.12-0.06-0.18-0.02
					c-0.17,0.11-0.15,0.39-0.04,0.54C13.56,52.36,13.62,52.38,13.66,52.34L13.66,52.34z"/>
			</g>
		</g>
		<g>
			<g>
				<path class="st3" d="M13.12,52.24c0.06-0.1,0.14-0.19,0.16-0.31c0.04-0.21-0.26-0.3-0.33-0.09c-0.04,0.13-0.02,0.26,0.03,0.39
					C13,52.28,13.08,52.3,13.12,52.24L13.12,52.24z"/>
			</g>
		</g>
		<g>
			<g>
				<path class="st2" d="M24.88,52.88c-0.09-0.28-0.52-0.16-0.44,0.12C24.51,53.28,24.97,53.15,24.88,52.88L24.88,52.88z"/>
			</g>
		</g>
		<g>
			<g>
				<path class="st2" d="M24.79,53.31c-0.25,0-0.25,0.38,0,0.38C25.04,53.69,25.04,53.31,24.79,53.31L24.79,53.31z"/>
			</g>
		</g>
		<g>
			<g>
				<path class="st2" d="M24.91,53.88c-0.17,0-0.17,0.27,0,0.27C25.08,54.14,25.08,53.88,24.91,53.88L24.91,53.88z"/>
			</g>
		</g>
		<g>
			<g>
				<path class="st2" d="M21.3,52.81c-0.33,0-0.33,0.5,0,0.5C21.63,53.32,21.63,52.81,21.3,52.81L21.3,52.81z"/>
			</g>
		</g>
		<g>
			<g>
				<path class="st2" d="M21.3,53.45c-0.23,0-0.23,0.35,0,0.35C21.53,53.8,21.53,53.45,21.3,53.45L21.3,53.45z"/>
			</g>
		</g>
		<g>
			<g>
				<path class="st2" d="M21.27,53.93c-0.15,0-0.15,0.22,0,0.22C21.41,54.15,21.41,53.93,21.27,53.93L21.27,53.93z"/>
			</g>
		</g>
		<g>
			<g>
				<path class="st2" d="M17.47,52.76c-0.32,0-0.32,0.49,0,0.49C17.79,53.25,17.79,52.76,17.47,52.76L17.47,52.76z"/>
			</g>
		</g>
		<g>
			<g>
				<path class="st2" d="M17.37,53.45c-0.2,0-0.2,0.31,0,0.31C17.58,53.76,17.58,53.45,17.37,53.45L17.37,53.45z"/>
			</g>
		</g>
		<g>
			<g>
				<path class="st2" d="M17.35,53.93c-0.11,0-0.11,0.18,0,0.18S17.47,53.93,17.35,53.93L17.35,53.93z"/>
			</g>
		</g>
		<g>
			<g>
				<path class="st2" d="M14.02,53c-0.27,0-0.27,0.41,0,0.41C14.28,53.41,14.28,53,14.02,53L14.02,53z"/>
			</g>
		</g>
		<g>
			<g>
				<path class="st2" d="M13.84,53.52c-0.19,0-0.19,0.29,0,0.29C14.03,53.81,14.03,53.52,13.84,53.52L13.84,53.52z"/>
			</g>
		</g>
		<g>
			<g>
				<path class="st2" d="M13.7,54.08C13.71,54.08,13.71,54.09,13.7,54.08c0.12,0.05,0.13-0.19-0.01-0.13c0,0-0.01,0-0.01,0.01
					C13.63,53.99,13.65,54.06,13.7,54.08L13.7,54.08z"/>
			</g>
		</g>
		<g>
			<g>
				<path class="st2" d="M26.44,40.63c0.33-0.01,0.57-0.28,0.79-0.49c0.31-0.28,0.65-0.55,0.86-0.91c0.23-0.38-0.34-0.85-0.63-0.49
					c-0.41,0.51-0.86,1.06-1.16,1.64C26.24,40.49,26.31,40.63,26.44,40.63L26.44,40.63z"/>
			</g>
		</g>
		<g>
			<g>
				<path class="st2" d="M25.57,39.33c0.05-0.1,0.17-0.19,0.25-0.27c0.12-0.12,0.24-0.25,0.35-0.39c0.2-0.26,0.5-0.64,0.36-0.98
					c-0.15-0.39-0.73-0.45-0.86,0c-0.14,0.47-0.34,0.94-0.57,1.37C24.95,39.36,25.41,39.63,25.57,39.33L25.57,39.33z"/>
			</g>
		</g>
		<g>
			<g>
				<path class="st2" d="M22.14,37.84c0.16-0.23,0.14-0.59,0.07-0.85c-0.1-0.38-0.67-0.29-0.67,0.09c0,0.28,0.16,0.53,0.3,0.76
					C21.92,37.96,22.07,37.95,22.14,37.84L22.14,37.84z"/>
			</g>
		</g>
		<g>
			<g>
				<path class="st2" d="M18.44,39.86c0.11-0.44-0.18-0.81-0.29-1.22c-0.12-0.46-0.41-1.03-0.98-0.9c-0.29,0.06-0.42,0.37-0.36,0.63
					c0.03,0.15,0.15,0.28,0.2,0.36c0.07,0.12,0.12,0.25,0.2,0.37c0.21,0.32,0.54,0.62,0.83,0.86
					C18.17,40.07,18.39,40.05,18.44,39.86L18.44,39.86z"/>
			</g>
		</g>
		<g>
			<g>
				<path class="st2" d="M15.58,41.19c0.05-0.37-0.22-0.74-0.41-1.04c-0.27-0.42-0.62-0.76-1.02-1.06c-0.24-0.18-0.63-0.04-0.77,0.2
					c-0.17,0.28-0.05,0.58,0.2,0.76c0.32,0.22,0.6,0.5,0.9,0.75c0.25,0.21,0.56,0.53,0.9,0.53C15.47,41.33,15.57,41.27,15.58,41.19
					L15.58,41.19z"/>
			</g>
		</g>
		<g>
			<g>
				<path class="st6" d="M21.77,35.89c-0.17,0-0.31,0.14-0.31,0.3c0,0.17,0.14,0.3,0.31,0.3c0.17,0,0.31-0.14,0.31-0.3
					C22.08,36.03,21.93,35.89,21.77,35.89L21.77,35.89z"/>
			</g>
		</g>
		<g>
			<g>
				<path class="st6" d="M26.44,36.66c-0.17,0-0.31,0.14-0.31,0.31c0,0.17,0.14,0.31,0.31,0.31c0.17,0,0.31-0.14,0.31-0.31
					C26.76,36.81,26.61,36.66,26.44,36.66L26.44,36.66z"/>
			</g>
		</g>
		<g>
			<g>
				<path class="st6" d="M29.95,37.89c-0.17,0-0.31,0.14-0.31,0.31c0,0.17,0.14,0.31,0.31,0.31c0.17,0,0.31-0.14,0.31-0.31
					C30.26,38.03,30.12,37.89,29.95,37.89L29.95,37.89z"/>
			</g>
		</g>
		<g>
			<g>
				<path class="st6" d="M17.01,36.91c-0.22,0-0.4,0.18-0.4,0.4c0,0.22,0.18,0.4,0.4,0.4c0.22,0,0.4-0.18,0.4-0.4
					C17.41,37.09,17.23,36.91,17.01,36.91L17.01,36.91z"/>
			</g>
		</g>
		<g>
			<g>
				<path class="st6" d="M13.64,38.19c-0.13-0.05-0.3,0.01-0.39,0.1c-0.19,0.18-0.14,0.5,0.08,0.63c0.19,0.11,0.44,0.04,0.55-0.14
					C14.02,38.54,13.88,38.28,13.64,38.19L13.64,38.19z"/>
			</g>
		</g>
		<g>
			<g>
				<path class="st6" d="M12.09,39.2c-0.14-0.05-0.29,0.01-0.39,0.1c-0.18,0.18-0.14,0.5,0.08,0.63c0.19,0.11,0.44,0.05,0.55-0.14
					C12.47,39.55,12.33,39.29,12.09,39.2L12.09,39.2z"/>
			</g>
		</g>
		<g>
			<g>
				<path class="st2" d="M20.96,37.62c0.04-0.02,0.06-0.04,0.08-0.08c0.07-0.14-0.07-0.3-0.23-0.22c0,0-0.01,0-0.01,0.01
					c0.04-0.01,0.09-0.01,0.13-0.02c-0.01,0-0.01,0-0.02,0c-0.11-0.02-0.22,0.05-0.22,0.17C20.69,37.61,20.84,37.68,20.96,37.62
					L20.96,37.62z"/>
			</g>
		</g>
		<g>
			<g>
				<path class="st2" d="M20.23,37.65c-0.21,0-0.21,0.32,0,0.32C20.44,37.97,20.44,37.65,20.23,37.65L20.23,37.65z"/>
			</g>
		</g>
		<g>
			<g>
				<path class="st2" d="M19.47,37.74c-0.25,0-0.25,0.38,0,0.38C19.72,38.12,19.72,37.74,19.47,37.74L19.47,37.74z"/>
			</g>
		</g>
		<g>
			<g>
				<path class="st2" d="M18.86,37.69c-0.01,0-0.02-0.01-0.03-0.01c-0.1-0.03-0.2,0.05-0.2,0.15c0,0.09,0.1,0.18,0.2,0.15
					c0.01,0,0.02-0.01,0.03-0.01C18.99,37.92,19,37.74,18.86,37.69L18.86,37.69z"/>
			</g>
		</g>
		<g>
			<g>
				<path class="st2" d="M18.41,37.76c0-0.01,0.01-0.01,0.01-0.02c0.04-0.07,0.03-0.16-0.03-0.22c0,0-0.01-0.01-0.01-0.01
					c-0.09-0.1-0.25-0.04-0.29,0.08c-0.02,0.05-0.01,0.09,0,0.13C18.11,37.87,18.34,37.89,18.41,37.76L18.41,37.76z"/>
			</g>
		</g>
		<g>
			<g>
				<path class="st2" d="M16.42,38.15c-0.18,0-0.18,0.28,0,0.28C16.6,38.42,16.6,38.15,16.42,38.15L16.42,38.15z"/>
			</g>
		</g>
		<g>
			<g>
				<path class="st2" d="M16.08,38.57c-0.21,0-0.21,0.32,0,0.32C16.29,38.89,16.29,38.57,16.08,38.57L16.08,38.57z"/>
			</g>
		</g>
		<g>
			<g>
				<path class="st2" d="M15.41,38.93c-0.01,0-0.01,0-0.02,0c0.03,0,0.05,0,0.08,0c-0.01,0-0.02,0-0.02,0
					c-0.13-0.02-0.26,0.13-0.14,0.23c0.03,0.03,0.06,0.05,0.1,0.06c0.09,0.04,0.2-0.06,0.2-0.15C15.6,38.97,15.5,38.91,15.41,38.93
					L15.41,38.93z"/>
			</g>
		</g>
		<g>
			<g>
				<path class="st2" d="M14.77,38.87c-0.21,0-0.21,0.33,0,0.33C14.98,39.2,14.98,38.87,14.77,38.87L14.77,38.87z"/>
			</g>
		</g>
		<g>
			<g>
				<path class="st2" d="M12.64,39.53c-0.2,0-0.2,0.31,0,0.31C12.84,39.84,12.84,39.53,12.64,39.53L12.64,39.53z"/>
			</g>
		</g>
		<g>
			<g>
				<path class="st2" d="M22.49,36.59c-0.13,0-0.13,0.21,0,0.21S22.62,36.59,22.49,36.59L22.49,36.59z"/>
			</g>
		</g>
		<g>
			<g>
				<path class="st2" d="M23.13,36.81c0-0.01-0.01-0.01-0.01-0.02c-0.11-0.1-0.29-0.03-0.29,0.12c0,0.14,0.19,0.23,0.29,0.12
					c0-0.01,0.01-0.01,0.01-0.02C23.19,36.96,23.19,36.86,23.13,36.81L23.13,36.81z"/>
			</g>
		</g>
		<g>
			<g>
				<path class="st2" d="M24.53,37.61c-0.2,0-0.2,0.3,0,0.3C24.72,37.92,24.72,37.61,24.53,37.61L24.53,37.61z"/>
			</g>
		</g>
		<g>
			<g>
				<path class="st2" d="M25.2,37.53c-0.24,0-0.24,0.37,0,0.37C25.44,37.9,25.44,37.53,25.2,37.53L25.2,37.53z"/>
			</g>
		</g>
		<g>
			<g>
				<path class="st2" d="M26.85,38.38c-0.19,0-0.19,0.3,0,0.3S27.04,38.38,26.85,38.38L26.85,38.38z"/>
			</g>
		</g>
		<g>
			<g>
				<path class="st2" d="M28.72,39.04C28.72,39.03,28.72,39.03,28.72,39.04c-0.03,0.01-0.08,0.03-0.12,0.04c0,0,0.01,0,0.01,0
					c0.16-0.02,0.26-0.2,0.14-0.33c-0.12-0.12-0.33-0.03-0.33,0.14c0,0.06,0.02,0.1,0.06,0.15C28.53,39.11,28.66,39.09,28.72,39.04
					L28.72,39.04z"/>
			</g>
		</g>
		<g>
			<g>
				<path class="st3" d="M11.33,33.78c-0.43,0.24-0.83,0.59-1.2,0.91C9.76,35,9.78,35.76,9.5,36.41c-0.05,0.11-0.2,0.12-0.32,0.13
					c-1.2,0.15-2.53-0.56-3.29-1.48c-0.76-0.93-1.09-2.15-1.09-3.34c0-0.41,0.04-0.83,0.16-1.22c0.14-0.42,1.41-1.09,1.59-1.5
					c0.45-1.04,0.48-1.76,0.12-2.83c1.27-0.27,1.56-0.56,2.85-0.49c0.11,0.01,0.22,0.01,0.31,0.06c0.19,0.1,0.27,0.34,0.28,0.56
					c0.04,0.62-0.25,1.28,0,1.85c0.21,0.49,1.64,0.45,2.71,1.6c0.57,0.62,0.69,1.57,0.33,2.33C12.78,32.83,12.07,33.37,11.33,33.78z
					"/>
			</g>
			<g>
				<path class="st6" d="M10.51,31.24c-0.09-0.48-0.02-0.75,0.1-1.22c0.11-0.45,0.14-0.53,0.25-0.5c0.03,0.01,0.05,0.02,0.08,0.04
					c0.38,0.27,0.76,0.54,1.15,0.81c0.15,0.11,0.32,0.24,0.36,0.42c0.03,0.15-0.03,0.31-0.09,0.45c-0.18,0.41-0.35,0.83-0.53,1.24
					c-0.01,0.03-0.02,0.05-0.04,0.08c-0.07,0.09-0.22,0.1-0.32,0.04C11.37,32.54,10.58,31.6,10.51,31.24z"/>
			</g>
			<g>
				<path class="st6" d="M9.73,30.25c0.24,0.4,0.55,0.82,0.47,1.27c-0.02,0.11-0.38,0.82-0.61,1.27c-0.08,0.15-0.28,0.16-0.38,0.02
					c-0.26-0.36-0.44-0.91-0.67-1.24c-0.04-0.05-0.05-0.11-0.04-0.18c0.15-0.7,0.29-1.12,0.44-1.85c0,0,0,0,0-0.01
					c0.04-0.21,0.34-0.23,0.42-0.03C9.47,29.77,9.59,30.02,9.73,30.25z"/>
			</g>
			<g>
				<path class="st6" d="M7.89,29.81c0.04,0.4,0.08,0.79,0.12,1.19c0.01,0.11,0.02,0.21,0.02,0.32C8,31.71,7.34,32.41,6.99,32.71
					c-0.1,0.08-0.25,0.04-0.29-0.08c-0.11-0.33-0.2-0.72-0.3-1.06c-0.08-0.25-0.02-0.52,0.14-0.72c0.37-0.45,0.77-0.84,1.09-1.34
					c0.05-0.08,0.17-0.07,0.2,0.02C7.87,29.62,7.88,29.72,7.89,29.81z"/>
			</g>
			<g>
				<g>
					<path class="st2" d="M11.56,31.45c0,0,0.01-0.01,0.02-0.01c0.22-0.15,0.24-0.47,0-0.61c-0.11-0.06-0.25-0.06-0.36,0
						c-0.12,0.07-0.16,0.18-0.18,0.3c0,0.01,0,0.01,0,0.02C11,31.41,11.35,31.59,11.56,31.45L11.56,31.45z"/>
				</g>
			</g>
			<g>
				<g>
					<path class="st2" d="M9.37,30.95c-0.19,0-0.35,0.15-0.35,0.34c0,0.19,0.16,0.34,0.35,0.34c0.19,0,0.35-0.16,0.35-0.34
						C9.71,31.11,9.56,30.95,9.37,30.95L9.37,30.95z"/>
				</g>
			</g>
			<g>
				<g>
					<path class="st2" d="M7.18,30.9c-0.49,0-0.49,0.75,0,0.75C7.67,31.65,7.67,30.9,7.18,30.9L7.18,30.9z"/>
				</g>
			</g>
			<g>
				<g>
					<path class="st5" d="M11.39,32.73c-0.37,0-0.37,0.57,0,0.57C11.76,33.3,11.76,32.73,11.39,32.73L11.39,32.73z"/>
				</g>
			</g>
			<g>
				<g>
					<path class="st5" d="M9.46,33.01c-0.37,0-0.37,0.57,0,0.57C9.83,33.58,9.83,33.01,9.46,33.01L9.46,33.01z"/>
				</g>
			</g>
			<g>
				<g>
					<path class="st5" d="M6.92,32.86c-0.2,0-0.37,0.17-0.37,0.37c0,0.2,0.17,0.36,0.37,0.36c0.2,0,0.37-0.17,0.37-0.36
						C7.29,33.03,7.12,32.86,6.92,32.86L6.92,32.86z"/>
				</g>
			</g>
			<g>
				<g>
					<path class="st5" d="M10.75,28.96c-0.32,0-0.32,0.49,0,0.49C11.07,29.46,11.07,28.96,10.75,28.96L10.75,28.96z"/>
				</g>
			</g>
			<g>
				<g>
					<path class="st5" d="M9.11,28.69c-0.35,0-0.35,0.54,0,0.54C9.46,29.23,9.46,28.69,9.11,28.69L9.11,28.69z"/>
				</g>
			</g>
			<g>
				<g>
					<path class="st5" d="M7.76,28.76c-0.4,0-0.4,0.61,0,0.61C8.16,29.37,8.16,28.76,7.76,28.76L7.76,28.76z"/>
				</g>
			</g>
		</g>
		<g>
			<g>
				<path class="st5" d="M19.35,57.12c-0.08-0.08-0.13-0.18-0.19-0.27c-0.04-0.06-0.1-0.16-0.19-0.11
					c-0.03,0.02-0.05,0.05-0.05,0.08c0.02,0.18,0.21,0.31,0.36,0.39C19.33,57.24,19.39,57.17,19.35,57.12L19.35,57.12z"/>
			</g>
		</g>
		<g>
			<g>
				<path class="st5" d="M19.75,56.13c0.01-0.15,0.01-0.27-0.1-0.38c-0.02-0.02-0.07-0.02-0.08,0.01c-0.02,0.05-0.04,0.1-0.04,0.15
					c0,0.07,0.03,0.15,0.03,0.22C19.56,56.26,19.74,56.25,19.75,56.13L19.75,56.13z"/>
			</g>
		</g>
		<g>
			<g>
				<path class="st5" d="M18.77,55.76c-0.03-0.11-0.09-0.27-0.21-0.31c-0.03-0.01-0.07,0.02-0.06,0.05c0.01,0.11,0.1,0.2,0.14,0.3
					C18.66,55.89,18.79,55.85,18.77,55.76L18.77,55.76z"/>
			</g>
		</g>
		<g>
			<g>
				<path class="st5" d="M19.62,54.87c-0.08-0.13-0.15-0.31-0.29-0.38c-0.08-0.04-0.21,0.02-0.17,0.13
					c0.06,0.16,0.22,0.26,0.36,0.35C19.58,55.02,19.66,54.94,19.62,54.87L19.62,54.87z"/>
			</g>
		</g>
		<g>
			<g>
				<path class="st5" d="M22.39,55.6c-0.13,0.04-0.26,0.01-0.38,0.05c-0.03,0.01-0.03,0.05,0,0.06c0.13,0.04,0.28,0.02,0.4-0.03
					C22.46,55.66,22.45,55.58,22.39,55.6L22.39,55.6z"/>
			</g>
		</g>
		<g>
			<g>
				<path class="st5" d="M22.6,54.65c0.1-0.05,0.17-0.11,0.24-0.2c0.05-0.06,0.14-0.19,0.06-0.27c-0.13-0.13-0.32,0.33-0.36,0.4
					C22.51,54.63,22.56,54.67,22.6,54.65L22.6,54.65z"/>
			</g>
		</g>
		<g>
			<g>
				<path class="st5" d="M16.13,55.64c0.04,0.03,0.07,0.04,0.12,0.03c0.01,0,0-0.01,0-0.01C16.21,55.67,16.17,55.66,16.13,55.64
					C16.14,55.63,16.13,55.63,16.13,55.64L16.13,55.64z"/>
			</g>
		</g>
		<g>
			<g>
				<path class="st5" d="M16.16,55.72c-0.09-0.03-0.19-0.05-0.28-0.07c-0.04-0.01-0.08-0.02-0.13-0.03
					c-0.04-0.01-0.07,0.01-0.11,0.02c-0.02,0.01-0.03,0.03-0.02,0.05c0.07,0.18,0.36,0.16,0.52,0.15
					C16.21,55.84,16.23,55.74,16.16,55.72L16.16,55.72z"/>
			</g>
		</g>
		<g>
			<g>
				<path class="st5" d="M15.14,55.95c0.02-0.11,0.02-0.22-0.01-0.33c-0.02-0.09-0.04-0.27-0.17-0.28c-0.11,0-0.12,0.13-0.09,0.2
					c0.04,0.12,0.09,0.26,0.1,0.39C14.98,56.02,15.12,56.05,15.14,55.95L15.14,55.95z"/>
			</g>
		</g>
		<g>
			<g>
				<path class="st5" d="M15.82,54.91c0.03-0.1,0.02-0.21,0-0.31c-0.02-0.11-0.04-0.23-0.15-0.28c-0.06-0.03-0.14-0.01-0.16,0.06
					c-0.02,0.1,0.03,0.19,0.06,0.29c0.03,0.1,0.07,0.21,0.14,0.27C15.75,54.96,15.81,54.95,15.82,54.91L15.82,54.91z"/>
			</g>
		</g>
		<g>
			<g>
				<path class="st5" d="M16.16,56.43c-0.05,0-0.09,0-0.12,0.04c-0.02,0.02-0.02,0.05,0,0.07c0.04,0.04,0.07,0.03,0.12,0.03
					C16.26,56.57,16.26,56.43,16.16,56.43L16.16,56.43z"/>
			</g>
		</g>
		<path class="st13" d="M6.69,26.29c-0.66-0.22-1.29-0.72-1.24-0.94c0.25-1.09,1.81-2.58,2.7-2.96c1.12-0.48,1.64-0.02,2.26,0.34
			c0.79,0.46,6.06,3.2,8.84,4.61c2.7,1.37,5.55,3,7.34,4.01c1.26,0.71,3.82,1.53,5.03,2.07c2.26,1.01,2.85,1.35,2.73,1.57
			c-0.59,1.05-1.43,1.91-2.11,2.69c-0.19,0.21-0.39,0.43-0.66,0.51c-0.28,0.08-0.58,0.03-0.84-0.1c-4.18-2.07-8.27-4.62-12.55-6.95
			C14.29,29,10.95,27.69,6.69,26.29z"/>
		<g>
			<g>
				<path class="st6" d="M17.44,29.97c-0.1-0.05-0.12-0.19-0.04-0.27c0.43-0.45,1.23-1.09,1.78-1.5c0.1-0.08,0.24-0.08,0.35-0.01
					c0.57,0.39,1.14,0.8,1.71,1.19c0.09,0.06,0.09,0.19,0,0.25c-0.54,0.34-1.09,0.91-1.59,1.22c-0.09,0.05-0.19,0.13-0.29,0.09
					C18.71,30.68,17.94,30.24,17.44,29.97z"/>
			</g>
			<g>
				<g>
					<path class="st2" d="M19.43,30.07c0.29,0,0.53-0.24,0.53-0.52c0-0.28-0.24-0.52-0.53-0.52c-0.29,0-0.53,0.24-0.53,0.52
						C18.91,29.84,19.15,30.07,19.43,30.07L19.43,30.07z"/>
				</g>
			</g>
			<g>
				<g>
					<path class="st2" d="M19.49,31.6c0.3,0,0.3-0.46,0-0.46C19.19,31.13,19.19,31.6,19.49,31.6L19.49,31.6z"/>
				</g>
			</g>
			<g>
				<g>
					<path class="st2" d="M19.31,27.92c0.19,0,0.19-0.3,0-0.3C19.11,27.62,19.11,27.92,19.31,27.92L19.31,27.92z"/>
				</g>
			</g>
			<g>
				<g>
					<path class="st2" d="M16.87,30.06c0.1,0,0.19-0.09,0.19-0.19c0-0.1-0.09-0.19-0.19-0.19c-0.1,0-0.19,0.09-0.19,0.19
						C16.68,29.97,16.77,30.06,16.87,30.06L16.87,30.06z"/>
				</g>
			</g>
			<g>
				<g>
					<path class="st2" d="M21.57,29.42c-0.02,0.09-0.01,0.18,0.06,0.25c0.08,0.08,0.21,0.1,0.3,0.03c0.06-0.05,0.11-0.11,0.11-0.19
						c0-0.07-0.04-0.15-0.11-0.19c-0.05-0.03-0.09-0.03-0.15-0.04c0.04,0.01,0.07,0.02,0.11,0.03c0.01,0.01,0.02,0.01,0.02,0.02
						C21.81,29.23,21.6,29.27,21.57,29.42L21.57,29.42z"/>
				</g>
			</g>
		</g>
		<g>
			<g>
				<path class="st6" d="M15.93,27.06c0.02,0.13,0.05,0.46,0.24,0.43c0.09-0.02,0.06-0.14,0.04-0.19c-0.04-0.09-0.06-0.19-0.08-0.29
					C16.09,26.89,15.91,26.94,15.93,27.06L15.93,27.06z"/>
			</g>
		</g>
		<g>
			<g>
				<path class="st6" d="M22.14,31.54c0.02,0.12,0.05,0.46,0.24,0.43c0.09-0.02,0.06-0.14,0.04-0.2c-0.04-0.09-0.06-0.19-0.08-0.28
					C22.3,31.36,22.12,31.42,22.14,31.54L22.14,31.54z"/>
			</g>
		</g>
		<g>
			<g>
				<path class="st6" d="M31.36,33.93c0.02,0.13,0.05,0.46,0.24,0.43c0.09-0.02,0.06-0.14,0.03-0.19c-0.04-0.09-0.06-0.19-0.08-0.29
					C31.52,33.75,31.34,33.81,31.36,33.93L31.36,33.93z"/>
			</g>
		</g>
		<g>
			<g>
				<path class="st6" d="M9.28,22.92c0.02,0.12,0.05,0.46,0.24,0.43c0.09-0.02,0.06-0.14,0.04-0.19c-0.04-0.09-0.06-0.19-0.08-0.29
					C9.44,22.74,9.26,22.8,9.28,22.92L9.28,22.92z"/>
			</g>
		</g>
		<g>
			<g>
				<path class="st6" d="M28.35,34.21c-0.08,0.1-0.31,0.35-0.15,0.46c0.07,0.05,0.14-0.06,0.17-0.11c0.04-0.09,0.1-0.17,0.15-0.26
					C28.6,34.2,28.43,34.11,28.35,34.21L28.35,34.21z"/>
			</g>
		</g>
		<g>
			<g>
				<path class="st6" d="M14.54,25.55c0.02,0.12,0.05,0.46,0.24,0.43c0.09-0.02,0.06-0.14,0.03-0.19c-0.04-0.09-0.06-0.19-0.08-0.28
					C14.7,25.37,14.52,25.42,14.54,25.55L14.54,25.55z"/>
			</g>
		</g>
		<g>
			<g>
				<path class="st6" d="M10.81,25.84c0.02,0.13,0.05,0.46,0.24,0.43c0.09-0.02,0.06-0.14,0.04-0.19c-0.04-0.09-0.06-0.19-0.08-0.29
					C10.98,25.66,10.79,25.71,10.81,25.84L10.81,25.84z"/>
			</g>
		</g>
		<g>
			<g>
				<path class="st6" d="M27.97,32.75c0.02,0.13,0.05,0.46,0.24,0.43c0.09-0.02,0.06-0.14,0.04-0.19c-0.04-0.09-0.06-0.19-0.08-0.28
					C28.14,32.57,27.95,32.63,27.97,32.75L27.97,32.75z"/>
			</g>
		</g>
		<g>
			<g>
				<path class="st6" d="M9.03,25.48c0.02,0.12,0.05,0.46,0.24,0.43c0.09-0.02,0.06-0.14,0.04-0.19c-0.04-0.09-0.06-0.19-0.08-0.29
					C9.2,25.3,9.01,25.35,9.03,25.48L9.03,25.48z"/>
			</g>
		</g>
		<g>
			<g>
				<path class="st6" d="M6.26,24.63c-0.05,0.12-0.2,0.42-0.01,0.49c0.09,0.03,0.12-0.09,0.13-0.15c0.01-0.1,0.04-0.19,0.08-0.29
					C6.49,24.55,6.3,24.51,6.26,24.63L6.26,24.63z"/>
			</g>
		</g>
		<g>
			<g>
				<path class="st6" d="M15.02,28.32c0.02,0.12,0.05,0.46,0.24,0.43c0.09-0.02,0.06-0.14,0.03-0.19c-0.04-0.09-0.06-0.19-0.08-0.28
					C15.19,28.14,15,28.19,15.02,28.32L15.02,28.32z"/>
			</g>
		</g>
		<g>
			<g>
				<path class="st6" d="M13.53,28.08c0.02,0.1,0.04,0.38,0.2,0.35c0.08-0.01,0.05-0.12,0.03-0.16c-0.03-0.08-0.05-0.16-0.07-0.24
					C13.67,27.93,13.51,27.97,13.53,28.08L13.53,28.08z"/>
			</g>
		</g>
		<g>
			<g>
				<path class="st6" d="M26.73,34.96c0.02,0.1,0.04,0.38,0.2,0.35c0.07-0.01,0.05-0.12,0.03-0.16c-0.03-0.07-0.05-0.15-0.07-0.24
					C26.87,34.81,26.71,34.86,26.73,34.96L26.73,34.96z"/>
			</g>
		</g>
		<g>
			<g>
				<path class="st6" d="M25.54,34.02c-0.09,0.06-0.34,0.19-0.25,0.32c0.04,0.06,0.13,0,0.16-0.04c0.06-0.06,0.12-0.11,0.19-0.16
					C25.73,34.08,25.62,33.96,25.54,34.02L25.54,34.02z"/>
			</g>
		</g>
		<g>
			<g>
				<path class="st6" d="M23.49,31.75c0.02,0.1,0.04,0.38,0.2,0.35c0.07-0.01,0.05-0.12,0.03-0.16c-0.03-0.08-0.05-0.16-0.07-0.24
					C23.62,31.6,23.47,31.65,23.49,31.75L23.49,31.75z"/>
			</g>
		</g>
		<g>
			<g>
				<path class="st6" d="M24.24,33.34c0.02,0.1,0.04,0.38,0.2,0.35c0.07-0.01,0.05-0.12,0.03-0.16c-0.03-0.08-0.05-0.16-0.07-0.24
					C24.38,33.19,24.22,33.24,24.24,33.34L24.24,33.34z"/>
			</g>
		</g>
		<g>
			<g>
				<path class="st6" d="M29.56,33.37c0.02,0.1,0.04,0.38,0.2,0.35c0.07-0.01,0.05-0.12,0.03-0.16c-0.03-0.08-0.05-0.16-0.07-0.24
					C29.69,33.22,29.54,33.27,29.56,33.37L29.56,33.37z"/>
			</g>
		</g>
		<g>
			<g>
				<path class="st6" d="M16.94,28.43c0.1,0.04,0.18,0.11,0.3,0.09c0.03-0.01,0.04-0.04,0.04-0.07c-0.03-0.13-0.17-0.17-0.29-0.21
					C16.88,28.19,16.83,28.38,16.94,28.43L16.94,28.43z"/>
			</g>
		</g>
		<g>
			<g>
				<path class="st6" d="M20.77,30.74c0.1,0.04,0.18,0.11,0.3,0.09c0.03-0.01,0.04-0.04,0.04-0.07c-0.03-0.13-0.17-0.17-0.29-0.21
					C20.71,30.51,20.66,30.7,20.77,30.74L20.77,30.74z"/>
			</g>
		</g>
		<g>
			<g>
				<path class="st6" d="M22.65,32.96c0.1,0.04,0.18,0.11,0.3,0.09c0.03-0.01,0.04-0.04,0.04-0.07c-0.03-0.13-0.17-0.17-0.29-0.21
					C22.58,32.73,22.53,32.91,22.65,32.96L22.65,32.96z"/>
			</g>
		</g>
		<g>
			<g>
				<path class="st6" d="M20.92,32c0.1,0.04,0.18,0.11,0.3,0.09c0.03-0.01,0.04-0.04,0.04-0.06c-0.03-0.13-0.17-0.17-0.29-0.21
					C20.85,31.76,20.8,31.95,20.92,32L20.92,32z"/>
			</g>
		</g>
		<g>
			<g>
				<path class="st6" d="M14.34,26.98c0.1,0.04,0.18,0.11,0.3,0.09c0.03-0.01,0.04-0.04,0.04-0.07c-0.03-0.13-0.17-0.17-0.29-0.21
					C14.27,26.75,14.22,26.94,14.34,26.98L14.34,26.98z"/>
			</g>
		</g>
		<g>
			<g>
				<path class="st6" d="M26.54,33.48c0.1,0.04,0.18,0.11,0.3,0.09c0.03-0.01,0.04-0.04,0.04-0.07c-0.03-0.13-0.17-0.17-0.29-0.21
					C26.47,33.25,26.43,33.44,26.54,33.48L26.54,33.48z"/>
			</g>
		</g>
		<g>
			<g>
				<path class="st6" d="M28.85,36.13c0.1,0.04,0.18,0.11,0.3,0.09c0.03-0.01,0.04-0.04,0.04-0.06c-0.03-0.13-0.17-0.17-0.29-0.21
					C28.79,35.9,28.74,36.09,28.85,36.13L28.85,36.13z"/>
			</g>
		</g>
		<g>
			<g>
				<path class="st6" d="M10.3,24.41c0.1,0.04,0.18,0.11,0.3,0.09c0.03,0,0.04-0.04,0.04-0.06c-0.03-0.13-0.17-0.17-0.29-0.21
					C10.23,24.17,10.18,24.36,10.3,24.41L10.3,24.41z"/>
			</g>
		</g>
		<g>
			<g>
				<path class="st6" d="M26.33,32.04c0.1,0.04,0.18,0.11,0.3,0.09c0.03-0.01,0.04-0.04,0.04-0.07c-0.03-0.13-0.17-0.17-0.29-0.21
					C26.26,31.81,26.21,32,26.33,32.04L26.33,32.04z"/>
			</g>
		</g>
		<g>
			<g>
				<path class="st6" d="M29.93,34.86c0.1,0.04,0.18,0.11,0.3,0.09c0.03-0.01,0.04-0.04,0.04-0.06c-0.03-0.13-0.17-0.17-0.29-0.21
					C29.87,34.63,29.82,34.82,29.93,34.86L29.93,34.86z"/>
			</g>
		</g>
		<g>
			<g>
				<path class="st6" d="M11.95,24.48c0.1,0.04,0.18,0.11,0.3,0.09c0.03-0.01,0.04-0.04,0.04-0.07c-0.03-0.13-0.17-0.17-0.29-0.21
					C11.88,24.25,11.84,24.43,11.95,24.48L11.95,24.48z"/>
			</g>
		</g>
		<g>
			<g>
				<path class="st6" d="M8.15,23.88c0.1,0.04,0.18,0.11,0.3,0.09c0.03-0.01,0.04-0.04,0.04-0.07c-0.03-0.13-0.17-0.17-0.29-0.21
					C8.08,23.64,8.04,23.83,8.15,23.88L8.15,23.88z"/>
			</g>
		</g>
		<g>
			<g>
				<path class="st6" d="M7.21,23.66c0.1,0.04,0.18,0.11,0.3,0.09c0.03,0,0.04-0.04,0.04-0.06c-0.03-0.13-0.17-0.17-0.29-0.21
					C7.14,23.43,7.09,23.62,7.21,23.66L7.21,23.66z"/>
			</g>
		</g>
		<g>
			<g>
				<path class="st6" d="M12.75,25.68c0.1,0.04,0.18,0.11,0.3,0.09c0.03-0.01,0.04-0.04,0.04-0.07c-0.03-0.13-0.17-0.17-0.29-0.21
					C12.69,25.45,12.64,25.64,12.75,25.68L12.75,25.68z"/>
			</g>
		</g>
		<g>
			<g>
				<path class="st6" d="M32.56,35.56c0.1,0.04,0.18,0.11,0.3,0.09c0.03,0,0.04-0.04,0.04-0.06c-0.03-0.13-0.17-0.17-0.29-0.21
					C32.5,35.33,32.45,35.51,32.56,35.56L32.56,35.56z"/>
			</g>
		</g>
		<g>
			<g>
				<path class="st6" d="M25.18,32.53c0.1,0.04,0.18,0.11,0.3,0.09c0.03,0,0.04-0.04,0.04-0.06c-0.03-0.13-0.17-0.17-0.28-0.21
					C25.12,32.29,25.07,32.48,25.18,32.53L25.18,32.53z"/>
			</g>
		</g>
		<g>
			<g>
				<path class="st6" d="M7.49,25.22c0.1,0.04,0.18,0.11,0.3,0.09c0.03-0.01,0.04-0.04,0.04-0.07c-0.03-0.13-0.17-0.17-0.28-0.21
					C7.43,24.99,7.38,25.18,7.49,25.22L7.49,25.22z"/>
			</g>
		</g>
		<g>
			<g>
				<path class="st6" d="M17.85,27.42c0.1,0.04,0.18,0.11,0.3,0.09c0.03-0.01,0.04-0.04,0.04-0.07c-0.03-0.13-0.17-0.17-0.29-0.21
					C17.78,27.18,17.73,27.37,17.85,27.42L17.85,27.42z"/>
			</g>
		</g>
		<g>
			<g>
				<path class="st6" d="M22.91,30.43c0.1,0.04,0.18,0.11,0.3,0.09c0.03,0,0.04-0.04,0.04-0.06c-0.03-0.13-0.17-0.17-0.29-0.21
					C22.84,30.19,22.8,30.38,22.91,30.43L22.91,30.43z"/>
			</g>
		</g>
		<g>
			<g>
				<path class="st6" d="M24.86,31.24c0.1,0.04,0.18,0.11,0.3,0.09c0.03-0.01,0.04-0.04,0.04-0.07c-0.03-0.13-0.17-0.17-0.29-0.21
					C24.79,31.01,24.74,31.2,24.86,31.24L24.86,31.24z"/>
			</g>
		</g>
		<g>
			<g>
				<path class="st6" d="M12.56,27.22c0.1,0.04,0.18,0.11,0.3,0.09c0.03-0.01,0.04-0.04,0.04-0.06c-0.03-0.13-0.17-0.17-0.28-0.21
					C12.49,26.99,12.44,27.18,12.56,27.22L12.56,27.22z"/>
			</g>
		</g>
		<g>
			<g>
				<path class="st6" d="M8.25,26.38c0.1,0.04,0.18,0.11,0.3,0.09c0.03-0.01,0.04-0.04,0.04-0.06c-0.03-0.13-0.17-0.17-0.28-0.21
					C8.18,26.15,8.13,26.33,8.25,26.38L8.25,26.38z"/>
			</g>
		</g>
		<g>
			<g>
				<path class="st6" d="M11.07,27.34c0.1,0.04,0.18,0.11,0.3,0.09c0.03-0.01,0.04-0.04,0.04-0.07c-0.03-0.13-0.17-0.17-0.28-0.21
					C11.01,27.11,10.96,27.3,11.07,27.34L11.07,27.34z"/>
			</g>
		</g>
		<g>
			<g>
				<path class="st6" d="M30.78,36.45c0.1,0.04,0.18,0.11,0.3,0.09c0.03-0.01,0.04-0.04,0.04-0.07c-0.03-0.13-0.17-0.17-0.29-0.21
					C30.71,36.21,30.66,36.4,30.78,36.45L30.78,36.45z"/>
			</g>
		</g>
	</g>
	<g>
		<g>
			<path class="st14" d="M5.15,12.24c0.05,0,0.09-0.01,0.13-0.04c0.29-0.19,1.05-0.98,1.26-1.2c0.04-0.04,0.08-0.09,0.08-0.15
				c-0.01-0.05-0.04-0.08-0.08-0.12c-0.33-0.32-0.67-0.63-0.98-0.97C5.43,9.62,5.28,9.45,5.18,9.45H5.13
				c-0.1,0.01-0.26,0.18-0.39,0.32c-0.31,0.34-0.65,0.65-0.98,0.97c-0.03,0.03-0.07,0.07-0.07,0.12c-0.01,0.06,0.04,0.11,0.08,0.15
				c0.22,0.22,0.97,1,1.26,1.2C5.06,12.23,5.11,12.24,5.15,12.24L5.15,12.24z"/>
		</g>
	</g>
	<g>
		<g>
			<path class="st14" d="M34.74,50.32c0.05,0,0.09-0.01,0.13-0.04c0.29-0.19,1.04-0.98,1.26-1.2c0.04-0.04,0.08-0.09,0.08-0.15
				c0-0.05-0.04-0.08-0.07-0.12c-0.33-0.32-0.67-0.63-0.98-0.97c-0.13-0.15-0.29-0.31-0.39-0.32h-0.05
				c-0.1,0.01-0.26,0.17-0.39,0.32c-0.31,0.34-0.66,0.65-0.98,0.97c-0.03,0.03-0.07,0.07-0.07,0.12c-0.01,0.06,0.04,0.11,0.08,0.15
				c0.22,0.22,0.97,1.01,1.26,1.2C34.65,50.31,34.7,50.32,34.74,50.32L34.74,50.32z"/>
		</g>
	</g>
	<g>
		<path class="st14" d="M7.67,8.42H6.9L5.22,5.36L3.94,6.95v1.48h-0.7V2.89h0.7V6.1l2.53-3.21h0.76L5.71,4.82L7.67,8.42z"/>
	</g>
	<g>
		<path class="st14" d="M32.21,51.58h0.77l1.68,3.06l1.28-1.58v-1.48h0.7v5.54h-0.7V53.9l-2.53,3.21h-0.76l1.52-1.94L32.21,51.58z"
			/>
	</g>
	<g>
		<g>
			<g>
				<path class="st14" d="M11.93,56.94h-5.9c-1.61,0-2.92-1.38-2.92-3.07V15.09h0.18v38.78c0,1.6,1.23,2.89,2.74,2.89h5.9V56.94z"/>
			</g>
		</g>
		<g>
			<g>
				<rect x="26.91" y="56.76" class="st14" width="5.03" height="0.18"/>
			</g>
		</g>
		<g>
			<g>
				<path class="st14" d="M36.77,45.1h-0.18V6.13c0-1.59-1.23-2.89-2.74-2.89h-5.74V3.06h5.74c1.61,0,2.93,1.38,2.93,3.07V45.1z"/>
			</g>
		</g>
		<g>
			<g>
				<rect x="8.23" y="3.06" class="st14" width="4.68" height="0.18"/>
			</g>
		</g>
	</g>
	<g>
		<path class="st5" d="M20.11,24.92c0.03,0.16,0.11,0.27,0.27,0.31c0.09,0.02,0.15-0.07,0.11-0.15c-0.05-0.11-0.13-0.18-0.21-0.27
			C20.21,24.73,20.09,24.82,20.11,24.92L20.11,24.92z"/>
	</g>
	<g>
		<path class="st5" d="M22.5,26.37c0.14,0.07,0.26,0.11,0.42,0.09c0.1-0.02,0.11-0.14,0.06-0.21c-0.13-0.15-0.31-0.14-0.48-0.04
			C22.45,26.24,22.44,26.34,22.5,26.37L22.5,26.37z"/>
	</g>
	<g>
		<path class="st5" d="M24.17,24.84c0.21-0.07,0.49-0.07,0.67-0.2c0.06-0.05,0.06-0.15-0.02-0.17c-0.26-0.08-0.5,0.14-0.69,0.3
			C24.09,24.79,24.13,24.85,24.17,24.84L24.17,24.84z"/>
	</g>
	<g>
		<path class="st5" d="M26.27,22.51c0.06,0.16,0.14,0.28,0.29,0.38c0.07,0.04,0.13-0.04,0.1-0.1c-0.07-0.13-0.16-0.24-0.25-0.36
			C26.36,22.36,26.24,22.43,26.27,22.51L26.27,22.51z"/>
	</g>
	<g>
		<path class="st5" d="M27.32,24.28c0.1,0.14,0.15,0.31,0.31,0.39c0.05,0.03,0.11-0.01,0.12-0.07c0.01-0.18-0.11-0.31-0.22-0.45
			C27.44,24.04,27.23,24.15,27.32,24.28L27.32,24.28z"/>
	</g>
	<g>
		<path class="st5" d="M29.14,23.59c0.11,0.04,0.19,0.11,0.31,0.13c0.07,0.02,0.12-0.04,0.1-0.1c-0.04-0.18-0.17-0.24-0.33-0.31
			C29.04,23.24,28.96,23.52,29.14,23.59L29.14,23.59z"/>
	</g>
	<g>
		<path class="st5" d="M25.48,27.16c-0.01,0.14,0.01,0.22,0.1,0.33c0.03,0.03,0.09,0.01,0.09-0.04c-0.01-0.1-0.02-0.19-0.01-0.29
			C25.66,27.05,25.49,27.05,25.48,27.16L25.48,27.16z"/>
	</g>
	<g>
		<path class="st5" d="M23.69,28.46c0.01,0.16,0.04,0.29,0.21,0.34c0.04,0.01,0.07-0.02,0.07-0.05c0-0.1-0.03-0.19-0.03-0.29
			C23.94,28.3,23.68,28.3,23.69,28.46L23.69,28.46z"/>
	</g>
	<g>
		<path class="st5" d="M25.81,29.84c0.08,0.04,0.13,0.09,0.19,0.16c0.06,0.06,0.14,0,0.13-0.07c-0.02-0.13-0.1-0.2-0.22-0.26
			C25.8,29.61,25.69,29.79,25.81,29.84L25.81,29.84z"/>
	</g>
	<g>
		<path class="st5" d="M16.24,24.62c0.03,0.1,0.04,0.18,0.09,0.27c0.03,0.06,0.11,0.06,0.16,0.02c0.02-0.02,0.03-0.03,0.05-0.05
			c0.04-0.04,0.05-0.09,0.04-0.14c-0.03-0.14-0.11-0.21-0.25-0.2C16.27,24.53,16.22,24.57,16.24,24.62L16.24,24.62z"/>
	</g>
	<g>
		<path class="st5" d="M19.74,26.66c0.05,0.07,0.06,0.07,0.14,0.12c0.04,0.02,0.09,0.02,0.12,0c0.02-0.01,0.04-0.02,0.05-0.04
			c0.04-0.02,0.05-0.08,0.02-0.11c-0.05-0.04-0.13-0.09-0.17-0.12C19.8,26.39,19.65,26.55,19.74,26.66L19.74,26.66z"/>
	</g>
	<g>
		<path class="st5" d="M15.46,31.78c0.13-0.04,0.26-0.03,0.39-0.06c0.1-0.02,0.08-0.15,0-0.18c-0.17-0.07-0.31-0.02-0.47,0.05
			C15.28,31.65,15.36,31.81,15.46,31.78L15.46,31.78z"/>
	</g>
	<g>
		<path class="st5" d="M5.79,27.61c-0.01,0-0.02,0-0.03,0c-0.06,0-0.11,0.04-0.13,0.1c-0.05,0.18,0.02,0.33,0.19,0.4
			c0.06,0.02,0.12-0.03,0.12-0.09c0-0.12-0.01-0.27-0.07-0.38C5.85,27.62,5.82,27.61,5.79,27.61L5.79,27.61z"/>
	</g>
	<g>
		<path class="st5" d="M33.88,31.81c0.18,0.06,0.32,0.11,0.47-0.02c0.03-0.03,0.03-0.09,0-0.12c-0.16-0.13-0.29-0.08-0.47-0.02
			C33.8,31.68,33.8,31.78,33.88,31.81L33.88,31.81z"/>
	</g>
	<g>
		<path class="st5" d="M34.06,33.47c0,0.12-0.02,0.18,0.05,0.29c0.03,0.05,0.12,0.07,0.16,0.02c0.02-0.02,0.03-0.03,0.04-0.05
			c0.05-0.05,0.06-0.12,0.02-0.18c-0.05-0.08-0.07-0.1-0.15-0.15C34.13,33.36,34.06,33.4,34.06,33.47L34.06,33.47z"/>
	</g>
	<g>
		<path class="st5" d="M28.51,31.78c0.12-0.03,0.22-0.01,0.34-0.04c0.05-0.02,0.06-0.08,0.01-0.11c-0.15-0.08-0.26-0.05-0.4,0.05
			C28.42,31.72,28.44,31.8,28.51,31.78L28.51,31.78z"/>
	</g>
	<g>
		<path class="st5" d="M13.88,30.02c-0.05,0.16-0.07,0.31-0.02,0.48c0.02,0.04,0.08,0.07,0.11,0.03c0.13-0.16,0.14-0.31,0.1-0.51
			C14.05,29.92,13.91,29.93,13.88,30.02L13.88,30.02z"/>
	</g>
	<g>
		<path class="st5" d="M13.6,33.72c0.09,0.03,0.16,0.08,0.25,0.11c0.05,0.02,0.11-0.03,0.11-0.08c-0.01-0.19-0.15-0.27-0.33-0.26
			C13.5,33.5,13.48,33.68,13.6,33.72L13.6,33.72z"/>
	</g>
	<g>
		<path class="st5" d="M16.19,34.09c0.08,0.15,0.17,0.29,0.33,0.36c0.07,0.03,0.17-0.04,0.12-0.11c-0.08-0.13-0.2-0.22-0.28-0.34
			C16.28,33.9,16.13,33.98,16.19,34.09L16.19,34.09z"/>
	</g>
	<g>
		<path class="st5" d="M14.12,35.85c0.05,0.19,0.04,0.43,0.21,0.56c0.02,0.02,0.07,0.01,0.08-0.02c0.1-0.19-0.02-0.4-0.1-0.59
			C14.27,35.68,14.09,35.72,14.12,35.85L14.12,35.85z"/>
	</g>
	<g>
		<path class="st5" d="M11.75,35.69c-0.02,0.08-0.05,0.16-0.08,0.25c-0.03,0.08,0.07,0.18,0.15,0.15c0.18-0.07,0.25-0.21,0.2-0.4
			C11.98,35.56,11.78,35.56,11.75,35.69L11.75,35.69z"/>
	</g>
	<g>
		<path class="st5" d="M12.43,37.58c0.05,0.02,0.11,0.05,0.16,0.07c0.04,0.02,0.11-0.02,0.07-0.07c-0.06-0.08-0.06-0.08-0.15-0.14
			C12.42,37.39,12.33,37.54,12.43,37.58L12.43,37.58z"/>
	</g>
	<g>
		<path class="st5" d="M18.72,32.95c0.13,0.07,0.21,0.19,0.35,0.21c0.06,0.01,0.1-0.02,0.1-0.08c0.02-0.25-0.24-0.31-0.44-0.26
			C18.68,32.84,18.66,32.92,18.72,32.95L18.72,32.95z"/>
	</g>
	<g>
		<path class="st5" d="M19.24,36.06c0.17-0.02,0.32-0.06,0.44-0.19c0.04-0.05,0.01-0.11-0.05-0.12c-0.16-0.01-0.3,0.05-0.44,0.14
			C19.12,35.94,19.14,36.07,19.24,36.06L19.24,36.06z"/>
	</g>
	<g>
		<path class="st5" d="M22.27,34.4c0.05,0.15,0.1,0.31,0.28,0.3c0.04,0,0.08-0.03,0.08-0.06c0.03-0.18-0.1-0.24-0.23-0.34
			C22.33,34.26,22.25,34.33,22.27,34.4L22.27,34.4z"/>
	</g>
	<g>
		<path class="st5" d="M24.55,36.27c0.16,0,0.33-0.01,0.48-0.08c0.06-0.03,0.05-0.11,0-0.14c-0.17-0.12-0.37-0.08-0.53,0.02
			C24.41,36.12,24.43,36.27,24.55,36.27L24.55,36.27z"/>
	</g>
	<g>
		<path class="st5" d="M28.02,37.54c0.12,0.09,0.21,0.19,0.35,0.24c0.06,0.02,0.11-0.04,0.1-0.1c-0.04-0.18-0.17-0.26-0.34-0.33
			C28.03,37.32,27.94,37.47,28.02,37.54L28.02,37.54z"/>
	</g>
	<g>
		<path class="st5" d="M10.88,34.61c0.07-0.05,0.15-0.08,0.23-0.1c0.04-0.01,0.03-0.06-0.01-0.06c-0.12-0.01-0.17,0.02-0.27,0.1
			C10.8,34.57,10.84,34.63,10.88,34.61L10.88,34.61z"/>
	</g>
</g>
</svg>
