<?xml version="1.0" encoding="utf-8"?>
<!-- Generator: Adobe Illustrator 26.3.1, SVG Export Plug-In . SVG Version: 6.00 Build 0)  -->
<svg version="1.1" id="Layer_1" xmlns="http://www.w3.org/2000/svg" xmlns:xlink="http://www.w3.org/1999/xlink" x="0px" y="0px"
	 viewBox="0 0 40 60" style="enable-background:new 0 0 40 60;" xml:space="preserve">
<style type="text/css">
	.st0{fill:#FFFFFF;}
	.st1{fill:#2D2D2D;}
	.st2{fill:#0C0A35;}
	.st3{fill:#222272;}
	.st4{fill:#FFD6A1;}
	.st5{fill:#B70027;}
	.st6{clip-path:url(#SVGID_00000108274472064072474160000003944482559827549867_);}
	.st7{fill:#191956;}
	.st8{fill:#FCC07E;}
	.st9{clip-path:url(#SVGID_00000140005560285862984250000011092124286610544256_);}
	.st10{fill:#F70032;}
	.st11{fill:#141247;}
	.st12{clip-path:url(#SVGID_00000011750338813534181370000005238129954221952935_);}
	.st13{clip-path:url(#SVGID_00000010995268425741512190000012437902028414618262_);}
	.st14{clip-path:url(#SVGID_00000065063697008690463780000007227494861226925492_);}
	.st15{clip-path:url(#SVGID_00000119831523773789499890000015445890922013750407_);}
</style>
<g>
	<g>
		<path class="st0" d="M36.54,59.91H3.46c-1.86,0-3.37-1.49-3.37-3.32V3.41c0-1.83,1.51-3.32,3.37-3.32h33.08
			c1.86,0,3.37,1.49,3.37,3.32v53.17C39.91,58.42,38.4,59.91,36.54,59.91z"/>
		<path class="st1" d="M36.54,60H3.46C1.55,60,0,58.47,0,56.59V3.41C0,1.53,1.55,0,3.46,0h33.08C38.45,0,40,1.53,40,3.41v53.17
			C40,58.47,38.45,60,36.54,60z M3.46,0.18c-1.81,0-3.28,1.45-3.28,3.23v53.17c0,1.78,1.47,3.23,3.28,3.23h33.08
			c1.81,0,3.28-1.45,3.28-3.23V3.41c0-1.78-1.47-3.23-3.28-3.23H3.46z"/>
	</g>
	<g>
		<g>
			<path class="st2" d="M31.4,38.12c-0.06-1.27-0.13-2.54-0.19-3.81c-0.01-0.26-0.02-0.52,0.09-0.76c0.17-0.36,0.59-0.6,0.94-0.87
				c0.87-0.68,1.33-1.65,1.37-2.62c0.04-0.97-0.32-1.93-0.91-2.78c-0.16-0.23-0.34-0.46-0.43-0.71c-0.19-0.58,0.12-1.18,0.14-1.77
				c0.04-1.21-1.09-2.24-2.27-3.02c-1.45-0.95-3.11-1.74-4.92-2.16c-0.98-0.22-1.99-0.33-3.01-0.44c-1.97-0.21-3.96-0.4-5.95-0.29
				c-1.99,0.11-3.98,0.53-5.59,1.46c-1.71,0.98-4.38,1.38-5.19,4.52c-0.95,3.65,1.5,11.77,1.85,12.18
				c7.4,8.61,17.03,1.07,17.89,1.02c1.25-0.07,2.54-0.25,3.72,0.07c0.39,0.11,0.76,0.27,1.17,0.33
				C30.51,38.53,31.15,38.38,31.4,38.12z"/>
		</g>
		<g>
			<path class="st2" d="M8.09,22.08c0.06,1.27,0.13,2.54,0.19,3.82c0.01,0.26,0.02,0.52-0.09,0.76c-0.17,0.36-0.59,0.6-0.94,0.87
				c-0.87,0.68-1.33,1.65-1.37,2.62c-0.04,0.97,0.32,1.93,0.91,2.78c0.16,0.23,0.34,0.46,0.43,0.72c0.19,0.58-0.12,1.18-0.14,1.77
				c-0.04,1.21,1.09,2.24,2.27,3.02c1.45,0.95,3.11,1.74,4.92,2.16c0.98,0.22,1.99,0.33,3.01,0.44c1.97,0.21,3.96,0.4,5.94,0.3
				c1.99-0.11,3.99-0.53,5.59-1.46c1.71-0.98,4.38-1.38,5.19-4.52c0.95-3.65,0.68-9.09,0.67-9.63c-0.01-0.36-0.76-5.59-8.53-6.32
				c-7.23-0.68-16.52,2.39-16.76,2.35C8.97,21.67,8.34,21.82,8.09,22.08z"/>
		</g>
		<g>
			<path class="st3" d="M19.49,0.8c0.1-0.07,0.23-0.05,0.33,0.01c0.1,0.06,0.17,0.16,0.23,0.26c0.27,0.43,0.45,0.93,0.51,1.43
				c-0.56,0.24-1.2,0.3-1.8,0.18c0.15-0.58,0.35-1.15,0.6-1.7C19.39,0.92,19.43,0.84,19.49,0.8z"/>
		</g>
		<path class="st3" d="M6.91,36.07c0.52,2.09,1.34,3.02,3.39,3.75c0.13,0.05,0.27,0.09,0.41,0.08c0.21-0.02,0.39-0.16,0.56-0.29
			c7.17-5.63,15.41-9.14,22.2-15.26c0.09-0.08,0.63-0.68,0.65-0.8c0.01-0.11-0.06-0.22-0.12-0.32c-0.57-0.82-1.16-1.65-1.92-2.3
			c-0.76-0.66-1.52-0.9-2.53-0.88c-1.69,0.04-3.92,2.19-5.85,3.5c-4.67,3.19-8.14,4.86-12.68,8.24c-1.34,1-2.61,2.1-3.8,3.28
			c-0.15,0.15-0.31,0.31-0.35,0.52C6.83,35.74,6.87,35.91,6.91,36.07z"/>
		<g>
			<path class="st4" d="M21.6,16.66c1.42-1.85,1.77-4.31,1.66-6.63c-0.02-0.44-0.06-0.91-0.32-1.27c-0.28-0.41-0.78-0.63-1.26-0.78
				c-2.54-0.82-5.44-0.53-7.76,0.79c-0.2,0.11-0.42,0.27-0.43,0.49c-0.02,0.21,0.14,0.38,0.29,0.52c0.41,0.4,0.85,0.76,1.32,1.08
				c-1.46,1.58-2.93,3.34-3.17,5.46c0.89-0.26,1.73-0.66,2.48-1.18c-0.22,0.82-0.36,1.65-0.4,2.5c-0.02,0.41-0.02,0.84,0.2,1.2
				c0.37,0.62,1.21,0.74,1.94,0.8c0.66,0.06,1.34,0.11,1.97-0.1c0.55-0.18,1.01-0.55,1.45-0.91C20.29,18.03,21.02,17.41,21.6,16.66z
				"/>
		</g>
		<path class="st5" d="M12.48,26.27c0.49,0.18,0.98,0.39,1.39,0.74c0.71,0.6,1.1,1.51,1.47,2.39c0.25,0.6,0.51,1.22,0.53,1.88
			c0.04,1.06-0.54,2.07-1.32,2.76c-0.77,0.69-1.73,1.11-2.67,1.52c-0.9,0.39-1.82,0.77-2.78,0.9c-0.97,0.13-2-0.03-2.78-0.64
			c-0.73-0.57-1.17-1.48-1.38-2.41c-0.42-1.8-0.05-3.8,1.03-5.27c1.08-1.47,2.85-2.37,4.61-2.27
			C11.23,25.89,11.87,26.05,12.48,26.27z"/>
		<g>
			<path class="st0" d="M20.39,12.23c-0.12,0.11-0.4,0.32-0.54,0.4c-0.43,0.24-0.95,0.25-1.44,0.21c-0.43-0.04-0.94-0.35-1.27-0.62
				c-0.38-0.32-0.66-0.6-0.77-0.87c1.13-0.86,2.93-1.26,4.23-0.68c0.2,0.09,0.54,0.28,0.7,0.37C21.09,11.57,20.82,11.84,20.39,12.23
				z"/>
		</g>
		<path class="st5" d="M27,33.93c-0.49-0.18-0.98-0.39-1.39-0.74c-0.71-0.6-1.1-1.51-1.47-2.39c-0.25-0.6-0.51-1.22-0.53-1.88
			c-0.04-1.07,0.54-2.08,1.32-2.76c0.77-0.69,1.73-1.11,2.67-1.52c0.9-0.39,1.82-0.77,2.78-0.9c0.97-0.12,2,0.03,2.78,0.64
			c0.73,0.57,1.17,1.48,1.38,2.41c0.42,1.8,0.05,3.8-1.03,5.27c-1.08,1.47-2.85,2.37-4.61,2.27C28.26,34.31,27.62,34.15,27,33.93z"
			/>
		<g>
			<path class="st3" d="M25.64,27.6c-0.8,0.97-0.91,2.35-0.38,3.48c0.5,1.07,1.66,2.43,3,2.26c0.2-0.03,0.35-0.26,0.18-0.42
				c-0.71-0.66-1.57-0.98-2.14-1.83c-0.69-1.02-0.58-2.17-0.3-3.29C26.04,27.62,25.78,27.43,25.64,27.6L25.64,27.6z"/>
		</g>
		<g>
			<path class="st3" d="M27.94,28.06c-0.96,1.29,0.16,4.98,1.77,5.35c0.24,0.06,0.46-0.15,0.4-0.39c-0.21-0.84-0.99-1.53-1.31-2.37
				c-0.26-0.69-0.67-1.66-0.38-2.39C28.53,27.97,28.1,27.85,27.94,28.06L27.94,28.06z"/>
		</g>
		<g>
			<path class="st3" d="M29.98,28.02c0.59,0.82,0.89,1.7,0.94,2.71c0.03,0.69-0.34,1.51,0.04,2.13c0.09,0.14,0.27,0.19,0.42,0.11
				c0.83-0.43,0.72-1.75,0.63-2.53c-0.13-1.11-0.66-2.08-1.47-2.84C30.25,27.34,29.74,27.69,29.98,28.02L29.98,28.02z"/>
		</g>
		<g>
			<path class="st3" d="M32.95,31.2c1.49-0.15,1.14-2.51,0.91-3.49c-0.16-0.68-1.24-3.77-2.33-2.3c-0.18,0.24,0,0.69,0.3,0.74
				c0.65,0.09,0.97,1.37,1.13,1.93c0.26,0.87,0.36,2.11-0.13,2.92C32.78,31.07,32.84,31.21,32.95,31.2L32.95,31.2z"/>
		</g>
		<g>
			<path class="st3" d="M26.88,30.94c0.29,0,0.29-0.44,0-0.44C26.59,30.5,26.59,30.94,26.88,30.94L26.88,30.94z"/>
		</g>
		<g>
			<path class="st3" d="M29.59,30.82c0.39,0,0.39-0.59,0-0.59S29.21,30.82,29.59,30.82L29.59,30.82z"/>
		</g>
		<g>
			<path class="st3" d="M32.5,29.15c0.37,0,0.37-0.56,0-0.56C32.14,28.59,32.14,29.15,32.5,29.15L32.5,29.15z"/>
		</g>
		<g>
			<path class="st3" d="M33.94,26.51c0.16,0,0.16-0.24,0-0.24C33.78,26.27,33.78,26.51,33.94,26.51L33.94,26.51z"/>
		</g>
		<g>
			<path class="st3" d="M24.21,29.89c0.26,0,0.26-0.39,0-0.39C23.96,29.5,23.96,29.89,24.21,29.89L24.21,29.89z"/>
		</g>
		<g>
			<path class="st3" d="M26.73,30.02c0.17,0,0.17-0.26,0-0.26C26.56,29.76,26.56,30.02,26.73,30.02L26.73,30.02z"/>
		</g>
		<g>
			<path class="st3" d="M26.78,29.28c0.15,0,0.15-0.23,0-0.23C26.63,29.05,26.63,29.28,26.78,29.28L26.78,29.28z"/>
		</g>
		<g>
			<path class="st3" d="M26.93,28.69c0.15,0,0.15-0.22,0-0.22C26.78,28.47,26.78,28.69,26.93,28.69L26.93,28.69z"/>
		</g>
		<g>
			<path class="st3" d="M27.37,31.28c-0.06-0.18-0.34-0.13-0.29,0.06C27.13,31.52,27.43,31.44,27.37,31.28L27.37,31.28z"/>
		</g>
		<g>
			<path class="st3" d="M27.64,31.8c-0.02,0-0.03-0.01-0.05-0.01c-0.17-0.03-0.17,0.23,0,0.2c0.02,0,0.03-0.01,0.05-0.01
				C27.74,31.96,27.74,31.81,27.64,31.8L27.64,31.8z"/>
		</g>
		<g>
			<path class="st3" d="M29.4,30c0.27,0,0.27-0.41,0-0.41C29.13,29.59,29.13,30,29.4,30L29.4,30z"/>
		</g>
		<g>
			<path class="st3" d="M29.25,29.34c0.23,0,0.23-0.36,0-0.36C29.01,28.98,29.01,29.34,29.25,29.34L29.25,29.34z"/>
		</g>
		<g>
			<path class="st3" d="M29.2,28.58c0.13,0,0.13-0.19,0-0.19C29.07,28.38,29.07,28.58,29.2,28.58L29.2,28.58z"/>
		</g>
		<g>
			<path class="st3" d="M29.74,31.31c0.02,0,0.03,0,0.05,0c0.13,0,0.13-0.21,0-0.21c-0.02,0-0.03,0-0.05,0
				C29.61,31.1,29.61,31.31,29.74,31.31L29.74,31.31z"/>
		</g>
		<g>
			<path class="st3" d="M29.99,31.86c0.16,0,0.16-0.24,0-0.24C29.83,31.62,29.83,31.86,29.99,31.86L29.99,31.86z"/>
		</g>
		<g>
			<path class="st3" d="M30.2,32.15c-0.01,0.01-0.01,0.02-0.02,0.03c-0.03,0.03-0.03,0.07,0,0.11c0.01,0.01,0.01,0.02,0.02,0.03
				c0.06,0.08,0.19,0.01,0.19-0.08C30.4,32.14,30.27,32.07,30.2,32.15L30.2,32.15z"/>
		</g>
		<g>
			<path class="st3" d="M32.21,28.2c0.27,0,0.27-0.42,0-0.42C31.93,27.79,31.93,28.2,32.21,28.2L32.21,28.2z"/>
		</g>
		<g>
			<path class="st3" d="M31.96,27.72c0.21,0,0.21-0.33,0-0.33C31.75,27.4,31.75,27.72,31.96,27.72L31.96,27.72z"/>
		</g>
		<g>
			<path class="st3" d="M31.57,27.21c0.19,0,0.19-0.29,0-0.29C31.38,26.93,31.38,27.21,31.57,27.21L31.57,27.21z"/>
		</g>
		<g>
			<path class="st3" d="M31.12,26.87c0.19,0,0.19-0.29,0-0.29C30.93,26.59,30.93,26.87,31.12,26.87L31.12,26.87z"/>
		</g>
		<g>
			<path class="st3" d="M32.6,29.81c0.21,0,0.21-0.32,0-0.32C32.4,29.49,32.4,29.81,32.6,29.81L32.6,29.81z"/>
		</g>
		<g>
			<path class="st3" d="M32.6,30.47c0.18,0,0.18-0.28,0-0.28C32.42,30.19,32.42,30.47,32.6,30.47L32.6,30.47z"/>
		</g>
		<g>
			<path class="st3" d="M32.55,31.01c0.13,0,0.13-0.2,0-0.2C32.43,30.82,32.43,31.01,32.55,31.01L32.55,31.01z"/>
		</g>
		<g>
			<path class="st3" d="M33.69,25.64c0.16,0,0.16-0.24,0-0.24C33.53,25.39,33.53,25.64,33.69,25.64L33.69,25.64z"/>
		</g>
		<g>
			<path class="st3" d="M33.24,25.06c0.17,0,0.17-0.26,0-0.26C33.08,24.8,33.08,25.06,33.24,25.06L33.24,25.06z"/>
		</g>
		<g>
			<path class="st3" d="M32.8,24.76c0.16,0,0.16-0.24,0-0.24C32.64,24.52,32.64,24.76,32.8,24.76L32.8,24.76z"/>
		</g>
		<g>
			<path class="st3" d="M32.13,24.37c-0.01,0.01-0.02,0.02-0.02,0.03c-0.03,0.03-0.03,0.07,0,0.1c0.01,0.01,0.01,0.02,0.02,0.03
				C32.34,24.77,32.34,24.12,32.13,24.37L32.13,24.37z"/>
		</g>
		<g>
			<path class="st3" d="M34.28,26.99c-0.02,0-0.03,0-0.05,0.01c-0.03,0-0.03,0.04,0,0.04c0.02,0,0.03,0,0.05,0.01
				C34.32,27.05,34.32,26.99,34.28,26.99L34.28,26.99z"/>
		</g>
		<g>
			<path class="st3" d="M34.23,27.17c0.19,0,0.19-0.3,0-0.3C34.04,26.87,34.04,27.17,34.23,27.17L34.23,27.17z"/>
		</g>
		<g>
			<path class="st3" d="M34.36,27.64c-0.01,0.01-0.02,0.02-0.02,0.03c-0.02,0.02-0.02,0.05,0,0.08c0.01,0.01,0.02,0.02,0.02,0.02
				C34.54,27.95,34.54,27.45,34.36,27.64L34.36,27.64z"/>
		</g>
		<g>
			<path class="st3" d="M34.38,28.4c0.14,0,0.14-0.22,0-0.22C34.24,28.18,34.24,28.4,34.38,28.4L34.38,28.4z"/>
		</g>
		<g>
			<path class="st3" d="M24.26,29.08c0.15,0,0.15-0.23,0-0.23C24.11,28.85,24.11,29.08,24.26,29.08L24.26,29.08z"/>
		</g>
		<g>
			<path class="st3" d="M24.46,28.49c0.14,0,0.14-0.22,0-0.22S24.32,28.49,24.46,28.49L24.46,28.49z"/>
		</g>
		<g>
			<path class="st3" d="M24.81,27.9c0.19,0,0.19-0.3,0-0.3C24.61,27.6,24.61,27.9,24.81,27.9L24.81,27.9z"/>
		</g>
		<g>
			<path class="st3" d="M25.15,27.4c0.05,0,0.05-0.08,0-0.08C25.1,27.32,25.1,27.4,25.15,27.4L25.15,27.4z"/>
		</g>
		<g>
			<path class="st3" d="M24.41,30.62c0.13,0,0.13-0.2,0-0.2C24.28,30.43,24.28,30.62,24.41,30.62L24.41,30.62z"/>
		</g>
		<g>
			<path class="st3" d="M24.66,31.21c0.13,0,0.13-0.21,0-0.21C24.52,31.01,24.52,31.21,24.66,31.21L24.66,31.21z"/>
		</g>
		<g>
			<path class="st3" d="M24.9,31.77c0.16,0,0.16-0.24,0-0.24C24.74,31.52,24.74,31.77,24.9,31.77L24.9,31.77z"/>
		</g>
		<g>
			<path class="st3" d="M25.18,32.2c0.01,0.01,0.02,0.02,0.03,0.02c0.02,0.02,0.06,0.02,0.09,0c0.01-0.01,0.02-0.02,0.02-0.02
				C25.53,32,24.97,32,25.18,32.2L25.18,32.2z"/>
		</g>
		<g>
			<path class="st3" d="M25.64,32.74c0.16,0,0.16-0.24,0-0.24C25.48,32.49,25.48,32.74,25.64,32.74L25.64,32.74z"/>
		</g>
		<g>
			<path class="st3" d="M13.84,32.59c0.8-0.97,0.91-2.35,0.38-3.48c-0.5-1.07-1.66-2.44-3-2.26c-0.2,0.03-0.35,0.26-0.18,0.42
				c0.71,0.66,1.57,0.98,2.14,1.83c0.69,1.02,0.58,2.17,0.3,3.29C13.44,32.58,13.7,32.76,13.84,32.59L13.84,32.59z"/>
		</g>
		<g>
			<path class="st3" d="M11.55,32.14c0.96-1.29-0.15-4.98-1.77-5.35c-0.24-0.06-0.46,0.15-0.4,0.39c0.21,0.84,0.99,1.54,1.31,2.37
				c0.26,0.69,0.67,1.67,0.38,2.39C10.96,32.23,11.39,32.35,11.55,32.14L11.55,32.14z"/>
		</g>
		<g>
			<path class="st3" d="M9.51,32.17c-0.59-0.82-0.89-1.7-0.94-2.71c-0.03-0.69,0.34-1.51-0.04-2.14c-0.09-0.14-0.27-0.19-0.42-0.11
				c-0.83,0.43-0.72,1.75-0.63,2.52c0.13,1.11,0.66,2.08,1.47,2.85C9.24,32.86,9.75,32.51,9.51,32.17L9.51,32.17z"/>
		</g>
		<g>
			<path class="st3" d="M6.54,29c-1.48,0.15-1.14,2.51-0.9,3.49c0.16,0.68,1.24,3.77,2.33,2.3c0.18-0.24,0-0.69-0.3-0.74
				c-0.65-0.1-0.97-1.37-1.13-1.93c-0.26-0.87-0.36-2.11,0.13-2.92C6.71,29.12,6.65,28.99,6.54,29L6.54,29z"/>
		</g>
		<g>
			<path class="st3" d="M12.61,29.7c0.29,0,0.29-0.44,0-0.44C12.32,29.26,12.32,29.7,12.61,29.7L12.61,29.7z"/>
		</g>
		<g>
			<path class="st3" d="M9.89,29.97c0.39,0,0.39-0.59,0-0.59S9.51,29.97,9.89,29.97L9.89,29.97z"/>
		</g>
		<g>
			<path class="st3" d="M6.98,31.61c0.37,0,0.37-0.56,0-0.56C6.61,31.05,6.61,31.61,6.98,31.61L6.98,31.61z"/>
		</g>
		<g>
			<path class="st3" d="M5.55,33.93c0.16,0,0.16-0.24,0-0.24C5.39,33.68,5.39,33.93,5.55,33.93L5.55,33.93z"/>
		</g>
		<g>
			<path class="st3" d="M15.27,30.69c0.25,0,0.25-0.39,0-0.39C15.02,30.3,15.02,30.69,15.27,30.69L15.27,30.69z"/>
		</g>
		<g>
			<path class="st3" d="M12.76,30.43c0.17,0,0.17-0.26,0-0.26C12.59,30.17,12.59,30.43,12.76,30.43L12.76,30.43z"/>
		</g>
		<g>
			<path class="st3" d="M12.71,31.15c0.15,0,0.15-0.23,0-0.23C12.55,30.92,12.55,31.15,12.71,31.15L12.71,31.15z"/>
		</g>
		<g>
			<path class="st3" d="M12.56,31.73c0.15,0,0.15-0.22,0-0.22C12.41,31.51,12.41,31.73,12.56,31.73L12.56,31.73z"/>
		</g>
		<g>
			<path class="st3" d="M12.12,28.92c0.06,0.18,0.34,0.13,0.29-0.07C12.36,28.68,12.06,28.76,12.12,28.92L12.12,28.92z"/>
		</g>
		<g>
			<path class="st3" d="M11.84,28.4c0.02,0,0.03,0.01,0.05,0.01c0.17,0.03,0.17-0.23,0-0.2c-0.02,0-0.03,0-0.05,0.01
				C11.75,28.23,11.75,28.39,11.84,28.4L11.84,28.4z"/>
		</g>
		<g>
			<path class="st3" d="M10.09,30.6c0.27,0,0.27-0.41,0-0.41C9.83,30.2,9.83,30.6,10.09,30.6L10.09,30.6z"/>
		</g>
		<g>
			<path class="st3" d="M10.24,31.21c0.23,0,0.23-0.36,0-0.36C10.01,30.86,10.01,31.21,10.24,31.21L10.24,31.21z"/>
		</g>
		<g>
			<path class="st3" d="M10.29,31.81c0.13,0,0.13-0.2,0-0.2C10.16,31.62,10.16,31.81,10.29,31.81L10.29,31.81z"/>
		</g>
		<g>
			<path class="st3" d="M9.75,28.89c-0.02,0-0.03,0-0.05,0c-0.13,0-0.13,0.21,0,0.21c0.02,0,0.03,0,0.05,0
				C9.88,29.09,9.88,28.89,9.75,28.89L9.75,28.89z"/>
		</g>
		<g>
			<path class="st3" d="M9.5,28.58c0.16,0,0.16-0.24,0-0.24S9.34,28.58,9.5,28.58L9.5,28.58z"/>
		</g>
		<g>
			<path class="st3" d="M9.28,28.05c0.01-0.01,0.01-0.02,0.02-0.03c0.03-0.03,0.03-0.07,0-0.1c-0.01-0.01-0.01-0.02-0.02-0.03
				c-0.06-0.08-0.19-0.01-0.19,0.08C9.09,28.06,9.22,28.13,9.28,28.05L9.28,28.05z"/>
		</g>
		<g>
			<path class="st3" d="M7.28,32.41c0.27,0,0.27-0.42,0-0.42C7.01,31.99,7.01,32.41,7.28,32.41L7.28,32.41z"/>
		</g>
		<g>
			<path class="st3" d="M7.53,32.8c0.21,0,0.21-0.33,0-0.33C7.31,32.48,7.31,32.8,7.53,32.8L7.53,32.8z"/>
		</g>
		<g>
			<path class="st3" d="M7.92,33.27c0.19,0,0.19-0.29,0-0.29S7.73,33.27,7.92,33.27L7.92,33.27z"/>
		</g>
		<g>
			<path class="st3" d="M8.36,33.61c0.19,0,0.19-0.29,0-0.29C8.18,33.32,8.18,33.61,8.36,33.61L8.36,33.61z"/>
		</g>
		<g>
			<path class="st3" d="M6.88,30.7c0.21,0,0.21-0.31,0-0.31C6.68,30.39,6.68,30.7,6.88,30.7L6.88,30.7z"/>
		</g>
		<g>
			<path class="st3" d="M6.88,30c0.18,0,0.18-0.28,0-0.28C6.7,29.73,6.7,30,6.88,30L6.88,30z"/>
		</g>
		<g>
			<path class="st3" d="M6.93,29.38c0.13,0,0.13-0.19,0-0.19C6.81,29.19,6.81,29.38,6.93,29.38L6.93,29.38z"/>
		</g>
		<g>
			<path class="st3" d="M5.8,34.8c0.16,0,0.16-0.24,0-0.24C5.64,34.56,5.64,34.8,5.8,34.8L5.8,34.8z"/>
		</g>
		<g>
			<path class="st3" d="M6.24,35.39c0.17,0,0.17-0.25,0-0.25C6.08,35.14,6.08,35.39,6.24,35.39L6.24,35.39z"/>
		</g>
		<g>
			<path class="st3" d="M6.69,35.68c0.16,0,0.16-0.24,0-0.24C6.53,35.44,6.53,35.68,6.69,35.68L6.69,35.68z"/>
		</g>
		<g>
			<path class="st3" d="M7.36,35.83c0.01-0.01,0.01-0.02,0.02-0.02c0.03-0.03,0.03-0.07,0-0.1c-0.01-0.01-0.01-0.02-0.02-0.03
				C7.15,35.43,7.15,36.08,7.36,35.83L7.36,35.83z"/>
		</g>
		<g>
			<path class="st3" d="M5.21,33.2c0.02,0,0.03,0,0.05-0.01c0.03,0,0.03-0.04,0-0.04c-0.02,0-0.03,0-0.05-0.01
				C5.17,33.14,5.17,33.2,5.21,33.2L5.21,33.2z"/>
		</g>
		<g>
			<path class="st3" d="M5.26,33.32c0.19,0,0.19-0.3,0-0.3C5.06,33.03,5.06,33.32,5.26,33.32L5.26,33.32z"/>
		</g>
		<g>
			<path class="st3" d="M5.12,32.56c0.01-0.01,0.02-0.02,0.02-0.02c0.02-0.02,0.02-0.05,0-0.08c-0.01-0.01-0.02-0.02-0.02-0.02
				C4.94,32.24,4.94,32.74,5.12,32.56L5.12,32.56z"/>
		</g>
		<g>
			<path class="st3" d="M5.11,32.02c0.14,0,0.14-0.22,0-0.22C4.97,31.8,4.97,32.02,5.11,32.02L5.11,32.02z"/>
		</g>
		<g>
			<path class="st3" d="M15.22,31.34c0.15,0,0.15-0.23,0-0.23C15.08,31.11,15.08,31.34,15.22,31.34L15.22,31.34z"/>
		</g>
		<g>
			<path class="st3" d="M15.03,31.92c0.14,0,0.14-0.22,0-0.22C14.89,31.7,14.89,31.92,15.03,31.92L15.03,31.92z"/>
		</g>
		<g>
			<path class="st3" d="M14.68,32.59c0.19,0,0.19-0.3,0-0.3C14.49,32.3,14.49,32.59,14.68,32.59L14.68,32.59z"/>
		</g>
		<g>
			<path class="st3" d="M14.34,32.87c0.05,0,0.05-0.08,0-0.08C14.28,32.79,14.28,32.87,14.34,32.87L14.34,32.87z"/>
		</g>
		<g>
			<path class="st3" d="M15.08,29.77c0.13,0,0.13-0.2,0-0.2C14.95,29.57,14.95,29.77,15.08,29.77L15.08,29.77z"/>
		</g>
		<g>
			<path class="st3" d="M14.83,29.19c0.14,0,0.14-0.21,0-0.21C14.7,28.98,14.7,29.19,14.83,29.19L14.83,29.19z"/>
		</g>
		<g>
			<path class="st3" d="M14.58,28.68c0.16,0,0.16-0.24,0-0.24C14.42,28.43,14.42,28.68,14.58,28.68L14.58,28.68z"/>
		</g>
		<g>
			<path class="st3" d="M14.31,28c-0.01-0.01-0.02-0.02-0.02-0.02c-0.02-0.02-0.06-0.02-0.09,0c-0.01,0.01-0.02,0.02-0.02,0.02
				C13.96,28.19,14.51,28.19,14.31,28L14.31,28z"/>
		</g>
		<g>
			<path class="st3" d="M13.84,27.7c0.16,0,0.16-0.24,0-0.24C13.68,27.46,13.68,27.7,13.84,27.7L13.84,27.7z"/>
		</g>
		<g>
			<defs>
				<path id="SVGID_1_" d="M22.71,14.55c-0.29-0.35-0.75-0.52-1.21-0.53c-0.45-0.01-0.9,0.12-1.32,0.29
					c-0.67,0.27-1.31,0.66-1.8,1.19c-0.49,0.53-0.84,1.21-0.89,1.92c-0.71-0.42-1.78-0.65-2.45-0.17c-0.29,0.21-0.46,0.55-0.61,0.88
					c-1.04,2.36-1.16,5-1.26,7.57c-0.02,0.62-0.05,1.26-0.27,1.84c-0.13,0.35-0.34,0.68-0.36,1.05c0,0.07,0,0.14,0.04,0.2
					c0.09,0.11,0.27,0.06,0.4,0.01c1.16-0.5,2.32-1.01,3.48-1.51c2.27-0.98,4.66-2.07,6-4.12c0.48-0.73,0.79-1.55,1.06-2.38
					c0.34-1.02,0.61-2.08,0.57-3.15C24.05,16.57,23.39,15.38,22.71,14.55z"/>
			</defs>
			<use xlink:href="#SVGID_1_"  style="overflow:visible;fill:#0C0A35;"/>
			<clipPath id="SVGID_00000016775964652271903700000015168108115015408319_">
				<use xlink:href="#SVGID_1_"  style="overflow:visible;"/>
			</clipPath>
			<g style="clip-path:url(#SVGID_00000016775964652271903700000015168108115015408319_);">
				<g>
					<path class="st5" d="M12.28,29.34c1-0.49,1.45-1.43,1.73-2.46c0.37-1.37,0.62-2.74,1.08-4.09c0.46-1.36,0.9-2.74,1.12-4.16
						c0.2-1.25-0.84-2.05-1.26-3.14c-0.06-0.16-0.27-0.13-0.29,0.04c-0.14,1.19,1.18,1.8,1.1,3.04c-0.08,1.29-0.53,2.65-0.95,3.87
						c-0.41,1.2-0.7,2.41-0.97,3.65c-0.11,0.51-0.22,1.04-0.43,1.52c-0.19,0.43-0.44,0.81-0.76,1.16c-0.36,0.39-0.3,0.15-0.46,0.48
						C12.15,29.31,12.21,29.37,12.28,29.34L12.28,29.34z"/>
				</g>
			</g>
			<g style="clip-path:url(#SVGID_00000016775964652271903700000015168108115015408319_);">
				<g>
					<path class="st5" d="M13.08,29.4c0.78-0.21,1.19-0.98,1.53-1.65c0.48-0.97,0.84-2.02,1.15-3.05c0.46-1.55,0.91-3.1,1.35-4.66
						c0.46-1.61,0.37-3.55,0.11-5.19c-0.03-0.2-0.31-0.12-0.34,0.05c-0.23,1.69,0.23,3.34-0.21,5.03c-0.35,1.37-0.7,2.72-1.15,4.06
						c-0.31,0.92-0.59,1.85-0.94,2.76c-0.29,0.77-0.66,2.25-1.52,2.62C13.04,29.37,13.06,29.41,13.08,29.4L13.08,29.4z"/>
				</g>
			</g>
			<g style="clip-path:url(#SVGID_00000016775964652271903700000015168108115015408319_);">
				<g>
					<path class="st5" d="M14.83,29.15c0.11-0.56,0.55-0.88,0.85-1.32c0.36-0.52,0.63-1.09,0.95-1.64c0.66-1.15,1.04-2.53,1.5-3.77
						c0.53-1.44,0.72-2.99,0.92-4.5c0.11-0.8,0.19-1.6,0.23-2.41c0.03-0.69,0.27-1.52,0.06-2.19c-0.08-0.26-0.48-0.15-0.42,0.11
						c0.14,0.64-0.06,1.43-0.09,2.08c-0.04,0.81-0.12,1.61-0.23,2.41c-0.21,1.57-0.44,3.14-0.99,4.64
						c-0.49,1.33-0.85,2.72-1.52,3.98c-0.3,0.57-0.6,1.08-1.01,1.58c-0.23,0.29-0.44,0.61-0.5,0.97
						C14.54,29.24,14.79,29.31,14.83,29.15L14.83,29.15z"/>
				</g>
			</g>
			<g style="clip-path:url(#SVGID_00000016775964652271903700000015168108115015408319_);">
				<g>
					<path class="st5" d="M16.12,28.24c0.99-1.05,1.95-2.05,2.55-3.38c0.55-1.21,0.91-2.54,1.27-3.81c0.37-1.27,0.63-2.64,0.82-3.95
						c0.19-1.35,0.14-2.82,0.7-4.08c0.06-0.13-0.04-0.31-0.2-0.26c-0.75,0.24-0.61,1.58-0.69,2.17c-0.22,1.55-0.45,3.08-0.74,4.62
						c-0.25,1.35-0.72,2.64-1.12,3.95c-0.54,1.77-1.5,3.22-2.73,4.59C15.89,28.19,16.03,28.34,16.12,28.24L16.12,28.24z"/>
				</g>
			</g>
			<g style="clip-path:url(#SVGID_00000016775964652271903700000015168108115015408319_);">
				<g>
					<path class="st5" d="M18.36,27.15c0.9-0.52,1.14-1.51,1.59-2.38c0.53-1.02,0.86-2.16,1.2-3.26c0.42-1.38,0.85-2.82,1.04-4.25
						c0.09-0.67,0.14-1.34,0.18-2.01c0.04-0.76,0.37-1.55,0.2-2.3c-0.03-0.13-0.22-0.12-0.26,0c-0.3,1.13-0.36,2.28-0.45,3.44
						c-0.12,1.49-0.53,2.95-0.92,4.39c-0.29,1.07-0.63,2.12-1.04,3.15c-0.37,0.93-0.82,2.42-1.64,3.03
						C18.15,27.05,18.24,27.22,18.36,27.15L18.36,27.15z"/>
				</g>
			</g>
			<g style="clip-path:url(#SVGID_00000016775964652271903700000015168108115015408319_);">
				<g>
					<path class="st5" d="M19.76,26.49c0.83-0.6,1.32-1.69,1.8-2.55c0.58-1.04,1.03-2.12,1.52-3.21c0.4-0.88,0.43-1.83,0.52-2.78
						c0.11-1.12,0.49-2.35-0.22-3.34c-0.05-0.07-0.2-0.06-0.19,0.05c0.08,1.06,0.03,2-0.09,3.06c-0.12,1.05-0.14,2.04-0.58,3.02
						c-0.41,0.91-0.76,1.84-1.25,2.72c-0.48,0.87-0.87,2.23-1.65,2.88C19.55,26.4,19.67,26.56,19.76,26.49L19.76,26.49z"/>
				</g>
			</g>
		</g>
		<g>
			<path class="st7" d="M22.38,18.15c0.13,0.09,0.3,0.09,0.47,0.09c0.98-0.03,2.28-0.13,3.23-0.39c0.88-0.24,1.63-0.56,2.08-1.34
				c0.23-0.4,0.13-1.1-0.23-1.4c-0.26-0.22-0.54-0.3-0.85-0.43c-0.79-0.32-1.16-1.21-1.18-2.04c-0.03-0.84,0.07-1.73-0.36-2.46
				c-0.34-0.56-0.95-0.92-1.59-1.09c-0.64-0.17-1.31-0.18-1.97-0.18c-0.28,0-0.6,0.01-0.77,0.23c-0.17,0.21-0.12,0.51-0.06,0.77
				c0.38,1.59,0.89,3.2,0.75,4.83c-0.04,0.46-0.13,0.91-0.13,1.37c0,0.58,0.15,1.14,0.36,1.68C22.19,17.92,22.26,18.07,22.38,18.15z
				"/>
		</g>
		<g>
			<path class="st2" d="M25.6,6.62c-0.01,0.16-0.02,0.33-0.11,0.47c-0.15,0.23-0.46,0.31-0.73,0.36C21.3,8.13,17.71,8.5,14.25,7.84
				c-0.24-0.05-0.5-0.11-0.63-0.31c-0.09-0.13-0.1-0.3-0.1-0.46c-0.02-0.6,0-1.23,0.27-1.77c0.23-0.47,0.62-1.07,1.01-1.43
				c0.93-0.85,1.71-1.27,2.95-1.57c1.36-0.33,3.2-0.22,4.52,0.27c0.87,0.32,1.57,0.75,2.24,1.39C25.22,4.65,25.63,5.64,25.6,6.62z"
				/>
		</g>
		<g>
			<path class="st8" d="M27.91,24.19c0.09,0.02,0.18,0.05,0.28,0.07C28.09,24.22,28,24.2,27.91,24.19z"/>
		</g>
		<g>
			<defs>
				<path id="SVGID_00000150790318907846364050000011264789044631810946_" d="M22.38,18.15c0.13,0.09,0.3,0.09,0.47,0.09
					c0.98-0.03,2.28-0.13,3.23-0.39c0.88-0.24,1.63-0.56,2.08-1.34c0.23-0.4,0.13-1.1-0.23-1.4c-0.26-0.22-0.54-0.3-0.85-0.43
					c-0.79-0.32-1.16-1.21-1.18-2.04c-0.03-0.84,0.07-1.73-0.36-2.46c-0.34-0.56-0.95-0.92-1.59-1.09
					c-0.64-0.17-1.31-0.18-1.97-0.18c-0.28,0-0.6,0.01-0.77,0.23c-0.17,0.21-0.12,0.51-0.06,0.77c0.38,1.59,0.89,3.2,0.75,4.83
					c-0.04,0.46-0.13,0.91-0.13,1.37c0,0.58,0.15,1.14,0.36,1.68C22.19,17.92,22.26,18.07,22.38,18.15z"/>
			</defs>
			<clipPath id="SVGID_00000115515295297934286710000006487087551796473758_">
				<use xlink:href="#SVGID_00000150790318907846364050000011264789044631810946_"  style="overflow:visible;"/>
			</clipPath>
			<g style="clip-path:url(#SVGID_00000115515295297934286710000006487087551796473758_);">
				<g>
					<path class="st5" d="M21.42,8.3c1.02,2.17,1.18,4.99,1.14,7.35c-0.02,1.57-0.52,3.87,1.07,4.91c0.1,0.06,0.2-0.06,0.15-0.15
						c-0.46-0.94-0.81-1.67-0.83-2.75c-0.01-1.13,0.1-2.26,0.04-3.39c-0.12-2.04-0.45-4.24-1.36-6.1
						C21.57,8.03,21.35,8.15,21.42,8.3L21.42,8.3z"/>
				</g>
			</g>
			<g style="clip-path:url(#SVGID_00000115515295297934286710000006487087551796473758_);">
				<g>
					<path class="st5" d="M22.5,8.36c1.2,1.9,0.64,4.6,0.87,6.74c0.19,1.77,0.13,3.76,1.96,4.72c0.09,0.05,0.2-0.05,0.15-0.14
						c-0.59-1-1.23-1.77-1.38-2.97c-0.14-1.06-0.25-2.16-0.32-3.24c-0.11-1.87-0.07-3.57-1.16-5.18C22.57,8.23,22.46,8.29,22.5,8.36
						L22.5,8.36z"/>
				</g>
			</g>
			<g style="clip-path:url(#SVGID_00000115515295297934286710000006487087551796473758_);">
				<g>
					<path class="st5" d="M23.3,8.28c0.76,0.6,0.8,2.59,0.86,3.4c0.09,1.28,0.01,2.54,0.32,3.79c0.36,1.44,0.78,3.02,2.02,3.97
						c0.08,0.06,0.21-0.02,0.15-0.11c-1.11-1.58-1.92-3.66-1.95-5.58c-0.02-1.28-0.11-2.61-0.37-3.86c-0.13-0.62-0.28-1.44-0.9-1.76
						C23.33,8.07,23.21,8.21,23.3,8.28L23.3,8.28z"/>
				</g>
			</g>
			<g style="clip-path:url(#SVGID_00000115515295297934286710000006487087551796473758_);">
				<g>
					<path class="st5" d="M25.07,7.84c0.05,0.7-0.67,1.1-0.47,1.87c0.33,1.26,0.43,2.55,0.62,3.84c0.18,1.27,0.46,2.55,0.94,3.74
						c0.36,0.89,0.94,2.06,1.88,2.45c0.07,0.03,0.18-0.04,0.12-0.12c-0.31-0.45-0.71-0.81-1.02-1.25c-0.36-0.52-0.59-1.12-0.79-1.71
						c-0.41-1.21-0.64-2.49-0.81-3.76c-0.14-1.02-0.16-2.18-0.54-3.14c-0.3-0.74,0.44-1.26,0.24-1.95
						C25.22,7.73,25.06,7.74,25.07,7.84L25.07,7.84z"/>
				</g>
			</g>
			<g style="clip-path:url(#SVGID_00000115515295297934286710000006487087551796473758_);">
				<g>
					<path class="st5" d="M26.09,9.04c-0.66,1.94-0.08,4.32,0.61,6.17c0.45,1.21,1.34,3.92,3.1,3.59c0.09-0.02,0.13-0.15,0.05-0.2
						c-0.59-0.47-1.17-0.61-1.59-1.32c-0.45-0.77-0.82-1.67-1.13-2.5c-0.64-1.65-1.32-3.92-0.87-5.69
						C26.29,8.97,26.13,8.93,26.09,9.04L26.09,9.04z"/>
				</g>
			</g>
		</g>
		<g>
			<path class="st3" d="M25.01,10.03c0.89-0.61,1.42-1.65,1.58-2.71c0.16-1.06-0.01-2.14-0.29-3.17c-1.21,0.85-2.26,2.2-3.12,3.38
				c-0.23-1.18-0.89-2.76-1.47-3.81c-1.07,1.12-1.82,2.51-2.78,3.73c-0.34-0.8-0.68-1.6-1.04-2.39c-0.22-0.5-0.56-1.02-0.96-1.42
				c-0.87,1.16-1.8,2.56-2.2,3.98c-0.36-1.05-0.6-1.26-1.53-2.43c-0.22-0.27-0.67-0.63-0.93-0.86c-0.27,1.03-0.54,2.07-0.49,3.13
				c0.05,1.06,0.47,2.15,1.33,2.78c0.39,0.28,0.95,0.27,1.43,0.2c2.76-0.44,5.58-0.51,8.36-0.18c0.85,0.1,1.86,0.17,2.4-0.48
				L25.01,10.03z"/>
		</g>
		<g>
			<path class="st10" d="M12.5,7.15c0.7,0.63,1.41,1.15,1.94,1.92c-0.61,0.01-1.1,0-1.71,0.02C12.51,8.71,12.46,7.11,12.5,7.15z"/>
		</g>
		<g>
			<path class="st10" d="M16.87,6.81c0.03-0.01,0.06,0.02,0.08,0.04c0.47,0.69,0.88,1.43,1.21,2.19c-0.76-0.03-1.52-0.05-2.28-0.08
				C15.84,8.8,15.92,8.64,16,8.49c0.28-0.55,0.56-1.09,0.85-1.64C16.85,6.83,16.86,6.82,16.87,6.81z"/>
		</g>
		<g>
			<path class="st10" d="M22.29,9.15c-0.7-0.07-1.62-0.13-2.33-0.13c0.33-0.67,0.97-1.68,1.42-2.28C21.86,7.4,22.17,8.35,22.29,9.15
				z"/>
		</g>
		<g>
			<path class="st10" d="M23.62,9.21c0.27-0.34,0.49-0.56,0.79-0.87c0.41-0.44,0.87-0.76,1.31-1.15c0,0.62-0.14,1.24-0.42,1.8
				c-0.03,0.06-0.06,0.12-0.11,0.16c-0.09,0.08-0.22,0.08-0.34,0.07C24.48,9.22,23.99,9.22,23.62,9.21z"/>
		</g>
		<g>
			<path class="st11" d="M30.13,20.64c0.26-1.42,0.43-3,0.7-4.42c0.07-0.38,0.6-3.86,0.71-4.44c0.11,0,0.53,0.07,0.65,0.07
				c-0.18-0.41-0.19-0.66-0.3-1.15c0.26,0.18,0.58,0.4,1.1,0.13c0.27-0.14,0.25-0.56,0.22-0.8C33,8.35,32.65,7.13,32.44,5.7
				c-0.62,1.18-1.36,2.31-2.2,3.36c-0.17,0.21-0.35,0.43-0.43,0.69c-0.08,0.26-0.06,0.59,0.17,0.75c0.42,0.29,0.74,0.17,1.04,0.11
				c-0.17,0.34-0.49,0.66-0.65,1.01c0.24,0,0.43,0.1,0.68,0.1c-0.17,1.25-0.43,2.29-0.63,3.51c-0.32,1.93-0.66,4.1-0.97,6.03
				c-0.12,0.77-0.86,4.63-0.89,4.72c0.13,0.05,0.53,0.11,0.64,0.13C29.34,25.68,30,21.35,30.13,20.64z"/>
		</g>
		<g>
			<path class="st2" d="M15.77,14.87c0.48-0.17,1.01,0,1.44,0.27c0.78,0.48,1.33,1.26,1.66,2.11c0.33,0.85,0.43,1.76,0.45,2.67
				c0.01,0.43,0,0.87-0.18,1.26c-0.35,0.11-0.72-0.08-1.03-0.29c-1.2-0.81-2.24-2.05-2.27-3.48c0.08,1.71-1.03,3.41-2.64,4.05
				c0.14-0.87,0.67-1.64,0.78-2.52c0.14-1.15-0.45-2.38,0.01-3.45c0.04-0.09,0.09-0.19,0.17-0.25c0.22-0.16,0.53-0.03,0.8-0.05
				C15.26,15.17,15.5,14.96,15.77,14.87z"/>
		</g>
		<g>
			<defs>
				<path id="SVGID_00000147206077954654327640000005488606948690817945_" d="M15.77,14.87c0.48-0.17,1.01,0,1.44,0.27
					c0.78,0.48,1.33,1.26,1.66,2.11c0.33,0.85,0.43,1.76,0.45,2.67c0.01,0.43,0,0.87-0.18,1.26c-0.35,0.11-0.72-0.08-1.03-0.29
					c-1.2-0.81-2.24-2.05-2.27-3.48c0.08,1.71-1.03,3.41-2.64,4.05c0.14-0.87,0.67-1.64,0.78-2.52c0.14-1.15-0.45-2.38,0.01-3.45
					c0.04-0.09,0.09-0.19,0.17-0.25c0.22-0.16,0.53-0.03,0.8-0.05C15.26,15.17,15.5,14.96,15.77,14.87z"/>
			</defs>
			<use xlink:href="#SVGID_00000147206077954654327640000005488606948690817945_"  style="overflow:visible;fill:#191956;"/>
			<clipPath id="SVGID_00000180360632250929329940000011483839300346496444_">
				<use xlink:href="#SVGID_00000147206077954654327640000005488606948690817945_"  style="overflow:visible;"/>
			</clipPath>
			<g style="clip-path:url(#SVGID_00000180360632250929329940000011483839300346496444_);">
				<g>
					<path class="st5" d="M14.59,14.63c-0.69,0.29-0.5,1.32-0.5,1.91c0.01,0.93,0.06,1.84-0.08,2.77c-0.12,0.77-0.55,1.43-0.71,2.18
						c-0.02,0.09,0.08,0.15,0.15,0.09c0.78-0.71,0.96-1.93,1.05-2.93c0.07-0.7,0.02-1.41,0.01-2.11c-0.01-0.49-0.15-1.34,0.21-1.74
						C14.81,14.71,14.71,14.58,14.59,14.63L14.59,14.63z"/>
				</g>
			</g>
			<g style="clip-path:url(#SVGID_00000180360632250929329940000011483839300346496444_);">
				<g>
					<path class="st5" d="M15.26,14.41c-0.61,1-0.15,1.9-0.17,3c-0.01,0.65-0.03,1.28-0.14,1.92c-0.12,0.68-0.51,1.25-0.65,1.91
						c-0.02,0.09,0.07,0.17,0.16,0.12c0.88-0.54,0.98-1.92,1.03-2.85c0.04-0.62,0.04-1.25-0.01-1.87c-0.07-0.75-0.34-1.41-0.05-2.15
						C15.47,14.38,15.31,14.33,15.26,14.41L15.26,14.41z"/>
				</g>
			</g>
			<g style="clip-path:url(#SVGID_00000180360632250929329940000011483839300346496444_);">
				<g>
					<path class="st5" d="M15.41,14.54c0.21,0.23,0.27,0.67,0.38,0.95c0.16,0.42,0.32,0.84,0.47,1.26c0.3,0.86,0.3,1.79,0.57,2.65
						c0.19,0.64,0.58,1.19,1.02,1.69c0.4,0.45,0.83,1.03,1.44,1.13c0.17,0.03,0.33-0.17,0.18-0.31c-1.25-1.16-2.18-2.16-2.46-3.9
						c-0.18-1.1-0.6-2.81-1.5-3.58C15.44,14.37,15.34,14.47,15.41,14.54L15.41,14.54z"/>
				</g>
			</g>
			<g style="clip-path:url(#SVGID_00000180360632250929329940000011483839300346496444_);">
				<g>
					<path class="st5" d="M16.33,14.33c0.61,0.48,0.86,1.4,1.09,2.09c0.29,0.86,0.5,1.74,0.82,2.59c0.32,0.84,1.17,2.82,2.35,2.6
						c0.11-0.02,0.12-0.15,0.06-0.22c-0.48-0.57-1.02-1.01-1.43-1.65c-0.48-0.76-0.76-1.64-1.03-2.49c-0.34-1.09-0.64-2.5-1.75-3.07
						C16.35,14.14,16.24,14.26,16.33,14.33L16.33,14.33z"/>
				</g>
			</g>
		</g>
		<g>
			<g>
				<path class="st2" d="M18.9,12.21c0.34,0,0.63-0.28,0.63-0.62c0-0.34-0.29-0.62-0.63-0.62c-0.34,0-0.63,0.28-0.63,0.62
					C18.27,11.93,18.56,12.21,18.9,12.21L18.9,12.21z"/>
			</g>
		</g>
		<g>
			<g>
				<path class="st2" d="M14.2,15.27c0.45-0.18,0.97,0.08,1.41-0.16c0.3-0.16,0.5-0.42,0.53-0.76c0.02-0.23-0.02-0.57-0.25-0.7
					c-0.22-0.12-0.63-0.07-0.64,0.23c0,0.05,0.03,0.08,0.08,0.1c0.15,0.06,0.33-0.11,0.46,0.01c0.13,0.12,0.07,0.4,0.02,0.54
					c-0.12,0.34-0.5,0.4-0.82,0.41c-0.34,0.01-0.56,0.02-0.84,0.21C14.09,15.18,14.13,15.3,14.2,15.27L14.2,15.27z"/>
			</g>
		</g>
		<g>
			<g>
				<path class="st5" d="M14.84,4.46c0.19,0,0.19-0.29,0-0.29C14.65,4.17,14.65,4.46,14.84,4.46L14.84,4.46z"/>
			</g>
		</g>
		<g>
			<g>
				<path class="st10" d="M15.54,4.14c-0.03,0.02-0.05,0.05-0.05,0.09c-0.02,0.11,0.06,0.19,0.18,0.18c0,0,0.01,0,0.01,0
					c-0.04,0-0.08-0.01-0.12-0.02c0,0,0.01,0.01,0.01,0.01c0.11,0.06,0.25-0.02,0.25-0.14C15.82,4.11,15.65,4.05,15.54,4.14
					L15.54,4.14z"/>
			</g>
		</g>
		<g>
			<g>
				<path class="st10" d="M18.15,4.37c0.19,0,0.19-0.29,0-0.29C17.96,4.08,17.96,4.37,18.15,4.37L18.15,4.37z"/>
			</g>
		</g>
		<g>
			<g>
				<path class="st10" d="M19.16,4.38c0.24,0,0.24-0.37,0-0.37C18.92,4,18.92,4.38,19.16,4.38L19.16,4.38z"/>
			</g>
		</g>
		<g>
			<g>
				<path class="st10" d="M20.28,4.42c0.3,0,0.3-0.45,0-0.45C19.98,3.96,19.98,4.42,20.28,4.42L20.28,4.42z"/>
			</g>
		</g>
		<g>
			<g>
				<path class="st10" d="M22.9,4.38c0.24,0,0.24-0.37,0-0.37C22.65,4,22.65,4.38,22.9,4.38L22.9,4.38z"/>
			</g>
		</g>
		<g>
			<g>
				<path class="st10" d="M23.82,4.3c0.28,0,0.28-0.42,0-0.42C23.54,3.88,23.54,4.3,23.82,4.3L23.82,4.3z"/>
			</g>
		</g>
		<g>
			<g>
				<g>
					<path class="st5" d="M18.08,28.45c-0.01,0.01-0.01,0.01-0.02,0.02c0.84-0.24,1.67-0.49,2.51-0.74
						c-0.01-0.01-0.02-0.01-0.03-0.01c0.17,0.09,0.34,0.18,0.51,0.27c-0.01,0-0.02-0.01-0.02-0.01c-0.17-0.09-0.34-0.18-0.51-0.27
						c-0.37-0.14-0.75-0.17-1.13-0.11c-0.76,0.13-1.4,0.65-1.67,1.36c-0.2,0.53-0.18,1.13,0.05,1.64c0.16,0.34,0.39,0.63,0.7,0.85
						c0.32,0.23,0.69,0.36,1.08,0.4c0.02,0,0.04,0,0.06,0c0.19-0.01,0.37-0.01,0.56-0.02c0.37-0.06,0.71-0.21,1-0.45
						c0.13-0.13,0.26-0.27,0.39-0.4c0.23-0.32,0.37-0.67,0.41-1.06c0-0.01,0-0.01,0-0.02c0.03-0.37-0.03-0.73-0.18-1.07
						c-0.23-0.51-0.67-0.91-1.2-1.11c-0.36-0.13-0.74-0.17-1.12-0.11c-0.18,0.05-0.35,0.11-0.53,0.16
						C18.59,27.92,18.31,28.15,18.08,28.45L18.08,28.45z"/>
				</g>
			</g>
			<g>
				<g>
					<path class="st5" d="M20.81,27.43c0.32-0.02,0.48-0.43,0.25-0.66c-0.11-0.11-0.23-0.17-0.39-0.14
						c-0.14,0.02-0.27,0.12-0.32,0.26c-0.05,0.14-0.03,0.29,0.07,0.4C20.52,27.4,20.66,27.44,20.81,27.43L20.81,27.43z"/>
				</g>
			</g>
			<g>
				<g>
					<path class="st5" d="M16.83,29.13c0.5,0.19,0.8-0.59,0.29-0.77C16.62,28.17,16.32,28.94,16.83,29.13L16.83,29.13z"/>
				</g>
			</g>
			<g>
				<g>
					<path class="st5" d="M22.39,30.83c0.2,0.08,0.43-0.03,0.51-0.23c0.08-0.2-0.03-0.43-0.23-0.5c-0.2-0.08-0.43,0.03-0.51,0.23
						C22.09,30.53,22.19,30.75,22.39,30.83L22.39,30.83z"/>
				</g>
			</g>
			<g>
				<g>
					<path class="st5" d="M19.2,32.61c-0.02-0.09-0.05-0.21-0.12-0.28c-0.04-0.03-0.08-0.08-0.11-0.11
						c-0.11-0.08-0.23-0.09-0.36-0.08c0.11,0.03,0.22,0.05,0.33,0.08c0,0-0.01,0-0.01-0.01c-0.14-0.08-0.28-0.11-0.43-0.04
						c-0.19,0.08-0.25,0.26-0.25,0.46c0,0,0,0.01,0,0.01c0.03-0.11,0.05-0.22,0.08-0.33c-0.05,0.09-0.08,0.13-0.09,0.24
						c-0.01,0.09,0.01,0.16,0.05,0.25c0.04,0.11,0.12,0.18,0.21,0.25c0.12,0.1,0.31,0.11,0.45,0.05
						C19.13,33.01,19.23,32.81,19.2,32.61L19.2,32.61z"/>
				</g>
			</g>
			<g>
				<g>
					<path class="st2" d="M19.12,30.24c0.13,0.15,0.24,0.23,0.43,0.3c0.25,0.09,0.53,0.08,0.77-0.02c0.59-0.26,0.77-1.03,0.37-1.52
						c-0.34-0.42-0.99-0.48-1.41-0.14C18.87,29.18,18.76,29.85,19.12,30.24L19.12,30.24z"/>
				</g>
			</g>
			<g>
				<g>
					<path class="st2" d="M20.24,28.53c0.46,0.17,0.73-0.53,0.27-0.7C20.05,27.65,19.78,28.36,20.24,28.53L20.24,28.53z"/>
				</g>
			</g>
			<g>
				<g>
					<path class="st2" d="M18.25,29.48c0.16,0.06,0.35-0.02,0.41-0.18c0.06-0.16-0.02-0.34-0.19-0.4s-0.35,0.02-0.41,0.18
						C18,29.23,18.08,29.42,18.25,29.48L18.25,29.48z"/>
				</g>
			</g>
			<g>
				<g>
					<path class="st2" d="M19.25,31.43c0.45,0.17,0.71-0.52,0.26-0.68C19.06,30.59,18.8,31.27,19.25,31.43L19.25,31.43z"/>
				</g>
			</g>
			<g>
				<g>
					<path class="st2" d="M21.12,30.47c0.17,0.07,0.38-0.02,0.44-0.2c0.06-0.17-0.03-0.37-0.2-0.43c-0.17-0.07-0.37,0.02-0.44,0.2
						C20.86,30.21,20.95,30.41,21.12,30.47L21.12,30.47z"/>
				</g>
			</g>
		</g>
		<g>
			<g>
				<path class="st2" d="M17.82,10.45c0.34,0.19,0.75,0.11,1.12,0.1c0.43-0.02,0.95,0.04,1.33-0.15c0.08-0.04,0.08-0.17,0-0.2
					c-0.35-0.17-0.77-0.08-1.15-0.06c-0.41,0.02-0.94-0.02-1.3,0.2C17.78,10.36,17.77,10.42,17.82,10.45L17.82,10.45z"/>
			</g>
		</g>
		<path class="st7" d="M27.72,36.69c-0.21-0.9-0.4-1.8-0.47-2.72c-0.07-0.86-0.03-1.73,0-2.59c0.03-0.8,0.07-1.6,0.1-2.41
			c0.03-0.65,0.05-1.3,0.08-1.95c0.01-0.16,0.02-0.34,0.13-0.45c0.08-0.08,0.19-0.11,0.29-0.14c0.41-0.11,2.14-2.39,2.55-2.31
			c0.66,3.78-0.19,7.25,0.22,9.96c1.09-0.49,2.07-1.07,2.81-1.85c-0.15,1.07-0.22,2.23-0.37,3.3c-0.07,0.51-0.22,1-0.37,1.49
			c-0.31,1-0.61,2-0.92,3c-0.11,0.36-0.26,0.76-0.62,0.89c-0.13,0.05-0.27,0.05-0.41,0.05c-0.68,0.01-1.46-0.02-1.9-0.53
			c-0.21-0.24-0.31-0.56-0.4-0.87C28.19,38.62,27.94,37.66,27.72,36.69z"/>
		<g>
			<path class="st4" d="M29.51,23.49c-2.43-0.84-3.12-0.44-3.01,0.01c0.07,0.29,0.57,0.4,0.86,0.47c0.27,0.07,0.11,0.07,0.38,0.13
				c0.09,0.02-0.56-0.02-1.22,0.08c-0.23,0.04-0.39,0.22-0.39,0.45c-0.01,0.53,1.16,0.59,1.33,0.74c-0.18-0.03-0.82,0.02-1,0.07
				c-0.18,0.06-0.28,0.29-0.24,0.46c0.04,0.19,0.19,0.3,0.38,0.36c0.33,0.09,0.73,0.14,1.06,0.2c-0.22,0.04-0.49,0.02-0.71,0.06
				c-0.14,0.03-0.31,0.05-0.43,0.13c-0.12,0.08-0.13,0.29-0.1,0.43c0.05,0.18,0.25,0.26,0.43,0.31c0.39,0.11,2.29,0.42,2.61,0.21
				c0.54-0.35,0.59-0.73,0.87-1.47c0.19-0.49,0.3-1.56,0.06-2.03C30.22,23.74,29.82,23.59,29.51,23.49z"/>
		</g>
		<g>
			<g>
				<path class="st2" d="M29.67,23.97c-0.15,0.06-0.22,0.18-0.19,0.34c0.04,0.16,0.3,0.13,0.3-0.04c0-0.05-0.01-0.1,0.02-0.14
					C29.85,24.06,29.75,23.94,29.67,23.97L29.67,23.97z"/>
			</g>
		</g>
		<g>
			<g>
				<path class="st2" d="M29.4,24.99c-0.06,0.11-0.07,0.26-0.04,0.38c0.04,0.14,0.24,0.14,0.28,0c0.03-0.12,0.02-0.27-0.04-0.38
					C29.56,24.92,29.44,24.92,29.4,24.99L29.4,24.99z"/>
			</g>
		</g>
		<g>
			<g>
				<path class="st2" d="M29.28,26.06c-0.09,0.11-0.21,0.32-0.09,0.45c0.03,0.04,0.11,0.04,0.14,0c0.07-0.08,0.05-0.19,0.12-0.28
					C29.55,26.11,29.38,25.94,29.28,26.06L29.28,26.06z"/>
			</g>
		</g>
		<g>
			<g>
				<path class="st2" d="M28.97,27.08c-0.02,0.06-0.04,0.13-0.06,0.2c-0.03,0.14,0.18,0.25,0.26,0.11c0.05-0.09,0.06-0.17,0.07-0.27
					C29.26,26.96,29.02,26.94,28.97,27.08L28.97,27.08z"/>
			</g>
		</g>
		<g>
			<path class="st3" d="M20,59.4c-0.09,0.07-0.23,0.05-0.33-0.01c-0.1-0.06-0.17-0.16-0.23-0.26c-0.27-0.43-0.45-0.93-0.51-1.43
				c0.56-0.24,1.2-0.3,1.8-0.18c-0.15,0.58-0.35,1.15-0.6,1.7C20.09,59.28,20.06,59.35,20,59.4z"/>
		</g>
		<g>
			<path class="st4" d="M17.89,43.53c-1.42,1.85-1.77,4.31-1.66,6.63c0.02,0.44,0.06,0.9,0.32,1.27c0.28,0.41,0.78,0.63,1.26,0.78
				c2.54,0.82,5.44,0.53,7.76-0.79c0.2-0.11,0.42-0.27,0.43-0.49c0.02-0.21-0.14-0.38-0.29-0.53c-0.41-0.39-0.85-0.76-1.32-1.08
				c1.46-1.57,2.93-3.34,3.17-5.46c-0.88,0.26-1.73,0.66-2.48,1.18c0.22-0.81,0.36-1.65,0.4-2.5c0.02-0.41,0.02-0.84-0.2-1.19
				c-0.37-0.62-1.21-0.74-1.94-0.8c-0.66-0.06-1.34-0.11-1.97,0.1c-0.55,0.18-1.01,0.55-1.45,0.91
				C19.19,42.17,18.47,42.79,17.89,43.53z"/>
		</g>
		<g>
			<path class="st0" d="M19.1,47.96c0.12-0.11,0.4-0.32,0.54-0.4c0.43-0.24,0.95-0.25,1.44-0.21c0.43,0.04,0.94,0.34,1.27,0.62
				c0.38,0.32,0.65,0.6,0.77,0.87c-1.13,0.86-2.93,1.26-4.23,0.68c-0.2-0.09-0.54-0.28-0.7-0.37C18.4,48.62,18.67,48.36,19.1,47.96z
				"/>
		</g>
		<g>
			<defs>
				<path id="SVGID_00000121991691846029410310000012958896200696258721_" d="M16.78,45.65c0.29,0.35,0.75,0.52,1.21,0.53
					c0.45,0.01,0.9-0.12,1.32-0.29c0.67-0.27,1.31-0.65,1.8-1.18c0.49-0.53,0.84-1.21,0.89-1.92c0.71,0.42,1.79,0.66,2.45,0.17
					c0.29-0.21,0.46-0.55,0.61-0.88c1.04-2.36,1.16-5,1.26-7.57c0.02-0.62,0.05-1.26,0.27-1.84c0.13-0.35,0.34-0.68,0.36-1.05
					c0-0.07,0-0.15-0.04-0.2c-0.09-0.11-0.27-0.06-0.4-0.01c-1.16,0.5-2.32,1-3.48,1.51c-2.27,0.98-4.66,2.07-6,4.12
					c-0.48,0.73-0.79,1.55-1.06,2.38c-0.34,1.02-0.61,2.08-0.57,3.15C15.44,43.63,16.09,44.82,16.78,45.65z"/>
			</defs>
			<use xlink:href="#SVGID_00000121991691846029410310000012958896200696258721_"  style="overflow:visible;fill:#0C0A35;"/>
			<clipPath id="SVGID_00000146468405113882277500000006214991648378230446_">
				<use xlink:href="#SVGID_00000121991691846029410310000012958896200696258721_"  style="overflow:visible;"/>
			</clipPath>
			<g style="clip-path:url(#SVGID_00000146468405113882277500000006214991648378230446_);">
				<g>
					<path class="st5" d="M27.21,30.86c-1,0.49-1.45,1.43-1.73,2.46c-0.37,1.37-0.62,2.74-1.07,4.09c-0.46,1.36-0.9,2.74-1.12,4.16
						c-0.2,1.25,0.84,2.05,1.26,3.14c0.06,0.16,0.27,0.13,0.29-0.04c0.14-1.19-1.18-1.81-1.1-3.05c0.08-1.29,0.53-2.65,0.95-3.87
						c0.41-1.21,0.7-2.41,0.97-3.65c0.11-0.51,0.22-1.04,0.43-1.52c0.19-0.43,0.44-0.81,0.76-1.16c0.36-0.39,0.3-0.15,0.46-0.48
						C27.33,30.89,27.27,30.83,27.21,30.86L27.21,30.86z"/>
				</g>
			</g>
			<g style="clip-path:url(#SVGID_00000146468405113882277500000006214991648378230446_);">
				<g>
					<path class="st5" d="M26.41,30.8c-0.78,0.21-1.19,0.98-1.53,1.65c-0.48,0.97-0.84,2.02-1.15,3.05
						c-0.46,1.55-0.91,3.1-1.35,4.66c-0.46,1.61-0.37,3.55-0.11,5.19c0.03,0.21,0.31,0.12,0.34-0.05c0.23-1.69-0.23-3.34,0.21-5.03
						c0.36-1.37,0.7-2.72,1.15-4.06c0.31-0.92,0.59-1.85,0.94-2.76c0.29-0.77,0.66-2.25,1.52-2.62
						C26.44,30.83,26.43,30.79,26.41,30.8L26.41,30.8z"/>
				</g>
			</g>
			<g style="clip-path:url(#SVGID_00000146468405113882277500000006214991648378230446_);">
				<g>
					<path class="st5" d="M24.66,31.05c-0.11,0.56-0.55,0.88-0.85,1.32c-0.36,0.52-0.63,1.09-0.95,1.63
						c-0.66,1.15-1.04,2.53-1.5,3.77c-0.53,1.44-0.72,2.99-0.92,4.5c-0.11,0.8-0.19,1.6-0.23,2.41c-0.03,0.69-0.27,1.53-0.06,2.19
						c0.09,0.26,0.48,0.16,0.42-0.11c-0.14-0.64,0.06-1.43,0.09-2.08c0.04-0.81,0.12-1.61,0.23-2.41c0.21-1.57,0.44-3.13,0.99-4.63
						c0.49-1.33,0.85-2.72,1.52-3.98c0.3-0.57,0.6-1.08,1-1.58c0.23-0.29,0.44-0.61,0.5-0.97C24.94,30.95,24.69,30.88,24.66,31.05
						L24.66,31.05z"/>
				</g>
			</g>
			<g style="clip-path:url(#SVGID_00000146468405113882277500000006214991648378230446_);">
				<g>
					<path class="st5" d="M23.36,31.96c-0.99,1.05-1.95,2.05-2.55,3.38c-0.55,1.21-0.91,2.54-1.27,3.81
						c-0.37,1.27-0.63,2.64-0.82,3.95c-0.19,1.35-0.15,2.82-0.7,4.08c-0.06,0.13,0.04,0.31,0.2,0.26c0.75-0.24,0.61-1.58,0.69-2.17
						c0.22-1.55,0.45-3.08,0.74-4.62c0.25-1.35,0.72-2.64,1.12-3.95c0.54-1.76,1.5-3.22,2.73-4.59C23.6,32,23.46,31.86,23.36,31.96
						L23.36,31.96z"/>
				</g>
			</g>
			<g style="clip-path:url(#SVGID_00000146468405113882277500000006214991648378230446_);">
				<g>
					<path class="st5" d="M21.13,33.05c-0.9,0.52-1.14,1.51-1.59,2.38c-0.53,1.02-0.86,2.16-1.2,3.26
						c-0.42,1.38-0.85,2.82-1.04,4.25c-0.09,0.67-0.14,1.34-0.18,2.01c-0.04,0.76-0.37,1.55-0.2,2.3c0.03,0.13,0.22,0.12,0.26,0
						c0.3-1.14,0.36-2.28,0.45-3.44c0.12-1.49,0.53-2.95,0.92-4.39c0.29-1.06,0.63-2.12,1.04-3.15c0.37-0.93,0.82-2.42,1.64-3.03
						C21.34,33.14,21.25,32.97,21.13,33.05L21.13,33.05z"/>
				</g>
			</g>
			<g style="clip-path:url(#SVGID_00000146468405113882277500000006214991648378230446_);">
				<g>
					<path class="st5" d="M19.72,33.71c-0.83,0.6-1.32,1.69-1.8,2.55c-0.58,1.05-1.03,2.12-1.52,3.21c-0.4,0.88-0.43,1.83-0.52,2.78
						c-0.11,1.12-0.49,2.35,0.22,3.34c0.05,0.07,0.2,0.06,0.19-0.05c-0.08-1.06-0.03-2,0.09-3.06c0.12-1.05,0.14-2.03,0.58-3.02
						c0.4-0.91,0.76-1.84,1.25-2.72c0.48-0.87,0.87-2.23,1.65-2.88C19.94,33.79,19.82,33.64,19.72,33.71L19.72,33.71z"/>
				</g>
			</g>
		</g>
		<g>
			<path class="st7" d="M17.11,42.05c-0.13-0.09-0.31-0.09-0.47-0.09c-0.98,0.03-2.28,0.13-3.23,0.39
				c-0.88,0.24-1.63,0.56-2.08,1.34c-0.23,0.4-0.13,1.1,0.23,1.4c0.26,0.22,0.54,0.3,0.85,0.43c0.79,0.31,1.16,1.21,1.18,2.04
				c0.03,0.84-0.07,1.73,0.36,2.46c0.34,0.56,0.95,0.92,1.59,1.09c0.64,0.17,1.31,0.18,1.97,0.18c0.28,0,0.6-0.02,0.77-0.23
				c0.17-0.21,0.12-0.51,0.05-0.77c-0.38-1.59-0.89-3.19-0.75-4.83c0.04-0.46,0.13-0.91,0.13-1.37c0-0.58-0.15-1.14-0.36-1.68
				C17.29,42.27,17.23,42.13,17.11,42.05z"/>
		</g>
		<g>
			<path class="st2" d="M13.89,53.57c0.01-0.16,0.02-0.33,0.11-0.47c0.15-0.23,0.45-0.31,0.73-0.36c3.46-0.67,7.04-1.04,10.51-0.38
				c0.24,0.04,0.5,0.11,0.63,0.31c0.09,0.13,0.1,0.3,0.1,0.45c0.02,0.6,0,1.23-0.27,1.77c-0.23,0.47-0.62,1.07-1.01,1.43
				c-0.93,0.85-1.71,1.27-2.95,1.57c-1.36,0.33-3.2,0.22-4.52-0.27c-0.87-0.32-1.57-0.75-2.24-1.39
				C14.26,55.55,13.86,54.56,13.89,53.57z"/>
		</g>
		<g>
			<path class="st8" d="M11.58,36.01c-0.09-0.02-0.18-0.05-0.28-0.07C11.4,35.97,11.49,35.99,11.58,36.01z"/>
		</g>
		<g>
			<defs>
				<path id="SVGID_00000128455993542492147700000015695651599986956431_" d="M17.11,42.05c-0.13-0.09-0.31-0.09-0.47-0.09
					c-0.98,0.03-2.28,0.13-3.23,0.39c-0.88,0.24-1.63,0.56-2.08,1.34c-0.23,0.4-0.13,1.1,0.23,1.4c0.26,0.22,0.54,0.3,0.85,0.43
					c0.79,0.31,1.16,1.21,1.18,2.04c0.03,0.84-0.07,1.73,0.36,2.46c0.34,0.56,0.95,0.92,1.59,1.09c0.64,0.17,1.31,0.18,1.97,0.18
					c0.28,0,0.6-0.02,0.77-0.23c0.17-0.21,0.12-0.51,0.05-0.77c-0.38-1.59-0.89-3.19-0.75-4.83c0.04-0.46,0.13-0.91,0.13-1.37
					c0-0.58-0.15-1.14-0.36-1.68C17.29,42.27,17.23,42.13,17.11,42.05z"/>
			</defs>
			<clipPath id="SVGID_00000133502971499822580170000014050157342349189805_">
				<use xlink:href="#SVGID_00000128455993542492147700000015695651599986956431_"  style="overflow:visible;"/>
			</clipPath>
			<g style="clip-path:url(#SVGID_00000133502971499822580170000014050157342349189805_);">
				<g>
					<path class="st5" d="M18.07,51.9c-1.02-2.17-1.18-4.99-1.14-7.35c0.02-1.57,0.52-3.87-1.07-4.91c-0.1-0.07-0.2,0.06-0.15,0.15
						c0.46,0.94,0.81,1.67,0.83,2.75c0.01,1.13-0.11,2.26-0.04,3.39c0.12,2.04,0.45,4.24,1.36,6.1
						C17.92,52.17,18.13,52.04,18.07,51.9L18.07,51.9z"/>
				</g>
			</g>
			<g style="clip-path:url(#SVGID_00000133502971499822580170000014050157342349189805_);">
				<g>
					<path class="st5" d="M16.98,51.83c-1.2-1.9-0.64-4.6-0.87-6.74c-0.19-1.77-0.13-3.76-1.96-4.72c-0.09-0.05-0.2,0.05-0.15,0.14
						c0.59,1,1.23,1.77,1.38,2.97c0.14,1.07,0.25,2.17,0.32,3.24c0.11,1.87,0.07,3.57,1.16,5.19C16.92,51.97,17.03,51.9,16.98,51.83
						L16.98,51.83z"/>
				</g>
			</g>
			<g style="clip-path:url(#SVGID_00000133502971499822580170000014050157342349189805_);">
				<g>
					<path class="st5" d="M16.19,51.91c-0.76-0.6-0.8-2.58-0.86-3.4c-0.09-1.28-0.01-2.54-0.32-3.79c-0.36-1.44-0.78-3.02-2.02-3.97
						c-0.08-0.06-0.21,0.02-0.15,0.11c1.11,1.58,1.92,3.66,1.95,5.58c0.02,1.28,0.11,2.61,0.37,3.86c0.13,0.62,0.27,1.44,0.9,1.76
						C16.16,52.12,16.28,51.99,16.19,51.91L16.19,51.91z"/>
				</g>
			</g>
			<g style="clip-path:url(#SVGID_00000133502971499822580170000014050157342349189805_);">
				<g>
					<path class="st5" d="M14.42,52.36c-0.05-0.7,0.67-1.1,0.47-1.87c-0.33-1.26-0.43-2.55-0.62-3.84
						c-0.18-1.27-0.46-2.55-0.94-3.74c-0.36-0.89-0.94-2.06-1.88-2.46c-0.07-0.03-0.18,0.04-0.12,0.12
						c0.31,0.45,0.71,0.81,1.02,1.25c0.36,0.52,0.59,1.12,0.79,1.71c0.41,1.21,0.64,2.49,0.81,3.76c0.14,1.02,0.16,2.17,0.55,3.14
						c0.3,0.74-0.44,1.26-0.25,1.95C14.27,52.47,14.42,52.46,14.42,52.36L14.42,52.36z"/>
				</g>
			</g>
			<g style="clip-path:url(#SVGID_00000133502971499822580170000014050157342349189805_);">
				<g>
					<path class="st5" d="M13.4,51.16c0.66-1.94,0.08-4.32-0.61-6.17c-0.45-1.21-1.34-3.92-3.1-3.59c-0.09,0.02-0.13,0.15-0.06,0.21
						c0.59,0.47,1.17,0.61,1.59,1.32c0.45,0.77,0.82,1.67,1.13,2.5c0.63,1.65,1.31,3.92,0.87,5.69
						C13.2,51.22,13.36,51.26,13.4,51.16L13.4,51.16z"/>
				</g>
			</g>
		</g>
		<g>
			<path class="st3" d="M14.47,50.17c-0.89,0.61-1.42,1.65-1.58,2.7c-0.16,1.06,0.01,2.14,0.29,3.17c1.21-0.85,2.26-2.2,3.12-3.38
				c0.23,1.17,0.89,2.76,1.47,3.81c1.07-1.12,1.82-2.51,2.78-3.73c0.34,0.8,0.68,1.6,1.04,2.39c0.23,0.5,0.56,1.02,0.96,1.42
				c0.87-1.16,1.8-2.56,2.2-3.98c0.36,1.06,0.6,1.26,1.54,2.43c0.22,0.27,0.67,0.63,0.93,0.86c0.27-1.03,0.54-2.07,0.49-3.13
				c-0.05-1.06-0.47-2.15-1.33-2.78c-0.39-0.28-0.95-0.27-1.43-0.19c-2.76,0.44-5.58,0.51-8.36,0.18c-0.85-0.1-1.86-0.17-2.4,0.48
				L14.47,50.17z"/>
		</g>
		<g>
			<path class="st10" d="M26.99,53.05c-0.7-0.63-1.41-1.15-1.94-1.92c0.61-0.01,1.1,0,1.71-0.02
				C26.97,51.48,27.03,53.08,26.99,53.05z"/>
		</g>
		<g>
			<path class="st10" d="M22.62,53.39c-0.03,0.01-0.06-0.02-0.08-0.04c-0.47-0.69-0.88-1.43-1.21-2.19
				c0.76,0.03,1.53,0.05,2.29,0.08c0.04,0.16-0.04,0.33-0.12,0.48c-0.28,0.55-0.56,1.09-0.85,1.64
				C22.64,53.37,22.63,53.38,22.62,53.39z"/>
		</g>
		<g>
			<path class="st10" d="M17.2,51.05c0.7,0.07,1.62,0.13,2.33,0.13c-0.33,0.67-0.97,1.68-1.42,2.28
				C17.63,52.8,17.32,51.85,17.2,51.05z"/>
		</g>
		<g>
			<path class="st10" d="M15.87,50.98c-0.27,0.34-0.49,0.56-0.79,0.87c-0.41,0.43-0.87,0.76-1.31,1.14c0-0.62,0.14-1.24,0.41-1.8
				c0.03-0.06,0.06-0.12,0.11-0.16c0.09-0.07,0.22-0.07,0.34-0.07C15.01,50.98,15.5,50.97,15.87,50.98z"/>
		</g>
		<g>
			<path class="st11" d="M9.36,39.55c-0.26,1.42-0.43,3-0.7,4.42c-0.07,0.37-0.6,3.85-0.71,4.44c-0.12,0-0.53-0.07-0.65-0.07
				c0.18,0.41,0.19,0.66,0.3,1.16c-0.26-0.18-0.58-0.4-1.1-0.13c-0.27,0.14-0.25,0.56-0.22,0.8c0.2,1.69,0.56,2.91,0.77,4.33
				c0.63-1.19,1.36-2.31,2.2-3.36c0.17-0.21,0.35-0.43,0.43-0.69c0.08-0.26,0.06-0.59-0.17-0.75c-0.42-0.29-0.74-0.17-1.04-0.11
				c0.18-0.34,0.5-0.66,0.65-1.01c-0.24,0-0.43-0.1-0.68-0.1c0.17-1.25,0.43-2.29,0.63-3.51c0.32-1.93,0.66-4.1,0.97-6.03
				c0.12-0.77,0.86-4.63,0.89-4.72c-0.13-0.05-0.53-0.11-0.64-0.13C10.15,34.51,9.49,38.84,9.36,39.55z"/>
		</g>
		<g>
			<path class="st2" d="M23.72,45.33c-0.48,0.17-1.01-0.01-1.44-0.27c-0.78-0.48-1.33-1.26-1.66-2.11
				c-0.33-0.85-0.43-1.76-0.45-2.67c-0.01-0.43,0-0.87,0.18-1.26c0.35-0.11,0.72,0.08,1.03,0.29c1.2,0.81,2.24,2.05,2.27,3.48
				c-0.08-1.71,1.03-3.41,2.64-4.05c-0.14,0.87-0.67,1.64-0.78,2.52c-0.15,1.15,0.45,2.38-0.01,3.45c-0.04,0.09-0.09,0.18-0.17,0.24
				c-0.22,0.16-0.53,0.03-0.8,0.05C24.23,45.03,23.99,45.23,23.72,45.33z"/>
		</g>
		<g>
			<defs>
				<path id="SVGID_00000011733258110988002420000006860806100696355765_" d="M23.72,45.33c-0.48,0.17-1.01-0.01-1.44-0.27
					c-0.78-0.48-1.33-1.26-1.66-2.11c-0.33-0.85-0.43-1.76-0.45-2.67c-0.01-0.43,0-0.87,0.18-1.26c0.35-0.11,0.72,0.08,1.03,0.29
					c1.2,0.81,2.24,2.05,2.27,3.48c-0.08-1.71,1.03-3.41,2.64-4.05c-0.14,0.87-0.67,1.64-0.78,2.52c-0.15,1.15,0.45,2.38-0.01,3.45
					c-0.04,0.09-0.09,0.18-0.17,0.24c-0.22,0.16-0.53,0.03-0.8,0.05C24.23,45.03,23.99,45.23,23.72,45.33z"/>
			</defs>
			<use xlink:href="#SVGID_00000011733258110988002420000006860806100696355765_"  style="overflow:visible;fill:#191956;"/>
			<clipPath id="SVGID_00000061461977034897208310000006247646761484715187_">
				<use xlink:href="#SVGID_00000011733258110988002420000006860806100696355765_"  style="overflow:visible;"/>
			</clipPath>
			<g style="clip-path:url(#SVGID_00000061461977034897208310000006247646761484715187_);">
				<g>
					<path class="st5" d="M24.89,45.56c0.69-0.29,0.5-1.32,0.5-1.91c-0.01-0.93-0.06-1.84,0.08-2.77c0.12-0.77,0.55-1.43,0.71-2.18
						c0.02-0.09-0.08-0.15-0.15-0.09c-0.78,0.71-0.96,1.93-1.05,2.93c-0.07,0.7-0.02,1.41-0.01,2.11c0.01,0.49,0.15,1.34-0.21,1.74
						C24.67,45.49,24.78,45.61,24.89,45.56L24.89,45.56z"/>
				</g>
			</g>
			<g style="clip-path:url(#SVGID_00000061461977034897208310000006247646761484715187_);">
				<g>
					<path class="st5" d="M24.23,45.78c0.61-1,0.15-1.9,0.17-3c0.01-0.65,0.03-1.28,0.14-1.92c0.12-0.68,0.51-1.25,0.65-1.91
						c0.02-0.09-0.07-0.17-0.16-0.12c-0.88,0.54-0.98,1.92-1.03,2.85c-0.04,0.62-0.04,1.26,0.01,1.87c0.06,0.75,0.34,1.41,0.05,2.15
						C24.02,45.81,24.18,45.87,24.23,45.78L24.23,45.78z"/>
				</g>
			</g>
			<g style="clip-path:url(#SVGID_00000061461977034897208310000006247646761484715187_);">
				<g>
					<path class="st5" d="M24.08,45.66c-0.21-0.22-0.27-0.67-0.38-0.95c-0.16-0.42-0.33-0.84-0.47-1.26
						c-0.3-0.86-0.3-1.78-0.57-2.65c-0.19-0.63-0.58-1.19-1.02-1.69c-0.4-0.45-0.83-1.03-1.44-1.13c-0.17-0.03-0.33,0.17-0.18,0.31
						c1.25,1.17,2.18,2.16,2.46,3.9c0.18,1.1,0.6,2.81,1.5,3.58C24.05,45.82,24.14,45.73,24.08,45.66L24.08,45.66z"/>
				</g>
			</g>
			<g style="clip-path:url(#SVGID_00000061461977034897208310000006247646761484715187_);">
				<g>
					<path class="st5" d="M23.16,45.87c-0.6-0.48-0.86-1.4-1.08-2.09c-0.29-0.86-0.5-1.74-0.82-2.59c-0.32-0.84-1.17-2.82-2.35-2.59
						c-0.11,0.02-0.12,0.15-0.06,0.22c0.48,0.57,1.02,1,1.43,1.65c0.47,0.76,0.76,1.64,1.03,2.49c0.34,1.08,0.64,2.5,1.75,3.07
						C23.14,46.06,23.25,45.93,23.16,45.87L23.16,45.87z"/>
				</g>
			</g>
		</g>
		<g>
			<g>
				<path class="st2" d="M20.59,47.99c-0.34,0-0.63,0.28-0.63,0.62c0,0.34,0.29,0.62,0.63,0.62c0.34,0,0.63-0.28,0.63-0.62
					C21.22,48.27,20.93,47.99,20.59,47.99L20.59,47.99z"/>
			</g>
		</g>
		<g>
			<g>
				<path class="st2" d="M25.29,44.93c-0.45,0.17-0.97-0.08-1.42,0.15c-0.3,0.16-0.5,0.42-0.53,0.76c-0.02,0.23,0.02,0.57,0.25,0.7
					c0.22,0.12,0.63,0.07,0.64-0.23c0-0.05-0.03-0.08-0.08-0.1c-0.15-0.06-0.33,0.11-0.46-0.01c-0.13-0.12-0.07-0.4-0.02-0.54
					c0.12-0.34,0.5-0.4,0.82-0.41c0.34-0.01,0.56-0.02,0.84-0.21C25.4,45.01,25.36,44.9,25.29,44.93L25.29,44.93z"/>
			</g>
		</g>
		<g>
			<g>
				<path class="st5" d="M24.65,55.73c-0.19,0-0.19,0.29,0,0.29C24.84,56.02,24.84,55.73,24.65,55.73L24.65,55.73z"/>
			</g>
		</g>
		<g>
			<g>
				<path class="st10" d="M23.95,56.06c0.03-0.03,0.05-0.05,0.05-0.09c0.02-0.11-0.06-0.19-0.18-0.18c0,0-0.01,0-0.01,0
					c0.04,0.01,0.08,0.01,0.12,0.02c0,0-0.01,0-0.01-0.01c-0.11-0.06-0.25,0.02-0.25,0.14C23.66,56.09,23.84,56.15,23.95,56.06
					L23.95,56.06z"/>
			</g>
		</g>
		<g>
			<g>
				<path class="st10" d="M21.34,55.83c-0.19,0-0.19,0.29,0,0.29S21.53,55.83,21.34,55.83L21.34,55.83z"/>
			</g>
		</g>
		<g>
			<g>
				<path class="st10" d="M20.32,55.82c-0.24,0-0.24,0.37,0,0.37C20.57,56.19,20.57,55.82,20.32,55.82L20.32,55.82z"/>
			</g>
		</g>
		<g>
			<g>
				<path class="st10" d="M19.21,55.78c-0.3,0-0.3,0.45,0,0.45C19.51,56.23,19.51,55.78,19.21,55.78L19.21,55.78z"/>
			</g>
		</g>
		<g>
			<g>
				<path class="st10" d="M16.59,55.82c-0.24,0-0.24,0.37,0,0.37C16.83,56.19,16.83,55.82,16.59,55.82L16.59,55.82z"/>
			</g>
		</g>
		<g>
			<g>
				<path class="st10" d="M15.67,55.89c-0.28,0-0.28,0.42,0,0.42C15.95,56.31,15.95,55.89,15.67,55.89L15.67,55.89z"/>
			</g>
		</g>
		<g>
			<g>
				<path class="st2" d="M21.67,49.75c-0.34-0.19-0.75-0.11-1.12-0.1c-0.43,0.02-0.95-0.04-1.33,0.15c-0.08,0.04-0.08,0.17,0,0.2
					c0.35,0.17,0.77,0.08,1.15,0.05c0.41-0.02,0.94,0.02,1.3-0.2C21.71,49.84,21.71,49.77,21.67,49.75L21.67,49.75z"/>
			</g>
		</g>
		<path class="st7" d="M11.77,23.5c0.21,0.9,0.4,1.8,0.47,2.72c0.07,0.86,0.03,1.73,0,2.59c-0.03,0.8-0.07,1.6-0.1,2.41
			c-0.03,0.65-0.05,1.3-0.08,1.95c-0.01,0.16-0.02,0.34-0.13,0.46c-0.08,0.08-0.19,0.11-0.29,0.14c-0.41,0.11-2.14,2.39-2.55,2.31
			c-0.67-3.78,0.19-7.25-0.22-9.96c-1.09,0.49-2.07,1.07-2.81,1.85c0.15-1.07,0.22-2.23,0.37-3.3c0.07-0.51,0.22-1,0.37-1.49
			c0.31-1,0.62-2,0.92-3c0.11-0.36,0.26-0.76,0.62-0.89c0.13-0.05,0.27-0.05,0.41-0.05c0.68-0.01,1.46,0.02,1.9,0.53
			c0.21,0.24,0.31,0.56,0.4,0.87C11.3,21.58,11.54,22.54,11.77,23.5z"/>
		<g>
			<path class="st4" d="M9.98,36.71c2.43,0.83,3.12,0.43,3.01-0.01c-0.07-0.29-0.57-0.4-0.86-0.47c-0.27-0.07-0.11-0.07-0.38-0.13
				c-0.09-0.02,0.56,0.02,1.22-0.08c0.23-0.04,0.39-0.22,0.39-0.45c0.01-0.53-1.16-0.59-1.33-0.74c0.18,0.03,0.82-0.02,0.99-0.07
				c0.18-0.06,0.28-0.29,0.24-0.47c-0.04-0.18-0.19-0.3-0.38-0.36c-0.33-0.09-0.73-0.14-1.06-0.2c0.22-0.04,0.49-0.03,0.71-0.07
				c0.14-0.03,0.31-0.05,0.43-0.13c0.12-0.08,0.13-0.29,0.1-0.43c-0.05-0.18-0.25-0.25-0.43-0.3c-0.39-0.11-2.29-0.43-2.61-0.21
				c-0.54,0.35-0.59,0.73-0.87,1.47c-0.19,0.5-0.3,1.56-0.06,2.04C9.26,36.45,9.66,36.6,9.98,36.71z"/>
		</g>
		<g>
			<g>
				<path class="st2" d="M9.82,36.22c0.15-0.06,0.22-0.19,0.19-0.34c-0.03-0.17-0.3-0.13-0.3,0.04c0,0.05,0.01,0.1-0.02,0.14
					C9.64,36.14,9.73,36.26,9.82,36.22L9.82,36.22z"/>
			</g>
		</g>
		<g>
			<g>
				<path class="st2" d="M10.09,35.2c0.06-0.11,0.07-0.26,0.04-0.38c-0.04-0.14-0.24-0.14-0.28,0c-0.03,0.12-0.02,0.27,0.04,0.38
					C9.93,35.28,10.05,35.28,10.09,35.2L10.09,35.2z"/>
			</g>
		</g>
		<g>
			<g>
				<path class="st2" d="M10.21,34.13c0.09-0.11,0.2-0.32,0.08-0.45c-0.03-0.04-0.11-0.04-0.15,0c-0.07,0.08-0.05,0.19-0.12,0.28
					C9.93,34.08,10.11,34.26,10.21,34.13L10.21,34.13z"/>
			</g>
		</g>
		<g>
			<g>
				<path class="st2" d="M10.52,33.12c0.02-0.07,0.04-0.13,0.06-0.2c0.03-0.15-0.18-0.25-0.26-0.11c-0.05,0.09-0.06,0.17-0.07,0.27
					C10.22,33.24,10.47,33.26,10.52,33.12L10.52,33.12z"/>
			</g>
		</g>
	</g>
	<g>
		<g>
			<g>
				<path class="st2" d="M34.63,48.79c0-0.1,0.04-0.24,0.04-0.34c0-0.1,0-0.2-0.01-0.3c-0.04-0.34-0.16-0.66-0.42-0.89
					c0.23-0.01,0.82-0.01,1.06,0c-0.26,0.23-0.38,0.55-0.42,0.89c-0.01,0.1-0.01,0.2-0.01,0.3c0,0.1,0.04,0.24,0.04,0.34H34.63z"/>
			</g>
		</g>
		<g>
			<path class="st2" d="M34.72,48.41c-0.21-0.31-0.57-0.53-0.95-0.52c-0.38,0.01-0.75,0.28-0.82,0.65c-0.07,0.32,0.09,0.66,0.32,0.9
				c0.23,0.24,0.54,0.4,0.82,0.58c0.29,0.18,0.69,0.65,0.69,0.65s0.44-0.45,0.68-0.63c0.27-0.2,0.6-0.35,0.82-0.59
				c0.23-0.24,0.39-0.58,0.32-0.9c-0.07-0.37-0.44-0.64-0.82-0.65c-0.38-0.01-0.75,0.21-0.96,0.52H34.72z"/>
		</g>
	</g>
	<g>
		<g>
			<g>
				<path class="st2" d="M5.24,10.94c0,0.1-0.04,0.24-0.04,0.34c0,0.1,0,0.2,0.01,0.3c0.04,0.34,0.16,0.67,0.42,0.9
					c-0.23,0.01-0.82,0.01-1.06,0c0.26-0.23,0.38-0.55,0.42-0.9C5,11.48,5,11.38,5,11.28c0-0.1-0.04-0.24-0.04-0.34H5.24z"/>
			</g>
		</g>
		<g>
			<path class="st2" d="M5.15,11.32c0.21,0.31,0.58,0.53,0.96,0.52c0.38-0.01,0.75-0.29,0.82-0.65c0.06-0.32-0.1-0.66-0.32-0.9
				c-0.23-0.24-0.54-0.4-0.82-0.58C5.5,9.52,5.1,9.06,5.1,9.06S4.66,9.51,4.42,9.69c-0.27,0.2-0.6,0.35-0.82,0.59
				c-0.23,0.24-0.39,0.58-0.32,0.9c0.07,0.37,0.44,0.64,0.82,0.65c0.38,0.01,0.75-0.21,0.96-0.52H5.15z"/>
		</g>
	</g>
	<g>
		<path class="st2" d="M7.69,8.42H6.92L5.24,5.36L3.95,6.95v1.48h-0.7V2.89h0.7V6.1l2.54-3.21h0.76L5.73,4.82L7.69,8.42z"/>
	</g>
	<g>
		<path class="st2" d="M32.31,51.58h0.77l1.68,3.06l1.29-1.58v-1.48h0.7v5.54h-0.7V53.9l-2.54,3.21h-0.76l1.52-1.94L32.31,51.58z"/>
	</g>
	<g>
		<g>
			<path class="st7" d="M14.58,56.94H6.05c-1.62,0-2.94-1.38-2.94-3.07V15.09c0-0.05,0.04-0.09,0.09-0.09
				c0.05,0,0.09,0.04,0.09,0.09v38.78c0,1.6,1.23,2.89,2.75,2.89h8.53c0.05,0,0.09,0.04,0.09,0.09
				C14.67,56.9,14.63,56.94,14.58,56.94z"/>
		</g>
		<g>
			<path class="st7" d="M32.03,56.94h-6.05c-0.05,0-0.09-0.04-0.09-0.09c0-0.05,0.04-0.09,0.09-0.09h6.05
				c0.05,0,0.09,0.04,0.09,0.09C32.12,56.9,32.08,56.94,32.03,56.94z"/>
		</g>
		<g>
			<path class="st7" d="M36.79,45.2c-0.05,0-0.09-0.04-0.09-0.09V6.13c0-1.6-1.23-2.89-2.75-2.89h-8.42c-0.05,0-0.09-0.04-0.09-0.09
				c0-0.05,0.04-0.09,0.09-0.09h8.42c1.62,0,2.94,1.38,2.94,3.07V45.1C36.88,45.15,36.84,45.2,36.79,45.2z"/>
		</g>
		<g>
			<path class="st7" d="M14.12,3.24H8.25c-0.05,0-0.09-0.04-0.09-0.09c0-0.05,0.04-0.09,0.09-0.09h5.87c0.05,0,0.09,0.04,0.09,0.09
				C14.22,3.2,14.17,3.24,14.12,3.24z"/>
		</g>
	</g>
</g>
</svg>
