<?xml version="1.0" encoding="utf-8"?>
<!-- Generator: Adobe Illustrator 26.3.1, SVG Export Plug-In . SVG Version: 6.00 Build 0)  -->
<svg version="1.0" id="Layer_1" xmlns="http://www.w3.org/2000/svg" xmlns:xlink="http://www.w3.org/1999/xlink" x="0px" y="0px"
	 viewBox="0 0 40 60" enable-background="new 0 0 40 60" xml:space="preserve">
<g>
	<g>
		<path fill="#FFFFFF" d="M36.12,59.41H3.88c-1.81,0-3.29-1.46-3.29-3.27V3.86c0-1.8,1.47-3.27,3.29-3.27h32.25
			c1.81,0,3.29,1.46,3.29,3.27v52.29C39.41,57.95,37.94,59.41,36.12,59.41z"/>
		<path fill="#2D2D2D" d="M36.12,59.5H3.88c-1.86,0-3.38-1.51-3.38-3.36V3.86c0-1.85,1.51-3.36,3.38-3.36h32.25
			c1.86,0,3.38,1.51,3.38,3.36v52.29C39.5,57.99,37.99,59.5,36.12,59.5z M3.88,0.68c-1.76,0-3.2,1.43-3.2,3.18v52.29
			c0,1.75,1.43,3.18,3.2,3.18h32.25c1.76,0,3.2-1.43,3.2-3.18V3.86c0-1.75-1.43-3.18-3.2-3.18H3.88z"/>
	</g>
	<g>
		<g>
			<path fill="#D6002B" d="M5.62,12.54c0.16-0.14,0.34-0.25,0.51-0.38c0.19-0.14,0.39-0.26,0.54-0.44c0.12-0.15,0.18-0.29,0.24-0.47
				c0.06-0.18,0.07-0.57-0.03-0.73c-0.29-0.47-1.12-0.88-1.66,0.15c-0.01,0.01-0.02,0.02-0.04,0.02h0c-0.02,0-0.03-0.01-0.04-0.02
				c-0.54-1.03-1.36-0.62-1.66-0.15c-0.1,0.16-0.09,0.55-0.03,0.73c0.06,0.18,0.12,0.33,0.24,0.47c0.15,0.18,0.35,0.3,0.54,0.44
				c0.17,0.13,0.35,0.24,0.51,0.38c0.08,0.07,0.44,0.45,0.44,0.45S5.54,12.61,5.62,12.54z"/>
		</g>
	</g>
	<g>
		<g>
			<path fill="#D6002B" d="M34.41,47.53c-0.16,0.14-0.33,0.25-0.51,0.38c-0.19,0.14-0.39,0.26-0.54,0.44
				c-0.12,0.15-0.18,0.29-0.24,0.47c-0.06,0.18-0.07,0.57,0.03,0.73c0.29,0.47,1.12,0.88,1.66-0.15c0.01-0.01,0.02-0.02,0.04-0.02
				l0,0c0.02,0,0.03,0.01,0.04,0.02c0.54,1.03,1.36,0.62,1.66,0.15c0.1-0.16,0.09-0.55,0.03-0.73c-0.06-0.18-0.12-0.33-0.24-0.47
				c-0.15-0.18-0.35-0.3-0.54-0.44c-0.17-0.13-0.35-0.24-0.51-0.38c-0.08-0.07-0.44-0.45-0.44-0.45S34.49,47.46,34.41,47.53z"/>
		</g>
	</g>
	<g>
		<g>
			<path fill="#D6002B" d="M4.38,8.28v0.51H2.32V8.28h0.75v-4.2c-0.48,0.5-0.99,0.89-1.51,1.18V4.56c0.72-0.38,1.28-0.82,1.67-1.34
				h0.49v5.05H4.38z"/>
		</g>
		<g>
			<path fill="#D6002B" d="M6.76,8.89c-0.63,0-1.14-0.27-1.51-0.82C4.87,7.53,4.68,6.86,4.68,6.05c0-0.79,0.18-1.46,0.54-2.01
				C5.57,3.5,6.08,3.23,6.74,3.23c0.68,0,1.2,0.28,1.56,0.85c0.35,0.57,0.53,1.24,0.53,2c0,0.75-0.18,1.41-0.55,1.97
				C7.92,8.61,7.41,8.89,6.76,8.89z M6.76,8.36c0.46,0,0.81-0.21,1.03-0.62c0.22-0.42,0.33-0.94,0.33-1.57
				c0-0.69-0.11-1.26-0.34-1.72C7.55,3.99,7.2,3.76,6.73,3.76c-0.46,0-0.8,0.21-1.02,0.63C5.48,4.8,5.37,5.35,5.37,6.03
				c0,0.71,0.12,1.27,0.35,1.69C5.96,8.15,6.31,8.36,6.76,8.36z"/>
		</g>
	</g>
	<g>
		<g>
			<path fill="#D6002B" d="M35.62,51.72v-0.51h2.06v0.51h-0.75v4.2c0.48-0.5,0.99-0.9,1.51-1.18v0.69
				c-0.72,0.37-1.28,0.82-1.67,1.34h-0.49v-5.05H35.62z"/>
		</g>
		<g>
			<path fill="#D6002B" d="M33.24,51.1c0.63,0,1.14,0.27,1.51,0.82c0.38,0.54,0.57,1.22,0.57,2.03c0,0.79-0.18,1.46-0.54,2.01
				c-0.36,0.55-0.87,0.82-1.52,0.82c-0.68,0-1.2-0.28-1.56-0.85c-0.35-0.57-0.53-1.24-0.53-2c0-0.75,0.18-1.41,0.55-1.97
				C32.08,51.39,32.59,51.1,33.24,51.1z M33.24,51.64c-0.46,0-0.8,0.21-1.03,0.63c-0.22,0.42-0.33,0.94-0.33,1.57
				c0,0.69,0.11,1.26,0.34,1.72c0.23,0.46,0.58,0.69,1.05,0.69c0.46,0,0.8-0.21,1.02-0.63c0.22-0.42,0.33-0.97,0.33-1.65
				c0-0.71-0.12-1.27-0.35-1.69C34.04,51.85,33.69,51.64,33.24,51.64z"/>
		</g>
	</g>
	<g>
		<g>
			<g>
				<path fill="#D6002B" d="M15.76,11.82c0.45-0.4,0.94-0.71,1.43-1.07c0.53-0.39,1.1-0.74,1.52-1.24c0.35-0.41,0.51-0.82,0.69-1.33
					c0.17-0.51,0.2-1.61-0.09-2.07c-0.83-1.32-3.14-2.48-4.67,0.43c-0.02,0.04-0.06,0.07-0.11,0.07h0c-0.05,0-0.09-0.03-0.11-0.07
					C12.9,3.64,10.59,4.8,9.76,6.12C9.47,6.58,9.49,7.67,9.66,8.19C9.84,8.7,10,9.1,10.35,9.52c0.43,0.5,0.99,0.85,1.52,1.24
					c0.49,0.36,0.98,0.67,1.43,1.07c0.23,0.2,1.23,1.27,1.23,1.27S15.53,12.02,15.76,11.82z"/>
			</g>
		</g>
		<g>
			<g>
				<path fill="#D6002B" d="M26.7,11.82c0.45-0.4,0.94-0.71,1.43-1.07c0.53-0.39,1.1-0.74,1.52-1.24C30,9.1,30.16,8.7,30.34,8.19
					c0.17-0.51,0.19-1.61-0.09-2.07c-0.83-1.32-3.14-2.48-4.66,0.43c-0.02,0.04-0.06,0.07-0.11,0.07h0c-0.05,0-0.09-0.03-0.11-0.07
					c-1.52-2.91-3.84-1.75-4.67-0.43c-0.29,0.46-0.27,1.56-0.09,2.07c0.17,0.51,0.34,0.92,0.69,1.33c0.43,0.5,0.99,0.85,1.52,1.24
					c0.49,0.36,0.98,0.67,1.43,1.07c0.22,0.2,1.23,1.27,1.23,1.27S26.47,12.02,26.7,11.82z"/>
			</g>
		</g>
	</g>
	<g>
		<g>
			<g>
				<path fill="#D6002B" d="M15.76,27.98c0.45-0.4,0.94-0.71,1.43-1.07c0.53-0.39,1.1-0.74,1.52-1.24c0.35-0.41,0.51-0.82,0.69-1.33
					c0.17-0.51,0.2-1.61-0.09-2.07c-0.83-1.32-3.14-2.48-4.67,0.43c-0.02,0.04-0.06,0.07-0.11,0.07h0c-0.05,0-0.09-0.03-0.11-0.07
					c-1.52-2.91-3.84-1.75-4.66-0.43c-0.29,0.46-0.27,1.56-0.09,2.07c0.17,0.51,0.34,0.92,0.69,1.33c0.43,0.5,0.99,0.85,1.52,1.24
					c0.49,0.36,0.98,0.67,1.43,1.07c0.23,0.2,1.23,1.27,1.23,1.27S15.53,28.18,15.76,27.98z"/>
			</g>
		</g>
		<g>
			<g>
				<path fill="#D6002B" d="M26.7,27.98c0.45-0.4,0.94-0.71,1.43-1.07c0.53-0.39,1.1-0.74,1.52-1.24c0.35-0.41,0.51-0.82,0.69-1.33
					c0.17-0.51,0.19-1.61-0.09-2.07c-0.83-1.32-3.14-2.48-4.66,0.43c-0.02,0.04-0.06,0.07-0.11,0.07h0c-0.05,0-0.09-0.03-0.11-0.07
					c-1.52-2.91-3.84-1.75-4.67-0.43c-0.29,0.46-0.27,1.56-0.09,2.07c0.17,0.51,0.34,0.92,0.69,1.33c0.43,0.5,0.99,0.85,1.52,1.24
					c0.49,0.36,0.98,0.67,1.43,1.07c0.22,0.2,1.23,1.27,1.23,1.27S26.47,28.18,26.7,27.98z"/>
			</g>
		</g>
	</g>
	<g>
		<g>
			<path fill="#D6002B" d="M21.23,19.62c0.45-0.4,0.94-0.71,1.43-1.07c0.53-0.39,1.1-0.74,1.52-1.24c0.35-0.41,0.51-0.82,0.69-1.33
				c0.17-0.51,0.2-1.61-0.09-2.07c-0.83-1.32-3.14-2.48-4.66,0.43c-0.02,0.04-0.06,0.07-0.11,0.07h0c-0.05,0-0.09-0.03-0.11-0.07
				c-1.52-2.91-3.83-1.75-4.66-0.43c-0.29,0.46-0.27,1.56-0.09,2.07c0.17,0.51,0.34,0.92,0.69,1.33c0.43,0.5,0.99,0.85,1.52,1.24
				c0.49,0.36,0.98,0.67,1.43,1.07C19,19.82,20,20.89,20,20.89S21,19.82,21.23,19.62z"/>
		</g>
	</g>
	<g>
		<g>
			<g>
				<path fill="#D6002B" d="M24.24,48.35c-0.45,0.4-0.94,0.71-1.43,1.07c-0.53,0.39-1.1,0.74-1.52,1.24
					c-0.35,0.41-0.51,0.82-0.69,1.33c-0.17,0.51-0.2,1.61,0.09,2.07c0.83,1.32,3.14,2.48,4.67-0.43c0.02-0.04,0.06-0.07,0.11-0.07h0
					c0.05,0,0.09,0.03,0.11,0.07c1.52,2.91,3.84,1.75,4.66,0.43c0.29-0.46,0.27-1.56,0.09-2.07c-0.17-0.51-0.34-0.92-0.69-1.33
					c-0.43-0.5-0.99-0.85-1.52-1.24c-0.49-0.36-0.98-0.67-1.43-1.07c-0.22-0.2-1.23-1.27-1.23-1.27S24.47,48.15,24.24,48.35z"/>
			</g>
		</g>
		<g>
			<g>
				<path fill="#D6002B" d="M13.3,48.35c-0.45,0.4-0.94,0.71-1.43,1.07c-0.53,0.39-1.1,0.74-1.52,1.24
					c-0.35,0.41-0.51,0.82-0.69,1.33c-0.17,0.51-0.19,1.61,0.09,2.07c0.83,1.32,3.14,2.48,4.66-0.43c0.02-0.04,0.06-0.07,0.11-0.07
					h0c0.05,0,0.09,0.03,0.11,0.07c1.52,2.91,3.84,1.75,4.67,0.43c0.29-0.46,0.27-1.56,0.09-2.07c-0.17-0.51-0.34-0.92-0.69-1.33
					c-0.43-0.5-0.99-0.85-1.52-1.24c-0.49-0.36-0.98-0.67-1.43-1.07c-0.22-0.2-1.23-1.27-1.23-1.27S13.53,48.15,13.3,48.35z"/>
			</g>
		</g>
	</g>
	<g>
		<g>
			<g>
				<path fill="#D6002B" d="M24.24,32.2c-0.45,0.4-0.94,0.71-1.43,1.07c-0.53,0.39-1.1,0.74-1.52,1.24
					c-0.35,0.41-0.51,0.82-0.69,1.33c-0.17,0.51-0.2,1.61,0.09,2.07c0.83,1.32,3.14,2.48,4.67-0.43c0.02-0.04,0.06-0.07,0.11-0.07h0
					c0.05,0,0.09,0.03,0.11,0.07c1.52,2.91,3.84,1.75,4.66,0.43c0.29-0.46,0.27-1.56,0.09-2.07c-0.17-0.51-0.34-0.92-0.69-1.33
					c-0.43-0.5-0.99-0.85-1.52-1.24c-0.49-0.36-0.98-0.67-1.43-1.07c-0.22-0.2-1.23-1.27-1.23-1.27S24.47,32,24.24,32.2z"/>
			</g>
		</g>
		<g>
			<g>
				<path fill="#D6002B" d="M13.3,32.2c-0.45,0.4-0.94,0.71-1.43,1.07c-0.53,0.39-1.1,0.74-1.52,1.24
					c-0.35,0.41-0.51,0.82-0.69,1.33c-0.17,0.51-0.19,1.61,0.09,2.07c0.83,1.32,3.14,2.48,4.66-0.43c0.02-0.04,0.06-0.07,0.11-0.07
					h0c0.05,0,0.09,0.03,0.11,0.07c1.52,2.91,3.84,1.75,4.67,0.43c0.29-0.46,0.27-1.56,0.09-2.07c-0.17-0.51-0.34-0.92-0.69-1.33
					c-0.43-0.5-0.99-0.85-1.52-1.24c-0.49-0.36-0.98-0.67-1.43-1.07c-0.22-0.2-1.23-1.27-1.23-1.27S13.53,32,13.3,32.2z"/>
			</g>
		</g>
	</g>
	<g>
		<g>
			<path fill="#D6002B" d="M18.77,40.73c-0.45,0.4-0.94,0.71-1.43,1.07c-0.53,0.39-1.1,0.74-1.52,1.24
				c-0.35,0.41-0.51,0.82-0.69,1.33c-0.17,0.51-0.19,1.61,0.09,2.07c0.83,1.32,3.14,2.47,4.66-0.43c0.02-0.04,0.06-0.07,0.11-0.07h0
				c0.05,0,0.09,0.03,0.11,0.07c1.52,2.91,3.84,1.75,4.66,0.43c0.29-0.46,0.27-1.56,0.09-2.07c-0.17-0.51-0.34-0.92-0.69-1.33
				c-0.43-0.5-0.99-0.85-1.52-1.24c-0.49-0.36-0.98-0.67-1.43-1.07C21,40.53,20,39.46,20,39.46S19,40.53,18.77,40.73z"/>
		</g>
	</g>
</g>
</svg>
