<?xml version="1.0" encoding="utf-8"?>
<!-- Generator: Adobe Illustrator 26.3.1, SVG Export Plug-In . SVG Version: 6.00 Build 0)  -->
<svg version="1.1" id="Layer_1" xmlns="http://www.w3.org/2000/svg" xmlns:xlink="http://www.w3.org/1999/xlink" x="0px" y="0px"
	 viewBox="0 0 40 60" style="enable-background:new 0 0 40 60;" xml:space="preserve">
<style type="text/css">
	.st0{fill:#FFFFFF;}
	.st1{fill:#2D2D2D;}
	.st2{fill:#0C0A35;}
</style>
<g>
	<g>
		<path class="st0" d="M36.54,59.91H3.46c-1.86,0-3.37-1.49-3.37-3.32V3.41c0-1.83,1.51-3.32,3.37-3.32h33.08
			c1.86,0,3.37,1.49,3.37,3.32v53.17C39.91,58.42,38.4,59.91,36.54,59.91z"/>
		<path class="st1" d="M36.54,60H3.46C1.55,60,0,58.47,0,56.59V3.41C0,1.53,1.55,0,3.46,0h33.07C38.45,0,40,1.53,40,3.41v53.17
			C40,58.47,38.45,60,36.54,60z M3.46,0.18c-1.81,0-3.28,1.45-3.28,3.23v53.17c0,1.78,1.47,3.23,3.28,3.23h33.07
			c1.81,0,3.28-1.45,3.28-3.23V3.41c0-1.78-1.47-3.23-3.28-3.23H3.46z"/>
	</g>
	<g>
		<g>
			<g>
				<path class="st2" d="M5.3,11.34c0,0.1-0.04,0.24-0.04,0.33c0,0.1,0,0.2,0.01,0.29c0.04,0.33,0.16,0.65,0.41,0.88
					c-0.23,0.01-0.81,0.01-1.04,0c0.25-0.22,0.38-0.54,0.41-0.88c0.01-0.1,0.01-0.2,0.01-0.29c0-0.1-0.04-0.24-0.04-0.33H5.3z"/>
			</g>
		</g>
		<g>
			<g>
				<path class="st2" d="M5.23,11.58c0.1,0.01,0.15,0.11,0.33,0.29c0.16,0.17,0.32,0.35,0.67,0.39c0.18,0.02,0.43-0.08,0.54-0.22
					c0.09-0.12,0.15-0.27,0.19-0.42c0.07-0.28,0.05-0.56-0.09-0.81c-0.14-0.25-0.51-0.36-0.75-0.23c-0.12,0.07-0.16,0.16-0.28,0.18
					c-0.04,0.01-0.06-0.03-0.06-0.06c0.05-0.17,0.17-0.19,0.23-0.39c0.07-0.24,0.11-0.43-0.24-0.73c-0.27-0.23-0.92-0.21-1.2,0
					C4.29,9.8,4.26,9.99,4.33,10.23c0.05,0.19,0.16,0.28,0.22,0.44c0.02,0.05-0.04,0.11-0.09,0.09c-0.08-0.03-0.13-0.11-0.23-0.17
					c-0.23-0.14-0.61-0.02-0.75,0.23c-0.14,0.25-0.17,0.53-0.09,0.81c0.04,0.15,0.09,0.3,0.19,0.42c0.11,0.14,0.35,0.24,0.54,0.22
					c0.36-0.04,0.52-0.22,0.67-0.39c0.18-0.19,0.23-0.28,0.33-0.29H5.23z"/>
			</g>
		</g>
	</g>
	<g>
		<path class="st2" d="M4.19,5.55C3.48,5.24,3.12,4.8,3.12,4.22c0-0.42,0.18-0.77,0.53-1.04c0.35-0.27,0.82-0.41,1.41-0.41
			c0.58,0,1.03,0.13,1.38,0.39c0.34,0.26,0.51,0.6,0.51,1.02c0,0.59-0.36,1.01-1.09,1.26c0.59,0.27,0.96,0.53,1.1,0.78
			c0.15,0.25,0.23,0.5,0.23,0.75c0,0.44-0.19,0.82-0.57,1.12c-0.38,0.3-0.9,0.45-1.56,0.45c-0.7,0-1.24-0.15-1.63-0.46
			c-0.38-0.3-0.58-0.67-0.58-1.09C2.85,6.37,3.3,5.89,4.19,5.55z M4.96,5.84C4.01,6.07,3.54,6.46,3.54,7.02
			c0,0.29,0.13,0.53,0.39,0.72c0.26,0.19,0.64,0.28,1.15,0.28c0.43,0,0.77-0.09,1.03-0.27C6.37,7.56,6.5,7.33,6.5,7.05
			C6.5,6.51,5.98,6.11,4.96,5.84z M5.04,5.21c0.47-0.12,0.8-0.27,1-0.43c0.19-0.16,0.29-0.36,0.29-0.61c0-0.28-0.12-0.5-0.35-0.65
			C5.75,3.37,5.45,3.3,5.07,3.3c-0.36,0-0.66,0.08-0.89,0.23C3.95,3.69,3.83,3.9,3.83,4.16c0,0.26,0.13,0.48,0.38,0.67
			C4.47,5.02,4.75,5.15,5.04,5.21z"/>
	</g>
	<g>
		<g>
			<g>
				<g>
					<path class="st2" d="M34.68,48.66c0-0.1,0.04-0.24,0.04-0.33c0-0.1,0-0.2-0.01-0.29c-0.04-0.33-0.16-0.65-0.41-0.88
						c0.23-0.01,0.81-0.01,1.04,0c-0.25,0.22-0.38,0.54-0.41,0.88c-0.01,0.1-0.01,0.2-0.01,0.29c0,0.1,0.04,0.24,0.04,0.33H34.68z"
						/>
				</g>
			</g>
			<g>
				<g>
					<path class="st2" d="M34.75,48.42c-0.1-0.01-0.15-0.11-0.33-0.29c-0.16-0.17-0.32-0.35-0.67-0.39
						c-0.18-0.02-0.43,0.08-0.54,0.22c-0.09,0.12-0.15,0.27-0.19,0.42c-0.07,0.28-0.05,0.56,0.09,0.81
						c0.14,0.25,0.51,0.36,0.75,0.23c0.12-0.07,0.17-0.16,0.28-0.18c0.04-0.01,0.06,0.03,0.06,0.06c-0.04,0.17-0.17,0.19-0.23,0.39
						c-0.07,0.24-0.11,0.43,0.24,0.73c0.27,0.23,0.92,0.21,1.19,0c0.29-0.21,0.31-0.41,0.25-0.65c-0.05-0.19-0.16-0.28-0.22-0.44
						c-0.02-0.05,0.04-0.11,0.09-0.09c0.08,0.03,0.13,0.11,0.23,0.17c0.23,0.14,0.61,0.02,0.74-0.23c0.14-0.25,0.17-0.53,0.09-0.81
						c-0.04-0.15-0.09-0.3-0.19-0.42c-0.11-0.14-0.35-0.24-0.54-0.22c-0.36,0.04-0.52,0.22-0.67,0.39
						c-0.17,0.19-0.23,0.28-0.33,0.29H34.75z"/>
				</g>
			</g>
		</g>
		<g>
			<path class="st2" d="M35.65,54.45c0.71,0.31,1.07,0.75,1.07,1.33c0,0.42-0.18,0.77-0.53,1.04c-0.35,0.27-0.82,0.41-1.41,0.41
				c-0.58,0-1.03-0.13-1.37-0.39c-0.34-0.26-0.51-0.6-0.51-1.02c0-0.59,0.36-1.01,1.09-1.26c-0.59-0.27-0.96-0.53-1.11-0.78
				c-0.15-0.25-0.22-0.5-0.22-0.75c0-0.44,0.19-0.82,0.57-1.12c0.38-0.3,0.9-0.45,1.56-0.45c0.7,0,1.24,0.15,1.63,0.46
				c0.38,0.3,0.58,0.67,0.58,1.09C36.99,53.63,36.54,54.11,35.65,54.45z M34.87,54.16c0.95-0.22,1.42-0.61,1.42-1.17
				c0-0.29-0.13-0.53-0.39-0.72c-0.26-0.19-0.64-0.28-1.15-0.28c-0.43,0-0.77,0.09-1.03,0.27c-0.26,0.18-0.39,0.41-0.39,0.7
				C33.34,53.49,33.85,53.89,34.87,54.16z M34.8,54.79c-0.47,0.12-0.8,0.27-1,0.43c-0.2,0.16-0.29,0.36-0.29,0.61
				c0,0.28,0.12,0.5,0.35,0.65c0.23,0.15,0.54,0.22,0.92,0.22c0.36,0,0.66-0.08,0.89-0.23C35.89,56.31,36,56.1,36,55.84
				c0-0.26-0.13-0.48-0.38-0.67C35.36,54.98,35.09,54.85,34.8,54.79z"/>
		</g>
	</g>
	<g>
		<g>
			<g>
				<path class="st2" d="M19.89,19.46c0,0.25,0.1,0.6,0.1,0.85c0,0.25,0,0.5-0.03,0.75c-0.09,0.85-0.4,1.67-1.05,2.24
					c0.59,0.03,2.06,0.03,2.65,0c-0.65-0.57-0.96-1.38-1.05-2.24c-0.03-0.25-0.03-0.5-0.03-0.75c0-0.25,0.1-0.6,0.1-0.85H19.89z"/>
			</g>
		</g>
		<g>
			<g>
				<path class="st2" d="M20.07,20.08c-0.25,0.04-0.39,0.27-0.84,0.75c-0.41,0.43-0.81,0.9-1.73,1.01
					c-0.47,0.06-1.09-0.19-1.37-0.56c-0.24-0.31-0.37-0.7-0.47-1.08c-0.19-0.71-0.12-1.42,0.24-2.07c0.36-0.65,1.31-0.93,1.9-0.58
					c0.32,0.19,0.42,0.41,0.71,0.47c0.09,0.02,0.17-0.07,0.14-0.15c-0.12-0.44-0.43-0.49-0.58-1.01c-0.17-0.62-0.27-1.09,0.62-1.87
					c0.68-0.59,2.34-0.53,3.05,0c0.73,0.55,0.8,1.05,0.63,1.66c-0.14,0.49-0.42,0.71-0.55,1.12c-0.04,0.14,0.09,0.27,0.23,0.22
					c0.21-0.08,0.33-0.27,0.6-0.43c0.59-0.35,1.55-0.06,1.9,0.58c0.36,0.65,0.43,1.36,0.24,2.07c-0.1,0.38-0.23,0.76-0.47,1.08
					c-0.28,0.37-0.9,0.62-1.37,0.56c-0.92-0.11-1.32-0.57-1.73-1.01c-0.45-0.48-0.59-0.71-0.84-0.75H20.07z"/>
			</g>
		</g>
	</g>
	<g>
		<g>
			<g>
				<path class="st2" d="M19.89,40.79c0-0.25,0.1-0.6,0.1-0.85c0-0.25,0-0.5-0.03-0.75c-0.09-0.85-0.4-1.67-1.05-2.24
					c0.59-0.03,2.06-0.03,2.65,0c-0.65,0.57-0.96,1.39-1.05,2.24c-0.03,0.25-0.03,0.5-0.03,0.75c0,0.25,0.1,0.6,0.1,0.85H19.89z"/>
			</g>
		</g>
		<g>
			<g>
				<path class="st2" d="M20.07,40.17c-0.25-0.04-0.39-0.27-0.84-0.75c-0.41-0.43-0.81-0.9-1.73-1.01
					c-0.47-0.06-1.09,0.19-1.37,0.56c-0.24,0.31-0.37,0.7-0.47,1.08c-0.19,0.71-0.12,1.42,0.24,2.07c0.36,0.65,1.31,0.93,1.9,0.58
					c0.32-0.19,0.42-0.41,0.71-0.47c0.09-0.02,0.17,0.07,0.14,0.15c-0.12,0.44-0.43,0.49-0.58,1.01c-0.17,0.62-0.27,1.09,0.62,1.87
					c0.68,0.59,2.34,0.53,3.05,0c0.73-0.55,0.8-1.05,0.63-1.66c-0.14-0.48-0.42-0.71-0.55-1.12c-0.04-0.14,0.09-0.27,0.23-0.22
					c0.21,0.08,0.33,0.27,0.6,0.43c0.59,0.35,1.55,0.06,1.9-0.58c0.36-0.65,0.43-1.36,0.24-2.07c-0.1-0.38-0.23-0.76-0.47-1.08
					c-0.28-0.37-0.9-0.62-1.37-0.56c-0.92,0.11-1.32,0.57-1.73,1.01c-0.45,0.48-0.59,0.71-0.84,0.75H20.07z"/>
			</g>
		</g>
	</g>
	<g>
		<g>
			<g>
				<g>
					<path class="st2" d="M13.34,8.5c0,0.25,0.1,0.6,0.1,0.85c0,0.25,0,0.5-0.03,0.75c-0.09,0.85-0.41,1.67-1.05,2.24
						c0.59,0.03,2.06,0.03,2.65,0c-0.65-0.57-0.96-1.38-1.05-2.24c-0.03-0.25-0.03-0.5-0.03-0.75c0-0.25,0.1-0.6,0.1-0.85H13.34z"/>
				</g>
			</g>
			<g>
				<g>
					<path class="st2" d="M13.52,9.12c-0.25,0.04-0.39,0.27-0.84,0.75c-0.41,0.43-0.81,0.9-1.73,1.01
						c-0.47,0.06-1.09-0.19-1.37-0.56C9.35,10,9.21,9.62,9.11,9.24C8.92,8.53,8.99,7.82,9.35,7.17c0.35-0.65,1.31-0.93,1.9-0.58
						c0.32,0.19,0.42,0.41,0.71,0.47c0.09,0.02,0.17-0.07,0.14-0.15c-0.12-0.44-0.43-0.49-0.58-1.01c-0.17-0.62-0.27-1.09,0.62-1.87
						c0.68-0.59,2.34-0.53,3.06,0c0.73,0.55,0.8,1.05,0.63,1.66c-0.14,0.48-0.42,0.71-0.55,1.12c-0.04,0.14,0.09,0.27,0.23,0.22
						c0.21-0.08,0.33-0.27,0.6-0.43c0.59-0.35,1.55-0.06,1.9,0.58c0.36,0.65,0.43,1.36,0.24,2.07c-0.1,0.38-0.23,0.76-0.47,1.08
						c-0.28,0.37-0.9,0.62-1.37,0.56c-0.92-0.11-1.32-0.57-1.73-1.01c-0.45-0.48-0.59-0.71-0.84-0.75H13.52z"/>
				</g>
			</g>
		</g>
		<g>
			<g>
				<g>
					<path class="st2" d="M25.98,8.5c0,0.25,0.1,0.6,0.1,0.85c0,0.25,0,0.5-0.03,0.75c-0.1,0.85-0.4,1.67-1.05,2.24
						c0.59,0.03,2.06,0.03,2.65,0c-0.65-0.57-0.96-1.38-1.06-2.24c-0.03-0.25-0.03-0.5-0.03-0.75c0-0.25,0.1-0.6,0.1-0.85H25.98z"/>
				</g>
			</g>
			<g>
				<g>
					<path class="st2" d="M26.15,9.12c-0.25,0.04-0.39,0.27-0.84,0.75c-0.41,0.43-0.81,0.9-1.73,1.01
						c-0.47,0.06-1.09-0.19-1.37-0.56c-0.24-0.31-0.37-0.7-0.47-1.08c-0.19-0.71-0.12-1.42,0.24-2.07c0.36-0.65,1.31-0.93,1.9-0.58
						C24.2,6.78,24.31,7,24.6,7.06c0.09,0.02,0.17-0.07,0.14-0.15c-0.12-0.44-0.43-0.49-0.58-1.01c-0.17-0.62-0.27-1.09,0.62-1.87
						c0.68-0.59,2.34-0.53,3.05,0c0.73,0.55,0.8,1.05,0.63,1.66c-0.14,0.48-0.42,0.71-0.55,1.12c-0.04,0.14,0.09,0.27,0.23,0.22
						c0.21-0.08,0.33-0.27,0.6-0.43c0.59-0.35,1.55-0.06,1.9,0.58c0.36,0.65,0.43,1.36,0.24,2.07c-0.1,0.38-0.24,0.76-0.47,1.08
						c-0.28,0.37-0.9,0.62-1.37,0.56c-0.92-0.11-1.32-0.57-1.73-1.01c-0.45-0.48-0.59-0.71-0.84-0.75H26.15z"/>
				</g>
			</g>
		</g>
	</g>
	<g>
		<g>
			<g>
				<g>
					<path class="st2" d="M13.34,30.52c0,0.25,0.1,0.6,0.1,0.85c0,0.25,0,0.5-0.03,0.75c-0.09,0.85-0.41,1.67-1.05,2.24
						c0.59,0.03,2.06,0.03,2.65,0c-0.65-0.57-0.96-1.39-1.05-2.24c-0.03-0.25-0.03-0.5-0.03-0.75c0-0.25,0.1-0.6,0.1-0.85H13.34z"/>
				</g>
			</g>
			<g>
				<g>
					<path class="st2" d="M13.52,31.13c-0.25,0.04-0.39,0.27-0.84,0.75c-0.41,0.43-0.81,0.9-1.73,1.01
						c-0.47,0.06-1.09-0.19-1.37-0.56c-0.24-0.31-0.37-0.7-0.47-1.08c-0.19-0.71-0.12-1.42,0.24-2.07c0.35-0.65,1.31-0.93,1.9-0.58
						c0.32,0.19,0.42,0.41,0.71,0.47c0.09,0.02,0.17-0.07,0.14-0.15c-0.12-0.44-0.43-0.49-0.58-1.01c-0.17-0.62-0.27-1.09,0.62-1.87
						c0.68-0.59,2.34-0.53,3.06,0c0.73,0.55,0.8,1.05,0.63,1.66c-0.14,0.49-0.42,0.71-0.55,1.12c-0.04,0.14,0.09,0.27,0.23,0.22
						c0.21-0.08,0.33-0.27,0.6-0.43c0.59-0.35,1.55-0.06,1.9,0.58c0.36,0.65,0.43,1.36,0.24,2.07c-0.1,0.38-0.23,0.76-0.47,1.08
						c-0.28,0.37-0.9,0.62-1.37,0.56c-0.92-0.11-1.32-0.57-1.73-1.01c-0.45-0.48-0.59-0.71-0.84-0.75H13.52z"/>
				</g>
			</g>
		</g>
		<g>
			<g>
				<g>
					<path class="st2" d="M25.98,30.52c0,0.25,0.1,0.6,0.1,0.85c0,0.25,0,0.5-0.03,0.75c-0.1,0.85-0.4,1.67-1.05,2.24
						c0.59,0.03,2.06,0.03,2.65,0c-0.65-0.57-0.96-1.39-1.06-2.24c-0.03-0.25-0.03-0.5-0.03-0.75c0-0.25,0.1-0.6,0.1-0.85H25.98z"/>
				</g>
			</g>
			<g>
				<g>
					<path class="st2" d="M26.15,31.13c-0.25,0.04-0.39,0.27-0.84,0.75c-0.41,0.43-0.81,0.9-1.73,1.01
						c-0.47,0.06-1.09-0.19-1.37-0.56c-0.24-0.31-0.37-0.7-0.47-1.08c-0.19-0.71-0.12-1.42,0.24-2.07c0.36-0.65,1.31-0.93,1.9-0.58
						c0.32,0.19,0.42,0.41,0.71,0.47c0.09,0.02,0.17-0.07,0.14-0.15c-0.12-0.44-0.43-0.49-0.58-1.01c-0.17-0.62-0.27-1.09,0.62-1.87
						c0.68-0.59,2.34-0.53,3.05,0c0.73,0.55,0.8,1.05,0.63,1.66c-0.14,0.49-0.42,0.71-0.55,1.12c-0.04,0.14,0.09,0.27,0.23,0.22
						c0.21-0.08,0.33-0.27,0.6-0.43c0.59-0.35,1.55-0.06,1.9,0.58c0.36,0.65,0.43,1.36,0.24,2.07c-0.1,0.38-0.24,0.76-0.47,1.08
						c-0.28,0.37-0.9,0.62-1.37,0.56c-0.92-0.11-1.32-0.57-1.73-1.01c-0.45-0.48-0.59-0.71-0.84-0.75H26.15z"/>
				</g>
			</g>
		</g>
	</g>
	<g>
		<g>
			<g>
				<g>
					<path class="st2" d="M26.66,51.5c0-0.25-0.1-0.6-0.1-0.85c0-0.25,0-0.5,0.03-0.75c0.1-0.85,0.41-1.67,1.06-2.24
						c-0.59-0.03-2.06-0.03-2.65,0c0.65,0.57,0.96,1.39,1.05,2.24c0.03,0.25,0.03,0.5,0.03,0.75c0,0.25-0.1,0.6-0.1,0.85H26.66z"/>
				</g>
			</g>
			<g>
				<g>
					<path class="st2" d="M26.48,50.88c0.25-0.04,0.39-0.27,0.84-0.75c0.41-0.43,0.81-0.9,1.73-1.01c0.47-0.06,1.09,0.19,1.37,0.56
						c0.24,0.31,0.37,0.7,0.47,1.08c0.19,0.71,0.12,1.42-0.24,2.07c-0.36,0.65-1.31,0.93-1.9,0.58c-0.32-0.19-0.42-0.41-0.71-0.47
						c-0.09-0.02-0.16,0.07-0.14,0.15c0.12,0.44,0.43,0.49,0.58,1.01c0.17,0.62,0.27,1.09-0.62,1.87c-0.68,0.59-2.34,0.54-3.06,0
						c-0.73-0.55-0.8-1.05-0.63-1.66c0.14-0.49,0.42-0.71,0.55-1.12c0.04-0.14-0.09-0.27-0.23-0.22c-0.21,0.08-0.33,0.27-0.6,0.43
						c-0.59,0.35-1.55,0.06-1.9-0.58c-0.36-0.65-0.43-1.36-0.24-2.07c0.1-0.38,0.23-0.76,0.47-1.08c0.28-0.37,0.9-0.62,1.37-0.56
						c0.92,0.11,1.32,0.57,1.73,1.01c0.45,0.48,0.59,0.71,0.84,0.75H26.48z"/>
				</g>
			</g>
		</g>
		<g>
			<g>
				<g>
					<path class="st2" d="M14.02,51.5c0-0.25-0.1-0.6-0.1-0.85c0-0.25,0-0.5,0.03-0.75c0.1-0.85,0.41-1.67,1.05-2.24
						c-0.59-0.03-2.06-0.03-2.65,0c0.65,0.57,0.96,1.39,1.05,2.24c0.03,0.25,0.03,0.5,0.03,0.75c0,0.25-0.1,0.6-0.1,0.85H14.02z"/>
				</g>
			</g>
			<g>
				<g>
					<path class="st2" d="M13.85,50.88c0.25-0.04,0.39-0.27,0.84-0.75c0.41-0.43,0.81-0.9,1.73-1.01c0.47-0.06,1.09,0.19,1.37,0.56
						c0.24,0.31,0.37,0.7,0.47,1.08c0.19,0.71,0.12,1.42-0.24,2.07c-0.36,0.65-1.31,0.93-1.9,0.58c-0.32-0.19-0.42-0.41-0.71-0.47
						c-0.09-0.02-0.17,0.07-0.14,0.15c0.12,0.44,0.43,0.49,0.58,1.01c0.17,0.62,0.27,1.09-0.62,1.87c-0.68,0.59-2.34,0.54-3.05,0
						c-0.73-0.55-0.8-1.05-0.63-1.66c0.14-0.49,0.42-0.71,0.55-1.12c0.04-0.14-0.09-0.27-0.23-0.22c-0.21,0.08-0.33,0.27-0.6,0.43
						c-0.59,0.35-1.55,0.06-1.9-0.58c-0.36-0.65-0.43-1.36-0.24-2.07c0.1-0.38,0.23-0.76,0.47-1.08c0.28-0.37,0.9-0.62,1.37-0.56
						c0.92,0.11,1.32,0.57,1.73,1.01c0.45,0.48,0.59,0.71,0.84,0.75H13.85z"/>
				</g>
			</g>
		</g>
	</g>
</g>
</svg>
