<?xml version="1.0" encoding="utf-8"?>
<!-- Generator: Adobe Illustrator 26.3.1, SVG Export Plug-In . SVG Version: 6.00 Build 0)  -->
<svg version="1.0" id="Layer_1" xmlns="http://www.w3.org/2000/svg" xmlns:xlink="http://www.w3.org/1999/xlink" x="0px" y="0px"
	 viewBox="0 0 40 60" enable-background="new 0 0 40 60" xml:space="preserve">
<g>
	<g>
		<path fill="#FFFFFF" d="M36.12,59.91H3.88c-1.81,0-3.29-1.49-3.29-3.32V3.41c0-1.84,1.47-3.32,3.29-3.32h32.25
			c1.82,0,3.29,1.49,3.29,3.32v53.17C39.41,58.42,37.94,59.91,36.12,59.91z"/>
		<path fill="#2D2D2D" d="M36.12,60H3.88c-1.86,0-3.38-1.53-3.38-3.41V3.41C0.5,1.53,2.01,0,3.88,0h32.25
			c1.86,0,3.38,1.53,3.38,3.41v53.17C39.5,58.47,37.99,60,36.12,60z M3.88,0.18c-1.76,0-3.2,1.45-3.2,3.23v53.17
			c0,1.78,1.43,3.23,3.2,3.23h32.25c1.76,0,3.2-1.45,3.2-3.23V3.41c0-1.78-1.43-3.23-3.2-3.23H3.88z"/>
	</g>
	<g>
		<g>
			<path fill="#D6002B" d="M5.54,12.24c0.05,0,0.09-0.01,0.13-0.04c0.29-0.19,1.02-0.98,1.24-1.2c0.04-0.04,0.08-0.09,0.08-0.15
				c0-0.05-0.04-0.08-0.07-0.12c-0.32-0.32-0.66-0.63-0.96-0.97C5.81,9.62,5.66,9.45,5.56,9.45H5.51c-0.1,0.01-0.25,0.18-0.38,0.32
				c-0.3,0.34-0.64,0.65-0.96,0.97c-0.03,0.03-0.07,0.07-0.07,0.12c-0.01,0.06,0.03,0.11,0.08,0.15c0.21,0.22,0.95,1,1.24,1.2
				C5.45,12.23,5.49,12.24,5.54,12.24L5.54,12.24z"/>
		</g>
	</g>
	<g>
		<g>
			<path fill="#D6002B" d="M34.48,50.32c0.04,0,0.09-0.01,0.13-0.04c0.29-0.19,1.02-0.98,1.24-1.2c0.04-0.04,0.08-0.09,0.08-0.15
				c0-0.05-0.04-0.08-0.07-0.12c-0.32-0.32-0.66-0.63-0.96-0.97c-0.13-0.15-0.28-0.31-0.38-0.32h-0.05
				c-0.1,0.01-0.25,0.17-0.38,0.32c-0.3,0.34-0.64,0.65-0.96,0.97c-0.03,0.03-0.07,0.07-0.07,0.12c-0.01,0.06,0.03,0.11,0.08,0.15
				c0.21,0.22,0.95,1.01,1.24,1.2C34.39,50.31,34.43,50.32,34.48,50.32L34.48,50.32z"/>
		</g>
	</g>
	<g>
		<path fill="#D6002B" d="M4.58,5.55C3.89,5.24,3.54,4.8,3.54,4.22c0-0.42,0.17-0.77,0.52-1.04c0.35-0.27,0.8-0.41,1.37-0.41
			C6,2.77,6.44,2.9,6.77,3.16c0.33,0.26,0.5,0.6,0.5,1.02c0,0.59-0.35,1.01-1.06,1.26c0.57,0.27,0.93,0.53,1.08,0.78
			C7.43,6.47,7.5,6.72,7.5,6.97c0,0.44-0.19,0.81-0.56,1.11c-0.37,0.3-0.88,0.45-1.52,0.45c-0.68,0-1.21-0.15-1.58-0.46
			c-0.38-0.3-0.56-0.67-0.56-1.09C3.28,6.37,3.71,5.88,4.58,5.55z M5.34,5.84C4.41,6.07,3.95,6.46,3.95,7.02
			c0,0.29,0.13,0.53,0.38,0.72c0.25,0.19,0.63,0.28,1.12,0.28c0.42,0,0.75-0.09,1.01-0.27c0.25-0.18,0.38-0.41,0.38-0.7
			C6.83,6.51,6.33,6.11,5.34,5.84z M5.41,5.21C5.87,5.08,6.2,4.94,6.39,4.77c0.19-0.16,0.28-0.36,0.28-0.61
			c0-0.28-0.11-0.5-0.34-0.65C6.11,3.37,5.81,3.3,5.44,3.3c-0.35,0-0.64,0.08-0.87,0.23C4.35,3.69,4.24,3.9,4.24,4.16
			c0,0.26,0.12,0.48,0.37,0.67C4.86,5.02,5.13,5.15,5.41,5.21z"/>
	</g>
	<g>
		<path fill="#D6002B" d="M35.26,54.45c0.69,0.3,1.04,0.75,1.04,1.33c0,0.42-0.17,0.77-0.52,1.04c-0.34,0.27-0.8,0.41-1.37,0.41
			c-0.56,0-1.01-0.13-1.34-0.39c-0.33-0.26-0.5-0.6-0.5-1.02c0-0.59,0.36-1.01,1.06-1.26c-0.57-0.27-0.93-0.53-1.08-0.78
			c-0.15-0.25-0.22-0.5-0.22-0.75c0-0.45,0.19-0.82,0.56-1.12c0.37-0.3,0.88-0.45,1.52-0.45c0.68,0,1.21,0.15,1.58,0.46
			c0.37,0.3,0.56,0.67,0.56,1.09C36.56,53.63,36.13,54.11,35.26,54.45z M34.5,54.16c0.93-0.22,1.39-0.62,1.39-1.18
			c0-0.29-0.13-0.53-0.38-0.72c-0.25-0.18-0.63-0.28-1.12-0.28c-0.42,0-0.75,0.09-1.01,0.27c-0.25,0.18-0.38,0.41-0.38,0.69
			C33.01,53.49,33.5,53.89,34.5,54.16z M34.43,54.79c-0.46,0.12-0.78,0.27-0.97,0.43c-0.19,0.16-0.29,0.36-0.29,0.61
			c0,0.28,0.11,0.5,0.34,0.65c0.23,0.15,0.52,0.22,0.89,0.22c0.35,0,0.64-0.08,0.87-0.23c0.23-0.16,0.34-0.36,0.34-0.63
			c0-0.26-0.13-0.49-0.37-0.67C34.98,54.98,34.71,54.85,34.43,54.79z"/>
	</g>
	<g>
		<g>
			<g>
				<path fill="#D6002B" d="M13.94,12.72c0.15,0,0.29-0.04,0.42-0.13c0.94-0.63,3.36-3.22,4.07-3.94c0.13-0.14,0.27-0.31,0.25-0.5
					c-0.02-0.15-0.13-0.28-0.24-0.39c-1.05-1.06-2.17-2.07-3.16-3.19c-0.43-0.48-0.94-1.04-1.25-1.06h-0.16
					c-0.32,0.02-0.83,0.58-1.25,1.06c-0.99,1.12-2.11,2.13-3.16,3.19C9.33,7.88,9.22,8.01,9.2,8.16c-0.02,0.19,0.12,0.36,0.25,0.5
					c0.7,0.72,3.13,3.31,4.07,3.94C13.64,12.68,13.79,12.72,13.94,12.72L13.94,12.72z"/>
			</g>
		</g>
		<g>
			<g>
				<path fill="#D6002B" d="M26.07,12.72c0.15,0,0.29-0.04,0.42-0.13c0.94-0.63,3.36-3.22,4.07-3.94c0.13-0.14,0.27-0.31,0.25-0.5
					c-0.02-0.15-0.13-0.28-0.24-0.39c-1.06-1.06-2.17-2.07-3.16-3.19c-0.43-0.48-0.94-1.04-1.25-1.06h-0.16
					c-0.32,0.02-0.82,0.58-1.25,1.06c-0.99,1.12-2.11,2.13-3.16,3.19c-0.11,0.11-0.22,0.23-0.24,0.39c-0.02,0.19,0.12,0.36,0.25,0.5
					c0.7,0.72,3.13,3.31,4.07,3.94C25.77,12.68,25.91,12.72,26.07,12.72L26.07,12.72z"/>
			</g>
		</g>
	</g>
	<g>
		<g>
			<g>
				<path fill="#D6002B" d="M13.94,34.6c0.15,0,0.29-0.04,0.42-0.12c0.94-0.63,3.36-3.22,4.07-3.94c0.13-0.14,0.27-0.3,0.25-0.5
					c-0.02-0.15-0.13-0.27-0.24-0.39c-1.05-1.06-2.17-2.07-3.16-3.19c-0.43-0.49-0.94-1.04-1.25-1.06h-0.16
					c-0.32,0.02-0.83,0.58-1.25,1.06c-0.99,1.12-2.11,2.13-3.16,3.19c-0.11,0.11-0.22,0.23-0.24,0.39c-0.02,0.19,0.12,0.36,0.25,0.5
					c0.7,0.72,3.13,3.31,4.07,3.94C13.64,34.56,13.79,34.6,13.94,34.6L13.94,34.6z"/>
			</g>
		</g>
		<g>
			<g>
				<path fill="#D6002B" d="M26.07,34.6c0.15,0,0.29-0.04,0.42-0.12c0.94-0.63,3.36-3.22,4.07-3.94c0.13-0.14,0.27-0.3,0.25-0.5
					c-0.02-0.15-0.13-0.27-0.24-0.39c-1.06-1.06-2.17-2.07-3.16-3.19c-0.43-0.49-0.94-1.04-1.25-1.06h-0.16
					c-0.32,0.02-0.82,0.58-1.25,1.06c-0.99,1.12-2.11,2.13-3.16,3.19c-0.11,0.11-0.22,0.23-0.24,0.39c-0.02,0.19,0.12,0.36,0.25,0.5
					c0.7,0.72,3.13,3.31,4.07,3.94C25.77,34.56,25.91,34.6,26.07,34.6L26.07,34.6z"/>
			</g>
		</g>
	</g>
	<g>
		<g>
			<g>
				<path fill="#D6002B" d="M26.06,47.28c-0.15,0-0.29,0.04-0.42,0.12c-0.94,0.63-3.37,3.22-4.07,3.94c-0.13,0.14-0.27,0.3-0.25,0.5
					c0.02,0.15,0.13,0.27,0.24,0.38c1.05,1.06,2.17,2.07,3.16,3.19c0.43,0.49,0.94,1.04,1.25,1.06h0.16
					c0.32-0.02,0.82-0.58,1.25-1.06c0.99-1.12,2.11-2.13,3.16-3.19c0.11-0.11,0.22-0.23,0.24-0.38c0.02-0.19-0.11-0.36-0.25-0.5
					c-0.7-0.72-3.13-3.31-4.07-3.94C26.36,47.32,26.21,47.28,26.06,47.28L26.06,47.28z"/>
			</g>
		</g>
		<g>
			<g>
				<path fill="#D6002B" d="M13.94,47.28c-0.15,0-0.29,0.04-0.42,0.12c-0.94,0.63-3.37,3.22-4.07,3.94c-0.13,0.14-0.27,0.3-0.25,0.5
					c0.02,0.15,0.13,0.27,0.24,0.38c1.06,1.06,2.17,2.07,3.16,3.19c0.43,0.49,0.94,1.04,1.25,1.06h0.16
					c0.32-0.02,0.83-0.58,1.25-1.06c0.99-1.12,2.11-2.13,3.16-3.19c0.11-0.11,0.22-0.23,0.24-0.38c0.02-0.19-0.11-0.36-0.25-0.5
					c-0.7-0.72-3.13-3.31-4.07-3.94C14.23,47.32,14.09,47.28,13.94,47.28L13.94,47.28z"/>
			</g>
		</g>
	</g>
	<g>
		<g>
			<path fill="#D6002B" d="M20,23.42c0.15,0,0.29-0.04,0.42-0.13c0.94-0.63,3.37-3.22,4.07-3.94c0.13-0.14,0.27-0.31,0.25-0.5
				c-0.02-0.15-0.13-0.28-0.24-0.39c-1.05-1.06-2.17-2.07-3.16-3.19c-0.43-0.48-0.94-1.04-1.25-1.06h-0.16
				c-0.32,0.02-0.82,0.58-1.25,1.06c-0.99,1.12-2.11,2.13-3.16,3.19c-0.11,0.11-0.22,0.23-0.24,0.39c-0.02,0.19,0.11,0.36,0.25,0.5
				c0.7,0.72,3.13,3.31,4.07,3.94C19.7,23.38,19.85,23.42,20,23.42L20,23.42z"/>
		</g>
	</g>
	<g>
		<g>
			<path fill="#D6002B" d="M20,45.42c0.15,0,0.29-0.04,0.42-0.12c0.94-0.63,3.37-3.22,4.07-3.94c0.13-0.14,0.27-0.31,0.25-0.5
				c-0.02-0.15-0.13-0.27-0.24-0.38c-1.05-1.06-2.17-2.07-3.16-3.19c-0.43-0.49-0.94-1.04-1.25-1.06h-0.16
				c-0.32,0.02-0.82,0.58-1.25,1.06c-0.99,1.12-2.11,2.13-3.16,3.19c-0.11,0.11-0.22,0.23-0.24,0.38c-0.02,0.19,0.11,0.36,0.25,0.5
				c0.7,0.72,3.13,3.31,4.07,3.94C19.7,45.38,19.85,45.42,20,45.42L20,45.42z"/>
		</g>
	</g>
</g>
</svg>
