<?xml version="1.0" encoding="utf-8"?>
<!-- Generator: Adobe Illustrator 26.3.1, SVG Export Plug-In . SVG Version: 6.00 Build 0)  -->
<svg version="1.0" id="Layer_1" xmlns="http://www.w3.org/2000/svg" xmlns:xlink="http://www.w3.org/1999/xlink" x="0px" y="0px"
	 viewBox="0 0 40 60" enable-background="new 0 0 40 60" xml:space="preserve">
<g>
	<g>
		<path fill="#FFFFFF" d="M36.12,59.41H3.88c-1.81,0-3.29-1.46-3.29-3.27V3.86c0-1.8,1.47-3.27,3.29-3.27h32.25
			c1.82,0,3.29,1.46,3.29,3.27v52.29C39.41,57.95,37.94,59.41,36.12,59.41z"/>
		<path fill="#2D2D2D" d="M36.12,59.5H3.88c-1.86,0-3.38-1.51-3.38-3.36V3.86c0-1.85,1.51-3.36,3.38-3.36h32.25
			c1.86,0,3.38,1.51,3.38,3.36v52.29C39.5,57.99,37.99,59.5,36.12,59.5z M3.88,0.68c-1.76,0-3.2,1.42-3.2,3.18v52.29
			c0,1.75,1.43,3.18,3.2,3.18h32.25c1.76,0,3.2-1.43,3.2-3.18V3.86c0-1.75-1.43-3.18-3.2-3.18H3.88z"/>
	</g>
	<g>
		<g>
			<g>
				<path fill="#0C0A35" d="M34.27,48.48c0-0.1,0.04-0.24,0.04-0.33c0-0.1,0-0.2-0.01-0.3c-0.04-0.33-0.16-0.65-0.41-0.88
					c0.23-0.01,0.8-0.01,1.03,0c-0.25,0.23-0.37,0.54-0.41,0.88c-0.01,0.1-0.01,0.2-0.01,0.3c0,0.1,0.04,0.24,0.04,0.33H34.27z"/>
			</g>
		</g>
		<g>
			<path fill="#0C0A35" d="M34.35,48.11c-0.2-0.31-0.56-0.53-0.93-0.51c-0.37,0.01-0.73,0.28-0.8,0.64
				c-0.06,0.32,0.09,0.65,0.31,0.88c0.22,0.24,0.53,0.39,0.8,0.57c0.28,0.18,0.67,0.63,0.67,0.63s0.43-0.44,0.67-0.62
				c0.26-0.2,0.58-0.35,0.8-0.58c0.22-0.24,0.38-0.57,0.31-0.88c-0.07-0.36-0.43-0.63-0.8-0.64c-0.37-0.01-0.73,0.2-0.93,0.51H34.35
				z"/>
		</g>
	</g>
	<g>
		<g>
			<g>
				<path fill="#0C0A35" d="M5.61,11.26c0,0.1-0.04,0.24-0.04,0.33c0,0.1,0,0.2,0.01,0.3c0.04,0.34,0.16,0.65,0.41,0.88
					c-0.23,0.01-0.8,0.01-1.03,0c0.25-0.23,0.37-0.54,0.41-0.88c0.01-0.1,0.01-0.2,0.01-0.3c0-0.1-0.04-0.23-0.04-0.33H5.61z"/>
			</g>
		</g>
		<g>
			<path fill="#0C0A35" d="M5.52,11.63c0.2,0.31,0.56,0.53,0.93,0.51c0.37-0.01,0.73-0.28,0.8-0.64c0.06-0.32-0.09-0.65-0.31-0.88
				c-0.22-0.24-0.53-0.39-0.8-0.57C5.86,9.86,5.47,9.41,5.47,9.41s-0.43,0.44-0.67,0.63c-0.26,0.2-0.58,0.35-0.8,0.58
				c-0.22,0.24-0.38,0.57-0.31,0.88c0.07,0.36,0.43,0.63,0.8,0.64c0.37,0.01,0.73-0.2,0.93-0.51H5.52z"/>
		</g>
	</g>
	<g>
		<path fill="#0C0A35" d="M4.58,5.96c-0.69-0.3-1.04-0.73-1.04-1.31c0-0.41,0.17-0.76,0.52-1.02c0.35-0.27,0.8-0.4,1.37-0.4
			c0.56,0,1.01,0.13,1.34,0.38c0.33,0.26,0.5,0.59,0.5,1.01c0,0.58-0.35,0.99-1.06,1.24c0.57,0.26,0.93,0.52,1.08,0.76
			C7.43,6.87,7.5,7.11,7.5,7.36c0,0.44-0.19,0.8-0.56,1.1C6.57,8.75,6.06,8.89,5.42,8.89c-0.68,0-1.21-0.15-1.58-0.45
			c-0.38-0.3-0.56-0.65-0.56-1.07C3.28,6.76,3.71,6.29,4.58,5.96z M5.34,6.25C4.41,6.46,3.95,6.85,3.95,7.4
			c0,0.29,0.13,0.52,0.38,0.7c0.25,0.18,0.63,0.27,1.12,0.27c0.42,0,0.75-0.09,1.01-0.27c0.25-0.18,0.38-0.41,0.38-0.68
			C6.83,6.9,6.33,6.5,5.34,6.25z M5.41,5.62C5.87,5.5,6.2,5.36,6.39,5.2c0.19-0.16,0.28-0.36,0.28-0.6c0-0.28-0.11-0.49-0.34-0.64
			C6.11,3.82,5.81,3.75,5.44,3.75c-0.35,0-0.64,0.08-0.87,0.23C4.35,4.13,4.24,4.33,4.24,4.59c0,0.26,0.12,0.48,0.37,0.66
			C4.86,5.44,5.13,5.56,5.41,5.62z"/>
	</g>
	<g>
		<path fill="#0C0A35" d="M35.26,54.04c0.69,0.3,1.04,0.74,1.04,1.31c0,0.41-0.17,0.75-0.52,1.02c-0.34,0.27-0.8,0.4-1.37,0.4
			c-0.56,0-1.01-0.13-1.34-0.38c-0.33-0.26-0.5-0.59-0.5-1.01c0-0.58,0.36-0.99,1.06-1.24c-0.57-0.26-0.93-0.52-1.08-0.76
			c-0.15-0.25-0.22-0.49-0.22-0.74c0-0.44,0.19-0.8,0.56-1.1c0.37-0.29,0.88-0.44,1.52-0.44c0.68,0,1.21,0.15,1.58,0.45
			c0.37,0.3,0.56,0.66,0.56,1.07C36.56,53.24,36.13,53.71,35.26,54.04z M34.5,53.75c0.93-0.22,1.39-0.6,1.39-1.16
			c0-0.29-0.13-0.52-0.38-0.7c-0.25-0.18-0.63-0.27-1.12-0.27c-0.42,0-0.75,0.09-1.01,0.27c-0.25,0.18-0.38,0.41-0.38,0.68
			C33.01,53.1,33.5,53.49,34.5,53.75z M34.43,54.38c-0.46,0.12-0.78,0.26-0.97,0.42c-0.19,0.16-0.29,0.36-0.29,0.6
			c0,0.28,0.11,0.49,0.34,0.64c0.23,0.15,0.52,0.22,0.89,0.22c0.35,0,0.64-0.08,0.87-0.23c0.23-0.15,0.34-0.36,0.34-0.62
			c0-0.26-0.13-0.48-0.37-0.66C34.98,54.56,34.71,54.44,34.43,54.38z"/>
	</g>
	<g>
		<g>
			<g>
				<g>
					<path fill="#0C0A35" d="M14.41,8.26c0,0.24-0.1,0.59-0.1,0.84c0,0.25,0,0.5,0.03,0.74c0.09,0.84,0.4,1.64,1.03,2.2
						c-0.57,0.03-2.01,0.03-2.58,0c0.63-0.56,0.94-1.36,1.03-2.2c0.03-0.25,0.03-0.49,0.03-0.74c0-0.24-0.1-0.59-0.1-0.84H14.41z"/>
				</g>
			</g>
			<g>
				<path fill="#0C0A35" d="M14.2,9.18c0.51,0.77,1.4,1.32,2.33,1.29c0.93-0.03,1.83-0.7,2.01-1.61c0.16-0.8-0.23-1.62-0.79-2.21
					c-0.56-0.6-1.32-0.99-2-1.44c-0.7-0.46-1.68-1.59-1.68-1.59s-1.07,1.11-1.67,1.57c-0.65,0.49-1.45,0.87-2.01,1.46
					C9.84,7.24,9.45,8.06,9.61,8.86c0.18,0.91,1.08,1.58,2.01,1.61c0.93,0.03,1.83-0.51,2.33-1.29H14.2z"/>
			</g>
		</g>
		<g>
			<g>
				<g>
					<path fill="#0C0A35" d="M26.26,8.26c0,0.24-0.1,0.59-0.1,0.84c0,0.25,0,0.5,0.03,0.74c0.09,0.84,0.4,1.64,1.03,2.2
						c-0.57,0.03-2.01,0.03-2.58,0c0.63-0.56,0.94-1.36,1.03-2.2c0.03-0.25,0.03-0.49,0.03-0.74c0-0.24-0.1-0.59-0.1-0.84H26.26z"/>
				</g>
			</g>
			<g>
				<path fill="#0C0A35" d="M26.04,9.18c0.51,0.77,1.4,1.32,2.33,1.29c0.93-0.03,1.83-0.7,2.01-1.61c0.16-0.8-0.23-1.62-0.79-2.21
					c-0.56-0.6-1.32-0.99-2-1.44c-0.7-0.46-1.67-1.59-1.67-1.59s-1.07,1.11-1.67,1.57c-0.65,0.49-1.45,0.87-2.01,1.46
					c-0.56,0.59-0.95,1.42-0.79,2.21c0.18,0.91,1.08,1.58,2.01,1.61c0.93,0.03,1.83-0.51,2.33-1.29H26.04z"/>
			</g>
		</g>
	</g>
	<g>
		<g>
			<g>
				<g>
					<path fill="#0C0A35" d="M14.41,30.42c0,0.24-0.1,0.59-0.1,0.84c0,0.25,0,0.5,0.03,0.74c0.09,0.84,0.4,1.64,1.03,2.2
						c-0.57,0.03-2.01,0.03-2.58,0c0.63-0.56,0.94-1.36,1.03-2.2c0.03-0.25,0.03-0.49,0.03-0.74c0-0.24-0.1-0.59-0.1-0.84H14.41z"/>
				</g>
			</g>
			<g>
				<path fill="#0C0A35" d="M14.2,31.34c0.51,0.78,1.4,1.32,2.33,1.29c0.93-0.03,1.83-0.7,2.01-1.61c0.16-0.8-0.23-1.62-0.79-2.21
					c-0.56-0.6-1.32-0.99-2-1.44c-0.7-0.46-1.68-1.59-1.68-1.59s-1.07,1.11-1.67,1.57c-0.65,0.49-1.45,0.87-2.01,1.46
					c-0.56,0.59-0.95,1.42-0.79,2.21c0.18,0.91,1.08,1.58,2.01,1.61c0.93,0.03,1.83-0.51,2.33-1.29H14.2z"/>
			</g>
		</g>
		<g>
			<g>
				<g>
					<path fill="#0C0A35" d="M26.26,30.42c0,0.24-0.1,0.59-0.1,0.84c0,0.25,0,0.5,0.03,0.74c0.09,0.84,0.4,1.64,1.03,2.2
						c-0.57,0.03-2.01,0.03-2.58,0c0.63-0.56,0.94-1.36,1.03-2.2c0.03-0.25,0.03-0.49,0.03-0.74c0-0.24-0.1-0.59-0.1-0.84H26.26z"/>
				</g>
			</g>
			<g>
				<path fill="#0C0A35" d="M26.04,31.34c0.51,0.78,1.4,1.32,2.33,1.29c0.93-0.03,1.83-0.7,2.01-1.61c0.16-0.8-0.23-1.62-0.79-2.21
					c-0.56-0.6-1.32-0.99-2-1.44c-0.7-0.46-1.67-1.59-1.67-1.59s-1.07,1.11-1.67,1.57c-0.65,0.49-1.45,0.87-2.01,1.46
					c-0.56,0.59-0.95,1.42-0.79,2.21c0.18,0.91,1.08,1.58,2.01,1.61c0.93,0.03,1.83-0.51,2.33-1.29H26.04z"/>
			</g>
		</g>
	</g>
	<g>
		<g>
			<g>
				<g>
					<path fill="#0C0A35" d="M25.59,51.74c0-0.24,0.1-0.59,0.1-0.84c0-0.25,0-0.49-0.03-0.74c-0.09-0.84-0.4-1.64-1.03-2.2
						c0.57-0.03,2.01-0.03,2.58,0c-0.63,0.56-0.94,1.36-1.03,2.2c-0.03,0.25-0.03,0.49-0.03,0.74c0,0.24,0.1,0.59,0.1,0.84H25.59z"
						/>
				</g>
			</g>
			<g>
				<path fill="#0C0A35" d="M25.8,50.82c-0.51-0.78-1.4-1.32-2.33-1.29c-0.93,0.03-1.83,0.7-2.01,1.61
					c-0.16,0.8,0.23,1.62,0.79,2.21c0.56,0.59,1.32,0.99,2,1.44c0.7,0.46,1.67,1.59,1.67,1.59s1.07-1.11,1.67-1.57
					c0.65-0.49,1.45-0.87,2.01-1.46c0.56-0.6,0.95-1.42,0.79-2.21c-0.18-0.91-1.08-1.58-2.01-1.61c-0.93-0.03-1.83,0.51-2.33,1.29
					H25.8z"/>
			</g>
		</g>
		<g>
			<g>
				<g>
					<path fill="#0C0A35" d="M13.75,51.74c0-0.24,0.1-0.59,0.1-0.84c0-0.25,0-0.49-0.03-0.74c-0.09-0.84-0.4-1.64-1.03-2.2
						c0.57-0.03,2.01-0.03,2.58,0c-0.63,0.56-0.94,1.36-1.03,2.2c-0.03,0.25-0.03,0.49-0.03,0.74c0,0.24,0.1,0.59,0.1,0.84H13.75z"
						/>
				</g>
			</g>
			<g>
				<path fill="#0C0A35" d="M13.96,50.82c-0.51-0.78-1.4-1.32-2.33-1.29c-0.93,0.03-1.83,0.7-2.01,1.61
					c-0.16,0.8,0.23,1.62,0.79,2.21c0.56,0.59,1.32,0.99,2,1.44c0.7,0.46,1.67,1.59,1.67,1.59s1.07-1.11,1.67-1.57
					c0.65-0.49,1.45-0.87,2.01-1.46c0.56-0.6,0.95-1.42,0.79-2.21c-0.18-0.91-1.08-1.58-2.01-1.61c-0.93-0.03-1.83,0.51-2.33,1.29
					H13.96z"/>
			</g>
		</g>
	</g>
	<g>
		<g>
			<g>
				<path fill="#0C0A35" d="M20.33,19.51c0,0.25-0.1,0.59-0.1,0.84c0,0.25,0,0.49,0.03,0.74c0.09,0.84,0.4,1.64,1.03,2.2
					c-0.57,0.04-2.01,0.04-2.58,0c0.63-0.56,0.94-1.36,1.03-2.2c0.03-0.25,0.03-0.49,0.03-0.74c0-0.24-0.1-0.59-0.1-0.84H20.33z"/>
			</g>
		</g>
		<g>
			<path fill="#0C0A35" d="M20.12,20.44c0.51,0.78,1.4,1.32,2.33,1.29c0.93-0.03,1.83-0.7,2.01-1.61c0.16-0.8-0.23-1.62-0.79-2.21
				c-0.56-0.59-1.32-0.99-2-1.43c-0.7-0.46-1.68-1.59-1.68-1.59s-1.07,1.11-1.67,1.56c-0.65,0.5-1.45,0.87-2.01,1.46
				c-0.56,0.6-0.95,1.42-0.79,2.21c0.18,0.91,1.08,1.58,2.01,1.61c0.93,0.03,1.83-0.51,2.33-1.29H20.12z"/>
		</g>
	</g>
	<g>
		<g>
			<g>
				<path fill="#0C0A35" d="M19.67,41.11c0-0.24,0.1-0.59,0.1-0.84c0-0.25,0-0.49-0.03-0.74c-0.09-0.84-0.4-1.64-1.03-2.2
					c0.57-0.03,2.01-0.03,2.58,0c-0.63,0.56-0.94,1.36-1.03,2.2c-0.03,0.25-0.03,0.49-0.03,0.74c0,0.24,0.1,0.59,0.1,0.84H19.67z"/>
			</g>
		</g>
		<g>
			<path fill="#0C0A35" d="M19.88,40.18c-0.51-0.77-1.4-1.32-2.33-1.29c-0.93,0.03-1.83,0.7-2.01,1.61
				c-0.16,0.8,0.23,1.62,0.79,2.21c0.56,0.6,1.32,0.99,2,1.44c0.7,0.46,1.67,1.59,1.67,1.59s1.07-1.11,1.67-1.57
				c0.65-0.49,1.45-0.87,2.01-1.46c0.56-0.59,0.95-1.42,0.79-2.21c-0.18-0.91-1.08-1.58-2.01-1.61c-0.93-0.03-1.83,0.51-2.33,1.29
				H19.88z"/>
		</g>
	</g>
	<g>
		<g>
			<g>
				<g>
					<path fill="#0C0A35" d="M14.41,8.26c0,0.24-0.1,0.59-0.1,0.84c0,0.25,0,0.5,0.03,0.74c0.09,0.84,0.4,1.64,1.03,2.2
						c-0.57,0.03-2.01,0.03-2.58,0c0.63-0.56,0.94-1.36,1.03-2.2c0.03-0.25,0.03-0.49,0.03-0.74c0-0.24-0.1-0.59-0.1-0.84H14.41z"/>
				</g>
			</g>
			<g>
				<path fill="#0C0A35" d="M14.2,9.18c0.51,0.77,1.4,1.32,2.33,1.29c0.93-0.03,1.83-0.7,2.01-1.61c0.16-0.8-0.23-1.62-0.79-2.21
					c-0.56-0.6-1.32-0.99-2-1.44c-0.7-0.46-1.68-1.59-1.68-1.59s-1.07,1.11-1.67,1.57c-0.65,0.49-1.45,0.87-2.01,1.46
					C9.84,7.24,9.45,8.06,9.61,8.86c0.18,0.91,1.08,1.58,2.01,1.61c0.93,0.03,1.83-0.51,2.33-1.29H14.2z"/>
			</g>
		</g>
		<g>
			<g>
				<g>
					<path fill="#0C0A35" d="M26.26,8.26c0,0.24-0.1,0.59-0.1,0.84c0,0.25,0,0.5,0.03,0.74c0.09,0.84,0.4,1.64,1.03,2.2
						c-0.57,0.03-2.01,0.03-2.58,0c0.63-0.56,0.94-1.36,1.03-2.2c0.03-0.25,0.03-0.49,0.03-0.74c0-0.24-0.1-0.59-0.1-0.84H26.26z"/>
				</g>
			</g>
			<g>
				<path fill="#0C0A35" d="M26.04,9.18c0.51,0.77,1.4,1.32,2.33,1.29c0.93-0.03,1.83-0.7,2.01-1.61c0.16-0.8-0.23-1.62-0.79-2.21
					c-0.56-0.6-1.32-0.99-2-1.44c-0.7-0.46-1.67-1.59-1.67-1.59s-1.07,1.11-1.67,1.57c-0.65,0.49-1.45,0.87-2.01,1.46
					c-0.56,0.59-0.95,1.42-0.79,2.21c0.18,0.91,1.08,1.58,2.01,1.61c0.93,0.03,1.83-0.51,2.33-1.29H26.04z"/>
			</g>
		</g>
	</g>
	<g>
		<g>
			<g>
				<g>
					<path fill="#0C0A35" d="M14.41,30.42c0,0.24-0.1,0.59-0.1,0.84c0,0.25,0,0.5,0.03,0.74c0.09,0.84,0.4,1.64,1.03,2.2
						c-0.57,0.03-2.01,0.03-2.58,0c0.63-0.56,0.94-1.36,1.03-2.2c0.03-0.25,0.03-0.49,0.03-0.74c0-0.24-0.1-0.59-0.1-0.84H14.41z"/>
				</g>
			</g>
			<g>
				<path fill="#0C0A35" d="M14.2,31.34c0.51,0.78,1.4,1.32,2.33,1.29c0.93-0.03,1.83-0.7,2.01-1.61c0.16-0.8-0.23-1.62-0.79-2.21
					c-0.56-0.6-1.32-0.99-2-1.44c-0.7-0.46-1.68-1.59-1.68-1.59s-1.07,1.11-1.67,1.57c-0.65,0.49-1.45,0.87-2.01,1.46
					c-0.56,0.59-0.95,1.42-0.79,2.21c0.18,0.91,1.08,1.58,2.01,1.61c0.93,0.03,1.83-0.51,2.33-1.29H14.2z"/>
			</g>
		</g>
		<g>
			<g>
				<g>
					<path fill="#0C0A35" d="M26.26,30.42c0,0.24-0.1,0.59-0.1,0.84c0,0.25,0,0.5,0.03,0.74c0.09,0.84,0.4,1.64,1.03,2.2
						c-0.57,0.03-2.01,0.03-2.58,0c0.63-0.56,0.94-1.36,1.03-2.2c0.03-0.25,0.03-0.49,0.03-0.74c0-0.24-0.1-0.59-0.1-0.84H26.26z"/>
				</g>
			</g>
			<g>
				<path fill="#0C0A35" d="M26.04,31.34c0.51,0.78,1.4,1.32,2.33,1.29c0.93-0.03,1.83-0.7,2.01-1.61c0.16-0.8-0.23-1.62-0.79-2.21
					c-0.56-0.6-1.32-0.99-2-1.44c-0.7-0.46-1.67-1.59-1.67-1.59s-1.07,1.11-1.67,1.57c-0.65,0.49-1.45,0.87-2.01,1.46
					c-0.56,0.59-0.95,1.42-0.79,2.21c0.18,0.91,1.08,1.58,2.01,1.61c0.93,0.03,1.83-0.51,2.33-1.29H26.04z"/>
			</g>
		</g>
	</g>
	<g>
		<g>
			<g>
				<g>
					<path fill="#0C0A35" d="M25.59,51.74c0-0.24,0.1-0.59,0.1-0.84c0-0.25,0-0.49-0.03-0.74c-0.09-0.84-0.4-1.64-1.03-2.2
						c0.57-0.03,2.01-0.03,2.58,0c-0.63,0.56-0.94,1.36-1.03,2.2c-0.03,0.25-0.03,0.49-0.03,0.74c0,0.24,0.1,0.59,0.1,0.84H25.59z"
						/>
				</g>
			</g>
			<g>
				<path fill="#0C0A35" d="M25.8,50.82c-0.51-0.78-1.4-1.32-2.33-1.29c-0.93,0.03-1.83,0.7-2.01,1.61
					c-0.16,0.8,0.23,1.62,0.79,2.21c0.56,0.59,1.32,0.99,2,1.44c0.7,0.46,1.67,1.59,1.67,1.59s1.07-1.11,1.67-1.57
					c0.65-0.49,1.45-0.87,2.01-1.46c0.56-0.6,0.95-1.42,0.79-2.21c-0.18-0.91-1.08-1.58-2.01-1.61c-0.93-0.03-1.83,0.51-2.33,1.29
					H25.8z"/>
			</g>
		</g>
		<g>
			<g>
				<g>
					<path fill="#0C0A35" d="M13.75,51.74c0-0.24,0.1-0.59,0.1-0.84c0-0.25,0-0.49-0.03-0.74c-0.09-0.84-0.4-1.64-1.03-2.2
						c0.57-0.03,2.01-0.03,2.58,0c-0.63,0.56-0.94,1.36-1.03,2.2c-0.03,0.25-0.03,0.49-0.03,0.74c0,0.24,0.1,0.59,0.1,0.84H13.75z"
						/>
				</g>
			</g>
			<g>
				<path fill="#0C0A35" d="M13.96,50.82c-0.51-0.78-1.4-1.32-2.33-1.29c-0.93,0.03-1.83,0.7-2.01,1.61
					c-0.16,0.8,0.23,1.62,0.79,2.21c0.56,0.59,1.32,0.99,2,1.44c0.7,0.46,1.67,1.59,1.67,1.59s1.07-1.11,1.67-1.57
					c0.65-0.49,1.45-0.87,2.01-1.46c0.56-0.6,0.95-1.42,0.79-2.21c-0.18-0.91-1.08-1.58-2.01-1.61c-0.93-0.03-1.83,0.51-2.33,1.29
					H13.96z"/>
			</g>
		</g>
	</g>
	<g>
		<g>
			<g>
				<path fill="#0C0A35" d="M20.33,19.51c0,0.25-0.1,0.59-0.1,0.84c0,0.25,0,0.49,0.03,0.74c0.09,0.84,0.4,1.64,1.03,2.2
					c-0.57,0.04-2.01,0.04-2.58,0c0.63-0.56,0.94-1.36,1.03-2.2c0.03-0.25,0.03-0.49,0.03-0.74c0-0.24-0.1-0.59-0.1-0.84H20.33z"/>
			</g>
		</g>
		<g>
			<path fill="#0C0A35" d="M20.12,20.44c0.51,0.78,1.4,1.32,2.33,1.29c0.93-0.03,1.83-0.7,2.01-1.61c0.16-0.8-0.23-1.62-0.79-2.21
				c-0.56-0.59-1.32-0.99-2-1.43c-0.7-0.46-1.68-1.59-1.68-1.59s-1.07,1.11-1.67,1.56c-0.65,0.5-1.45,0.87-2.01,1.46
				c-0.56,0.6-0.95,1.42-0.79,2.21c0.18,0.91,1.08,1.58,2.01,1.61c0.93,0.03,1.83-0.51,2.33-1.29H20.12z"/>
		</g>
	</g>
	<g>
		<g>
			<g>
				<path fill="#0C0A35" d="M19.67,41.11c0-0.24,0.1-0.59,0.1-0.84c0-0.25,0-0.49-0.03-0.74c-0.09-0.84-0.4-1.64-1.03-2.2
					c0.57-0.03,2.01-0.03,2.58,0c-0.63,0.56-0.94,1.36-1.03,2.2c-0.03,0.25-0.03,0.49-0.03,0.74c0,0.24,0.1,0.59,0.1,0.84H19.67z"/>
			</g>
		</g>
		<g>
			<path fill="#0C0A35" d="M19.88,40.18c-0.51-0.77-1.4-1.32-2.33-1.29c-0.93,0.03-1.83,0.7-2.01,1.61
				c-0.16,0.8,0.23,1.62,0.79,2.21c0.56,0.6,1.32,0.99,2,1.44c0.7,0.46,1.67,1.59,1.67,1.59s1.07-1.11,1.67-1.57
				c0.65-0.49,1.45-0.87,2.01-1.46c0.56-0.59,0.95-1.42,0.79-2.21c-0.18-0.91-1.08-1.58-2.01-1.61c-0.93-0.03-1.83,0.51-2.33,1.29
				H19.88z"/>
		</g>
	</g>
</g>
</svg>
