<?xml version="1.0" encoding="utf-8"?>
<!-- Generator: Adobe Illustrator 26.3.1, SVG Export Plug-In . SVG Version: 6.00 Build 0)  -->
<svg version="1.1" id="Layer_1" xmlns="http://www.w3.org/2000/svg" xmlns:xlink="http://www.w3.org/1999/xlink" x="0px" y="0px"
	 viewBox="0 0 40 60" style="enable-background:new 0 0 40 60;" xml:space="preserve">
<style type="text/css">
	.st0{fill:#FFFFFF;}
	.st1{fill:#2D2D2D;}
	.st2{fill:#0C0A35;}
</style>
<g>
	<g>
		<path class="st0" d="M36.35,59.91H3.28c-1.86,0-3.37-1.49-3.37-3.32V3.41c0-1.83,1.51-3.32,3.37-3.32h33.08
			c1.86,0,3.37,1.49,3.37,3.32v53.17C39.73,58.42,38.22,59.91,36.35,59.91z"/>
		<path class="st1" d="M36.35,60H3.28c-1.91,0-3.46-1.53-3.46-3.41V3.41C-0.18,1.53,1.37,0,3.28,0h33.08c1.91,0,3.46,1.53,3.46,3.41
			v53.17C39.82,58.47,38.26,60,36.35,60z M3.28,0.18C1.47,0.18,0,1.63,0,3.41v53.17c0,1.78,1.47,3.23,3.28,3.23h33.08
			c1.81,0,3.28-1.45,3.28-3.23V3.41c0-1.78-1.47-3.23-3.28-3.23H3.28z"/>
	</g>
	<g>
		<g>
			<g>
				<path class="st2" d="M5.12,11.34c0,0.1-0.04,0.24-0.04,0.33c0,0.1,0,0.2,0.01,0.29c0.04,0.33,0.16,0.65,0.41,0.88
					c-0.23,0.01-0.81,0.01-1.04,0c0.25-0.22,0.38-0.54,0.41-0.88c0.01-0.1,0.01-0.2,0.01-0.29c0-0.1-0.04-0.24-0.04-0.33H5.12z"/>
			</g>
		</g>
		<g>
			<g>
				<path class="st2" d="M5.05,11.58c0.1,0.01,0.15,0.11,0.33,0.29c0.16,0.17,0.32,0.35,0.68,0.39c0.18,0.02,0.43-0.08,0.54-0.22
					c0.09-0.12,0.15-0.27,0.18-0.42c0.07-0.28,0.05-0.56-0.09-0.81c-0.14-0.25-0.51-0.36-0.74-0.23c-0.12,0.07-0.16,0.16-0.28,0.18
					c-0.04,0.01-0.06-0.03-0.06-0.06c0.05-0.17,0.17-0.19,0.23-0.39c0.07-0.24,0.11-0.43-0.24-0.73c-0.27-0.23-0.92-0.21-1.2,0
					C4.1,9.8,4.07,9.99,4.14,10.24c0.05,0.19,0.16,0.28,0.22,0.44c0.02,0.05-0.04,0.11-0.09,0.09c-0.08-0.03-0.13-0.11-0.23-0.17
					c-0.23-0.14-0.61-0.02-0.74,0.23c-0.14,0.25-0.17,0.53-0.09,0.81c0.04,0.15,0.09,0.3,0.19,0.42c0.11,0.14,0.35,0.24,0.54,0.22
					c0.36-0.04,0.52-0.22,0.67-0.39c0.18-0.19,0.23-0.28,0.33-0.29H5.05z"/>
			</g>
		</g>
	</g>
	<g>
		<path class="st2" d="M7.21,8.42H6.5L5.93,6.81H3.85l-0.5,1.62H2.76l1.83-5.54h0.8L7.21,8.42z M5.78,6.29L4.91,3.63L4.04,6.29H5.78
			z"/>
	</g>
	<g>
		<g>
			<g>
				<g>
					<path class="st2" d="M34.5,48.66c0-0.1,0.04-0.24,0.04-0.33c0-0.1,0-0.2-0.01-0.29c-0.04-0.33-0.16-0.65-0.41-0.88
						c0.23-0.01,0.81-0.01,1.04,0c-0.25,0.22-0.38,0.54-0.41,0.88c-0.01,0.1-0.01,0.2-0.01,0.29c0,0.1,0.04,0.24,0.04,0.33H34.5z"/>
				</g>
			</g>
			<g>
				<g>
					<path class="st2" d="M34.57,48.42c-0.1-0.01-0.15-0.11-0.33-0.29c-0.16-0.17-0.32-0.35-0.68-0.39
						c-0.18-0.02-0.43,0.08-0.54,0.22c-0.09,0.12-0.15,0.27-0.18,0.42c-0.07,0.28-0.05,0.56,0.09,0.81
						c0.14,0.25,0.51,0.36,0.74,0.23c0.12-0.07,0.16-0.16,0.28-0.18c0.04-0.01,0.06,0.03,0.06,0.06c-0.05,0.17-0.17,0.19-0.23,0.39
						c-0.07,0.24-0.11,0.43,0.24,0.73c0.27,0.23,0.92,0.21,1.2,0c0.29-0.21,0.31-0.41,0.25-0.65c-0.05-0.19-0.16-0.28-0.22-0.44
						c-0.02-0.05,0.04-0.11,0.09-0.09c0.08,0.03,0.13,0.11,0.23,0.17c0.23,0.14,0.61,0.02,0.74-0.23c0.14-0.25,0.17-0.53,0.09-0.81
						c-0.04-0.15-0.09-0.3-0.18-0.42c-0.11-0.14-0.35-0.24-0.54-0.22c-0.36,0.04-0.52,0.22-0.68,0.39
						c-0.18,0.19-0.23,0.28-0.33,0.29H34.57z"/>
				</g>
			</g>
		</g>
		<g>
			<path class="st2" d="M32.44,51.58h0.72l0.56,1.62h2.08l0.5-1.62h0.59l-1.83,5.54h-0.8L32.44,51.58z M33.87,53.71l0.87,2.66
				l0.87-2.66H33.87z"/>
		</g>
	</g>
	<g>
		<g>
			<g>
				<path class="st2" d="M19.48,30.52c0,0.25,0.1,0.6,0.1,0.85c0,0.25,0,0.5-0.03,0.75c-0.09,0.85-0.41,1.67-1.06,2.24
					c0.59,0.03,2.06,0.03,2.65,0c-0.65-0.57-0.96-1.39-1.05-2.24c-0.03-0.25-0.03-0.5-0.03-0.75c0-0.25,0.1-0.6,0.1-0.85H19.48z"/>
			</g>
		</g>
		<g>
			<g>
				<path class="st2" d="M19.65,31.14c-0.25,0.04-0.39,0.27-0.84,0.75c-0.41,0.43-0.81,0.9-1.73,1.01
					c-0.47,0.06-1.09-0.19-1.37-0.56c-0.24-0.31-0.37-0.7-0.47-1.08c-0.19-0.71-0.12-1.42,0.24-2.07c0.36-0.65,1.31-0.93,1.9-0.58
					c0.32,0.19,0.42,0.41,0.71,0.47c0.09,0.02,0.17-0.07,0.14-0.15c-0.12-0.44-0.43-0.49-0.58-1.01c-0.17-0.62-0.27-1.09,0.62-1.87
					c0.68-0.59,2.34-0.53,3.06,0c0.73,0.55,0.8,1.05,0.63,1.66c-0.14,0.49-0.42,0.71-0.55,1.12c-0.04,0.14,0.09,0.27,0.23,0.22
					c0.21-0.08,0.33-0.27,0.6-0.43c0.59-0.35,1.55-0.06,1.9,0.58c0.36,0.65,0.43,1.36,0.24,2.07c-0.1,0.38-0.23,0.76-0.47,1.08
					c-0.28,0.37-0.9,0.62-1.37,0.56c-0.92-0.11-1.32-0.57-1.73-1.01c-0.45-0.48-0.59-0.71-0.84-0.75H19.65z"/>
			</g>
		</g>
	</g>
</g>
</svg>
