<?xml version="1.0" encoding="utf-8"?>
<!-- Generator: Adobe Illustrator 26.3.1, SVG Export Plug-In . SVG Version: 6.00 Build 0)  -->
<svg version="1.1" id="Layer_1" xmlns="http://www.w3.org/2000/svg" xmlns:xlink="http://www.w3.org/1999/xlink" x="0px" y="0px"
	 viewBox="0 0 40 60" style="enable-background:new 0 0 40 60;" xml:space="preserve">
<style type="text/css">
	.st0{fill:#FFFFFF;}
	.st1{fill:#2D2D2D;}
	.st2{fill:#0C0A35;}
</style>
<g>
	<g>
		<path class="st0" d="M36.54,59.91H3.46c-1.86,0-3.37-1.49-3.37-3.32V3.41c0-1.83,1.51-3.32,3.37-3.32h33.08
			c1.86,0,3.37,1.49,3.37,3.32v53.17C39.91,58.42,38.4,59.91,36.54,59.91z"/>
		<path class="st1" d="M36.54,60H3.46C1.55,60,0,58.47,0,56.59V3.41C0,1.53,1.55,0,3.46,0h33.08C38.45,0,40,1.53,40,3.41v53.17
			C40,58.47,38.45,60,36.54,60z M3.46,0.18c-1.81,0-3.28,1.45-3.28,3.23v53.17c0,1.78,1.47,3.23,3.28,3.23h33.08
			c1.81,0,3.28-1.45,3.28-3.23V3.41c0-1.78-1.47-3.23-3.28-3.23H3.46z"/>
	</g>
	<g>
		<g>
			<g>
				<path class="st2" d="M34.63,48.79c0-0.1,0.04-0.24,0.04-0.34c0-0.1,0-0.2-0.01-0.3c-0.04-0.34-0.16-0.66-0.42-0.89
					c0.23-0.01,0.82-0.01,1.06,0c-0.26,0.23-0.38,0.55-0.42,0.89c-0.01,0.1-0.01,0.2-0.01,0.3c0,0.1,0.04,0.24,0.04,0.34H34.63z"/>
			</g>
		</g>
		<g>
			<path class="st2" d="M34.72,48.41c-0.21-0.31-0.57-0.53-0.96-0.52c-0.38,0.01-0.75,0.28-0.82,0.65c-0.06,0.32,0.09,0.66,0.32,0.9
				c0.23,0.24,0.54,0.4,0.82,0.58c0.29,0.18,0.69,0.65,0.69,0.65s0.44-0.45,0.68-0.63c0.27-0.2,0.6-0.35,0.82-0.59
				c0.23-0.24,0.39-0.58,0.32-0.9c-0.07-0.37-0.44-0.64-0.82-0.65c-0.38-0.01-0.75,0.21-0.96,0.52H34.72z"/>
		</g>
	</g>
	<g>
		<path class="st2" d="M32.54,51.58h0.72l0.57,1.62h2.08l0.5-1.62H37l-1.83,5.54h-0.8L32.54,51.58z M33.97,53.71l0.87,2.66
			l0.87-2.66H33.97z"/>
	</g>
	<g>
		<g>
			<g>
				<path class="st2" d="M5.24,10.94c0,0.1-0.04,0.24-0.04,0.34c0,0.1,0,0.2,0.01,0.3c0.04,0.34,0.16,0.67,0.42,0.9
					c-0.23,0.01-0.82,0.01-1.06,0c0.26-0.23,0.38-0.55,0.42-0.9C5,11.48,5,11.38,5,11.28c0-0.1-0.04-0.24-0.04-0.34H5.24z"/>
			</g>
		</g>
		<g>
			<path class="st2" d="M5.15,11.32c0.21,0.31,0.57,0.53,0.96,0.52c0.38-0.01,0.75-0.29,0.82-0.65c0.06-0.32-0.09-0.66-0.32-0.9
				c-0.23-0.24-0.54-0.4-0.82-0.58C5.5,9.52,5.1,9.06,5.1,9.06S4.66,9.51,4.42,9.69c-0.27,0.2-0.6,0.35-0.82,0.59
				c-0.23,0.24-0.39,0.58-0.32,0.9c0.07,0.37,0.44,0.64,0.82,0.65c0.38,0.01,0.75-0.21,0.96-0.52H5.15z"/>
		</g>
	</g>
	<g>
		<g>
			<g>
				<path class="st2" d="M20.34,30.42c0,0.25-0.1,0.6-0.1,0.85c0,0.25,0,0.5,0.03,0.75c0.09,0.85,0.41,1.67,1.06,2.24
					c-0.59,0.03-2.06,0.03-2.65,0c0.65-0.57,0.96-1.39,1.06-2.24c0.03-0.25,0.03-0.5,0.03-0.75c0-0.25-0.1-0.6-0.1-0.85H20.34z"/>
			</g>
		</g>
		<g>
			<path class="st2" d="M20.12,31.36c0.52,0.79,1.44,1.34,2.39,1.31c0.95-0.03,1.88-0.71,2.07-1.64c0.16-0.81-0.24-1.65-0.81-2.25
				c-0.57-0.61-1.36-1-2.06-1.46C21,26.86,20,25.71,20,25.71s-1.1,1.13-1.71,1.59c-0.67,0.5-1.49,0.88-2.06,1.49
				c-0.57,0.6-0.97,1.44-0.81,2.25c0.19,0.92,1.11,1.61,2.06,1.64c0.95,0.03,1.87-0.52,2.39-1.31H20.12z"/>
		</g>
	</g>
	<g>
		<path class="st2" d="M7.33,8.42H6.61L6.05,6.81H3.96l-0.5,1.62H2.87L4.7,2.89h0.8L7.33,8.42z M5.9,6.29L5.03,3.62L4.16,6.29H5.9z"
			/>
	</g>
</g>
</svg>
