<?xml version="1.0" encoding="utf-8"?>
<!-- Generator: Adobe Illustrator 26.3.1, SVG Export Plug-In . SVG Version: 6.00 Build 0)  -->
<svg version="1.1" id="Layer_1" xmlns="http://www.w3.org/2000/svg" xmlns:xlink="http://www.w3.org/1999/xlink" x="0px" y="0px"
	 viewBox="0 0 40 60" style="enable-background:new 0 0 40 60;" xml:space="preserve">
<style type="text/css">
	.st0{fill:#FFFFFF;}
	.st1{fill:#2D2D2D;}
	.st2{fill:#222272;}
	.st3{fill:#191956;}
	.st4{fill:#B70027;}
	.st5{fill:#0C0A35;}
	.st6{fill:#FFD6A1;}
	.st7{clip-path:url(#SVGID_00000072984897378469459940000001024062370102407563_);}
	.st8{clip-path:url(#SVGID_00000084498847912381555010000004297711806375147160_);}
	.st9{clip-path:url(#SVGID_00000085239190211525717190000016271216147652498860_);}
	.st10{fill:#F70032;}
	.st11{fill:#990028;}
	.st12{clip-path:url(#SVGID_00000156574298552330165260000004963441087352221628_);}
	.st13{clip-path:url(#SVGID_00000116920150610887820080000007391910089909633408_);}
	.st14{clip-path:url(#SVGID_00000091005881745795683050000018328309677983160969_);}
	.st15{clip-path:url(#SVGID_00000021806457213929589370000015555357392516083868_);}
	.st16{clip-path:url(#SVGID_00000001649414457642199440000004060201755930797211_);}
</style>
<g>
	<g>
		<path class="st0" d="M36.5,59.78H3.43c-1.86,0-3.37-1.49-3.37-3.32V3.28c0-1.83,1.51-3.32,3.37-3.32H36.5
			c1.86,0,3.37,1.49,3.37,3.32v53.17C39.88,58.29,38.37,59.78,36.5,59.78z"/>
		<path class="st1" d="M36.5,59.87H3.43c-1.91,0-3.46-1.53-3.46-3.41V3.28c0-1.88,1.55-3.41,3.46-3.41H36.5
			c1.91,0,3.46,1.53,3.46,3.41v53.17C39.97,58.34,38.41,59.87,36.5,59.87z M3.43,0.05c-1.81,0-3.28,1.45-3.28,3.23v53.17
			c0,1.78,1.47,3.23,3.28,3.23H36.5c1.81,0,3.28-1.45,3.28-3.23V3.28c0-1.78-1.47-3.23-3.28-3.23H3.43z"/>
	</g>
	<path class="st2" d="M6.44,29.85c-0.17,0.01-0.35,0.04-0.47,0.16c-0.11,0.1-0.15,0.24-0.18,0.38c-0.56,2.19-0.4,4.55,0.46,6.64
		c0.03,0.07,0.06,0.15,0.12,0.21c0.07,0.07,0.17,0.1,0.27,0.13c1,0.25,2.05-0.12,3.02-0.48c0.46-0.17,0.91-0.34,1.37-0.51
		c-0.33-1.57-0.66-3.15-1-4.72c-0.04-0.21-0.09-0.43-0.2-0.62c-0.13-0.22-0.35-0.38-0.56-0.51C8.44,30.01,7.42,29.77,6.44,29.85z"/>
	<path class="st2" d="M33.32,29.59c0.17-0.01,0.35-0.04,0.47-0.16c0.11-0.1,0.15-0.24,0.18-0.38c0.56-2.19,0.4-4.55-0.46-6.64
		c-0.03-0.07-0.06-0.15-0.12-0.21c-0.07-0.07-0.17-0.1-0.27-0.13c-1.01-0.25-2.05,0.12-3.02,0.48c-0.46,0.17-0.91,0.34-1.37,0.51
		c0.33,1.57,0.66,3.15,0.99,4.72c0.04,0.21,0.09,0.43,0.2,0.62c0.13,0.22,0.35,0.38,0.56,0.51C31.32,29.43,32.33,29.67,33.32,29.59z
		"/>
	<g>
		<g>
			<path class="st3" d="M27.66,36.91c-1.75,0.56-3.64,0.74-5.52,0.85c-1.93,0.11-3.87,0.15-5.78-0.09
				c-0.86-0.11-1.71-0.28-2.58-0.31c-1.43-0.05-1.96,0.26-3.35-0.05c-0.23-0.05-1.02-0.3-1.03-0.53c-0.04-0.94-0.17-3.33-0.34-2.02
				c-0.21,1.59-0.03-1.43-0.1-3.03C8.9,29.96,8.6,28.2,8.76,26.44c0.16-1.76-1.45-3.36,0.11-4.56c0.74-0.57,2.9-1.8,5.38-1.98
				c0.73-0.05,1.01,0.41,1.74,0.33c0.96-0.1,1.9-0.29,2.85-0.42c1.9-0.25,3.85-0.28,5.76-0.06c1.29,0.14,2.28-0.36,4.3,1.07
				c1.09,0.77,2.05,1.69,2.39,2.86c0.5,1.75-0.36,3.96-0.21,5.75c0.16,1.8-0.01,3.63-0.77,5.32c-0.2,0.43-0.43,0.86-0.8,1.21
				C29.02,36.41,28.34,36.7,27.66,36.91z"/>
		</g>
		<g>
			<path class="st3" d="M12.21,22.92c1.75-0.56,3.64-0.74,5.52-0.85c1.93-0.11,3.87-0.15,5.78,0.09c0.86,0.11,1.71,0.28,2.58,0.31
				c1.43,0.05,2.4-0.11,3.79,0.2c0.23,0.05,0.32,0.46,0.44,0.63c0.1,0.14,0.2,0.47,0.2,0.63c-0.08,1.6,0.33,2.58,0.39,4.18
				c0.07,1.76,0.37,3.53,0.21,5.29c-0.16,1.76,1.45,3.36-0.11,4.56c-0.74,0.57-2.9,1.8-5.38,1.98c-0.73,0.05-1.01-0.41-1.74-0.33
				c-0.95,0.1-1.89,0.29-2.84,0.42c-1.9,0.25-3.85,0.28-5.76,0.06c-1.28-0.14-2.28,0.36-4.3-1.07c-1.09-0.77-2.05-1.69-2.38-2.86
				c-0.5-1.75,0.36-3.96,0.21-5.75c-0.16-1.8,0.01-3.63,0.77-5.32c0.19-0.43,0.43-0.86,0.8-1.21
				C10.86,23.42,11.53,23.13,12.21,22.92z"/>
		</g>
		<path class="st4" d="M31.53,23.98c0.04,0.28-0.13,0.51-0.34,0.7c-1.8,1.6-3.11,2.68-4.43,3.82c-1.59,1.36-5.19,4.21-5.54,4.61
			c-1.88,2.18-4.06,4.1-6.47,5.7c-0.74,0.49-1.17,1.06-2.07,1.01c-0.38-0.02-1.26-0.21-1.61-0.34c-1.47-0.53-2.5-2.01-2.83-3.52
			c-0.04-0.18-0.06-0.38,0.02-0.55c0.07-0.15,0.21-0.25,0.35-0.35c4.91-3.52,9.56-6.46,13.97-10.57c1.51-1.4,2.7-3.08,4.15-4.54
			c0.51-0.51,1.76-0.17,2.76,0.59C29.66,20.68,31.18,21.75,31.53,23.98z"/>
		<g>
			<path class="st5" d="M20.7,57.72c-0.19,0.35-0.38,0.71-0.7,0.94c-0.05,0.04-0.11,0.07-0.17,0.07c-0.09,0-0.16-0.06-0.22-0.12
				c-0.7-0.62-1.27-1.39-1.65-2.24c-0.02-0.05-0.05-0.12-0.01-0.16c0.02-0.03,0.06-0.04,0.1-0.04c1.07-0.2,2.19-0.21,3.26-0.01
				c0.04,0.01,0.07,0.01,0.1,0.04c0.06,0.06,0.02,0.15-0.01,0.22C21.16,56.86,20.93,57.29,20.7,57.72z"/>
		</g>
		<g>
			<path class="st5" d="M23.01,42.41c0.21-0.13,0.41-0.27,0.59-0.43c0.62-0.55,1.2-1.11,2.75-2.52c0.49-0.44,0.95-0.56,0.84-0.88
				c-0.15-0.42-0.82-1.71-3.84-4.8c-0.92-0.94-2.2-2.35-3.3-2.43c-0.89-0.06-1.86,1.46-3.94,3.66c-1.17,1.24-2.53,2.36-3.32,3.87
				c-0.06,0.11-0.12,0.23-0.13,0.35c-0.03,0.34,0.28,0.61,0.56,0.82c1.09,0.84,2.08,1.84,2.72,3.05c0.3,0.57,0.52,1.17,0.65,1.79
				c0.02,0.09,0.04,0.18,0.11,0.24c0.1,0.09,0.27,0.06,0.4,0.02C19.18,44.52,21.18,43.59,23.01,42.41z"/>
		</g>
		<g>
			<path class="st6" d="M24.9,50.91c0.12-0.13,0.07-0.32,0.02-0.49c-0.24-0.77-0.36-1.58-0.36-2.38c0-0.22,0.02-0.46,0.12-0.65
				c0.16-0.29,0.67-0.58,0.92-0.81c0.19-0.18,0.36-0.21,0.4-0.47c0.02-0.13-0.16-0.16-0.19-0.21c-0.03-0.04-0.08-0.06-0.13-0.07
				c-0.31-0.07-0.62-0.14-0.93-0.22c-0.11-0.36,0.12-0.74,0.21-1.11c0.15-0.62,0.29-1.26,0.22-1.9c-0.07-0.64-0.38-1.28-0.94-1.6
				c-0.36-0.21-0.79-0.26-1.2-0.27c-2.19-0.04-4.33,1.3-5.23,3.26c-0.21,0.45-0.35,0.92-0.47,1.39c-0.21,0.82-0.36,1.66-0.32,2.5
				c0.04,0.84,0.27,1.69,0.77,2.38c0.66,0.91,1.74,1.47,2.85,1.66c1.12,0.18,2.27,0.02,3.35-0.3c0.25-0.08,0.5-0.16,0.7-0.33
				c0.19-0.17,0.32-0.45,0.24-0.69L24.9,50.91z"/>
		</g>
		<g>
			<path class="st0" d="M18.37,48.09c1.21-0.68,2.9-0.81,4.14-0.2c0.07,0.04,0.15,0.1,0.13,0.17c-0.51,0.55-1.3,0.79-2.06,0.74
				C19.83,48.75,18.98,48.52,18.37,48.09z"/>
		</g>
		<g>
			<path class="st5" d="M20.73,48.55c0.26-0.08,0.3-0.48,0.12-0.67c-0.18-0.2-0.5-0.23-0.76-0.13c-0.08,0.03-0.16,0.07-0.22,0.14
				c-0.11,0.15-0.06,0.38,0.08,0.51C20.09,48.52,20.21,48.7,20.73,48.55z"/>
		</g>
		<g>
			<path class="st2" d="M24.09,45.37c0,0.12,0.12,0.21,0.23,0.18c0.62-0.13,1.14-0.5,1.56-0.98c0.47-0.54,0.84-0.95,0.81-1.65
				c-0.24-0.1-1.3,0.02-2.38,1.64C24.16,44.79,24.1,45.08,24.09,45.37z"/>
		</g>
		<g>
			<path class="st2" d="M23.91,45.21c0,0.13-0.04,0.28-0.16,0.33c-0.08,0.03-0.16,0.01-0.24-0.01c-1.51-0.46-2.21-1.25-2.76-2.33
				c-0.03-0.06,0-0.14,0.07-0.16c0.38-0.1,1.03-0.27,1.98,0.17c0.12,0.06,0.24,0.13,0.34,0.21C23.65,43.87,23.94,44.54,23.91,45.21z
				"/>
		</g>
		<g>
			<path class="st2" d="M21.73,36.98c0.53-0.07,0.89-0.09,1.58,0.07c0.52,0.12,0.91,0.33,1.5,1.04c0.42,0.51,0.51,0.75,0.61,1.65
				c0.1,0.85-0.12,2.35-0.46,2.63c-0.4-1.01-1.42-1.57-2.24-1.6c-0.82-0.03-1.7,0.26-2.43,0.62c-0.66,0.33-0.8,0.48-1.39,0.81
				c-0.21-1.48,0.04-2.59,0.75-3.9c0.18-0.33,0.52-0.63,0.83-0.85C20.87,37.17,21.25,37.04,21.73,36.98z"/>
		</g>
		<g>
			<path class="st2" d="M12.74,40.58c-0.79,0.09-1.66,0.62-2.14,1.25c-0.48,0.63-0.79,1.24-0.95,2.01
				c-0.18,0.87-0.02,1.93,0.38,2.73c0.18,0.37,0.45,0.7,0.72,1.02c0.44,0.53,0.88,1.06,1.39,1.54c1.11,1.05,2.52,1.81,4.02,2.16
				c0.88,0.21,1.85,0.27,2.64-0.15c0.16-0.08,0.32-0.19,0.42-0.34c0.11-0.17,0.15-0.38,0.17-0.58c0.37-3.19-1.11-6.33-3.11-8.4
				c-0.25-0.26-0.88-0.73-1.21-0.9C13.81,40.29,13.21,40.53,12.74,40.58z"/>
		</g>
		<g>
			<path class="st2" d="M15.96,56.8c-0.21-0.09-0.36-0.27-0.5-0.44c-1.06-1.3-1.86-2.8-2.36-4.4c0.9-0.16,1.83-0.08,2.75-0.04
				c1.48,0.06,2.96,0.03,4.43,0c1.76-0.04,3.51-0.07,5.27-0.11c0.23,0,0.49,0.01,0.62,0.2c0.17,0.25-0.05,0.57-0.25,0.79
				c-0.88,0.96-1.67,2.36-2.32,3.48c-0.08,0.14-0.17,0.29-0.31,0.37c-0.1,0.06-0.33,0.09-0.33,0.09c-2.62,0.06-4.23,0.13-6.36,0.15
				C16.39,56.89,16.16,56.89,15.96,56.8z"/>
		</g>
		<g>
			<defs>
				<path id="SVGID_1_" d="M24.09,45.37c0,0.12,0.12,0.21,0.23,0.18c0.62-0.13,1.14-0.5,1.56-0.98c0.47-0.54,0.84-0.95,0.81-1.65
					c-0.24-0.1-1.3,0.02-2.38,1.64C24.16,44.79,24.1,45.08,24.09,45.37z"/>
			</defs>
			<clipPath id="SVGID_00000129916932253383340180000007420398021670395019_">
				<use xlink:href="#SVGID_1_"  style="overflow:visible;"/>
			</clipPath>
			<g style="clip-path:url(#SVGID_00000129916932253383340180000007420398021670395019_);">
				<g>
					<path class="st4" d="M24.1,45.67c0.6-0.37,1.19-0.71,1.69-1.21c0.5-0.5,0.9-1.25,1.18-1.89c0.03-0.07-0.05-0.14-0.11-0.09
						c-0.45,0.4-0.71,1-1.05,1.48c-0.46,0.65-1.21,1.06-1.76,1.64C24.03,45.64,24.07,45.69,24.1,45.67L24.1,45.67z"/>
				</g>
			</g>
			<g style="clip-path:url(#SVGID_00000129916932253383340180000007420398021670395019_);">
				<g>
					<path class="st4" d="M24.02,45.33c0.64-0.63,1.96-1.31,1.92-2.37c0-0.09-0.12-0.15-0.19-0.08c-0.33,0.35-0.5,0.82-0.82,1.18
						c-0.36,0.4-0.77,0.69-1.02,1.17C23.86,45.31,23.96,45.39,24.02,45.33L24.02,45.33z"/>
				</g>
			</g>
		</g>
		<g>
			<defs>
				<path id="SVGID_00000021812569360197268910000009756863333408546433_" d="M23.91,45.21c0,0.13-0.04,0.28-0.16,0.33
					c-0.08,0.03-0.16,0.01-0.24-0.01c-1.51-0.46-2.21-1.25-2.76-2.33c-0.03-0.06,0-0.14,0.07-0.16c0.38-0.1,1.03-0.27,1.98,0.17
					c0.12,0.06,0.24,0.13,0.34,0.21C23.65,43.87,23.94,44.54,23.91,45.21z"/>
			</defs>
			<clipPath id="SVGID_00000045602582370416932390000014003799047230022837_">
				<use xlink:href="#SVGID_00000021812569360197268910000009756863333408546433_"  style="overflow:visible;"/>
			</clipPath>
			<g style="clip-path:url(#SVGID_00000045602582370416932390000014003799047230022837_);">
				<g>
					<path class="st4" d="M23.92,45.4c-0.42-0.58-1.17-0.93-1.71-1.41c-0.34-0.31-0.68-0.63-0.99-0.98
						c-0.31-0.34-0.51-0.75-0.82-1.08c-0.05-0.05-0.16-0.02-0.15,0.06c0.07,0.7,0.68,1.32,1.16,1.81c0.33,0.33,0.71,0.62,1.08,0.91
						c0.4,0.31,0.93,0.46,1.3,0.78C23.86,45.55,23.98,45.48,23.92,45.4L23.92,45.4z"/>
				</g>
			</g>
			<g style="clip-path:url(#SVGID_00000045602582370416932390000014003799047230022837_);">
				<g>
					<path class="st4" d="M24.33,44.85c-0.54-0.3-0.92-0.78-1.36-1.2c-0.49-0.47-1.03-0.89-1.42-1.45c-0.04-0.05-0.12-0.02-0.1,0.04
						c0.13,0.68,0.57,1.16,1.09,1.59c0.54,0.45,1.04,0.94,1.71,1.19C24.36,45.06,24.42,44.9,24.33,44.85L24.33,44.85z"/>
				</g>
			</g>
		</g>
		<g>
			<defs>
				<path id="SVGID_00000119087055182501798500000012691617772621125522_" d="M12.74,40.58c-0.79,0.09-1.66,0.62-2.14,1.25
					c-0.48,0.63-0.79,1.24-0.95,2.01c-0.18,0.87-0.02,1.93,0.38,2.73c0.18,0.37,0.45,0.7,0.72,1.02c0.44,0.53,0.88,1.06,1.39,1.54
					c1.11,1.05,2.52,1.81,4.02,2.16c0.88,0.21,1.85,0.27,2.64-0.15c0.16-0.08,0.32-0.19,0.42-0.34c0.11-0.17,0.15-0.38,0.17-0.58
					c0.37-3.19-1.11-6.33-3.11-8.4c-0.25-0.26-0.88-0.73-1.21-0.9C13.81,40.29,13.21,40.53,12.74,40.58z"/>
			</defs>
			<clipPath id="SVGID_00000008107819088593453850000009030465016988371899_">
				<use xlink:href="#SVGID_00000119087055182501798500000012691617772621125522_"  style="overflow:visible;"/>
			</clipPath>
			<g style="clip-path:url(#SVGID_00000008107819088593453850000009030465016988371899_);">
				<g>
					<path class="st4" d="M20.34,50.14c-1.32,0.53-1.27-2.07-1.2-2.64c0.1-0.75,0.11-1.4-0.2-2.09c-0.28-0.61-0.91-1.07-1.35-1.55
						c-0.9-0.99-0.48-2.21-0.24-3.34c0.03-0.12-0.13-0.23-0.22-0.13c-0.66,0.69-0.61,1.8-0.45,2.67c0.19,1.07,1.34,1.7,1.88,2.57
						c0.72,1.16-0.26,2.7,0.35,3.96c0.32,0.66,0.78,1.2,1.51,0.73C20.5,50.26,20.45,50.1,20.34,50.14L20.34,50.14z"/>
				</g>
			</g>
			<g style="clip-path:url(#SVGID_00000008107819088593453850000009030465016988371899_);">
				<g>
					<path class="st4" d="M19.76,51.34c-1.74-0.45-1.7-2.36-1.49-3.77c0.14-0.96-0.11-1.56-0.94-2.06c-0.54-0.33-1.05-0.64-1.4-1.17
						c-0.53-0.82-0.16-1.88,0.05-2.73c0.24-1.01-0.26-2-1.09-2.57c-0.1-0.07-0.2,0.06-0.15,0.15c0.51,1.08,0.85,1.73,0.52,2.95
						c-0.15,0.58-0.16,1.15-0.08,1.73c0.15,1.02,1.07,1.63,1.89,2.1c1.29,0.75,0.48,2.63,0.8,3.88c0.23,0.91,0.87,1.77,1.89,1.64
						C19.82,51.48,19.85,51.36,19.76,51.34L19.76,51.34z"/>
				</g>
			</g>
			<g style="clip-path:url(#SVGID_00000008107819088593453850000009030465016988371899_);">
				<g>
					<path class="st4" d="M17.99,51.76c-1.48-0.48-1.11-2.61-1.07-3.75c0.05-1.16-0.72-1.56-1.5-2.26c-2.12-1.91,1.02-5.23-1.7-6.75
						c-0.19-0.11-0.4,0.11-0.3,0.3c0.52,0.95,1.06,1.44,0.77,2.64c-0.18,0.75-0.29,1.36-0.21,2.13c0.11,1.07,0.64,1.84,1.48,2.49
						c0.78,0.61,0.92,1.09,0.87,2.03c-0.03,0.57,0,1.1,0.11,1.66c0.16,0.87,0.57,1.61,1.51,1.72C18.09,51.98,18.1,51.8,17.99,51.76
						L17.99,51.76z"/>
				</g>
			</g>
			<g style="clip-path:url(#SVGID_00000008107819088593453850000009030465016988371899_);">
				<g>
					<path class="st4" d="M16.08,51.8c-1.32-1.04-0.22-2.63-0.52-3.96c-0.12-0.52-0.74-0.98-1.12-1.29
						c-0.71-0.58-1.18-1.08-1.47-1.98c-0.49-1.48,0.19-2.7,0.39-4.13c0.13-0.99-0.57-1.78-1.5-1.99c-0.22-0.05-0.39,0.21-0.22,0.37
						c0.65,0.63,1.11,1.03,0.92,2c-0.11,0.57-0.36,1.11-0.44,1.69c-0.17,1.28,0.11,2.62,0.89,3.67c0.38,0.51,0.98,0.86,1.46,1.28
						c0.76,0.67,0.39,1.68,0.42,2.54c0.02,0.72,0.25,1.82,1.12,1.94C16.07,51.96,16.16,51.86,16.08,51.8L16.08,51.8z"/>
				</g>
			</g>
			<g style="clip-path:url(#SVGID_00000008107819088593453850000009030465016988371899_);">
				<g>
					<path class="st4" d="M14.01,51.67c0.17-0.9,0.41-1.96-0.01-2.83c-0.48-0.98-1.45-1.5-2.03-2.4c-0.79-1.24-0.55-3.12-0.17-4.44
						c0.22-0.77,0.29-1.5-0.25-2.14c-0.09-0.1-0.28-0.02-0.27,0.11c0.07,1.15-0.22,2.04-0.42,3.16c-0.16,0.91-0.05,1.95,0.17,2.84
						c0.21,0.86,0.81,1.48,1.46,2.05c0.69,0.61,1.09,1.14,1.18,2.09c0.04,0.53,0.03,1.03,0.13,1.56
						C13.82,51.77,13.99,51.77,14.01,51.67L14.01,51.67z"/>
				</g>
			</g>
			<g style="clip-path:url(#SVGID_00000008107819088593453850000009030465016988371899_);">
				<g>
					<path class="st4" d="M12.95,51.56c0.33-1.98-1.38-2.98-2.4-4.43c-1.01-1.44,0-3.05-0.14-4.61c-0.08-0.88-0.53-1.99-1.31-2.47
						c-0.14-0.09-0.37,0.02-0.35,0.2c0.04,0.47,0.2,0.74,0.42,1.17c0.43,0.84,0.48,1.61,0.3,2.52c-0.21,1.04-0.4,2.15,0.11,3.14
						c0.87,1.67,2.73,2.54,3.11,4.48C12.71,51.69,12.93,51.69,12.95,51.56L12.95,51.56z"/>
				</g>
			</g>
		</g>
		<g>
			<path class="st3" d="M24.88,50.3c-0.14-0.07-0.3-0.09-0.46-0.09c-3.23,0.15-6.22,0.2-9.46,0.16c-0.47-0.01-0.84,0.18-1.17,0.51
				c-0.32,0.33-0.81,0.91-0.72,1.3c0.11,0.49,0.65,0.36,1.43,0.41c1.11,0.08,2.93,0.03,4.04,0.04c2.85,0.01,4.35-0.02,7.41-0.15
				c0.37-0.02,0.45-0.28,0.45-0.65c0-0.15-0.07-0.28-0.17-0.38c-0.36-0.33-0.73-0.66-1.09-0.99C25.06,50.4,24.97,50.34,24.88,50.3
				L24.88,50.3z"/>
		</g>
		<g>
			<g>
				<path class="st10" d="M26.71,38.44c-0.01,0-0.01-0.01-0.02-0.01c-0.14-0.05-0.29,0.11-0.24,0.24c0,0.01,0.01,0.01,0.01,0.02
					c0.05,0.14,0.23,0.21,0.35,0.09C26.92,38.67,26.85,38.49,26.71,38.44L26.71,38.44z"/>
			</g>
		</g>
		<g>
			<g>
				<path class="st10" d="M26.12,37.6c-0.33,0-0.33,0.5,0,0.5C26.45,38.1,26.45,37.6,26.12,37.6L26.12,37.6z"/>
			</g>
		</g>
		<g>
			<g>
				<path class="st10" d="M25.47,36.87c-0.3,0-0.3,0.46,0,0.46C25.78,37.33,25.78,36.87,25.47,36.87L25.47,36.87z"/>
			</g>
		</g>
		<g>
			<g>
				<path class="st10" d="M24.99,36.19c-0.01-0.01-0.01-0.03-0.02-0.04c-0.12-0.27-0.56-0.03-0.4,0.23
					c0.01,0.01,0.01,0.02,0.02,0.04c0.06,0.11,0.21,0.14,0.32,0.08C25.02,36.44,25.04,36.31,24.99,36.19L24.99,36.19z"/>
			</g>
		</g>
		<g>
			<g>
				<path class="st10" d="M24.33,35.66c0.05-0.13-0.02-0.24-0.12-0.32c-0.06-0.05-0.17-0.04-0.23,0c-0.1,0.06-0.12,0.15-0.1,0.25
					c0,0.01,0,0.01,0,0.02c0-0.04,0-0.08,0-0.12c-0.02,0.06-0.01,0.11,0,0.17c0.01,0.1,0.13,0.17,0.23,0.17
					C24.21,35.83,24.29,35.75,24.33,35.66L24.33,35.66z"/>
			</g>
		</g>
		<g>
			<g>
				<path class="st10" d="M23.46,34.61c-0.01-0.01-0.01-0.01-0.02-0.02c-0.1-0.1-0.26-0.09-0.36,0c-0.01,0.01-0.01,0.01-0.02,0.02
					c-0.09,0.08-0.09,0.23,0,0.32c0.01,0.01,0.01,0.01,0.02,0.02c0.1,0.09,0.26,0.1,0.36,0c0.01-0.01,0.01-0.01,0.02-0.02
					C23.55,34.83,23.55,34.7,23.46,34.61L23.46,34.61z"/>
			</g>
		</g>
		<g>
			<g>
				<path class="st10" d="M22.45,34.2c0.01,0,0.01,0,0.02,0.01c0.08,0.02,0.2-0.01,0.24-0.09c0,0,0-0.01,0.01-0.01
					c0.08-0.18-0.09-0.37-0.28-0.28c-0.04,0.02-0.07,0.06-0.1,0.1C22.26,34.03,22.34,34.16,22.45,34.2L22.45,34.2z"/>
			</g>
		</g>
		<g>
			<g>
				<path class="st10" d="M21.96,33.23c-0.03-0.03-0.05-0.05-0.09-0.07c-0.24-0.13-0.45,0.25-0.21,0.35c0,0,0,0,0.01,0
					C21.87,33.7,22.14,33.43,21.96,33.23L21.96,33.23z"/>
			</g>
		</g>
		<g>
			<g>
				<path class="st10" d="M20.94,32.47c-0.25,0-0.25,0.39,0,0.39S21.19,32.47,20.94,32.47L20.94,32.47z"/>
			</g>
		</g>
		<g>
			<g>
				<path class="st10" d="M19.08,32.69c0,0.01,0.01,0.01,0.01,0.02c0-0.04,0-0.08,0-0.11c0,0,0,0.01,0,0.01
					c-0.04,0.15,0.11,0.3,0.25,0.25c0.07-0.02,0.11-0.06,0.16-0.12c0.08-0.12,0-0.29-0.14-0.33C19.21,32.37,19.01,32.52,19.08,32.69
					L19.08,32.69z"/>
			</g>
		</g>
		<g>
			<g>
				<path class="st10" d="M18.5,33.03c-0.3,0-0.3,0.46,0,0.46C18.8,33.5,18.8,33.03,18.5,33.03L18.5,33.03z"/>
			</g>
		</g>
		<g>
			<g>
				<path class="st10" d="M17.89,33.67c-0.31,0-0.31,0.47,0,0.47C18.2,34.14,18.2,33.67,17.89,33.67L17.89,33.67z"/>
			</g>
		</g>
		<g>
			<g>
				<path class="st10" d="M17.28,34.42c-0.26,0-0.26,0.4,0,0.4C17.54,34.82,17.54,34.42,17.28,34.42L17.28,34.42z"/>
			</g>
		</g>
		<g>
			<g>
				<path class="st10" d="M16.36,35.37c0.04,0.09,0.09,0.15,0.2,0.15c0.13,0,0.23-0.13,0.19-0.25c-0.03-0.1-0.14-0.17-0.25-0.14
					C16.41,35.16,16.32,35.28,16.36,35.37L16.36,35.37z"/>
			</g>
		</g>
		<g>
			<g>
				<path class="st10" d="M15.91,35.8c-0.32,0-0.32,0.49,0,0.49C16.23,36.29,16.23,35.8,15.91,35.8L15.91,35.8z"/>
			</g>
		</g>
		<g>
			<g>
				<path class="st10" d="M15.14,36.54c-0.34,0-0.34,0.51,0,0.51C15.48,37.05,15.48,36.54,15.14,36.54L15.14,36.54z"/>
			</g>
		</g>
		<g>
			<g>
				<path class="st10" d="M14.61,37.33c-0.24,0-0.24,0.36,0,0.36C14.85,37.69,14.85,37.33,14.61,37.33L14.61,37.33z"/>
			</g>
		</g>
		<g>
			<g>
				<path class="st10" d="M14.08,37.95c-0.21,0-0.21,0.32,0,0.32C14.28,38.27,14.28,37.95,14.08,37.95L14.08,37.95z"/>
			</g>
		</g>
		<g>
			<g>
				<path class="st10" d="M13.51,38.71c-0.3,0-0.3,0.45,0,0.45C13.8,39.17,13.8,38.71,13.51,38.71L13.51,38.71z"/>
			</g>
		</g>
		<g>
			<g>
				<path class="st5" d="M21.5,49.39c-0.31,0.06-0.66,0.05-0.97,0.02c-0.28-0.03-0.92,0.06-0.66,0.5c0.2,0.34,0.76,0.27,1.09,0.22
					c0.33-0.04,0.74-0.2,0.78-0.56C21.75,49.44,21.61,49.37,21.5,49.39L21.5,49.39z"/>
			</g>
		</g>
		<g>
			<g>
				<path class="st10" d="M20.58,46.77c-0.19,0.18,0.11-0.12,0.13-0.15c0.05-0.08,0.08-0.17,0.1-0.26c0.04-0.16,0.03-0.33,0.01-0.5
					c-0.04-0.45-0.22-0.87-0.68-1.04c-0.55-0.2-1.09,0.52-0.77,0.98c0.04,0.06,0.09,0.12,0.14,0.17c-0.15-0.18-0.05-0.06-0.02-0.01
					c0.06,0.12-0.06-0.15-0.01-0.02c0.02,0.05,0.04,0.11,0.06,0.16c0.05,0.13,0.08,0.26,0.14,0.39c0.02,0.04,0.04,0.08,0.07,0.12
					c0.01,0.02,0.32,0.36,0.13,0.15C20.07,46.96,20.4,46.94,20.58,46.77L20.58,46.77z"/>
			</g>
		</g>
		<g>
			<g>
				<path class="st10" d="M22.86,56.2c0.34-0.38,0.59-0.82,0.84-1.26c0.26-0.44,0.54-1,0.42-1.52c-0.1-0.41-0.7-0.48-0.9-0.12
					c-0.23,0.42-0.31,0.96-0.47,1.41c-0.15,0.46-0.3,0.91-0.2,1.4C22.58,56.25,22.77,56.3,22.86,56.2L22.86,56.2z"/>
			</g>
		</g>
		<g>
			<g>
				<path class="st10" d="M21.39,56.25c0.4-0.46,0.5-1.12,0.64-1.7c0.12-0.51,0.26-1.1-0.22-1.45c-0.24-0.17-0.66-0.05-0.79,0.2
					c-0.17,0.34-0.09,0.81-0.12,1.19c-0.03,0.55-0.02,1.13,0.14,1.67C21.08,56.3,21.29,56.38,21.39,56.25L21.39,56.25z"/>
			</g>
		</g>
		<g>
			<g>
				<path class="st10" d="M19.76,56.26c0.37-0.83,0.42-1.94,0.43-2.84c0-0.74-1.14-0.74-1.16,0c-0.03,0.9-0.02,2,0.35,2.84
					C19.44,56.4,19.69,56.4,19.76,56.26L19.76,56.26z"/>
			</g>
		</g>
		<g>
			<g>
				<path class="st10" d="M18.4,56.27c0.13-0.42,0.04-0.84-0.02-1.27c-0.07-0.5-0.15-1.01-0.24-1.51C18.02,52.83,17,53,16.99,53.64
					c0,0.88,0.46,2.1,1.11,2.71C18.2,56.44,18.36,56.39,18.4,56.27L18.4,56.27z"/>
			</g>
		</g>
		<g>
			<g>
				<path class="st10" d="M16.71,56.11c0.2-0.55-0.29-1.16-0.47-1.66c-0.17-0.44-0.2-1.14-0.8-1.24c-0.43-0.07-0.75,0.24-0.68,0.67
					c0.06,0.33,0.35,0.77,0.53,1.05c0.27,0.41,0.72,1.05,1.18,1.26C16.57,56.26,16.67,56.22,16.71,56.11L16.71,56.11z"/>
			</g>
		</g>
		<g>
			<g>
				<path class="st5" d="M23.64,53.4c-0.31,0-0.31,0.47,0,0.47C23.95,53.87,23.95,53.4,23.64,53.4L23.64,53.4z"/>
			</g>
		</g>
		<g>
			<g>
				<path class="st5" d="M21.55,53.28c-0.32,0-0.32,0.49,0,0.49C21.87,53.76,21.87,53.28,21.55,53.28L21.55,53.28z"/>
			</g>
		</g>
		<g>
			<g>
				<path class="st5" d="M19.64,53.17c-0.35,0-0.35,0.54,0,0.54C19.99,53.71,19.99,53.17,19.64,53.17L19.64,53.17z"/>
			</g>
		</g>
		<g>
			<g>
				<path class="st5" d="M17.66,53.38c-0.32,0-0.32,0.5,0,0.5C17.98,53.88,17.98,53.38,17.66,53.38L17.66,53.38z"/>
			</g>
		</g>
		<g>
			<g>
				<path class="st5" d="M15.45,53.55c-0.3,0-0.3,0.45,0,0.45C15.75,54.01,15.75,53.55,15.45,53.55L15.45,53.55z"/>
			</g>
		</g>
		<g>
			<g>
				<path class="st5" d="M24.25,50.81c0,0.37,0.14,0.71,0.35,1.02c0.12,0.17,0.35,0.25,0.54,0.14c0.23-0.13,0.25-0.43,0.08-0.61
					c-0.22-0.23-0.41-0.46-0.63-0.68C24.46,50.55,24.24,50.64,24.25,50.81L24.25,50.81z"/>
			</g>
		</g>
		<g>
			<g>
				<path class="st5" d="M23.27,50.99c0.04,0.12,0.02,0.27,0.02,0.39c0.01,0.17,0,0.36,0.06,0.53c0.06,0.15,0.18,0.26,0.35,0.26
					c0.18,0,0.39-0.16,0.36-0.36c-0.02-0.2-0.07-0.39-0.12-0.58c-0.05-0.19-0.16-0.33-0.29-0.47C23.51,50.6,23.19,50.77,23.27,50.99
					L23.27,50.99z"/>
			</g>
		</g>
		<g>
			<g>
				<path class="st5" d="M22.05,50.85c0-0.07-0.03,0.1-0.04,0.12c-0.03,0.11-0.02,0.21-0.03,0.32c-0.01,0.17-0.04,0.33-0.06,0.5
					c-0.03,0.2,0.05,0.4,0.26,0.46c0.21,0.06,0.41-0.07,0.47-0.26c0.07-0.22,0.08-0.5,0.03-0.73c-0.02-0.13-0.05-0.25-0.12-0.36
					c-0.03-0.05-0.07-0.09-0.12-0.13c0,0-0.15-0.11-0.09-0.05C22.25,50.62,22.04,50.69,22.05,50.85L22.05,50.85z"/>
			</g>
		</g>
		<g>
			<g>
				<path class="st5" d="M20.81,50.74c-0.21,0.13-0.3,0.25-0.36,0.49c-0.06,0.23-0.07,0.51,0,0.74c0.1,0.35,0.66,0.38,0.74,0
					c0.05-0.22,0.02-0.45-0.02-0.68c-0.01-0.08-0.02-0.17-0.03-0.25c-0.01-0.04-0.02-0.07-0.04-0.11c0,0-0.07-0.18-0.05-0.09
					C21.04,50.74,20.91,50.68,20.81,50.74L20.81,50.74z"/>
			</g>
		</g>
		<g>
			<g>
				<path class="st5" d="M19.29,50.78c-0.17,0.1-0.25,0.26-0.31,0.45c-0.07,0.2-0.18,0.46-0.16,0.67c0.02,0.24,0.3,0.47,0.54,0.3
					c0.26-0.19,0.3-0.46,0.34-0.75c0.03-0.23-0.01-0.48-0.2-0.64C19.44,50.76,19.36,50.74,19.29,50.78L19.29,50.78z"/>
			</g>
		</g>
		<g>
			<g>
				<path class="st5" d="M18.02,50.71c-0.1,0.16-0.23,0.29-0.33,0.46c-0.1,0.17-0.19,0.34-0.28,0.51c-0.06,0.11-0.08,0.25,0,0.36
					c0.01,0.01,0.02,0.03,0.03,0.04c0.08,0.12,0.19,0.15,0.33,0.13c0.3-0.04,0.38-0.4,0.47-0.64c0.1-0.26,0.12-0.49,0.15-0.77
					C18.41,50.61,18.12,50.56,18.02,50.71L18.02,50.71z"/>
			</g>
		</g>
		<g>
			<g>
				<path class="st5" d="M16.49,50.75c-0.02,0.02-0.12,0.1-0.02,0.03c-0.06,0.04-0.09,0.07-0.13,0.13
					c-0.06,0.09-0.11,0.18-0.16,0.27c-0.12,0.2-0.29,0.42-0.31,0.65c-0.02,0.23,0.25,0.42,0.46,0.35c0.29-0.09,0.42-0.4,0.5-0.66
					c0.07-0.22,0.12-0.53-0.04-0.73C16.72,50.69,16.6,50.67,16.49,50.75L16.49,50.75z"/>
			</g>
		</g>
		<g>
			<g>
				<path class="st5" d="M14.93,50.75c-0.01,0.01-0.02,0.01-0.03,0.02c0.06-0.01,0.12-0.02,0.17-0.02c-0.25-0.04-0.45,0.14-0.61,0.3
					c-0.21,0.21-0.49,0.38-0.51,0.71c-0.01,0.2,0.14,0.33,0.31,0.4c0.38,0.16,0.72-0.25,0.87-0.53c0.12-0.22,0.25-0.62,0.03-0.82
					c0.02,0.05,0.04,0.1,0.07,0.16c0-0.01,0-0.02,0-0.03C15.22,50.78,15.07,50.66,14.93,50.75L14.93,50.75z"/>
			</g>
		</g>
		<g>
			<g>
				<path class="st5" d="M23.34,54.27c-0.35,0-0.35,0.53,0,0.53C23.69,54.8,23.69,54.27,23.34,54.27L23.34,54.27z"/>
			</g>
		</g>
		<g>
			<g>
				<path class="st5" d="M23.07,55.05c-0.25,0-0.25,0.38,0,0.38C23.32,55.44,23.32,55.05,23.07,55.05L23.07,55.05z"/>
			</g>
		</g>
		<g>
			<g>
				<path class="st5" d="M21.55,54.17c-0.33,0-0.33,0.51,0,0.51C21.88,54.67,21.88,54.17,21.55,54.17L21.55,54.17z"/>
			</g>
		</g>
		<g>
			<g>
				<path class="st5" d="M21.51,54.96c-0.27,0-0.27,0.41,0,0.41C21.78,55.38,21.78,54.96,21.51,54.96L21.51,54.96z"/>
			</g>
		</g>
		<g>
			<g>
				<path class="st5" d="M19.64,54.18c-0.27,0-0.27,0.41,0,0.41C19.91,54.59,19.91,54.18,19.64,54.18L19.64,54.18z"/>
			</g>
		</g>
		<g>
			<g>
				<path class="st5" d="M19.72,54.95c-0.29,0-0.29,0.44,0,0.44C20.01,55.39,20.01,54.95,19.72,54.95L19.72,54.95z"/>
			</g>
		</g>
		<g>
			<g>
				<path class="st5" d="M17.64,54.62c0.01,0.01,0.01,0.01,0.02,0.02c0.08,0.08,0.22,0.08,0.3,0c0.01-0.01,0.01-0.01,0.02-0.02
					c0.15-0.14,0.04-0.4-0.17-0.4S17.49,54.48,17.64,54.62L17.64,54.62z"/>
			</g>
		</g>
		<g>
			<g>
				<path class="st5" d="M18.08,55.03c-0.23,0-0.23,0.35,0,0.35C18.31,55.38,18.31,55.03,18.08,55.03L18.08,55.03z"/>
			</g>
		</g>
		<g>
			<g>
				<path class="st5" d="M15.68,54.65c0.26-0.01,0.28-0.39,0.02-0.39C15.44,54.26,15.44,54.66,15.68,54.65L15.68,54.65z"/>
			</g>
		</g>
		<g>
			<g>
				<path class="st5" d="M16.02,54.89c-0.32,0-0.32,0.48,0,0.48C16.34,55.38,16.34,54.89,16.02,54.89L16.02,54.89z"/>
			</g>
		</g>
		<g>
			<g>
				<path class="st11" d="M20.31,35.24c0-0.31,0.03-0.62,0.02-0.93c-0.01-0.25,0-0.61-0.28-0.73c-0.09-0.04-0.17-0.02-0.23,0.06
					c-0.16,0.21-0.05,0.51-0.01,0.74c0.05,0.3,0.09,0.61,0.16,0.91C20.01,35.47,20.31,35.43,20.31,35.24L20.31,35.24z"/>
			</g>
		</g>
		<g>
			<g>
				<path class="st11" d="M21.5,35.95c0.1-0.17,0.19-0.35,0.28-0.53c0.09-0.17,0.21-0.36,0.24-0.55c0.05-0.27-0.33-0.47-0.47-0.2
					c-0.09,0.18-0.16,0.38-0.24,0.56c-0.09,0.2-0.16,0.4-0.16,0.62C21.16,36.04,21.4,36.11,21.5,35.95L21.5,35.95z"/>
			</g>
		</g>
		<g>
			<g>
				<path class="st11" d="M22.64,36.49c0.21-0.12,0.44-0.26,0.52-0.49c0.06-0.17-0.14-0.28-0.29-0.22
					c-0.17,0.08-0.29,0.25-0.44,0.36C22.22,36.28,22.41,36.62,22.64,36.49L22.64,36.49z"/>
			</g>
		</g>
		<g>
			<g>
				<path class="st11" d="M18.98,35.86c0-0.17-0.09-0.36-0.16-0.52c-0.1-0.24-0.2-0.46-0.46-0.55c-0.21-0.07-0.38,0.15-0.33,0.33
					c0.05,0.2,0.19,0.37,0.3,0.53c0.11,0.17,0.27,0.36,0.5,0.36C18.91,36.01,18.98,35.94,18.98,35.86L18.98,35.86z"/>
			</g>
		</g>
		<g>
			<g>
				<path class="st11" d="M18.03,36.71c-0.09-0.19-0.24-0.36-0.4-0.49c-0.08-0.07-0.16-0.13-0.25-0.18
					c-0.13-0.08-0.24-0.07-0.38-0.07c-0.21,0-0.33,0.26-0.17,0.41c0.08,0.07,0.13,0.14,0.23,0.2c0.09,0.05,0.17,0.09,0.25,0.15
					c0.16,0.11,0.31,0.21,0.49,0.28C17.98,37.08,18.09,36.85,18.03,36.71L18.03,36.71z"/>
			</g>
		</g>
		<g>
			<g>
				<path class="st11" d="M16.99,37.55c-0.11-0.11-0.26-0.19-0.39-0.28c-0.06-0.05-0.13-0.09-0.19-0.14
					c-0.09-0.06-0.18-0.07-0.28-0.09c-0.21-0.05-0.34,0.19-0.21,0.35c0.07,0.08,0.12,0.15,0.21,0.21c0.08,0.06,0.17,0.1,0.25,0.14
					c0.16,0.08,0.35,0.14,0.53,0.08C17.03,37.77,17.08,37.64,16.99,37.55L16.99,37.55z"/>
			</g>
		</g>
		<g>
			<g>
				<path class="st11" d="M16.15,38.54c-0.08-0.14-0.24-0.27-0.37-0.37c-0.16-0.12-0.3-0.22-0.52-0.23
					c-0.23-0.02-0.33,0.28-0.18,0.43c0.12,0.12,0.27,0.19,0.42,0.26c0.14,0.07,0.34,0.15,0.51,0.14
					C16.13,38.76,16.22,38.65,16.15,38.54L16.15,38.54z"/>
			</g>
		</g>
		<g>
			<g>
				<path class="st11" d="M15.48,39.38c-0.22-0.23-0.5-0.49-0.84-0.5c-0.19-0.01-0.29,0.24-0.15,0.37c0.23,0.21,0.59,0.35,0.91,0.35
					C15.5,39.58,15.55,39.46,15.48,39.38L15.48,39.38z"/>
			</g>
		</g>
		<g>
			<g>
				<path class="st2" d="M8.45,28.99c0.36,0.03,0.4-0.36,0.05-0.39C8.14,28.57,8.09,28.96,8.45,28.99L8.45,28.99z"/>
			</g>
		</g>
		<g>
			<g>
				<path class="st2" d="M9.3,29.05c0.06,0.09,0.15,0.15,0.29,0.16c0.21,0.02,0.41-0.18,0.23-0.31c-0.02-0.02-0.05-0.03-0.07-0.05
					c-0.07-0.01-0.09-0.02-0.06-0.03C9.49,28.69,9.19,28.88,9.3,29.05L9.3,29.05z"/>
			</g>
		</g>
		<g>
			<g>
				<path class="st2" d="M10.48,29.28c0.32,0.03,0.37-0.33,0.04-0.35C10.2,28.89,10.16,29.25,10.48,29.28L10.48,29.28z"/>
			</g>
		</g>
		<g>
			<g>
				<path class="st2" d="M30.36,29.38c0.33-0.07,0.22-0.43-0.11-0.36C29.92,29.09,30.03,29.45,30.36,29.38L30.36,29.38z"/>
			</g>
		</g>
		<g>
			<g>
				<path class="st2" d="M31.35,28.74c-0.01,0-0.02,0-0.02,0c-0.18-0.02-0.37,0.09-0.33,0.23c0.04,0.14,0.27,0.16,0.42,0.07
					c0.01,0,0.01-0.01,0.02-0.01C31.58,28.94,31.52,28.75,31.35,28.74L31.35,28.74z"/>
			</g>
		</g>
		<g>
			<g>
				<path class="st2" d="M16.52,27.84c0.16,0,0.16-0.18,0-0.18S16.36,27.84,16.52,27.84L16.52,27.84z"/>
			</g>
		</g>
		<g>
			<g>
				<path class="st2" d="M30.47,27.99c0.24,0,0.24-0.27,0-0.27C30.22,27.73,30.22,27.99,30.47,27.99L30.47,27.99z"/>
			</g>
		</g>
		<g>
			<g>
				<path class="st2" d="M17.15,25.34c0.22,0.03,0.56,0.09,0.76-0.02c0.06-0.03,0.06-0.1,0-0.13c-0.2-0.11-0.53-0.05-0.76-0.02
					C17.04,25.18,17.04,25.33,17.15,25.34L17.15,25.34z"/>
			</g>
		</g>
		<g>
			<g>
				<path class="st2" d="M14.3,26.51c0.1,0.05,0.22,0.08,0.33,0.11c0.06,0.01,0.12,0.02,0.18,0.03c0.05,0.01,0.09,0.02,0.15,0.02
					c0.04,0,0.08-0.03,0.06-0.06c-0.08-0.15-0.42-0.18-0.59-0.25C14.29,26.3,14.17,26.45,14.3,26.51L14.3,26.51z"/>
			</g>
		</g>
		<g>
			<g>
				<path class="st2" d="M15.97,28.38c0.01,0.14-0.01,0.36,0.2,0.44c0.09,0.03,0.23,0.01,0.25-0.07c0.04-0.14-0.1-0.3-0.22-0.41
					C16.13,28.28,15.97,28.29,15.97,28.38L15.97,28.38z"/>
			</g>
		</g>
		<g>
			<g>
				<path class="st2" d="M22.26,25.54c0.1,0.07,0.19,0.14,0.28,0.21c0.09,0.07,0.17,0.15,0.3,0.15c0.04,0,0.08-0.04,0.06-0.07
					c-0.03-0.09-0.13-0.15-0.21-0.21c-0.09-0.07-0.18-0.14-0.28-0.21C22.3,25.34,22.15,25.47,22.26,25.54L22.26,25.54z"/>
			</g>
		</g>
		<g>
			<g>
				<path class="st2" d="M21.37,26.83c0.07,0.07,0.23,0.3,0.39,0.23c0.16-0.07-0.1-0.27-0.16-0.33
					C21.51,26.62,21.27,26.72,21.37,26.83L21.37,26.83z"/>
			</g>
		</g>
		<g>
			<path class="st5" d="M33.97,33.03c-0.59,0.17,0.05,4.18-2.88,5.72c-0.53,0.28-1.39,0.28-1.9-0.05c-0.16-0.11-0.28-0.24-0.39-0.37
				c-0.74-0.93-1.05-1.98-1.08-3.02c-0.03-1.04,0.22-2.06,0.52-3.07c-0.67-0.19-1.36-0.43-1.77-0.84c-0.52-0.53-0.44-1.25,0.02-1.78
				c0.47-0.52,1.26-0.87,2.1-1.1c0.21-0.06,0.42-0.11,0.65-0.13c0.35-0.03,0.71,0.02,1.07,0.08c1.09,0.17,2.17,0.36,3.24,0.57
				c0.19,0.04,2.07,0.11,2.42,1.32C36.46,32,35.76,32.52,33.97,33.03z"/>
		</g>
		<g>
			<g>
				<path class="st10" d="M20.16,31.91c-0.01,0-0.02-0.01-0.02-0.01c-0.19-0.09-0.41,0.09-0.3,0.25c0,0.01,0.01,0.01,0.01,0.02
					c0.07,0.11,0.26,0.12,0.36,0.04C20.31,32.12,20.29,31.97,20.16,31.91L20.16,31.91z"/>
			</g>
		</g>
		<g>
			<g>
				<path class="st11" d="M33.4,32.59c0.75-0.21,1.19-0.64,1.43-1.17c0.23-0.51,0.23-1.39-0.56-1.71c-0.42-0.17-1.1-0.01-0.95,0.39
					c0.13,0.35,0.35,0.61,0.33,0.99c-0.02,0.37-0.22,0.82-0.67,1.03C32.59,32.3,33,32.7,33.4,32.59L33.4,32.59z"/>
			</g>
		</g>
		<g>
			<g>
				<path class="st11" d="M31.49,32.07c0,0,0.01,0,0.01,0.01c0.11,0.05,0.28,0.07,0.38,0c0.82-0.52,0.84-1.69,0.47-2.39
					c-0.15-0.28-0.73-0.23-0.86,0c-0.25,0.43-0.07,0.94-0.03,1.4c0.02,0.22,0.01,0.42-0.03,0.64
					C31.42,31.83,31.29,31.98,31.49,32.07L31.49,32.07z"/>
			</g>
		</g>
		<g>
			<g>
				<path class="st11" d="M30.09,31.75c0.13-0.37,0.11-0.77,0.18-1.15c0.08-0.43,0.31-0.81,0.45-1.22c0.12-0.37-0.63-0.48-0.92-0.26
					c-0.74,0.59-0.75,2-0.13,2.67C29.77,31.9,30.05,31.87,30.09,31.75L30.09,31.75z"/>
			</g>
		</g>
		<g>
			<g>
				<path class="st11" d="M28.49,31.2c-0.18-0.48-0.45-0.99-0.02-1.42c0.26-0.27,0.77-0.39,0.72-0.77c-0.01-0.07-0.1-0.11-0.19-0.12
					c-0.66-0.11-1.26,0.43-1.51,0.77c-0.36,0.48,0.02,1.31,0.57,1.67C28.22,31.44,28.57,31.39,28.49,31.2L28.49,31.2z"/>
			</g>
		</g>
		<g>
			<g>
				<path class="st10" d="M30.24,37.96c-0.21-0.02-0.25,0.26-0.04,0.28C30.42,38.25,30.46,37.98,30.24,37.96L30.24,37.96z"/>
			</g>
		</g>
		<g>
			<g>
				<path class="st10" d="M31.12,37.39c-0.32-0.03-0.37,0.38-0.05,0.41C31.38,37.83,31.44,37.42,31.12,37.39L31.12,37.39z"/>
			</g>
		</g>
		<g>
			<g>
				<path class="st10" d="M29.97,37.11c-0.19-0.02-0.22,0.23-0.03,0.24C30.12,37.37,30.15,37.13,29.97,37.11L29.97,37.11z"/>
			</g>
		</g>
		<g>
			<g>
				<path class="st10" d="M31.88,36.52c-0.03-0.06-0.07-0.09-0.14-0.11c-0.13-0.06-0.31,0.06-0.27,0.18c0,0,0,0.01,0,0.01
					c0-0.03,0.01-0.06,0.01-0.09c0,0,0,0.01-0.01,0.02c-0.06,0.11,0.04,0.24,0.18,0.25C31.83,36.79,31.95,36.65,31.88,36.52
					L31.88,36.52z"/>
			</g>
		</g>
		<g>
			<g>
				<path class="st10" d="M32.17,35.48c-0.01,0-0.02,0.01-0.03,0.01c-0.13,0.03-0.15,0.22-0.03,0.27c0.01,0,0.02,0.01,0.03,0.01
					c0.13,0.06,0.3,0.02,0.32-0.12C32.48,35.52,32.32,35.45,32.17,35.48L32.17,35.48z"/>
			</g>
		</g>
		<g>
			<g>
				<path class="st10" d="M30.46,35.45c0.07-0.01,0.11-0.03,0.16-0.08c0.11-0.12-0.06-0.3-0.23-0.24c0,0-0.01,0-0.02,0.01
					c0.05,0,0.1,0,0.15,0c-0.01,0-0.01,0-0.02,0c-0.12-0.03-0.25,0.02-0.27,0.14C30.22,35.37,30.33,35.47,30.46,35.45L30.46,35.45z"
					/>
			</g>
		</g>
		<g>
			<g>
				<path class="st10" d="M29.67,36.07c-0.21-0.02-0.24,0.26-0.03,0.27C29.85,36.37,29.88,36.09,29.67,36.07L29.67,36.07z"/>
			</g>
		</g>
		<g>
			<g>
				<path class="st10" d="M29.2,36.85c-0.01,0-0.01-0.01-0.02-0.01c-0.13-0.08-0.32,0.04-0.25,0.17c0,0.01,0.01,0.01,0.01,0.02
					C29.06,37.24,29.43,36.99,29.2,36.85L29.2,36.85z"/>
			</g>
		</g>
		<g>
			<g>
				<path class="st10" d="M29.4,37.79c0-0.01,0-0.02,0-0.03c-0.02-0.14-0.27-0.16-0.32-0.03c0,0.01-0.01,0.02-0.01,0.03
					C28.97,37.99,29.43,38.03,29.4,37.79L29.4,37.79z"/>
			</g>
		</g>
		<g>
			<g>
				<path class="st10" d="M28.84,35.46c0.01-0.04,0-0.08-0.02-0.12c-0.09-0.13-0.35-0.09-0.32,0.08c0,0.02,0.01,0.03,0.01,0.05
					C28.55,35.63,28.82,35.62,28.84,35.46L28.84,35.46z"/>
			</g>
		</g>
		<g>
			<g>
				<path class="st10" d="M29.08,34.08c-0.01,0-0.01,0-0.02,0c-0.12,0-0.18,0.05-0.21,0.14c0,0.01,0,0.01,0,0.02
					c-0.04,0.16,0.22,0.25,0.35,0.16C29.32,34.31,29.27,34.08,29.08,34.08L29.08,34.08z"/>
			</g>
		</g>
		<g>
			<g>
				<path class="st10" d="M30.97,34.07c-0.04-0.06-0.07-0.09-0.15-0.12c-0.15-0.05-0.32,0.06-0.29,0.2c0,0,0,0.01,0,0.01
					c0.01-0.05,0.03-0.09,0.04-0.14c0,0-0.01,0.01-0.01,0.01c-0.09,0.13-0.03,0.3,0.17,0.31C30.9,34.37,31.06,34.21,30.97,34.07
					L30.97,34.07z"/>
			</g>
		</g>
		<g>
			<g>
				<path class="st10" d="M32.19,34.04c-0.27-0.02-0.32,0.33-0.04,0.36C32.42,34.42,32.47,34.06,32.19,34.04L32.19,34.04z"/>
			</g>
		</g>
		<g>
			<g>
				<path class="st10" d="M33.33,33.18c0-0.01,0-0.02,0-0.03c-0.01-0.16-0.32-0.18-0.37-0.03c0,0.01-0.01,0.02-0.01,0.03
					C32.87,33.41,33.35,33.45,33.33,33.18L33.33,33.18z"/>
			</g>
		</g>
		<g>
			<g>
				<path class="st10" d="M31.93,32.6c-0.1-0.09-0.21-0.13-0.36-0.08c-0.14,0.05-0.16,0.19-0.08,0.29c0.02,0.02,0.04,0.04,0.06,0.05
					C31.76,33.05,32.13,32.8,31.93,32.6L31.93,32.6z"/>
			</g>
		</g>
		<g>
			<g>
				<path class="st10" d="M30.39,33.1C30.39,33.1,30.39,33.1,30.39,33.1c-0.16-0.04-0.33,0.12-0.21,0.23
					c0.04,0.03,0.07,0.05,0.12,0.07C30.55,33.5,30.67,33.1,30.39,33.1L30.39,33.1z"/>
			</g>
		</g>
		<g>
			<g>
				<path class="st10" d="M29.07,33.27c-0.2-0.02-0.23,0.24-0.03,0.26C29.23,33.54,29.27,33.28,29.07,33.27L29.07,33.27z"/>
			</g>
		</g>
		<g>
			<g>
				<path class="st10" d="M28.8,32.05c-0.3-0.03-0.35,0.37-0.05,0.39C29.05,32.47,29.1,32.07,28.8,32.05L28.8,32.05z"/>
			</g>
		</g>
		<g>
			<g>
				<path class="st10" d="M30.43,32.47c-0.08-0.08-0.17-0.12-0.3-0.1c-0.21,0.03-0.24,0.24-0.1,0.34c0.01,0.01,0.02,0.02,0.03,0.01
					C30.26,32.92,30.64,32.67,30.43,32.47L30.43,32.47z"/>
			</g>
		</g>
		<g>
			<g>
				<path class="st10" d="M31.44,34.55c-0.01,0-0.01,0-0.02,0c-0.18,0.04-0.25,0.22-0.09,0.32c0.01,0,0.01,0.01,0.02,0.01
					c0.12,0.07,0.29,0.03,0.34-0.08C31.74,34.68,31.61,34.51,31.44,34.55L31.44,34.55z"/>
			</g>
		</g>
		<g>
			<g>
				<path class="st10" d="M30.94,31.74c0-0.01,0-0.02,0-0.03c-0.01-0.15-0.31-0.18-0.35-0.03c0,0.01-0.01,0.02-0.01,0.03
					C30.5,31.96,30.95,31.99,30.94,31.74L30.94,31.74z"/>
			</g>
		</g>
		<g>
			<g>
				<path class="st10" d="M34.25,31.09c-0.29-0.03-0.33,0.29-0.04,0.32C34.5,31.44,34.54,31.12,34.25,31.09L34.25,31.09z"/>
			</g>
		</g>
		<g>
			<g>
				<path class="st10" d="M32.05,30.56c-0.22-0.02-0.25,0.22-0.03,0.24C32.24,30.82,32.27,30.58,32.05,30.56L32.05,30.56z"/>
			</g>
		</g>
		<g>
			<g>
				<path class="st10" d="M29.64,30.3c-0.01,0-0.02,0.01-0.03,0.01c-0.13,0.03-0.14,0.17-0.03,0.22c0.01,0,0.02,0.01,0.03,0.01
					c0.13,0.06,0.31,0.02,0.32-0.09C29.95,30.34,29.78,30.26,29.64,30.3L29.64,30.3z"/>
			</g>
		</g>
		<g>
			<g>
				<path class="st10" d="M27.86,29.76c-0.29-0.03-0.33,0.29-0.04,0.31C28.11,30.1,28.15,29.79,27.86,29.76L27.86,29.76z"/>
			</g>
		</g>
		<g>
			<g>
				<path class="st10" d="M12.09,29.58c-0.03,0-0.07,0-0.1,0.01c-0.29,0.08-0.21,0.36,0.1,0.31c0.03,0,0.06-0.02,0.09-0.03
					C12.39,29.8,12.32,29.57,12.09,29.58L12.09,29.58z"/>
			</g>
		</g>
		<g>
			<g>
				<path class="st10" d="M9.79,30.44C9.79,30.44,9.79,30.43,9.79,30.44c0.06-0.06,0.06-0.14,0.02-0.19
					c-0.06-0.08-0.17-0.09-0.29-0.08c0,0-0.01,0-0.01,0c-0.23,0.03-0.27,0.27-0.09,0.33c0,0,0.01,0,0.01,0
					c-0.04-0.04-0.08-0.07-0.11-0.11c0,0,0,0,0,0.01C9.39,30.55,9.65,30.59,9.79,30.44L9.79,30.44z"/>
			</g>
		</g>
		<g>
			<g>
				<path class="st2" d="M24.27,33.46c-0.05-0.14-0.07-0.34-0.24-0.43c-0.04-0.02-0.1,0.01-0.1,0.05c0,0.14,0.1,0.29,0.15,0.42
					C24.12,33.6,24.3,33.56,24.27,33.46L24.27,33.46z"/>
			</g>
		</g>
		<g>
			<g>
				<path class="st2" d="M26.27,31.75c-0.16-0.12-0.41-0.22-0.63-0.18c-0.05,0.01-0.07,0.07-0.05,0.1c0.11,0.15,0.33,0.14,0.47,0.25
					C26.21,32.02,26.41,31.85,26.27,31.75L26.27,31.75z"/>
			</g>
		</g>
		<g>
			<g>
				<path class="st2" d="M29.39,27.63c-0.22-0.03-0.56-0.09-0.76,0.02c-0.06,0.03-0.06,0.1,0,0.13c0.2,0.11,0.53,0.05,0.76,0.02
					C29.5,27.79,29.5,27.64,29.39,27.63L29.39,27.63z"/>
			</g>
		</g>
		<g>
			<g>
				<path class="st2" d="M24.82,35.06c0.07-0.08,0.15-0.15,0.22-0.23c0.04-0.04,0.07-0.08,0.1-0.12c0.04-0.05,0.06-0.1,0.08-0.16
					c0.05-0.11-0.13-0.22-0.24-0.15c-0.05,0.03-0.09,0.04-0.13,0.08c-0.04,0.05-0.09,0.1-0.12,0.15c-0.06,0.1-0.09,0.21-0.11,0.33
					C24.61,35.05,24.74,35.15,24.82,35.06L24.82,35.06z"/>
			</g>
		</g>
		<g>
			<g>
				<path class="st2" d="M25.51,30.89c-0.1-0.05-0.22-0.08-0.33-0.11c-0.06-0.01-0.12-0.02-0.17-0.03
					c-0.05-0.01-0.09-0.02-0.15-0.02c-0.04,0-0.08,0.03-0.06,0.06c0.08,0.15,0.42,0.18,0.59,0.25
					C25.52,31.09,25.64,30.94,25.51,30.89L25.51,30.89z"/>
			</g>
		</g>
		<g>
			<g>
				<path class="st2" d="M9.84,33.87c-0.28-0.1-0.56-0.2-0.87-0.14c-0.05,0.01-0.07,0.08-0.02,0.11c0.26,0.11,0.53,0.12,0.81,0.18
					C9.87,34.04,9.94,33.91,9.84,33.87L9.84,33.87z"/>
			</g>
		</g>
		<g>
			<g>
				<path class="st2" d="M13.01,22.57c-0.15-0.01-0.5-0.14-0.6,0.01c-0.01,0.02-0.02,0.05,0,0.07c0.07,0.08,0.17,0.06,0.27,0.07
					c0.11,0.01,0.24,0,0.35-0.01C13.13,22.69,13.1,22.57,13.01,22.57L13.01,22.57z"/>
			</g>
		</g>
		<g>
			<g>
				<path class="st2" d="M10.51,33.5c0.02-0.16,0.01-0.61-0.29-0.59c-0.15,0.01-0.13,0.16-0.1,0.25c0.03,0.12,0.1,0.22,0.11,0.34
					C10.24,33.65,10.5,33.65,10.51,33.5L10.51,33.5z"/>
			</g>
		</g>
		<g>
			<g>
				<path class="st2" d="M13.6,24.28c-0.1-0.07-0.19-0.14-0.28-0.21c-0.09-0.07-0.18-0.15-0.3-0.15c-0.04,0-0.07,0.04-0.06,0.07
					c0.03,0.09,0.13,0.15,0.21,0.21c0.09,0.07,0.18,0.14,0.28,0.21C13.55,24.48,13.71,24.35,13.6,24.28L13.6,24.28z"/>
			</g>
		</g>
		<g>
			<g>
				<path class="st2" d="M27.41,36.46c-0.07-0.14-0.17-0.36-0.36-0.4c-0.04-0.01-0.09,0.02-0.09,0.06c0.01,0.15,0.16,0.27,0.22,0.4
					C27.24,36.62,27.46,36.57,27.41,36.46L27.41,36.46z"/>
			</g>
		</g>
		<g>
			<path class="st5" d="M19.17,2.11c0.18-0.35,0.38-0.71,0.7-0.94c0.05-0.04,0.11-0.07,0.17-0.07c0.09,0,0.16,0.06,0.22,0.12
				c0.7,0.62,1.27,1.39,1.65,2.24c0.02,0.05,0.05,0.12,0.01,0.16c-0.02,0.03-0.06,0.04-0.1,0.04c-1.07,0.2-2.19,0.21-3.26,0.01
				c-0.04-0.01-0.07-0.01-0.1-0.04c-0.06-0.06-0.02-0.15,0.01-0.22C18.72,2.97,18.95,2.54,19.17,2.11z"/>
		</g>
		<g>
			<path class="st5" d="M16.86,17.42c-0.21,0.13-0.41,0.27-0.59,0.43c-0.63,0.55-1.2,1.11-2.74,2.51c-0.49,0.45-0.95,0.56-0.84,0.88
				c0.15,0.42,0.82,1.71,3.84,4.8c0.92,0.94,2.2,2.35,3.3,2.43c0.89,0.06,1.78-1.19,3.85-3.4c1.17-1.24,2.61-2.63,3.41-4.13
				c0.06-0.11,0.12-0.23,0.13-0.35c0.03-0.34-0.28-0.61-0.56-0.82c-1.09-0.84-2.08-1.84-2.72-3.05c-0.3-0.56-0.52-1.17-0.65-1.79
				c-0.02-0.09-0.04-0.18-0.11-0.24c-0.1-0.09-0.27-0.06-0.4-0.01C20.69,15.31,18.7,16.24,16.86,17.42z"/>
		</g>
		<g>
			<path class="st6" d="M14.98,8.92c-0.12,0.13-0.07,0.32-0.02,0.49c0.24,0.77,0.36,1.58,0.35,2.38c0,0.22-0.02,0.46-0.12,0.65
				c-0.16,0.29-0.67,0.58-0.92,0.81c-0.19,0.18-0.36,0.21-0.4,0.47c-0.02,0.13,0.16,0.16,0.19,0.21c0.03,0.04,0.08,0.06,0.13,0.07
				c0.31,0.07,0.62,0.14,0.93,0.22c0.11,0.36-0.12,0.74-0.21,1.11c-0.15,0.62-0.29,1.26-0.22,1.9c0.07,0.64,0.38,1.28,0.94,1.6
				c0.36,0.21,0.79,0.26,1.2,0.27c2.19,0.04,4.33-1.3,5.23-3.26c0.2-0.45,0.35-0.92,0.47-1.39c0.21-0.82,0.36-1.66,0.32-2.5
				c-0.04-0.84-0.27-1.69-0.77-2.38c-0.66-0.91-1.74-1.47-2.85-1.66c-1.12-0.18-2.27-0.02-3.35,0.3c-0.25,0.08-0.5,0.16-0.7,0.33
				c-0.2,0.17-0.32,0.45-0.24,0.69L14.98,8.92z"/>
		</g>
		<g>
			<path class="st0" d="M21.51,11.74c-1.21,0.68-2.9,0.81-4.14,0.2c-0.07-0.04-0.15-0.1-0.13-0.17c0.51-0.55,1.3-0.79,2.06-0.74
				C20.05,11.07,20.89,11.31,21.51,11.74z"/>
		</g>
		<g>
			<path class="st5" d="M19.15,11.28c-0.26,0.07-0.3,0.48-0.12,0.67c0.18,0.2,0.5,0.23,0.76,0.13c0.08-0.03,0.16-0.07,0.21-0.14
				c0.11-0.15,0.06-0.38-0.08-0.51C19.79,11.31,19.66,11.13,19.15,11.28z"/>
		</g>
		<g>
			<path class="st2" d="M15.78,14.46c0-0.12-0.12-0.21-0.24-0.18c-0.62,0.13-1.14,0.5-1.56,0.98c-0.47,0.54-0.84,0.95-0.81,1.65
				c0.24,0.1,1.3-0.02,2.38-1.64C15.71,15.04,15.78,14.75,15.78,14.46z"/>
		</g>
		<g>
			<path class="st2" d="M15.96,14.62c0.01-0.13,0.04-0.28,0.16-0.33c0.07-0.03,0.16-0.01,0.24,0.01c1.51,0.46,2.21,1.25,2.76,2.33
				c0.03,0.06,0,0.14-0.07,0.16c-0.38,0.09-1.03,0.27-1.98-0.17c-0.12-0.06-0.24-0.13-0.34-0.22
				C16.22,15.96,15.94,15.29,15.96,14.62z"/>
		</g>
		<g>
			<path class="st2" d="M18.15,22.85c-0.53,0.06-0.88,0.09-1.58-0.07c-0.52-0.12-0.91-0.33-1.5-1.04c-0.42-0.51-0.51-0.75-0.61-1.65
				c-0.1-0.85,0.12-2.36,0.46-2.63c0.4,1.01,1.42,1.57,2.24,1.59c0.82,0.03,1.7-0.26,2.43-0.62c0.66-0.33,0.8-0.48,1.39-0.81
				c0.21,1.48-0.04,2.59-0.75,3.9c-0.18,0.33-0.53,0.63-0.83,0.86C19,22.66,18.63,22.79,18.15,22.85z"/>
		</g>
		<g>
			<path class="st2" d="M27.13,19.24c0.79-0.09,1.66-0.62,2.14-1.25s0.8-1.24,0.95-2.01c0.18-0.87,0.02-1.93-0.38-2.74
				c-0.18-0.37-0.45-0.7-0.72-1.02c-0.44-0.53-0.88-1.06-1.39-1.54c-1.12-1.05-2.52-1.81-4.02-2.16c-0.88-0.21-1.85-0.27-2.64,0.15
				c-0.16,0.08-0.32,0.19-0.42,0.34C20.54,9.19,20.5,9.4,20.48,9.6c-0.37,3.19,1.11,6.33,3.11,8.4c0.25,0.26,0.88,0.73,1.21,0.9
				C26.07,19.54,26.66,19.3,27.13,19.24z"/>
		</g>
		<g>
			<path class="st2" d="M23.91,3.03c0.21,0.09,0.36,0.27,0.5,0.44c1.06,1.3,1.86,2.8,2.36,4.4c-0.9,0.16-1.83,0.08-2.75,0.04
				c-1.48-0.06-2.96-0.03-4.43,0c-1.76,0.04-3.51,0.07-5.27,0.11c-0.23,0-0.49-0.01-0.62-0.2c-0.17-0.25,0.05-0.57,0.25-0.79
				c0.88-0.97,1.67-2.36,2.32-3.48c0.08-0.14,0.17-0.29,0.31-0.37c0.1-0.06,0.33-0.09,0.33-0.09c2.62-0.06,4.23-0.13,6.36-0.15
				C23.49,2.94,23.71,2.94,23.91,3.03z"/>
		</g>
		<g>
			<defs>
				<path id="SVGID_00000008834839667736760670000017053803015517851306_" d="M15.78,14.46c0-0.12-0.12-0.21-0.24-0.18
					c-0.62,0.13-1.14,0.5-1.56,0.98c-0.47,0.54-0.84,0.95-0.81,1.65c0.24,0.1,1.3-0.02,2.38-1.64
					C15.71,15.04,15.78,14.75,15.78,14.46z"/>
			</defs>
			<clipPath id="SVGID_00000178179263874450753020000016665577479716433297_">
				<use xlink:href="#SVGID_00000008834839667736760670000017053803015517851306_"  style="overflow:visible;"/>
			</clipPath>
			<g style="clip-path:url(#SVGID_00000178179263874450753020000016665577479716433297_);">
				<g>
					<path class="st4" d="M15.77,14.16c-0.6,0.37-1.19,0.71-1.69,1.21c-0.5,0.5-0.9,1.25-1.18,1.89c-0.03,0.07,0.05,0.14,0.11,0.09
						c0.45-0.4,0.71-1,1.05-1.48c0.46-0.65,1.21-1.06,1.76-1.64C15.85,14.19,15.81,14.14,15.77,14.16L15.77,14.16z"/>
				</g>
			</g>
			<g style="clip-path:url(#SVGID_00000178179263874450753020000016665577479716433297_);">
				<g>
					<path class="st4" d="M15.85,14.5c-0.64,0.63-1.96,1.31-1.91,2.37c0,0.09,0.12,0.15,0.19,0.08c0.33-0.35,0.5-0.82,0.82-1.18
						c0.36-0.4,0.77-0.69,1.02-1.17C16.02,14.52,15.92,14.44,15.85,14.5L15.85,14.5z"/>
				</g>
			</g>
		</g>
		<g>
			<defs>
				<path id="SVGID_00000121240946955147241110000004559379189495246227_" d="M15.96,14.62c0.01-0.13,0.04-0.28,0.16-0.33
					c0.07-0.03,0.16-0.01,0.24,0.01c1.51,0.46,2.21,1.25,2.76,2.33c0.03,0.06,0,0.14-0.07,0.16c-0.38,0.09-1.03,0.27-1.98-0.17
					c-0.12-0.06-0.24-0.13-0.34-0.22C16.22,15.96,15.94,15.29,15.96,14.62z"/>
			</defs>
			<clipPath id="SVGID_00000029752752678257240890000004183533838219838385_">
				<use xlink:href="#SVGID_00000121240946955147241110000004559379189495246227_"  style="overflow:visible;"/>
			</clipPath>
			<g style="clip-path:url(#SVGID_00000029752752678257240890000004183533838219838385_);">
				<g>
					<path class="st4" d="M15.95,14.43c0.42,0.58,1.17,0.93,1.71,1.41c0.35,0.31,0.68,0.63,0.99,0.98c0.31,0.34,0.51,0.75,0.82,1.08
						c0.05,0.05,0.16,0.02,0.15-0.06c-0.07-0.7-0.68-1.32-1.16-1.81c-0.33-0.33-0.71-0.62-1.08-0.91c-0.4-0.31-0.93-0.46-1.3-0.78
						C16.01,14.28,15.9,14.35,15.95,14.43L15.95,14.43z"/>
				</g>
			</g>
			<g style="clip-path:url(#SVGID_00000029752752678257240890000004183533838219838385_);">
				<g>
					<path class="st4" d="M15.54,14.98c0.54,0.3,0.92,0.78,1.36,1.2c0.49,0.47,1.03,0.89,1.42,1.45c0.04,0.05,0.12,0.02,0.1-0.04
						c-0.13-0.68-0.57-1.16-1.09-1.59c-0.54-0.45-1.04-0.94-1.71-1.19C15.52,14.77,15.45,14.93,15.54,14.98L15.54,14.98z"/>
				</g>
			</g>
		</g>
		<g>
			<defs>
				<path id="SVGID_00000098920970882446555690000000607735044823683997_" d="M18.15,22.85c-0.53,0.06-0.88,0.09-1.58-0.07
					c-0.52-0.12-0.91-0.33-1.5-1.04c-0.42-0.51-0.51-0.75-0.61-1.65c-0.1-0.85,0.12-2.36,0.46-2.63c0.4,1.01,1.42,1.57,2.24,1.59
					c0.82,0.03,1.7-0.26,2.43-0.62c0.66-0.33,0.8-0.48,1.39-0.81c0.21,1.48-0.04,2.59-0.75,3.9c-0.18,0.33-0.53,0.63-0.83,0.86
					C19,22.66,18.63,22.79,18.15,22.85z"/>
			</defs>
			<clipPath id="SVGID_00000043454644024389921760000003223621489834201535_">
				<use xlink:href="#SVGID_00000098920970882446555690000000607735044823683997_"  style="overflow:visible;"/>
			</clipPath>
			<g style="clip-path:url(#SVGID_00000043454644024389921760000003223621489834201535_);">
				<g>
					<path class="st4" d="M14.42,17.27c1.35,0.38,0.03,2.28-0.18,2.97c-0.24,0.8,0.56,1.9,0.76,2.64c0.03,0.11,0.2,0.11,0.22,0
						c0.12-0.56-0.04-0.97-0.28-1.48c-0.32-0.68-0.34-1.21,0.11-1.86c0.13-0.19,0.34-0.4,0.36-0.65c0.04-0.64-0.04-1.89-0.96-1.79
						C14.35,17.1,14.32,17.24,14.42,17.27L14.42,17.27z"/>
				</g>
			</g>
			<g style="clip-path:url(#SVGID_00000043454644024389921760000003223621489834201535_);">
				<g>
					<path class="st4" d="M15.41,17.57c0.31,0.59,0.63,1.4,0.25,2.04c-0.18,0.31-0.51,0.58-0.53,0.96
						c-0.03,0.48,0.12,0.85,0.35,1.26c0.52,0.94,0.32,1.48,0.1,2.43c-0.03,0.13,0.12,0.21,0.22,0.13c0.49-0.4,0.67-0.91,0.68-1.52
						c0.02-0.94-1.21-1.63-0.62-2.6c0.34-0.56,0.58-0.82,0.48-1.51c-0.07-0.55-0.24-1.1-0.78-1.34
						C15.46,17.38,15.36,17.47,15.41,17.57L15.41,17.57z"/>
				</g>
			</g>
			<g style="clip-path:url(#SVGID_00000043454644024389921760000003223621489834201535_);">
				<g>
					<path class="st4" d="M16.51,17.95c0.27,0.46,0.39,1.05,0.31,1.58c-0.08,0.5-0.39,0.84-0.41,1.36c-0.02,0.34,0.25,0.73,0.41,1
						c0.59,0.99,0.38,1.62,0.07,2.64c-0.03,0.11,0.1,0.22,0.21,0.16c0.49-0.31,0.75-0.82,0.75-1.42c0-0.96-1.09-1.93-0.84-2.84
						c0.16-0.56,0.81-2.59-0.44-2.58C16.51,17.85,16.48,17.9,16.51,17.95L16.51,17.95z"/>
				</g>
			</g>
			<g style="clip-path:url(#SVGID_00000043454644024389921760000003223621489834201535_);">
				<g>
					<path class="st4" d="M17.56,18.11c0.45,0.87,0.22,1.17-0.03,1.98c-0.07,0.25-0.16,0.53-0.05,0.78c0.23,0.5,0.63,0.9,0.92,1.37
						c0.46,0.72-0.11,1.24-0.1,1.89c0,0.11,0.13,0.19,0.22,0.13c0.99-0.63,0.8-1.75,0.25-2.61c-0.12-0.19-0.32-0.42-0.46-0.59
						c-0.48-0.6-0.04-1.1,0.06-1.69c0.1-0.58-0.21-1.06-0.64-1.4C17.63,17.9,17.5,17.99,17.56,18.11L17.56,18.11z"/>
				</g>
			</g>
			<g style="clip-path:url(#SVGID_00000043454644024389921760000003223621489834201535_);">
				<g>
					<path class="st4" d="M18.68,17.98c0.36,0.81,0.31,1.4,0.15,2.22c-0.05,0.27,0.04,0.51,0.14,0.75c0.09,0.23,0.26,0.44,0.42,0.63
						c0.59,0.71,0.66,1.16,0.61,2.03c-0.01,0.17,0.23,0.26,0.34,0.14c0.71-0.78,0.3-1.62-0.31-2.36c-0.6-0.72-0.61-1.2-0.5-2.07
						c0.07-0.56-0.36-1.07-0.74-1.42C18.73,17.84,18.65,17.91,18.68,17.98L18.68,17.98z"/>
				</g>
			</g>
			<g style="clip-path:url(#SVGID_00000043454644024389921760000003223621489834201535_);">
				<g>
					<path class="st4" d="M19.55,17.63c0.64,0.82,0.07,1.88,0.56,2.77c0.3,0.54,0.82,1.28,1.52,1.16c0.07-0.01,0.11-0.1,0.1-0.17
						c-0.08-0.26-0.21-0.39-0.41-0.58c-0.4-0.37-0.66-0.78-0.82-1.29c-0.23-0.76-0.1-1.47-0.77-2.03
						C19.64,17.42,19.47,17.52,19.55,17.63L19.55,17.63z"/>
				</g>
			</g>
			<g style="clip-path:url(#SVGID_00000043454644024389921760000003223621489834201535_);">
				<g>
					<path class="st4" d="M20.54,17.52c-0.1,0.76,0.5,2.17,1.4,2.22c0.08,0,0.16-0.09,0.13-0.17c-0.3-0.74-1.13-1.26-1.25-2.09
						C20.8,17.31,20.56,17.38,20.54,17.52L20.54,17.52z"/>
				</g>
			</g>
		</g>
		<g>
			<defs>
				<path id="SVGID_00000090258802519444340870000004778555386964386180_" d="M21.74,36.96c0.53-0.07,0.89-0.09,1.58,0.07
					c0.52,0.12,0.91,0.33,1.5,1.04c0.42,0.51,0.51,0.75,0.61,1.65c0.1,0.85-0.12,2.36-0.46,2.63c-0.4-1.01-1.42-1.57-2.24-1.6
					c-0.82-0.03-1.7,0.26-2.43,0.62c-0.66,0.33-0.8,0.48-1.39,0.81c-0.21-1.48,0.04-2.59,0.75-3.9c0.18-0.33,0.53-0.63,0.83-0.86
					C20.88,37.15,21.25,37.02,21.74,36.96z"/>
			</defs>
			<clipPath id="SVGID_00000013159974208042232350000011856747381929190552_">
				<use xlink:href="#SVGID_00000090258802519444340870000004778555386964386180_"  style="overflow:visible;"/>
			</clipPath>
			<g style="clip-path:url(#SVGID_00000013159974208042232350000011856747381929190552_);">
				<g>
					<path class="st4" d="M25.46,42.54c-1.35-0.38-0.03-2.28,0.19-2.97c0.24-0.8-0.56-1.9-0.76-2.64c-0.03-0.11-0.2-0.11-0.22,0
						c-0.12,0.56,0.04,0.96,0.28,1.48c0.32,0.68,0.34,1.21-0.11,1.87c-0.13,0.19-0.35,0.4-0.36,0.65c-0.04,0.64,0.04,1.89,0.95,1.79
						C25.53,42.71,25.56,42.57,25.46,42.54L25.46,42.54z"/>
				</g>
			</g>
			<g style="clip-path:url(#SVGID_00000013159974208042232350000011856747381929190552_);">
				<g>
					<path class="st4" d="M24.47,42.24c-0.31-0.59-0.63-1.4-0.25-2.04c0.18-0.31,0.51-0.58,0.53-0.96c0.03-0.48-0.12-0.85-0.35-1.26
						c-0.52-0.94-0.32-1.48-0.1-2.43c0.03-0.13-0.12-0.21-0.22-0.13c-0.49,0.4-0.67,0.91-0.68,1.52c-0.02,0.94,1.21,1.63,0.62,2.6
						c-0.34,0.56-0.58,0.82-0.49,1.51c0.07,0.55,0.24,1.1,0.78,1.34C24.42,42.43,24.52,42.34,24.47,42.24L24.47,42.24z"/>
				</g>
			</g>
			<g style="clip-path:url(#SVGID_00000013159974208042232350000011856747381929190552_);">
				<g>
					<path class="st4" d="M23.38,41.86c-0.27-0.46-0.39-1.05-0.31-1.58c0.08-0.5,0.39-0.84,0.42-1.36c0.02-0.34-0.25-0.73-0.41-1
						c-0.59-0.99-0.38-1.63-0.08-2.64c0.03-0.11-0.1-0.22-0.2-0.16c-0.5,0.31-0.75,0.82-0.75,1.42c0,0.96,1.09,1.93,0.84,2.84
						c-0.16,0.56-0.81,2.59,0.44,2.58C23.37,41.96,23.4,41.91,23.38,41.86L23.38,41.86z"/>
				</g>
			</g>
			<g style="clip-path:url(#SVGID_00000013159974208042232350000011856747381929190552_);">
				<g>
					<path class="st4" d="M22.32,41.7c-0.45-0.87-0.22-1.17,0.02-1.98c0.08-0.25,0.17-0.53,0.05-0.78c-0.23-0.5-0.63-0.9-0.92-1.37
						c-0.46-0.72,0.11-1.24,0.1-1.89c0-0.11-0.13-0.19-0.22-0.13c-0.99,0.63-0.8,1.75-0.25,2.61c0.12,0.19,0.32,0.42,0.46,0.59
						c0.48,0.6,0.04,1.1-0.06,1.69c-0.1,0.58,0.21,1.06,0.64,1.4C22.25,41.91,22.38,41.82,22.32,41.7L22.32,41.7z"/>
				</g>
			</g>
			<g style="clip-path:url(#SVGID_00000013159974208042232350000011856747381929190552_);">
				<g>
					<path class="st4" d="M21.2,41.83c-0.36-0.81-0.31-1.4-0.15-2.22c0.05-0.27-0.04-0.51-0.14-0.75c-0.09-0.23-0.26-0.44-0.42-0.63
						c-0.59-0.71-0.66-1.16-0.61-2.03c0.01-0.17-0.23-0.26-0.34-0.14c-0.71,0.78-0.3,1.62,0.31,2.36c0.6,0.72,0.61,1.21,0.5,2.07
						c-0.07,0.56,0.37,1.07,0.74,1.42C21.16,41.97,21.23,41.9,21.2,41.83L21.2,41.83z"/>
				</g>
			</g>
			<g style="clip-path:url(#SVGID_00000013159974208042232350000011856747381929190552_);">
				<g>
					<path class="st4" d="M20.33,42.18c-0.64-0.82-0.07-1.88-0.56-2.77c-0.3-0.54-0.82-1.28-1.52-1.16c-0.07,0.01-0.11,0.1-0.1,0.17
						c0.08,0.26,0.21,0.39,0.41,0.58c0.4,0.37,0.66,0.78,0.81,1.29c0.23,0.76,0.1,1.47,0.77,2.03
						C20.24,42.39,20.41,42.29,20.33,42.18L20.33,42.18z"/>
				</g>
			</g>
			<g style="clip-path:url(#SVGID_00000013159974208042232350000011856747381929190552_);">
				<g>
					<path class="st4" d="M19.34,42.29c0.1-0.76-0.5-2.17-1.4-2.22c-0.08,0-0.16,0.09-0.13,0.17c0.3,0.74,1.13,1.26,1.25,2.09
						C19.09,42.5,19.33,42.44,19.34,42.29L19.34,42.29z"/>
				</g>
			</g>
		</g>
		<g>
			<defs>
				<path id="SVGID_00000033335357234138249210000001626559772491745210_" d="M27.13,19.24c0.79-0.09,1.66-0.62,2.14-1.25
					s0.8-1.24,0.95-2.01c0.18-0.87,0.02-1.93-0.38-2.74c-0.18-0.37-0.45-0.7-0.72-1.02c-0.44-0.53-0.88-1.06-1.39-1.54
					c-1.12-1.05-2.52-1.81-4.02-2.16c-0.88-0.21-1.85-0.27-2.64,0.15c-0.16,0.08-0.32,0.19-0.42,0.34C20.54,9.19,20.5,9.4,20.48,9.6
					c-0.37,3.19,1.11,6.33,3.11,8.4c0.25,0.26,0.88,0.73,1.21,0.9C26.07,19.54,26.66,19.3,27.13,19.24z"/>
			</defs>
			<clipPath id="SVGID_00000053547232828763510260000007364488533768725147_">
				<use xlink:href="#SVGID_00000033335357234138249210000001626559772491745210_"  style="overflow:visible;"/>
			</clipPath>
			<g style="clip-path:url(#SVGID_00000053547232828763510260000007364488533768725147_);">
				<g>
					<path class="st4" d="M19.53,9.69c1.32-0.53,1.27,2.07,1.2,2.64c-0.1,0.75-0.11,1.4,0.2,2.09c0.28,0.61,0.91,1.07,1.35,1.55
						c0.9,0.99,0.48,2.21,0.24,3.34c-0.03,0.12,0.13,0.23,0.22,0.13c0.66-0.69,0.61-1.8,0.45-2.67c-0.19-1.07-1.34-1.7-1.88-2.57
						c-0.72-1.16,0.26-2.7-0.35-3.95c-0.32-0.66-0.78-1.2-1.51-0.73C19.38,9.57,19.43,9.73,19.53,9.69L19.53,9.69z"/>
				</g>
			</g>
			<g style="clip-path:url(#SVGID_00000053547232828763510260000007364488533768725147_);">
				<g>
					<path class="st4" d="M20.12,8.49c1.74,0.45,1.69,2.36,1.49,3.77c-0.14,0.96,0.11,1.56,0.94,2.06c0.54,0.33,1.05,0.64,1.4,1.17
						c0.53,0.82,0.16,1.87-0.04,2.73c-0.24,1.01,0.26,2,1.09,2.57c0.1,0.07,0.2-0.06,0.15-0.15c-0.51-1.08-0.85-1.73-0.52-2.95
						c0.16-0.58,0.17-1.15,0.08-1.73c-0.15-1.02-1.07-1.63-1.89-2.1c-1.29-0.75-0.48-2.63-0.8-3.88c-0.23-0.91-0.87-1.77-1.89-1.64
						C20.05,8.35,20.02,8.47,20.12,8.49L20.12,8.49z"/>
				</g>
			</g>
			<g style="clip-path:url(#SVGID_00000053547232828763510260000007364488533768725147_);">
				<g>
					<path class="st4" d="M21.88,8.07c1.48,0.48,1.11,2.61,1.07,3.75c-0.05,1.16,0.72,1.56,1.5,2.26c2.12,1.91-1.02,5.23,1.7,6.75
						c0.19,0.11,0.4-0.11,0.3-0.3c-0.52-0.95-1.06-1.44-0.77-2.64c0.18-0.75,0.29-1.36,0.21-2.13c-0.11-1.07-0.64-1.84-1.48-2.49
						c-0.78-0.61-0.92-1.09-0.87-2.03c0.03-0.57,0-1.1-0.11-1.66c-0.16-0.87-0.57-1.61-1.51-1.72C21.79,7.84,21.77,8.03,21.88,8.07
						L21.88,8.07z"/>
				</g>
			</g>
			<g style="clip-path:url(#SVGID_00000053547232828763510260000007364488533768725147_);">
				<g>
					<path class="st4" d="M23.79,8.03c1.32,1.04,0.22,2.63,0.52,3.96c0.12,0.52,0.74,0.97,1.12,1.29c0.71,0.58,1.18,1.08,1.48,1.98
						c0.49,1.48-0.19,2.7-0.39,4.13c-0.13,0.99,0.57,1.78,1.5,1.99c0.22,0.05,0.39-0.21,0.22-0.37c-0.65-0.63-1.11-1.03-0.92-2
						c0.11-0.57,0.36-1.12,0.44-1.69c0.17-1.28-0.11-2.62-0.89-3.67c-0.38-0.51-0.98-0.86-1.46-1.28c-0.76-0.67-0.39-1.68-0.42-2.54
						C24.97,9.09,24.75,8,23.88,7.88C23.8,7.87,23.71,7.96,23.79,8.03L23.79,8.03z"/>
				</g>
			</g>
			<g style="clip-path:url(#SVGID_00000053547232828763510260000007364488533768725147_);">
				<g>
					<path class="st4" d="M25.87,8.16c-0.17,0.9-0.41,1.96,0.01,2.83c0.48,0.98,1.45,1.5,2.03,2.4c0.79,1.24,0.55,3.12,0.17,4.44
						c-0.22,0.77-0.29,1.5,0.25,2.13c0.09,0.1,0.28,0.02,0.27-0.11c-0.07-1.15,0.22-2.04,0.42-3.16c0.16-0.91,0.05-1.95-0.17-2.84
						c-0.21-0.86-0.81-1.48-1.46-2.05c-0.69-0.61-1.09-1.14-1.18-2.09c-0.05-0.53-0.03-1.03-0.13-1.56
						C26.05,8.06,25.89,8.06,25.87,8.16L25.87,8.16z"/>
				</g>
			</g>
			<g style="clip-path:url(#SVGID_00000053547232828763510260000007364488533768725147_);">
				<g>
					<path class="st4" d="M26.93,8.27c-0.33,1.98,1.38,2.98,2.39,4.43c1.01,1.44,0,3.05,0.14,4.61c0.08,0.88,0.53,1.99,1.31,2.47
						c0.14,0.09,0.37-0.02,0.35-0.2c-0.04-0.47-0.2-0.74-0.42-1.17c-0.43-0.84-0.48-1.61-0.3-2.52c0.21-1.04,0.4-2.15-0.11-3.14
						c-0.87-1.67-2.73-2.54-3.11-4.48C27.16,8.14,26.95,8.14,26.93,8.27L26.93,8.27z"/>
				</g>
			</g>
		</g>
		<g>
			<path class="st3" d="M15,9.53c0.14,0.07,0.3,0.1,0.46,0.09c3.23-0.15,6.22-0.2,9.46-0.16c0.47,0.01,0.84-0.18,1.17-0.51
				c0.32-0.33,0.81-0.91,0.72-1.3c-0.11-0.49-0.65-0.36-1.43-0.41c-1.11-0.08-2.93-0.03-4.04-0.04c-2.84-0.01-4.35,0.02-7.41,0.15
				c-0.37,0.02-0.45,0.28-0.45,0.65c0,0.14,0.07,0.28,0.17,0.38c0.36,0.33,0.73,0.66,1.09,0.99C14.82,9.43,14.9,9.49,15,9.53
				L15,9.53z"/>
		</g>
		<g>
			<g>
				<path class="st10" d="M13.16,21.39c0.01,0,0.01,0,0.02,0.01c0.13,0.05,0.29-0.11,0.24-0.24c0-0.01,0-0.01-0.01-0.02
					c-0.05-0.14-0.23-0.21-0.35-0.09C12.95,21.16,13.02,21.34,13.16,21.39L13.16,21.39z"/>
			</g>
		</g>
		<g>
			<g>
				<path class="st10" d="M13.75,22.23c0.33,0,0.33-0.5,0-0.5C13.43,21.73,13.43,22.23,13.75,22.23L13.75,22.23z"/>
			</g>
		</g>
		<g>
			<g>
				<path class="st10" d="M14.4,22.96c0.3,0,0.3-0.46,0-0.46C14.1,22.5,14.1,22.96,14.4,22.96L14.4,22.96z"/>
			</g>
		</g>
		<g>
			<g>
				<path class="st10" d="M14.89,23.64c0,0.01,0.01,0.03,0.02,0.04c0.12,0.27,0.55,0.03,0.4-0.23c-0.01-0.01-0.01-0.02-0.02-0.04
					c-0.06-0.11-0.21-0.14-0.32-0.08C14.85,23.39,14.84,23.52,14.89,23.64L14.89,23.64z"/>
			</g>
		</g>
		<g>
			<g>
				<path class="st10" d="M15.55,24.17c-0.05,0.13,0.02,0.24,0.12,0.32c0.06,0.05,0.17,0.04,0.23,0c0.1-0.05,0.12-0.15,0.1-0.25
					c0-0.01,0-0.01,0-0.02c0,0.04,0,0.08,0,0.12c0.02-0.06,0.01-0.11,0-0.17c-0.02-0.1-0.13-0.17-0.23-0.17
					C15.66,24,15.59,24.08,15.55,24.17L15.55,24.17z"/>
			</g>
		</g>
		<g>
			<g>
				<path class="st10" d="M16.42,25.22c0.01,0.01,0.01,0.01,0.02,0.02c0.1,0.1,0.26,0.09,0.36,0c0.01-0.01,0.01-0.01,0.02-0.02
					c0.09-0.08,0.09-0.24,0-0.32c-0.01-0.01-0.01-0.01-0.02-0.02c-0.1-0.09-0.26-0.1-0.36,0c-0.01,0.01-0.01,0.01-0.02,0.02
					C16.33,25,16.33,25.13,16.42,25.22L16.42,25.22z"/>
			</g>
		</g>
		<g>
			<g>
				<path class="st10" d="M17.43,25.63c-0.01,0-0.02,0-0.02-0.01c-0.08-0.02-0.2,0.01-0.23,0.09c0,0,0,0.01-0.01,0.01
					c-0.08,0.18,0.08,0.37,0.28,0.28c0.04-0.02,0.07-0.06,0.1-0.1C17.61,25.8,17.54,25.67,17.43,25.63L17.43,25.63z"/>
			</g>
		</g>
		<g>
			<g>
				<path class="st10" d="M17.92,26.6c0.03,0.03,0.05,0.05,0.09,0.07c0.24,0.13,0.45-0.25,0.21-0.35c0,0,0,0-0.01,0
					C18.01,26.13,17.74,26.4,17.92,26.6L17.92,26.6z"/>
			</g>
		</g>
		<g>
			<g>
				<path class="st10" d="M18.94,27.36c0.25,0,0.25-0.39,0-0.39C18.68,26.97,18.68,27.36,18.94,27.36L18.94,27.36z"/>
			</g>
		</g>
		<g>
			<g>
				<path class="st10" d="M20.8,27.14c0-0.01-0.01-0.01-0.01-0.02c0,0.04,0,0.08,0,0.11c0-0.01,0-0.01,0-0.02
					c0.04-0.15-0.1-0.29-0.26-0.25c-0.07,0.02-0.11,0.06-0.16,0.12c-0.08,0.12,0,0.29,0.14,0.33C20.67,27.46,20.87,27.31,20.8,27.14
					L20.8,27.14z"/>
			</g>
		</g>
		<g>
			<g>
				<path class="st10" d="M21.38,26.8c0.3,0,0.3-0.46,0-0.46C21.07,26.33,21.07,26.8,21.38,26.8L21.38,26.8z"/>
			</g>
		</g>
		<g>
			<g>
				<path class="st10" d="M21.99,26.16c0.31,0,0.31-0.47,0-0.47C21.68,25.69,21.68,26.16,21.99,26.16L21.99,26.16z"/>
			</g>
		</g>
		<g>
			<g>
				<path class="st10" d="M22.6,25.41c0.26,0,0.26-0.4,0-0.4C22.34,25.01,22.34,25.41,22.6,25.41L22.6,25.41z"/>
			</g>
		</g>
		<g>
			<g>
				<path class="st10" d="M23.52,24.45c-0.04-0.09-0.09-0.15-0.2-0.15c-0.13,0-0.23,0.13-0.19,0.25c0.03,0.1,0.14,0.17,0.25,0.14
					C23.46,24.66,23.56,24.55,23.52,24.45L23.52,24.45z"/>
			</g>
		</g>
		<g>
			<g>
				<path class="st10" d="M23.97,24.03c0.32,0,0.32-0.49,0-0.49C23.65,23.54,23.65,24.03,23.97,24.03L23.97,24.03z"/>
			</g>
		</g>
		<g>
			<g>
				<path class="st10" d="M24.73,23.29c0.33,0,0.33-0.51,0-0.51C24.4,22.78,24.4,23.29,24.73,23.29L24.73,23.29z"/>
			</g>
		</g>
		<g>
			<g>
				<path class="st10" d="M25.27,22.5c0.24,0,0.24-0.36,0-0.36S25.03,22.5,25.27,22.5L25.27,22.5z"/>
			</g>
		</g>
		<g>
			<g>
				<path class="st10" d="M25.8,21.88c0.21,0,0.21-0.32,0-0.32C25.59,21.56,25.59,21.88,25.8,21.88L25.8,21.88z"/>
			</g>
		</g>
		<g>
			<g>
				<path class="st10" d="M26.37,21.12c0.3,0,0.3-0.45,0-0.45C26.07,20.66,26.07,21.12,26.37,21.12L26.37,21.12z"/>
			</g>
		</g>
		<g>
			<g>
				<path class="st5" d="M18.38,10.44c0.31-0.06,0.66-0.05,0.98-0.02c0.28,0.03,0.92-0.06,0.66-0.5c-0.2-0.34-0.76-0.27-1.09-0.23
					c-0.33,0.04-0.74,0.2-0.78,0.56C18.12,10.39,18.27,10.46,18.38,10.44L18.38,10.44z"/>
			</g>
		</g>
		<g>
			<g>
				<path class="st10" d="M19.3,13.06c0.19-0.18-0.11,0.12-0.13,0.15c-0.05,0.08-0.08,0.17-0.1,0.26c-0.04,0.16-0.03,0.33-0.01,0.5
					c0.04,0.45,0.22,0.87,0.68,1.04c0.55,0.2,1.09-0.52,0.77-0.98c-0.04-0.06-0.09-0.12-0.14-0.17c0.15,0.18,0.05,0.06,0.02,0.01
					c-0.06-0.12,0.06,0.15,0.01,0.02c-0.02-0.05-0.04-0.11-0.06-0.16c-0.05-0.13-0.08-0.26-0.14-0.39
					c-0.02-0.04-0.04-0.08-0.06-0.12c-0.01-0.02-0.32-0.36-0.14-0.15C19.8,12.87,19.48,12.89,19.3,13.06L19.3,13.06z"/>
			</g>
		</g>
		<g>
			<g>
				<path class="st10" d="M17.01,3.63C16.67,4,16.43,4.45,16.17,4.89c-0.26,0.44-0.54,1-0.42,1.52c0.1,0.41,0.7,0.48,0.91,0.12
					c0.23-0.42,0.31-0.96,0.46-1.41c0.15-0.46,0.3-0.91,0.2-1.4C17.3,3.58,17.1,3.53,17.01,3.63L17.01,3.63z"/>
			</g>
		</g>
		<g>
			<g>
				<path class="st10" d="M18.49,3.57c-0.4,0.46-0.5,1.12-0.64,1.7c-0.12,0.51-0.26,1.1,0.22,1.45c0.24,0.17,0.66,0.05,0.79-0.2
					c0.17-0.34,0.09-0.81,0.12-1.19C19,4.78,18.99,4.2,18.83,3.66C18.79,3.53,18.59,3.45,18.49,3.57L18.49,3.57z"/>
			</g>
		</g>
		<g>
			<g>
				<path class="st10" d="M20.12,3.57c-0.37,0.83-0.42,1.94-0.43,2.84c0,0.74,1.14,0.73,1.16,0c0.03-0.9,0.02-2-0.35-2.84
					C20.44,3.43,20.18,3.43,20.12,3.57L20.12,3.57z"/>
			</g>
		</g>
		<g>
			<g>
				<path class="st10" d="M21.48,3.56c-0.13,0.42-0.04,0.85,0.02,1.27c0.07,0.5,0.15,1.01,0.24,1.51c0.12,0.65,1.14,0.48,1.15-0.15
					c0-0.88-0.46-2.1-1.11-2.71C21.67,3.39,21.51,3.43,21.48,3.56L21.48,3.56z"/>
			</g>
		</g>
		<g>
			<g>
				<path class="st10" d="M23.17,3.71c-0.2,0.55,0.29,1.16,0.47,1.66c0.17,0.44,0.21,1.14,0.8,1.24c0.43,0.07,0.75-0.24,0.68-0.67
					c-0.06-0.33-0.35-0.77-0.53-1.05c-0.27-0.41-0.72-1.05-1.18-1.26C23.3,3.57,23.2,3.61,23.17,3.71L23.17,3.71z"/>
			</g>
		</g>
		<g>
			<g>
				<path class="st5" d="M16.23,6.43c0.31,0,0.31-0.47,0-0.47C15.92,5.96,15.92,6.43,16.23,6.43L16.23,6.43z"/>
			</g>
		</g>
		<g>
			<g>
				<path class="st5" d="M18.33,6.55c0.32,0,0.32-0.49,0-0.49C18.01,6.07,18.01,6.55,18.33,6.55L18.33,6.55z"/>
			</g>
		</g>
		<g>
			<g>
				<path class="st5" d="M20.23,6.66c0.35,0,0.35-0.54,0-0.54C19.88,6.12,19.88,6.66,20.23,6.66L20.23,6.66z"/>
			</g>
		</g>
		<g>
			<g>
				<path class="st5" d="M22.22,6.45c0.32,0,0.32-0.5,0-0.5C21.89,5.95,21.89,6.45,22.22,6.45L22.22,6.45z"/>
			</g>
		</g>
		<g>
			<g>
				<path class="st5" d="M24.43,6.28c0.3,0,0.3-0.45,0-0.45C24.13,5.82,24.13,6.28,24.43,6.28L24.43,6.28z"/>
			</g>
		</g>
		<g>
			<g>
				<path class="st5" d="M15.63,9.02c0-0.37-0.14-0.71-0.35-1.02c-0.12-0.18-0.35-0.25-0.54-0.14c-0.23,0.13-0.25,0.43-0.08,0.61
					c0.21,0.23,0.41,0.46,0.63,0.68C15.41,9.28,15.63,9.19,15.63,9.02L15.63,9.02z"/>
			</g>
		</g>
		<g>
			<g>
				<path class="st5" d="M16.61,8.84c-0.04-0.12-0.02-0.27-0.02-0.39c-0.01-0.18,0-0.36-0.06-0.53c-0.06-0.15-0.18-0.26-0.35-0.26
					c-0.18,0-0.39,0.16-0.36,0.36c0.02,0.2,0.07,0.39,0.12,0.58c0.05,0.19,0.16,0.33,0.29,0.47C16.37,9.23,16.68,9.06,16.61,8.84
					L16.61,8.84z"/>
			</g>
		</g>
		<g>
			<g>
				<path class="st5" d="M17.82,8.98c0,0.07,0.03-0.1,0.04-0.12c0.03-0.11,0.02-0.21,0.03-0.32c0.01-0.17,0.04-0.33,0.07-0.5
					c0.03-0.2-0.05-0.4-0.27-0.46c-0.2-0.06-0.41,0.07-0.47,0.26c-0.07,0.22-0.08,0.5-0.03,0.73c0.02,0.13,0.05,0.25,0.12,0.36
					c0.03,0.05,0.07,0.09,0.11,0.13c0,0,0.15,0.11,0.09,0.05C17.62,9.21,17.83,9.14,17.82,8.98L17.82,8.98z"/>
			</g>
		</g>
		<g>
			<g>
				<path class="st5" d="M19.06,9.09c0.21-0.13,0.3-0.25,0.36-0.49c0.05-0.23,0.07-0.51,0-0.74c-0.1-0.35-0.66-0.37-0.74,0
					c-0.05,0.22-0.02,0.45,0.01,0.68c0.01,0.08,0.02,0.17,0.03,0.25c0.01,0.04,0.02,0.07,0.04,0.11c0,0,0.07,0.18,0.05,0.09
					C18.84,9.09,18.97,9.15,19.06,9.09L19.06,9.09z"/>
			</g>
		</g>
		<g>
			<g>
				<path class="st5" d="M20.59,9.05c0.17-0.1,0.25-0.26,0.31-0.45c0.07-0.2,0.18-0.46,0.16-0.67c-0.02-0.24-0.3-0.48-0.54-0.3
					c-0.26,0.19-0.3,0.46-0.34,0.75c-0.03,0.23,0.01,0.48,0.2,0.64C20.44,9.07,20.52,9.09,20.59,9.05L20.59,9.05z"/>
			</g>
		</g>
		<g>
			<g>
				<path class="st5" d="M21.85,9.11c0.1-0.16,0.24-0.29,0.33-0.46c0.09-0.17,0.19-0.34,0.28-0.51c0.06-0.11,0.08-0.25,0-0.36
					c-0.01-0.01-0.02-0.03-0.03-0.04c-0.08-0.12-0.19-0.15-0.33-0.13c-0.3,0.04-0.38,0.4-0.47,0.64c-0.1,0.26-0.12,0.49-0.15,0.77
					C21.47,9.22,21.75,9.27,21.85,9.11L21.85,9.11z"/>
			</g>
		</g>
		<g>
			<g>
				<path class="st5" d="M23.38,9.08c0.02-0.02,0.12-0.1,0.02-0.03C23.46,9,23.5,8.97,23.54,8.91c0.06-0.09,0.11-0.18,0.17-0.27
					c0.11-0.2,0.29-0.42,0.31-0.65c0.02-0.23-0.25-0.42-0.46-0.35c-0.28,0.09-0.42,0.4-0.5,0.66c-0.08,0.22-0.12,0.53,0.04,0.73
					C23.16,9.14,23.28,9.16,23.38,9.08L23.38,9.08z"/>
			</g>
		</g>
		<g>
			<g>
				<path class="st5" d="M24.95,9.08c0.01-0.01,0.02-0.01,0.03-0.02c-0.06,0.01-0.12,0.01-0.17,0.02c0.25,0.04,0.45-0.14,0.61-0.3
					c0.21-0.21,0.49-0.38,0.51-0.71c0.01-0.2-0.14-0.33-0.31-0.4c-0.37-0.16-0.72,0.25-0.87,0.53c-0.12,0.22-0.25,0.62-0.03,0.82
					c-0.02-0.05-0.05-0.1-0.07-0.16c0,0.01,0,0.02,0,0.03C24.66,9.05,24.81,9.17,24.95,9.08L24.95,9.08z"/>
			</g>
		</g>
		<g>
			<g>
				<path class="st5" d="M16.54,5.56c0.35,0,0.35-0.53,0-0.53C16.19,5.03,16.19,5.56,16.54,5.56L16.54,5.56z"/>
			</g>
		</g>
		<g>
			<g>
				<path class="st5" d="M16.8,4.77c0.25,0,0.25-0.38,0-0.38C16.55,4.39,16.55,4.77,16.8,4.77L16.8,4.77z"/>
			</g>
		</g>
		<g>
			<g>
				<path class="st5" d="M18.33,5.66c0.33,0,0.33-0.51,0-0.51C18,5.16,18,5.66,18.33,5.66L18.33,5.66z"/>
			</g>
		</g>
		<g>
			<g>
				<path class="st5" d="M18.37,4.87c0.27,0,0.27-0.42,0-0.42C18.09,4.45,18.09,4.87,18.37,4.87L18.37,4.87z"/>
			</g>
		</g>
		<g>
			<g>
				<path class="st5" d="M20.23,5.65c0.27,0,0.27-0.41,0-0.41C19.97,5.24,19.97,5.65,20.23,5.65L20.23,5.65z"/>
			</g>
		</g>
		<g>
			<g>
				<path class="st5" d="M20.16,4.88c0.29,0,0.29-0.44,0-0.44C19.87,4.44,19.87,4.88,20.16,4.88L20.16,4.88z"/>
			</g>
		</g>
		<g>
			<g>
				<path class="st5" d="M22.23,5.2c-0.01-0.01-0.01-0.01-0.02-0.02c-0.09-0.08-0.22-0.08-0.3,0C21.91,5.19,21.9,5.2,21.89,5.2
					c-0.15,0.15-0.04,0.41,0.17,0.41C22.27,5.61,22.39,5.35,22.23,5.2L22.23,5.2z"/>
			</g>
		</g>
		<g>
			<g>
				<path class="st5" d="M21.8,4.8c0.23,0,0.23-0.35,0-0.35C21.57,4.45,21.57,4.8,21.8,4.8L21.8,4.8z"/>
			</g>
		</g>
		<g>
			<g>
				<path class="st5" d="M24.2,5.18c-0.26,0.01-0.28,0.39-0.02,0.39C24.43,5.56,24.44,5.17,24.2,5.18L24.2,5.18z"/>
			</g>
		</g>
		<g>
			<g>
				<path class="st5" d="M23.86,4.94c0.32,0,0.32-0.49,0-0.49C23.54,4.45,23.54,4.94,23.86,4.94L23.86,4.94z"/>
			</g>
		</g>
		<g>
			<g>
				<path class="st11" d="M19.57,24.59c0,0.31-0.03,0.62-0.02,0.93c0.01,0.25,0.01,0.61,0.28,0.73c0.09,0.04,0.17,0.02,0.22-0.06
					c0.16-0.21,0.05-0.51,0.01-0.74c-0.05-0.3-0.09-0.61-0.16-0.91C19.86,24.36,19.57,24.4,19.57,24.59L19.57,24.59z"/>
			</g>
		</g>
		<g>
			<g>
				<path class="st11" d="M18.38,23.88c-0.1,0.17-0.19,0.35-0.28,0.53c-0.09,0.18-0.21,0.36-0.24,0.55
					c-0.05,0.27,0.33,0.47,0.47,0.2c0.09-0.18,0.16-0.38,0.24-0.56c0.09-0.2,0.17-0.4,0.16-0.62
					C18.72,23.79,18.47,23.72,18.38,23.88L18.38,23.88z"/>
			</g>
		</g>
		<g>
			<g>
				<path class="st11" d="M17.23,23.34c-0.2,0.12-0.44,0.26-0.52,0.49c-0.06,0.17,0.14,0.28,0.28,0.22
					c0.17-0.08,0.29-0.25,0.44-0.36C17.65,23.55,17.47,23.21,17.23,23.34L17.23,23.34z"/>
			</g>
		</g>
		<g>
			<g>
				<path class="st11" d="M20.89,23.97c0,0.17,0.09,0.36,0.16,0.52c0.1,0.24,0.2,0.46,0.47,0.55c0.2,0.07,0.38-0.15,0.33-0.33
					c-0.05-0.2-0.19-0.36-0.3-0.53c-0.11-0.17-0.27-0.36-0.5-0.36C20.97,23.82,20.9,23.89,20.89,23.97L20.89,23.97z"/>
			</g>
		</g>
		<g>
			<g>
				<path class="st11" d="M21.85,23.12c0.09,0.19,0.24,0.36,0.4,0.49c0.08,0.07,0.16,0.13,0.25,0.18c0.13,0.08,0.24,0.07,0.38,0.07
					c0.21,0,0.33-0.26,0.17-0.41c-0.08-0.07-0.13-0.15-0.23-0.2c-0.09-0.05-0.17-0.09-0.25-0.15c-0.16-0.11-0.31-0.21-0.49-0.28
					C21.89,22.75,21.78,22.97,21.85,23.12L21.85,23.12z"/>
			</g>
		</g>
		<g>
			<g>
				<path class="st11" d="M22.88,22.28c0.12,0.11,0.26,0.19,0.39,0.28c0.06,0.05,0.12,0.09,0.19,0.14c0.09,0.06,0.18,0.07,0.28,0.09
					c0.21,0.05,0.34-0.19,0.2-0.35c-0.07-0.08-0.12-0.15-0.21-0.21c-0.08-0.06-0.17-0.1-0.26-0.14c-0.16-0.08-0.35-0.14-0.53-0.08
					C22.85,22.06,22.8,22.19,22.88,22.28L22.88,22.28z"/>
			</g>
		</g>
		<g>
			<g>
				<path class="st11" d="M23.72,21.29c0.08,0.14,0.23,0.27,0.37,0.37c0.16,0.12,0.3,0.22,0.52,0.23c0.23,0.02,0.32-0.28,0.18-0.43
					c-0.12-0.12-0.27-0.19-0.42-0.26c-0.15-0.07-0.35-0.15-0.51-0.14C23.74,21.07,23.66,21.18,23.72,21.29L23.72,21.29z"/>
			</g>
		</g>
		<g>
			<g>
				<path class="st11" d="M24.4,20.45c0.22,0.23,0.5,0.49,0.84,0.5c0.19,0.01,0.29-0.24,0.15-0.37c-0.23-0.21-0.59-0.35-0.91-0.35
					C24.37,20.25,24.32,20.37,24.4,20.45L24.4,20.45z"/>
			</g>
		</g>
		<g>
			<g>
				<path class="st2" d="M9.52,30.45c-0.33,0.07-0.22,0.43,0.11,0.36C9.96,30.74,9.84,30.38,9.52,30.45L9.52,30.45z"/>
			</g>
		</g>
		<g>
			<g>
				<path class="st2" d="M8.52,31.09c0.01,0,0.02,0,0.02,0c0.18,0.02,0.37-0.09,0.33-0.23c-0.04-0.14-0.27-0.16-0.42-0.07
					c-0.01,0-0.01,0.01-0.02,0.01C8.3,30.89,8.36,31.08,8.52,31.09L8.52,31.09z"/>
			</g>
		</g>
		<g>
			<g>
				<path class="st2" d="M23.35,31.99c-0.16,0-0.16,0.18,0,0.18C23.51,32.17,23.51,31.99,23.35,31.99L23.35,31.99z"/>
			</g>
		</g>
		<g>
			<g>
				<path class="st2" d="M9.8,31.92c-0.24,0-0.24,0.27,0,0.27C10.04,32.18,10.04,31.92,9.8,31.92L9.8,31.92z"/>
			</g>
		</g>
		<g>
			<g>
				<path class="st2" d="M27.34,34.61c-0.22-0.03-0.56-0.09-0.76,0.02c-0.06,0.03-0.06,0.1,0,0.13c0.2,0.11,0.53,0.05,0.76,0.02
					C27.44,34.77,27.44,34.63,27.34,34.61L27.34,34.61z"/>
			</g>
		</g>
		<g>
			<g>
				<path class="st2" d="M26.4,33.08c-0.1-0.05-0.22-0.08-0.33-0.11c-0.06-0.01-0.12-0.02-0.18-0.03c-0.05-0.01-0.09-0.02-0.15-0.02
					c-0.04,0-0.08,0.03-0.06,0.06c0.08,0.15,0.42,0.18,0.59,0.25C26.42,33.29,26.54,33.14,26.4,33.08L26.4,33.08z"/>
			</g>
		</g>
		<g>
			<g>
				<path class="st2" d="M24.46,31.73c-0.01-0.14,0.01-0.36-0.2-0.44c-0.09-0.03-0.23-0.01-0.25,0.07c-0.04,0.14,0.1,0.3,0.22,0.41
					C24.3,31.83,24.47,31.82,24.46,31.73L24.46,31.73z"/>
			</g>
		</g>
		<g>
			<g>
				<path class="st2" d="M12.25,31.9c-0.07-0.07-0.23-0.3-0.39-0.23c-0.16,0.07,0.1,0.27,0.16,0.33
					C12.1,32.11,12.34,32.01,12.25,31.9L12.25,31.9z"/>
			</g>
		</g>
		<g>
			<path class="st5" d="M5.9,26.8c0.59-0.17-0.05-4.18,2.88-5.72c0.53-0.28,1.39-0.28,1.9,0.05c0.16,0.1,0.28,0.24,0.39,0.37
				c0.74,0.93,1.05,1.98,1.08,3.02c0.03,1.04-0.22,2.06-0.52,3.07c0.67,0.19,1.36,0.43,1.77,0.84c0.52,0.53,0.44,1.25-0.03,1.78
				c-0.47,0.52-1.26,0.87-2.1,1.1c-0.21,0.06-0.42,0.11-0.64,0.13c-0.35,0.03-0.71-0.02-1.07-0.08C8.48,31.2,7.4,31.01,6.33,30.8
				c-0.2-0.04-2.07-0.11-2.42-1.32C3.42,27.83,4.12,27.31,5.9,26.8z"/>
		</g>
		<g>
			<g>
				<path class="st10" d="M19.72,27.92c0.01,0,0.02,0.01,0.02,0.01c0.19,0.09,0.41-0.09,0.3-0.25c0-0.01-0.01-0.01-0.01-0.02
					c-0.07-0.11-0.25-0.12-0.36-0.04C19.57,27.71,19.59,27.86,19.72,27.92L19.72,27.92z"/>
			</g>
		</g>
		<g>
			<g>
				<path class="st11" d="M6.48,27.24c-0.76,0.21-1.19,0.64-1.43,1.17c-0.23,0.51-0.23,1.39,0.56,1.71c0.42,0.17,1.1,0.01,0.95-0.39
					c-0.13-0.35-0.35-0.61-0.33-0.99c0.02-0.37,0.22-0.82,0.67-1.03C7.28,27.53,6.88,27.13,6.48,27.24L6.48,27.24z"/>
			</g>
		</g>
		<g>
			<g>
				<path class="st11" d="M8.38,27.76c0,0-0.01,0-0.01-0.01c-0.11-0.05-0.28-0.07-0.38,0c-0.82,0.52-0.84,1.69-0.47,2.39
					c0.15,0.28,0.73,0.23,0.87,0c0.25-0.43,0.07-0.94,0.03-1.4c-0.02-0.22-0.01-0.42,0.03-0.64C8.46,28,8.58,27.85,8.38,27.76
					L8.38,27.76z"/>
			</g>
		</g>
		<g>
			<g>
				<path class="st11" d="M9.79,28.08c-0.13,0.37-0.1,0.77-0.17,1.15c-0.08,0.43-0.31,0.81-0.45,1.22
					c-0.12,0.37,0.63,0.48,0.92,0.26c0.74-0.59,0.75-2,0.13-2.67C10.11,27.93,9.83,27.96,9.79,28.08L9.79,28.08z"/>
			</g>
		</g>
		<g>
			<g>
				<path class="st11" d="M11.38,28.63c0.18,0.47,0.45,0.99,0.03,1.42c-0.26,0.27-0.77,0.39-0.72,0.77c0.01,0.07,0.1,0.11,0.18,0.12
					c0.66,0.11,1.26-0.43,1.52-0.77c0.36-0.48-0.02-1.31-0.57-1.67C11.66,28.39,11.31,28.44,11.38,28.63L11.38,28.63z"/>
			</g>
		</g>
		<g>
			<g>
				<path class="st10" d="M9.63,21.87c0.21,0.02,0.25-0.26,0.04-0.28C9.45,21.58,9.42,21.85,9.63,21.87L9.63,21.87z"/>
			</g>
		</g>
		<g>
			<g>
				<path class="st10" d="M8.76,22.44c0.32,0.03,0.37-0.38,0.05-0.41C8.49,22,8.44,22.41,8.76,22.44L8.76,22.44z"/>
			</g>
		</g>
		<g>
			<g>
				<path class="st10" d="M9.91,22.72c0.19,0.02,0.22-0.23,0.03-0.24C9.75,22.46,9.72,22.7,9.91,22.72L9.91,22.72z"/>
			</g>
		</g>
		<g>
			<g>
				<path class="st10" d="M8,23.31c0.03,0.06,0.07,0.08,0.14,0.11c0.13,0.06,0.31-0.06,0.27-0.18c0,0,0-0.01,0-0.01
					c0,0.03-0.01,0.06-0.01,0.09c0-0.01,0.01-0.01,0.01-0.02c0.06-0.11-0.05-0.23-0.18-0.25C8.05,23.04,7.93,23.18,8,23.31L8,23.31z
					"/>
			</g>
		</g>
		<g>
			<g>
				<path class="st10" d="M7.7,24.35c0.01,0,0.02-0.01,0.03-0.01c0.13-0.03,0.15-0.22,0.03-0.27c-0.01,0-0.02-0.01-0.03-0.01
					c-0.13-0.06-0.3-0.02-0.32,0.12C7.4,24.31,7.56,24.38,7.7,24.35L7.7,24.35z"/>
			</g>
		</g>
		<g>
			<g>
				<path class="st10" d="M9.42,24.38c-0.07,0.01-0.11,0.03-0.16,0.08c-0.11,0.12,0.06,0.3,0.23,0.24c0,0,0.01,0,0.02-0.01
					c-0.05,0-0.1,0-0.15,0c0.01,0,0.01,0,0.02,0c0.12,0.03,0.25-0.02,0.27-0.14C9.66,24.46,9.54,24.36,9.42,24.38L9.42,24.38z"/>
			</g>
		</g>
		<g>
			<g>
				<path class="st10" d="M10.2,23.75c0.21,0.02,0.24-0.26,0.03-0.27C10.03,23.46,9.99,23.74,10.2,23.75L10.2,23.75z"/>
			</g>
		</g>
		<g>
			<g>
				<path class="st10" d="M10.67,22.98c0.01,0,0.01,0.01,0.02,0.01c0.13,0.08,0.32-0.04,0.25-0.17c0-0.01-0.01-0.01-0.01-0.02
					C10.81,22.59,10.44,22.84,10.67,22.98L10.67,22.98z"/>
			</g>
		</g>
		<g>
			<g>
				<path class="st10" d="M10.48,22.04c0,0.01,0,0.02,0,0.03c0.02,0.14,0.27,0.16,0.32,0.03c0-0.01,0.01-0.02,0.01-0.03
					C10.9,21.84,10.45,21.8,10.48,22.04L10.48,22.04z"/>
			</g>
		</g>
		<g>
			<g>
				<path class="st10" d="M11.03,24.36c-0.01,0.05,0,0.08,0.02,0.12c0.09,0.13,0.35,0.09,0.32-0.08c0-0.02-0.01-0.03-0.01-0.05
					C11.33,24.2,11.05,24.21,11.03,24.36L11.03,24.36z"/>
			</g>
		</g>
		<g>
			<g>
				<path class="st10" d="M10.8,25.75c0.01,0,0.01,0,0.02,0c0.12,0,0.19-0.05,0.21-0.14c0-0.01,0-0.01,0-0.02
					c0.04-0.16-0.21-0.25-0.35-0.16C10.55,25.52,10.6,25.75,10.8,25.75L10.8,25.75z"/>
			</g>
		</g>
		<g>
			<g>
				<path class="st10" d="M8.9,25.76c0.04,0.06,0.07,0.09,0.15,0.12c0.15,0.05,0.32-0.06,0.29-0.2c0,0,0-0.01,0-0.01
					c-0.01,0.05-0.03,0.09-0.04,0.14c0,0,0.01-0.01,0.01-0.01c0.09-0.13,0.03-0.3-0.16-0.31C8.98,25.46,8.81,25.62,8.9,25.76
					L8.9,25.76z"/>
			</g>
		</g>
		<g>
			<g>
				<path class="st10" d="M7.68,25.79c0.27,0.02,0.32-0.33,0.04-0.36C7.46,25.41,7.41,25.77,7.68,25.79L7.68,25.79z"/>
			</g>
		</g>
		<g>
			<g>
				<path class="st10" d="M6.54,26.65c0,0.01,0,0.02,0,0.03c0.01,0.16,0.32,0.18,0.37,0.03c0-0.01,0.01-0.02,0.01-0.03
					C7,26.42,6.53,26.38,6.54,26.65L6.54,26.65z"/>
			</g>
		</g>
		<g>
			<g>
				<path class="st10" d="M7.95,27.23c0.1,0.09,0.21,0.13,0.36,0.08c0.14-0.05,0.16-0.19,0.08-0.29c-0.02-0.02-0.04-0.04-0.06-0.05
					C8.12,26.78,7.74,27.03,7.95,27.23L7.95,27.23z"/>
			</g>
		</g>
		<g>
			<g>
				<path class="st10" d="M9.48,26.73C9.49,26.73,9.49,26.73,9.48,26.73c0.16,0.04,0.33-0.12,0.21-0.23
					c-0.04-0.03-0.07-0.05-0.12-0.07C9.33,26.33,9.21,26.73,9.48,26.73L9.48,26.73z"/>
			</g>
		</g>
		<g>
			<g>
				<path class="st10" d="M10.81,26.56c0.2,0.02,0.23-0.24,0.03-0.26C10.64,26.29,10.61,26.55,10.81,26.56L10.81,26.56z"/>
			</g>
		</g>
		<g>
			<g>
				<path class="st10" d="M11.08,27.78c0.3,0.03,0.35-0.37,0.05-0.39C10.82,27.36,10.77,27.76,11.08,27.78L11.08,27.78z"/>
			</g>
		</g>
		<g>
			<g>
				<path class="st10" d="M9.44,27.36c0.08,0.08,0.17,0.12,0.3,0.1c0.21-0.02,0.24-0.24,0.1-0.34C9.84,27.1,9.83,27.1,9.82,27.1
					C9.61,26.91,9.24,27.16,9.44,27.36L9.44,27.36z"/>
			</g>
		</g>
		<g>
			<g>
				<path class="st10" d="M8.44,25.28c0.01,0,0.01,0,0.02,0c0.18-0.04,0.25-0.22,0.09-0.32c-0.01,0-0.01-0.01-0.02-0.01
					c-0.12-0.07-0.29-0.03-0.34,0.08C8.13,25.15,8.27,25.32,8.44,25.28L8.44,25.28z"/>
			</g>
		</g>
		<g>
			<g>
				<path class="st10" d="M8.94,28.09c0,0.01,0,0.02,0,0.03c0.01,0.15,0.31,0.18,0.35,0.03c0-0.01,0.01-0.02,0.01-0.03
					C9.38,27.87,8.92,27.83,8.94,28.09L8.94,28.09z"/>
			</g>
		</g>
		<g>
			<g>
				<path class="st10" d="M5.63,28.74c0.29,0.03,0.33-0.29,0.04-0.32C5.37,28.39,5.33,28.71,5.63,28.74L5.63,28.74z"/>
			</g>
		</g>
		<g>
			<g>
				<path class="st10" d="M7.82,29.27c0.22,0.02,0.25-0.22,0.03-0.24C7.64,29.01,7.61,29.25,7.82,29.27L7.82,29.27z"/>
			</g>
		</g>
		<g>
			<g>
				<path class="st10" d="M10.23,29.53c0.01,0,0.02-0.01,0.03-0.01c0.13-0.03,0.14-0.17,0.03-0.22c-0.01,0-0.02-0.01-0.03-0.01
					c-0.13-0.06-0.31-0.02-0.32,0.09C9.93,29.49,10.09,29.57,10.23,29.53L10.23,29.53z"/>
			</g>
		</g>
		<g>
			<g>
				<path class="st10" d="M12.02,30.07c0.29,0.03,0.33-0.29,0.04-0.31C11.77,29.73,11.73,30.04,12.02,30.07L12.02,30.07z"/>
			</g>
		</g>
		<g>
			<g>
				<path class="st2" d="M13.81,27.63c0.16,0,0.16-0.18,0-0.18C13.64,27.45,13.64,27.63,13.81,27.63L13.81,27.63z"/>
			</g>
		</g>
		<g>
			<g>
				<path class="st2" d="M15.61,26.37c0.05,0.14,0.07,0.34,0.23,0.43c0.04,0.02,0.1-0.01,0.1-0.05c0-0.14-0.1-0.29-0.15-0.42
					C15.75,26.23,15.58,26.27,15.61,26.37L15.61,26.37z"/>
			</g>
		</g>
		<g>
			<g>
				<path class="st2" d="M12.58,26.27c0.16,0.12,0.41,0.22,0.63,0.18c0.05-0.01,0.07-0.06,0.05-0.1c-0.11-0.15-0.33-0.14-0.47-0.25
					C12.65,26,12.45,26.17,12.58,26.27L12.58,26.27z"/>
			</g>
		</g>
		<g>
			<g>
				<path class="st2" d="M17.21,27.78c0.22,0.03,0.56,0.1,0.76-0.02c0.06-0.03,0.06-0.1,0-0.13c-0.2-0.11-0.53-0.05-0.76-0.02
					C17.11,27.62,17.11,27.76,17.21,27.78L17.21,27.78z"/>
			</g>
		</g>
		<g>
			<g>
				<path class="st2" d="M15.06,24.76c-0.07,0.08-0.15,0.15-0.22,0.23c-0.04,0.04-0.07,0.08-0.1,0.12c-0.04,0.05-0.06,0.1-0.08,0.16
					c-0.05,0.11,0.13,0.22,0.24,0.15c0.05-0.03,0.09-0.04,0.13-0.08c0.04-0.05,0.09-0.1,0.12-0.15c0.06-0.1,0.09-0.21,0.11-0.33
					C15.27,24.78,15.14,24.68,15.06,24.76L15.06,24.76z"/>
			</g>
		</g>
		<g>
			<g>
				<path class="st2" d="M14.37,28.94c0.1,0.05,0.22,0.08,0.33,0.11c0.06,0.02,0.12,0.02,0.17,0.03c0.05,0.01,0.09,0.02,0.15,0.02
					c0.04,0,0.08-0.03,0.06-0.06c-0.08-0.15-0.42-0.18-0.59-0.25C14.36,28.74,14.23,28.88,14.37,28.94L14.37,28.94z"/>
			</g>
		</g>
		<g>
			<g>
				<path class="st2" d="M14.33,30.05c0.01,0.14-0.01,0.36,0.2,0.44c0.09,0.03,0.23,0.01,0.25-0.07c0.04-0.14-0.1-0.3-0.22-0.41
					C14.49,29.95,14.32,29.96,14.33,30.05L14.33,30.05z"/>
			</g>
		</g>
		<g>
			<g>
				<path class="st2" d="M29.84,26.28c-0.02,0.16-0.01,0.61,0.29,0.59c0.15-0.01,0.13-0.16,0.1-0.25c-0.03-0.12-0.1-0.22-0.11-0.34
					C30.11,26.13,29.86,26.13,29.84,26.28L29.84,26.28z"/>
			</g>
		</g>
		<g>
			<g>
				<g>
					<path class="st10" d="M20.06,29.92c-0.16,0.17-0.17,0.42-0.18,0.62c-0.02,0.2-0.09,0.54,0.18,0.67c0.21,0.1,0.45-0.06,0.4-0.21
						c-0.02-0.06-0.03-0.08-0.04-0.17c-0.01-0.13-0.01-0.25-0.01-0.38c0-0.17,0.01-0.41-0.16-0.55
						C20.19,29.86,20.1,29.88,20.06,29.92L20.06,29.92z"/>
				</g>
			</g>
			<g>
				<g>
					<path class="st10" d="M20.35,30.09c0.12,0.02,0.23,0.06,0.36,0.08c0.14,0.02,0.27,0.02,0.42,0c0.14-0.02,0.22-0.14,0.18-0.23
						c-0.04-0.11-0.18-0.14-0.32-0.13c-0.1,0.01-0.21,0.02-0.31,0.03c-0.11,0.01-0.22,0.04-0.33,0.06
						C20.22,29.92,20.22,30.06,20.35,30.09L20.35,30.09z"/>
				</g>
			</g>
			<g>
				<g>
					<path class="st10" d="M19.95,29.94c-0.27-0.07-0.62-0.13-0.91-0.09c-0.2,0.03-0.19,0.25,0,0.28c0.28,0.04,0.64,0.04,0.91-0.02
						C20.06,30.08,20.06,29.97,19.95,29.94L19.95,29.94z"/>
				</g>
			</g>
			<g>
				<g>
					<path class="st11" d="M20.18,30.79c-0.09,0-0.17,0.06-0.17,0.12c0,0.07,0.08,0.12,0.17,0.12c0.09,0,0.17-0.06,0.17-0.12
						C20.35,30.85,20.27,30.79,20.18,30.79L20.18,30.79z"/>
				</g>
			</g>
			<g>
				<g>
					<path class="st11" d="M21.16,29.95C21.16,29.95,21.16,29.95,21.16,29.95c-0.03-0.05-0.13-0.07-0.19-0.06
						c-0.09,0.02-0.14,0.08-0.12,0.15c0,0,0,0,0,0c0.02,0.06,0.12,0.1,0.21,0.08c0.04-0.01,0.08-0.03,0.1-0.06
						C21.19,30.03,21.19,29.99,21.16,29.95L21.16,29.95z"/>
				</g>
			</g>
			<g>
				<g>
					<path class="st11" d="M20.77,29.95c-0.01-0.01-0.01-0.01-0.02-0.02c-0.05-0.02-0.1,0.02-0.08,0.05c0,0,0,0,0,0
						c0-0.01,0-0.02-0.01-0.03c0,0,0,0,0,0c-0.01,0.03,0.02,0.05,0.06,0.05C20.77,30.01,20.79,29.97,20.77,29.95L20.77,29.95z"/>
				</g>
			</g>
			<g>
				<g>
					<path class="st11" d="M19.14,29.91c-0.07,0-0.12,0.04-0.12,0.09c0,0.05,0.06,0.09,0.12,0.09c0.07,0,0.12-0.04,0.12-0.09
						C19.26,29.95,19.21,29.91,19.14,29.91L19.14,29.91z"/>
				</g>
			</g>
			<g>
				<g>
					<path class="st10" d="M20.21,30.05c0.16-0.17,0.17-0.42,0.18-0.62c0.02-0.2,0.09-0.54-0.18-0.67c-0.21-0.1-0.45,0.06-0.4,0.22
						c0.02,0.06,0.03,0.08,0.04,0.17c0.01,0.13,0.01,0.25,0.01,0.38c0,0.17-0.01,0.41,0.16,0.55
						C20.08,30.11,20.18,30.09,20.21,30.05L20.21,30.05z"/>
				</g>
			</g>
			<g>
				<g>
					<path class="st11" d="M20.11,29.09c0.09,0,0.17-0.05,0.17-0.12c0-0.07-0.08-0.12-0.17-0.12c-0.09,0-0.17,0.05-0.17,0.12
						C19.94,29.03,20.01,29.09,20.11,29.09L20.11,29.09z"/>
				</g>
			</g>
			<g>
				<g>
					<path class="st11" d="M20.16,30.61c0.08,0,0.08-0.08,0-0.08S20.09,30.61,20.16,30.61L20.16,30.61z"/>
				</g>
			</g>
			<g>
				<g>
					<path class="st11" d="M19.44,30.06c0.08,0,0.08-0.08,0-0.08C19.36,29.98,19.36,30.06,19.44,30.06L19.44,30.06z"/>
				</g>
			</g>
		</g>
		<g>
			<g>
				<g>
					<path class="st10" d="M25.05,26.42c-0.16,0.17-0.17,0.42-0.18,0.62c-0.02,0.2-0.09,0.54,0.18,0.67c0.21,0.1,0.45-0.06,0.4-0.22
						c-0.02-0.06-0.03-0.08-0.04-0.17c-0.01-0.13-0.01-0.25-0.01-0.38c0-0.17,0.01-0.41-0.16-0.55
						C25.18,26.36,25.08,26.38,25.05,26.42L25.05,26.42z"/>
				</g>
			</g>
			<g>
				<g>
					<path class="st10" d="M25.34,26.59c0.12,0.02,0.23,0.06,0.36,0.08c0.14,0.02,0.27,0.02,0.42,0c0.14-0.02,0.22-0.14,0.18-0.23
						c-0.04-0.11-0.18-0.14-0.32-0.13c-0.1,0.01-0.21,0.02-0.31,0.03c-0.11,0.01-0.22,0.04-0.33,0.06
						C25.2,26.42,25.21,26.56,25.34,26.59L25.34,26.59z"/>
				</g>
			</g>
			<g>
				<g>
					<path class="st10" d="M24.93,26.44c-0.27-0.07-0.62-0.13-0.91-0.09c-0.2,0.03-0.19,0.25,0,0.28c0.28,0.04,0.64,0.04,0.91-0.02
						C25.05,26.58,25.04,26.47,24.93,26.44L24.93,26.44z"/>
				</g>
			</g>
			<g>
				<g>
					<path class="st11" d="M25.16,27.29c-0.09,0-0.17,0.06-0.17,0.12c0,0.07,0.08,0.12,0.17,0.12s0.17-0.06,0.17-0.12
						C25.33,27.34,25.26,27.29,25.16,27.29L25.16,27.29z"/>
				</g>
			</g>
			<g>
				<g>
					<path class="st11" d="M26.14,26.45C26.14,26.45,26.14,26.45,26.14,26.45c-0.03-0.05-0.13-0.07-0.19-0.06
						c-0.09,0.02-0.14,0.08-0.12,0.15c0,0,0,0,0,0c0.02,0.06,0.12,0.1,0.21,0.08c0.04-0.01,0.08-0.03,0.1-0.06
						C26.18,26.53,26.17,26.49,26.14,26.45L26.14,26.45z"/>
				</g>
			</g>
			<g>
				<g>
					<path class="st11" d="M25.75,26.44c0-0.01-0.01-0.01-0.02-0.02c-0.05-0.02-0.1,0.02-0.07,0.05c0,0,0,0,0,0
						c0-0.01,0-0.02-0.01-0.03c0,0,0,0,0,0c-0.01,0.03,0.02,0.05,0.05,0.05C25.75,26.51,25.77,26.47,25.75,26.44L25.75,26.44z"/>
				</g>
			</g>
			<g>
				<g>
					<path class="st11" d="M24.12,26.41c-0.07,0-0.12,0.04-0.12,0.09c0,0.05,0.06,0.09,0.12,0.09c0.07,0,0.12-0.04,0.12-0.09
						C24.25,26.45,24.19,26.41,24.12,26.41L24.12,26.41z"/>
				</g>
			</g>
			<g>
				<g>
					<path class="st10" d="M25.2,26.55c0.16-0.17,0.17-0.42,0.18-0.62c0.02-0.2,0.09-0.54-0.18-0.67c-0.21-0.1-0.45,0.06-0.4,0.21
						c0.02,0.06,0.03,0.08,0.04,0.17c0.01,0.13,0.01,0.25,0.01,0.38c0,0.17-0.01,0.41,0.15,0.55C25.07,26.61,25.16,26.59,25.2,26.55
						L25.2,26.55z"/>
				</g>
			</g>
			<g>
				<g>
					<path class="st11" d="M25.09,25.59c0.09,0,0.17-0.06,0.17-0.12c0-0.07-0.08-0.12-0.17-0.12c-0.09,0-0.17,0.06-0.17,0.12
						C24.92,25.53,25,25.59,25.09,25.59L25.09,25.59z"/>
				</g>
			</g>
			<g>
				<g>
					<path class="st11" d="M25.15,27.11c0.08,0,0.08-0.08,0-0.08S25.07,27.11,25.15,27.11L25.15,27.11z"/>
				</g>
			</g>
			<g>
				<g>
					<path class="st11" d="M24.42,26.56c0.08,0,0.08-0.08,0-0.08C24.35,26.48,24.35,26.56,24.42,26.56L24.42,26.56z"/>
				</g>
			</g>
		</g>
		<g>
			<g>
				<g>
					<path class="st10" d="M15.14,33.43c-0.16,0.17-0.17,0.42-0.18,0.62c-0.01,0.2-0.09,0.54,0.18,0.67c0.21,0.1,0.45-0.06,0.4-0.21
						c-0.02-0.06-0.03-0.08-0.04-0.17c-0.01-0.13-0.01-0.25-0.01-0.38c0-0.17,0.01-0.41-0.15-0.55
						C15.27,33.37,15.18,33.39,15.14,33.43L15.14,33.43z"/>
				</g>
			</g>
			<g>
				<g>
					<path class="st10" d="M15.43,33.6c0.12,0.02,0.23,0.06,0.36,0.08c0.14,0.02,0.27,0.02,0.42,0c0.14-0.02,0.22-0.14,0.18-0.23
						c-0.04-0.11-0.18-0.14-0.32-0.13c-0.1,0.01-0.21,0.02-0.31,0.03c-0.11,0.01-0.22,0.04-0.33,0.05
						C15.3,33.43,15.3,33.57,15.43,33.6L15.43,33.6z"/>
				</g>
			</g>
			<g>
				<g>
					<path class="st10" d="M15.03,33.45c-0.27-0.07-0.62-0.13-0.91-0.09c-0.2,0.03-0.19,0.25,0,0.28c0.28,0.04,0.64,0.04,0.91-0.02
						C15.14,33.59,15.14,33.48,15.03,33.45L15.03,33.45z"/>
				</g>
			</g>
			<g>
				<g>
					<path class="st11" d="M15.26,34.3c-0.09,0-0.17,0.06-0.17,0.12c0,0.07,0.08,0.12,0.17,0.12c0.09,0,0.17-0.06,0.17-0.12
						C15.43,34.36,15.35,34.3,15.26,34.3L15.26,34.3z"/>
				</g>
			</g>
			<g>
				<g>
					<path class="st11" d="M16.24,33.46C16.24,33.46,16.24,33.46,16.24,33.46c-0.03-0.05-0.13-0.07-0.19-0.06
						c-0.09,0.02-0.14,0.08-0.12,0.15c0,0,0,0,0,0c0.02,0.06,0.12,0.1,0.21,0.08c0.04-0.01,0.08-0.03,0.1-0.05
						C16.27,33.54,16.26,33.5,16.24,33.46L16.24,33.46z"/>
				</g>
			</g>
			<g>
				<g>
					<path class="st11" d="M15.85,33.46c0-0.01-0.01-0.01-0.02-0.02c-0.05-0.02-0.1,0.02-0.08,0.05c0,0,0,0,0,0
						c0-0.01,0-0.02-0.01-0.03c0,0,0,0,0,0c-0.01,0.03,0.02,0.05,0.06,0.05C15.85,33.52,15.86,33.48,15.85,33.46L15.85,33.46z"/>
				</g>
			</g>
			<g>
				<g>
					<path class="st11" d="M14.22,33.43c-0.07,0-0.12,0.04-0.12,0.09c0,0.05,0.06,0.09,0.12,0.09c0.07,0,0.12-0.04,0.12-0.09
						C14.34,33.46,14.28,33.43,14.22,33.43L14.22,33.43z"/>
				</g>
			</g>
			<g>
				<g>
					<path class="st10" d="M15.29,33.56c0.16-0.17,0.17-0.42,0.18-0.62c0.02-0.2,0.09-0.54-0.18-0.67c-0.21-0.1-0.45,0.06-0.4,0.21
						c0.02,0.06,0.03,0.08,0.04,0.17c0.01,0.13,0.01,0.25,0.01,0.38c0,0.17-0.01,0.41,0.16,0.55C15.16,33.62,15.25,33.6,15.29,33.56
						L15.29,33.56z"/>
				</g>
			</g>
			<g>
				<g>
					<path class="st11" d="M15.19,32.6c0.09,0,0.17-0.06,0.17-0.12c0-0.07-0.08-0.12-0.17-0.12c-0.09,0-0.17,0.06-0.17,0.12
						C15.02,32.54,15.09,32.6,15.19,32.6L15.19,32.6z"/>
				</g>
			</g>
			<g>
				<g>
					<path class="st11" d="M15.24,34.12c0.08,0,0.08-0.08,0-0.08C15.17,34.03,15.17,34.12,15.24,34.12L15.24,34.12z"/>
				</g>
			</g>
			<g>
				<g>
					<path class="st11" d="M14.52,33.57c0.08,0,0.08-0.08,0-0.08C14.44,33.49,14.44,33.57,14.52,33.57L14.52,33.57z"/>
				</g>
			</g>
		</g>
		<g>
			<path class="st11" d="M26.57,24.36c0.44-0.5,1.02-0.85,1.54-1.27c0.5-0.39,0.93-0.81,1.49-1.13c0.4-0.23,0.13-0.93-0.32-0.75
				c-0.63,0.24-1.08,0.77-1.56,1.22c-0.56,0.52-1.1,1.01-1.49,1.67C26.1,24.31,26.4,24.55,26.57,24.36L26.57,24.36z"/>
		</g>
		<g>
			<path class="st11" d="M26.95,25.55c0.7-0.38,1.33-0.83,2-1.26c0.5-0.33,1.47-0.62,1.64-1.23c0.03-0.09-0.03-0.18-0.12-0.21
				c-0.62-0.22-1.4,0.49-1.88,0.83c-0.7,0.49-1.3,1.02-1.77,1.74C26.76,25.5,26.87,25.59,26.95,25.55L26.95,25.55z"/>
		</g>
		<g>
			<path class="st11" d="M12.79,33.57c-0.68,0.56-1.63,0.85-2.4,1.29c-0.38,0.22-1.55,1.04-0.99,1.59c0.43,0.43,1.53-0.65,1.87-0.87
				c0.78-0.49,1.41-0.95,1.94-1.71C13.38,33.62,13,33.39,12.79,33.57L12.79,33.57z"/>
		</g>
		<g>
			<path class="st11" d="M12.91,35.34c-0.91,0.49-2.36,1.24-2.52,2.37c-0.04,0.29,0.25,0.63,0.55,0.42
				c0.45-0.31,0.77-0.76,1.15-1.14c0.42-0.42,0.79-0.86,1.12-1.35C13.34,35.45,13.1,35.24,12.91,35.34L12.91,35.34z"/>
		</g>
		<g>
			<path class="st11" d="M28.38,26.06c0.43,0.1,1.07-0.24,1.31-0.58c0.17-0.23-0.11-0.54-0.36-0.46c-0.25,0.07-0.45,0.25-0.66,0.39
				c-0.17,0.12-0.34,0.29-0.37,0.5C28.29,25.98,28.31,26.05,28.38,26.06L28.38,26.06z"/>
		</g>
	</g>
	<g>
		<g>
			<g>
				<path class="st5" d="M5.27,11.2c0,0.1-0.04,0.24-0.04,0.33c0,0.1,0,0.2,0.01,0.29c0.04,0.33,0.16,0.65,0.41,0.88
					c-0.23,0.01-0.81,0.01-1.04,0c0.25-0.22,0.38-0.54,0.41-0.88c0.01-0.1,0.01-0.2,0.01-0.29C5.04,11.44,5,11.3,5,11.2H5.27z"/>
			</g>
		</g>
		<g>
			<g>
				<path class="st5" d="M5.2,11.45c0.1,0.01,0.15,0.11,0.33,0.29c0.16,0.17,0.32,0.35,0.68,0.39c0.18,0.02,0.43-0.08,0.54-0.22
					c0.09-0.12,0.15-0.27,0.19-0.42c0.07-0.28,0.05-0.56-0.09-0.81c-0.14-0.25-0.51-0.36-0.75-0.23c-0.12,0.07-0.16,0.16-0.28,0.18
					c-0.04,0.01-0.06-0.03-0.06-0.06c0.04-0.17,0.17-0.19,0.23-0.39c0.07-0.24,0.11-0.43-0.24-0.73c-0.27-0.23-0.92-0.21-1.19,0
					C4.25,9.67,4.22,9.86,4.29,10.1c0.05,0.19,0.16,0.28,0.21,0.44c0.02,0.05-0.04,0.11-0.09,0.09c-0.08-0.03-0.13-0.11-0.23-0.17
					c-0.23-0.14-0.6-0.02-0.74,0.23c-0.14,0.25-0.17,0.53-0.09,0.81c0.04,0.15,0.09,0.3,0.18,0.42c0.11,0.14,0.35,0.24,0.54,0.22
					c0.36-0.04,0.52-0.22,0.67-0.39c0.18-0.19,0.23-0.28,0.33-0.29H5.2z"/>
			</g>
		</g>
	</g>
	<g>
		<path class="st5" d="M6.29,2.75V6.6c0,0.67-0.15,1.14-0.46,1.4C5.53,8.27,5.12,8.4,4.61,8.4c-0.27,0-0.54-0.04-0.82-0.11V7.72
			C4.06,7.78,4.3,7.81,4.52,7.81c0.31,0,0.54-0.05,0.69-0.14c0.15-0.09,0.25-0.21,0.3-0.36C5.56,7.17,5.59,6.93,5.59,6.6V2.75H6.29z
			"/>
	</g>
	<g>
		<g>
			<g>
				<path class="st5" d="M34.67,48.53c0-0.1,0.04-0.24,0.04-0.33c0-0.1,0-0.2-0.01-0.29c-0.04-0.33-0.16-0.65-0.41-0.88
					c0.23-0.01,0.81-0.01,1.04,0c-0.25,0.22-0.38,0.54-0.41,0.88c-0.01,0.1-0.01,0.2-0.01,0.29c0,0.1,0.04,0.24,0.04,0.33H34.67z"/>
			</g>
		</g>
		<g>
			<g>
				<path class="st5" d="M34.74,48.29c-0.1-0.01-0.15-0.11-0.33-0.29c-0.16-0.17-0.32-0.35-0.68-0.39
					c-0.18-0.02-0.43,0.08-0.54,0.22c-0.09,0.12-0.15,0.27-0.19,0.42c-0.07,0.28-0.05,0.56,0.09,0.81c0.14,0.25,0.51,0.36,0.74,0.23
					c0.12-0.07,0.17-0.16,0.28-0.18c0.04-0.01,0.06,0.03,0.06,0.06c-0.05,0.17-0.17,0.19-0.23,0.39c-0.07,0.24-0.1,0.43,0.24,0.73
					c0.27,0.23,0.92,0.21,1.2,0c0.29-0.21,0.31-0.41,0.25-0.65c-0.05-0.19-0.16-0.28-0.22-0.44c-0.02-0.05,0.04-0.11,0.09-0.09
					c0.08,0.03,0.13,0.11,0.23,0.17c0.23,0.14,0.61,0.02,0.75-0.23c0.14-0.25,0.17-0.53,0.09-0.81c-0.04-0.15-0.09-0.3-0.18-0.42
					c-0.11-0.14-0.36-0.24-0.54-0.22c-0.36,0.04-0.52,0.22-0.68,0.39c-0.18,0.19-0.23,0.28-0.33,0.29H34.74z"/>
			</g>
		</g>
	</g>
	<g>
		<path class="st5" d="M33.64,56.98v-3.85c0-0.67,0.15-1.14,0.46-1.4c0.31-0.26,0.71-0.4,1.22-0.4c0.27,0,0.55,0.04,0.82,0.11v0.57
			c-0.27-0.06-0.51-0.09-0.73-0.09c-0.31,0-0.54,0.05-0.69,0.14c-0.15,0.09-0.25,0.21-0.3,0.36c-0.05,0.15-0.08,0.38-0.08,0.71v3.85
			H33.64z"/>
	</g>
	<g>
		<g>
			<path class="st3" d="M14.4,56.81H6.02c-1.62,0-2.93-1.38-2.93-3.07V14.95c0-0.05,0.04-0.09,0.09-0.09c0.05,0,0.09,0.04,0.09,0.09
				v38.78c0,1.6,1.23,2.89,2.75,2.89h8.38c0.05,0,0.09,0.04,0.09,0.09C14.49,56.77,14.45,56.81,14.4,56.81z"/>
		</g>
		<g>
			<path class="st3" d="M32,56.81h-7.55c-0.05,0-0.09-0.04-0.09-0.09c0-0.05,0.04-0.09,0.09-0.09H32c0.05,0,0.09,0.04,0.09,0.09
				C32.09,56.77,32.05,56.81,32,56.81z"/>
		</g>
		<g>
			<path class="st3" d="M36.76,45.06c-0.05,0-0.09-0.04-0.09-0.09V6c0-1.6-1.23-2.89-2.75-2.89h-8.28c-0.05,0-0.09-0.04-0.09-0.09
				c0-0.05,0.04-0.09,0.09-0.09h8.28c1.62,0,2.93,1.38,2.93,3.07v38.97C36.85,45.02,36.81,45.06,36.76,45.06z"/>
		</g>
		<g>
			<path class="st3" d="M15.41,3.1H8.22c-0.05,0-0.09-0.04-0.09-0.09c0-0.05,0.04-0.09,0.09-0.09h7.19c0.05,0,0.09,0.04,0.09,0.09
				C15.5,3.06,15.46,3.1,15.41,3.1z"/>
		</g>
	</g>
</g>
</svg>
