<?xml version="1.0" encoding="utf-8"?>
<!-- Generator: Adobe Illustrator 26.3.1, SVG Export Plug-In . SVG Version: 6.00 Build 0)  -->
<svg version="1.1" id="Layer_1" xmlns="http://www.w3.org/2000/svg" xmlns:xlink="http://www.w3.org/1999/xlink" x="0px" y="0px"
	 viewBox="0 0 40 60" style="enable-background:new 0 0 40 60;" xml:space="preserve">
<style type="text/css">
	.st0{fill:#FFFFFF;}
	.st1{fill:#2D2D2D;}
	.st2{fill:#990028;}
	.st3{fill:#0C0A35;}
	.st4{fill:#B70027;}
	.st5{fill:#FFD6A1;}
	.st6{clip-path:url(#SVGID_00000140736284305773130470000000159479087574743480_);}
	.st7{clip-path:url(#SVGID_00000156576479331074815600000005663714970970232484_);}
	.st8{clip-path:url(#SVGID_00000109732281998609496390000003929971940611901857_);}
	.st9{fill:#F70032;}
	.st10{clip-path:url(#SVGID_00000150804763105952245310000015867497003572584890_);}
	.st11{clip-path:url(#SVGID_00000072985636610086009760000016401181488891208593_);}
	.st12{clip-path:url(#SVGID_00000071545192391308758240000013815333601495900813_);}
	.st13{fill:#222272;}
	.st14{fill:#D6002B;}
</style>
<g>
	<g>
		<path class="st0" d="M36.54,59.91H3.46c-1.86,0-3.37-1.49-3.37-3.32V3.41c0-1.84,1.51-3.32,3.37-3.32h33.08
			c1.86,0,3.37,1.49,3.37,3.32v53.17C39.91,58.42,38.4,59.91,36.54,59.91z"/>
		<path class="st1" d="M36.54,60H3.46C1.55,60,0,58.47,0,56.59V3.41C0,1.53,1.55,0,3.46,0h33.08C38.45,0,40,1.53,40,3.41v53.17
			C40,58.47,38.45,60,36.54,60z M3.46,0.18c-1.81,0-3.28,1.45-3.28,3.23v53.17c0,1.78,1.47,3.23,3.28,3.23h33.08
			c1.81,0,3.28-1.45,3.28-3.23V3.41c0-1.78-1.47-3.23-3.28-3.23H3.46z"/>
	</g>
	<g>
		<g>
			<path class="st2" d="M21.15,19.45c0.78,0.01,1.53,0.25,2.25,0.47c1.76,0.55,3.15,0.69,4.82,1.33c3.64,1.38,7.94,2.01,7.46,9.57
				c-0.2,3.14-1.44,3.32-3.91,6.46c-0.54,0.68-3.73-1.16-4.76-1.13c-5.95,0.12-10.38,0.29-16.34,0.41c-0.17,0-0.55,0.14-0.65,0.04
				c-0.39-0.45-3.83-5.49-4.15-8.26c-0.2-1.67,0.2-2.65,0.77-3.62c0.35-0.6,1.87-1.69,2.51-2.1c1.08-0.68,2.35-1.12,3.64-1.49
				c1.97-0.57,4.36-0.9,6.36-1.37C19.82,19.59,20.48,19.43,21.15,19.45z"/>
		</g>
		<g>
			<path class="st2" d="M19.29,40.55c-0.78-0.02-1.53-0.25-2.25-0.48c-1.76-0.55-3.21-0.05-4.91-0.64
				c-4.72-1.62-7.67-4.82-6.3-12.62c0.54-3.1,2.03,0.37,4.51-2.76c0.54-0.68,2.06-0.18,3.09-0.2c5.95-0.12,10.38-0.3,16.34-0.41
				c0.17,0,0.55-0.14,0.65-0.04c0.39,0.45,3.83,5.49,4.15,8.26c0.2,1.68-0.2,2.66-0.77,3.62c-0.35,0.6-1.87,1.69-2.52,2.1
				c-1.08,0.68-2.35,1.12-3.64,1.49c-1.97,0.57-4.36,0.91-6.36,1.37C20.62,40.41,19.96,40.56,19.29,40.55z"/>
		</g>
		<g>
			<g>
				<path class="st3" d="M19.38,19.86c-1.43-0.67-2.8-0.36-4.19,0.24c-1,0.43-1.22,1.86-0.72,2.7c0.56,0.94,1.79,1.24,2.74,0.71
					c0.86-0.48,1.68-0.89,2.45-1.52C20.31,21.46,20.14,20.22,19.38,19.86L19.38,19.86z"/>
			</g>
		</g>
		<g>
			<g>
				<path class="st3" d="M20.59,19.04c-0.76,0.43-1.25,1.18-1.61,1.95c-0.5,1.05-0.32,2.14,0.06,3.19c0.44,1.24,2.2,1.62,3.28,1.08
					c1.24-0.61,1.63-2.03,1.1-3.23c0.29,0.65,0.06,0.13,0.03-0.11c-0.04-0.38-0.22-0.84-0.36-1.18c-0.19-0.47-0.34-0.98-0.71-1.35
					C21.91,18.94,21.19,18.7,20.59,19.04L20.59,19.04z"/>
			</g>
		</g>
		<g>
			<g>
				<path class="st3" d="M21.36,21.28c0.42,0.56,0.96,0.82,1.57,1.15c0.79,0.42,1.73,0.91,2.64,0.87c0.87-0.05,1.64-0.55,1.88-1.41
					c0.25-0.91-0.19-1.64-0.9-2.17c-1.13-0.86-4.03-0.88-5.03,0.24C21.23,20.29,21.05,20.87,21.36,21.28L21.36,21.28z"/>
			</g>
		</g>
		<g>
			<path class="st4" d="M22.35,1.5c-0.26,0.35-0.52,0.71-0.76,1.07c-0.07,0.01-0.14-0.05-0.18-0.1c-0.3-0.33-0.54-0.58-0.74-0.97
				c-0.04-0.08-0.09-0.17-0.05-0.25c0.04-0.08,0.52-0.55,0.69-0.67c0.06-0.05,0.13-0.09,0.22-0.1c0.1,0,0.19,0.08,0.26,0.15
				c0.11,0.12,0.22,0.23,0.33,0.35C22.25,1.12,22.47,1.35,22.35,1.5z"/>
		</g>
		<g>
			<path class="st5" d="M24.18,17.55c-0.02,0.51-0.05,1.02,0,1.53c0.07,0.75,0.01,1.07,0.03,1.74c0,0.11-0.24,1.08-1.31,1.39
				c-1.43,0.42-2.41,0.41-3.45-0.12c-0.16-0.08-0.46-0.24-0.63-0.5c-0.1-0.15-0.11-0.7-0.09-0.87c0.06-0.83-0.04-1.66-0.29-2.45
				c-0.03-0.11-0.08-0.23-0.17-0.29c-0.1-0.07-0.24-0.05-0.36-0.04c-0.5,0.04-1.02-0.01-1.5-0.14c-0.16-0.04-0.32-0.1-0.43-0.22
				c-0.16-0.18-0.16-0.45-0.15-0.68c0.04-1.04-0.18-1.46,0.24-3.1c-0.2,0.04-0.41,0.07-0.61,0.01c-0.19-0.06-0.36-0.25-0.33-0.45
				c0.02-0.12,0.12-0.22,0.21-0.31c0.3-0.31,0.57-0.64,0.81-0.99c0.12-0.17,0.24-0.36,0.28-0.57c0.03-0.17,0.01-0.35-0.01-0.52
				c-0.06-0.54-0.13-1.08-0.19-1.63C16.17,9.11,16.35,9,16.58,8.93c1.56-0.46,3.2-0.66,4.82-0.6c0.22,0.01,0.44,0.02,0.64,0.09
				c0.53,0.18,0.85,0.71,1.04,1.22c0.14,0.39,0.23,0.8,0.32,1.21c0.16,0.75,0.33,1.51,0.49,2.26c0.21,0.97,0.42,1.95,0.4,2.95
				C24.29,16.57,24.2,17.06,24.18,17.55z"/>
		</g>
		<g>
			<path class="st4" d="M19.13,15.83c0.06,0,0.12-0.05,0.12-0.11c0-0.16-0.09-0.31-0.18-0.45c-0.25-0.38-0.49-0.75-0.74-1.13
				c-0.05-0.08-0.11-0.17-0.19-0.22c-0.12-0.08-0.33-0.16-0.47-0.15c-0.61,0.02-1.02-0.01-1.63,0.02c-0.13,0-0.25,0.01-0.36,0.07
				c-0.09,0.05-0.16,0.14-0.22,0.22c-0.29,0.38-1.26,1.32-1.32,1.59C14.09,15.87,17.6,15.82,19.13,15.83z"/>
		</g>
		<g>
			<path class="st4" d="M20.97,16.04c0.13-0.27,0.11-0.58,0.2-0.86c0.08-0.26,0.34-0.52,0.61-0.46c0.03,0.01,0.05,0.03,0.05,0.06
				c0.05,0.6,0.07,1.2,0.06,1.8c-0.01,0.22-0.02,0.44-0.11,0.64c-0.08,0.18-0.48,0.58-0.87,0.98c-0.74,0.77-1.09,0.88-1.91,1.57
				c-0.51,0.43-1.01,0.85-1.52,1.28c-0.15,0.12-0.3,0.25-0.49,0.32c-0.18,0.07-0.41,0.06-0.55-0.07c-0.14-0.12-0.18-0.32-0.21-0.5
				c-0.12-0.95-0.33-2.61-0.43-3.51c-0.02-0.21,0.08,0,0.57,0.02c1.14,0.06,2.2-0.25,3.31-0.52C20.18,16.67,20.75,16.5,20.97,16.04z
				"/>
		</g>
		<g>
			<path class="st0" d="M22.56,11.56c-0.58,0.36-1.17,0.63-1.85,0.66c-0.9,0.04-1.82-0.39-1.84-0.46c-0.01-0.05,0.02-0.11,0.05-0.15
				c0.12-0.15,0.29-0.25,0.46-0.33c0.91-0.42,2.02-0.4,2.91,0.06C22.4,11.39,22.51,11.46,22.56,11.56z"/>
		</g>
		<g>
			<path class="st3" d="M22.54,10.23c-1.03-0.45-2.24-0.49-3.28-0.08c-0.28,0.11-0.54,0.28-0.74,0.5c-0.07,0.08-0.13,0.17-0.14,0.27
				c-0.01,0.11,0.08,0.24,0.19,0.24c0.07,0,0.13-0.04,0.18-0.08c1-0.69,2.36-0.84,3.5-0.4c0.1,0.04,0.21,0,0.26-0.09l0.09-0.17
				C22.64,10.35,22.61,10.26,22.54,10.23z"/>
		</g>
		<g>
			<path class="st3" d="M20.24,11.41c-0.08,0.12-0.08,0.3,0,0.42c0.06,0.09,0.16,0.14,0.26,0.16c0.17,0.04,0.37,0.02,0.52-0.08
				c0.12-0.09,0.2-0.28,0.14-0.42c-0.04-0.12-0.1-0.32-0.51-0.31C20.49,11.18,20.32,11.28,20.24,11.41z"/>
		</g>
		<g>
			<path class="st2" d="M23.06,12.07c0.05,0.5,0.11,1,0.16,1.49c0.2,1.9,0.4,3.81,0.66,5.71c0.01,0.09,0.04,0.19,0.12,0.21
				c0.06,0.02,0.12-0.01,0.17-0.04c1.44-0.75,2.89-1.5,4.25-2.38c0.29-0.19,0.6-0.42,0.68-0.75c0.08-0.32-0.06-0.64-0.21-0.94
				c-0.81-1.66-1.71-3.29-2.32-5.04c-0.17-0.48-0.31-0.97-0.56-1.41c-0.07-0.13-0.16-0.26-0.28-0.35c-0.13-0.09-0.28-0.13-0.43-0.17
				c-0.92-0.23-1.87-0.36-2.82-0.38c-0.04,0.31,0.05,0.62,0.12,0.93C22.84,9.98,22.95,11.02,23.06,12.07z"/>
		</g>
		<g>
			<path class="st2" d="M24.66,5.8c0.19,0.29,0.2,0.66,0.38,0.95c0.16,0.25,0.4,0.49,0.41,0.79c-0.18,0.14-0.43,0.14-0.66,0.14
				c-2.56,0-5.12,0.01-7.68,0.01c-0.03,0-0.07,0-0.1-0.01c-0.14-0.05-0.1-0.26-0.03-0.39c0.4-0.75,2.29-3.27,2.81-3.78
				c0.3-0.29,0.6-0.58,0.9-0.87c0.28-0.27,0.63-0.56,1-0.45C21.8,2.2,22.58,2.66,24.66,5.8z"/>
		</g>
		<g>
			<defs>
				<path id="SVGID_1_" d="M19.13,15.83c0.06,0,0.12-0.05,0.12-0.11c0-0.16-0.09-0.31-0.18-0.45c-0.25-0.38-0.49-0.75-0.74-1.13
					c-0.05-0.08-0.11-0.17-0.19-0.22c-0.12-0.08-0.33-0.16-0.47-0.15c-0.61,0.02-1.02-0.01-1.63,0.02c-0.13,0-0.25,0.01-0.36,0.07
					c-0.09,0.05-0.16,0.14-0.22,0.22c-0.29,0.38-1.26,1.32-1.32,1.59C14.09,15.87,17.6,15.82,19.13,15.83z"/>
			</defs>
			<clipPath id="SVGID_00000094577578424972377870000018105557687676739990_">
				<use xlink:href="#SVGID_1_"  style="overflow:visible;"/>
			</clipPath>
			<g style="clip-path:url(#SVGID_00000094577578424972377870000018105557687676739990_);">
				<g>
					<path class="st3" d="M15,13.84c-0.21,0.32-0.27,0.74-0.38,1.1c-0.2,0.62-0.49,1.29-0.59,1.93c-0.01,0.07,0.08,0.15,0.13,0.08
						c0.67-0.85,0.54-2.11,0.95-3.06C15.13,13.82,15.03,13.79,15,13.84L15,13.84z"/>
				</g>
			</g>
			<g style="clip-path:url(#SVGID_00000094577578424972377870000018105557687676739990_);">
				<g>
					<path class="st3" d="M15.6,12.94c-0.34,0.52-0.4,1.13-0.51,1.73c-0.15,0.8-0.43,1.57-0.6,2.36c-0.02,0.08,0.09,0.12,0.14,0.06
						c0.81-1.1,0.72-2.84,1.03-4.13C15.67,12.93,15.62,12.92,15.6,12.94L15.6,12.94z"/>
				</g>
			</g>
			<g style="clip-path:url(#SVGID_00000094577578424972377870000018105557687676739990_);">
				<g>
					<path class="st3" d="M15.97,13.01c-0.15,1.15-0.37,2.27-0.44,3.43c0,0.04,0.06,0.06,0.08,0.03c0.3-0.37,0.3-0.9,0.34-1.36
						c0.06-0.69,0.19-1.41,0.11-2.1C16.06,12.94,15.98,12.95,15.97,13.01L15.97,13.01z"/>
				</g>
			</g>
			<g style="clip-path:url(#SVGID_00000094577578424972377870000018105557687676739990_);">
				<g>
					<path class="st3" d="M16.49,13.06c-0.2,0.61-0.15,1.21-0.17,1.85c-0.02,0.61-0.14,1.21-0.16,1.81c0,0.08,0.1,0.1,0.14,0.04
						c0.62-1.08,0.15-2.5,0.31-3.66C16.63,13.02,16.52,12.98,16.49,13.06L16.49,13.06z"/>
				</g>
			</g>
			<g style="clip-path:url(#SVGID_00000094577578424972377870000018105557687676739990_);">
				<g>
					<path class="st3" d="M17.11,12.73c-0.12,0.64-0.13,1.26-0.11,1.92c0.02,0.75-0.09,1.58,0.15,2.31c0.02,0.07,0.11,0.07,0.14,0
						c0.43-1.35-0.21-2.84-0.06-4.21C17.22,12.68,17.12,12.67,17.11,12.73L17.11,12.73z"/>
				</g>
			</g>
			<g style="clip-path:url(#SVGID_00000094577578424972377870000018105557687676739990_);">
				<g>
					<path class="st3" d="M17.81,13.1c-0.14,1.05-0.06,2.27,0.21,3.3c0.02,0.06,0.11,0.06,0.13,0c0.23-1.05-0.19-2.24-0.23-3.3
						C17.92,13.03,17.82,13.04,17.81,13.1L17.81,13.1z"/>
				</g>
			</g>
			<g style="clip-path:url(#SVGID_00000094577578424972377870000018105557687676739990_);">
				<g>
					<path class="st3" d="M18.58,13.7c-0.12,0.86-0.2,1.84,0.08,2.68c0.01,0.05,0.09,0.07,0.11,0.02c0.16-0.36,0.1-0.75,0.06-1.13
						c-0.06-0.52-0.06-1.04-0.13-1.56C18.69,13.62,18.59,13.62,18.58,13.7L18.58,13.7z"/>
				</g>
			</g>
		</g>
		<g>
			<defs>
				<path id="SVGID_00000013174842177484441800000002895838555422536845_" d="M20.97,16.04c0.13-0.27,0.11-0.58,0.2-0.86
					c0.08-0.26,0.34-0.52,0.61-0.46c0.03,0.01,0.05,0.03,0.05,0.06c0.05,0.6,0.07,1.2,0.06,1.8c-0.01,0.22-0.02,0.44-0.11,0.64
					c-0.08,0.18-0.48,0.58-0.87,0.98c-0.74,0.77-1.09,0.88-1.91,1.57c-0.51,0.43-1.01,0.85-1.52,1.28c-0.15,0.12-0.3,0.25-0.49,0.32
					c-0.18,0.07-0.41,0.06-0.55-0.07c-0.14-0.12-0.18-0.32-0.21-0.5c-0.12-0.95-0.33-2.61-0.43-3.51c-0.02-0.21,0.08,0,0.57,0.02
					c1.14,0.06,2.2-0.25,3.31-0.52C20.18,16.67,20.75,16.5,20.97,16.04z"/>
			</defs>
			<clipPath id="SVGID_00000155826562589794751890000006625451575950287790_">
				<use xlink:href="#SVGID_00000013174842177484441800000002895838555422536845_"  style="overflow:visible;"/>
			</clipPath>
			<g style="clip-path:url(#SVGID_00000155826562589794751890000006625451575950287790_);">
				<g>
					<path class="st3" d="M16.22,16.65c-0.07,1.11,0.09,2.27,0.21,3.38c0.07,0.69,0,1.52,0.36,2.14c0.04,0.06,0.13,0.02,0.12-0.05
						c-0.37-1.77-0.37-3.67-0.6-5.47C16.3,16.59,16.22,16.59,16.22,16.65L16.22,16.65z"/>
				</g>
			</g>
			<g style="clip-path:url(#SVGID_00000155826562589794751890000006625451575950287790_);">
				<g>
					<path class="st3" d="M16.89,16.91c-0.16,1.51-0.01,3.48,0.49,4.93c0.02,0.05,0.09,0.05,0.1,0c0.13-0.66,0.02-1.29-0.07-1.95
						c-0.14-1-0.27-1.99-0.41-2.99C16.99,16.83,16.89,16.86,16.89,16.91L16.89,16.91z"/>
				</g>
			</g>
			<g style="clip-path:url(#SVGID_00000155826562589794751890000006625451575950287790_);">
				<g>
					<path class="st3" d="M17.72,16.84c-0.02,1.57,0.21,3.09,0.51,4.62c0.02,0.07,0.14,0.07,0.15,0c0.15-0.75-0.09-1.48-0.19-2.22
						c-0.11-0.8-0.3-1.61-0.37-2.4C17.81,16.78,17.72,16.78,17.72,16.84L17.72,16.84z"/>
				</g>
			</g>
			<g style="clip-path:url(#SVGID_00000155826562589794751890000006625451575950287790_);">
				<g>
					<path class="st3" d="M18.38,16.58c-0.04,1.41,0.11,3.1,0.54,4.45c0.04,0.14,0.29,0.12,0.27-0.04
						c-0.15-1.48-0.54-2.93-0.68-4.41C18.51,16.49,18.38,16.49,18.38,16.58L18.38,16.58z"/>
				</g>
			</g>
			<g style="clip-path:url(#SVGID_00000155826562589794751890000006625451575950287790_);">
				<g>
					<path class="st3" d="M19.1,16.46c-0.06,1.17,0.16,2.39,0.59,3.48c0.01,0.03,0.06,0.03,0.06-0.01
						c-0.04-1.17-0.43-2.31-0.53-3.48C19.2,16.39,19.1,16.39,19.1,16.46L19.1,16.46z"/>
				</g>
			</g>
			<g style="clip-path:url(#SVGID_00000155826562589794751890000006625451575950287790_);">
				<g>
					<path class="st3" d="M19.8,16.24c-0.12,1.29,0.32,2.68,0.56,3.94c0.03,0.15,0.25,0.11,0.26-0.03c0.03-1.34-0.69-2.58-0.76-3.91
						C19.86,16.2,19.81,16.2,19.8,16.24L19.8,16.24z"/>
				</g>
			</g>
			<g style="clip-path:url(#SVGID_00000155826562589794751890000006625451575950287790_);">
				<g>
					<path class="st3" d="M20.31,15.62c-0.02,1.3,0.17,2.75,0.58,3.99c0.02,0.06,0.11,0.06,0.13,0c0.14-0.52,0.03-1.06-0.07-1.59
						c-0.17-0.81-0.38-1.61-0.57-2.42C20.37,15.57,20.31,15.58,20.31,15.62L20.31,15.62z"/>
				</g>
			</g>
			<g style="clip-path:url(#SVGID_00000155826562589794751890000006625451575950287790_);">
				<g>
					<path class="st3" d="M20.79,15.25c0.15,0.54,0.15,1.17,0.26,1.73c0.13,0.63,0.25,1.3,0.54,1.88c0.04,0.08,0.16,0.04,0.16-0.04
						c0.06-0.73-0.25-1.49-0.41-2.2c-0.1-0.42-0.16-1.07-0.47-1.4C20.83,15.17,20.78,15.21,20.79,15.25L20.79,15.25z"/>
				</g>
			</g>
			<g style="clip-path:url(#SVGID_00000155826562589794751890000006625451575950287790_);">
				<g>
					<path class="st3" d="M21.41,14.3c-0.13,1.5,0.39,2.87,0.55,4.34c0,0.04,0.07,0.05,0.07,0.01c0.25-1.42-0.32-2.95-0.51-4.35
						C21.51,14.23,21.41,14.23,21.41,14.3L21.41,14.3z"/>
				</g>
			</g>
		</g>
		<g>
			<defs>
				<path id="SVGID_00000163037538298731835580000003542301738520081849_" d="M23.06,12.07c0.05,0.5,0.11,1,0.16,1.49
					c0.2,1.9,0.4,3.81,0.66,5.71c0.01,0.09,0.04,0.19,0.12,0.21c0.06,0.02,0.12-0.01,0.17-0.04c1.44-0.75,2.89-1.5,4.25-2.38
					c0.29-0.19,0.6-0.42,0.68-0.75c0.08-0.32-0.06-0.64-0.21-0.94c-0.81-1.66-1.71-3.29-2.32-5.04c-0.17-0.48-0.31-0.97-0.56-1.41
					c-0.07-0.13-0.16-0.26-0.28-0.35c-0.13-0.09-0.28-0.13-0.43-0.17c-0.92-0.23-1.87-0.36-2.82-0.38
					c-0.04,0.31,0.05,0.62,0.12,0.93C22.84,9.98,22.95,11.02,23.06,12.07z"/>
			</defs>
			<clipPath id="SVGID_00000149345035256885950890000010355964019286939779_">
				<use xlink:href="#SVGID_00000163037538298731835580000003542301738520081849_"  style="overflow:visible;"/>
			</clipPath>
			<g style="clip-path:url(#SVGID_00000149345035256885950890000010355964019286939779_);">
				<g>
					<path class="st3" d="M23.08,8.05c-0.19,2.01,0.22,4.18,0.57,6.16c0.18,1.05,0.3,2.11,0.45,3.16c0.12,0.84,0.15,1.81,0.57,2.58
						c0.1,0.18,0.37,0.05,0.33-0.14c-0.41-1.76-0.58-3.56-0.89-5.35c-0.2-1.18-0.45-2.34-0.6-3.53c-0.12-0.98-0.09-1.95-0.4-2.89
						C23.1,8.03,23.08,8.03,23.08,8.05L23.08,8.05z"/>
				</g>
			</g>
			<g style="clip-path:url(#SVGID_00000149345035256885950890000010355964019286939779_);">
				<g>
					<path class="st3" d="M23.59,8.63c0.31,1.76,0.45,3.56,0.77,5.33c0.17,0.92,0.28,1.85,0.47,2.77c0.2,1,0.51,1.94,0.55,2.96
						c0.12-0.07,0.24-0.13,0.36-0.2c-0.02-0.01-0.05-0.02-0.07-0.04c-0.08-0.04-0.15-0.01-0.2,0.05c-0.02,0.02-0.04,0.05-0.05,0.07
						c-0.23,0.31,0.46,0.53,0.44,0.12c-0.04-0.83-0.22-1.62-0.43-2.42c-0.26-1.02-0.4-2.05-0.6-3.08c-0.21-1.06-0.48-2.1-0.67-3.16
						c-0.15-0.83-0.17-1.64-0.54-2.41C23.61,8.6,23.59,8.61,23.59,8.63L23.59,8.63z"/>
				</g>
			</g>
			<g style="clip-path:url(#SVGID_00000149345035256885950890000010355964019286939779_);">
				<g>
					<path class="st3" d="M24.13,8.19c0.02,0.78,0.29,1.54,0.41,2.31c0.14,0.93,0.3,1.85,0.49,2.78c0.19,0.95,0.45,1.88,0.69,2.82
						c0.25,0.97,0.29,1.99,0.62,2.94c0.09,0.27,0.49,0.16,0.43-0.12c-0.39-1.82-0.81-3.6-1.28-5.4c-0.47-1.8-0.63-3.61-1.34-5.33
						C24.14,8.18,24.13,8.18,24.13,8.19L24.13,8.19z"/>
				</g>
			</g>
			<g style="clip-path:url(#SVGID_00000149345035256885950890000010355964019286939779_);">
				<g>
					<path class="st3" d="M24.8,8.5c0.12,1.82,0.73,3.63,1.19,5.39c0.27,1.06,0.63,2.09,0.92,3.14c0.21,0.79,0.23,1.69,0.82,2.31
						c0.12,0.13,0.4,0,0.32-0.18c-0.71-1.71-1.08-3.61-1.62-5.39c-0.3-0.97-0.55-1.96-0.85-2.94c-0.23-0.77-0.33-1.64-0.74-2.34
						C24.83,8.48,24.8,8.48,24.8,8.5L24.8,8.5z"/>
				</g>
			</g>
			<g style="clip-path:url(#SVGID_00000149345035256885950890000010355964019286939779_);">
				<g>
					<path class="st3" d="M25.48,8.84c-0.04,0.66,0.14,1.26,0.35,1.89c0.34,1.02,0.66,2.05,1.08,3.05c0.34,0.82,0.74,1.61,1.1,2.43
						c0.37,0.83,0.6,1.83,1.2,2.53c0.07,0.08,0.19-0.01,0.17-0.1c-0.31-1.62-1.24-3.22-1.98-4.68c-0.43-0.85-0.75-1.74-1.07-2.62
						c-0.29-0.8-0.71-1.64-0.78-2.49C25.56,8.78,25.48,8.78,25.48,8.84L25.48,8.84z"/>
				</g>
			</g>
			<g style="clip-path:url(#SVGID_00000149345035256885950890000010355964019286939779_);">
				<g>
					<path class="st3" d="M26.14,8.83c-0.72,0.52,0.76,3.08,1.02,3.61c0.57,1.15,1.13,2.3,1.68,3.46c0.3,0.64,0.7,1.66,1.31,2.07
						c0.16,0.11,0.38-0.11,0.27-0.27c-0.91-1.32-1.49-2.85-2.25-4.26c-0.48-0.89-0.98-1.76-1.37-2.69c-0.22-0.51-0.73-1.31-0.6-1.87
						C26.2,8.84,26.16,8.81,26.14,8.83L26.14,8.83z"/>
				</g>
			</g>
		</g>
		<g>
			<path class="st4" d="M28.48,7.01c-0.53,1-1.15,1.95-1.83,2.85c-0.06,0.08-0.13,0.17-0.23,0.21c-0.09,0.04-0.2,0.03-0.31,0.02
				c-3.32-0.3-6.69-0.82-9.95-0.1c-0.55-0.98-1.19-1.9-1.91-2.76c-0.08-0.1-0.17-0.21-0.17-0.34c0-0.26,0.32-0.38,0.58-0.42
				c3.47-0.56,7.02-0.39,10.53-0.21c1.11,0.06,2.22,0.11,3.3,0.36C28.6,6.71,28.54,6.88,28.48,7.01z"/>
		</g>
		<g>
			<path class="st9" d="M14.1,6.98c0.18,0.24,1.91,1.15,2.09,1.22c0.39,0.14,0.44-0.22,0.54-0.38c0.33-0.53,0.74-1.02,1.04-1.33
				c0.02-0.02,0.06-0.03,0.09-0.02c0.24,0.12,0.73,0.55,0.83,0.69c0.14,0.2,0.41,0.43,0.58,0.6c0.06,0.06,0.14,0.13,0.23,0.12
				c0.08-0.01,0.15-0.08,0.2-0.14c0.33-0.39,0.98-1.38,1.35-1.35c0.29,0.02,0.34,0.5,1,1.41c0.13,0.18,0.24,0.02,0.73-0.38
				c0.48-0.4,0.74-0.61,1.23-0.96c0.04-0.03,0.09-0.03,0.13-0.01c0.5,0.3,0.65,0.96,1.02,1.41c0.06,0.07,0.13,0.14,0.22,0.15
				c0.11,0.01,0.2-0.06,0.29-0.12l1.19-0.93c0.04-0.03,0.11-0.02,0.14,0.03c0.3,0.57,0.59,1.62,0.66,1.51
				c0.39-0.58,0.68-0.87,0.98-1.5c0.17-0.36-0.05-0.53-0.1-0.54c-1.79-0.3-6.31-0.78-9.94-0.8c-1.6-0.01-4.42,0.46-4.56,0.66
				C13.87,6.51,13.95,6.78,14.1,6.98z"/>
		</g>
		<g>
			<g>
				<path class="st9" d="M21.17,14.53c0.48,0,0.89-0.4,0.89-0.87c0-0.48-0.4-0.87-0.89-0.87c-0.48,0-0.88,0.4-0.88,0.87
					C20.29,14.14,20.69,14.53,21.17,14.53L21.17,14.53z"/>
			</g>
		</g>
		<g>
			<g>
				<path class="st3" d="M15.84,13.88c0.43,0.03,0.86,0.04,1.29,0.01c0.29-0.02,0.58-0.05,0.77-0.28c0.12-0.16,0.17-0.42,0.07-0.6
					c-0.12-0.21-0.44-0.33-0.62-0.14c-0.04,0.04-0.04,0.1,0,0.14c0.1,0.1,0.4,0.09,0.42,0.25c0.02,0.23-0.23,0.32-0.41,0.35
					c-0.5,0.1-1.02,0.06-1.52,0.15C15.76,13.78,15.78,13.87,15.84,13.88L15.84,13.88z"/>
			</g>
		</g>
		<g>
			<g>
				<path class="st4" d="M19.15,5.12c0.12,0,0.25,0,0.37-0.04c0.08-0.03,0.3-0.1,0.26-0.23c-0.04-0.12-0.18-0.05-0.25,0
					c-0.12,0.07-0.26,0.13-0.39,0.18C19.09,5.05,19.1,5.12,19.15,5.12L19.15,5.12z"/>
			</g>
		</g>
		<g>
			<g>
				<path class="st4" d="M19.81,4.24c0.04,0.07,0.08,0.14,0.13,0.21c0.07,0.07,0.11,0.11,0.21,0.11c0.04,0,0.06-0.03,0.06-0.07
					c-0.01-0.09-0.05-0.12-0.12-0.18c-0.06-0.06-0.13-0.1-0.2-0.14C19.84,4.13,19.78,4.2,19.81,4.24L19.81,4.24z"/>
			</g>
		</g>
		<g>
			<g>
				<path class="st4" d="M20.46,3.5c0.09,0.13,0.19,0.25,0.35,0.29c0.04,0.01,0.08-0.03,0.07-0.07c-0.05-0.17-0.19-0.25-0.35-0.31
					C20.48,3.4,20.43,3.46,20.46,3.5L20.46,3.5z"/>
			</g>
		</g>
		<g>
			<g>
				<path class="st4" d="M21.08,4.48c0.07,0.02,0.14,0.08,0.22,0.07c0.02,0,0.05-0.02,0.05-0.05c-0.01-0.11-0.13-0.14-0.22-0.17
					C21.02,4.31,20.98,4.46,21.08,4.48L21.08,4.48z"/>
			</g>
		</g>
		<g>
			<g>
				<path class="st4" d="M20.54,5.11c0.06,0.06,0.13,0.12,0.2,0.16c0.07,0.05,0.16,0.11,0.24,0.13c0.1,0.03,0.16-0.08,0.13-0.16
					c-0.08-0.17-0.33-0.18-0.47-0.25C20.55,4.95,20.48,5.04,20.54,5.11L20.54,5.11z"/>
			</g>
		</g>
		<g>
			<g>
				<path class="st4" d="M21.4,3.4c0.13-0.05,0.28-0.01,0.37-0.13c0.03-0.03,0.02-0.08-0.02-0.09c-0.15-0.05-0.31,0.03-0.42,0.13
					C21.28,3.36,21.34,3.42,21.4,3.4L21.4,3.4z"/>
			</g>
		</g>
		<g>
			<g>
				<path class="st4" d="M21.05,2.89c0.11-0.08,0.37-0.09,0.38-0.26c0-0.02-0.01-0.04-0.03-0.05c-0.15-0.1-0.35,0.13-0.42,0.24
					C20.96,2.86,21.01,2.93,21.05,2.89L21.05,2.89z"/>
			</g>
		</g>
		<g>
			<g>
				<path class="st4" d="M22.31,3.24c0.02,0.08,0.05,0.15,0.09,0.22c0.02,0.03,0.05,0.06,0.07,0.09c0.02,0.03,0.06,0.02,0.09,0.03
					c0.03,0.01,0.06-0.02,0.05-0.05c0-0.03,0.01-0.05-0.01-0.08c-0.02-0.03-0.04-0.07-0.07-0.1c-0.06-0.07-0.11-0.11-0.19-0.14
					C22.33,3.2,22.31,3.22,22.31,3.24L22.31,3.24z"/>
			</g>
		</g>
		<g>
			<g>
				<path class="st4" d="M22,4.08c0.07,0.11,0.15,0.2,0.24,0.29c0.02,0.02,0.06,0.03,0.08,0.02c0.02-0.01,0.04-0.02,0.05-0.04
					c0.02-0.04,0.02-0.07-0.01-0.1c-0.08-0.09-0.18-0.16-0.27-0.25C22.04,3.96,21.96,4.02,22,4.08L22,4.08z"/>
			</g>
		</g>
		<g>
			<g>
				<path class="st4" d="M22.02,5.15c0.07,0.06,0.13,0.12,0.2,0.18c0.07,0.06,0.14,0.12,0.23,0.09c0.03-0.01,0.05-0.03,0.05-0.06
					c0-0.1-0.08-0.15-0.15-0.2c-0.08-0.06-0.17-0.1-0.26-0.14C22.02,5,21.97,5.1,22.02,5.15L22.02,5.15z"/>
			</g>
		</g>
		<g>
			<g>
				<path class="st4" d="M23.04,4.14c-0.02,0.1-0.05,0.2-0.08,0.29c-0.03,0.08-0.03,0.18,0.02,0.24c0.02,0.02,0.05,0.02,0.08,0.01
					c0.15-0.09,0.06-0.39,0.05-0.53C23.09,4.11,23.04,4.1,23.04,4.14L23.04,4.14z"/>
			</g>
		</g>
		<g>
			<g>
				<path class="st4" d="M23.5,5.08c-0.02,0.12-0.09,0.33,0.04,0.42c0.01,0.01,0.03,0.01,0.04,0c0.11-0.08,0.07-0.25,0.08-0.37
					C23.68,5.02,23.52,4.97,23.5,5.08L23.5,5.08z"/>
			</g>
		</g>
		<g>
			<g>
				<path class="st3" d="M16.59,9.01c0.05-0.01,0.09-0.03,0.13-0.05c0.2-0.12,0.2-0.4,0-0.52c-0.04-0.03-0.08-0.05-0.13-0.06
					c-0.21-0.05-0.42,0.1-0.42,0.32C16.17,8.92,16.38,9.06,16.59,9.01L16.59,9.01z"/>
			</g>
		</g>
		<g>
			<g>
				<path class="st3" d="M19.34,8.83c0.18,0,0.33-0.15,0.33-0.33c0-0.18-0.15-0.33-0.33-0.33c-0.18,0-0.33,0.15-0.33,0.33
					C19.01,8.68,19.16,8.83,19.34,8.83L19.34,8.83z"/>
			</g>
		</g>
		<g>
			<g>
				<path class="st3" d="M21.99,8.69c0,0,0.01,0,0.01,0.01c0.22,0.1,0.49-0.07,0.42-0.32c-0.07-0.25-0.38-0.26-0.52-0.07
					c0,0-0.01,0.01-0.01,0.01C21.81,8.43,21.86,8.63,21.99,8.69L21.99,8.69z"/>
			</g>
		</g>
		<g>
			<g>
				<path class="st3" d="M25.5,8.99c0.01,0,0.01-0.01,0.02-0.01c0.18-0.11,0.18-0.37,0-0.48c-0.01,0-0.01-0.01-0.02-0.01
					c-0.19-0.11-0.44,0.03-0.44,0.25C25.06,8.96,25.31,9.11,25.5,8.99L25.5,8.99z"/>
			</g>
		</g>
		<g>
			<g>
				<path class="st4" d="M14.65,23.76c0.3,0,0.55-0.25,0.55-0.54c0-0.3-0.25-0.54-0.55-0.54c-0.3,0-0.55,0.25-0.55,0.54
					C14.1,23.51,14.35,23.76,14.65,23.76L14.65,23.76z"/>
			</g>
		</g>
		<g>
			<g>
				<path class="st4" d="M21.31,26.1c0.27,0,0.5-0.22,0.5-0.49c0-0.27-0.23-0.49-0.5-0.49c-0.27,0-0.5,0.22-0.5,0.49
					C20.81,25.88,21.04,26.1,21.31,26.1L21.31,26.1z"/>
			</g>
		</g>
		<g>
			<g>
				<path class="st4" d="M27.35,22.75c0.01,0,0.02,0,0.03-0.01c0.26-0.05,0.38-0.44,0.16-0.61c-0.01-0.01-0.02-0.02-0.03-0.02
					c-0.21-0.19-0.57-0.12-0.65,0.17c-0.04,0.13,0,0.28,0.1,0.37C27.08,22.75,27.21,22.77,27.35,22.75L27.35,22.75z"/>
			</g>
		</g>
		<g>
			<g>
				<path class="st4" d="M21.12,24.07c-0.11,0.05-0.16,0.15-0.17,0.27c-0.01,0.18,0.24,0.35,0.4,0.23c0,0,0.01-0.01,0.01-0.01
					c-0.05,0.01-0.09,0.02-0.14,0.04c0,0,0.01,0,0.02,0c-0.05-0.01-0.09-0.02-0.14-0.04c0.01,0,0.01,0.01,0.02,0.01
					c0.1,0.04,0.2,0.06,0.29,0c0.09-0.05,0.15-0.15,0.15-0.25C21.56,24.09,21.32,23.97,21.12,24.07L21.12,24.07z"/>
			</g>
		</g>
		<g>
			<g>
				<path class="st4" d="M21.27,23.56c0.2,0,0.2-0.31,0-0.31C21.07,23.25,21.07,23.56,21.27,23.56L21.27,23.56z"/>
			</g>
		</g>
		<g>
			<g>
				<path class="st4" d="M15.78,22.56c0,0,0.01-0.01,0.01-0.01c-0.03,0.02-0.07,0.04-0.1,0.06c0.01,0,0.01,0,0.02-0.01
					c0.07-0.03,0.13-0.07,0.15-0.15c0.02-0.09-0.01-0.2-0.1-0.24c-0.03-0.01-0.06-0.03-0.09-0.03c-0.17-0.03-0.34,0.1-0.29,0.29
					C15.44,22.64,15.65,22.67,15.78,22.56L15.78,22.56z"/>
			</g>
		</g>
		<g>
			<g>
				<path class="st4" d="M16.36,22c0.16,0,0.16-0.25,0-0.25C16.2,21.75,16.2,22,16.36,22L16.36,22z"/>
			</g>
		</g>
		<g>
			<g>
				<path class="st4" d="M26.42,22.13c0.33,0,0.33-0.51,0-0.51C26.09,21.62,26.09,22.13,26.42,22.13L26.42,22.13z"/>
			</g>
		</g>
		<g>
			<g>
				<path class="st4" d="M25.74,21.67c0.24,0,0.24-0.37,0-0.37C25.5,21.3,25.5,21.67,25.74,21.67L25.74,21.67z"/>
			</g>
		</g>
		<g>
			<g>
				<path class="st9" d="M16.06,9.39c0.06,0.09,0.08,0.19,0.1,0.29c0.04,0.15,0.28,0.08,0.23-0.06c-0.04-0.13-0.09-0.24-0.19-0.34
					C16.13,9.2,16,9.3,16.06,9.39L16.06,9.39z"/>
			</g>
		</g>
		<g>
			<g>
				<path class="st9" d="M16.6,9.22c0.04,0.12,0.08,0.24,0.14,0.36c0.02,0.03,0.07,0.05,0.1,0.04c0.02-0.01,0.03-0.01,0.04-0.02
					c0.03-0.03,0.03-0.08,0.01-0.11c-0.05-0.11-0.1-0.21-0.17-0.32C16.7,9.09,16.58,9.14,16.6,9.22L16.6,9.22z"/>
			</g>
		</g>
		<g>
			<g>
				<path class="st9" d="M17.23,9.02c-0.09,0.16-0.01,0.43,0.11,0.56c0.08,0.09,0.26,0.02,0.25-0.1c-0.01-0.11-0.06-0.2-0.1-0.3
					C17.45,9.09,17.39,9.02,17.3,9C17.27,8.99,17.24,9,17.23,9.02L17.23,9.02z"/>
			</g>
		</g>
		<g>
			<g>
				<path class="st9" d="M17.81,9.06c0,0.15,0,0.31,0.07,0.45c0.05,0.1,0.2,0.05,0.21-0.06c0.01-0.15-0.07-0.3-0.13-0.43
					C17.93,8.94,17.81,8.98,17.81,9.06L17.81,9.06z"/>
			</g>
		</g>
		<g>
			<g>
				<path class="st9" d="M18.42,8.98c0,0.15-0.01,0.33,0.07,0.46c0.07,0.12,0.25,0.07,0.25-0.07c0-0.15-0.07-0.29-0.12-0.42
					C18.58,8.85,18.42,8.86,18.42,8.98L18.42,8.98z"/>
			</g>
		</g>
		<g>
			<g>
				<path class="st9" d="M19.04,9.03c0,0.13-0.03,0.26,0.03,0.39c0.05,0.11,0.22,0.05,0.22-0.06c0-0.12-0.03-0.24-0.07-0.35
					C19.19,8.91,19.04,8.92,19.04,9.03L19.04,9.03z"/>
			</g>
		</g>
		<g>
			<g>
				<path class="st9" d="M19.7,8.92c-0.08,0.12-0.07,0.29-0.02,0.43C19.73,9.5,20,9.49,19.98,9.31c-0.01-0.14-0.05-0.3-0.17-0.4
					C19.78,8.87,19.73,8.88,19.7,8.92L19.7,8.92z"/>
			</g>
		</g>
		<g>
			<g>
				<path class="st9" d="M20.34,9.01c-0.02,0.11-0.04,0.24-0.01,0.35c0.01,0.05,0.06,0.07,0.1,0.08c0.02,0,0.04-0.01,0.05-0.01
					c0.03-0.02,0.05-0.06,0.05-0.09c-0.01-0.1-0.04-0.2-0.04-0.3C20.49,8.95,20.36,8.92,20.34,9.01L20.34,9.01z"/>
			</g>
		</g>
		<g>
			<g>
				<path class="st9" d="M20.79,9.01c0,0.09,0,0.19,0,0.28c0,0.09,0.06,0.24,0.19,0.2c0.21-0.08,0.1-0.4,0.02-0.54
					C20.95,8.86,20.79,8.89,20.79,9.01L20.79,9.01z"/>
			</g>
		</g>
		<g>
			<g>
				<path class="st9" d="M21.55,8.98c-0.04,0.14-0.1,0.36,0.02,0.47c0.05,0.04,0.13,0.04,0.16-0.02c0.06-0.13,0.01-0.31-0.03-0.45
					C21.69,8.91,21.58,8.91,21.55,8.98L21.55,8.98z"/>
			</g>
		</g>
		<g>
			<g>
				<path class="st9" d="M22.16,8.96c-0.08,0.16-0.11,0.39,0,0.54c0.05,0.07,0.14,0.02,0.17-0.04c0.05-0.13-0.02-0.29,0-0.43
					C22.35,8.93,22.21,8.86,22.16,8.96L22.16,8.96z"/>
			</g>
		</g>
		<g>
			<g>
				<path class="st9" d="M22.7,9.06c-0.01,0.13-0.11,0.53,0.12,0.53c0.1,0,0.09-0.14,0.09-0.2c0-0.11-0.01-0.23-0.01-0.34
					C22.89,8.93,22.71,8.93,22.7,9.06L22.7,9.06z"/>
			</g>
		</g>
		<g>
			<g>
				<path class="st9" d="M23.23,9.07c-0.06,0.15-0.18,0.42-0.02,0.55c0.06,0.05,0.14,0.05,0.2,0c0.08-0.07,0.08-0.18,0.08-0.27
					c0-0.11-0.02-0.2-0.06-0.3C23.39,8.96,23.26,9,23.23,9.07L23.23,9.07z"/>
			</g>
		</g>
		<g>
			<g>
				<path class="st9" d="M23.91,9.15c-0.1,0.14-0.19,0.46,0,0.58c0.04,0.02,0.09,0.02,0.13,0c0.17-0.11,0.09-0.39,0.06-0.56
					C24.07,9.08,23.95,9.09,23.91,9.15L23.91,9.15z"/>
			</g>
		</g>
		<g>
			<g>
				<path class="st9" d="M24.49,9.2c-0.03,0.14-0.07,0.27-0.08,0.42c-0.01,0.17,0.27,0.17,0.28,0c0-0.14,0-0.28-0.04-0.42
					C24.64,9.12,24.51,9.12,24.49,9.2L24.49,9.2z"/>
			</g>
		</g>
		<g>
			<g>
				<path class="st9" d="M25.11,9.25c-0.17,0.09-0.22,0.38-0.14,0.54c0.05,0.12,0.22,0.07,0.25-0.03c0.03-0.09,0.02-0.19,0.03-0.28
					c0-0.08-0.02-0.16-0.07-0.21C25.16,9.24,25.13,9.24,25.11,9.25L25.11,9.25z"/>
			</g>
		</g>
		<g>
			<g>
				<path class="st9" d="M25.55,9.39c-0.05,0.12-0.11,0.29-0.07,0.42c0.03,0.09,0.14,0.1,0.2,0.02c0.08-0.12,0.02-0.3,0.02-0.43
					C25.69,9.33,25.58,9.32,25.55,9.39L25.55,9.39z"/>
			</g>
		</g>
		<g>
			<g>
				<path class="st9" d="M26.12,9.39c-0.1,0.17-0.23,0.35-0.14,0.55c0.04,0.09,0.19,0.1,0.25,0.03c0.12-0.14,0.12-0.39,0.08-0.56
					C26.28,9.33,26.16,9.31,26.12,9.39L26.12,9.39z"/>
			</g>
		</g>
		<g>
			<g>
				<path class="st4" d="M29.03,28.95c-0.69-0.13-0.93-0.43-1.21-0.68c-0.28-0.25-0.58-0.81-0.65-1.18
					c-0.12-0.61,0.08-0.95,0.39-1.49c0.42-0.72,1.09-0.89,1.87-1.19c1.14-0.44,3.02-1.02,4.24-1.07c0.6-0.03,1.25,0.07,1.67,0.5
					c0.32,0.33,0.44,0.8,0.45,1.25c0.02,1-0.24,1.88-1.08,2.43c-0.57,0.38-1.5,0.68-2.16,0.88C30.41,29.05,29.85,29.11,29.03,28.95z
					"/>
			</g>
			<g>
				<g>
					<path class="st3" d="M34.15,27.06c0.55-0.39,0.75-1.02,0.75-1.67c0-0.55-0.3-1.55-1.02-1.48c-0.22,0.02-0.38,0.2-0.33,0.42
						c0.09,0.37,0.35,0.68,0.44,1.06c0.1,0.42,0.07,0.98-0.19,1.34C33.66,26.93,33.95,27.21,34.15,27.06L34.15,27.06z"/>
				</g>
			</g>
			<g>
				<g>
					<path class="st3" d="M33.27,27.11c0.09-0.8,0.14-2-0.56-2.56c-0.29-0.24-0.76-0.02-0.66,0.38c0.1,0.38,0.27,0.73,0.38,1.11
						c0.12,0.41,0.21,0.81,0.42,1.19C32.97,27.43,33.25,27.31,33.27,27.11L33.27,27.11z"/>
				</g>
			</g>
			<g>
				<g>
					<path class="st3" d="M32.06,27.47c0.09-0.42-0.05-0.92-0.12-1.33c-0.08-0.46-0.26-1.26-0.8-1.38
						c-0.38-0.08-0.76,0.24-0.64,0.63c0.06,0.21,0.17,0.3,0.26,0.48c0.12,0.24,0.23,0.48,0.35,0.72c0.17,0.33,0.33,0.86,0.72,1
						C31.93,27.63,32.04,27.56,32.06,27.47L32.06,27.47z"/>
				</g>
			</g>
			<g>
				<g>
					<path class="st3" d="M30.99,27.54c-0.35-0.29-0.56-0.49-0.68-0.95c-0.1-0.39-0.03-0.84-0.23-1.19c-0.12-0.2-0.38-0.16-0.51,0
						c-0.54,0.74,0.28,2.84,1.39,2.36C31.04,27.73,31.06,27.6,30.99,27.54L30.99,27.54z"/>
				</g>
			</g>
			<g>
				<g>
					<path class="st3" d="M29.47,28.02c-0.15-0.37-0.44-0.65-0.57-1.05c-0.16-0.51,0.26-0.96,0.11-1.45
						c-0.04-0.12-0.18-0.23-0.31-0.18c-1.18,0.44-0.6,2.72,0.56,2.87C29.38,28.24,29.53,28.16,29.47,28.02L29.47,28.02z"/>
				</g>
			</g>
			<g>
				<g>
					<path class="st9" d="M34.5,25.51c0.2-0.05,0.12-0.36-0.09-0.31C34.22,25.25,34.3,25.56,34.5,25.51L34.5,25.51z"/>
				</g>
			</g>
			<g>
				<g>
					<path class="st9" d="M32.79,25.99c0.24-0.06,0.14-0.42-0.1-0.36C32.45,25.7,32.55,26.06,32.79,25.99L32.79,25.99z"/>
				</g>
			</g>
			<g>
				<g>
					<path class="st9" d="M31.52,26.1c0.01,0,0.01-0.03-0.01-0.02C31.5,26.09,31.5,26.11,31.52,26.1L31.52,26.1z"/>
				</g>
			</g>
			<g>
				<g>
					<path class="st9" d="M31.33,25.97c0,0-0.01,0.01-0.01,0.01c-0.17,0.15,0.09,0.42,0.26,0.25c0-0.01,0.01-0.01,0.01-0.01
						C31.75,26.06,31.5,25.83,31.33,25.97L31.33,25.97z"/>
				</g>
			</g>
			<g>
				<g>
					<path class="st9" d="M29.86,26.3c-0.01,0-0.02,0-0.02,0c-0.24,0.01-0.14,0.37,0.07,0.26c0.01,0,0.01-0.01,0.02-0.01
						C30.05,26.49,30,26.3,29.86,26.3L29.86,26.3z"/>
				</g>
			</g>
			<g>
				<g>
					<path class="st9" d="M28.57,27.02c0.28-0.08,0.17-0.51-0.12-0.43C28.16,26.66,28.28,27.1,28.57,27.02L28.57,27.02z"/>
				</g>
			</g>
			<g>
				<g>
					<path class="st9" d="M33.63,27.46c-0.01,0.02-0.02,0.03-0.04,0.04c-0.08,0.11-0.05,0.23,0.08,0.28
						c0.02,0.01,0.03,0.01,0.05,0.02c0.15,0.06,0.3-0.11,0.26-0.25C33.95,27.41,33.74,27.33,33.63,27.46L33.63,27.46z"/>
				</g>
			</g>
			<g>
				<g>
					<path class="st9" d="M33.12,27.91c0.21-0.06,0.12-0.39-0.09-0.33C32.81,27.64,32.9,27.97,33.12,27.91L33.12,27.91z"/>
				</g>
			</g>
			<g>
				<g>
					<path class="st9" d="M32.38,28.13c0.24-0.06,0.14-0.42-0.1-0.36C32.04,27.83,32.14,28.19,32.38,28.13L32.38,28.13z"/>
				</g>
			</g>
			<g>
				<g>
					<path class="st9" d="M31.59,28.34c0.24-0.06,0.14-0.43-0.1-0.36C31.25,28.04,31.35,28.41,31.59,28.34L31.59,28.34z"/>
				</g>
			</g>
			<g>
				<g>
					<path class="st9" d="M30.58,28.28c0,0-0.01,0.01-0.01,0.01c-0.11,0.15,0.08,0.34,0.24,0.3c0.16-0.04,0.22-0.3,0.05-0.38
						c0,0-0.01-0.01-0.02-0.01C30.73,28.17,30.65,28.19,30.58,28.28L30.58,28.28z"/>
				</g>
			</g>
			<g>
				<g>
					<path class="st9" d="M30.14,28.72c0.22-0.06,0.13-0.4-0.09-0.34C29.82,28.44,29.92,28.78,30.14,28.72L30.14,28.72z"/>
				</g>
			</g>
			<g>
				<g>
					<path class="st9" d="M29.51,28.8c0.18-0.05,0.1-0.32-0.08-0.27C29.26,28.57,29.33,28.85,29.51,28.8L29.51,28.8z"/>
				</g>
			</g>
			<g>
				<g>
					<path class="st9" d="M33.31,23.91c0.15-0.04,0.08-0.26-0.06-0.22C33.11,23.72,33.17,23.94,33.31,23.91L33.31,23.91z"/>
				</g>
			</g>
			<g>
				<g>
					<path class="st9" d="M32.5,23.88c-0.01,0-0.02,0-0.02,0c-0.23,0.03-0.12,0.42,0.09,0.33c0.01,0,0.01-0.01,0.02-0.01
						C32.8,24.12,32.73,23.85,32.5,23.88L32.5,23.88z"/>
				</g>
			</g>
			<g>
				<g>
					<path class="st9" d="M31.76,24.44c0.23-0.06,0.13-0.41-0.1-0.35C31.44,24.15,31.53,24.5,31.76,24.44L31.76,24.44z"/>
				</g>
			</g>
			<g>
				<g>
					<path class="st9" d="M31.01,24.64c0.22-0.06,0.13-0.4-0.09-0.34C30.69,24.35,30.79,24.7,31.01,24.64L31.01,24.64z"/>
				</g>
			</g>
			<g>
				<g>
					<path class="st9" d="M30.07,24.58c0,0.01-0.01,0.01-0.01,0.02c-0.04,0.08-0.02,0.17,0.06,0.21c0,0,0.01,0.01,0.02,0.01
						c0.13,0.08,0.3-0.05,0.26-0.2C30.35,24.48,30.14,24.45,30.07,24.58L30.07,24.58z"/>
				</g>
			</g>
			<g>
				<g>
					<path class="st9" d="M29.52,25.03c0.22-0.06,0.13-0.4-0.09-0.34C29.21,24.76,29.3,25.09,29.52,25.03L29.52,25.03z"/>
				</g>
			</g>
			<g>
				<g>
					<path class="st9" d="M28.66,24.92c-0.01,0.01-0.01,0.01-0.02,0.02c-0.09,0.07-0.06,0.19,0.06,0.21c0.01,0,0.02,0,0.02,0
						C28.92,25.17,28.82,24.79,28.66,24.92L28.66,24.92z"/>
				</g>
			</g>
		</g>
		<g>
			<g>
				<path class="st4" d="M11.69,31.13c0.69,0.13,0.93,0.43,1.21,0.68c0.28,0.25,0.58,0.81,0.65,1.18c0.12,0.61-0.08,0.95-0.39,1.48
					c-0.42,0.72-1.09,0.89-1.87,1.19c-1.13,0.44-3.02,1.02-4.24,1.07c-0.6,0.02-1.26-0.07-1.67-0.5c-0.32-0.33-0.44-0.8-0.45-1.25
					c-0.01-1,0.24-1.88,1.08-2.43c0.57-0.38,1.5-0.68,2.16-0.87C10.31,31.03,10.87,30.98,11.69,31.13z"/>
			</g>
			<g>
				<g>
					<path class="st3" d="M6.57,33.02c-0.55,0.39-0.75,1.02-0.75,1.67c0,0.55,0.3,1.55,1.03,1.48c0.22-0.02,0.39-0.2,0.33-0.42
						c-0.09-0.37-0.35-0.68-0.44-1.06c-0.1-0.42-0.07-0.98,0.19-1.34C7.06,33.16,6.77,32.88,6.57,33.02L6.57,33.02z"/>
				</g>
			</g>
			<g>
				<g>
					<path class="st3" d="M7.45,32.98c-0.09,0.8-0.14,2,0.56,2.56c0.3,0.24,0.76,0.02,0.66-0.38c-0.1-0.38-0.27-0.73-0.38-1.11
						c-0.12-0.4-0.21-0.81-0.42-1.19C7.75,32.65,7.47,32.78,7.45,32.98L7.45,32.98z"/>
				</g>
			</g>
			<g>
				<g>
					<path class="st3" d="M8.66,32.62c-0.1,0.42,0.05,0.92,0.12,1.33c0.08,0.46,0.25,1.26,0.8,1.38c0.38,0.08,0.76-0.24,0.64-0.64
						c-0.06-0.21-0.17-0.3-0.26-0.48c-0.12-0.24-0.23-0.48-0.35-0.72c-0.17-0.33-0.33-0.86-0.72-1C8.79,32.45,8.68,32.53,8.66,32.62
						L8.66,32.62z"/>
				</g>
			</g>
			<g>
				<g>
					<path class="st3" d="M9.73,32.54c0.35,0.29,0.56,0.49,0.68,0.95c0.1,0.38,0.03,0.84,0.23,1.19c0.12,0.21,0.38,0.17,0.51,0
						c0.54-0.74-0.28-2.84-1.39-2.36C9.68,32.36,9.67,32.49,9.73,32.54L9.73,32.54z"/>
				</g>
			</g>
			<g>
				<g>
					<path class="st3" d="M11.25,32.06c0.15,0.37,0.44,0.65,0.56,1.04c0.16,0.51-0.26,0.96-0.11,1.45c0.04,0.12,0.18,0.22,0.31,0.17
						c1.18-0.44,0.6-2.72-0.56-2.87C11.35,31.84,11.19,31.93,11.25,32.06L11.25,32.06z"/>
				</g>
			</g>
			<g>
				<g>
					<path class="st9" d="M6.22,34.58c-0.2,0.05-0.12,0.37,0.09,0.31C6.51,34.84,6.42,34.53,6.22,34.58L6.22,34.58z"/>
				</g>
			</g>
			<g>
				<g>
					<path class="st9" d="M7.93,34.09c-0.24,0.06-0.14,0.42,0.1,0.36C8.27,34.39,8.17,34.03,7.93,34.09L7.93,34.09z"/>
				</g>
			</g>
			<g>
				<g>
					<path class="st9" d="M9.2,33.98c-0.01,0-0.01,0.03,0.01,0.02C9.22,34,9.22,33.98,9.2,33.98L9.2,33.98z"/>
				</g>
			</g>
			<g>
				<g>
					<path class="st9" d="M9.39,34.11c0,0,0.01-0.01,0.01-0.01c0.18-0.15-0.09-0.42-0.26-0.25c0,0-0.01,0.01-0.01,0.01
						C8.97,34.03,9.22,34.26,9.39,34.11L9.39,34.11z"/>
				</g>
			</g>
			<g>
				<g>
					<path class="st9" d="M10.86,33.78c0.01,0,0.02,0,0.02,0c0.24-0.01,0.14-0.37-0.07-0.26c-0.01,0-0.01,0.01-0.02,0.01
						C10.67,33.59,10.73,33.79,10.86,33.78L10.86,33.78z"/>
				</g>
			</g>
			<g>
				<g>
					<path class="st9" d="M12.15,33.07c-0.29,0.08-0.17,0.51,0.12,0.43C12.56,33.43,12.44,32.99,12.15,33.07L12.15,33.07z"/>
				</g>
			</g>
			<g>
				<g>
					<path class="st9" d="M7.09,32.63c0.01-0.01,0.02-0.03,0.04-0.04c0.08-0.11,0.05-0.24-0.08-0.28c-0.02-0.01-0.04-0.01-0.05-0.02
						c-0.15-0.06-0.3,0.11-0.26,0.25C6.77,32.68,6.99,32.76,7.09,32.63L7.09,32.63z"/>
				</g>
			</g>
			<g>
				<g>
					<path class="st9" d="M7.6,32.18c-0.22,0.06-0.12,0.39,0.09,0.33C7.91,32.45,7.82,32.12,7.6,32.18L7.6,32.18z"/>
				</g>
			</g>
			<g>
				<g>
					<path class="st9" d="M8.34,31.96c-0.23,0.06-0.14,0.42,0.1,0.36C8.68,32.26,8.58,31.9,8.34,31.96L8.34,31.96z"/>
				</g>
			</g>
			<g>
				<g>
					<path class="st9" d="M9.13,31.75C8.9,31.81,9,32.18,9.24,32.11C9.47,32.05,9.37,31.68,9.13,31.75L9.13,31.75z"/>
				</g>
			</g>
			<g>
				<g>
					<path class="st9" d="M10.14,31.81c0-0.01,0.01-0.01,0.01-0.02c0.11-0.15-0.08-0.34-0.24-0.3c-0.16,0.04-0.22,0.3-0.05,0.38
						c0,0,0.01,0.01,0.02,0.01C9.99,31.92,10.07,31.9,10.14,31.81L10.14,31.81z"/>
				</g>
			</g>
			<g>
				<g>
					<path class="st9" d="M10.58,31.37c-0.22,0.06-0.13,0.4,0.09,0.34C10.9,31.65,10.81,31.31,10.58,31.37L10.58,31.37z"/>
				</g>
			</g>
			<g>
				<g>
					<path class="st9" d="M11.21,31.29c-0.18,0.05-0.1,0.33,0.08,0.28C11.47,31.51,11.39,31.24,11.21,31.29L11.21,31.29z"/>
				</g>
			</g>
			<g>
				<g>
					<path class="st9" d="M7.41,36.18c-0.15,0.04-0.08,0.26,0.06,0.22C7.62,36.37,7.56,36.14,7.41,36.18L7.41,36.18z"/>
				</g>
			</g>
			<g>
				<g>
					<path class="st9" d="M8.22,36.21c0.01,0,0.02,0,0.02,0c0.23-0.03,0.12-0.42-0.09-0.33c-0.01,0-0.01,0.01-0.02,0.01
						C7.92,35.97,8,36.24,8.22,36.21L8.22,36.21z"/>
				</g>
			</g>
			<g>
				<g>
					<path class="st9" d="M8.96,35.65c-0.23,0.06-0.13,0.41,0.1,0.35C9.29,35.93,9.19,35.59,8.96,35.65L8.96,35.65z"/>
				</g>
			</g>
			<g>
				<g>
					<path class="st9" d="M9.71,35.45c-0.22,0.06-0.13,0.4,0.09,0.34C10.03,35.73,9.93,35.39,9.71,35.45L9.71,35.45z"/>
				</g>
			</g>
			<g>
				<g>
					<path class="st9" d="M10.65,35.51c0-0.01,0-0.01,0.01-0.02c0.04-0.08,0.02-0.17-0.06-0.21c0,0-0.01-0.01-0.01-0.01
						c-0.13-0.08-0.3,0.05-0.26,0.2C10.37,35.61,10.58,35.64,10.65,35.51L10.65,35.51z"/>
				</g>
			</g>
			<g>
				<g>
					<path class="st9" d="M11.2,35.05c-0.22,0.06-0.13,0.4,0.09,0.34C11.51,35.33,11.42,34.99,11.2,35.05L11.2,35.05z"/>
				</g>
			</g>
			<g>
				<g>
					<path class="st9" d="M12.07,35.17c0.01-0.01,0.01-0.01,0.02-0.02c0.09-0.07,0.06-0.19-0.06-0.21c-0.01,0-0.02,0-0.02,0
						C11.8,34.92,11.9,35.3,12.07,35.17L12.07,35.17z"/>
				</g>
			</g>
		</g>
		<g>
			<g>
				<path class="st9" d="M24.18,24.84c0,0,0.01,0.01,0.01,0.01c0.06,0.06,0.15,0.06,0.21,0c0,0,0.01-0.01,0.01-0.01
					c0.11-0.1,0.02-0.29-0.12-0.29S24.07,24.74,24.18,24.84L24.18,24.84z"/>
			</g>
		</g>
		<g>
			<g>
				<path class="st9" d="M6.54,31.39c0,0,0.01,0.01,0.01,0.01c0.06,0.06,0.15,0.06,0.21,0c0,0,0.01-0.01,0.01-0.01
					c0.11-0.1,0.02-0.28-0.12-0.28C6.51,31.11,6.43,31.29,6.54,31.39L6.54,31.39z"/>
			</g>
		</g>
		<g>
			<g>
				<path class="st9" d="M14.84,25.47c0,0,0.01,0.01,0.01,0.01c0.06,0.06,0.15,0.06,0.21,0c0,0,0.01-0.01,0.01-0.01
					c0.11-0.1,0.02-0.29-0.12-0.29C14.82,25.18,14.73,25.37,14.84,25.47L14.84,25.47z"/>
			</g>
		</g>
		<g>
			<g>
				<path class="st9" d="M18.41,26.14c0,0,0.01,0.01,0.01,0.01c0.06,0.06,0.15,0.06,0.21,0c0,0,0.01-0.01,0.01-0.01
					c0.11-0.1,0.02-0.28-0.12-0.28C18.39,25.86,18.3,26.04,18.41,26.14L18.41,26.14z"/>
			</g>
		</g>
		<g>
			<g>
				<path class="st9" d="M26.66,25.81c0,0,0.01-0.01,0.01-0.01c0.05-0.04,0.05-0.13,0-0.17c0-0.01-0.01-0.01-0.01-0.01
					c-0.09-0.08-0.24-0.03-0.24,0.1S26.57,25.88,26.66,25.81L26.66,25.81z"/>
			</g>
		</g>
		<g>
			<g>
				<path class="st9" d="M9.78,30.57c0,0,0.01-0.01,0.01-0.01c0.05-0.04,0.05-0.13,0-0.17c0,0-0.01-0.01-0.01-0.01
					c-0.09-0.07-0.24-0.03-0.24,0.1C9.54,30.61,9.69,30.65,9.78,30.57L9.78,30.57z"/>
			</g>
		</g>
		<g>
			<g>
				<path class="st9" d="M25.31,28.22c0.01,0,0.01-0.01,0.01-0.01c0.05-0.04,0.05-0.13,0-0.17c0,0-0.01-0.01-0.01-0.01
					c-0.09-0.07-0.24-0.03-0.24,0.1C25.08,28.25,25.22,28.29,25.31,28.22L25.31,28.22z"/>
			</g>
		</g>
		<g>
			<g>
				<path class="st9" d="M17.84,24.6c0,0,0.01-0.01,0.01-0.01c0.05-0.04,0.05-0.13,0-0.17c0,0-0.01-0.01-0.01-0.01
					c-0.09-0.07-0.24-0.03-0.24,0.1C17.6,24.63,17.75,24.68,17.84,24.6L17.84,24.6z"/>
			</g>
		</g>
		<g>
			<g>
				<path class="st9" d="M13.39,21.87c0,0,0.01-0.01,0.01-0.01c0.05-0.04,0.05-0.13,0-0.17c0,0-0.01-0.01-0.01-0.01
					c-0.09-0.07-0.24-0.03-0.24,0.1C13.15,21.9,13.3,21.94,13.39,21.87L13.39,21.87z"/>
			</g>
		</g>
		<g>
			<g>
				<path class="st9" d="M12.76,23.64c0,0,0.01-0.01,0.01-0.01c0.05-0.04,0.05-0.13,0-0.17c-0.01-0.01-0.01-0.01-0.01-0.01
					c-0.09-0.08-0.24-0.03-0.24,0.1S12.67,23.71,12.76,23.64L12.76,23.64z"/>
			</g>
		</g>
		<g>
			<g>
				<path class="st9" d="M27.95,23.91c0,0.01,0.01,0.02,0.01,0.02c0.04,0.11,0.18,0.11,0.22,0c0-0.01,0.01-0.02,0.01-0.02
					C28.26,23.72,27.87,23.72,27.95,23.91L27.95,23.91z"/>
			</g>
		</g>
		<g>
			<g>
				<path class="st9" d="M32.9,29.32c0,0.01,0.01,0.02,0.01,0.02c0.04,0.11,0.18,0.11,0.22,0c0-0.01,0.01-0.02,0.01-0.02
					C33.22,29.13,32.83,29.13,32.9,29.32L32.9,29.32z"/>
			</g>
		</g>
		<g>
			<g>
				<path class="st9" d="M30.06,23.55c0.04-0.09,0.04-0.15,0-0.24c-0.06-0.14-0.28-0.15-0.38-0.05c-0.09,0.09-0.09,0.25,0,0.34
					C29.78,23.7,30,23.69,30.06,23.55L30.06,23.55z"/>
			</g>
		</g>
		<g>
			<g>
				<path class="st9" d="M22.1,28.32c0.04-0.09,0.04-0.15,0-0.24c-0.06-0.14-0.28-0.15-0.38-0.05c-0.09,0.09-0.09,0.25,0,0.34
					C21.82,28.46,22.03,28.46,22.1,28.32L22.1,28.32z"/>
			</g>
		</g>
		<g>
			<g>
				<path class="st9" d="M23.56,26.93c0.25,0,0.25-0.37,0-0.37C23.31,26.56,23.31,26.93,23.56,26.93L23.56,26.93z"/>
			</g>
		</g>
		<g>
			<g>
				<path class="st9" d="M6.85,29.47c0.25,0,0.25-0.38,0-0.38C6.61,29.09,6.61,29.47,6.85,29.47L6.85,29.47z"/>
			</g>
		</g>
		<g>
			<g>
				<path class="st3" d="M21.06,40.13c1.43,0.67,2.8,0.36,4.19-0.24c1-0.43,1.22-1.85,0.72-2.7c-0.56-0.94-1.79-1.24-2.74-0.71
					c-0.86,0.48-1.68,0.89-2.45,1.52C20.13,38.54,20.3,39.77,21.06,40.13L21.06,40.13z"/>
			</g>
		</g>
		<g>
			<g>
				<path class="st3" d="M19.85,40.96c0.76-0.43,1.25-1.19,1.61-1.95c0.5-1.05,0.32-2.14-0.05-3.19c-0.44-1.24-2.2-1.61-3.28-1.08
					c-1.24,0.61-1.63,2.03-1.1,3.23c-0.29-0.65-0.06-0.13-0.03,0.11c0.04,0.38,0.22,0.84,0.36,1.18c0.19,0.47,0.34,0.98,0.72,1.35
					C18.52,41.06,19.25,41.3,19.85,40.96L19.85,40.96z"/>
			</g>
		</g>
		<g>
			<g>
				<path class="st3" d="M19.08,38.71c-0.42-0.56-0.96-0.82-1.57-1.15c-0.79-0.42-1.73-0.91-2.64-0.86
					c-0.87,0.05-1.64,0.55-1.88,1.41c-0.25,0.91,0.19,1.64,0.9,2.17c1.13,0.86,4.03,0.88,5.03-0.24
					C19.21,39.71,19.39,39.12,19.08,38.71L19.08,38.71z"/>
			</g>
		</g>
		<g>
			<path class="st4" d="M18.08,58.5c0.26-0.35,0.52-0.71,0.76-1.07c0.07-0.01,0.13,0.05,0.18,0.1c0.3,0.33,0.54,0.58,0.74,0.97
				c0.04,0.08,0.09,0.17,0.05,0.25c-0.04,0.08-0.52,0.54-0.69,0.67c-0.06,0.05-0.14,0.1-0.22,0.1c-0.1,0-0.19-0.08-0.26-0.15
				c-0.11-0.11-0.23-0.23-0.33-0.35C18.19,58.87,17.97,58.65,18.08,58.5z"/>
		</g>
		<g>
			<path class="st5" d="M16.26,42.44c0.02-0.51,0.04-1.02,0-1.52c-0.07-0.75-0.01-1.07-0.03-1.74c0-0.11,0.24-1.08,1.31-1.39
				c1.43-0.41,2.41-0.41,3.45,0.12c0.16,0.08,0.46,0.24,0.63,0.5c0.09,0.15,0.11,0.7,0.09,0.88c-0.06,0.82,0.04,1.66,0.29,2.45
				c0.03,0.11,0.08,0.22,0.18,0.29c0.1,0.07,0.24,0.05,0.36,0.04c0.5-0.04,1.02,0.01,1.5,0.14c0.16,0.04,0.32,0.1,0.43,0.22
				c0.16,0.18,0.16,0.45,0.15,0.69c-0.04,1.03,0.17,1.46-0.24,3.1c0.2-0.04,0.41-0.07,0.61-0.01c0.19,0.06,0.36,0.25,0.33,0.45
				c-0.02,0.12-0.12,0.22-0.21,0.31c-0.3,0.31-0.57,0.64-0.81,0.99c-0.12,0.17-0.24,0.36-0.28,0.57c-0.03,0.17-0.01,0.35,0.01,0.52
				c0.06,0.54,0.13,1.09,0.19,1.63c0.03,0.24-0.14,0.35-0.38,0.42c-1.56,0.46-3.2,0.66-4.82,0.6c-0.22-0.01-0.44-0.02-0.64-0.09
				c-0.53-0.18-0.85-0.7-1.04-1.22c-0.14-0.39-0.23-0.8-0.32-1.21c-0.16-0.75-0.33-1.51-0.49-2.26c-0.21-0.97-0.42-1.95-0.4-2.95
				C16.14,43.43,16.24,42.94,16.26,42.44z"/>
		</g>
		<g>
			<path class="st4" d="M21.31,44.16c-0.06,0-0.12,0.05-0.12,0.11c0,0.16,0.09,0.31,0.18,0.45c0.25,0.38,0.49,0.75,0.74,1.13
				c0.05,0.08,0.11,0.17,0.19,0.22c0.12,0.08,0.33,0.16,0.47,0.15c0.61-0.02,1.02,0.01,1.63-0.02c0.12-0.01,0.25-0.01,0.36-0.07
				c0.09-0.05,0.16-0.13,0.22-0.22c0.29-0.37,1.26-1.32,1.32-1.59C26.35,44.13,22.84,44.17,21.31,44.16z"/>
		</g>
		<g>
			<path class="st4" d="M19.46,43.96c-0.13,0.27-0.11,0.58-0.2,0.85c-0.08,0.27-0.34,0.52-0.61,0.46c-0.03-0.01-0.05-0.03-0.05-0.06
				c-0.05-0.6-0.07-1.2-0.06-1.8c0-0.22,0.02-0.44,0.11-0.64c0.08-0.17,0.49-0.58,0.88-0.98c0.73-0.77,1.09-0.88,1.91-1.57
				c0.5-0.43,1.01-0.85,1.52-1.28c0.15-0.12,0.3-0.25,0.48-0.32c0.18-0.07,0.41-0.06,0.56,0.07c0.14,0.12,0.18,0.32,0.21,0.5
				c0.12,0.95,0.33,2.61,0.43,3.5c0.03,0.21-0.08,0-0.57-0.02c-1.14-0.06-2.2,0.25-3.31,0.52C20.25,43.32,19.69,43.49,19.46,43.96z"
				/>
		</g>
		<g>
			<path class="st0" d="M17.87,48.44c0.58-0.36,1.17-0.63,1.85-0.66c0.9-0.04,1.82,0.39,1.84,0.46c0.01,0.05-0.02,0.11-0.05,0.15
				c-0.12,0.15-0.29,0.25-0.46,0.33c-0.91,0.42-2.02,0.4-2.91-0.06C18.03,48.6,17.93,48.54,17.87,48.44z"/>
		</g>
		<g>
			<path class="st3" d="M17.9,49.77c1.02,0.45,2.24,0.49,3.28,0.07c0.28-0.11,0.54-0.28,0.74-0.5c0.07-0.08,0.13-0.17,0.14-0.27
				c0.01-0.11-0.08-0.24-0.19-0.24c-0.07,0-0.13,0.04-0.18,0.08c-1,0.69-2.36,0.84-3.5,0.4c-0.1-0.04-0.21,0-0.26,0.09l-0.09,0.17
				C17.79,49.64,17.82,49.73,17.9,49.77z"/>
		</g>
		<g>
			<path class="st3" d="M20.2,48.59c0.08-0.13,0.08-0.3,0-0.42c-0.06-0.09-0.16-0.14-0.26-0.16c-0.17-0.04-0.37-0.02-0.52,0.08
				c-0.13,0.09-0.2,0.28-0.14,0.42c0.05,0.12,0.1,0.32,0.51,0.31C19.94,48.81,20.12,48.71,20.2,48.59z"/>
		</g>
		<g>
			<path class="st2" d="M17.38,47.93c-0.05-0.5-0.11-1-0.16-1.49c-0.2-1.9-0.41-3.81-0.66-5.71c-0.01-0.09-0.04-0.19-0.12-0.22
				c-0.06-0.02-0.12,0.01-0.17,0.04c-1.44,0.75-2.89,1.5-4.25,2.38c-0.29,0.19-0.6,0.41-0.68,0.75c-0.08,0.32,0.06,0.65,0.21,0.94
				c0.81,1.66,1.71,3.29,2.32,5.03c0.17,0.48,0.31,0.97,0.56,1.41c0.08,0.13,0.16,0.26,0.28,0.35c0.13,0.09,0.28,0.13,0.43,0.17
				c0.92,0.23,1.87,0.36,2.82,0.38c0.04-0.31-0.05-0.62-0.12-0.93C17.6,50.02,17.49,48.97,17.38,47.93z"/>
		</g>
		<g>
			<path class="st2" d="M15.78,54.19c-0.19-0.29-0.2-0.66-0.38-0.95c-0.16-0.25-0.4-0.49-0.41-0.79c0.18-0.14,0.43-0.14,0.66-0.14
				c2.56,0,5.12-0.01,7.68-0.01c0.03,0,0.07,0,0.1,0.01c0.14,0.05,0.1,0.26,0.03,0.4c-0.4,0.75-2.29,3.27-2.81,3.78
				c-0.3,0.29-0.6,0.58-0.9,0.87c-0.27,0.27-0.63,0.56-1,0.45C18.63,57.79,17.86,57.34,15.78,54.19z"/>
		</g>
		<g>
			<defs>
				<path id="SVGID_00000080917608030370400210000002247026550582065313_" d="M21.31,44.16c-0.06,0-0.12,0.05-0.12,0.11
					c0,0.16,0.09,0.31,0.18,0.45c0.25,0.38,0.49,0.75,0.74,1.13c0.05,0.08,0.11,0.17,0.19,0.22c0.12,0.08,0.33,0.16,0.47,0.15
					c0.61-0.02,1.02,0.01,1.63-0.02c0.12-0.01,0.25-0.01,0.36-0.07c0.09-0.05,0.16-0.13,0.22-0.22c0.29-0.37,1.26-1.32,1.32-1.59
					C26.35,44.13,22.84,44.17,21.31,44.16z"/>
			</defs>
			<clipPath id="SVGID_00000080922987446229956160000008207159827459694763_">
				<use xlink:href="#SVGID_00000080917608030370400210000002247026550582065313_"  style="overflow:visible;"/>
			</clipPath>
			<g style="clip-path:url(#SVGID_00000080922987446229956160000008207159827459694763_);">
				<g>
					<path class="st3" d="M25.44,46.15c0.21-0.32,0.27-0.74,0.38-1.1c0.2-0.62,0.49-1.29,0.59-1.93c0.01-0.07-0.08-0.15-0.13-0.08
						c-0.67,0.85-0.54,2.11-0.95,3.06C25.31,46.17,25.41,46.2,25.44,46.15L25.44,46.15z"/>
				</g>
			</g>
			<g style="clip-path:url(#SVGID_00000080922987446229956160000008207159827459694763_);">
				<g>
					<path class="st3" d="M24.83,47.05c0.34-0.52,0.4-1.13,0.51-1.73c0.15-0.8,0.43-1.57,0.6-2.36c0.02-0.08-0.09-0.12-0.14-0.06
						c-0.81,1.11-0.72,2.84-1.03,4.13C24.77,47.06,24.81,47.08,24.83,47.05L24.83,47.05z"/>
				</g>
			</g>
			<g style="clip-path:url(#SVGID_00000080922987446229956160000008207159827459694763_);">
				<g>
					<path class="st3" d="M24.47,46.99c0.15-1.15,0.37-2.27,0.43-3.43c0-0.04-0.05-0.06-0.08-0.03c-0.3,0.37-0.3,0.9-0.34,1.36
						c-0.06,0.69-0.19,1.41-0.11,2.1C24.38,47.05,24.46,47.05,24.47,46.99L24.47,46.99z"/>
				</g>
			</g>
			<g style="clip-path:url(#SVGID_00000080922987446229956160000008207159827459694763_);">
				<g>
					<path class="st3" d="M23.94,46.93c0.2-0.61,0.15-1.21,0.17-1.85c0.02-0.61,0.14-1.21,0.16-1.81c0-0.08-0.1-0.1-0.14-0.04
						c-0.62,1.09-0.15,2.5-0.31,3.66C23.81,46.98,23.92,47.01,23.94,46.93L23.94,46.93z"/>
				</g>
			</g>
			<g style="clip-path:url(#SVGID_00000080922987446229956160000008207159827459694763_);">
				<g>
					<path class="st3" d="M23.33,47.26c0.12-0.64,0.13-1.26,0.11-1.91c-0.02-0.76,0.09-1.58-0.15-2.31c-0.02-0.07-0.11-0.07-0.14,0
						c-0.43,1.35,0.21,2.84,0.06,4.21C23.22,47.31,23.32,47.32,23.33,47.26L23.33,47.26z"/>
				</g>
			</g>
			<g style="clip-path:url(#SVGID_00000080922987446229956160000008207159827459694763_);">
				<g>
					<path class="st3" d="M22.62,46.89c0.14-1.05,0.06-2.27-0.21-3.3c-0.02-0.06-0.11-0.06-0.13,0c-0.23,1.05,0.19,2.24,0.23,3.3
						C22.52,46.96,22.62,46.96,22.62,46.89L22.62,46.89z"/>
				</g>
			</g>
			<g style="clip-path:url(#SVGID_00000080922987446229956160000008207159827459694763_);">
				<g>
					<path class="st3" d="M21.85,46.29c0.12-0.86,0.21-1.84-0.07-2.68c-0.02-0.04-0.09-0.07-0.11-0.01
						c-0.16,0.36-0.1,0.74-0.06,1.13c0.06,0.52,0.06,1.04,0.13,1.56C21.74,46.37,21.84,46.37,21.85,46.29L21.85,46.29z"/>
				</g>
			</g>
		</g>
		<g>
			<defs>
				<path id="SVGID_00000023282979124946466880000007549288847322183830_" d="M19.46,43.96c-0.13,0.27-0.11,0.58-0.2,0.85
					c-0.08,0.27-0.34,0.52-0.61,0.46c-0.03-0.01-0.05-0.03-0.05-0.06c-0.05-0.6-0.07-1.2-0.06-1.8c0-0.22,0.02-0.44,0.11-0.64
					c0.08-0.17,0.49-0.58,0.88-0.98c0.73-0.77,1.09-0.88,1.91-1.57c0.5-0.43,1.01-0.85,1.52-1.28c0.15-0.12,0.3-0.25,0.48-0.32
					c0.18-0.07,0.41-0.06,0.56,0.07c0.14,0.12,0.18,0.32,0.21,0.5c0.12,0.95,0.33,2.61,0.43,3.5c0.03,0.21-0.08,0-0.57-0.02
					c-1.14-0.06-2.2,0.25-3.31,0.52C20.25,43.32,19.69,43.49,19.46,43.96z"/>
			</defs>
			<clipPath id="SVGID_00000063627481278478764440000011548519574301456771_">
				<use xlink:href="#SVGID_00000023282979124946466880000007549288847322183830_"  style="overflow:visible;"/>
			</clipPath>
			<g style="clip-path:url(#SVGID_00000063627481278478764440000011548519574301456771_);">
				<g>
					<path class="st3" d="M24.22,43.35c0.07-1.11-0.1-2.27-0.22-3.38c-0.08-0.69,0-1.52-0.36-2.14c-0.04-0.06-0.13-0.02-0.12,0.05
						c0.37,1.77,0.37,3.68,0.6,5.47C24.14,43.4,24.22,43.4,24.22,43.35L24.22,43.35z"/>
				</g>
			</g>
			<g style="clip-path:url(#SVGID_00000063627481278478764440000011548519574301456771_);">
				<g>
					<path class="st3" d="M23.55,43.08c0.16-1.51,0.01-3.48-0.49-4.93c-0.02-0.04-0.09-0.05-0.1,0c-0.13,0.66-0.02,1.29,0.07,1.95
						c0.14,1,0.27,1.99,0.41,2.99C23.45,43.16,23.54,43.14,23.55,43.08L23.55,43.08z"/>
				</g>
			</g>
			<g style="clip-path:url(#SVGID_00000063627481278478764440000011548519574301456771_);">
				<g>
					<path class="st3" d="M22.72,43.15c0.02-1.57-0.21-3.09-0.51-4.62c-0.02-0.07-0.14-0.07-0.15,0c-0.15,0.75,0.09,1.48,0.19,2.22
						c0.1,0.79,0.3,1.61,0.37,2.4C22.62,43.22,22.72,43.22,22.72,43.15L22.72,43.15z"/>
				</g>
			</g>
			<g style="clip-path:url(#SVGID_00000063627481278478764440000011548519574301456771_);">
				<g>
					<path class="st3" d="M22.06,43.42c0.04-1.41-0.11-3.09-0.54-4.44c-0.04-0.14-0.29-0.12-0.27,0.04
						c0.15,1.48,0.54,2.93,0.68,4.41C21.92,43.51,22.05,43.51,22.06,43.42L22.06,43.42z"/>
				</g>
			</g>
			<g style="clip-path:url(#SVGID_00000063627481278478764440000011548519574301456771_);">
				<g>
					<path class="st3" d="M21.34,43.54c0.06-1.17-0.16-2.39-0.59-3.48c-0.01-0.03-0.06-0.03-0.06,0.01
						c0.04,1.17,0.43,2.31,0.53,3.47C21.23,43.61,21.34,43.61,21.34,43.54L21.34,43.54z"/>
				</g>
			</g>
			<g style="clip-path:url(#SVGID_00000063627481278478764440000011548519574301456771_);">
				<g>
					<path class="st3" d="M20.63,43.75c0.13-1.29-0.32-2.68-0.56-3.94c-0.03-0.15-0.26-0.11-0.26,0.04
						c-0.03,1.34,0.69,2.57,0.76,3.9C20.57,43.79,20.63,43.79,20.63,43.75L20.63,43.75z"/>
				</g>
			</g>
			<g style="clip-path:url(#SVGID_00000063627481278478764440000011548519574301456771_);">
				<g>
					<path class="st3" d="M20.12,44.38c0.02-1.31-0.17-2.75-0.58-4c-0.02-0.06-0.11-0.06-0.13,0c-0.14,0.53-0.03,1.06,0.07,1.59
						c0.16,0.81,0.38,1.61,0.57,2.42C20.07,44.42,20.12,44.41,20.12,44.38L20.12,44.38z"/>
				</g>
			</g>
			<g style="clip-path:url(#SVGID_00000063627481278478764440000011548519574301456771_);">
				<g>
					<path class="st3" d="M19.65,44.75c-0.15-0.54-0.14-1.17-0.26-1.73c-0.12-0.63-0.25-1.3-0.53-1.88
						c-0.04-0.08-0.16-0.04-0.16,0.04c-0.06,0.73,0.25,1.49,0.41,2.2c0.1,0.43,0.16,1.07,0.47,1.4
						C19.6,44.82,19.66,44.79,19.65,44.75L19.65,44.75z"/>
				</g>
			</g>
			<g style="clip-path:url(#SVGID_00000063627481278478764440000011548519574301456771_);">
				<g>
					<path class="st3" d="M19.03,45.69c0.13-1.5-0.39-2.87-0.55-4.34c0-0.04-0.07-0.05-0.07-0.01c-0.25,1.42,0.32,2.95,0.51,4.35
						C18.93,45.76,19.02,45.77,19.03,45.69L19.03,45.69z"/>
				</g>
			</g>
		</g>
		<g>
			<defs>
				<path id="SVGID_00000008855319672310470840000006121120541680494730_" d="M17.38,47.93c-0.05-0.5-0.11-1-0.16-1.49
					c-0.2-1.9-0.41-3.81-0.66-5.71c-0.01-0.09-0.04-0.19-0.12-0.22c-0.06-0.02-0.12,0.01-0.17,0.04c-1.44,0.75-2.89,1.5-4.25,2.38
					c-0.29,0.19-0.6,0.41-0.68,0.75c-0.08,0.32,0.06,0.65,0.21,0.94c0.81,1.66,1.71,3.29,2.32,5.03c0.17,0.48,0.31,0.97,0.56,1.41
					c0.08,0.13,0.16,0.26,0.28,0.35c0.13,0.09,0.28,0.13,0.43,0.17c0.92,0.23,1.87,0.36,2.82,0.38c0.04-0.31-0.05-0.62-0.12-0.93
					C17.6,50.02,17.49,48.97,17.38,47.93z"/>
			</defs>
			<clipPath id="SVGID_00000102524341857618692970000005701258930867650224_">
				<use xlink:href="#SVGID_00000008855319672310470840000006121120541680494730_"  style="overflow:visible;"/>
			</clipPath>
			<g style="clip-path:url(#SVGID_00000102524341857618692970000005701258930867650224_);">
				<g>
					<path class="st3" d="M17.36,51.95c0.19-2.02-0.21-4.18-0.57-6.16c-0.19-1.05-0.3-2.11-0.45-3.16
						c-0.12-0.84-0.15-1.81-0.57-2.58c-0.1-0.18-0.38-0.05-0.33,0.14c0.41,1.77,0.58,3.56,0.89,5.35c0.21,1.18,0.46,2.34,0.6,3.53
						c0.12,0.98,0.09,1.95,0.4,2.89C17.34,51.97,17.36,51.96,17.36,51.95L17.36,51.95z"/>
				</g>
			</g>
			<g style="clip-path:url(#SVGID_00000102524341857618692970000005701258930867650224_);">
				<g>
					<path class="st3" d="M16.85,51.37c-0.31-1.76-0.44-3.56-0.77-5.32c-0.17-0.92-0.28-1.85-0.47-2.77c-0.2-1-0.51-1.94-0.55-2.97
						c-0.12,0.07-0.24,0.13-0.36,0.2c0.02,0.01,0.05,0.03,0.07,0.04c0.08,0.04,0.15,0.01,0.2-0.05c0.02-0.02,0.04-0.05,0.05-0.07
						c0.23-0.3-0.46-0.53-0.44-0.12c0.04,0.83,0.22,1.62,0.43,2.42c0.26,1.02,0.4,2.05,0.6,3.08c0.21,1.06,0.48,2.1,0.67,3.16
						c0.15,0.83,0.17,1.64,0.54,2.41C16.83,51.39,16.85,51.38,16.85,51.37L16.85,51.37z"/>
				</g>
			</g>
			<g style="clip-path:url(#SVGID_00000102524341857618692970000005701258930867650224_);">
				<g>
					<path class="st3" d="M16.31,51.8c-0.02-0.78-0.29-1.53-0.41-2.31c-0.14-0.93-0.3-1.85-0.49-2.77
						c-0.19-0.95-0.45-1.88-0.69-2.82c-0.25-0.97-0.29-1.99-0.61-2.93c-0.09-0.27-0.49-0.16-0.43,0.12c0.4,1.82,0.81,3.6,1.28,5.4
						c0.47,1.8,0.63,3.61,1.34,5.33C16.3,51.81,16.31,51.81,16.31,51.8L16.31,51.8z"/>
				</g>
			</g>
			<g style="clip-path:url(#SVGID_00000102524341857618692970000005701258930867650224_);">
				<g>
					<path class="st3" d="M15.64,51.49c-0.11-1.82-0.73-3.63-1.19-5.39c-0.27-1.06-0.63-2.09-0.92-3.14
						c-0.21-0.79-0.23-1.69-0.82-2.31c-0.12-0.13-0.4,0-0.32,0.18c0.71,1.71,1.08,3.61,1.62,5.39c0.3,0.97,0.55,1.96,0.85,2.94
						c0.23,0.77,0.33,1.64,0.74,2.34C15.61,51.52,15.64,51.51,15.64,51.49L15.64,51.49z"/>
				</g>
			</g>
			<g style="clip-path:url(#SVGID_00000102524341857618692970000005701258930867650224_);">
				<g>
					<path class="st3" d="M14.96,51.16c0.04-0.66-0.14-1.26-0.35-1.89c-0.34-1.03-0.66-2.05-1.08-3.05
						c-0.34-0.82-0.74-1.61-1.1-2.43c-0.37-0.83-0.6-1.83-1.2-2.53c-0.07-0.08-0.19,0.01-0.17,0.1c0.31,1.62,1.24,3.22,1.97,4.68
						c0.43,0.84,0.75,1.73,1.07,2.62c0.29,0.8,0.71,1.64,0.78,2.49C14.88,51.21,14.95,51.21,14.96,51.16L14.96,51.16z"/>
				</g>
			</g>
			<g style="clip-path:url(#SVGID_00000102524341857618692970000005701258930867650224_);">
				<g>
					<path class="st3" d="M14.3,51.16c0.72-0.52-0.76-3.08-1.02-3.61c-0.57-1.15-1.13-2.3-1.68-3.46c-0.3-0.64-0.7-1.66-1.31-2.07
						c-0.16-0.11-0.38,0.11-0.27,0.27c0.91,1.33,1.49,2.85,2.25,4.26c0.48,0.89,0.98,1.76,1.38,2.69c0.22,0.52,0.73,1.31,0.6,1.87
						C14.24,51.15,14.27,51.18,14.3,51.16L14.3,51.16z"/>
				</g>
			</g>
		</g>
		<g>
			<path class="st4" d="M11.96,52.99c0.53-0.99,1.14-1.95,1.83-2.85c0.06-0.08,0.13-0.17,0.23-0.21c0.09-0.04,0.2-0.03,0.31-0.02
				c3.32,0.3,6.69,0.82,9.94,0.11c0.55,0.98,1.19,1.9,1.91,2.76c0.08,0.1,0.17,0.21,0.17,0.34c0,0.26-0.32,0.38-0.58,0.42
				c-3.47,0.56-7.02,0.39-10.53,0.21c-1.11-0.06-2.22-0.11-3.3-0.36C11.83,53.29,11.89,53.11,11.96,52.99z"/>
		</g>
		<g>
			<path class="st9" d="M26.33,53.02c-0.18-0.24-1.91-1.15-2.09-1.22c-0.39-0.14-0.44,0.23-0.54,0.38
				c-0.33,0.53-0.74,1.02-1.04,1.33c-0.02,0.02-0.06,0.03-0.08,0.01c-0.24-0.11-0.73-0.55-0.83-0.69c-0.14-0.2-0.41-0.43-0.58-0.6
				c-0.06-0.06-0.14-0.13-0.23-0.12c-0.08,0.01-0.15,0.08-0.2,0.14c-0.33,0.39-0.98,1.38-1.35,1.35c-0.29-0.02-0.34-0.5-1-1.41
				c-0.13-0.18-0.24-0.02-0.73,0.38c-0.48,0.4-0.74,0.61-1.23,0.96c-0.04,0.03-0.09,0.03-0.13,0.01c-0.5-0.3-0.65-0.96-1.02-1.41
				c-0.06-0.07-0.13-0.14-0.22-0.15c-0.11-0.01-0.2,0.06-0.29,0.12l-1.19,0.93c-0.04,0.03-0.11,0.02-0.14-0.03
				c-0.3-0.57-0.59-1.62-0.66-1.51c-0.39,0.58-0.68,0.87-0.97,1.5c-0.17,0.36,0.05,0.53,0.1,0.54c1.79,0.3,6.31,0.78,9.94,0.8
				c1.6,0.01,4.42-0.46,4.56-0.66C26.56,53.48,26.48,53.21,26.33,53.02z"/>
		</g>
		<g>
			<g>
				<path class="st9" d="M19.26,45.46c-0.48,0-0.88,0.4-0.88,0.87c0,0.48,0.4,0.87,0.88,0.87c0.48,0,0.88-0.4,0.88-0.87
					C20.15,45.86,19.75,45.46,19.26,45.46L19.26,45.46z"/>
			</g>
		</g>
		<g>
			<g>
				<path class="st3" d="M24.6,46.12c-0.43-0.03-0.86-0.04-1.29-0.01c-0.29,0.02-0.58,0.05-0.77,0.29
					c-0.12,0.16-0.17,0.41-0.07,0.59c0.12,0.21,0.43,0.33,0.62,0.14c0.04-0.04,0.04-0.1,0-0.14c-0.1-0.1-0.4-0.09-0.42-0.25
					c-0.02-0.23,0.23-0.32,0.41-0.35c0.5-0.1,1.02-0.05,1.52-0.15C24.67,46.21,24.65,46.12,24.6,46.12L24.6,46.12z"/>
			</g>
		</g>
		<g>
			<g>
				<path class="st4" d="M21.28,54.87c-0.13,0-0.25,0-0.37,0.04c-0.08,0.03-0.3,0.1-0.26,0.23c0.04,0.12,0.18,0.05,0.25,0
					c0.12-0.07,0.26-0.13,0.39-0.18C21.35,54.95,21.34,54.87,21.28,54.87L21.28,54.87z"/>
			</g>
		</g>
		<g>
			<g>
				<path class="st4" d="M20.63,55.75c-0.04-0.08-0.08-0.14-0.13-0.21c-0.07-0.07-0.11-0.11-0.21-0.11c-0.04,0-0.06,0.03-0.05,0.07
					c0.01,0.09,0.05,0.12,0.12,0.18c0.06,0.05,0.13,0.1,0.2,0.14C20.6,55.87,20.66,55.8,20.63,55.75L20.63,55.75z"/>
			</g>
		</g>
		<g>
			<g>
				<path class="st4" d="M19.97,56.49c-0.09-0.13-0.19-0.25-0.36-0.28c-0.04-0.01-0.08,0.02-0.07,0.07
					c0.05,0.17,0.19,0.25,0.35,0.31C19.95,56.6,20,56.53,19.97,56.49L19.97,56.49z"/>
			</g>
		</g>
		<g>
			<g>
				<path class="st4" d="M19.36,55.52c-0.07-0.02-0.14-0.08-0.21-0.07c-0.03,0-0.05,0.02-0.05,0.05c0.01,0.11,0.13,0.14,0.22,0.17
					C19.41,55.69,19.45,55.54,19.36,55.52L19.36,55.52z"/>
			</g>
		</g>
		<g>
			<g>
				<path class="st4" d="M19.9,54.89c-0.06-0.06-0.13-0.12-0.2-0.17c-0.07-0.05-0.16-0.11-0.24-0.13c-0.1-0.03-0.16,0.08-0.13,0.16
					c0.08,0.17,0.33,0.18,0.47,0.25C19.89,55.04,19.96,54.95,19.9,54.89L19.9,54.89z"/>
			</g>
		</g>
		<g>
			<g>
				<path class="st4" d="M19.04,56.59c-0.13,0.06-0.28,0.01-0.37,0.13c-0.03,0.03-0.02,0.08,0.02,0.09
					c0.15,0.05,0.31-0.03,0.42-0.13C19.16,56.63,19.1,56.57,19.04,56.59L19.04,56.59z"/>
			</g>
		</g>
		<g>
			<g>
				<path class="st4" d="M19.38,57.1c-0.11,0.08-0.37,0.09-0.38,0.26c0,0.02,0.01,0.04,0.03,0.06c0.15,0.1,0.35-0.14,0.42-0.25
					C19.48,57.13,19.43,57.07,19.38,57.1L19.38,57.1z"/>
			</g>
		</g>
		<g>
			<g>
				<path class="st4" d="M18.12,56.76c-0.02-0.08-0.05-0.15-0.09-0.22c-0.02-0.04-0.05-0.07-0.07-0.09
					c-0.02-0.03-0.06-0.02-0.09-0.03c-0.03-0.01-0.06,0.02-0.05,0.05c0.01,0.03-0.01,0.05,0.01,0.08c0.02,0.03,0.05,0.07,0.07,0.1
					c0.06,0.07,0.11,0.11,0.19,0.14C18.1,56.79,18.13,56.78,18.12,56.76L18.12,56.76z"/>
			</g>
		</g>
		<g>
			<g>
				<path class="st4" d="M18.44,55.92c-0.07-0.11-0.15-0.2-0.24-0.29c-0.02-0.02-0.05-0.03-0.08-0.02
					c-0.02,0.01-0.04,0.02-0.05,0.04c-0.02,0.04-0.02,0.07,0.01,0.1c0.08,0.09,0.18,0.16,0.27,0.25
					C18.39,56.04,18.48,55.97,18.44,55.92L18.44,55.92z"/>
			</g>
		</g>
		<g>
			<g>
				<path class="st4" d="M18.42,54.84c-0.07-0.06-0.13-0.12-0.2-0.18c-0.07-0.06-0.14-0.12-0.23-0.09
					c-0.03,0.01-0.05,0.03-0.05,0.06c0,0.1,0.08,0.15,0.15,0.2c0.08,0.06,0.17,0.1,0.26,0.14C18.42,54.99,18.47,54.89,18.42,54.84
					L18.42,54.84z"/>
			</g>
		</g>
		<g>
			<g>
				<path class="st4" d="M17.4,55.86c0.01-0.11,0.05-0.2,0.08-0.3c0.03-0.08,0.04-0.18-0.02-0.24c-0.02-0.02-0.05-0.02-0.08-0.01
					c-0.15,0.09-0.06,0.39-0.05,0.53C17.34,55.88,17.39,55.9,17.4,55.86L17.4,55.86z"/>
			</g>
		</g>
		<g>
			<g>
				<path class="st4" d="M16.94,54.92c0.02-0.12,0.09-0.33-0.04-0.42c-0.01-0.01-0.03-0.01-0.04,0c-0.11,0.08-0.07,0.25-0.08,0.37
					C16.76,54.98,16.92,55.02,16.94,54.92L16.94,54.92z"/>
			</g>
		</g>
		<g>
			<g>
				<path class="st3" d="M23.84,50.98c-0.05,0.01-0.09,0.03-0.13,0.05c-0.2,0.13-0.2,0.4,0,0.53c0.04,0.02,0.08,0.04,0.13,0.05
					c0.21,0.05,0.42-0.1,0.42-0.32C24.26,51.08,24.05,50.93,23.84,50.98L23.84,50.98z"/>
			</g>
		</g>
		<g>
			<g>
				<path class="st3" d="M21.1,51.16c-0.18,0-0.33,0.15-0.33,0.33c0,0.18,0.15,0.33,0.33,0.33c0.18,0,0.33-0.15,0.33-0.33
					C21.43,51.31,21.28,51.16,21.1,51.16L21.1,51.16z"/>
			</g>
		</g>
		<g>
			<g>
				<path class="st3" d="M18.45,51.31c0,0-0.01,0-0.01-0.01c-0.22-0.1-0.49,0.07-0.42,0.32c0.07,0.25,0.38,0.26,0.52,0.07
					c0,0,0-0.01,0.01-0.01C18.63,51.56,18.57,51.37,18.45,51.31L18.45,51.31z"/>
			</g>
		</g>
		<g>
			<g>
				<path class="st3" d="M14.94,51c-0.01,0-0.01,0.01-0.02,0.01c-0.18,0.11-0.18,0.37,0,0.48c0.01,0,0.01,0.01,0.02,0.01
					c0.19,0.11,0.44-0.03,0.44-0.25C15.38,51.03,15.13,50.89,14.94,51L14.94,51z"/>
			</g>
		</g>
		<g>
			<g>
				<path class="st4" d="M25.78,36.23c-0.3,0-0.55,0.25-0.55,0.54c0,0.3,0.25,0.54,0.55,0.54c0.3,0,0.55-0.25,0.55-0.54
					C26.33,36.48,26.08,36.23,25.78,36.23L25.78,36.23z"/>
			</g>
		</g>
		<g>
			<g>
				<path class="st4" d="M19.13,33.89c-0.27,0-0.5,0.22-0.5,0.49c0,0.27,0.23,0.49,0.5,0.49c0.27,0,0.5-0.23,0.5-0.49
					C19.63,34.12,19.4,33.89,19.13,33.89L19.13,33.89z"/>
			</g>
		</g>
		<g>
			<g>
				<path class="st4" d="M13.08,37.25c-0.01,0-0.02,0-0.03,0.01c-0.26,0.05-0.38,0.44-0.16,0.61c0.01,0.01,0.02,0.02,0.03,0.02
					c0.21,0.19,0.57,0.12,0.65-0.17c0.04-0.13,0-0.28-0.1-0.37C13.35,37.24,13.23,37.23,13.08,37.25L13.08,37.25z"/>
			</g>
		</g>
		<g>
			<g>
				<path class="st4" d="M19.31,35.93c0.11-0.06,0.16-0.16,0.17-0.27c0.01-0.18-0.24-0.34-0.4-0.23c0,0-0.01,0.01-0.01,0.01
					c0.05-0.01,0.09-0.02,0.14-0.04c-0.01,0-0.01,0-0.02,0c0.05,0.01,0.09,0.02,0.14,0.04c-0.01,0-0.01-0.01-0.02-0.01
					c-0.1-0.04-0.2-0.06-0.29,0c-0.09,0.05-0.15,0.15-0.15,0.25C18.88,35.9,19.12,36.03,19.31,35.93L19.31,35.93z"/>
			</g>
		</g>
		<g>
			<g>
				<path class="st4" d="M19.17,36.44c-0.2,0-0.2,0.31,0,0.31C19.37,36.74,19.37,36.44,19.17,36.44L19.17,36.44z"/>
			</g>
		</g>
		<g>
			<g>
				<path class="st4" d="M24.66,37.43c0,0-0.01,0.01-0.01,0.01c0.03-0.02,0.07-0.04,0.1-0.06c-0.01,0-0.01,0-0.02,0.01
					c-0.07,0.03-0.13,0.07-0.15,0.15c-0.03,0.09,0.01,0.2,0.1,0.24c0.03,0.01,0.06,0.03,0.09,0.03c0.17,0.03,0.34-0.1,0.29-0.29
					C25,37.35,24.79,37.33,24.66,37.43L24.66,37.43z"/>
			</g>
		</g>
		<g>
			<g>
				<path class="st4" d="M24.08,38c-0.16,0-0.16,0.25,0,0.25C24.24,38.25,24.24,38,24.08,38L24.08,38z"/>
			</g>
		</g>
		<g>
			<g>
				<path class="st4" d="M14.01,37.87c-0.33,0-0.33,0.5,0,0.5C14.34,38.38,14.34,37.87,14.01,37.87L14.01,37.87z"/>
			</g>
		</g>
		<g>
			<g>
				<path class="st4" d="M14.69,38.32c-0.24,0-0.24,0.37,0,0.37C14.94,38.69,14.94,38.32,14.69,38.32L14.69,38.32z"/>
			</g>
		</g>
		<g>
			<g>
				<path class="st9" d="M24.38,50.61c-0.06-0.09-0.08-0.19-0.11-0.29c-0.04-0.15-0.27-0.08-0.23,0.06
					c0.04,0.13,0.09,0.24,0.19,0.34C24.3,50.8,24.44,50.7,24.38,50.61L24.38,50.61z"/>
			</g>
		</g>
		<g>
			<g>
				<path class="st9" d="M23.83,50.78c-0.04-0.12-0.08-0.24-0.14-0.35c-0.02-0.03-0.07-0.06-0.11-0.04
					c-0.02,0.01-0.03,0.01-0.04,0.02c-0.03,0.03-0.03,0.08-0.01,0.11c0.05,0.11,0.1,0.21,0.17,0.32
					C23.74,50.9,23.86,50.86,23.83,50.78L23.83,50.78z"/>
			</g>
		</g>
		<g>
			<g>
				<path class="st9" d="M23.21,50.97c0.09-0.16,0.01-0.43-0.1-0.56c-0.08-0.09-0.26-0.02-0.25,0.1c0.01,0.11,0.06,0.2,0.1,0.3
					c0.04,0.08,0.09,0.15,0.18,0.18C23.16,51.01,23.19,50.99,23.21,50.97L23.21,50.97z"/>
			</g>
		</g>
		<g>
			<g>
				<path class="st9" d="M22.63,50.94c0-0.15,0-0.32-0.07-0.45c-0.05-0.1-0.2-0.05-0.21,0.05c-0.01,0.15,0.07,0.3,0.13,0.44
					C22.51,51.05,22.63,51.02,22.63,50.94L22.63,50.94z"/>
			</g>
		</g>
		<g>
			<g>
				<path class="st9" d="M22.02,51.01c0-0.15,0.01-0.33-0.08-0.46c-0.07-0.12-0.25-0.07-0.25,0.07c0,0.15,0.07,0.29,0.12,0.42
					C21.86,51.14,22.02,51.14,22.02,51.01L22.02,51.01z"/>
			</g>
		</g>
		<g>
			<g>
				<path class="st9" d="M21.4,50.97c0-0.14,0.03-0.26-0.03-0.39c-0.05-0.11-0.23-0.05-0.22,0.06c0,0.12,0.03,0.24,0.07,0.35
					C21.25,51.09,21.4,51.07,21.4,50.97L21.4,50.97z"/>
			</g>
		</g>
		<g>
			<g>
				<path class="st9" d="M20.74,51.07c0.09-0.12,0.07-0.29,0.02-0.43c-0.06-0.15-0.32-0.14-0.31,0.04c0.01,0.15,0.05,0.31,0.17,0.4
					C20.66,51.12,20.71,51.12,20.74,51.07L20.74,51.07z"/>
			</g>
		</g>
		<g>
			<g>
				<path class="st9" d="M20.1,50.99c0.02-0.11,0.04-0.24,0.01-0.35c-0.01-0.05-0.06-0.07-0.1-0.08c-0.02,0-0.04,0.01-0.05,0.01
					c-0.03,0.02-0.05,0.06-0.05,0.09c0.01,0.1,0.04,0.2,0.04,0.3C19.94,51.05,20.08,51.08,20.1,50.99L20.1,50.99z"/>
			</g>
		</g>
		<g>
			<g>
				<path class="st9" d="M19.65,50.99c0-0.09,0-0.19,0-0.28c0-0.09-0.07-0.24-0.19-0.2c-0.21,0.07-0.1,0.4-0.02,0.54
					C19.49,51.14,19.65,51.1,19.65,50.99L19.65,50.99z"/>
			</g>
		</g>
		<g>
			<g>
				<path class="st9" d="M18.88,51.01c0.04-0.14,0.1-0.35-0.02-0.47c-0.05-0.04-0.13-0.04-0.16,0.02c-0.06,0.13-0.01,0.31,0.03,0.45
					C18.74,51.09,18.86,51.09,18.88,51.01L18.88,51.01z"/>
			</g>
		</g>
		<g>
			<g>
				<path class="st9" d="M18.28,51.04c0.08-0.16,0.11-0.39-0.01-0.54c-0.05-0.07-0.14-0.02-0.17,0.04c-0.05,0.13,0.02,0.29,0,0.43
					C18.09,51.06,18.22,51.14,18.28,51.04L18.28,51.04z"/>
			</g>
		</g>
		<g>
			<g>
				<path class="st9" d="M17.73,50.94c0.01-0.13,0.11-0.53-0.12-0.53c-0.1,0-0.09,0.14-0.09,0.2c0,0.11,0.01,0.23,0.01,0.34
					C17.54,51.07,17.73,51.07,17.73,50.94L17.73,50.94z"/>
			</g>
		</g>
		<g>
			<g>
				<path class="st9" d="M17.2,50.92c0.06-0.15,0.18-0.42,0.03-0.55c-0.06-0.05-0.14-0.05-0.2,0c-0.08,0.07-0.08,0.18-0.08,0.27
					c0,0.11,0.02,0.2,0.06,0.3C17.05,51.04,17.18,50.99,17.2,50.92L17.2,50.92z"/>
			</g>
		</g>
		<g>
			<g>
				<path class="st9" d="M16.53,50.85c0.1-0.14,0.19-0.46,0-0.58c-0.04-0.02-0.09-0.02-0.13,0c-0.17,0.11-0.09,0.39-0.05,0.55
					C16.37,50.91,16.49,50.91,16.53,50.85L16.53,50.85z"/>
			</g>
		</g>
		<g>
			<g>
				<path class="st9" d="M15.94,50.79c0.03-0.14,0.07-0.27,0.08-0.42c0.01-0.17-0.27-0.18-0.27,0c0,0.14,0,0.28,0.03,0.42
					C15.8,50.87,15.92,50.87,15.94,50.79L15.94,50.79z"/>
			</g>
		</g>
		<g>
			<g>
				<path class="st9" d="M15.33,50.75c0.17-0.09,0.22-0.38,0.14-0.53c-0.05-0.12-0.21-0.07-0.25,0.03
					c-0.03,0.09-0.02,0.19-0.02,0.28c0,0.08,0.02,0.15,0.07,0.21C15.28,50.76,15.31,50.76,15.33,50.75L15.33,50.75z"/>
			</g>
		</g>
		<g>
			<g>
				<path class="st9" d="M14.89,50.6c0.05-0.12,0.11-0.29,0.07-0.42c-0.03-0.09-0.14-0.1-0.2-0.03c-0.08,0.12-0.02,0.3-0.02,0.43
					C14.74,50.67,14.86,50.67,14.89,50.6L14.89,50.6z"/>
			</g>
		</g>
		<g>
			<g>
				<path class="st9" d="M14.32,50.61c0.1-0.17,0.23-0.36,0.14-0.55c-0.04-0.09-0.19-0.1-0.25-0.03c-0.12,0.14-0.12,0.39-0.08,0.56
					C14.15,50.67,14.28,50.68,14.32,50.61L14.32,50.61z"/>
			</g>
		</g>
		<g>
			<g>
				<path class="st9" d="M16.25,35.15c0,0-0.01-0.01-0.01-0.01c-0.06-0.06-0.15-0.06-0.21,0c-0.01,0-0.01,0.01-0.01,0.01
					c-0.11,0.1-0.02,0.29,0.12,0.29C16.28,35.44,16.36,35.25,16.25,35.15L16.25,35.15z"/>
			</g>
		</g>
		<g>
			<g>
				<path class="st9" d="M20.74,33.43c0,0-0.01-0.01-0.01-0.01c-0.06-0.06-0.15-0.06-0.21,0c0,0-0.01,0.01-0.01,0.01
					c-0.11,0.1-0.02,0.29,0.12,0.29C20.77,33.71,20.85,33.53,20.74,33.43L20.74,33.43z"/>
			</g>
		</g>
		<g>
			<g>
				<path class="st9" d="M13.78,34.19c0,0-0.01,0.01-0.01,0.01c-0.05,0.04-0.05,0.13,0,0.17c0,0,0.01,0.01,0.01,0.01
					c0.09,0.07,0.24,0.03,0.24-0.1C14.01,34.16,13.87,34.11,13.78,34.19L13.78,34.19z"/>
			</g>
		</g>
		<g>
			<g>
				<path class="st9" d="M24.7,34.22c-0.01,0-0.01,0.01-0.01,0.01c-0.05,0.04-0.05,0.13,0,0.17c0,0,0.01,0.01,0.01,0.01
					c0.09,0.07,0.24,0.03,0.24-0.1C24.94,34.19,24.79,34.15,24.7,34.22L24.7,34.22z"/>
			</g>
		</g>
		<g>
			<g>
				<path class="st9" d="M29.34,37.14c0,0-0.01,0.01-0.01,0.01c-0.05,0.04-0.05,0.13,0,0.17c0,0,0.01,0.01,0.01,0.01
					c0.09,0.08,0.24,0.03,0.24-0.1C29.58,37.11,29.43,37.06,29.34,37.14L29.34,37.14z"/>
			</g>
		</g>
		<g>
			<g>
				<path class="st9" d="M22.35,35.54c0,0-0.01,0.01-0.01,0.01c-0.05,0.04-0.05,0.13,0,0.17c0,0,0.01,0.01,0.01,0.01
					c0.09,0.07,0.24,0.03,0.24-0.1C22.59,35.51,22.44,35.46,22.35,35.54L22.35,35.54z"/>
			</g>
		</g>
		<g>
			<g>
				<path class="st9" d="M14.43,31.97c0,0-0.01,0.01-0.01,0.01c-0.05,0.04-0.05,0.13,0,0.17c0,0,0.01,0.01,0.01,0.01
					c0.09,0.07,0.24,0.03,0.24-0.1C14.66,31.94,14.52,31.9,14.43,31.97L14.43,31.97z"/>
			</g>
		</g>
		<g>
			<g>
				<path class="st9" d="M12.49,36.08c0-0.01-0.01-0.02-0.01-0.02c-0.04-0.11-0.18-0.11-0.22,0c0,0.01-0.01,0.02-0.01,0.02
					C12.18,36.27,12.57,36.27,12.49,36.08L12.49,36.08z"/>
			</g>
		</g>
		<g>
			<g>
				<path class="st9" d="M10.32,37.08c-0.04,0.09-0.04,0.15,0,0.24c0.07,0.14,0.28,0.15,0.38,0.05c0.09-0.09,0.09-0.25,0-0.34
					C10.6,36.93,10.39,36.93,10.32,37.08L10.32,37.08z"/>
			</g>
		</g>
		<g>
			<g>
				<path class="st9" d="M16.87,33.18c-0.04,0.09-0.04,0.15,0,0.24c0.06,0.14,0.28,0.15,0.38,0.05c0.09-0.09,0.09-0.25,0-0.34
					C17.15,33.03,16.93,33.03,16.87,33.18L16.87,33.18z"/>
			</g>
		</g>
		<g>
			<g>
				<path class="st9" d="M26.79,35.1c-0.04,0.09-0.04,0.15,0,0.24c0.06,0.14,0.28,0.15,0.38,0.05c0.09-0.09,0.09-0.25,0-0.34
					C27.07,34.95,26.85,34.96,26.79,35.1L26.79,35.1z"/>
			</g>
		</g>
		<g>
			<g>
				<path class="st9" d="M27.52,37.33c-0.25,0-0.25,0.37,0,0.37C27.77,37.7,27.77,37.33,27.52,37.33L27.52,37.33z"/>
			</g>
		</g>
		<path class="st13" d="M11.2,21.62c-0.32,0.84,0.13,1.87,0.68,2.58c0.55,0.71,1.34,1.2,2.12,1.64c3.53,1.97,7.49,3.19,11.53,3.55
			c1.57,0.14,3.42,0.47,4.97,0.75c1.55,0.27,2.57,0.66,3.71,1.73c0.28,0.27,0.73,0.88,0.83,1.25c0.2,0.77-0.48,1.6-0.98,2.22
			c-1.14,1.41-2.3,2.12-3.81,2.7c0.49-0.85,0.19-1.16-0.63-2.21c-1.06-1.35-3.47-1.92-5.18-2.22c-3.84-0.67-5.84-1.01-9.53-2.26
			c-1.16-0.39-3.13-1.01-4.45-1.69c-1.4-0.71-2.58-1.19-3.62-2.36c-0.56-0.64-0.98-1.57-0.49-2.27c0.17-0.23,0.59-0.96,1.42-1.54
			C9.11,22.57,9.2,22.34,11.2,21.62z"/>
		<g>
			<g>
				<g>
					<path class="st3" d="M18.23,31.07c0,0.01,0.01,0.02,0.02,0.03c0.15,0.25,0.36,0.45,0.62,0.59c0.39,0.21,0.81,0.23,1.23,0.14
						c0.47-0.11,0.8-0.43,1.04-0.81c0.22-0.34,0.24-0.82,0.13-1.2c-0.11-0.39-0.41-0.8-0.79-0.97c-0.26-0.12-0.56-0.24-0.86-0.2
						c-0.3,0.01-0.57,0.08-0.83,0.24c-0.27,0.16-0.45,0.36-0.6,0.63c0.08-0.11,0.17-0.22,0.25-0.33c0,0.01-0.01,0.01-0.01,0.02
						c-0.19,0.2-0.32,0.44-0.39,0.7C17.94,30.28,18.01,30.71,18.23,31.07L18.23,31.07z"/>
				</g>
			</g>
			<g>
				<g>
					<path class="st3" d="M16.15,30.15c0.56-0.33,0.74-1.07,0.4-1.61c-0.34-0.55-1.08-0.73-1.64-0.4c-0.56,0.33-0.74,1.07-0.4,1.61
						C14.85,30.3,15.59,30.48,16.15,30.15L16.15,30.15z"/>
				</g>
			</g>
			<g>
				<g>
					<path class="st3" d="M12.74,27.93c0.78-0.47,0.05-1.66-0.73-1.19C11.23,27.21,11.96,28.4,12.74,27.93L12.74,27.93z"/>
				</g>
			</g>
			<g>
				<g>
					<path class="st3" d="M24.66,32.38c1.27-0.76,0.08-2.71-1.2-1.95C22.19,31.19,23.39,33.14,24.66,32.38L24.66,32.38z"/>
				</g>
			</g>
			<g>
				<g>
					<path class="st3" d="M28.19,32.98c0.75-0.45,0.04-1.6-0.71-1.15C26.73,32.28,27.44,33.43,28.19,32.98L28.19,32.98z"/>
				</g>
			</g>
			<g>
				<g>
					<path class="st2" d="M19.94,30.49c0.15-0.09,0.2-0.29,0.11-0.44c-0.09-0.15-0.3-0.2-0.45-0.11c-0.15,0.09-0.2,0.29-0.11,0.44
						C19.58,30.53,19.78,30.58,19.94,30.49L19.94,30.49z"/>
				</g>
			</g>
			<g>
				<g>
					<path class="st2" d="M15.66,29.25c0.23-0.14,0.01-0.49-0.21-0.35C15.21,29.04,15.43,29.39,15.66,29.25L15.66,29.25z"/>
				</g>
			</g>
			<g>
				<g>
					<path class="st2" d="M24.21,31.46c0.14-0.09,0.01-0.31-0.13-0.22C23.93,31.33,24.07,31.55,24.21,31.46L24.21,31.46z"/>
				</g>
			</g>
			<g>
				<g>
					<path class="st2" d="M13.78,28.37c0.27-0.16,0.02-0.58-0.26-0.42C13.25,28.12,13.51,28.53,13.78,28.37L13.78,28.37z"/>
				</g>
			</g>
			<g>
				<g>
					<path class="st2" d="M17.64,29.74c0.13-0.08,0.17-0.25,0.09-0.38c-0.08-0.13-0.25-0.17-0.38-0.09
						c-0.13,0.08-0.17,0.25-0.09,0.38C17.34,29.77,17.51,29.81,17.64,29.74L17.64,29.74z"/>
				</g>
			</g>
			<g>
				<g>
					<path class="st2" d="M21.76,31.18c0,0.01,0.01,0.01,0.01,0.02c0.07,0.15,0.29,0.18,0.43,0.1c0.19-0.11,0.18-0.34,0.05-0.49
						c-0.01-0.01-0.01-0.01-0.02-0.02c-0.09-0.1-0.26-0.1-0.37-0.04C21.7,30.86,21.68,31.03,21.76,31.18L21.76,31.18z"/>
				</g>
			</g>
			<g>
				<g>
					<path class="st2" d="M26.19,31.71c-0.01,0-0.02-0.01-0.03-0.01c-0.09-0.04-0.18-0.05-0.28,0.01c-0.08,0.05-0.14,0.14-0.13,0.24
						c0,0.21,0.24,0.34,0.42,0.23c0.01-0.01,0.02-0.01,0.03-0.02C26.36,32.07,26.38,31.79,26.19,31.71L26.19,31.71z"/>
				</g>
			</g>
			<g>
				<g>
					<path class="st2" d="M12.44,27.53c0.17-0.1,0.01-0.36-0.16-0.26C12.11,27.37,12.27,27.63,12.44,27.53L12.44,27.53z"/>
				</g>
			</g>
			<g>
				<g>
					<path class="st2" d="M28.01,32.5c0.19-0.11,0.01-0.4-0.18-0.29C27.65,32.33,27.82,32.61,28.01,32.5L28.01,32.5z"/>
				</g>
			</g>
		</g>
	</g>
	<g>
		<g>
			<path class="st14" d="M5.17,12.24c0.05,0,0.09-0.01,0.13-0.04c0.29-0.19,1.05-0.98,1.27-1.2c0.04-0.04,0.08-0.09,0.08-0.15
				c0-0.05-0.04-0.08-0.07-0.12c-0.33-0.32-0.68-0.63-0.99-0.97C5.45,9.62,5.29,9.45,5.19,9.45H5.14c-0.1,0.01-0.26,0.18-0.39,0.32
				c-0.31,0.34-0.66,0.65-0.98,0.97c-0.03,0.03-0.07,0.07-0.08,0.12c-0.01,0.06,0.04,0.11,0.08,0.15c0.22,0.22,0.98,1,1.27,1.2
				C5.08,12.23,5.12,12.24,5.17,12.24L5.17,12.24z"/>
		</g>
	</g>
	<g>
		<g>
			<path class="st14" d="M34.85,50.32c0.05,0,0.09-0.01,0.13-0.04c0.29-0.19,1.05-0.98,1.27-1.2c0.04-0.04,0.08-0.09,0.08-0.15
				c0-0.05-0.04-0.08-0.07-0.12c-0.33-0.32-0.68-0.63-0.98-0.97c-0.13-0.15-0.29-0.31-0.39-0.32h-0.05
				c-0.1,0.01-0.26,0.17-0.39,0.32c-0.31,0.34-0.66,0.65-0.99,0.97c-0.03,0.03-0.07,0.07-0.07,0.12c-0.01,0.06,0.04,0.11,0.08,0.15
				c0.22,0.22,0.97,1,1.27,1.2C34.76,50.31,34.8,50.32,34.85,50.32L34.85,50.32z"/>
		</g>
	</g>
	<g>
		<path class="st14" d="M6.33,2.89v3.85c0,0.67-0.15,1.14-0.46,1.41c-0.31,0.27-0.71,0.4-1.22,0.4c-0.27,0-0.54-0.04-0.82-0.11V7.85
			c0.27,0.06,0.51,0.08,0.73,0.08c0.31,0,0.54-0.05,0.69-0.14C5.4,7.71,5.5,7.59,5.55,7.44C5.6,7.3,5.62,7.06,5.62,6.74V2.89H6.33z"
			/>
	</g>
	<g>
		<path class="st14" d="M33.67,57.11v-3.85c0-0.67,0.15-1.14,0.46-1.41c0.31-0.26,0.71-0.4,1.22-0.4c0.27,0,0.54,0.04,0.82,0.11
			v0.57c-0.27-0.06-0.51-0.08-0.73-0.08c-0.31,0-0.54,0.05-0.69,0.14c-0.15,0.09-0.25,0.21-0.3,0.36c-0.05,0.15-0.08,0.38-0.08,0.71
			v3.85H33.67z"/>
	</g>
	<g>
		<g>
			<g>
				<path class="st14" d="M15.57,56.94H6.05c-1.62,0-2.93-1.38-2.93-3.07V15.09H3.3v38.78c0,1.6,1.23,2.89,2.75,2.89h9.52V56.94z"/>
			</g>
		</g>
		<g>
			<g>
				<rect x="22.06" y="56.76" class="st14" width="9.97" height="0.18"/>
			</g>
		</g>
		<g>
			<g>
				<path class="st14" d="M36.88,45.1H36.7V6.13c0-1.59-1.23-2.89-2.75-2.89h-9.41V3.06h9.41c1.62,0,2.93,1.38,2.93,3.07V45.1z"/>
			</g>
		</g>
		<g>
			<g>
				<rect x="8.25" y="3.06" class="st14" width="9.97" height="0.18"/>
			</g>
		</g>
	</g>
</g>
</svg>
