<?xml version="1.0" encoding="utf-8"?>
<!-- Generator: Adobe Illustrator 26.3.1, SVG Export Plug-In . SVG Version: 6.00 Build 0)  -->
<svg version="1.1" id="Layer_1" xmlns="http://www.w3.org/2000/svg" xmlns:xlink="http://www.w3.org/1999/xlink" x="0px" y="0px"
	 viewBox="0 0 40 60" style="enable-background:new 0 0 40 60;" xml:space="preserve">
<style type="text/css">
	.st0{fill:#FFFFFF;}
	.st1{fill:#2D2D2D;}
	.st2{fill:#141247;}
	.st3{fill:#0C0A35;}
	.st4{fill:#990028;}
	.st5{fill:#191956;}
	.st6{fill:#FCC07E;}
	.st7{fill:#FFD6A1;}
	.st8{fill:#D6002B;}
	.st9{fill:#222272;}
	.st10{clip-path:url(#SVGID_00000129166342238942930330000002288232331988021435_);}
	.st11{fill:#B70027;}
	.st12{clip-path:url(#SVGID_00000061441708159725077500000004688799062158379196_);}
	.st13{clip-path:url(#SVGID_00000026165675609631737050000002677514485369682619_);}
	.st14{clip-path:url(#SVGID_00000040537451477825935160000001422227758239318697_);}
	.st15{fill:#F70032;}
	.st16{clip-path:url(#SVGID_00000085961549125224574530000009757462791077670025_);}
	.st17{clip-path:url(#SVGID_00000159439969231234527910000014137279627639608452_);}
	.st18{clip-path:url(#SVGID_00000102535714503325929030000015002448072773358738_);}
	.st19{clip-path:url(#SVGID_00000114075333087662570290000014854362592946262953_);}
</style>
<g>
	<g>
		<path class="st0" d="M36.4,59.95H3.33c-1.86,0-3.37-1.49-3.37-3.32V3.45c0-1.84,1.51-3.32,3.37-3.32H36.4
			c1.86,0,3.37,1.49,3.37,3.32v53.17C39.78,58.46,38.27,59.95,36.4,59.95z"/>
		<path class="st1" d="M36.41,60.04H3.33c-1.91,0-3.46-1.53-3.46-3.41V3.45c0-1.88,1.55-3.41,3.46-3.41h33.08
			c1.91,0,3.46,1.53,3.46,3.41v53.17C39.87,58.51,38.31,60.04,36.41,60.04z M3.33,0.22c-1.81,0-3.28,1.45-3.28,3.23v53.17
			c0,1.78,1.47,3.23,3.28,3.23h33.08c1.81,0,3.28-1.45,3.28-3.23V3.45c0-1.78-1.47-3.23-3.28-3.23H3.33z"/>
	</g>
	<g>
		<g>
			<path class="st2" d="M27.31,20.99c1.41,0.17,2.86,0.4,4.03,1.04c1.01,0.56,1.74,1.37,2.31,2.23c1.64,2.47,0.98,8.96,0.65,8.97
				c-7.47,0.14-14.94,0.28-22.4,0.42c-1.13,0.02-2.26,0.04-3.37-0.14c-0.14-0.02-0.28-0.05-0.38-0.14
				c-0.09-0.08-0.12-0.19-0.14-0.29c-0.2-0.95-0.41-1.91-0.61-2.86c-0.25-1.16-0.5-2.35-0.23-3.51c0.33-1.44,1.45-2.71,2.87-3.65
				c1.42-0.94,3.14-1.56,4.89-2.03c0.98-0.26,1.99-0.48,3.02-0.58c1.38-0.13,2.77-0.03,4.16,0.07
				C23.85,20.66,25.58,20.79,27.31,20.99z"/>
		</g>
		<g>
			<path class="st2" d="M12.73,39.55c-1.41-0.16-2.86-0.4-4.03-1.04c-1.01-0.56-1.74-1.37-2.31-2.23c-1.64-2.47-0.98-8.96-0.65-8.97
				c7.47-0.14,14.94-0.28,22.4-0.42c1.13-0.02,2.26-0.04,3.37,0.14c0.14,0.02,0.28,0.05,0.38,0.13c0.09,0.08,0.12,0.19,0.14,0.3
				c0.2,0.95,0.41,1.91,0.61,2.86c0.25,1.16,0.49,2.35,0.23,3.5c-0.33,1.44-1.45,2.71-2.87,3.65c-1.42,0.94-3.14,1.55-4.89,2.03
				c-0.98,0.26-1.99,0.49-3.02,0.58c-1.38,0.13-2.77,0.03-4.16-0.07C16.2,39.88,14.46,39.75,12.73,39.55z"/>
		</g>
		<g>
			<path class="st3" d="M9.17,25.11c-0.69,0.07-1.39,0.2-1.99,0.53c-0.79,0.44-1.76,1.33-2.22,2.11c-0.9,1.54-1.07,3.29-0.47,4.96
				c0.41,1.15,1.34,2.06,2.43,2.64c1.08,0.58,2.31,0.84,3.54,0.97c0.32-2.62,0.32-5.28,0.33-7.92c0-0.85,0-1.72-0.31-2.51
				c-0.12-0.31-0.32-0.63-0.64-0.75C9.62,25.07,9.39,25.09,9.17,25.11z"/>
		</g>
		<g>
			<path class="st3" d="M30.87,35.43c0.69-0.07,1.39-0.2,1.99-0.53c0.8-0.44,1.77-1.33,2.22-2.11c0.9-1.54,1.07-3.29,0.47-4.96
				c-0.41-1.15-1.34-2.06-2.42-2.64c-1.08-0.58-2.31-0.84-3.54-0.97c-0.32,2.62-0.32,5.27-0.33,7.92c0,0.85,0,1.72,0.31,2.51
				c0.13,0.31,0.32,0.63,0.64,0.75C30.43,35.47,30.66,35.45,30.87,35.43z"/>
		</g>
		<g>
			<g>
				<path class="st4" d="M32.73,32.29c0.74-1.1,0.56-3.98-0.63-4.76c-0.09-0.06-0.21,0.02-0.21,0.12c-0.01,0.74,0.28,1.49,0.37,2.22
					c0.09,0.78-0.06,1.6,0.11,2.37C32.41,32.41,32.64,32.42,32.73,32.29L32.73,32.29z"/>
			</g>
		</g>
		<g>
			<g>
				<path class="st4" d="M33.91,32.12c0.98-0.15,1-1.64,0.91-2.36c-0.1-0.81-0.45-2.04-1.3-2.37c-0.1-0.04-0.2,0.08-0.17,0.17
					c0.2,0.71,0.55,1.36,0.72,2.09c0.21,0.9-0.01,1.5-0.31,2.32C33.72,32.06,33.82,32.13,33.91,32.12L33.91,32.12z"/>
			</g>
		</g>
		<g>
			<path class="st5" d="M7.89,27.64c0.44-0.11,0.84-0.32,1.28-0.44c0.44-0.12,0.96-0.16,1.34,0.04c0.38,0.2,0.54,0.57,0.76,0.88
				c0.46,0.66,1.36,1.14,2.31,1.13c1.07-0.01,2.11-0.61,3.13-0.37c0.81,0.19,1.31,0.86,2.1,1.12c1.29,0.41,2.67-0.43,4.06-0.46
				c0.79-0.01,1.55,0.25,2.31,0.42c0.77,0.17,1.58,0.27,2.39,0.27c0.61,0,1.24-0.05,1.74-0.33c0.44-0.24,0.74-0.63,1.22-0.81
				c0.51-0.18,1.1-0.09,1.63,0.04c0.53,0.13,1.07,0.31,1.62,0.28c0.56-0.03,1.87-0.53,1.88-0.97c0.03-1.22-0.36-2.52-1.13-3.53
				c-1.25-1.63-2.81-2.69-3.4-2.97c-1.96-0.92-3.93-1.23-6.21-1.36c-1.04-0.06-2.08,0-3.12,0c-1.88,0.01-3.79-0.24-5.64,0.09
				c-4.95,0.88-6.39,0.49-8.54,3c-1.21,1.41-1.31,3.08-1.04,3.5C7.02,27.83,7.62,27.72,7.89,27.64z"/>
		</g>
		<g>
			<path class="st3" d="M22.02,1.23c0.02-0.08,0.06-0.17,0.14-0.17c0.06,0,0.11,0.06,0.14,0.11c0.26,0.44,0.46,0.91,0.62,1.39
				c-0.34,0-0.68-0.02-1.03-0.05c-0.05-0.01-0.12-0.02-0.14-0.07c-0.01-0.03-0.01-0.06,0-0.09C21.83,1.98,21.91,1.6,22.02,1.23z"/>
		</g>
		<g>
			<path class="st6" d="M24.9,18.8c-0.02-0.33-0.12-0.66-0.2-0.99c-0.36-1.42-0.46-2.91-0.27-4.36c-1.78,0.2-3.47,1.09-4.61,2.45
				c-0.3,0.36-0.62,0.77-1.08,0.84c0.1,0.9,0.03,1.81-0.23,2.68c2.07,0.07,4.14-0.05,6.19-0.37c0.07-0.01,0.14-0.03,0.18-0.08
				C24.91,18.92,24.91,18.86,24.9,18.8z"/>
		</g>
		<g>
			<path class="st3" d="M24.99,18.22c-0.05-0.13-0.21-0.19-0.35-0.16c-0.69,0.16-1.18,0.23-3.18,0.34
				c-2.04,0.11-2.72-0.06-2.87,0.17c-1.72,2.56-2.87,3.26-4.08,4.08c-0.1,0.06-0.07,0.21,0.04,0.24c0.58,0.17,1.45,0.14,1.84,0.08
				c1.78-0.25,2.24-0.88,3.24-1.91c0.32,1.69,1.1,2.59,1.9,2.96c0.55-0.56,1.23-1.61,1.41-2.85c0.1,0.22,0.41,0.63,0.57,0.8
				c0.92,0.98,2.48,1.47,4.07,1.54c0.04,0,0.07-0.02,0.08-0.06c0.06-0.33-0.79-1.14-1.31-2.06C25.52,19.95,25.57,19.84,24.99,18.22z
				"/>
		</g>
		<g>
			<path class="st7" d="M16.61,13.55c-0.06,0.57-0.15,1.14-0.14,1.71c0.01,0.57,0.14,1.16,0.47,1.63c0.4,0.57,1.08,0.93,1.78,0.94
				c0.7,0.01,1.47-0.22,2.08-0.55c0.69-0.37,1.43-0.84,1.98-1.4c0.66-0.67,0.91-1.56,1.26-2.42c0.79-1.94,1.28-4.1,0.76-6.13
				c-0.02-0.08-0.04-0.15-0.1-0.21c-0.06-0.07-0.16-0.09-0.25-0.11c-2.18-0.48-4.5,0.02-6.69-0.45c-0.41,1.15-0.01,2.5-0.57,3.58
				c-0.31,0.6-0.86,1.03-1.35,1.49c-0.25,0.23-0.5,0.58-0.33,0.87c0.21,0.36,0.87,0.24,1.06,0.62
				C16.64,13.24,16.63,13.4,16.61,13.55z"/>
		</g>
		<g>
			<path class="st3" d="M21.86,17.07c-0.73-0.14-1.91-0.62-2.59-1.65c-0.41-0.62-0.61-1.37-0.81-2.08
				c-0.05-0.19-0.09-0.37-0.15-0.53c-0.04-0.11-0.23-0.12-0.35-0.1c-0.81,0.11-0.89,0.14-1.58,0.23c-0.03,1.11-0.4,2.28-1.3,2.95
				c-0.62,0.47-1.25,0.94-1.99,1.19c0.88-0.23,1.89-0.4,2.64-0.91c0.74-0.51,1.2-1.29,1.5-2.13c0.34,0.75,0.83,1.44,1.43,2.02
				c0.14,0.13,0.28,0.26,0.44,0.35c0.17,0.1,0.48,0.26,0.66,0.33C20.65,17.1,21.4,17.04,21.86,17.07z"/>
		</g>
		<g>
			<path class="st3" d="M17.02,17c0.49,0.63,1.24,0.66,1.8,0.64c-0.26,0.54-0.54,1.09-0.99,1.49c-0.38,0.35-0.88,0.57-1.4,0.64
				C16.68,18.85,16.99,17.93,17.02,17z"/>
		</g>
		<g>
			<path class="st2" d="M27.03,17.51c0.63,0.19,1.27,0.36,1.92,0.31c-0.48-1.27-0.65-1.88-0.86-3.22c-0.05-0.33-0.28-2.13-0.3-2.46
				c-0.11-1.8-0.1-2.84,0.03-4.64c0-0.05,0.01-0.1-0.02-0.14c-0.04-0.06-0.12-0.07-0.19-0.08c-1.36-0.12-2.73,0.35-4.09,0.22
				c-0.27,1.85-0.53,3.73-0.28,5.59c0.08,0.63,0.21,1.29,0.56,1.82C25.13,16.94,26.13,17.25,27.03,17.51z"/>
		</g>
		<g>
			<path class="st3" d="M22.89,8.77c0,0.04,0.07,0.48-0.03,0.46c-0.34-0.07-0.66-0.06-0.85-0.07c-1.64-0.08-2.1-0.1-3.32,0.11
				c-0.03-0.2-0.04-0.4-0.03-0.6c1.36,0.08,2.73,0.08,4.1,0.02c0.04,0,0.08,0,0.1,0.03C22.88,8.73,22.89,8.75,22.89,8.77z"/>
		</g>
		<g>
			<path class="st8" d="M22.61,13.25c0.11-0.17,0.12-0.39,0.04-0.57c-0.04-0.09-0.11-0.17-0.19-0.24c-0.23-0.18-0.6-0.16-0.81,0.04
				c-0.25,0.24-0.23,0.7,0.04,0.92C21.97,13.62,22.43,13.54,22.61,13.25z"/>
		</g>
		<g>
			<path class="st9" d="M17.46,4.98c0-0.17,0.06-0.33,0.13-0.49c0.45-0.98,1.35-1.73,2.37-2.13c1.02-0.39,2.15-0.44,3.23-0.27
				c0.47,0.08,0.94,0.2,1.35,0.43c0.34,0.19,0.63,0.45,0.92,0.71c0.59,0.55,1.2,1.19,1.28,1.98c-3.03,0.3-6.11,0.59-9.09-0.01
				c-0.06-0.01-0.11-0.02-0.15-0.07C17.47,5.1,17.46,5.04,17.46,4.98z"/>
		</g>
		<g>
			<defs>
				<path id="SVGID_1_" d="M21.86,17.07c-0.73-0.14-1.91-0.62-2.59-1.65c-0.41-0.62-0.61-1.37-0.81-2.08
					c-0.05-0.19-0.09-0.37-0.15-0.53c-0.04-0.11-0.23-0.12-0.35-0.1c-0.81,0.11-0.89,0.14-1.58,0.23c-0.03,1.11-0.4,2.28-1.3,2.95
					c-0.62,0.47-1.25,0.94-1.99,1.19c0.88-0.23,1.89-0.4,2.64-0.91c0.74-0.51,1.2-1.29,1.5-2.13c0.34,0.75,0.83,1.44,1.43,2.02
					c0.14,0.13,0.28,0.26,0.44,0.35c0.17,0.1,0.48,0.26,0.66,0.33C20.65,17.1,21.4,17.04,21.86,17.07z"/>
			</defs>
			<clipPath id="SVGID_00000049909054158066338590000015880485124221451151_">
				<use xlink:href="#SVGID_1_"  style="overflow:visible;"/>
			</clipPath>
			<g style="clip-path:url(#SVGID_00000049909054158066338590000015880485124221451151_);">
				<g>
					<path class="st11" d="M16.95,12.52c-0.06,0.78-0.16,1.48-0.38,2.23c-0.27,0.91-0.89,1.48-1.42,2.21
						c-0.04,0.06,0.05,0.11,0.1,0.07c1.25-1.1,2.07-2.88,1.83-4.53C17.06,12.44,16.96,12.46,16.95,12.52L16.95,12.52z"/>
				</g>
			</g>
			<g style="clip-path:url(#SVGID_00000049909054158066338590000015880485124221451151_);">
				<g>
					<path class="st11" d="M17.65,12.08c-0.5,1.57,0.04,3.8,1.57,4.63c0.05,0.03,0.57,0.16,0.52,0.13
						c-0.64-0.43-1.52-1.38-1.77-2.17c-0.26-0.82-0.28-1.73-0.18-2.57C17.8,12.02,17.67,12.01,17.65,12.08L17.65,12.08z"/>
				</g>
			</g>
			<g style="clip-path:url(#SVGID_00000049909054158066338590000015880485124221451151_);">
				<g>
					<path class="st11" d="M12.88,17.08c2.18-0.05,4.19-2.62,3.56-4.69c-0.02-0.07-0.13-0.07-0.14,0c-0.09,0.41-0.02,0.79-0.1,1.21
						c-0.11,0.53-0.3,1.07-0.54,1.55c-0.52,1.05-1.84,1.38-2.78,1.87C12.83,17.03,12.85,17.08,12.88,17.08L12.88,17.08z"/>
				</g>
			</g>
			<g style="clip-path:url(#SVGID_00000049909054158066338590000015880485124221451151_);">
				<g>
					<path class="st11" d="M18.11,12.11c-0.2,1.21,0.18,2.67,0.98,3.63c0.78,0.94,1.94,2.09,3.33,1.76c0.09-0.02,0.11-0.16,0.03-0.2
						c-0.43-0.22-0.9-0.3-1.34-0.5c-0.57-0.26-1.07-0.88-1.48-1.34c-0.86-0.95-1.15-2.15-1.42-3.35
						C18.2,12.06,18.12,12.06,18.11,12.11L18.11,12.11z"/>
				</g>
			</g>
		</g>
		<g>
			<defs>
				<path id="SVGID_00000020394741548922928020000016689600584131882662_" d="M17.02,17c0.49,0.63,1.24,0.66,1.8,0.64
					c-0.26,0.54-0.54,1.09-0.99,1.49c-0.38,0.35-0.88,0.57-1.4,0.64C16.68,18.85,16.99,17.93,17.02,17z"/>
			</defs>
			<clipPath id="SVGID_00000030447487269277251640000010210130632818695591_">
				<use xlink:href="#SVGID_00000020394741548922928020000016689600584131882662_"  style="overflow:visible;"/>
			</clipPath>
			<g style="clip-path:url(#SVGID_00000030447487269277251640000010210130632818695591_);">
				<g>
					<path class="st11" d="M16.19,20.12c0.9-0.92,1.05-2.14,1.34-3.34c0.01-0.05-0.06-0.07-0.08-0.02
						c-0.23,0.57-0.29,1.18-0.47,1.77C16.81,19.07,16.49,19.65,16.19,20.12C16.18,20.12,16.18,20.12,16.19,20.12L16.19,20.12z"/>
				</g>
			</g>
			<g style="clip-path:url(#SVGID_00000030447487269277251640000010210130632818695591_);">
				<g>
					<path class="st11" d="M16.69,20.07c0.4-0.26,0.57-0.77,0.76-1.18c0.29-0.64,0.38-1.31,0.49-2c0.01-0.07-0.09-0.09-0.12-0.03
						c-0.25,0.57-0.22,1.21-0.46,1.78c-0.2,0.49-0.5,0.92-0.71,1.4C16.64,20.06,16.67,20.08,16.69,20.07L16.69,20.07z"/>
				</g>
			</g>
			<g style="clip-path:url(#SVGID_00000030447487269277251640000010210130632818695591_);">
				<g>
					<path class="st11" d="M17.6,19.8c0.48-0.83,0.93-1.86,0.87-2.84c0-0.07-0.12-0.09-0.14-0.02c-0.16,0.46-0.21,0.97-0.34,1.44
						c-0.13,0.48-0.38,0.9-0.47,1.39C17.5,19.83,17.57,19.84,17.6,19.8L17.6,19.8z"/>
				</g>
			</g>
		</g>
		<g>
			<defs>
				<path id="SVGID_00000039125381579784378590000010825475763139419575_" d="M27.03,17.51c0.63,0.19,1.27,0.36,1.92,0.31
					c-0.48-1.27-0.65-1.88-0.86-3.22c-0.05-0.33-0.28-2.13-0.3-2.46c-0.11-1.8-0.1-2.84,0.03-4.64c0-0.05,0.01-0.1-0.02-0.14
					c-0.04-0.06-0.12-0.07-0.19-0.08c-1.36-0.12-2.73,0.35-4.09,0.22c-0.27,1.85-0.53,3.73-0.28,5.59c0.08,0.63,0.21,1.29,0.56,1.82
					C25.13,16.94,26.13,17.25,27.03,17.51z"/>
			</defs>
			<clipPath id="SVGID_00000031185678141584500920000016004560989121081496_">
				<use xlink:href="#SVGID_00000039125381579784378590000010825475763139419575_"  style="overflow:visible;"/>
			</clipPath>
			<g style="clip-path:url(#SVGID_00000031185678141584500920000016004560989121081496_);">
				<g>
					<path class="st11" d="M24.31,16.66c-0.32-1.5-0.22-3.02-0.27-4.54c-0.06-1.72,0.36-3.33,0.52-5.02
						c0.01-0.07-0.11-0.11-0.15-0.04c-0.69,1.49-0.68,3.45-0.64,5.06c0.04,1.49-0.15,3.16,0.5,4.55
						C24.3,16.69,24.32,16.68,24.31,16.66L24.31,16.66z"/>
				</g>
			</g>
			<g style="clip-path:url(#SVGID_00000031185678141584500920000016004560989121081496_);">
				<g>
					<path class="st11" d="M25.13,17.13c-0.39-1.83-0.34-3.7-0.2-5.55c0.12-1.51,0.17-2.93,0.69-4.36c0.03-0.08-0.08-0.14-0.13-0.08
						c-0.91,0.99-0.7,2.87-0.8,4.1c-0.16,1.91-0.23,4.06,0.41,5.89C25.1,17.16,25.13,17.15,25.13,17.13L25.13,17.13z"/>
				</g>
			</g>
			<g style="clip-path:url(#SVGID_00000031185678141584500920000016004560989121081496_);">
				<g>
					<path class="st11" d="M25.87,17.66c-0.4-3.35-0.29-6.93,0.47-10.2c0.02-0.09-0.1-0.14-0.15-0.06
						c-0.81,1.38-0.63,3.19-0.72,4.71c-0.11,1.8-0.29,3.83,0.33,5.56C25.81,17.7,25.87,17.7,25.87,17.66L25.87,17.66z"/>
				</g>
			</g>
			<g style="clip-path:url(#SVGID_00000031185678141584500920000016004560989121081496_);">
				<g>
					<path class="st11" d="M27.3,18.16c-0.17-0.9-0.43-1.77-0.5-2.69c-0.07-0.91-0.1-1.83-0.12-2.74c-0.03-1.63-0.1-3.32,0.31-4.91
						c0.02-0.07-0.08-0.11-0.12-0.05c-0.71,1.36-0.47,3.13-0.47,4.61c0,2.01,0.13,3.9,0.82,5.79C27.24,18.23,27.31,18.21,27.3,18.16
						L27.3,18.16z"/>
				</g>
			</g>
			<g style="clip-path:url(#SVGID_00000031185678141584500920000016004560989121081496_);">
				<g>
					<path class="st11" d="M28.34,18.4c-0.35-1.58-0.49-3.19-0.74-4.79c-0.16-1.01-0.25-2.04-0.26-3.06
						c-0.01-0.97,0.23-1.91,0.14-2.87c-0.01-0.07-0.12-0.1-0.13-0.02c-0.25,1.79-0.32,3.55-0.07,5.34c0.24,1.77,0.31,3.77,1.03,5.43
						C28.3,18.45,28.34,18.43,28.34,18.4L28.34,18.4z"/>
				</g>
			</g>
		</g>
		<g>
			<path class="st3" d="M29.46,4.83c-0.82,0.96-1.4,2.12-1.66,3.35C26.54,8.31,25.27,8.3,24,8.29c-0.52,0-1.04-0.04-1.56-0.04
				c-1.72-0.02-2.39-0.14-4.72-0.11c-0.26,0-0.52-0.16-0.66-0.38c-0.75-1.14-1.19-2.11-1.89-2.89c-0.04-0.04-0.1-0.1-0.06-0.14
				c0.03-0.04,0.09-0.06,0.15-0.07c1.54-0.38,3.14-0.41,4.73-0.41c3.03,0,6.07,0.09,9.1,0.28c0.1,0.01,0.21,0.02,0.3,0.07
				C29.47,4.65,29.52,4.76,29.46,4.83z"/>
		</g>
		<g>
			<defs>
				<path id="SVGID_00000119109115359365272780000004756175675725553298_" d="M29.46,4.83c-0.82,0.96-1.4,2.12-1.66,3.35
					C26.54,8.31,25.27,8.3,24,8.29c-0.52,0-1.04-0.04-1.56-0.04c-1.72-0.02-2.66,0.1-4.72-0.11c-0.26-0.02-0.48-0.2-0.66-0.38
					c-0.08-0.08-0.13-0.18-0.18-0.28c-0.44-0.94-1.01-1.83-1.71-2.61c-0.04-0.04-0.1-0.1-0.06-0.14c0.03-0.04,0.09-0.06,0.15-0.07
					c1.54-0.38,3.14-0.41,4.73-0.41c3.03,0,6.07,0.09,9.1,0.28c0.1,0.01,0.21,0.02,0.3,0.07C29.47,4.65,29.52,4.76,29.46,4.83z"/>
			</defs>
			<clipPath id="SVGID_00000026876357051755274550000005837839260213442712_">
				<use xlink:href="#SVGID_00000119109115359365272780000004756175675725553298_"  style="overflow:visible;"/>
			</clipPath>
			<g style="clip-path:url(#SVGID_00000026876357051755274550000005837839260213442712_);">
				<path class="st4" d="M16.26,5.13c0.21,0.1,0.41,0.19,0.62,0.28c0.13,0.06,0.26,0.12,0.39,0.12c0.04,0,0.08,0,0.12-0.03
					c0.03-0.02,1.04-1.32,1.06-1.48c-0.93,0.03-1.88,0.09-2.72,0.47c-0.04,0.02-0.07,0.03-0.09,0.07c-0.02,0.04,0,0.08,0.02,0.12
					C15.78,4.9,16.03,5.02,16.26,5.13z"/>
			</g>
			<g style="clip-path:url(#SVGID_00000026876357051755274550000005837839260213442712_);">
				<path class="st4" d="M20.92,5.3c0.49-0.43,0.77-0.79,1.25-1.24c-0.87-0.05-1.73-0.1-2.6-0.15c-0.22-0.01-0.46-0.02-0.63,0.12
					c0.6,0.37,0.99,1.01,1.61,1.35C20.57,5.39,20.66,5.52,20.92,5.3z"/>
			</g>
			<g style="clip-path:url(#SVGID_00000026876357051755274550000005837839260213442712_);">
				<path class="st4" d="M22.62,4.22c0.15,0.24,0.3,0.47,0.44,0.71c0.09,0.14,0.17,0.27,0.28,0.4c0.11,0.13,0.24,0.25,0.39,0.35
					c0.09,0.06,0.21,0.02,0.27-0.07c0.42-0.57,0.67-0.77,1.05-1.15c0.13-0.13,0.17-0.13,0.24-0.3c-0.39-0.02-0.79-0.05-1.18-0.07
					c-0.52-0.03-1.05-0.06-1.56,0.06C22.56,4.19,22.59,4.22,22.62,4.22z"/>
			</g>
			<g style="clip-path:url(#SVGID_00000026876357051755274550000005837839260213442712_);">
				<path class="st4" d="M26.05,4c-0.13,0.1-0.06,0.3,0.03,0.45c0.34,0.56,0.69,1.13,1.16,1.59c0.08,0.08,0.23,0.07,0.29-0.03
					c0.17-0.28,1.18-1.35,1.36-1.71c-0.86-0.02-1.71-0.13-2.55-0.32C26.24,3.96,26.13,3.94,26.05,4z"/>
			</g>
		</g>
		<g>
			<g>
				<path class="st3" d="M18.53,3.95c0.22,0,0.22-0.34,0-0.34C18.31,3.61,18.31,3.95,18.53,3.95L18.53,3.95z"/>
			</g>
		</g>
		<g>
			<g>
				<path class="st3" d="M19.2,3.29c0.14,0,0.14-0.22,0-0.22C19.06,3.07,19.06,3.29,19.2,3.29L19.2,3.29z"/>
			</g>
		</g>
		<g>
			<g>
				<path class="st3" d="M19.78,3.96c0.17,0,0.17-0.26,0-0.26C19.61,3.7,19.61,3.96,19.78,3.96L19.78,3.96z"/>
			</g>
		</g>
		<g>
			<g>
				<path class="st3" d="M20.37,3.14c0.21,0,0.21-0.32,0-0.32S20.15,3.14,20.37,3.14L20.37,3.14z"/>
			</g>
		</g>
		<g>
			<g>
				<path class="st3" d="M19.79,2.76c0.16,0,0.16-0.25,0-0.25C19.63,2.51,19.63,2.76,19.79,2.76L19.79,2.76z"/>
			</g>
		</g>
		<g>
			<g>
				<path class="st3" d="M21.05,2.48c0.18,0,0.18-0.28,0-0.28C20.87,2.19,20.87,2.48,21.05,2.48L21.05,2.48z"/>
			</g>
		</g>
		<g>
			<g>
				<path class="st3" d="M21.35,3.38c0.14,0,0.14-0.21,0-0.21C21.21,3.17,21.21,3.38,21.35,3.38L21.35,3.38z"/>
			</g>
		</g>
		<g>
			<g>
				<path class="st3" d="M20.86,4.08c0.24,0,0.24-0.36,0-0.36C20.62,3.72,20.62,4.08,20.86,4.08L20.86,4.08z"/>
			</g>
		</g>
		<g>
			<g>
				<path class="st3" d="M22.04,4.12c0.24,0,0.24-0.36,0-0.36C21.8,3.75,21.8,4.12,22.04,4.12L22.04,4.12z"/>
			</g>
		</g>
		<g>
			<g>
				<path class="st3" d="M21.94,2.8c0.15,0,0.15-0.24,0-0.24C21.79,2.56,21.79,2.8,21.94,2.8L21.94,2.8z"/>
			</g>
		</g>
		<g>
			<g>
				<path class="st3" d="M22.66,2.4c0.17,0,0.17-0.26,0-0.26C22.49,2.14,22.49,2.4,22.66,2.4L22.66,2.4z"/>
			</g>
		</g>
		<g>
			<g>
				<path class="st3" d="M22.87,3.21c0.01,0,0.01,0,0.02,0.01c0.2,0.06,0.2-0.29,0-0.23c0,0-0.01,0-0.02,0
					C22.76,3.02,22.76,3.18,22.87,3.21L22.87,3.21z"/>
			</g>
		</g>
		<g>
			<g>
				<path class="st3" d="M23.34,4.12c0.21,0,0.21-0.33,0-0.33C23.13,3.79,23.13,4.12,23.34,4.12L23.34,4.12z"/>
			</g>
		</g>
		<g>
			<g>
				<path class="st3" d="M23.73,2.71c0.19,0,0.19-0.28,0-0.28C23.54,2.43,23.54,2.71,23.73,2.71L23.73,2.71z"/>
			</g>
		</g>
		<g>
			<g>
				<path class="st3" d="M24.16,3.5c0.21,0,0.21-0.33,0-0.33C23.95,3.18,23.95,3.5,24.16,3.5L24.16,3.5z"/>
			</g>
		</g>
		<g>
			<g>
				<path class="st3" d="M24.97,3.22c0.16,0,0.16-0.24,0-0.24C24.81,2.98,24.81,3.22,24.97,3.22L24.97,3.22z"/>
			</g>
		</g>
		<g>
			<g>
				<path class="st3" d="M24.73,4.16c0.19,0,0.19-0.29,0-0.29C24.54,3.87,24.54,4.16,24.73,4.16L24.73,4.16z"/>
			</g>
		</g>
		<g>
			<g>
				<path class="st3" d="M25.57,3.98c0.22,0,0.22-0.34,0-0.34C25.35,3.64,25.35,3.98,25.57,3.98L25.57,3.98z"/>
			</g>
		</g>
		<g>
			<g>
				<path class="st15" d="M18.63,4.62c-0.1,0.56-0.16,1.26,0.02,1.81c0.12,0.38,0.71,0.32,0.71-0.09c0-0.62-0.16-1.14-0.35-1.72
					C18.95,4.45,18.67,4.42,18.63,4.62L18.63,4.62z"/>
			</g>
		</g>
		<g>
			<g>
				<path class="st15" d="M15.69,5.23c-0.04,0.23,0.06,0.45,0.19,0.64c0.16,0.23,0.28,0.53,0.5,0.71c0.24,0.2,0.6-0.05,0.45-0.34
					c-0.11-0.21-0.29-0.42-0.45-0.59C16.21,5.48,16,5.36,15.85,5.19C15.8,5.13,15.7,5.16,15.69,5.23L15.69,5.23z"/>
			</g>
		</g>
		<g>
			<g>
				<path class="st15" d="M22.07,4.8c-0.11,0.31-0.24,0.61-0.29,0.94c-0.03,0.2-0.02,0.41-0.07,0.61c-0.13,0.51,0.7,0.72,0.79,0.21
					c0.1-0.56,0.01-1.22-0.12-1.76C22.35,4.64,22.12,4.67,22.07,4.8L22.07,4.8z"/>
			</g>
		</g>
		<g>
			<g>
				<path class="st15" d="M25.43,4.94c-0.19,0.25-0.3,0.58-0.35,0.88c-0.04,0.26-0.15,0.62,0,0.85c0.09,0.14,0.26,0.22,0.42,0.17
					c0.01-0.01,0.03-0.01,0.04-0.01c0.13-0.04,0.28-0.15,0.3-0.3c0.05-0.27,0.02-0.52,0.01-0.79c-0.02-0.28,0.01-0.57-0.16-0.81
					C25.62,4.85,25.5,4.85,25.43,4.94L25.43,4.94z"/>
			</g>
		</g>
		<g>
			<g>
				<path class="st15" d="M28.75,5.26c-0.26,0.12-0.43,0.38-0.58,0.61C28,6.12,27.78,6.38,27.79,6.69c0.01,0.26,0.41,0.41,0.54,0.14
					c0.22-0.46,0.54-0.92,0.63-1.42C28.98,5.29,28.87,5.21,28.75,5.26L28.75,5.26z"/>
			</g>
		</g>
		<g>
			<g>
				<path class="st15" d="M19.09,7.1c0.19,0,0.19-0.3,0-0.3C18.9,6.8,18.9,7.1,19.09,7.1L19.09,7.1z"/>
			</g>
		</g>
		<g>
			<g>
				<path class="st15" d="M16.87,7.04c0.19,0,0.19-0.3,0-0.3C16.68,6.74,16.68,7.04,16.87,7.04L16.87,7.04z"/>
			</g>
		</g>
		<g>
			<g>
				<path class="st15" d="M22.05,7.24c0.18,0,0.18-0.27,0-0.27C21.88,6.97,21.88,7.24,22.05,7.24L22.05,7.24z"/>
			</g>
		</g>
		<g>
			<g>
				<path class="st15" d="M25.37,7.13c-0.01,0-0.01,0.01-0.02,0.01c-0.04,0.04-0.04,0.11,0,0.14c0,0.01,0.01,0.01,0.02,0.02
					c0.08,0.07,0.21,0.03,0.21-0.09C25.59,7.1,25.45,7.06,25.37,7.13L25.37,7.13z"/>
			</g>
		</g>
		<g>
			<g>
				<path class="st15" d="M27.95,7.43c0.22,0,0.22-0.34,0-0.34C27.73,7.09,27.73,7.43,27.95,7.43L27.95,7.43z"/>
			</g>
		</g>
		<g>
			<g>
				<path class="st3" d="M18.92,5.91c0.28,0,0.28-0.43,0-0.43C18.64,5.48,18.64,5.91,18.92,5.91L18.92,5.91z"/>
			</g>
		</g>
		<g>
			<g>
				<path class="st3" d="M16.32,5.99c-0.02,0-0.03,0-0.05,0c0,0,0,0,0,0C16.29,5.99,16.3,5.99,16.32,5.99
					C16.32,5.99,16.32,5.99,16.32,5.99L16.32,5.99z"/>
			</g>
		</g>
		<g>
			<g>
				<path class="st3" d="M16.25,6.15c0.22,0,0.22-0.34,0-0.34C16.03,5.81,16.03,6.15,16.25,6.15L16.25,6.15z"/>
			</g>
		</g>
		<g>
			<g>
				<path class="st3" d="M22.12,6.05c0.28,0,0.28-0.42,0-0.42S21.84,6.05,22.12,6.05L22.12,6.05z"/>
			</g>
		</g>
		<g>
			<g>
				<path class="st3" d="M25.45,6.14c0.3,0,0.3-0.45,0-0.45C25.15,5.69,25.15,6.14,25.45,6.14L25.45,6.14z"/>
			</g>
		</g>
		<g>
			<g>
				<path class="st3" d="M28.35,6.43c0.31,0,0.31-0.47,0-0.47C28.03,5.96,28.03,6.43,28.35,6.43L28.35,6.43z"/>
			</g>
		</g>
		<g>
			<g>
				<path class="st3" d="M22.07,6.38c0.12,0,0.12-0.18,0-0.18C21.95,6.2,21.95,6.38,22.07,6.38L22.07,6.38z"/>
			</g>
		</g>
		<g>
			<g>
				<path class="st3" d="M18.96,6.22c0.14,0,0.14-0.21,0-0.21C18.82,6.01,18.82,6.22,18.96,6.22L18.96,6.22z"/>
			</g>
		</g>
		<g>
			<g>
				<path class="st3" d="M16.45,6.19c0,0-0.01,0-0.01,0c-0.15-0.04-0.09,0.24,0.03,0.13c0,0,0.01-0.01,0.01-0.01
					C16.52,6.27,16.5,6.21,16.45,6.19L16.45,6.19z"/>
			</g>
		</g>
		<g>
			<g>
				<path class="st3" d="M16.05,5.8c0.12,0,0.12-0.18,0-0.18C15.93,5.62,15.93,5.8,16.05,5.8L16.05,5.8z"/>
			</g>
		</g>
		<g>
			<g>
				<path class="st3" d="M18.87,5.39c0.15,0,0.15-0.24,0-0.24C18.71,5.15,18.71,5.39,18.87,5.39L18.87,5.39z"/>
			</g>
		</g>
		<g>
			<g>
				<path class="st3" d="M22.2,5.55c0.19,0,0.19-0.28,0-0.28C22.01,5.27,22.01,5.55,22.2,5.55L22.2,5.55z"/>
			</g>
		</g>
		<g>
			<g>
				<path class="st3" d="M25.42,6.46c0.14,0,0.14-0.22,0-0.22C25.28,6.25,25.28,6.46,25.42,6.46L25.42,6.46z"/>
			</g>
		</g>
		<g>
			<g>
				<path class="st3" d="M25.45,5.57c0.13,0,0.13-0.2,0-0.2C25.32,5.37,25.32,5.57,25.45,5.57L25.45,5.57z"/>
			</g>
		</g>
		<g>
			<g>
				<path class="st3" d="M28.28,6.52c-0.07-0.14-0.29-0.02-0.21,0.12C28.15,6.77,28.34,6.65,28.28,6.52L28.28,6.52z"/>
			</g>
		</g>
		<g>
			<g>
				<path class="st3" d="M28.54,5.96c0.12,0,0.12-0.19,0-0.19C28.41,5.77,28.41,5.96,28.54,5.96L28.54,5.96z"/>
			</g>
		</g>
		<g>
			<g>
				<path class="st3" d="M19.74,9.72c0.03,0.08,0.06,0.16,0.16,0.17c0.02,0,0.04-0.02,0.05-0.04c0.03-0.07-0.01-0.11-0.03-0.18
					C19.88,9.56,19.7,9.61,19.74,9.72L19.74,9.72z"/>
			</g>
		</g>
		<g>
			<g>
				<path class="st3" d="M21.02,9.39c-0.05,0.1-0.08,0.24,0.02,0.33c0.05,0.04,0.14,0.05,0.17-0.02c0.04-0.1,0.02-0.19-0.01-0.28
					C21.17,9.34,21.06,9.32,21.02,9.39L21.02,9.39z"/>
			</g>
		</g>
		<g>
			<g>
				<path class="st3" d="M22.21,9.58c-0.02,0.05-0.05,0.11-0.08,0.16c-0.06,0.11,0.12,0.21,0.17,0.1c0.03-0.07,0.06-0.14,0.08-0.21
					C22.41,9.52,22.25,9.48,22.21,9.58L22.21,9.58z"/>
			</g>
		</g>
		<g>
			<g>
				<path class="st3" d="M19.96,11.1c0.08-0.03,0.19-0.11,0.18-0.2c0-0.02-0.01-0.03-0.03-0.04c-0.11-0.04-0.2,0.11-0.19,0.2
					C19.92,11.08,19.94,11.11,19.96,11.1L19.96,11.1z"/>
			</g>
		</g>
		<g>
			<g>
				<path class="st3" d="M21.08,10.83c-0.1,0.08-0.1,0.28-0.07,0.4c0.03,0.11,0.2,0.11,0.23,0c0.03-0.11,0.03-0.31-0.07-0.4
					C21.14,10.8,21.11,10.8,21.08,10.83L21.08,10.83z"/>
			</g>
		</g>
		<g>
			<g>
				<path class="st3" d="M22.09,10.69c0,0.11,0.03,0.21,0.12,0.28c0.03,0.03,0.08,0.04,0.11,0.02c0.01,0,0.01-0.01,0.02-0.02
					c0.03-0.03,0.04-0.07,0.01-0.11c-0.04-0.07-0.11-0.12-0.15-0.19C22.17,10.61,22.09,10.63,22.09,10.69L22.09,10.69z"/>
			</g>
		</g>
		<g>
			<g>
				<path class="st3" d="M20.43,9.49c-0.11,0.06-0.08,0.22-0.04,0.32c0.05,0.12,0.25,0.07,0.21-0.06c-0.03-0.09-0.03-0.21-0.11-0.26
					C20.46,9.48,20.44,9.49,20.43,9.49L20.43,9.49z"/>
			</g>
		</g>
		<g>
			<g>
				<path class="st3" d="M21.72,9.47c-0.03,0.07-0.17,0.4,0.01,0.39c0.09,0,0.11-0.12,0.12-0.19c0.02-0.09-0.01-0.17-0.09-0.21
					C21.75,9.46,21.73,9.46,21.72,9.47L21.72,9.47z"/>
			</g>
		</g>
		<g>
			<g>
				<path class="st3" d="M20.45,11.26c0.16,0,0.26-0.22,0.26-0.36c0-0.08-0.1-0.13-0.17-0.09c-0.11,0.06-0.19,0.25-0.17,0.38
					C20.38,11.22,20.41,11.26,20.45,11.26L20.45,11.26z"/>
			</g>
		</g>
		<g>
			<g>
				<path class="st3" d="M21.58,10.85c-0.07,0.13-0.06,0.36,0.1,0.42c0.07,0.03,0.14,0.01,0.17-0.07c0.05-0.15-0.09-0.26-0.18-0.37
					C21.64,10.81,21.59,10.82,21.58,10.85L21.58,10.85z"/>
			</g>
		</g>
		<g>
			<path class="st0" d="M19.01,10.41c0-0.05,0.03-0.08,0.07-0.11c0.33-0.29,0.75-0.46,1.19-0.54c0.43-0.08,0.88-0.08,1.32-0.09
				c0.29,0,1.17,0.26,1.5,0.5c-0.52,0.5-1.21,0.81-1.93,0.88c-0.72,0.07-1.46-0.12-2.06-0.51C19.06,10.5,19,10.46,19.01,10.41z"/>
		</g>
		<g>
			<path class="st3" d="M20.61,10.47c0.12,0.14,0.32,0.21,0.51,0.18c0.18-0.04,0.34-0.18,0.4-0.36c0.01-0.04,0.02-0.08,0.02-0.13
				c-0.01-0.24-0.54-0.48-0.9-0.14C20.5,10.14,20.5,10.34,20.61,10.47z"/>
		</g>
		<g>
			<g>
				<path class="st15" d="M21.02,23.63c-0.03,0.02-0.06,0.03-0.08,0.04c-0.71,0.36-0.4,1.58,0.42,1.51c0.03,0,0.06-0.01,0.09-0.01
					C22.84,25.05,22.23,23.01,21.02,23.63L21.02,23.63z"/>
			</g>
		</g>
		<g>
			<g>
				<path class="st15" d="M14.31,23.76c0.97,0,0.97-1.48,0-1.48C13.35,22.29,13.35,23.76,14.31,23.76L14.31,23.76z"/>
			</g>
		</g>
		<g>
			<g>
				<path class="st4" d="M15.87,22.77c0.63-0.22,1.12-0.55,1.63-0.96c0.42-0.33-0.2-0.98-0.6-0.59c-0.38,0.37-0.76,0.8-1.25,1.05
					C15.38,22.41,15.57,22.88,15.87,22.77L15.87,22.77z"/>
			</g>
		</g>
		<g>
			<g>
				<path class="st4" d="M21.47,23.12c0.11-0.23,0.15-0.48,0.2-0.72c0.06-0.32,0.15-0.62,0.19-0.94c0.08-0.62-1.05-0.64-0.99,0
					c0.02,0.28,0.06,0.56,0.08,0.85c0.02,0.29,0.05,0.58,0.21,0.82C21.22,23.22,21.41,23.25,21.47,23.12L21.47,23.12z"/>
			</g>
		</g>
		<g>
			<g>
				<path class="st4" d="M26.73,22.59c-0.13-0.14-0.23-0.43-0.35-0.62c-0.06-0.09-0.11-0.18-0.16-0.28
					c-0.03-0.05-0.05-0.1-0.08-0.15c0.06,0.1-0.04-0.09-0.06-0.12c-0.1-0.2-0.37-0.29-0.57-0.23c-0.29,0.08-0.4,0.35-0.36,0.62
					c0.06,0.32,0.39,0.5,0.63,0.67c0.11,0.08,0.21,0.19,0.32,0.28c0.13,0.1,0.26,0.14,0.41,0.2C26.73,23.04,26.86,22.73,26.73,22.59
					L26.73,22.59z"/>
			</g>
		</g>
		<g>
			<g>
				<path class="st4" d="M18.82,19.17c0.01,0,0.02,0.01,0.02,0.01c0.19,0.07,0.34-0.17,0.25-0.33c0-0.01-0.01-0.02-0.01-0.02
					c-0.08-0.13-0.26-0.15-0.37-0.05C18.58,18.92,18.66,19.11,18.82,19.17L18.82,19.17z"/>
			</g>
		</g>
		<g>
			<g>
				<path class="st4" d="M19.81,19.19C19.81,19.19,19.82,19.19,19.81,19.19c0.09-0.1,0.09-0.23,0.01-0.33c0,0,0,0-0.01-0.01
					c-0.14-0.16-0.42-0.03-0.42,0.17C19.4,19.22,19.67,19.35,19.81,19.19L19.81,19.19z"/>
			</g>
		</g>
		<g>
			<g>
				<path class="st4" d="M20.33,19.27c0.33,0,0.33-0.5,0-0.5C20.01,18.77,20.01,19.27,20.33,19.27L20.33,19.27z"/>
			</g>
		</g>
		<g>
			<g>
				<path class="st4" d="M21.03,19.23c0.3,0,0.3-0.46,0-0.46C20.73,18.77,20.73,19.23,21.03,19.23L21.03,19.23z"/>
			</g>
		</g>
		<g>
			<g>
				<path class="st4" d="M21.7,19.15c0.3,0,0.3-0.45,0-0.45C21.4,18.7,21.4,19.15,21.7,19.15L21.7,19.15z"/>
			</g>
		</g>
		<g>
			<g>
				<path class="st4" d="M22.29,19.08c0.26,0,0.26-0.4,0-0.4C22.03,18.68,22.03,19.08,22.29,19.08L22.29,19.08z"/>
			</g>
		</g>
		<g>
			<g>
				<path class="st4" d="M22.91,19.05c0.01,0,0.02,0.01,0.03,0.01c0.15,0.05,0.3-0.08,0.3-0.23c0-0.14-0.15-0.28-0.3-0.23
					c-0.01,0-0.02,0.01-0.03,0.01C22.69,18.69,22.69,18.98,22.91,19.05L22.91,19.05z"/>
			</g>
		</g>
		<g>
			<g>
				<path class="st4" d="M23.79,19.03c0.32,0,0.32-0.49,0-0.49C23.47,18.54,23.47,19.03,23.79,19.03L23.79,19.03z"/>
			</g>
		</g>
		<g>
			<g>
				<path class="st4" d="M24.49,18.91c0.26,0,0.26-0.4,0-0.4C24.23,18.52,24.23,18.91,24.49,18.91L24.49,18.91z"/>
			</g>
		</g>
		<g>
			<g>
				<path class="st15" d="M21.34,21.87c0.15,0,0.28-0.13,0.28-0.28c0-0.15-0.13-0.28-0.28-0.28c-0.15,0-0.28,0.13-0.28,0.28
					C21.06,21.74,21.19,21.87,21.34,21.87L21.34,21.87z"/>
			</g>
		</g>
		<g>
			<g>
				<path class="st15" d="M17.19,21.85c0.1-0.03,0.17-0.1,0.2-0.2c0.05-0.18-0.09-0.36-0.28-0.36c-0.16,0-0.29,0.13-0.29,0.28
					C16.83,21.75,17.01,21.91,17.19,21.85L17.19,21.85z"/>
			</g>
		</g>
		<g>
			<g>
				<path class="st15" d="M25.38,21.77c0,0.01,0.01,0.02,0.01,0.02c0.06,0.1,0.19,0.15,0.3,0.12c0.12-0.03,0.18-0.13,0.19-0.25
					c0-0.01,0-0.02,0-0.03c0.01-0.17-0.18-0.3-0.34-0.26C25.37,21.42,25.3,21.62,25.38,21.77L25.38,21.77z"/>
			</g>
		</g>
		<g>
			<g>
				<path class="st15" d="M17.78,21.07c0.07-0.06,0.15-0.11,0.23-0.18c0.07-0.07,0.16-0.14,0.16-0.24c0-0.05-0.04-0.1-0.1-0.1
					c-0.2,0.01-0.29,0.3-0.39,0.44C17.63,21.06,17.72,21.12,17.78,21.07L17.78,21.07z"/>
			</g>
		</g>
		<g>
			<g>
				<path class="st15" d="M17.4,20.89c0.03-0.02,0.07-0.03,0.1-0.05c0.03-0.02,0.06-0.05,0.09-0.08c0.06-0.05,0.12-0.14,0.15-0.22
					c0.04-0.14-0.12-0.24-0.23-0.18c-0.07,0.04-0.14,0.14-0.16,0.22c-0.01,0.04-0.02,0.08-0.02,0.12c-0.01,0.03,0.01,0.08-0.01,0.1
					C17.29,20.85,17.35,20.93,17.4,20.89L17.4,20.89z"/>
			</g>
		</g>
		<g>
			<g>
				<path class="st15" d="M17.92,21.39c0.1,0,0.17,0,0.26-0.05c0.09-0.05,0.18-0.11,0.23-0.2c0.05-0.1-0.04-0.27-0.17-0.21
					c-0.09,0.04-0.15,0.09-0.22,0.16c-0.03,0.03-0.06,0.06-0.09,0.1c-0.03,0.04-0.04,0.08-0.06,0.12
					C17.85,21.34,17.88,21.39,17.92,21.39L17.92,21.39z"/>
			</g>
		</g>
		<g>
			<g>
				<path class="st15" d="M20.91,21.03c0.04-0.05,0.06-0.08,0.08-0.14c0.01-0.07,0-0.16-0.02-0.22c-0.05-0.13-0.27-0.16-0.3,0
					c-0.03,0.16,0.02,0.3,0.16,0.37C20.85,21.05,20.89,21.05,20.91,21.03L20.91,21.03z"/>
			</g>
		</g>
		<g>
			<g>
				<path class="st15" d="M21.44,20.84c0.06-0.06,0.06-0.15,0.04-0.23c-0.02-0.08,0.01-0.16-0.03-0.24
					c-0.01-0.03-0.05-0.05-0.08-0.04c-0.23,0.01-0.21,0.43-0.03,0.52C21.37,20.87,21.41,20.87,21.44,20.84L21.44,20.84z"/>
			</g>
		</g>
		<g>
			<g>
				<path class="st15" d="M21.75,20.91c0.06-0.03,0.11-0.09,0.15-0.14c0.05-0.06,0.11-0.12,0.13-0.19c0.03-0.08-0.06-0.18-0.15-0.14
					c-0.15,0.06-0.3,0.29-0.21,0.45C21.68,20.92,21.72,20.92,21.75,20.91L21.75,20.91z"/>
			</g>
		</g>
		<g>
			<g>
				<path class="st15" d="M25.13,21.16c0.03-0.15-0.02-0.34-0.15-0.42c-0.08-0.05-0.19,0-0.21,0.08c-0.04,0.18,0.11,0.34,0.28,0.39
					C25.08,21.22,25.13,21.2,25.13,21.16L25.13,21.16z"/>
			</g>
		</g>
		<g>
			<g>
				<path class="st15" d="M24.86,21.39c-0.06-0.06-0.11-0.1-0.18-0.14c-0.1-0.06-0.17-0.09-0.28-0.04
					c-0.08,0.04-0.08,0.15-0.03,0.21c0.1,0.12,0.31,0.06,0.45,0.05C24.87,21.46,24.89,21.42,24.86,21.39L24.86,21.39z"/>
			</g>
		</g>
		<g>
			<g>
				<path class="st15" d="M25.56,20.93c0-0.07,0.02-0.14,0.03-0.21c0.03-0.2-0.27-0.2-0.25-0.04c0.01,0.11,0.03,0.2,0.09,0.28
					C25.47,21.01,25.56,21,25.56,20.93L25.56,20.93z"/>
			</g>
		</g>
		<g>
			<g>
				<path class="st15" d="M18.04,24.24c0.19,0,0.19-0.29,0-0.29C17.85,23.95,17.85,24.24,18.04,24.24L18.04,24.24z"/>
			</g>
		</g>
		<g>
			<g>
				<path class="st15" d="M15.57,24.88c0.19,0,0.19-0.29,0-0.29C15.38,24.59,15.38,24.88,15.57,24.88L15.57,24.88z"/>
			</g>
		</g>
		<g>
			<g>
				<path class="st15" d="M5.52,33.18c0.19,0,0.19-0.29,0-0.29C5.34,32.9,5.34,33.18,5.52,33.18L5.52,33.18z"/>
			</g>
		</g>
		<g>
			<g>
				<path class="st15" d="M15.27,26.47c0.19,0,0.19-0.29,0-0.29C15.08,26.18,15.08,26.47,15.27,26.47L15.27,26.47z"/>
			</g>
		</g>
		<g>
			<g>
				<path class="st15" d="M13.07,25.58c0.22,0,0.22-0.34,0-0.34C12.85,25.24,12.85,25.58,13.07,25.58L13.07,25.58z"/>
			</g>
		</g>
		<g>
			<g>
				<path class="st15" d="M10.07,24.59c0.26,0,0.26-0.4,0-0.4C9.81,24.19,9.81,24.59,10.07,24.59L10.07,24.59z"/>
			</g>
		</g>
		<g>
			<g>
				<path class="st15" d="M8.53,26.14c0.26,0,0.26-0.4,0-0.4C8.27,25.74,8.27,26.14,8.53,26.14L8.53,26.14z"/>
			</g>
		</g>
		<g>
			<g>
				<path class="st15" d="M17.04,26.88c0,0.01-0.01,0.01-0.01,0.02c-0.07,0.15,0.07,0.29,0.22,0.22c0.01,0,0.01-0.01,0.02-0.01
					c0.1-0.04,0.11-0.2,0.03-0.27C17.23,26.77,17.08,26.78,17.04,26.88L17.04,26.88z"/>
			</g>
		</g>
		<g>
			<g>
				<path class="st15" d="M11.78,23.25c0,0.01-0.01,0.01-0.01,0.02c-0.07,0.15,0.07,0.29,0.22,0.22c0.01,0,0.01-0.01,0.02-0.01
					c0.1-0.04,0.11-0.2,0.04-0.27C11.98,23.15,11.82,23.15,11.78,23.25L11.78,23.25z"/>
			</g>
		</g>
		<g>
			<g>
				<path class="st15" d="M20.4,26.23c0.29,0,0.29-0.44,0-0.44C20.11,25.79,20.11,26.23,20.4,26.23L20.4,26.23z"/>
			</g>
		</g>
		<g>
			<g>
				<path class="st15" d="M13.81,28.34c0.29,0,0.29-0.44,0-0.44C13.52,27.91,13.52,28.34,13.81,28.34L13.81,28.34z"/>
			</g>
		</g>
		<g>
			<g>
				<path class="st15" d="M10.31,26.62c0,0,0.01,0,0.02,0c-0.04-0.01-0.07-0.01-0.11-0.02c0,0,0.01,0.01,0.01,0.01
					c0.13,0.06,0.26-0.06,0.19-0.19c-0.02-0.03-0.04-0.05-0.07-0.07c-0.09-0.04-0.19-0.01-0.22,0.09
					C10.09,26.55,10.2,26.65,10.31,26.62L10.31,26.62z"/>
			</g>
		</g>
		<g>
			<g>
				<path class="st15" d="M5.49,32.3c0,0,0.01,0,0.02,0c-0.04-0.01-0.07-0.01-0.11-0.02c0,0,0.01,0.01,0.01,0.01
					c0.13,0.07,0.26-0.06,0.19-0.19c-0.02-0.03-0.04-0.06-0.08-0.07c-0.09-0.04-0.19-0.01-0.22,0.09
					C5.27,32.23,5.38,32.33,5.49,32.3L5.49,32.3z"/>
			</g>
		</g>
		<g>
			<g>
				<path class="st15" d="M21.81,28.69c0.19,0,0.19-0.29,0-0.29C21.61,28.4,21.61,28.69,21.81,28.69L21.81,28.69z"/>
			</g>
		</g>
		<g>
			<g>
				<path class="st15" d="M24.26,24.04c0.18,0,0.18-0.28,0-0.28S24.08,24.04,24.26,24.04L24.26,24.04z"/>
			</g>
		</g>
		<g>
			<g>
				<path class="st15" d="M32.25,28.37c0.26,0,0.26-0.4,0-0.4C31.99,27.97,31.99,28.37,32.25,28.37L32.25,28.37z"/>
			</g>
		</g>
		<g>
			<g>
				<path class="st15" d="M34.18,27.26c0.26,0,0.26-0.4,0-0.4C33.92,26.87,33.92,27.26,34.18,27.26L34.18,27.26z"/>
			</g>
		</g>
		<g>
			<g>
				<path class="st15" d="M34.4,28.56c0.26,0,0.26-0.4,0-0.4C34.14,28.17,34.14,28.56,34.4,28.56L34.4,28.56z"/>
			</g>
		</g>
		<g>
			<g>
				<path class="st4" d="M10.15,28.29c0.27,0,0.5-0.22,0.5-0.49c0-0.27-0.23-0.49-0.5-0.49c-0.27,0-0.5,0.22-0.5,0.49
					C9.66,28.07,9.88,28.29,10.15,28.29L10.15,28.29z"/>
			</g>
		</g>
		<g>
			<g>
				<path class="st4" d="M9.73,28.95c0,0.01,0.01,0.01,0.01,0.02c0.06,0.14,0.27,0.2,0.41,0.16c0.2-0.05,0.29-0.25,0.25-0.44
					c0-0.01,0-0.02,0-0.02c-0.04-0.19-0.26-0.3-0.45-0.25C9.7,28.49,9.64,28.74,9.73,28.95L9.73,28.95z"/>
			</g>
		</g>
		<g>
			<g>
				<path class="st4" d="M14.77,30.57c0,0.01,0.01,0.02,0.01,0.02c0.06,0.1,0.2,0.14,0.3,0.08c0.04-0.02,0.06-0.05,0.08-0.08
					c0.06-0.1,0.02-0.24-0.08-0.3c-0.01-0.01-0.02-0.01-0.02-0.02C14.87,30.18,14.67,30.38,14.77,30.57L14.77,30.57z"/>
			</g>
		</g>
		<g>
			<g>
				<path class="st4" d="M19.83,31.54c0,0.01,0.01,0.02,0.01,0.02c0.06,0.1,0.2,0.14,0.3,0.08c0.03-0.02,0.06-0.05,0.08-0.08
					c0.06-0.1,0.02-0.24-0.08-0.3c-0.01,0-0.02-0.01-0.03-0.01C19.94,31.15,19.73,31.35,19.83,31.54L19.83,31.54z"/>
			</g>
		</g>
		<g>
			<g>
				<path class="st4" d="M7.32,28.25c-0.74,1.1-0.56,3.98,0.62,4.76c0.09,0.06,0.21-0.02,0.21-0.12c0.01-0.74-0.28-1.49-0.37-2.22
					c-0.09-0.78,0.06-1.6-0.11-2.37C7.63,28.12,7.4,28.12,7.32,28.25L7.32,28.25z"/>
			</g>
		</g>
		<g>
			<g>
				<path class="st4" d="M6.13,28.42c-0.98,0.15-1,1.64-0.91,2.36c0.1,0.8,0.45,2.04,1.3,2.37c0.1,0.04,0.2-0.08,0.17-0.17
					c-0.2-0.71-0.55-1.36-0.72-2.09c-0.21-0.9,0.01-1.5,0.31-2.32C6.32,28.48,6.22,28.41,6.13,28.42L6.13,28.42z"/>
			</g>
		</g>
		<g>
			<path class="st5" d="M31.93,32.97c-0.44,0.11-0.84,0.32-1.28,0.44c-0.44,0.12-0.96,0.16-1.34-0.04c-0.38-0.2-0.54-0.57-0.76-0.88
				c-0.46-0.66-1.36-1.15-2.31-1.14c-1.07,0.01-2.11,0.62-3.13,0.37c-0.81-0.19-1.31-0.86-2.1-1.11c-1.29-0.41-2.67,0.43-4.06,0.45
				c-0.79,0.01-1.55-0.25-2.31-0.42c-0.78-0.17-1.58-0.27-2.39-0.27c-0.61,0-1.24,0.05-1.74,0.33c-0.44,0.24-0.74,0.63-1.22,0.81
				c-0.51,0.18-1.1,0.09-1.63-0.04c-0.53-0.14-1.07-0.31-1.62-0.28c-0.56,0.03-1.35,0.39-1.36,0.83c-0.03,1.22,0.62,2.38,1.13,3.53
				c0.84,1.9,4.13,4.72,9.09,4.48c1.04-0.05,2.08,0.01,3.11,0c1.88-0.01,6.64,0.06,8.51-0.07c4.2-0.29,4.59-1.16,6.06-3.28
				c1.01-1.47,0.91-2.82,0.65-3.24C32.8,32.78,32.2,32.89,31.93,32.97z"/>
		</g>
		<g>
			<path class="st3" d="M18.02,59.31c-0.02,0.08-0.06,0.17-0.14,0.17c-0.06,0-0.11-0.06-0.14-0.12c-0.26-0.44-0.47-0.91-0.62-1.39
				c0.34,0,0.68,0.02,1.03,0.05c0.05,0.01,0.12,0.02,0.14,0.07c0.01,0.03,0.01,0.06,0,0.09C18.21,58.56,18.13,58.94,18.02,59.31z"/>
		</g>
		<g>
			<path class="st6" d="M15.14,41.74c0.02,0.33,0.12,0.66,0.2,0.99c0.36,1.42,0.46,2.91,0.27,4.36c1.78-0.19,3.47-1.09,4.61-2.45
				c0.3-0.36,0.62-0.77,1.08-0.84c-0.1-0.9-0.03-1.82,0.23-2.68c-2.07-0.07-4.14,0.05-6.19,0.37c-0.07,0.01-0.14,0.03-0.18,0.08
				C15.13,41.62,15.14,41.68,15.14,41.74z"/>
		</g>
		<g>
			<path class="st3" d="M15.05,42.32c0.05,0.13,0.21,0.19,0.35,0.16c0.69-0.16,1.18-0.23,3.19-0.34c2.04-0.11,2.72,0.05,2.87-0.17
				c1.72-2.56,2.87-3.26,4.08-4.08c0.1-0.07,0.07-0.21-0.04-0.25c-0.58-0.17-1.45-0.14-1.84-0.08c-1.78,0.26-2.24,0.88-3.24,1.92
				c-0.32-1.69-1.1-2.59-1.9-2.96c-0.54,0.57-1.23,1.61-1.41,2.85c-0.09-0.22-0.41-0.63-0.57-0.8c-0.92-0.97-2.48-1.47-4.07-1.54
				c-0.04,0-0.07,0.03-0.08,0.06c-0.06,0.33,0.79,1.14,1.31,2.06C14.52,40.59,14.47,40.7,15.05,42.32z"/>
		</g>
		<g>
			<path class="st7" d="M23.43,46.99c0.06-0.57,0.15-1.14,0.14-1.71c-0.01-0.57-0.14-1.16-0.47-1.63c-0.4-0.57-1.08-0.93-1.78-0.94
				c-0.7-0.01-1.47,0.22-2.08,0.55c-0.69,0.37-1.43,0.84-1.98,1.39c-0.66,0.67-0.91,1.56-1.26,2.42c-0.79,1.94-1.28,4.1-0.76,6.13
				c0.02,0.08,0.04,0.15,0.1,0.21c0.07,0.07,0.16,0.09,0.25,0.11c2.19,0.49,4.5-0.02,6.69,0.45c0.41-1.15,0.01-2.5,0.57-3.58
				c0.31-0.6,0.86-1.03,1.35-1.49c0.25-0.23,0.5-0.58,0.33-0.87c-0.21-0.36-0.87-0.24-1.06-0.62C23.4,47.29,23.41,47.14,23.43,46.99
				z"/>
		</g>
		<g>
			<path class="st3" d="M18.19,43.47c0.73,0.14,1.91,0.62,2.59,1.65c0.41,0.62,0.61,1.37,0.81,2.08c0.05,0.19,0.09,0.37,0.15,0.53
				c0.04,0.11,0.23,0.12,0.35,0.1c0.81-0.11,0.89-0.14,1.58-0.23c0.03-1.11,0.4-2.28,1.3-2.96c0.62-0.47,1.25-0.94,1.99-1.19
				c-0.88,0.23-1.89,0.41-2.64,0.91c-0.74,0.51-1.2,1.29-1.5,2.13c-0.34-0.76-0.83-1.44-1.43-2.02c-0.14-0.13-0.28-0.26-0.44-0.35
				c-0.17-0.1-0.48-0.26-0.66-0.33C19.39,43.44,18.64,43.5,18.19,43.47z"/>
		</g>
		<g>
			<path class="st3" d="M23.02,43.54c-0.49-0.64-1.24-0.66-1.8-0.64c0.26-0.54,0.54-1.09,0.99-1.49c0.38-0.35,0.88-0.57,1.4-0.63
				C23.36,41.68,23.05,42.61,23.02,43.54z"/>
		</g>
		<g>
			<path class="st2" d="M13.01,43.03c-0.63-0.18-1.27-0.36-1.92-0.31c0.48,1.27,0.65,1.88,0.86,3.22c0.05,0.33,0.28,2.13,0.3,2.46
				c0.11,1.8,0.1,2.84-0.03,4.64c0,0.05-0.01,0.1,0.02,0.14c0.04,0.06,0.12,0.07,0.19,0.08c1.36,0.12,2.73-0.35,4.09-0.22
				c0.26-1.85,0.53-3.73,0.28-5.59c-0.09-0.63-0.21-1.29-0.56-1.82C14.91,43.6,13.91,43.29,13.01,43.03z"/>
		</g>
		<g>
			<path class="st3" d="M17.15,51.76c-0.01-0.04-0.07-0.48,0.03-0.46c0.34,0.07,0.66,0.06,0.85,0.07c1.64,0.08,2.1,0.1,3.32-0.11
				c0.03,0.2,0.04,0.4,0.03,0.6c-1.37-0.08-2.73-0.08-4.1-0.02c-0.04,0-0.08,0-0.1-0.03C17.16,51.81,17.15,51.79,17.15,51.76z"/>
		</g>
		<g>
			<path class="st8" d="M17.43,47.29c-0.11,0.17-0.12,0.39-0.04,0.57c0.04,0.09,0.11,0.17,0.19,0.24c0.23,0.18,0.6,0.16,0.81-0.04
				c0.25-0.24,0.23-0.7-0.04-0.91C18.08,46.92,17.62,46.99,17.43,47.29z"/>
		</g>
		<g>
			<path class="st9" d="M22.58,55.56c0,0.17-0.06,0.33-0.13,0.49c-0.45,0.98-1.35,1.73-2.37,2.12c-1.02,0.39-2.15,0.45-3.23,0.27
				c-0.47-0.08-0.94-0.2-1.35-0.43c-0.34-0.19-0.63-0.45-0.92-0.71c-0.59-0.55-1.19-1.19-1.28-1.98c3.03-0.3,6.11-0.59,9.09,0.01
				c0.06,0.01,0.11,0.02,0.15,0.06C22.57,55.44,22.58,55.5,22.58,55.56z"/>
		</g>
		<g>
			<defs>
				<path id="SVGID_00000157289788157439002590000008941849518867651459_" d="M18.19,43.47c0.73,0.14,1.91,0.62,2.59,1.65
					c0.41,0.62,0.61,1.37,0.81,2.08c0.05,0.19,0.09,0.37,0.15,0.53c0.04,0.11,0.23,0.12,0.35,0.1c0.81-0.11,0.89-0.14,1.58-0.23
					c0.03-1.11,0.4-2.28,1.3-2.96c0.62-0.47,1.25-0.94,1.99-1.19c-0.88,0.23-1.89,0.41-2.64,0.91c-0.74,0.51-1.2,1.29-1.5,2.13
					c-0.34-0.76-0.83-1.44-1.43-2.02c-0.14-0.13-0.28-0.26-0.44-0.35c-0.17-0.1-0.48-0.26-0.66-0.33
					C19.39,43.44,18.64,43.5,18.19,43.47z"/>
			</defs>
			<clipPath id="SVGID_00000068669383885046110190000012793248788841586348_">
				<use xlink:href="#SVGID_00000157289788157439002590000008941849518867651459_"  style="overflow:visible;"/>
			</clipPath>
			<g style="clip-path:url(#SVGID_00000068669383885046110190000012793248788841586348_);">
				<g>
					<path class="st11" d="M23.09,48.01c0.06-0.78,0.16-1.47,0.38-2.23c0.27-0.91,0.89-1.48,1.42-2.21
						c0.04-0.06-0.05-0.12-0.09-0.07c-1.25,1.09-2.07,2.88-1.83,4.53C22.98,48.1,23.08,48.08,23.09,48.01L23.09,48.01z"/>
				</g>
			</g>
			<g style="clip-path:url(#SVGID_00000068669383885046110190000012793248788841586348_);">
				<g>
					<path class="st11" d="M22.39,48.45c0.49-1.57-0.04-3.8-1.57-4.63c-0.05-0.02-0.57-0.15-0.53-0.12
						c0.64,0.43,1.52,1.38,1.77,2.17c0.26,0.82,0.28,1.73,0.18,2.57C22.24,48.52,22.37,48.53,22.39,48.45L22.39,48.45z"/>
				</g>
			</g>
			<g style="clip-path:url(#SVGID_00000068669383885046110190000012793248788841586348_);">
				<g>
					<path class="st11" d="M27.16,43.46c-2.18,0.05-4.19,2.62-3.56,4.69c0.02,0.07,0.13,0.07,0.14,0c0.09-0.4,0.02-0.79,0.1-1.21
						c0.11-0.53,0.3-1.07,0.54-1.55c0.52-1.04,1.84-1.37,2.79-1.87C27.21,43.51,27.19,43.46,27.16,43.46L27.16,43.46z"/>
				</g>
			</g>
			<g style="clip-path:url(#SVGID_00000068669383885046110190000012793248788841586348_);">
				<g>
					<path class="st11" d="M21.93,48.43c0.2-1.21-0.18-2.68-0.98-3.63c-0.78-0.94-1.94-2.09-3.33-1.76
						c-0.09,0.02-0.11,0.16-0.03,0.2c0.43,0.22,0.9,0.3,1.34,0.5c0.57,0.27,1.07,0.88,1.48,1.34c0.86,0.95,1.15,2.15,1.42,3.35
						C21.84,48.47,21.92,48.48,21.93,48.43L21.93,48.43z"/>
				</g>
			</g>
		</g>
		<g>
			<defs>
				<path id="SVGID_00000077311670633068689020000015655111257059796649_" d="M23.02,43.54c-0.49-0.64-1.24-0.66-1.8-0.64
					c0.26-0.54,0.54-1.09,0.99-1.49c0.38-0.35,0.88-0.57,1.4-0.63C23.36,41.68,23.05,42.61,23.02,43.54z"/>
			</defs>
			<clipPath id="SVGID_00000066481847470958193650000002253733016880760726_">
				<use xlink:href="#SVGID_00000077311670633068689020000015655111257059796649_"  style="overflow:visible;"/>
			</clipPath>
			<g style="clip-path:url(#SVGID_00000066481847470958193650000002253733016880760726_);">
				<g>
					<path class="st11" d="M23.86,40.41c-0.9,0.92-1.05,2.15-1.34,3.34c-0.01,0.05,0.06,0.07,0.08,0.02
						c0.23-0.57,0.29-1.18,0.47-1.77C23.24,41.47,23.55,40.89,23.86,40.41C23.86,40.41,23.86,40.41,23.86,40.41L23.86,40.41z"/>
				</g>
			</g>
			<g style="clip-path:url(#SVGID_00000066481847470958193650000002253733016880760726_);">
				<g>
					<path class="st11" d="M23.35,40.47c-0.4,0.26-0.57,0.77-0.76,1.18c-0.29,0.64-0.38,1.32-0.49,2c-0.01,0.07,0.09,0.09,0.11,0.03
						c0.25-0.57,0.22-1.21,0.46-1.78c0.2-0.48,0.5-0.92,0.71-1.4C23.4,40.48,23.37,40.46,23.35,40.47L23.35,40.47z"/>
				</g>
			</g>
			<g style="clip-path:url(#SVGID_00000066481847470958193650000002253733016880760726_);">
				<g>
					<path class="st11" d="M22.45,40.74c-0.48,0.83-0.93,1.86-0.87,2.84c0,0.07,0.12,0.08,0.14,0.02c0.17-0.46,0.21-0.97,0.35-1.44
						c0.13-0.48,0.38-0.9,0.47-1.39C22.54,40.71,22.47,40.7,22.45,40.74L22.45,40.74z"/>
				</g>
			</g>
		</g>
		<g>
			<defs>
				<path id="SVGID_00000086685171726823646850000011800643347664642453_" d="M13.01,43.03c-0.63-0.18-1.27-0.36-1.92-0.31
					c0.48,1.27,0.65,1.88,0.86,3.22c0.05,0.33,0.28,2.13,0.3,2.46c0.11,1.8,0.1,2.84-0.03,4.64c0,0.05-0.01,0.1,0.02,0.14
					c0.04,0.06,0.12,0.07,0.19,0.08c1.36,0.12,2.73-0.35,4.09-0.22c0.26-1.85,0.53-3.73,0.28-5.59c-0.09-0.63-0.21-1.29-0.56-1.82
					C14.91,43.6,13.91,43.29,13.01,43.03z"/>
			</defs>
			<clipPath id="SVGID_00000002359240475777757280000002783375297548837805_">
				<use xlink:href="#SVGID_00000086685171726823646850000011800643347664642453_"  style="overflow:visible;"/>
			</clipPath>
			<g style="clip-path:url(#SVGID_00000002359240475777757280000002783375297548837805_);">
				<g>
					<path class="st11" d="M15.73,43.88c0.32,1.5,0.22,3.02,0.27,4.54c0.06,1.72-0.36,3.33-0.52,5.02
						c-0.01,0.08,0.11,0.11,0.15,0.04c0.69-1.49,0.68-3.45,0.64-5.06c-0.04-1.49,0.15-3.16-0.5-4.55
						C15.75,43.85,15.73,43.86,15.73,43.88L15.73,43.88z"/>
				</g>
			</g>
			<g style="clip-path:url(#SVGID_00000002359240475777757280000002783375297548837805_);">
				<g>
					<path class="st11" d="M14.92,43.41c0.39,1.83,0.34,3.7,0.2,5.55c-0.12,1.51-0.17,2.93-0.69,4.36
						c-0.03,0.08,0.08,0.13,0.13,0.08c0.91-0.99,0.7-2.88,0.8-4.1c0.16-1.91,0.23-4.06-0.41-5.89
						C14.94,43.38,14.91,43.38,14.92,43.41L14.92,43.41z"/>
				</g>
			</g>
			<g style="clip-path:url(#SVGID_00000002359240475777757280000002783375297548837805_);">
				<g>
					<path class="st11" d="M14.17,42.88c0.4,3.35,0.29,6.92-0.47,10.2c-0.02,0.09,0.1,0.14,0.15,0.06c0.81-1.38,0.63-3.19,0.72-4.71
						c0.11-1.8,0.3-3.83-0.32-5.56C14.24,42.84,14.17,42.84,14.17,42.88L14.17,42.88z"/>
				</g>
			</g>
			<g style="clip-path:url(#SVGID_00000002359240475777757280000002783375297548837805_);">
				<g>
					<path class="st11" d="M12.74,42.37c0.17,0.9,0.43,1.77,0.5,2.69c0.07,0.91,0.1,1.83,0.12,2.74c0.02,1.63,0.1,3.32-0.31,4.91
						c-0.02,0.07,0.08,0.11,0.12,0.05c0.71-1.36,0.47-3.13,0.47-4.61c0-2.01-0.13-3.89-0.82-5.79
						C12.8,42.31,12.73,42.33,12.74,42.37L12.74,42.37z"/>
				</g>
			</g>
			<g style="clip-path:url(#SVGID_00000002359240475777757280000002783375297548837805_);">
				<g>
					<path class="st11" d="M11.7,42.14c0.35,1.58,0.49,3.19,0.74,4.79c0.16,1.01,0.25,2.04,0.26,3.06c0.01,0.97-0.23,1.91-0.14,2.88
						c0.01,0.07,0.12,0.1,0.13,0.02c0.25-1.79,0.32-3.54,0.07-5.34c-0.24-1.77-0.31-3.77-1.02-5.43
						C11.74,42.09,11.7,42.11,11.7,42.14L11.7,42.14z"/>
				</g>
			</g>
		</g>
		<g>
			<path class="st3" d="M10.59,55.7c0.82-0.96,1.4-2.12,1.66-3.35c1.26-0.12,2.53-0.11,3.8-0.11c0.52,0,1.04,0.04,1.56,0.04
				c1.72,0.02,2.39,0.14,4.72,0.11c0.26,0,0.52,0.16,0.66,0.38c0.75,1.14,1.19,2.11,1.89,2.9c0.04,0.04,0.1,0.1,0.06,0.14
				c-0.04,0.04-0.09,0.06-0.15,0.07c-1.54,0.38-3.14,0.41-4.73,0.41c-3.03,0.01-6.07-0.09-9.09-0.28c-0.1-0.01-0.21-0.01-0.3-0.07
				C10.57,55.89,10.52,55.78,10.59,55.7z"/>
		</g>
		<g>
			<defs>
				<path id="SVGID_00000112593914064088199130000001717654426356218243_" d="M10.59,55.7c0.82-0.96,1.4-2.12,1.66-3.35
					c1.26-0.12,2.53-0.11,3.8-0.11c0.52,0,1.04,0.04,1.56,0.04c1.72,0.02,2.66-0.1,4.72,0.11c0.26,0.03,0.48,0.21,0.66,0.38
					c0.08,0.08,0.13,0.18,0.18,0.28c0.44,0.95,1.01,1.83,1.71,2.61c0.04,0.04,0.1,0.1,0.06,0.14c-0.04,0.04-0.09,0.06-0.15,0.07
					c-1.54,0.38-3.14,0.41-4.73,0.41c-3.03,0.01-6.07-0.09-9.09-0.28c-0.1-0.01-0.21-0.01-0.3-0.07
					C10.57,55.89,10.52,55.78,10.59,55.7z"/>
			</defs>
			<clipPath id="SVGID_00000181050922121524607770000017717578482381023365_">
				<use xlink:href="#SVGID_00000112593914064088199130000001717654426356218243_"  style="overflow:visible;"/>
			</clipPath>
			<g style="clip-path:url(#SVGID_00000181050922121524607770000017717578482381023365_);">
				<path class="st4" d="M23.78,55.41c-0.21-0.1-0.41-0.19-0.62-0.29c-0.13-0.06-0.26-0.11-0.39-0.12c-0.04,0-0.08,0-0.12,0.03
					c-0.03,0.02-1.04,1.32-1.06,1.48c0.93-0.03,1.88-0.09,2.72-0.47c0.04-0.02,0.07-0.04,0.09-0.07c0.02-0.04,0-0.08-0.02-0.12
					C24.26,55.64,24.02,55.52,23.78,55.41z"/>
			</g>
			<g style="clip-path:url(#SVGID_00000181050922121524607770000017717578482381023365_);">
				<path class="st4" d="M19.13,55.24c-0.49,0.43-0.77,0.79-1.25,1.24c0.87,0.05,1.73,0.1,2.6,0.15c0.22,0.01,0.46,0.02,0.63-0.12
					c-0.6-0.37-0.99-1.01-1.61-1.35C19.47,55.15,19.38,55.01,19.13,55.24z"/>
			</g>
			<g style="clip-path:url(#SVGID_00000181050922121524607770000017717578482381023365_);">
				<path class="st4" d="M17.42,56.31c-0.15-0.24-0.29-0.47-0.44-0.71c-0.09-0.14-0.17-0.27-0.28-0.4
					c-0.11-0.13-0.24-0.25-0.39-0.35c-0.09-0.06-0.21-0.02-0.27,0.07c-0.42,0.57-0.67,0.77-1.05,1.15c-0.13,0.13-0.17,0.13-0.24,0.3
					c0.39,0.02,0.79,0.05,1.18,0.07c0.52,0.03,1.05,0.06,1.55-0.06C17.49,56.35,17.45,56.32,17.42,56.31z"/>
			</g>
			<g style="clip-path:url(#SVGID_00000181050922121524607770000017717578482381023365_);">
				<path class="st4" d="M13.99,56.54c0.13-0.1,0.06-0.31-0.03-0.45c-0.34-0.56-0.69-1.13-1.16-1.59c-0.09-0.09-0.23-0.07-0.29,0.03
					c-0.17,0.28-1.18,1.35-1.36,1.71c0.86,0.02,1.71,0.13,2.55,0.32C13.8,56.58,13.91,56.6,13.99,56.54z"/>
			</g>
		</g>
		<g>
			<g>
				<path class="st3" d="M21.51,56.59c-0.22,0-0.22,0.34,0,0.34C21.73,56.93,21.73,56.59,21.51,56.59L21.51,56.59z"/>
			</g>
		</g>
		<g>
			<g>
				<path class="st3" d="M20.84,57.25c-0.14,0-0.14,0.22,0,0.22C20.98,57.47,20.98,57.25,20.84,57.25L20.84,57.25z"/>
			</g>
		</g>
		<g>
			<g>
				<path class="st3" d="M20.26,56.58c-0.17,0-0.17,0.26,0,0.26S20.43,56.58,20.26,56.58L20.26,56.58z"/>
			</g>
		</g>
		<g>
			<g>
				<path class="st3" d="M19.68,57.4c-0.21,0-0.21,0.32,0,0.32C19.89,57.72,19.89,57.4,19.68,57.4L19.68,57.4z"/>
			</g>
		</g>
		<g>
			<g>
				<path class="st3" d="M20.25,57.78c-0.16,0-0.16,0.25,0,0.25C20.41,58.03,20.41,57.78,20.25,57.78L20.25,57.78z"/>
			</g>
		</g>
		<g>
			<g>
				<path class="st3" d="M18.99,58.06c-0.19,0-0.19,0.28,0,0.28C19.18,58.35,19.18,58.06,18.99,58.06L18.99,58.06z"/>
			</g>
		</g>
		<g>
			<g>
				<path class="st3" d="M18.69,57.15c-0.14,0-0.14,0.21,0,0.21C18.83,57.37,18.83,57.15,18.69,57.15L18.69,57.15z"/>
			</g>
		</g>
		<g>
			<g>
				<path class="st3" d="M19.18,56.45c-0.24,0-0.24,0.36,0,0.36S19.42,56.45,19.18,56.45L19.18,56.45z"/>
			</g>
		</g>
		<g>
			<g>
				<path class="st3" d="M18,56.42c-0.24,0-0.24,0.36,0,0.36C18.24,56.78,18.24,56.42,18,56.42L18,56.42z"/>
			</g>
		</g>
		<g>
			<g>
				<path class="st3" d="M18.1,57.74c-0.16,0-0.16,0.24,0,0.24C18.25,57.98,18.25,57.74,18.1,57.74L18.1,57.74z"/>
			</g>
		</g>
		<g>
			<g>
				<path class="st3" d="M17.38,58.14c-0.17,0-0.17,0.26,0,0.26C17.55,58.39,17.55,58.14,17.38,58.14L17.38,58.14z"/>
			</g>
		</g>
		<g>
			<g>
				<path class="st3" d="M17.17,57.32c0,0-0.01,0-0.01,0c-0.2-0.06-0.2,0.29,0,0.23c0,0,0.01,0,0.01,0
					C17.29,57.51,17.29,57.36,17.17,57.32L17.17,57.32z"/>
			</g>
		</g>
		<g>
			<g>
				<path class="st3" d="M16.7,56.42c-0.22,0-0.22,0.33,0,0.33C16.91,56.75,16.91,56.42,16.7,56.42L16.7,56.42z"/>
			</g>
		</g>
		<g>
			<g>
				<path class="st3" d="M16.32,57.83c-0.19,0-0.19,0.28,0,0.28C16.5,58.11,16.5,57.83,16.32,57.83L16.32,57.83z"/>
			</g>
		</g>
		<g>
			<g>
				<path class="st3" d="M15.88,57.03c-0.21,0-0.21,0.33,0,0.33C16.1,57.36,16.1,57.03,15.88,57.03L15.88,57.03z"/>
			</g>
		</g>
		<g>
			<g>
				<path class="st3" d="M15.07,57.31c-0.16,0-0.16,0.24,0,0.24C15.23,57.56,15.23,57.31,15.07,57.31L15.07,57.31z"/>
			</g>
		</g>
		<g>
			<g>
				<path class="st3" d="M15.31,56.38c-0.19,0-0.19,0.29,0,0.29C15.5,56.67,15.5,56.38,15.31,56.38L15.31,56.38z"/>
			</g>
		</g>
		<g>
			<g>
				<path class="st3" d="M14.47,56.56c-0.22,0-0.22,0.34,0,0.34C14.69,56.9,14.69,56.56,14.47,56.56L14.47,56.56z"/>
			</g>
		</g>
		<g>
			<g>
				<path class="st15" d="M21.41,55.92c0.11-0.56,0.16-1.26-0.02-1.81c-0.12-0.38-0.71-0.31-0.71,0.1c0,0.61,0.16,1.14,0.35,1.72
					C21.09,56.08,21.37,56.11,21.41,55.92L21.41,55.92z"/>
			</g>
		</g>
		<g>
			<g>
				<path class="st15" d="M24.36,55.31c0.04-0.23-0.06-0.45-0.19-0.64c-0.16-0.23-0.28-0.52-0.5-0.71c-0.24-0.2-0.6,0.05-0.44,0.34
					c0.11,0.21,0.29,0.42,0.45,0.59c0.16,0.16,0.37,0.29,0.52,0.46C24.24,55.4,24.34,55.38,24.36,55.31L24.36,55.31z"/>
			</g>
		</g>
		<g>
			<g>
				<path class="st15" d="M17.97,55.73c0.11-0.31,0.24-0.61,0.29-0.94c0.03-0.2,0.02-0.41,0.07-0.61c0.13-0.51-0.7-0.72-0.79-0.21
					c-0.1,0.56,0,1.22,0.12,1.76C17.69,55.9,17.92,55.87,17.97,55.73L17.97,55.73z"/>
			</g>
		</g>
		<g>
			<g>
				<path class="st15" d="M14.61,55.6c0.19-0.25,0.3-0.58,0.35-0.88c0.04-0.26,0.15-0.62,0-0.85c-0.09-0.14-0.26-0.22-0.42-0.17
					c-0.01,0-0.03,0.01-0.04,0.01c-0.13,0.04-0.28,0.15-0.3,0.3c-0.05,0.27-0.02,0.52,0,0.79c0.01,0.28-0.01,0.57,0.16,0.81
					C14.42,55.69,14.54,55.69,14.61,55.6L14.61,55.6z"/>
			</g>
		</g>
		<g>
			<g>
				<path class="st15" d="M11.29,55.28c0.26-0.12,0.43-0.38,0.58-0.61c0.17-0.25,0.39-0.51,0.38-0.83
					c-0.01-0.26-0.41-0.41-0.54-0.14c-0.22,0.46-0.54,0.92-0.63,1.42C11.06,55.25,11.17,55.33,11.29,55.28L11.29,55.28z"/>
			</g>
		</g>
		<g>
			<g>
				<path class="st15" d="M20.95,53.44c-0.19,0-0.19,0.3,0,0.3C21.14,53.74,21.14,53.44,20.95,53.44L20.95,53.44z"/>
			</g>
		</g>
		<g>
			<g>
				<path class="st15" d="M23.17,53.5c-0.2,0-0.2,0.3,0,0.3C23.37,53.8,23.37,53.5,23.17,53.5L23.17,53.5z"/>
			</g>
		</g>
		<g>
			<g>
				<path class="st15" d="M17.99,53.3c-0.18,0-0.18,0.27,0,0.27C18.16,53.57,18.16,53.3,17.99,53.3L17.99,53.3z"/>
			</g>
		</g>
		<g>
			<g>
				<path class="st15" d="M14.67,53.41c0.01,0,0.01-0.01,0.02-0.02c0.04-0.03,0.04-0.11,0-0.14c-0.01,0-0.01-0.01-0.02-0.02
					c-0.08-0.07-0.21-0.02-0.21,0.09S14.59,53.48,14.67,53.41L14.67,53.41z"/>
			</g>
		</g>
		<g>
			<g>
				<path class="st15" d="M12.09,53.11c-0.22,0-0.22,0.34,0,0.34C12.32,53.44,12.32,53.11,12.09,53.11L12.09,53.11z"/>
			</g>
		</g>
		<g>
			<g>
				<path class="st3" d="M21.13,54.63c-0.28,0-0.28,0.43,0,0.43S21.41,54.63,21.13,54.63L21.13,54.63z"/>
			</g>
		</g>
		<g>
			<g>
				<path class="st3" d="M23.72,54.55c0.02,0,0.03,0,0.05,0c0,0,0-0.01,0-0.01C23.75,54.54,23.74,54.54,23.72,54.55
					C23.72,54.54,23.72,54.55,23.72,54.55L23.72,54.55z"/>
			</g>
		</g>
		<g>
			<g>
				<path class="st3" d="M23.79,54.39c-0.22,0-0.22,0.34,0,0.34C24.01,54.73,24.01,54.39,23.79,54.39L23.79,54.39z"/>
			</g>
		</g>
		<g>
			<g>
				<path class="st3" d="M17.92,54.49c-0.28,0-0.28,0.43,0,0.43C18.2,54.92,18.2,54.49,17.92,54.49L17.92,54.49z"/>
			</g>
		</g>
		<g>
			<g>
				<path class="st3" d="M14.6,54.4c-0.3,0-0.3,0.45,0,0.45C14.89,54.85,14.89,54.4,14.6,54.4L14.6,54.4z"/>
			</g>
		</g>
		<g>
			<g>
				<path class="st3" d="M11.7,54.1c-0.31,0-0.31,0.47,0,0.47C12.01,54.58,12.01,54.1,11.7,54.1L11.7,54.1z"/>
			</g>
		</g>
		<g>
			<g>
				<path class="st3" d="M17.97,54.16c-0.12,0-0.12,0.18,0,0.18C18.09,54.34,18.09,54.16,17.97,54.16L17.97,54.16z"/>
			</g>
		</g>
		<g>
			<g>
				<path class="st3" d="M21.08,54.31c-0.14,0-0.14,0.21,0,0.21C21.22,54.53,21.22,54.31,21.08,54.31L21.08,54.31z"/>
			</g>
		</g>
		<g>
			<g>
				<path class="st3" d="M23.59,54.35c0,0,0.01,0,0.01,0c0.15,0.04,0.09-0.24-0.03-0.12c0,0,0,0.01-0.01,0.01
					C23.52,54.27,23.54,54.33,23.59,54.35L23.59,54.35z"/>
			</g>
		</g>
		<g>
			<g>
				<path class="st3" d="M23.99,54.74c-0.12,0-0.12,0.18,0,0.18C24.11,54.92,24.11,54.74,23.99,54.74L23.99,54.74z"/>
			</g>
		</g>
		<g>
			<g>
				<path class="st3" d="M21.17,55.15c-0.16,0-0.16,0.24,0,0.24C21.33,55.39,21.33,55.15,21.17,55.15L21.17,55.15z"/>
			</g>
		</g>
		<g>
			<g>
				<path class="st3" d="M17.84,54.99c-0.19,0-0.19,0.28,0,0.28C18.03,55.27,18.03,54.99,17.84,54.99L17.84,54.99z"/>
			</g>
		</g>
		<g>
			<g>
				<path class="st3" d="M14.62,54.07c-0.14,0-0.14,0.22,0,0.22C14.77,54.29,14.77,54.07,14.62,54.07L14.62,54.07z"/>
			</g>
		</g>
		<g>
			<g>
				<path class="st3" d="M14.6,54.96c-0.13,0-0.13,0.2,0,0.2C14.73,55.16,14.73,54.96,14.6,54.96L14.6,54.96z"/>
			</g>
		</g>
		<g>
			<g>
				<path class="st3" d="M11.76,54.02c0.07,0.14,0.29,0.02,0.21-0.12C11.89,53.77,11.7,53.88,11.76,54.02L11.76,54.02z"/>
			</g>
		</g>
		<g>
			<g>
				<path class="st3" d="M11.51,54.58c-0.12,0-0.12,0.19,0,0.19C11.63,54.77,11.63,54.58,11.51,54.58L11.51,54.58z"/>
			</g>
		</g>
		<g>
			<g>
				<path class="st3" d="M20.3,50.82c-0.03-0.08-0.06-0.16-0.16-0.17c-0.02,0-0.04,0.02-0.05,0.04c-0.03,0.07,0.01,0.11,0.03,0.18
					C20.16,50.98,20.34,50.93,20.3,50.82L20.3,50.82z"/>
			</g>
		</g>
		<g>
			<g>
				<path class="st3" d="M19.02,51.15c0.05-0.1,0.08-0.24-0.02-0.33c-0.05-0.04-0.14-0.05-0.17,0.02c-0.04,0.1-0.01,0.19,0.01,0.28
					C18.87,51.2,18.99,51.22,19.02,51.15L19.02,51.15z"/>
			</g>
		</g>
		<g>
			<g>
				<path class="st3" d="M17.83,50.96c0.02-0.05,0.05-0.11,0.08-0.16c0.06-0.11-0.12-0.21-0.17-0.1c-0.03,0.07-0.06,0.14-0.08,0.21
					C17.63,51.02,17.79,51.06,17.83,50.96L17.83,50.96z"/>
			</g>
		</g>
		<g>
			<g>
				<path class="st3" d="M20.08,49.44c-0.08,0.03-0.19,0.11-0.17,0.2c0,0.02,0.01,0.03,0.03,0.04c0.11,0.04,0.2-0.11,0.19-0.21
					C20.12,49.45,20.1,49.43,20.08,49.44L20.08,49.44z"/>
			</g>
		</g>
		<g>
			<g>
				<path class="st3" d="M18.97,49.71c0.1-0.08,0.1-0.28,0.07-0.4c-0.03-0.11-0.2-0.11-0.23,0c-0.03,0.11-0.03,0.31,0.07,0.4
					C18.9,49.73,18.94,49.73,18.97,49.71L18.97,49.71z"/>
			</g>
		</g>
		<g>
			<g>
				<path class="st3" d="M17.95,49.85c0-0.11-0.03-0.21-0.12-0.28c-0.03-0.02-0.07-0.04-0.11-0.01c-0.01,0-0.01,0.01-0.02,0.01
					c-0.03,0.03-0.04,0.07-0.01,0.11c0.04,0.08,0.11,0.13,0.15,0.2C17.87,49.93,17.95,49.91,17.95,49.85L17.95,49.85z"/>
			</g>
		</g>
		<g>
			<g>
				<path class="st3" d="M19.61,51.05c0.11-0.06,0.08-0.22,0.04-0.32c-0.05-0.13-0.25-0.08-0.21,0.05c0.03,0.09,0.03,0.21,0.11,0.27
					C19.58,51.06,19.6,51.05,19.61,51.05L19.61,51.05z"/>
			</g>
		</g>
		<g>
			<g>
				<path class="st3" d="M18.32,51.06c0.03-0.07,0.17-0.4-0.01-0.39c-0.09,0-0.11,0.12-0.12,0.19c-0.02,0.09,0.01,0.17,0.09,0.21
					C18.3,51.08,18.31,51.08,18.32,51.06L18.32,51.06z"/>
			</g>
		</g>
		<g>
			<g>
				<path class="st3" d="M19.59,49.28c-0.16,0-0.26,0.22-0.26,0.36c0,0.08,0.09,0.14,0.17,0.09c0.11-0.06,0.19-0.25,0.17-0.38
					C19.66,49.32,19.63,49.28,19.59,49.28L19.59,49.28z"/>
			</g>
		</g>
		<g>
			<g>
				<path class="st3" d="M18.46,49.69c0.07-0.13,0.06-0.36-0.09-0.42c-0.07-0.03-0.14-0.01-0.17,0.07c-0.04,0.15,0.1,0.26,0.18,0.37
					C18.4,49.73,18.45,49.72,18.46,49.69L18.46,49.69z"/>
			</g>
		</g>
		<g>
			<path class="st0" d="M21.04,50.13c0,0.05-0.04,0.08-0.07,0.11c-0.33,0.29-0.75,0.46-1.19,0.54c-0.43,0.08-0.88,0.08-1.32,0.09
				c-0.29,0-1.17-0.26-1.5-0.5c0.52-0.49,1.21-0.81,1.93-0.88c0.72-0.07,1.46,0.12,2.06,0.51C20.99,50.04,21.04,50.08,21.04,50.13z"
				/>
		</g>
		<g>
			<path class="st3" d="M19.44,50.07c-0.12-0.14-0.32-0.21-0.51-0.18c-0.18,0.04-0.34,0.18-0.4,0.36c-0.01,0.04-0.02,0.08-0.02,0.13
				c0.01,0.24,0.54,0.48,0.9,0.14C19.54,50.39,19.55,50.2,19.44,50.07z"/>
		</g>
		<g>
			<g>
				<path class="st15" d="M19.02,36.91c0.03-0.02,0.06-0.03,0.08-0.04c0.71-0.36,0.4-1.59-0.42-1.51c-0.03,0-0.06,0.01-0.09,0.01
					C17.2,35.49,17.81,37.53,19.02,36.91L19.02,36.91z"/>
			</g>
		</g>
		<g>
			<g>
				<path class="st15" d="M25.73,36.77c-0.97,0-0.97,1.48,0,1.48C26.69,38.25,26.69,36.77,25.73,36.77L25.73,36.77z"/>
			</g>
		</g>
		<g>
			<g>
				<path class="st4" d="M24.17,37.77c-0.63,0.22-1.12,0.55-1.63,0.96c-0.42,0.33,0.2,0.98,0.6,0.59c0.39-0.37,0.76-0.8,1.25-1.06
					C24.66,38.12,24.47,37.66,24.17,37.77L24.17,37.77z"/>
			</g>
		</g>
		<g>
			<g>
				<path class="st4" d="M18.57,37.42c-0.11,0.23-0.15,0.48-0.2,0.72c-0.06,0.32-0.15,0.62-0.19,0.94c-0.08,0.62,1.05,0.64,0.99,0
					c-0.02-0.28-0.06-0.56-0.08-0.85c-0.02-0.28-0.05-0.58-0.21-0.82C18.82,37.32,18.63,37.29,18.57,37.42L18.57,37.42z"/>
			</g>
		</g>
		<g>
			<g>
				<path class="st4" d="M13.32,37.95c0.13,0.14,0.23,0.43,0.35,0.62c0.06,0.09,0.11,0.19,0.16,0.28c0.03,0.05,0.05,0.1,0.08,0.15
					c-0.06-0.1,0.04,0.09,0.06,0.13c0.1,0.2,0.37,0.29,0.57,0.23c0.29-0.08,0.4-0.35,0.36-0.62c-0.05-0.32-0.39-0.5-0.63-0.67
					c-0.11-0.08-0.21-0.19-0.32-0.28c-0.13-0.1-0.26-0.14-0.41-0.2C13.31,37.5,13.18,37.8,13.32,37.95L13.32,37.95z"/>
			</g>
		</g>
		<g>
			<g>
				<path class="st4" d="M21.23,41.37c-0.01,0-0.02-0.01-0.02-0.01c-0.19-0.07-0.34,0.17-0.25,0.33c0,0.01,0.01,0.01,0.01,0.02
					c0.07,0.13,0.26,0.15,0.37,0.05C21.46,41.62,21.39,41.42,21.23,41.37L21.23,41.37z"/>
			</g>
		</g>
		<g>
			<g>
				<path class="st4" d="M20.23,41.35C20.23,41.35,20.23,41.35,20.23,41.35c-0.09,0.1-0.09,0.24-0.01,0.33c0,0,0,0.01,0.01,0.01
					c0.15,0.16,0.42,0.03,0.42-0.17C20.65,41.32,20.37,41.19,20.23,41.35L20.23,41.35z"/>
			</g>
		</g>
		<g>
			<g>
				<path class="st4" d="M19.71,41.27c-0.33,0-0.33,0.5,0,0.5S20.04,41.27,19.71,41.27L19.71,41.27z"/>
			</g>
		</g>
		<g>
			<g>
				<path class="st4" d="M19.01,41.31c-0.3,0-0.3,0.46,0,0.46C19.31,41.77,19.31,41.31,19.01,41.31L19.01,41.31z"/>
			</g>
		</g>
		<g>
			<g>
				<path class="st4" d="M18.35,41.38c-0.3,0-0.3,0.45,0,0.45C18.64,41.84,18.64,41.38,18.35,41.38L18.35,41.38z"/>
			</g>
		</g>
		<g>
			<g>
				<path class="st4" d="M17.75,41.46c-0.26,0-0.26,0.4,0,0.4C18.01,41.86,18.01,41.46,17.75,41.46L17.75,41.46z"/>
			</g>
		</g>
		<g>
			<g>
				<path class="st4" d="M17.13,41.49c-0.01,0-0.02-0.01-0.03-0.01c-0.15-0.05-0.3,0.08-0.3,0.23c0,0.14,0.15,0.28,0.3,0.23
					c0.01,0,0.02-0.01,0.03-0.01C17.35,41.85,17.35,41.56,17.13,41.49L17.13,41.49z"/>
			</g>
		</g>
		<g>
			<g>
				<path class="st4" d="M16.25,41.51c-0.32,0-0.32,0.49,0,0.49C16.58,42,16.58,41.51,16.25,41.51L16.25,41.51z"/>
			</g>
		</g>
		<g>
			<g>
				<path class="st4" d="M15.55,41.62c-0.26,0-0.26,0.4,0,0.4C15.81,42.02,15.81,41.62,15.55,41.62L15.55,41.62z"/>
			</g>
		</g>
		<g>
			<g>
				<path class="st15" d="M18.7,38.67c-0.15,0-0.28,0.13-0.28,0.28c0,0.15,0.13,0.28,0.28,0.28c0.15,0,0.28-0.13,0.28-0.28
					C18.98,38.79,18.85,38.67,18.7,38.67L18.7,38.67z"/>
			</g>
		</g>
		<path class="st4" d="M6.04,36.44c-0.23-0.26-1.22-1.52-1.09-1.83c0.08-0.18,0.25-0.31,0.43-0.4c8.14-4.41,17-7.77,24.89-12.4
			c0.15-0.08,0.3-0.18,0.47-0.18c0.15,0,0.29,0.06,0.43,0.12c1.48,0.67,3.05,1.45,3.78,2.88c0.07,0.15,0.14,0.31,0.13,0.47
			c-0.02,0.24-0.19,0.44-0.39,0.58c-3.51,2.46-6.66,4.05-11.79,6.51c-4.28,2.05-9.39,3.83-13.56,6.09c-0.29,0.16-0.6,0.32-0.93,0.26
			C8.09,38.47,6.65,37.15,6.04,36.44z"/>
		<g>
			<g>
				<path class="st15" d="M22.85,38.69c-0.1,0.03-0.17,0.1-0.2,0.2c-0.05,0.18,0.09,0.36,0.28,0.36c0.16,0,0.29-0.13,0.29-0.28
					C23.21,38.79,23.03,38.63,22.85,38.69L22.85,38.69z"/>
			</g>
		</g>
		<g>
			<g>
				<path class="st15" d="M14.66,38.77c0-0.01-0.01-0.02-0.01-0.02c-0.06-0.1-0.19-0.15-0.3-0.12c-0.12,0.03-0.18,0.13-0.19,0.25
					c0,0.01,0,0.02,0,0.03c-0.01,0.18,0.18,0.3,0.34,0.26C14.67,39.11,14.75,38.92,14.66,38.77L14.66,38.77z"/>
			</g>
		</g>
		<g>
			<g>
				<path class="st15" d="M22.26,39.47c-0.07,0.06-0.16,0.11-0.23,0.18c-0.07,0.07-0.16,0.14-0.16,0.24c0,0.05,0.04,0.1,0.1,0.1
					c0.2-0.01,0.29-0.3,0.39-0.44C22.42,39.48,22.32,39.42,22.26,39.47L22.26,39.47z"/>
			</g>
		</g>
		<g>
			<g>
				<path class="st15" d="M22.64,39.65c-0.03,0.02-0.07,0.03-0.1,0.05c-0.03,0.02-0.06,0.05-0.09,0.08
					c-0.06,0.05-0.12,0.14-0.15,0.22c-0.04,0.13,0.12,0.24,0.23,0.18c0.07-0.04,0.14-0.14,0.16-0.22c0.01-0.04,0.02-0.08,0.02-0.12
					c0.01-0.03,0-0.08,0.01-0.1C22.75,39.68,22.69,39.61,22.64,39.65L22.64,39.65z"/>
			</g>
		</g>
		<g>
			<g>
				<path class="st15" d="M22.12,39.15c-0.1,0-0.17,0-0.26,0.05c-0.09,0.05-0.18,0.11-0.23,0.2c-0.05,0.1,0.04,0.27,0.17,0.21
					c0.09-0.04,0.15-0.09,0.22-0.16c0.03-0.03,0.06-0.06,0.09-0.1c0.03-0.04,0.04-0.08,0.06-0.12
					C22.19,39.2,22.17,39.15,22.12,39.15L22.12,39.15z"/>
			</g>
		</g>
		<g>
			<g>
				<path class="st15" d="M19.13,39.51c-0.04,0.05-0.06,0.08-0.08,0.14c-0.01,0.07,0,0.15,0.02,0.22c0.05,0.13,0.27,0.16,0.3,0
					c0.03-0.15-0.02-0.3-0.16-0.37C19.19,39.49,19.15,39.49,19.13,39.51L19.13,39.51z"/>
			</g>
		</g>
		<g>
			<g>
				<path class="st15" d="M18.61,39.7c-0.06,0.06-0.06,0.15-0.04,0.22c0.02,0.08-0.01,0.16,0.03,0.24c0.01,0.03,0.05,0.05,0.08,0.05
					c0.23-0.02,0.21-0.44,0.03-0.52C18.67,39.67,18.63,39.67,18.61,39.7L18.61,39.7z"/>
			</g>
		</g>
		<g>
			<g>
				<path class="st15" d="M18.29,39.63c-0.06,0.03-0.11,0.09-0.15,0.14c-0.05,0.06-0.11,0.12-0.13,0.19
					c-0.03,0.08,0.06,0.18,0.15,0.15c0.15-0.06,0.3-0.3,0.21-0.45C18.36,39.62,18.32,39.61,18.29,39.63L18.29,39.63z"/>
			</g>
		</g>
		<g>
			<g>
				<path class="st15" d="M14.91,39.38c-0.03,0.15,0.02,0.34,0.15,0.42c0.08,0.05,0.19,0.01,0.21-0.08
					c0.04-0.18-0.11-0.34-0.28-0.39C14.96,39.32,14.92,39.34,14.91,39.38L14.91,39.38z"/>
			</g>
		</g>
		<g>
			<g>
				<path class="st15" d="M15.18,39.15c0.06,0.06,0.11,0.1,0.18,0.14c0.1,0.05,0.17,0.09,0.28,0.04c0.08-0.04,0.08-0.15,0.03-0.21
					c-0.1-0.12-0.31-0.06-0.45-0.05C15.18,39.07,15.15,39.12,15.18,39.15L15.18,39.15z"/>
			</g>
		</g>
		<g>
			<g>
				<path class="st15" d="M14.48,39.61c0,0.07-0.02,0.14-0.03,0.22c-0.03,0.2,0.27,0.2,0.25,0.03c-0.01-0.11-0.03-0.2-0.09-0.28
					C14.57,39.52,14.48,39.54,14.48,39.61L14.48,39.61z"/>
			</g>
		</g>
		<g>
			<g>
				<path class="st15" d="M22,36.3c-0.19,0-0.19,0.29,0,0.29C22.19,36.59,22.19,36.3,22,36.3L22,36.3z"/>
			</g>
		</g>
		<g>
			<g>
				<path class="st15" d="M24.23,34.23c-0.22,0-0.22,0.34,0,0.34S24.45,34.23,24.23,34.23L24.23,34.23z"/>
			</g>
		</g>
		<g>
			<g>
				<path class="st15" d="M27.57,34.87c-0.26,0-0.26,0.4,0,0.4C27.84,35.26,27.84,34.87,27.57,34.87L27.57,34.87z"/>
			</g>
		</g>
		<g>
			<g>
				<path class="st15" d="M28.1,37.38c-0.26,0-0.26,0.4,0,0.4C28.36,37.77,28.36,37.38,28.1,37.38L28.1,37.38z"/>
			</g>
		</g>
		<g>
			<g>
				<path class="st15" d="M22.59,34c0-0.01,0.01-0.01,0.01-0.02c0.07-0.15-0.07-0.29-0.22-0.22c-0.01,0-0.01,0.01-0.02,0.01
					c-0.1,0.05-0.1,0.2-0.04,0.27C22.39,34.11,22.55,34.1,22.59,34L22.59,34z"/>
			</g>
		</g>
		<g>
			<g>
				<path class="st15" d="M19.64,34.31c-0.29,0-0.29,0.44,0,0.44C19.93,34.75,19.93,34.31,19.64,34.31L19.64,34.31z"/>
			</g>
		</g>
		<g>
			<g>
				<path class="st15" d="M29.73,33.92c-0.01,0-0.01,0-0.02,0c0.04,0,0.07,0.01,0.11,0.01c0,0-0.01,0-0.01-0.01
					c-0.13-0.06-0.26,0.06-0.19,0.19c0.02,0.03,0.04,0.06,0.08,0.07c0.09,0.04,0.19,0.01,0.22-0.09
					C29.95,33.99,29.84,33.89,29.73,33.92L29.73,33.92z"/>
			</g>
		</g>
		<g>
			<g>
				<path class="st15" d="M27.99,32.77c-0.01,0-0.01,0-0.02,0c0.04,0.01,0.07,0.01,0.11,0.02c0,0-0.01,0-0.01-0.01
					c-0.13-0.07-0.26,0.06-0.19,0.19c0.02,0.03,0.04,0.06,0.08,0.07c0.09,0.04,0.19,0.01,0.22-0.09
					C28.2,32.84,28.1,32.75,27.99,32.77L27.99,32.77z"/>
			</g>
		</g>
		<g>
			<g>
				<path class="st15" d="M30.7,35.97c-0.01,0-0.01,0-0.02,0c0.04,0.01,0.07,0.01,0.11,0.02c0,0-0.01,0-0.01-0.01
					c-0.13-0.07-0.26,0.06-0.19,0.19c0.02,0.03,0.04,0.06,0.07,0.07c0.09,0.04,0.19,0.01,0.22-0.09
					C30.91,36.03,30.81,35.94,30.7,35.97L30.7,35.97z"/>
			</g>
		</g>
		<g>
			<g>
				<path class="st15" d="M32.6,33.93c-0.01,0-0.01,0-0.02,0c0.04,0,0.07,0.01,0.11,0.01c0,0-0.01,0-0.01-0.01
					c-0.13-0.06-0.26,0.06-0.19,0.19c0.02,0.03,0.04,0.06,0.07,0.07c0.09,0.04,0.19,0.01,0.22-0.09
					C32.82,33.99,32.71,33.9,32.6,33.93L32.6,33.93z"/>
			</g>
		</g>
		<g>
			<g>
				<path class="st15" d="M25.53,32.75c-0.19,0-0.19,0.29,0,0.29C25.72,33.04,25.72,32.75,25.53,32.75L25.53,32.75z"/>
			</g>
		</g>
		<g>
			<g>
				<path class="st15" d="M25.39,35.86c-0.19,0-0.19,0.29,0,0.29C25.58,36.15,25.58,35.86,25.39,35.86L25.39,35.86z"/>
			</g>
		</g>
		<g>
			<g>
				<path class="st15" d="M15.78,36.49c-0.18,0-0.18,0.28,0,0.28C15.96,36.77,15.96,36.49,15.78,36.49L15.78,36.49z"/>
			</g>
		</g>
		<g>
			<g>
				<path class="st15" d="M11.53,38.46c-0.18,0-0.18,0.28,0,0.28C11.72,38.74,11.72,38.46,11.53,38.46L11.53,38.46z"/>
			</g>
		</g>
		<g>
			<g>
				<path class="st4" d="M29.89,32.25c-0.27,0-0.5,0.22-0.5,0.49c0,0.27,0.23,0.49,0.5,0.49c0.27,0,0.5-0.22,0.5-0.49
					C30.39,32.47,30.16,32.25,29.89,32.25L29.89,32.25z"/>
			</g>
		</g>
		<g>
			<g>
				<path class="st4" d="M30.31,31.59c0-0.01-0.01-0.01-0.01-0.02c-0.06-0.14-0.27-0.2-0.41-0.16c-0.2,0.05-0.3,0.25-0.25,0.44
					c0,0.01,0,0.01,0,0.02c0.04,0.19,0.27,0.3,0.45,0.25C30.34,32.05,30.41,31.8,30.31,31.59L30.31,31.59z"/>
			</g>
		</g>
		<g>
			<g>
				<path class="st4" d="M25.27,29.97c0-0.01-0.01-0.02-0.01-0.02c-0.06-0.1-0.2-0.14-0.3-0.08c-0.04,0.02-0.06,0.04-0.08,0.08
					c-0.06,0.1-0.02,0.24,0.08,0.3c0.01,0.01,0.02,0.01,0.03,0.02C25.17,30.35,25.38,30.15,25.27,29.97L25.27,29.97z"/>
			</g>
		</g>
		<g>
			<g>
				<path class="st4" d="M20.21,29c0-0.01-0.01-0.02-0.01-0.02c-0.06-0.1-0.2-0.14-0.3-0.08c-0.03,0.02-0.06,0.04-0.08,0.08
					c-0.06,0.1-0.02,0.24,0.08,0.3c0.01,0.01,0.02,0.01,0.03,0.02C20.11,29.39,20.31,29.19,20.21,29L20.21,29z"/>
			</g>
		</g>
		<g>
			<g>
				<path class="st4" d="M20.26,29.96c0,0-0.01-0.01-0.01-0.01c-0.37-0.22-0.86,0.06-0.86,0.48c0,0.2,0.11,0.39,0.28,0.49
					c0.24,0.14,0.49,0.07,0.69-0.09c0,0,0.01-0.01,0.01-0.01c0.11-0.09,0.16-0.26,0.16-0.39C20.53,30.24,20.43,30.06,20.26,29.96
					L20.26,29.96z"/>
			</g>
		</g>
		<g>
			<g>
				<path class="st15" d="M27.08,23.3c-0.05,0.07-0.08,0.15-0.11,0.23c-0.1,0.29,0.07,0.63,0.32,0.78c0.26,0.15,0.63,0.12,0.85-0.11
					c0.01-0.01,0.02-0.02,0.04-0.03c-0.05,0.04-0.1,0.07-0.14,0.11c0.01,0,0.01-0.01,0.02-0.01c0.4-0.22,0.46-0.79,0.15-1.1
					c-0.13-0.13-0.32-0.21-0.5-0.21c-0.13,0-0.25,0.03-0.36,0.1C27.23,23.11,27.14,23.19,27.08,23.3L27.08,23.3z"/>
			</g>
		</g>
		<g>
			<g>
				<path class="st15" d="M12.96,37.24c0.05-0.07,0.08-0.15,0.11-0.23c0.1-0.29-0.07-0.63-0.32-0.78c-0.26-0.15-0.63-0.12-0.85,0.11
					c-0.01,0.01-0.02,0.02-0.04,0.03c0.05-0.04,0.1-0.07,0.14-0.11c-0.01,0-0.02,0.01-0.02,0.01c-0.4,0.22-0.46,0.79-0.14,1.1
					c0.13,0.13,0.32,0.21,0.5,0.21c0.13,0,0.25-0.03,0.36-0.1C12.82,37.43,12.9,37.35,12.96,37.24L12.96,37.24z"/>
			</g>
		</g>
		<g>
			<g>
				<path class="st15" d="M6.11,33.04c-0.26,0-0.26,0.4,0,0.4C6.37,33.44,6.37,33.04,6.11,33.04L6.11,33.04z"/>
			</g>
		</g>
		<g>
			<g>
				<path class="st15" d="M7.06,32.25c-0.26,0-0.26,0.4,0,0.4C7.32,32.64,7.32,32.25,7.06,32.25L7.06,32.25z"/>
			</g>
		</g>
		<g>
			<g>
				<path class="st15" d="M28.1,21.48c-0.26,0-0.26,0.4,0,0.4C28.36,21.88,28.36,21.48,28.1,21.48L28.1,21.48z"/>
			</g>
		</g>
		<g>
			<path class="st15" d="M19.51,32.96c1.3,0,2.38-1.07,2.38-2.34c0-1.28-1.08-2.35-2.38-2.35c-1.3,0-2.38,1.07-2.38,2.35
				C17.13,31.89,18.22,32.96,19.51,32.96L19.51,32.96z"/>
		</g>
		<g>
			<path class="st15" d="M15.37,33.3c0.45,0,0.84-0.37,0.84-0.82c0-0.45-0.38-0.82-0.84-0.82c-0.45,0-0.83,0.37-0.83,0.82
				C14.54,32.93,14.92,33.3,15.37,33.3L15.37,33.3z"/>
		</g>
		<g>
			<path class="st15" d="M12.63,34.01c0.67,0,0.67-1.03,0-1.03C11.96,32.98,11.96,34.01,12.63,34.01L12.63,34.01z"/>
		</g>
		<g>
			<path class="st15" d="M23.77,29.85c1.15,0,1.15-1.76,0-1.76C22.62,28.09,22.62,29.85,23.77,29.85L23.77,29.85z"/>
		</g>
		<g>
			<path class="st15" d="M26.22,28.02c0.39,0,0.39-0.6,0-0.6C25.83,27.42,25.83,28.02,26.22,28.02L26.22,28.02z"/>
		</g>
		<g>
			<path class="st5" d="M19.47,31.39c1.03,0,1.03-1.57,0-1.57C18.45,29.82,18.45,31.39,19.47,31.39L19.47,31.39z"/>
		</g>
		<g>
			<path class="st5" d="M19.57,29.65c0.51,0,0.51-0.77,0-0.77C19.07,28.88,19.07,29.65,19.57,29.65L19.57,29.65z"/>
		</g>
		<g>
			<path class="st5" d="M18.4,29.92c0.48,0,0.48-0.73,0-0.73C17.92,29.18,17.92,29.92,18.4,29.92L18.4,29.92z"/>
		</g>
		<g>
			<path class="st5" d="M18.01,31.09c0.5,0,0.5-0.77,0-0.77C17.5,30.32,17.5,31.09,18.01,31.09L18.01,31.09z"/>
		</g>
		<g>
			<path class="st5" d="M18.79,32.17c0.41,0,0.41-0.62,0-0.62C18.38,31.55,18.38,32.17,18.79,32.17L18.79,32.17z"/>
		</g>
		<g>
			<path class="st5" d="M20.28,31.74c-0.02-0.02-0.03-0.03-0.05-0.05c-0.09-0.1-0.26-0.1-0.35,0c-0.02,0.02-0.03,0.03-0.05,0.05
				c-0.19,0.19-0.05,0.53,0.22,0.53C20.34,32.27,20.48,31.93,20.28,31.74L20.28,31.74z"/>
		</g>
		<g>
			<path class="st5" d="M20.84,31.36c0.48,0,0.48-0.73,0-0.73C20.36,30.63,20.36,31.36,20.84,31.36L20.84,31.36z"/>
		</g>
		<g>
			<path class="st5" d="M20.74,30.15c0.53,0,0.53-0.81,0-0.81C20.21,29.34,20.21,30.15,20.74,30.15L20.74,30.15z"/>
		</g>
		<g>
			<path class="st5" d="M9.99,34.8c0.2,0.41,0.87,0.13,0.74-0.31C10.58,33.94,9.73,34.26,9.99,34.8L9.99,34.8z"/>
		</g>
		<g>
			<path class="st5" d="M8.82,35.77c0.71,0,0.71-1.08,0-1.08C8.11,34.69,8.11,35.77,8.82,35.77L8.82,35.77z"/>
		</g>
		<g>
			<path class="st5" d="M7.26,36.26c0.46,0,0.46-0.71,0-0.71C6.8,35.55,6.8,36.26,7.26,36.26L7.26,36.26z"/>
		</g>
		<g>
			<path class="st5" d="M28.52,26.46c-0.02,0.02-0.03,0.05-0.05,0.07c0.29-0.36-0.15-0.8-0.52-0.51c-0.11,0.09-0.16,0.21-0.14,0.34
				C27.86,26.75,28.38,26.86,28.52,26.46L28.52,26.46z"/>
		</g>
		<g>
			<path class="st5" d="M29.83,26.12c0.68,0,0.68-1.04,0-1.04C29.15,25.08,29.15,26.12,29.83,26.12L29.83,26.12z"/>
		</g>
		<g>
			<path class="st5" d="M31.4,25.18c0.59,0,0.59-0.89,0-0.89C30.81,24.29,30.81,25.18,31.4,25.18L31.4,25.18z"/>
		</g>
	</g>
	<g>
		<g>
			<g>
				<path class="st3" d="M34.5,48.83c0-0.1,0.04-0.24,0.04-0.34c0-0.1,0-0.2-0.01-0.3c-0.04-0.34-0.16-0.66-0.42-0.89
					c0.23-0.01,0.82-0.01,1.06,0c-0.26,0.23-0.38,0.55-0.42,0.89c-0.01,0.1-0.01,0.2-0.01,0.3c0,0.1,0.04,0.24,0.04,0.34H34.5z"/>
			</g>
		</g>
		<g>
			<path class="st3" d="M34.59,48.45c-0.21-0.31-0.57-0.53-0.96-0.52c-0.38,0.01-0.75,0.28-0.82,0.65c-0.06,0.32,0.1,0.66,0.32,0.9
				c0.23,0.24,0.54,0.4,0.82,0.58c0.29,0.18,0.69,0.65,0.69,0.65s0.44-0.45,0.68-0.63c0.27-0.2,0.6-0.35,0.82-0.59
				c0.23-0.24,0.39-0.58,0.32-0.9c-0.07-0.37-0.44-0.64-0.82-0.65c-0.38-0.01-0.75,0.21-0.96,0.52H34.59z"/>
		</g>
	</g>
	<g>
		<g>
			<g>
				<path class="st3" d="M5.1,10.98c0,0.1-0.04,0.24-0.04,0.34c0,0.1,0,0.2,0.01,0.3c0.04,0.34,0.16,0.67,0.42,0.9
					c-0.23,0.01-0.82,0.01-1.06,0c0.26-0.23,0.38-0.55,0.42-0.9c0.01-0.1,0.01-0.2,0.01-0.3c0-0.1-0.04-0.24-0.04-0.34H5.1z"/>
			</g>
		</g>
		<g>
			<path class="st3" d="M5.02,11.36c0.21,0.31,0.58,0.53,0.96,0.52c0.38-0.01,0.75-0.29,0.82-0.65c0.06-0.32-0.09-0.66-0.32-0.9
				c-0.23-0.24-0.54-0.4-0.82-0.58C5.37,9.56,4.97,9.1,4.97,9.1S4.53,9.55,4.28,9.73c-0.27,0.2-0.6,0.35-0.82,0.59
				c-0.23,0.24-0.39,0.58-0.32,0.9c0.07,0.37,0.44,0.64,0.82,0.65c0.38,0.01,0.75-0.21,0.96-0.52H5.02z"/>
		</g>
	</g>
	<g>
		<path class="st3" d="M6.19,2.93v3.85c0,0.67-0.15,1.14-0.46,1.41c-0.31,0.27-0.71,0.4-1.22,0.4c-0.27,0-0.54-0.04-0.82-0.11V7.9
			c0.27,0.06,0.51,0.08,0.73,0.08c0.31,0,0.54-0.05,0.69-0.14c0.15-0.09,0.25-0.21,0.3-0.36C5.47,7.34,5.49,7.1,5.49,6.78V2.93H6.19
			z"/>
	</g>
	<g>
		<path class="st3" d="M33.54,57.15v-3.85c0-0.67,0.15-1.14,0.46-1.4c0.31-0.27,0.71-0.4,1.22-0.4c0.27,0,0.55,0.04,0.82,0.11v0.57
			c-0.27-0.06-0.51-0.08-0.73-0.08c-0.31,0-0.54,0.05-0.69,0.14c-0.15,0.09-0.25,0.21-0.3,0.36c-0.05,0.15-0.08,0.38-0.08,0.71v3.85
			H33.54z"/>
	</g>
	<g>
		<g>
			<path class="st5" d="M12.77,56.98H5.92c-1.62,0-2.93-1.38-2.93-3.07V15.13c0-0.05,0.04-0.09,0.09-0.09
				c0.05,0,0.09,0.04,0.09,0.09v38.78c0,1.6,1.23,2.89,2.75,2.89h6.84c0.05,0,0.09,0.04,0.09,0.09
				C12.86,56.94,12.82,56.98,12.77,56.98z"/>
		</g>
		<g>
			<path class="st5" d="M31.9,56.98h-6.97c-0.05,0-0.09-0.04-0.09-0.09c0-0.05,0.04-0.09,0.09-0.09h6.97c0.05,0,0.09,0.04,0.09,0.09
				C31.99,56.94,31.95,56.98,31.9,56.98z"/>
		</g>
		<g>
			<path class="st5" d="M36.66,45.24c-0.05,0-0.09-0.04-0.09-0.09V6.17c0-1.6-1.23-2.89-2.75-2.89H27.3c-0.05,0-0.09-0.04-0.09-0.09
				c0-0.05,0.04-0.09,0.09-0.09h6.52c1.62,0,2.93,1.38,2.93,3.07v38.98C36.75,45.19,36.71,45.24,36.66,45.24z"/>
		</g>
		<g>
			<path class="st5" d="M16.89,3.28H8.12c-0.05,0-0.09-0.04-0.09-0.09c0-0.05,0.04-0.09,0.09-0.09h8.76c0.05,0,0.09,0.04,0.09,0.09
				C16.98,3.24,16.94,3.28,16.89,3.28z"/>
		</g>
	</g>
</g>
</svg>
