<?xml version="1.0" encoding="utf-8"?>
<!-- Generator: Adobe Illustrator 26.3.1, SVG Export Plug-In . SVG Version: 6.00 Build 0)  -->
<svg version="1.1" id="Layer_1" xmlns="http://www.w3.org/2000/svg" xmlns:xlink="http://www.w3.org/1999/xlink" x="0px" y="0px"
	 viewBox="0 0 40 60" style="enable-background:new 0 0 40 60;" xml:space="preserve">
<style type="text/css">
	.st0{fill:#FFFFFF;}
	.st1{fill:#2D2D2D;}
	.st2{fill:#990028;}
	.st3{fill:#222272;}
	.st4{fill:#F70032;}
	.st5{fill:#FFD6A1;}
	.st6{fill:#0C0A35;}
	.st7{clip-path:url(#SVGID_00000036960438154153567440000013590843788631959202_);}
	.st8{fill:#D6002B;}
	.st9{clip-path:url(#SVGID_00000177447037182317665370000016983770748258705074_);}
	.st10{clip-path:url(#SVGID_00000068660094582306388680000016103756326086768803_);}
	.st11{clip-path:url(#SVGID_00000095313350145375033820000000335106669416404129_);}
	.st12{clip-path:url(#SVGID_00000024724689427287157680000002095392475714644634_);}
	.st13{fill:#FCC07E;}
	.st14{clip-path:url(#SVGID_00000052790809769364247520000002002270392433498020_);}
	.st15{clip-path:url(#SVGID_00000147217933944413491910000004549867302382657956_);}
	.st16{clip-path:url(#SVGID_00000177452248220699675170000006032727593356925849_);}
	.st17{clip-path:url(#SVGID_00000003787969106648602620000016982363632124595357_);}
	.st18{clip-path:url(#SVGID_00000026843088914734654840000002548941125833609384_);}
</style>
<g>
	<g>
		<path class="st0" d="M36.54,59.91H3.46c-1.86,0-3.37-1.49-3.37-3.32V3.41c0-1.84,1.51-3.32,3.37-3.32h33.08
			c1.86,0,3.37,1.49,3.37,3.32v53.17C39.91,58.42,38.4,59.91,36.54,59.91z"/>
		<path class="st1" d="M36.54,60H3.46C1.55,60,0,58.47,0,56.59V3.41C0,1.53,1.55,0,3.46,0h33.08C38.45,0,40,1.53,40,3.41v53.17
			C40,58.47,38.45,60,36.54,60z M3.46,0.18c-1.81,0-3.28,1.45-3.28,3.23v53.17c0,1.78,1.47,3.23,3.28,3.23h33.08
			c1.81,0,3.28-1.45,3.28-3.23V3.41c0-1.78-1.47-3.23-3.28-3.23H3.46z"/>
	</g>
	<g>
		<g>
			<path class="st2" d="M17.5,19.67c-0.82,0.12-1.64,0.26-2.41,0.51c-1.66,0.54-2.97,1.58-3.87,2.76c-0.9,1.18-1.42,2.51-1.81,3.84
				c-1.31,0.46-2.86,2.41-3.12,3.48c-1.01,4.2-0.25,5.95,4.4,8.24c1.03,0.51,15.83,2.96,19.86-0.14c2.58-1.99,3.57-3.04,3.66-6.29
				c0.09-3.24,1.42-6.68-0.58-9.55c-0.38-0.55-0.84-1.07-1.42-1.51c-1.73-1.3-4.32-1.65-6.76-1.75
				C22.79,19.16,20.12,19.3,17.5,19.67z"/>
		</g>
		<g>
			<path class="st2" d="M22.25,40.26c0.82-0.12,1.64-0.26,2.41-0.51c1.66-0.54,2.97-1.58,3.87-2.76c0.9-1.18,1.42-2.51,1.82-3.84
				c1.31-0.46,2.86-2.41,3.12-3.48c1.01-4.2,0.25-5.95-4.4-8.24c-1.03-0.51-13.17-3.45-20.35,0.81c-1.14,0.68-2.99,2.02-3.08,5.26
				c-0.09,3.24-1.51,7.04,0.49,9.91c0.38,0.55,0.84,1.07,1.42,1.51c1.73,1.3,4.32,1.65,6.76,1.75
				C16.95,40.76,19.63,40.63,22.25,40.26z"/>
		</g>
		<path class="st3" d="M9.27,31.73c-1.45,0.82-2.86,0.53-4.3,1.35c-0.51,0.94-0.23,3.49,0.37,4.45c1.24,1.98,4.57,2.25,5.56,1.91
			c2.12-0.73,2.76-1.98,4.69-3.1c4.26-2.47,8.93-4.24,12.98-7.01c2.04-1.4,4.58-1.05,5.92-3.11c0.66-1.01-0.07-2.75-1.1-4.12
			c-0.79-1.06-1.75-2.2-3.08-2.31c-1.38-0.12-3.75,0.66-4.92,1.4c-1.17,0.74-2.19,1.68-3.31,2.49c-2.7,1.96-5.93,3.12-8.61,5.11
			c-0.77,0.57-1.48,1.2-2.26,1.75C10.6,30.98,9.93,31.35,9.27,31.73z"/>
		<path class="st4" d="M13.67,35.03c0.77-0.58,1.56-1.54,1.6-2.49c0.02-0.71-0.15-1.81-0.82-2.67c-0.31-0.4-0.66-0.62-0.67-1.31
			c0.04-0.14,0.07-0.25,0.08-0.31c0.89-4.51,0.12-4.63-1.04-5.17c-0.82-0.38-1.28,0.28-1.49,0.48c-1.16,1.14-1.5,1.63-1.67,2.42
			c-0.06,0.31-0.02,0.66-0.22,0.9c-0.14,0.16-0.36,0.23-0.55,0.32c-0.15,0.07-0.32,0.18-0.49,0.3c-0.81,0.43-1.53,1.09-1.73,1.23
			c-0.31,0.21-0.63,0.35-1.19,0.96c-0.78,0.86-0.92,2.33-0.9,2.69c0.07,1.3,0.75,2.2,1.6,2.65C7.54,35.72,11.3,36.8,13.67,35.03z"/>
		<path class="st4" d="M26.18,25.04c-0.77,0.57-1.57,1.53-1.62,2.48c-0.03,0.7,0.14,1.82,0.8,2.68c0.31,0.4,0.66,0.63,0.66,1.32
			c-0.04,0.14-0.07,0.25-0.08,0.31c-0.93,4.5-0.16,4.63,0.99,5.17c0.82,0.39,1.29-0.27,1.49-0.47c1.17-1.13,1.52-1.62,1.69-2.4
			c0.07-0.31,0.02-0.66,0.23-0.9c0.14-0.16,0.36-0.22,0.55-0.31c0.15-0.07,0.32-0.18,0.5-0.3c0.81-0.42,1.54-1.08,1.74-1.22
			c0.31-0.21,0.63-0.34,1.2-0.95c0.79-0.85,0.94-2.32,0.92-2.68c-0.06-1.3-0.73-2.21-1.58-2.66C32.31,24.4,28.57,23.28,26.18,25.04z
			"/>
		<g>
			<path class="st5" d="M15.97,21.06c0.57,0.56,1.45,0.66,2.25,0.7c0.48,0.02,0.96,0.04,1.45,0.05c0.33,0,0.67,0,1-0.06
				c0.46-0.09,0.9-0.29,1.32-0.51c0.81-0.41,1.61-0.84,2.39-1.31c0.22-0.13,0.44-0.27,0.63-0.44c0.41-0.39,0.6-0.95,0.71-1.5
				c0.4-1.94,0.04-3.95-0.33-5.9c-0.05-0.27-0.1-0.55-0.24-0.79c-0.28-0.5-0.86-0.76-1.42-0.91c-0.91-0.24-1.87-0.25-2.82-0.21
				c-1.55,0.07-3.11,0.3-4.55,0.86c0.02,0.42,0.04,0.83,0.07,1.25c0,0.08,0.01,0.17-0.02,0.25c-0.04,0.14-0.17,0.24-0.29,0.34
				c-0.99,0.82-1.61,1.98-2.2,3.12c-0.25,0.48-0.51,1-0.46,1.54c0.25,0.13,0.57,0.13,0.83,0.02c0.24-0.11,0.48-0.31,0.73-0.22
				c0.23,0.09,0.28,0.38,0.29,0.63c0.01,0.54-0.03,1.09,0.03,1.63C15.41,20.12,15.59,20.67,15.97,21.06z"/>
		</g>
		<g>
			<path class="st6" d="M17.28,13.41c-0.11-0.53-0.17-1.05-0.08-1.41c0.02-0.07,0.02-0.15,0.07-0.21c0.07-0.09,0.2-0.1,0.31-0.11
				c1.05-0.06,2.12-0.32,3.16-0.18c2,0.27,1.87,1,1.89,1.22c0.01,0.07-0.14,0.08-0.2,0.12c-0.02,0.02-0.05,0.02-0.08,0.03
				c-0.88,0.16-1.76,0.31-2.64,0.47c-0.31,0.05-0.61,0.11-0.92,0.15c-0.43,0.06-0.8,0.23-1.24,0.23
				C17.52,13.73,17.35,13.74,17.28,13.41z"/>
		</g>
		<g>
			<path class="st0" d="M18.89,12.51c1.2-0.51,2.55-0.3,3.75,0.21c0,0.13-0.08,0.24-0.16,0.33c-0.61,0.7-1.48,1.17-2.41,1.28
				c-0.93,0.12-1.9-0.12-2.66-0.65C17.51,13.44,17.95,12.92,18.89,12.51z"/>
		</g>
		<g>
			<path class="st6" d="M19.98,13.99c0.29-0.02,0.6-0.16,0.74-0.45c0.17-0.36,0-0.87-0.34-1.01c-0.17-0.07-0.35-0.06-0.53-0.03
				c-0.3,0.05-0.63,0.18-0.75,0.49c-0.1,0.26-0.01,0.57,0.18,0.76C19.47,13.93,19.73,14,19.98,13.99z"/>
		</g>
		<g>
			<defs>
				<path id="SVGID_1_" d="M26.23,20.11c-0.15,2.31-0.69,4.58-2.67,5.83c-1.24,0.78-3.2,1.17-4.66,1.39
					c-0.51,0.08-1.02,0.15-1.53,0.15c-0.75,0-1.48-0.17-2.21-0.34c-0.1-0.02-0.21-0.05-0.29-0.12c-0.16-0.14-0.14-0.4-0.09-0.61
					c0.09-0.41,0.21-0.81,0.35-1.2c0.52-1.46,0.58-2.1,0.51-4.45c0-0.12-0.14-0.82-0.1-0.93c0.08-0.23,0.31-0.04,0.56-0.07
					c2.88-0.34,5.95,0.54,8.81,0.09c0.26-0.04,0.52-0.09,0.77-0.05C25.93,19.83,26.25,19.86,26.23,20.11z"/>
			</defs>
			<use xlink:href="#SVGID_1_"  style="overflow:visible;fill:#D6002B;"/>
			<clipPath id="SVGID_00000111902080711432943560000004461922212354986156_">
				<use xlink:href="#SVGID_1_"  style="overflow:visible;"/>
			</clipPath>
			<g style="clip-path:url(#SVGID_00000111902080711432943560000004461922212354986156_);">
				<g>
					<path class="st6" d="M14.26,27.66c0.59-0.14,0.87-0.52,1.16-1.02c0.38-0.68,0.84-1.42,0.97-2.19c0.14-0.85,0.17-1.77,0.25-2.64
						c0.08-0.9-0.26-1.76-0.09-2.67c0.03-0.15-0.18-0.26-0.26-0.11c-0.23,0.42-0.18,0.87-0.12,1.33c0.11,0.95,0.08,1.77-0.06,2.73
						c-0.14,0.88-0.07,1.59-0.51,2.41c-0.39,0.72-0.64,1.55-1.4,1.98C14.09,27.54,14.16,27.68,14.26,27.66L14.26,27.66z"/>
				</g>
			</g>
			<g style="clip-path:url(#SVGID_00000111902080711432943560000004461922212354986156_);">
				<g>
					<path class="st6" d="M14.99,28.1c0.53-0.46,1.05-0.78,1.49-1.36c0.51-0.68,0.77-1.55,0.96-2.37c0.42-1.82,0.22-3.56-0.08-5.37
						c-0.02-0.15-0.22-0.11-0.27,0c-0.22,0.58-0.04,1.12,0.08,1.72c0.21,1.01,0.05,2.22-0.11,3.23c-0.15,0.92-0.46,1.79-0.96,2.57
						c-0.35,0.56-0.97,0.9-1.22,1.52C14.84,28.1,14.94,28.14,14.99,28.1L14.99,28.1z"/>
				</g>
			</g>
			<g style="clip-path:url(#SVGID_00000111902080711432943560000004461922212354986156_);">
				<g>
					<path class="st6" d="M16.22,28.19c1.43-0.88,2.03-2.26,2.41-3.84c0.21-0.86,0.34-1.75,0.37-2.63c0.04-1.05-0.45-2.01-0.3-3.07
						c0.02-0.17-0.19-0.28-0.29-0.12c-0.3,0.47-0.21,0.97-0.1,1.5c0.24,1.16,0.29,2.13,0.09,3.31c-0.3,1.81-0.96,3.41-2.23,4.78
						C16.13,28.16,16.18,28.22,16.22,28.19L16.22,28.19z"/>
				</g>
			</g>
			<g style="clip-path:url(#SVGID_00000111902080711432943560000004461922212354986156_);">
				<g>
					<path class="st6" d="M17.25,28.52c1.47-0.92,2.16-2.53,2.44-4.15c0.3-1.72,0.51-3.64,0.01-5.34c-0.03-0.1-0.18-0.1-0.2,0
						c-0.15,0.67,0.01,1.36,0.06,2.04c0.07,0.96-0.07,1.94-0.2,2.89c-0.11,0.81-0.26,1.61-0.62,2.35c-0.39,0.8-1.13,1.35-1.58,2.1
						C17.12,28.49,17.19,28.56,17.25,28.52L17.25,28.52z"/>
				</g>
			</g>
			<g style="clip-path:url(#SVGID_00000111902080711432943560000004461922212354986156_);">
				<g>
					<path class="st6" d="M18.58,28.38c1.47-0.8,1.95-2.27,2.3-3.78c0.19-0.83,0.29-1.64,0.3-2.49c0.01-0.93-0.22-1.82-0.28-2.74
						c-0.01-0.25-0.35-0.29-0.43-0.06c-0.21,0.58,0.05,1.2,0.1,1.8c0.09,0.9,0.06,1.8-0.08,2.7c-0.11,0.75-0.28,1.5-0.49,2.23
						c-0.28,0.96-1.03,1.44-1.52,2.25C18.45,28.35,18.52,28.42,18.58,28.38L18.58,28.38z"/>
				</g>
			</g>
			<g style="clip-path:url(#SVGID_00000111902080711432943560000004461922212354986156_);">
				<g>
					<path class="st6" d="M19.86,28.38c1.31-0.49,1.82-2.22,2.11-3.43c0.2-0.84,0.29-1.72,0.37-2.58c0.1-1.09,0.26-2.38-0.05-3.44
						c-0.03-0.09-0.16-0.09-0.19,0c-0.22,0.74-0.15,1.53-0.18,2.3c-0.04,1.03-0.11,2.06-0.26,3.08c-0.23,1.6-0.8,2.76-1.86,3.97
						C19.77,28.33,19.8,28.4,19.86,28.38L19.86,28.38z"/>
				</g>
			</g>
			<g style="clip-path:url(#SVGID_00000111902080711432943560000004461922212354986156_);">
				<g>
					<path class="st6" d="M21.26,28.08c1.28-0.74,1.82-2.05,1.99-3.48c0.24-1.98,0.66-4.13,0.35-6.12
						c-0.02-0.11-0.18-0.11-0.22-0.03c-0.29,0.5-0.17,1.02-0.17,1.58c0,0.98-0.08,1.97-0.2,2.95c-0.22,1.9-0.36,3.6-1.8,5.05
						C21.2,28.05,21.23,28.1,21.26,28.08L21.26,28.08z"/>
				</g>
			</g>
			<g style="clip-path:url(#SVGID_00000111902080711432943560000004461922212354986156_);">
				<g>
					<path class="st6" d="M23.12,27.3c0.96-0.91,1.44-2.34,1.65-3.61c0.11-0.67,0.13-1.34,0.08-2.02c-0.05-0.68,0.02-1.43-0.29-2.05
						c-0.07-0.13-0.23-0.05-0.25,0.07c-0.16,1.21,0.1,2.4-0.01,3.62c-0.07,0.73-0.25,1.43-0.49,2.12c-0.21,0.58-0.33,1.36-0.71,1.86
						C23.08,27.3,23.1,27.32,23.12,27.3L23.12,27.3z"/>
				</g>
			</g>
			<g style="clip-path:url(#SVGID_00000111902080711432943560000004461922212354986156_);">
				<g>
					<path class="st6" d="M25.1,25.58c0.65-0.92,0.77-1.87,0.89-2.97c0.11-1,0.18-2.3-0.27-3.22c-0.04-0.09-0.18-0.06-0.2,0.03
						c-0.24,0.9,0,1.92-0.03,2.84c-0.04,1.12-0.42,2.19-0.46,3.3C25.03,25.6,25.08,25.61,25.1,25.58L25.1,25.58z"/>
				</g>
			</g>
		</g>
		<g>
			<path class="st8" d="M23.72,21.02c-0.5-0.54-1.01-1.22-0.84-1.94c0.11-0.46,0.48-0.81,0.77-1.2c0.29-0.38,0.49-0.92,0.23-1.32
				c-0.2-0.32-0.61-0.43-0.91-0.65c-0.49-0.36-0.7-1.04-0.49-1.61c0.12-0.33,0.37-0.6,0.52-0.92c0.32-0.65,0.22-1.45-0.12-2.09
				c-0.34-0.64-0.9-1.15-1.5-1.56c0.92,0.04,1.8,0.03,2.72,0.08c0.5,0.02,1,0.05,1.48,0.19c0.87,0.26,1.61,0.92,1.96,1.76
				c0.2,0.49,0.27,1.03,0.46,1.53c0.15,0.39,0.36,0.74,0.56,1.1c1.08,1.98,1.68,4.22,2.93,6.1c0.08,0.12,0.17,0.29,0.08,0.41
				c-0.05,0.07-0.15,0.09-0.24,0.11c-1,0.16-2.02,0.01-3.03,0.04c-1,0.03-1.99,0.24-2.99,0.31C24.71,21.4,24.12,21.46,23.72,21.02z"
				/>
		</g>
		<g>
			<path class="st4" d="M26.14,8.83c0.11-1.14,0-2.88-0.19-4.29c-0.12-0.88-0.37-1.79-0.43-2.4c-0.1-1.04-0.81-0.84-0.84-0.52
				c-0.24,2.35-0.09,3.52-0.53,5.39c-0.1,0.45-0.81,0.41-0.91,0.07c-0.27-0.9-0.31-1.71-0.42-2.63c-0.21-1.73-0.39-2.73-0.7-3.11
				c-0.15-0.18-0.46-0.19-0.54,0.02c-0.73,2.01,0.2,5.61-0.96,6.04C20.4,7.49,20.15,7.33,20.1,7.1c-0.41-1.85,0.1-3.93-0.82-5.61
				c-0.06-0.11-0.14-0.22-0.26-0.24c-0.18-0.03-0.31,0.16-0.38,0.33c-0.78,1.85,0.13,5.35-0.6,5.98c-0.27,0.24-0.49,0.09-0.52-0.26
				c-0.31-3.15-0.59-5.26-1.24-5.51c-0.36-0.14-0.52,0.96-0.51,1.39c0.07,2.24,0.2,4.49,0.33,6.73c-0.01-0.05-0.01-0.08,0.02-0.04
				c0.02,0.04,0.08,0.04,0.13,0.04c3.12-0.22,6.24-0.43,9.36-0.65c0.12-0.01,0.23-0.04,0.33-0.1C26.04,9.08,26.13,8.94,26.14,8.83z"
				/>
		</g>
		<g>
			<path class="st6" d="M16.05,11.03c0.33,0.39,8.38-0.43,10.11-0.52c0.17-0.01,0.31-0.11,0.38-0.26c0.15-0.35,0.05-0.65-0.04-1.03
				c-0.02-0.07-0.04-0.15-0.1-0.21c-0.09-0.09-0.23-0.09-0.36-0.08c-2.5,0.16-5,0.31-7.5,0.47l-2.14,0.13
				c-0.16,0.01-0.32,0.05-0.46,0.13c-0.36,0.22-0.29,0.5-0.22,0.76C15.79,10.66,15.9,10.86,16.05,11.03z"/>
		</g>
		<g>
			<g>
				<path class="st6" d="M16.2,1.8c0.16,0,0.29-0.13,0.29-0.29c0-0.16-0.13-0.29-0.29-0.29c-0.16,0-0.29,0.13-0.29,0.29
					C15.91,1.67,16.04,1.8,16.2,1.8L16.2,1.8z"/>
			</g>
		</g>
		<g>
			<g>
				<path class="st6" d="M19,1.42c0.38,0,0.38-0.57,0-0.57C18.63,0.85,18.63,1.42,19,1.42L19,1.42z"/>
			</g>
		</g>
		<g>
			<g>
				<path class="st6" d="M21.84,1.3c0.17,0,0.31-0.14,0.31-0.3c0-0.17-0.14-0.3-0.31-0.3c-0.17,0-0.31,0.14-0.31,0.3
					C21.54,1.16,21.67,1.3,21.84,1.3L21.84,1.3z"/>
			</g>
		</g>
		<g>
			<g>
				<path class="st6" d="M25.03,1.53c0.17,0,0.31-0.14,0.31-0.31c0-0.17-0.14-0.31-0.31-0.31c-0.17,0-0.31,0.14-0.31,0.31
					C24.71,1.39,24.86,1.53,25.03,1.53L25.03,1.53z"/>
			</g>
		</g>
		<g>
			<g>
				<path class="st6" d="M16.57,6.88c-0.16,0.75,0.04,1.52,0.09,2.27c0.02,0.26,0.4,0.26,0.41,0c0.05-0.76-0.26-1.5-0.33-2.25
					C16.74,6.81,16.59,6.77,16.57,6.88L16.57,6.88z"/>
			</g>
		</g>
		<g>
			<g>
				<path class="st6" d="M19.11,6.77C19,7.18,18.96,7.6,18.98,8.03c0.02,0.33,0,0.81,0.27,1.05c0.11,0.1,0.28,0.06,0.33-0.09
					c0.1-0.33-0.07-0.76-0.09-1.1c-0.03-0.38-0.07-0.75-0.17-1.12C19.29,6.67,19.13,6.67,19.11,6.77L19.11,6.77z"/>
			</g>
		</g>
		<g>
			<g>
				<path class="st6" d="M21.99,6.63c0.09,0.68,0.11,1.36,0.15,2.04c0.02,0.32,0.5,0.32,0.5,0c0.02-0.71-0.17-1.4-0.35-2.08
					C22.24,6.43,21.97,6.46,21.99,6.63L21.99,6.63z"/>
			</g>
		</g>
		<g>
			<g>
				<path class="st6" d="M25.19,6.59c-0.34,0.45-0.31,1.23-0.27,1.76c0.03,0.36,0.56,0.37,0.58,0c0.01-0.27-0.01-0.54-0.02-0.81
					c-0.02-0.29,0.01-0.59-0.01-0.88C25.45,6.51,25.27,6.47,25.19,6.59L25.19,6.59z"/>
			</g>
		</g>
		<g>
			<defs>
				<path id="SVGID_00000068661604258500028940000009057667953421948582_" d="M23.72,21.02c-0.5-0.54-1.01-1.22-0.84-1.94
					c0.11-0.46,0.48-0.81,0.77-1.2c0.29-0.38,0.49-0.92,0.23-1.32c-0.2-0.32-0.61-0.43-0.91-0.65c-0.49-0.36-0.7-1.04-0.49-1.61
					c0.12-0.33,0.37-0.6,0.52-0.92c0.32-0.65,0.22-1.45-0.12-2.09c-0.34-0.64-0.9-1.15-1.5-1.56c0.92,0.04,1.8,0.03,2.72,0.08
					c0.5,0.02,1,0.05,1.48,0.19c0.87,0.26,1.61,0.92,1.96,1.76c0.2,0.49,0.27,1.03,0.46,1.53c0.15,0.39,0.36,0.74,0.56,1.1
					c1.08,1.98,1.68,4.22,2.93,6.1c0.08,0.12,0.17,0.29,0.08,0.41c-0.05,0.07-0.15,0.09-0.24,0.11c-1,0.16-2.02,0.01-3.03,0.04
					c-1,0.03-1.99,0.24-2.99,0.31C24.71,21.4,24.12,21.46,23.72,21.02z"/>
			</defs>
			<clipPath id="SVGID_00000066494426109898990480000013780315624676123527_">
				<use xlink:href="#SVGID_00000068661604258500028940000009057667953421948582_"  style="overflow:visible;"/>
			</clipPath>
			<g style="clip-path:url(#SVGID_00000066494426109898990480000013780315624676123527_);">
				<g>
					<path class="st6" d="M23.23,10.33c0.31,0.37,0.48,1.02,0.59,1.46c0.23,0.85-0.19,1.59-0.35,2.39
						c-0.17,0.89,0.79,1.34,1.33,1.86c1.23,1.18-1.14,2.77-1.28,3.98c-0.1,0.9,0.75,2.06,1.49,2.49c0.07,0.04,0.16-0.04,0.11-0.11
						c-0.41-0.55-0.9-0.96-1.17-1.61c-0.44-1.05,0.37-1.66,0.92-2.42c0.47-0.64,0.93-1.73,0.31-2.44c-0.33-0.38-0.77-0.63-1.14-0.97
						c-0.64-0.6,0.15-1.6,0.16-2.25c0.02-0.83-0.18-1.95-0.97-2.4C23.24,10.3,23.23,10.32,23.23,10.33L23.23,10.33z"/>
				</g>
			</g>
			<g style="clip-path:url(#SVGID_00000066494426109898990480000013780315624676123527_);">
				<g>
					<path class="st6" d="M24.34,10.44c1.37,0.87,0.23,2.08,0.38,3.22c0.04,0.26,0.29,0.5,0.47,0.68c0.53,0.56,1.08,0.93,1.32,1.7
						c0.5,1.56-1.18,2.38-1.65,3.66c-0.33,0.89-0.04,1.79,0.81,2.29c0.1,0.06,0.23-0.06,0.17-0.16c-0.14-0.21-0.3-0.41-0.45-0.62
						c-0.49-0.64-0.15-1.28,0.2-1.88c0.34-0.57,0.87-0.99,1.18-1.58c0.46-0.89,0.28-2.11-0.37-2.85c-0.43-0.48-1.38-0.98-1.23-1.75
						c0.09-0.48,0.29-0.85,0.3-1.35c0.01-0.66-0.31-1.51-1.09-1.47C24.31,10.34,24.28,10.41,24.34,10.44L24.34,10.44z"/>
				</g>
			</g>
			<g style="clip-path:url(#SVGID_00000066494426109898990480000013780315624676123527_);">
				<g>
					<path class="st6" d="M25.47,10.18c0.26,0.2,0.6,0.94,0.71,1.22c0.19,0.47-0.19,1.39-0.12,1.94c0.05,0.41,0.3,0.67,0.6,0.94
						c0.62,0.53,1.16,0.89,1.42,1.7c0.77,2.38-3.19,4.6-0.44,6.63c0.15,0.11,0.36-0.11,0.26-0.25c-0.64-0.89-1.02-1.5-0.52-2.6
						c0.25-0.55,0.63-1.03,0.83-1.6c0.41-1.13,0.5-2.21-0.23-3.22c-0.32-0.45-0.82-0.74-1.23-1.11c-0.73-0.67,0.03-1.55-0.13-2.3
						c-0.08-0.4-0.56-1.53-1.14-1.41C25.44,10.12,25.45,10.17,25.47,10.18L25.47,10.18z"/>
				</g>
			</g>
			<g style="clip-path:url(#SVGID_00000066494426109898990480000013780315624676123527_);">
				<g>
					<path class="st6" d="M27.78,10.23c-0.82,0.16-0.73,1.42-0.71,2.04c0.03,1.34,1.18,1.75,2.03,2.6c0.49,0.5,0.32,1.2,0.27,1.83
						c-0.08,1.03-0.53,1.88-0.9,2.82c-0.43,1.11-0.15,2.91,1.3,3.07c0.11,0.01,0.13-0.13,0.08-0.19c-0.67-0.84-1.23-1.27-0.99-2.44
						c0.14-0.69,0.56-1.35,0.76-2.03c0.24-0.82,0.48-2.05,0.17-2.87c-0.28-0.74-1.22-1.18-1.8-1.63c-0.51-0.4-0.54-0.95-0.55-1.53
						c-0.01-0.33-0.08-1.47,0.36-1.62C27.83,10.27,27.81,10.22,27.78,10.23L27.78,10.23z"/>
				</g>
			</g>
			<g style="clip-path:url(#SVGID_00000066494426109898990480000013780315624676123527_);">
				<g>
					<path class="st6" d="M31.46,17.58c-1.18-0.81-2.79,3.7-1.03,4.74c0.07,0.04,0.16-0.04,0.11-0.11
						c-0.59-0.81-0.65-1.71-0.43-2.66c0.15-0.66,0.61-1.62,1.33-1.81C31.51,17.71,31.51,17.62,31.46,17.58L31.46,17.58z"/>
				</g>
			</g>
			<g style="clip-path:url(#SVGID_00000066494426109898990480000013780315624676123527_);">
				<g>
					<path class="st6" d="M31.99,18.63c-0.56-0.11-1.03,0.56-1.2,1.01c-0.31,0.78-0.15,1.64,0.4,2.28c0.04,0.05,0.13,0.01,0.12-0.05
						c-0.07-0.61-0.36-1.14-0.26-1.78c0.1-0.62,0.54-0.95,0.96-1.36C32.04,18.7,32.03,18.64,31.99,18.63L31.99,18.63z"/>
				</g>
			</g>
		</g>
		<g>
			<defs>
				<path id="SVGID_00000003810976492730787860000014864800582754119354_" d="M14.92,17.87c-0.15,0.63-0.05,1.31,0.28,1.87
					c0.1,0.17,0.24,0.34,0.44,0.4c0.17,0.05,0.35,0.01,0.51-0.05c0.74-0.28,1.28-1.03,1.3-1.81c0.25,0.98,1.3,1.56,2.31,1.74
					c1.01,0.17,2.06,0.05,3.07,0.22c-0.1-0.6-0.48-1.11-0.85-1.6c-0.36-0.47-0.73-0.96-1.26-1.24c-0.54-0.29-1.17-0.32-1.78-0.36
					c-1.12-0.06-2.26-0.12-3.35,0.13c-0.13,0.03-0.26,0.06-0.36,0.14C15.06,17.43,14.97,17.65,14.92,17.87z"/>
			</defs>
			<use xlink:href="#SVGID_00000003810976492730787860000014864800582754119354_"  style="overflow:visible;fill:#D6002B;"/>
			<clipPath id="SVGID_00000130628711111226562120000000977236688504857777_">
				<use xlink:href="#SVGID_00000003810976492730787860000014864800582754119354_"  style="overflow:visible;"/>
			</clipPath>
			<g style="clip-path:url(#SVGID_00000130628711111226562120000000977236688504857777_);">
				<g>
					<path class="st6" d="M16.86,16.57c-0.05,0.32-0.03,0.59-0.01,0.91c0.05,0.79-0.42,1.51-0.95,2.05
						c-0.58,0.59-0.94,1.19-0.88,2.03c0.01,0.09,0.12,0.12,0.17,0.05c0.36-0.5,0.43-1.08,0.84-1.55c0.26-0.3,0.54-0.56,0.78-0.89
						c0.61-0.84,0.41-1.7,0.13-2.59C16.93,16.54,16.87,16.53,16.86,16.57L16.86,16.57z"/>
				</g>
			</g>
			<g style="clip-path:url(#SVGID_00000130628711111226562120000000977236688504857777_);">
				<g>
					<path class="st6" d="M16.21,16.6c-0.04,0.3-0.05,0.59-0.06,0.89c-0.01,0.63-0.51,1.09-0.9,1.53c-0.4,0.46-0.83,1.06-0.7,1.69
						c0.02,0.08,0.15,0.1,0.18,0.02c0.33-0.76,0.78-1.3,1.29-1.96c0.6-0.78,0.42-1.26,0.3-2.17C16.32,16.56,16.22,16.53,16.21,16.6
						L16.21,16.6z"/>
				</g>
			</g>
			<g style="clip-path:url(#SVGID_00000130628711111226562120000000977236688504857777_);">
				<g>
					<path class="st6" d="M15.81,16.71c-0.11,0.27-0.18,0.54-0.26,0.81c-0.12,0.39-0.41,0.62-0.72,0.86
						c-0.31,0.22-0.63,0.47-0.73,0.85c-0.02,0.06,0.06,0.11,0.11,0.06c0.38-0.37,0.86-0.58,1.24-0.95c0.44-0.43,0.35-1.06,0.43-1.61
						C15.89,16.68,15.83,16.67,15.81,16.71L15.81,16.71z"/>
				</g>
			</g>
			<g style="clip-path:url(#SVGID_00000130628711111226562120000000977236688504857777_);">
				<g>
					<path class="st6" d="M17.5,16.57c-0.27,0.94,0.61,1.84,1.13,2.53c0.54,0.7,1.66,1.74,2.64,1.58c0.09-0.01,0.09-0.14,0.02-0.18
						c-0.85-0.52-1.65-0.88-2.33-1.65c-0.59-0.68-1.18-1.4-1.41-2.28C17.55,16.54,17.51,16.54,17.5,16.57L17.5,16.57z"/>
				</g>
			</g>
			<g style="clip-path:url(#SVGID_00000130628711111226562120000000977236688504857777_);">
				<g>
					<path class="st6" d="M18.17,16.46c-0.36,0.56,0.7,1.52,0.98,1.9c0.32,0.44,0.66,0.88,1.12,1.18c0.42,0.27,0.85,0.51,1.24,0.83
						c0.3,0.25,0.5,0.59,0.8,0.84c0.07,0.06,0.19,0,0.16-0.09c-0.29-0.98-1.18-1.41-1.98-1.94c-0.59-0.39-0.98-0.98-1.41-1.52
						c-0.29-0.37-0.75-0.71-0.84-1.19C18.22,16.44,18.18,16.44,18.17,16.46L18.17,16.46z"/>
				</g>
			</g>
			<g style="clip-path:url(#SVGID_00000130628711111226562120000000977236688504857777_);">
				<g>
					<path class="st6" d="M19.26,16.49c-0.24,0.85,0.63,1.52,1.2,2.02c0.47,0.41,0.91,0.81,1.33,1.27c0.52,0.57,0.79,1.09,1.13,1.76
						c0.04,0.07,0.15,0.05,0.17-0.02c0.24-1.07-0.51-1.6-1.18-2.32c-0.8-0.85-2.24-1.5-2.53-2.7
						C19.37,16.43,19.27,16.43,19.26,16.49L19.26,16.49z"/>
				</g>
			</g>
		</g>
		<g>
			<defs>
				<path id="SVGID_00000173876769538464285220000007549861241126017207_" d="M15.97,21.06c0.57,0.56,1.45,0.66,2.25,0.7
					c0.48,0.02,0.96,0.04,1.45,0.05c0.33,0,0.67,0,1-0.06c0.46-0.09,0.9-0.29,1.32-0.51c0.81-0.41,1.61-0.84,2.39-1.31
					c0.22-0.13,0.44-0.27,0.63-0.44c0.41-0.39,0.6-0.95,0.71-1.5c0.4-1.94,0.04-3.95-0.33-5.9c-0.05-0.27-0.1-0.55-0.24-0.79
					c-0.28-0.5-0.86-0.76-1.42-0.91c-0.91-0.24-1.87-0.25-2.82-0.21c-1.55,0.07-3.11,0.3-4.55,0.86c0.02,0.42,0.04,0.83,0.07,1.25
					c0,0.08,0.01,0.17-0.02,0.25c-0.04,0.14-0.17,0.24-0.29,0.34c-0.99,0.82-1.61,1.98-2.2,3.12c-0.25,0.48-0.51,1-0.46,1.54
					c0.25,0.13,0.57,0.13,0.83,0.02c0.24-0.11,0.48-0.31,0.73-0.22c0.23,0.09,0.28,0.38,0.29,0.63c0.01,0.54-0.03,1.09,0.03,1.63
					C15.41,20.12,15.59,20.67,15.97,21.06z"/>
			</defs>
			<clipPath id="SVGID_00000016068502245178233360000017217997147095894710_">
				<use xlink:href="#SVGID_00000173876769538464285220000007549861241126017207_"  style="overflow:visible;"/>
			</clipPath>
			<g style="clip-path:url(#SVGID_00000016068502245178233360000017217997147095894710_);">
				<g>
					<path class="st6" d="M14.25,17.86c0.6-0.41,1.25-0.69,1.98-0.73c0.4-0.02,0.83-0.15,1.11-0.45c0.47-0.51-0.06-1.16-0.63-1.26
						c-0.15-0.03-0.22,0.2-0.06,0.23c0.33,0.08,0.65,0.21,0.67,0.59c0.01,0.41-0.53,0.59-0.85,0.66c-0.45,0.1-0.85,0.07-1.28,0.25
						c-0.37,0.16-0.72,0.34-0.96,0.68C14.22,17.85,14.24,17.87,14.25,17.86L14.25,17.86z"/>
				</g>
			</g>
		</g>
		<g>
			<g>
				<path class="st6" d="M16.53,6.32c0.21,0,0.21-0.32,0-0.32C16.32,6,16.32,6.32,16.53,6.32L16.53,6.32z"/>
			</g>
		</g>
		<g>
			<g>
				<path class="st6" d="M16.43,5.75c0.01,0,0.02,0,0.03,0c0.2-0.02,0.2-0.28,0-0.3c-0.01,0-0.02,0-0.03,0
					C16.22,5.41,16.22,5.77,16.43,5.75L16.43,5.75z"/>
			</g>
		</g>
		<g>
			<g>
				<path class="st6" d="M16.37,5.16c0.19,0,0.19-0.29,0-0.29C16.19,4.88,16.19,5.16,16.37,5.16L16.37,5.16z"/>
			</g>
		</g>
		<g>
			<g>
				<path class="st6" d="M19.21,6.26c0.26,0,0.26-0.4,0-0.4C18.95,5.86,18.95,6.26,19.21,6.26L19.21,6.26z"/>
			</g>
		</g>
		<g>
			<g>
				<path class="st6" d="M19.21,5.54c0,0-0.01,0.01-0.01,0.01c-0.05,0.01-0.09,0.01-0.14,0.02c0.01,0,0.01,0,0.02,0
					c0.15,0.03,0.29-0.09,0.24-0.24C19.29,5.19,19.1,5.13,19,5.24c-0.08,0.09-0.09,0.21,0,0.29C19.07,5.6,19.15,5.59,19.21,5.54
					L19.21,5.54z"/>
			</g>
		</g>
		<g>
			<g>
				<path class="st6" d="M19.11,4.95c0.25,0,0.25-0.38,0-0.38C18.86,4.57,18.86,4.95,19.11,4.95L19.11,4.95z"/>
			</g>
		</g>
		<g>
			<g>
				<path class="st6" d="M22.14,6c0,0,0.01,0,0.02-0.01c0.14-0.05,0.23-0.18,0.19-0.32c-0.04-0.13-0.19-0.22-0.33-0.18
					c0,0-0.01,0-0.02,0c-0.14,0.04-0.23,0.18-0.19,0.32C21.85,5.95,22,6.05,22.14,6L22.14,6z"/>
			</g>
		</g>
		<g>
			<g>
				<path class="st6" d="M22.2,5.21c0-0.01,0.01-0.01,0.01-0.02c0.11-0.2-0.15-0.4-0.32-0.24c-0.01,0.01-0.01,0.01-0.02,0.02
					C21.65,5.16,22.05,5.47,22.2,5.21L22.2,5.21z"/>
			</g>
		</g>
		<g>
			<g>
				<path class="st6" d="M22.14,4.54c0-0.01,0.01-0.02,0.01-0.02c0.09-0.25-0.4-0.25-0.31,0c0,0.01,0.01,0.02,0.01,0.02
					C21.91,4.68,22.1,4.68,22.14,4.54L22.14,4.54z"/>
			</g>
		</g>
		<g>
			<g>
				<path class="st6" d="M25.21,6.07c0.35,0,0.35-0.54,0-0.54C24.86,5.53,24.86,6.07,25.21,6.07L25.21,6.07z"/>
			</g>
		</g>
		<g>
			<g>
				<path class="st6" d="M25.21,5.28c0.28,0,0.28-0.43,0-0.43C24.93,4.86,24.93,5.28,25.21,5.28L25.21,5.28z"/>
			</g>
		</g>
		<g>
			<g>
				<path class="st6" d="M25.17,4.7c0.01,0,0.02,0.01,0.02,0.01c0.1,0.04,0.21-0.06,0.21-0.16c0-0.1-0.11-0.2-0.21-0.16
					c-0.01,0-0.02,0.01-0.02,0.01C25.02,4.46,25.02,4.64,25.17,4.7L25.17,4.7z"/>
			</g>
		</g>
		<g>
			<g>
				<path class="st6" d="M10.39,30.16C10.39,30.16,10.39,30.16,10.39,30.16c-0.04,0-0.07,0-0.1,0.01c0,0,0.01,0,0.01,0
					c-0.03-0.02-0.06-0.03-0.09-0.04c0.05,0.04,0.11,0.06,0.17,0.06c-0.03-0.01-0.06-0.01-0.1-0.02c0.01,0,0.01,0.01,0.02,0.01
					c0.15,0.08,0.29-0.08,0.25-0.22c0,0,0,0.01,0,0.01c-0.01-0.1-0.1-0.19-0.22-0.18c-0.11,0.01-0.2,0.09-0.21,0.2
					C10.12,30.12,10.27,30.27,10.39,30.16L10.39,30.16z"/>
			</g>
		</g>
		<g>
			<g>
				<path class="st6" d="M10.29,31.02c0.01,0,0.02,0,0.02,0c0.33-0.05,0.29-0.51-0.04-0.51c-0.01,0-0.02,0-0.02,0
					C9.91,30.51,9.95,31.07,10.29,31.02L10.29,31.02z"/>
			</g>
		</g>
		<g>
			<g>
				<path class="st6" d="M10.13,31.94c0.07,0.02,0.13,0,0.18-0.04c0.11-0.07,0.12-0.29-0.02-0.34c0,0-0.01,0-0.01,0
					c-0.09-0.03-0.18-0.03-0.25,0.05c-0.08,0.09-0.06,0.21,0.02,0.29C10.08,31.92,10.1,31.93,10.13,31.94L10.13,31.94z"/>
			</g>
		</g>
		<g>
			<g>
				<path class="st6" d="M10.03,32.74c0.01,0,0.02,0,0.03,0c0.23,0.04,0.29-0.3,0.07-0.34c-0.01,0-0.02,0-0.03-0.01
					C9.87,32.34,9.81,32.7,10.03,32.74L10.03,32.74z"/>
			</g>
		</g>
		<g>
			<g>
				<path class="st6" d="M9.95,33.41c0.17,0.03,0.22-0.22,0.05-0.25C9.83,33.13,9.79,33.38,9.95,33.41L9.95,33.41z"/>
			</g>
		</g>
		<g>
			<g>
				<path class="st6" d="M11.85,33.93c0.01-0.01,0.02-0.02,0.03-0.02c0.1-0.08,0-0.22-0.11-0.16c-0.01,0.01-0.02,0.01-0.03,0.02
					C11.62,33.82,11.75,34.02,11.85,33.93L11.85,33.93z"/>
			</g>
		</g>
		<g>
			<g>
				<path class="st6" d="M12.07,33.4c0.04,0.04,0.08,0.06,0.14,0.07c0.22,0.06,0.3-0.32,0.07-0.35c-0.06-0.01-0.1-0.01-0.15,0.02
					C12.01,33.18,11.98,33.32,12.07,33.4L12.07,33.4z"/>
			</g>
		</g>
		<g>
			<g>
				<path class="st6" d="M12.58,32.85c0.28,0.05,0.36-0.37,0.08-0.43C12.39,32.36,12.3,32.79,12.58,32.85L12.58,32.85z"/>
			</g>
		</g>
		<g>
			<g>
				<path class="st6" d="M12.81,31.98c0.27,0.05,0.35-0.36,0.08-0.41C12.62,31.52,12.54,31.93,12.81,31.98L12.81,31.98z"/>
			</g>
		</g>
		<g>
			<g>
				<path class="st6" d="M12.95,31.26c0.25,0.05,0.33-0.34,0.08-0.39C12.77,30.82,12.7,31.21,12.95,31.26L12.95,31.26z"/>
			</g>
		</g>
		<g>
			<path class="st2" d="M11.74,35.4c-0.33-0.04-0.43-0.41-0.02-1.56c0.41-1.15,0.45-2.13,0.28-2.81c-0.17-0.69-0.39-1.79,0.17-1.78
				c0.56,0.02,0.99,0.97,1.08,1.92c0.09,1-0.12,1.79-0.32,2.53C12.72,34.43,12.09,35.44,11.74,35.4z"/>
		</g>
		<g>
			<path class="st2" d="M9.4,35.11c-0.4,0.02-0.73-0.17-0.57-1.64c0.16-1.48,0.71-4.39,1.31-4.55c0.59-0.16,0.73,0.17,0.73,0.69
				C10.86,30.13,10.14,35.07,9.4,35.11z"/>
		</g>
		<g>
			<g>
				<path class="st6" d="M12.3,33.85c-0.06-0.03-0.1-0.03-0.17-0.03c-0.19,0-0.24,0.29-0.07,0.35c0.06,0.02,0.1,0.03,0.17,0.03
					C12.42,34.19,12.47,33.93,12.3,33.85L12.3,33.85z"/>
			</g>
		</g>
		<g>
			<g>
				<path class="st6" d="M12.35,33.33c0.15,0.03,0.3-0.07,0.33-0.22c0.03-0.15-0.07-0.3-0.23-0.33c-0.15-0.03-0.3,0.07-0.33,0.22
					C12.1,33.15,12.2,33.3,12.35,33.33L12.35,33.33z"/>
			</g>
		</g>
		<g>
			<g>
				<path class="st6" d="M12.74,31.75c-0.01-0.01-0.02-0.01-0.03-0.02c-0.16-0.09-0.36,0.02-0.4,0.19
					c-0.03,0.17,0.11,0.35,0.29,0.32c0.01,0,0.02,0,0.03,0C12.9,32.21,12.97,31.88,12.74,31.75L12.74,31.75z"/>
			</g>
		</g>
		<g>
			<g>
				<path class="st6" d="M12.77,30.75c-0.11-0.11-0.27-0.12-0.4-0.04c-0.1,0.07-0.13,0.21-0.06,0.32c0.09,0.13,0.24,0.17,0.38,0.11
					C12.86,31.07,12.89,30.88,12.77,30.75L12.77,30.75z"/>
			</g>
		</g>
		<g>
			<g>
				<path class="st6" d="M12.46,29.77c-0.04-0.02-0.07-0.03-0.11-0.04c-0.24-0.03-0.31,0.3-0.07,0.37c0.04,0.01,0.08,0.01,0.12,0.01
					C12.57,30.09,12.62,29.86,12.46,29.77L12.46,29.77z"/>
			</g>
		</g>
		<g>
			<g>
				<path class="st6" d="M10.13,29.34c0,0-0.01,0.01-0.01,0.01c-0.12,0.1-0.13,0.29,0.02,0.36c0,0,0.01,0,0.01,0.01
					c0.15,0.07,0.33-0.04,0.32-0.21C10.46,29.35,10.26,29.23,10.13,29.34L10.13,29.34z"/>
			</g>
		</g>
		<g>
			<g>
				<path class="st6" d="M10.02,30.15c-0.01,0-0.01,0.01-0.01,0.01c-0.1,0.08-0.12,0.19-0.06,0.31c0,0.01,0.01,0.01,0.01,0.02
					c0.1,0.19,0.41,0.1,0.44-0.09C10.43,30.21,10.19,30.01,10.02,30.15L10.02,30.15z"/>
			</g>
		</g>
		<g>
			<g>
				<path class="st6" d="M9.87,31.04c-0.04,0.01-0.08,0.04-0.12,0.06c-0.11,0.06-0.15,0.22-0.11,0.33c0.04,0.13,0.17,0.2,0.3,0.19
					c0.02,0,0.04,0,0.06-0.01c0.16-0.03,0.29-0.14,0.28-0.32C10.25,31.1,10.05,30.97,9.87,31.04L9.87,31.04z"/>
			</g>
		</g>
		<g>
			<g>
				<path class="st6" d="M9.77,32.58c0.38,0.07,0.49-0.5,0.11-0.58C9.5,31.93,9.39,32.51,9.77,32.58L9.77,32.58z"/>
			</g>
		</g>
		<g>
			<g>
				<path class="st6" d="M9.59,33.48c0.29,0.05,0.38-0.39,0.09-0.44C9.39,32.98,9.3,33.42,9.59,33.48L9.59,33.48z"/>
			</g>
		</g>
		<g>
			<g>
				<path class="st6" d="M9.46,34.15c0.24,0.05,0.31-0.32,0.07-0.36C9.29,33.74,9.22,34.11,9.46,34.15L9.46,34.15z"/>
			</g>
		</g>
		<g>
			<g>
				<path class="st6" d="M11.91,34.75c0.2,0.04,0.26-0.27,0.06-0.3C11.77,34.41,11.71,34.71,11.91,34.75L11.91,34.75z"/>
			</g>
		</g>
		<g>
			<path class="st2" d="M6.33,34.42c0.33,0.02,0.55-0.22,0.62-1.44c0.06-1.22,0.4-2.14,0.82-2.71c0.42-0.57,1.05-1.52,0.52-1.71
				c-0.53-0.19-1.28,0.53-1.73,1.38C6.09,30.83,6,31.64,5.89,32.4C5.76,33.21,5.96,34.4,6.33,34.42z"/>
		</g>
		<g>
			<g>
				<path class="st6" d="M6.4,32.78c0.06,0,0.11,0.01,0.17,0.03c0.17,0.07,0.12,0.35-0.07,0.35c-0.06,0-0.11-0.01-0.17-0.03
					C6.16,33.05,6.21,32.79,6.4,32.78L6.4,32.78z"/>
			</g>
		</g>
		<g>
			<g>
				<path class="st6" d="M6.55,32.27c-0.15-0.03-0.25-0.18-0.22-0.33c0.03-0.15,0.18-0.25,0.33-0.22c0.15,0.03,0.25,0.18,0.22,0.33
					C6.85,32.2,6.7,32.3,6.55,32.27L6.55,32.27z"/>
			</g>
		</g>
		<g>
			<g>
				<path class="st6" d="M6.79,30.67c0.01,0,0.02,0,0.03,0c0.18-0.02,0.32,0.16,0.29,0.32c-0.03,0.17-0.24,0.28-0.39,0.19
					c-0.01-0.01-0.02-0.01-0.03-0.02C6.46,31.04,6.53,30.7,6.79,30.67L6.79,30.67z"/>
			</g>
		</g>
		<g>
			<g>
				<path class="st6" d="M7.15,29.73c0.15-0.06,0.3-0.02,0.38,0.11c0.07,0.1,0.04,0.25-0.06,0.32c-0.13,0.08-0.29,0.07-0.4-0.04
					C6.94,30,6.98,29.8,7.15,29.73L7.15,29.73z"/>
			</g>
		</g>
		<g>
			<g>
				<path class="st6" d="M7.8,28.94c0.04-0.01,0.08,0,0.12,0.01c0.23,0.07,0.17,0.39-0.07,0.37c-0.04,0-0.08-0.02-0.11-0.04
					C7.58,29.19,7.62,28.96,7.8,28.94L7.8,28.94z"/>
			</g>
		</g>
		<g>
			<g>
				<path class="st6" d="M6.42,33.76c-0.2-0.04-0.14-0.34,0.06-0.3C6.68,33.49,6.62,33.79,6.42,33.76L6.42,33.76z"/>
			</g>
		</g>
		<g>
			<g>
				<g>
					<path class="st6" d="M23.59,26.75c-0.59-0.48-1.43,0.26-1.78,0.73c-0.23,0.31-0.3,0.79,0.09,1.01c0.37,0.21,0.8,0.05,1.14-0.13
						c0.39-0.22,0.79-0.51,1.07-0.86c0.28-0.34,0.4-0.93-0.12-1.13c-0.54-0.21-1.02,0.13-1.42,0.45c-0.37,0.29-0.86,0.76-0.85,1.26
						c0.01,0.45,0.64,0.59,0.86,0.2c0.24-0.42,0.62-0.92,1.1-1.07c-0.03,0.01-0.13-0.02-0.02,0.01c-0.17-0.04-0.2-0.4-0.22-0.33
						c0.03-0.1-0.02,0.01-0.03,0.04c0.01-0.02-0.09,0.09-0.11,0.12c-0.19,0.19-0.4,0.35-0.63,0.5c-0.2,0.13-0.24,0.17-0.45,0.18
						c0.12,0,0.2,0.1,0.24,0.2c0.01,0.02-0.01,0.17,0.01,0.08c0.02-0.07,0.03-0.1,0.1-0.21c0.11-0.19,0.28-0.36,0.44-0.52
						c0.06-0.06,0.36-0.39,0.46-0.35C23.57,26.96,23.69,26.83,23.59,26.75L23.59,26.75z"/>
				</g>
			</g>
			<g>
				<g>
					<path class="st6" d="M17.68,30.83c-0.39-0.12-0.96,0.24-1.27,0.45c-0.42,0.29-0.77,0.65-0.82,1.18
						c-0.02,0.19,0.13,0.41,0.32,0.46c0.98,0.24,2.24-0.77,2.52-1.67c0.08-0.25-0.06-0.52-0.31-0.6c-0.51-0.15-1.02,0.11-1.41,0.4
						c-0.38,0.28-0.91,0.76-0.9,1.27c0.01,0.32,0.38,0.65,0.7,0.43c0.02-0.01,0.04-0.02,0.06-0.04c0.22-0.15,0.31-0.44,0.11-0.65
						c-0.01-0.01-0.03-0.03-0.04-0.04c0.03,0.15,0.07,0.31,0.1,0.46c0.11-0.26,0.27-0.44,0.49-0.62c0.14-0.12,0.48-0.34,0.6-0.31
						c-0.1-0.2-0.21-0.4-0.31-0.6c-0.09,0.29-0.36,0.51-0.58,0.7c-0.15,0.13-0.53,0.42-0.73,0.38c0.11,0.15,0.22,0.31,0.32,0.46
						c0.02-0.67,1.06-0.86,1.29-1.4C17.87,30.99,17.79,30.86,17.68,30.83L17.68,30.83z"/>
				</g>
			</g>
			<g>
				<g>
					<path class="st6" d="M19.56,28.49c-0.32,0.21-0.48,0.36-0.64,0.71c-0.17,0.37-0.16,0.86,0,1.23c0.31,0.73,1.1,0.95,1.8,0.69
						c0.59-0.22,0.91-0.87,1-1.44c0.11-0.69-0.35-1.26-0.96-1.52c-0.63-0.26-1.49-0.13-1.92,0.42c-0.37,0.47-0.31,1.1-0.1,1.62
						c0.21,0.52,0.74,0.92,1.31,0.93c0.81,0.02,1.32-0.63,1.44-1.35c0.1-0.54-0.21-1.02-0.7-1.23c-0.48-0.21-1.21,0.05-1.43,0.51
						c-0.19,0.4-0.17,1,0.26,1.26c0.53,0.32,0.99-0.09,1.15-0.59c0.14-0.46-0.36-0.9-0.8-0.66c-0.25,0.13-0.44,0.32-0.61,0.54
						c-0.18,0.23-0.08,0.63,0.17,0.77c0.02,0.01,0.03,0.02,0.05,0.03c0.31,0.17,0.66,0.05,0.79-0.28c-0.07,0.19,0.04-0.15,0.02-0.25
						c-0.01-0.05-0.03-0.09-0.05-0.14c0.23,0.49-0.16,0.49,0.15,0.32c-0.27-0.22-0.53-0.44-0.8-0.66c-0.07,0.23,0.25-0.26,0.62,0.06
						c0.08,0.07,0.05,0.16,0.05,0.08c0,0.1-0.02,0.06-0.02,0.06c-0.04,0.04,0.07,0,0.1,0.01c-0.09-0.02-0.1-0.14-0.07-0.01
						c0.01,0.04-0.02,0.14-0.04,0.21c-0.04,0.14-0.14,0.19-0.22,0.21c-0.08,0.02,0.01,0.01-0.12,0c0.06,0.01,0.03,0.01-0.05-0.04
						c-0.06-0.04-0.11-0.11-0.18-0.24c-0.04-0.07-0.06-0.2-0.06-0.3c0-0.15-0.02-0.02,0.03-0.16c-0.02,0.05,0.03-0.04,0.04-0.05
						c0.03-0.03,0.06-0.04,0.04-0.03c0.11-0.04,0.16-0.04,0.27-0.03c0.16,0,0.37,0.06,0.43,0.13c0.08,0.07,0.09,0.15,0.09,0.24
						c0,0.14-0.05,0.27-0.13,0.4c-0.14,0.23-0.29,0.29-0.49,0.19c-0.38-0.19-0.42-1.06-0.19-1.36
						C19.91,28.61,19.71,28.39,19.56,28.49L19.56,28.49z"/>
				</g>
			</g>
			<g>
				<g>
					<path class="st4" d="M20.12,29.86c0.45,0.02,0.48-0.67,0.03-0.69C19.7,29.15,19.67,29.84,20.12,29.86L20.12,29.86z"/>
				</g>
			</g>
			<g>
				<g>
					<path class="st4" d="M19.22,28.61c0.1,0,0.11-0.15,0.01-0.16C19.12,28.45,19.12,28.61,19.22,28.61L19.22,28.61z"/>
				</g>
			</g>
			<g>
				<g>
					<path class="st4" d="M18.95,29.15c0.1,0,0.11-0.15,0.01-0.15C18.86,28.99,18.85,29.15,18.95,29.15L18.95,29.15z"/>
				</g>
			</g>
			<g>
				<g>
					<path class="st4" d="M18.94,29.77c0.13,0.01,0.14-0.2,0.01-0.2C18.82,29.56,18.81,29.76,18.94,29.77L18.94,29.77z"/>
				</g>
			</g>
			<g>
				<g>
					<path class="st4" d="M19.19,30.33c0.13,0.01,0.14-0.19,0.01-0.2C19.07,30.13,19.06,30.33,19.19,30.33L19.19,30.33z"/>
				</g>
			</g>
			<g>
				<g>
					<path class="st4" d="M19.65,30.84c0.01,0,0.01,0,0.02-0.01c0.07-0.02,0.07-0.11,0.01-0.14c-0.01,0-0.01-0.01-0.02-0.01
						C19.53,30.63,19.52,30.88,19.65,30.84L19.65,30.84z"/>
				</g>
			</g>
			<g>
				<g>
					<path class="st4" d="M20.29,30.99c0.01,0,0.01,0,0.02,0c0.09-0.02,0.1-0.16,0.01-0.19c-0.01,0-0.01,0-0.02-0.01
						C20.13,30.74,20.12,31.02,20.29,30.99L20.29,30.99z"/>
				</g>
			</g>
			<g>
				<g>
					<path class="st4" d="M20.92,30.73c0.11,0,0.12-0.16,0.01-0.16C20.82,30.56,20.81,30.73,20.92,30.73L20.92,30.73z"/>
				</g>
			</g>
			<g>
				<g>
					<path class="st4" d="M21.31,30.21c0.1,0,0.11-0.15,0.01-0.16C21.22,30.05,21.21,30.21,21.31,30.21L21.31,30.21z"/>
				</g>
			</g>
			<g>
				<g>
					<path class="st4" d="M21.45,29.5c0.1,0,0.1-0.14,0.01-0.15C21.36,29.35,21.35,29.49,21.45,29.5L21.45,29.5z"/>
				</g>
			</g>
			<g>
				<g>
					<path class="st4" d="M21.22,28.89c0.12,0.01,0.13-0.18,0.01-0.19C21.11,28.7,21.1,28.89,21.22,28.89L21.22,28.89z"/>
				</g>
			</g>
			<g>
				<g>
					<path class="st4" d="M20.68,28.5c0.15,0.01,0.16-0.22,0.01-0.22C20.54,28.27,20.53,28.49,20.68,28.5L20.68,28.5z"/>
				</g>
			</g>
			<g>
				<g>
					<path class="st4" d="M20,28.41c0.01,0,0.01,0,0.02,0c0.11-0.01,0.12-0.15,0.01-0.17c-0.01,0-0.01,0-0.02,0
						C19.89,28.22,19.89,28.41,20,28.41L20,28.41z"/>
				</g>
			</g>
		</g>
		<g>
			<g>
				<g>
					<path class="st2" d="M12.16,11.8c-0.06,0.02-0.12,0.06-0.16,0.1c-0.14,0.13-0.21,0.33-0.19,0.52c0.02,0.19,0.12,0.37,0.28,0.47
						c0.08,0.06,0.19,0.1,0.29,0.09c0.23-0.03,0.35-0.28,0.41-0.5c0.04-0.15,0.07-0.36-0.18-0.55
						C12.48,11.83,12.32,11.75,12.16,11.8z"/>
				</g>
				<g>
					<path class="st2" d="M12.63,12.18c0.3,0.04,0.59,0.11,0.88,0.19c-0.32,0.19-0.7,0.28-1.08,0.24c0.05-0.13-0.1-0.32,0.01-0.41
						C12.49,12.16,12.56,12.17,12.63,12.18z"/>
				</g>
				<g>
					<g>
						<path class="st2" d="M9.66,16.64c0.63,0.15,1.31,0.12,1.87-0.19c0.56-0.31,0.95-0.96,0.84-1.58
							c-0.04-0.24-0.15-0.47-0.31-0.66c-0.15-0.18-0.33-0.38-0.55-0.46c-1.06-0.38-2.52,0.28-2.98,0.86
							c-0.1,0.12-0.18,0.26-0.23,0.4c-0.12,0.38,0.03,0.8,0.31,1.08C8.89,16.39,9.27,16.55,9.66,16.64z"/>
					</g>
					<g>
						<path class="st2" d="M6.69,14.09c-0.98,0.12-1.75,1-1.94,1.95C4.55,17,4.83,18,5.28,18.87c0.02,0.05,0.05,0.1,0.09,0.13
							c0.52-0.6,3.37-3,3.91-3.93c-0.19-0.24-0.43-0.39-0.7-0.54C7.94,14.19,7.4,14.01,6.69,14.09z"/>
					</g>
					<g>
						<path class="st2" d="M11.87,15.48c-0.08-0.01-0.15-0.06-0.21-0.11c-0.55-0.44-1.4-0.89-1.52-1.57c0.57-0.33,1.56-1.45,2-1.94
							c0.22,0.83,0.31,2.47,0.24,3.32c-0.01,0.13-0.12,0-0.18,0.12C12.13,15.41,12,15.5,11.87,15.48z"/>
					</g>
					<g>
						<path class="st2" d="M11.8,11.53c-0.05-0.14-0.23-0.2-0.38-0.2c-0.13,0-0.29,0.03-0.36,0.14c-0.06,0.09-0.05,0.2-0.01,0.3
							c0.05,0.09,0.13,0.16,0.22,0.22c-0.16-0.06-0.38,0.01-0.42,0.18c-0.03,0.14,0.08,0.28,0.21,0.35
							c0.13,0.07,0.28,0.09,0.42,0.15c0.15,0.06,0.29,0.15,0.42,0.24c0.13-0.24,0.25-0.48,0.38-0.72c0.06-0.11,0.11-0.22,0.16-0.33
							c0.05-0.12,0.1-0.24,0.1-0.36c0-0.13-0.03-0.26-0.13-0.34c-0.03-0.03-0.07-0.05-0.11-0.07c-0.14-0.06-0.32-0.05-0.44,0.05
							C11.74,11.22,11.71,11.41,11.8,11.53z"/>
					</g>
					<g>
						<g>
							<path class="st6" d="M9.2,15.27c0.46,0.44,1.06,0.82,1.71,0.49c0.44-0.22,1.06-0.76,0.82-1.3c-0.03-0.06-0.12-0.05-0.15,0
								c-0.19,0.41-0.3,0.73-0.71,0.99c-0.53,0.33-1.14,0.08-1.59-0.26C9.22,15.14,9.14,15.21,9.2,15.27L9.2,15.27z"/>
						</g>
					</g>
					<g>
						<defs>
							<path id="SVGID_00000046297149598360839950000017948868605556478361_" d="M6.69,14.09c-0.98,0.12-1.75,1-1.94,1.95
								C4.55,17,4.83,18,5.28,18.87c0.02,0.05,0.05,0.1,0.09,0.13c0.52-0.6,3.37-3,3.91-3.93c-0.19-0.24-0.43-0.39-0.7-0.54
								C7.94,14.19,7.4,14.01,6.69,14.09z"/>
						</defs>
						<clipPath id="SVGID_00000066516285260203820250000008288234080602652042_">
							<use xlink:href="#SVGID_00000046297149598360839950000017948868605556478361_"  style="overflow:visible;"/>
						</clipPath>
						<g style="clip-path:url(#SVGID_00000066516285260203820250000008288234080602652042_);">
							<g>
								<path class="st6" d="M7.58,14.73c-0.94-0.69-1.78,0.44-2.08,1.25c-0.41,1.08,0,2.51,0.92,3.21
									c0.06,0.04,0.14-0.03,0.12-0.09c-0.25-0.74-0.71-1.28-0.76-2.1c-0.06-1.01,0.62-2.29,1.78-2.19
									C7.6,14.8,7.61,14.75,7.58,14.73L7.58,14.73z"/>
							</g>
						</g>
						<g style="clip-path:url(#SVGID_00000066516285260203820250000008288234080602652042_);">
							<g>
								<path class="st6" d="M7.56,15.21c-1.44,0.12-1.4,2.55-0.36,3.15c0.07,0.04,0.15-0.02,0.13-0.1
									c-0.13-0.45-0.36-0.85-0.45-1.31c-0.13-0.7,0.15-1.22,0.71-1.62C7.64,15.3,7.63,15.2,7.56,15.21L7.56,15.21z"/>
							</g>
						</g>
						<g style="clip-path:url(#SVGID_00000066516285260203820250000008288234080602652042_);">
							<g>
								<path class="st6" d="M7.78,15.67c-0.73,0.5-0.56,1.67,0.29,1.97c0.08,0.03,0.12-0.06,0.1-0.12
									c-0.27-0.59-0.84-1.08-0.27-1.71C7.95,15.73,7.86,15.61,7.78,15.67L7.78,15.67z"/>
							</g>
						</g>
					</g>
					<g>
						<path class="st13" d="M12.34,27.87c0.12,0.01,0.25,0.02,0.37-0.01c0.26-0.06,0.44-0.3,0.52-0.55c0.08-0.25,0.08-0.52,0.1-0.78
							c0.04-0.37,0.13-0.73,0.27-1.07c0.13-0.31,0.3-0.61,0.34-0.94c0.09-0.69-0.39-1.33-0.85-1.85c-0.48-0.54-1-0.65-1.48-1.84
							c-0.24-0.6-0.33-0.92-0.46-0.98c-0.19-0.1-0.37,0.13-0.45,0.24c-0.08,0.43-0.13,0.45,0.02,1.14c0.09,0.42,0.02,0.59,0.42,1.59
							c0.13,0.34,0.09,0.14,0.28,0.45c-0.31,0.32-0.64,0.07-1.05,0.23c-0.41,0.16-0.54,0.67-0.57,1.1
							c-0.04,0.47-0.03,0.95,0.03,1.41c0.06,0.55,0.22,1.13,0.67,1.46c0.36,0.27,0.83,0.31,1.27,0.35
							C11.95,27.83,12.15,27.85,12.34,27.87z"/>
					</g>
					<g>
						<g>
							<path class="st6" d="M11.06,24.17c0.23,0.27,0.66,0.57,0.58,0.97c-0.07,0.37-0.6,0.14-0.8,0.11
								c-0.06-0.01-0.09,0.04-0.07,0.09c0.15,0.32,0.82,0.25,1.01,0c0.15-0.2,0.08-0.46-0.02-0.67c-0.13-0.27-0.4-0.41-0.65-0.54
								C11.06,24.09,11.03,24.13,11.06,24.17L11.06,24.17z"/>
						</g>
					</g>
					<g>
						<g>
							<path class="st6" d="M10.93,25.45c0.12,0.13,0.29,0.18,0.42,0.3c0.14,0.14,0.25,0.42,0.1,0.59c-0.2,0.23-0.56,0.09-0.8,0.05
								c-0.04-0.01-0.08,0.03-0.06,0.08c0.17,0.32,0.77,0.21,0.99,0c0.14-0.14,0.14-0.39,0.06-0.56c-0.05-0.12-0.13-0.21-0.22-0.3
								c-0.12-0.1-0.29-0.12-0.41-0.22C10.95,25.35,10.88,25.41,10.93,25.45L10.93,25.45z"/>
						</g>
					</g>
					<g>
						<g>
							<path class="st6" d="M10.92,27.4c0.28,0.08,0.62,0.03,0.7-0.29c0.08-0.32-0.16-0.51-0.43-0.61
								c-0.07-0.02-0.38-0.09-0.34,0.08c0.04,0.16,0.28,0.19,0.42,0.25c0.16,0.06,0.24,0.2,0.12,0.35
								c-0.09,0.11-0.33,0.13-0.46,0.17C10.89,27.35,10.89,27.39,10.92,27.4L10.92,27.4z"/>
						</g>
					</g>
					<g>
						<path class="st2" d="M11.09,23.52c-0.24,0.01-0.5-0.34-0.52-0.56c-0.04-0.34,0.03-0.13-0.02-0.47
							c-0.12-0.94-0.3-2.41-0.32-3.35c-0.02-0.81-0.13-1.62-0.06-2.42c0.01-0.13,0.13-0.27,0.2-0.38c0.07-0.11,0.2-0.2,0.34-0.18
							c-0.18,1.8-0.01,3.19,0.09,5.48C10.83,22.27,11.11,22.89,11.09,23.52z"/>
					</g>
					<g>
						<path class="st5" d="M11.77,23.75c-0.07,0.22-0.29,0.39-0.53,0.39c-0.21,0-0.4-0.1-0.58-0.21c-0.14-0.08-0.29-0.17-0.43-0.25
							c-0.26-0.15-0.52-0.3-0.7-0.53c-0.18-0.23-0.27-0.56-0.15-0.82c0.09-0.18,0.34-0.77,1.02-0.44c0.37,0.18,0.88,0.83,1.26,1.32
							C11.78,23.35,11.82,23.59,11.77,23.75z"/>
					</g>
					<g>
						<g>
							<path class="st6" d="M10.81,24.04c0.15,0.22,0.62,0.34,0.86,0.21c0.28-0.15,0.36-0.52,0.14-0.75
								c-0.02-0.02-0.05-0.01-0.05,0.02c0.02,0.18,0,0.49-0.2,0.56c-0.2,0.07-0.51,0-0.69-0.1C10.84,23.96,10.79,24,10.81,24.04
								L10.81,24.04z"/>
						</g>
					</g>
				</g>
			</g>
			<g>
				<g>
					<path class="st6" d="M12.19,12.4c0.17,0,0.17-0.26,0-0.26C12.01,12.14,12.01,12.4,12.19,12.4L12.19,12.4z"/>
				</g>
			</g>
		</g>
		<g>
			<path class="st5" d="M23.77,38.87c-0.57-0.56-1.45-0.66-2.25-0.7c-0.48-0.02-0.96-0.04-1.45-0.05c-0.33-0.01-0.67-0.01-1,0.05
				c-0.46,0.09-0.9,0.3-1.32,0.51c-0.81,0.41-1.61,0.84-2.39,1.31c-0.22,0.13-0.44,0.27-0.63,0.44c-0.41,0.39-0.6,0.95-0.71,1.5
				c-0.4,1.94-0.04,3.95,0.33,5.9c0.05,0.27,0.1,0.55,0.24,0.79c0.28,0.5,0.86,0.76,1.42,0.91c0.91,0.24,1.87,0.25,2.82,0.21
				c1.55-0.07,3.11-0.3,4.55-0.86c-0.02-0.42-0.04-0.83-0.07-1.25c0-0.08-0.01-0.17,0.02-0.25c0.04-0.14,0.17-0.24,0.29-0.33
				c0.99-0.82,1.61-1.98,2.2-3.12c0.25-0.48,0.51-1,0.46-1.54c-0.25-0.12-0.57-0.13-0.83-0.02c-0.24,0.11-0.48,0.32-0.73,0.22
				c-0.23-0.09-0.28-0.38-0.29-0.63c-0.01-0.54,0.03-1.09-0.03-1.63C24.34,39.8,24.16,39.26,23.77,38.87z"/>
		</g>
		<g>
			<path class="st6" d="M22.46,46.52c0.11,0.53,0.17,1.05,0.08,1.41c-0.02,0.07-0.02,0.15-0.07,0.21c-0.07,0.09-0.2,0.1-0.32,0.11
				c-1.05,0.06-2.11,0.32-3.16,0.18c-2-0.27-1.87-1-1.89-1.22c-0.01-0.07,0.14-0.08,0.2-0.12c0.02-0.02,0.05-0.02,0.08-0.03
				c0.88-0.16,1.76-0.31,2.64-0.47c0.31-0.05,0.61-0.11,0.92-0.15c0.43-0.06,0.8-0.23,1.24-0.23C22.23,46.2,22.39,46.18,22.46,46.52
				z"/>
		</g>
		<g>
			<path class="st0" d="M20.85,47.41c-1.2,0.51-2.55,0.3-3.75-0.21c0-0.13,0.08-0.24,0.16-0.33c0.61-0.7,1.48-1.17,2.41-1.28
				c0.93-0.12,1.9,0.12,2.66,0.65C22.23,46.48,21.79,47.01,20.85,47.41z"/>
		</g>
		<g>
			<path class="st6" d="M19.76,45.94c-0.29,0.02-0.6,0.16-0.74,0.45c-0.17,0.36,0,0.87,0.33,1.01c0.17,0.07,0.35,0.06,0.53,0.03
				c0.3-0.05,0.63-0.18,0.75-0.49c0.1-0.26,0.01-0.57-0.18-0.76C20.27,45.99,20.01,45.92,19.76,45.94z"/>
		</g>
		<g>
			<defs>
				<path id="SVGID_00000016054248664673022070000005150884341622818482_" d="M13.51,39.81c0.15-2.31,0.69-4.58,2.67-5.83
					c1.24-0.78,3.2-1.17,4.66-1.39c0.51-0.08,1.02-0.15,1.53-0.15c0.75,0,1.48,0.17,2.21,0.34c0.1,0.02,0.21,0.05,0.29,0.12
					c0.16,0.14,0.14,0.4,0.09,0.61c-0.09,0.41-0.2,0.81-0.34,1.2c-0.52,1.46-0.58,2.1-0.51,4.45c0,0.12,0.14,0.82,0.1,0.93
					c-0.08,0.23-0.31,0.04-0.56,0.07c-2.88,0.33-5.95-0.54-8.81-0.09c-0.26,0.04-0.52,0.09-0.77,0.05
					C13.81,40.1,13.5,40.07,13.51,39.81z"/>
			</defs>
			<use xlink:href="#SVGID_00000016054248664673022070000005150884341622818482_"  style="overflow:visible;fill:#D6002B;"/>
			<clipPath id="SVGID_00000163067315934194260270000012023389921533967505_">
				<use xlink:href="#SVGID_00000016054248664673022070000005150884341622818482_"  style="overflow:visible;"/>
			</clipPath>
			<g style="clip-path:url(#SVGID_00000163067315934194260270000012023389921533967505_);">
				<g>
					<path class="st6" d="M25.48,32.27c-0.59,0.14-0.87,0.52-1.16,1.02c-0.39,0.68-0.84,1.42-0.97,2.19
						c-0.14,0.85-0.17,1.77-0.25,2.64c-0.08,0.9,0.26,1.76,0.09,2.67c-0.03,0.15,0.18,0.26,0.26,0.11c0.23-0.42,0.18-0.87,0.12-1.33
						c-0.11-0.95-0.08-1.77,0.06-2.73c0.14-0.88,0.07-1.59,0.51-2.41c0.39-0.72,0.64-1.55,1.4-1.98
						C25.65,32.39,25.59,32.24,25.48,32.27L25.48,32.27z"/>
				</g>
			</g>
			<g style="clip-path:url(#SVGID_00000163067315934194260270000012023389921533967505_);">
				<g>
					<path class="st6" d="M24.76,31.83c-0.53,0.46-1.05,0.78-1.49,1.36c-0.51,0.68-0.77,1.55-0.96,2.37
						c-0.42,1.82-0.22,3.56,0.08,5.37c0.02,0.15,0.23,0.11,0.27,0c0.22-0.58,0.04-1.13-0.08-1.72c-0.21-1.01-0.05-2.22,0.11-3.23
						c0.15-0.92,0.46-1.78,0.96-2.57c0.35-0.56,0.97-0.9,1.22-1.52C24.91,31.82,24.8,31.78,24.76,31.83L24.76,31.83z"/>
				</g>
			</g>
			<g style="clip-path:url(#SVGID_00000163067315934194260270000012023389921533967505_);">
				<g>
					<path class="st6" d="M23.52,31.73c-1.43,0.88-2.03,2.26-2.41,3.84c-0.21,0.86-0.34,1.74-0.37,2.63
						c-0.04,1.05,0.45,2.01,0.3,3.07c-0.02,0.17,0.19,0.28,0.29,0.12c0.3-0.47,0.21-0.97,0.1-1.5c-0.24-1.16-0.29-2.13-0.09-3.31
						c0.3-1.81,0.96-3.41,2.23-4.78C23.61,31.77,23.57,31.7,23.52,31.73L23.52,31.73z"/>
				</g>
			</g>
			<g style="clip-path:url(#SVGID_00000163067315934194260270000012023389921533967505_);">
				<g>
					<path class="st6" d="M22.49,31.4c-1.47,0.92-2.16,2.53-2.44,4.15c-0.3,1.72-0.51,3.64-0.01,5.34c0.03,0.09,0.18,0.1,0.2,0
						c0.15-0.68-0.01-1.36-0.06-2.04c-0.07-0.96,0.07-1.95,0.2-2.89c0.11-0.81,0.26-1.61,0.62-2.36c0.39-0.8,1.13-1.35,1.58-2.1
						C22.62,31.44,22.55,31.37,22.49,31.4L22.49,31.4z"/>
				</g>
			</g>
			<g style="clip-path:url(#SVGID_00000163067315934194260270000012023389921533967505_);">
				<g>
					<path class="st6" d="M21.16,31.54c-1.47,0.8-1.95,2.27-2.3,3.78c-0.19,0.83-0.29,1.64-0.3,2.49c-0.01,0.93,0.22,1.82,0.28,2.74
						c0.02,0.25,0.35,0.29,0.43,0.06c0.21-0.58-0.04-1.2-0.1-1.8c-0.09-0.9-0.06-1.8,0.08-2.7c0.11-0.75,0.27-1.51,0.49-2.23
						c0.28-0.96,1.03-1.44,1.52-2.25C21.29,31.57,21.22,31.51,21.16,31.54L21.16,31.54z"/>
				</g>
			</g>
			<g style="clip-path:url(#SVGID_00000163067315934194260270000012023389921533967505_);">
				<g>
					<path class="st6" d="M19.88,31.55c-1.31,0.49-1.82,2.22-2.11,3.43c-0.2,0.84-0.29,1.72-0.37,2.58
						c-0.1,1.09-0.26,2.38,0.05,3.44c0.03,0.09,0.16,0.09,0.19,0c0.22-0.74,0.15-1.53,0.18-2.3c0.04-1.03,0.11-2.06,0.26-3.08
						c0.23-1.6,0.8-2.76,1.86-3.97C19.97,31.6,19.94,31.53,19.88,31.55L19.88,31.55z"/>
				</g>
			</g>
			<g style="clip-path:url(#SVGID_00000163067315934194260270000012023389921533967505_);">
				<g>
					<path class="st6" d="M18.48,31.85c-1.28,0.74-1.82,2.05-1.99,3.48c-0.24,1.98-0.66,4.13-0.35,6.12
						c0.02,0.11,0.18,0.11,0.22,0.03c0.29-0.5,0.17-1.02,0.17-1.58c0-0.98,0.08-1.97,0.2-2.95c0.22-1.9,0.36-3.6,1.8-5.05
						C18.55,31.87,18.51,31.83,18.48,31.85L18.48,31.85z"/>
				</g>
			</g>
			<g style="clip-path:url(#SVGID_00000163067315934194260270000012023389921533967505_);">
				<g>
					<path class="st6" d="M16.62,32.62c-0.96,0.91-1.44,2.34-1.65,3.61c-0.11,0.67-0.13,1.34-0.08,2.02
						c0.05,0.68-0.02,1.43,0.29,2.05c0.07,0.13,0.23,0.05,0.25-0.07c0.16-1.21-0.1-2.4,0.01-3.62c0.07-0.73,0.25-1.43,0.49-2.12
						c0.21-0.58,0.33-1.36,0.71-1.86C16.67,32.63,16.64,32.61,16.62,32.62L16.62,32.62z"/>
				</g>
			</g>
			<g style="clip-path:url(#SVGID_00000163067315934194260270000012023389921533967505_);">
				<g>
					<path class="st6" d="M14.64,34.35c-0.65,0.92-0.77,1.87-0.89,2.97c-0.11,1-0.18,2.3,0.27,3.22c0.04,0.09,0.18,0.06,0.2-0.03
						c0.24-0.9,0-1.92,0.03-2.84c0.04-1.12,0.42-2.19,0.46-3.3C14.71,34.33,14.66,34.32,14.64,34.35L14.64,34.35z"/>
				</g>
			</g>
		</g>
		<g>
			<path class="st8" d="M16.02,38.9c0.5,0.54,1.01,1.22,0.84,1.94c-0.11,0.46-0.48,0.81-0.76,1.2c-0.29,0.38-0.49,0.92-0.23,1.32
				c0.2,0.32,0.61,0.43,0.91,0.65c0.49,0.36,0.7,1.04,0.49,1.61c-0.12,0.33-0.37,0.6-0.52,0.92c-0.32,0.65-0.22,1.45,0.12,2.09
				c0.34,0.64,0.9,1.15,1.5,1.56c-0.92-0.04-1.8-0.03-2.72-0.08c-0.5-0.02-1-0.05-1.48-0.19c-0.87-0.26-1.61-0.92-1.96-1.76
				c-0.2-0.49-0.27-1.03-0.46-1.53c-0.15-0.39-0.36-0.74-0.56-1.1c-1.08-1.98-1.68-4.22-2.93-6.1c-0.08-0.12-0.17-0.29-0.08-0.41
				c0.05-0.07,0.15-0.09,0.24-0.11c1-0.16,2.02-0.01,3.03-0.04c1-0.03,1.99-0.24,2.99-0.31C15.03,38.52,15.62,38.47,16.02,38.9z"/>
		</g>
		<g>
			<path class="st4" d="M13.6,51.1c-0.11,1.15,0,2.88,0.19,4.29c0.12,0.88,0.37,1.79,0.43,2.4c0.11,1.04,0.81,0.84,0.84,0.52
				c0.25-2.35,0.09-3.52,0.53-5.39c0.1-0.45,0.81-0.41,0.91-0.07c0.27,0.9,0.31,1.71,0.42,2.63c0.21,1.73,0.39,2.73,0.7,3.11
				c0.15,0.17,0.46,0.19,0.54-0.02c0.73-2.01-0.2-5.61,0.96-6.04c0.23-0.08,0.47,0.08,0.53,0.31c0.41,1.85-0.1,3.93,0.81,5.61
				c0.06,0.11,0.14,0.22,0.26,0.24c0.18,0.03,0.31-0.16,0.38-0.33c0.78-1.85-0.13-5.35,0.6-5.98c0.27-0.24,0.49-0.09,0.52,0.26
				c0.31,3.15,0.59,5.26,1.24,5.51c0.36,0.14,0.52-0.96,0.51-1.39c-0.07-2.25-0.2-4.49-0.33-6.73c0.01,0.05,0.01,0.08-0.02,0.04
				c-0.03-0.04-0.08-0.04-0.13-0.04c-3.12,0.22-6.24,0.43-9.36,0.65c-0.12,0.01-0.23,0.05-0.33,0.1
				C13.7,50.85,13.61,50.98,13.6,51.1z"/>
		</g>
		<g>
			<path class="st6" d="M23.7,48.89c-0.33-0.4-8.38,0.43-10.11,0.52c-0.17,0.01-0.32,0.11-0.38,0.26c-0.15,0.35-0.05,0.65,0.04,1.03
				c0.02,0.08,0.04,0.15,0.1,0.21c0.09,0.09,0.23,0.09,0.36,0.08c2.5-0.16,5-0.31,7.5-0.47l2.14-0.14c0.16-0.01,0.32-0.05,0.46-0.13
				c0.36-0.21,0.29-0.5,0.22-0.76C23.96,49.26,23.84,49.07,23.7,48.89z"/>
		</g>
		<g>
			<g>
				<path class="st6" d="M23.54,58.13c-0.16,0-0.29,0.13-0.29,0.29c0,0.16,0.13,0.29,0.29,0.29s0.29-0.13,0.29-0.29
					C23.84,58.26,23.7,58.13,23.54,58.13L23.54,58.13z"/>
			</g>
		</g>
		<g>
			<g>
				<path class="st6" d="M20.74,58.51c-0.38,0-0.38,0.57,0,0.57S21.12,58.51,20.74,58.51L20.74,58.51z"/>
			</g>
		</g>
		<g>
			<g>
				<path class="st6" d="M17.9,58.63c-0.17,0-0.31,0.14-0.31,0.3c0,0.17,0.14,0.3,0.31,0.3c0.17,0,0.31-0.14,0.31-0.3
					C18.21,58.77,18.07,58.63,17.9,58.63L17.9,58.63z"/>
			</g>
		</g>
		<g>
			<g>
				<path class="st6" d="M14.72,58.39c-0.17,0-0.31,0.14-0.31,0.31c0,0.17,0.14,0.31,0.31,0.31c0.17,0,0.31-0.14,0.31-0.31
					C15.03,58.53,14.89,58.39,14.72,58.39L14.72,58.39z"/>
			</g>
		</g>
		<g>
			<g>
				<path class="st6" d="M23.18,53.05c0.16-0.75-0.04-1.52-0.09-2.27c-0.02-0.26-0.4-0.26-0.41,0c-0.05,0.76,0.25,1.5,0.33,2.25
					C23.01,53.12,23.15,53.15,23.18,53.05L23.18,53.05z"/>
			</g>
		</g>
		<g>
			<g>
				<path class="st6" d="M20.63,53.16c0.11-0.41,0.15-0.83,0.13-1.26c-0.02-0.33,0-0.81-0.27-1.05c-0.11-0.1-0.28-0.06-0.33,0.08
					c-0.1,0.33,0.07,0.76,0.09,1.1c0.03,0.37,0.07,0.75,0.17,1.12C20.45,53.26,20.61,53.26,20.63,53.16L20.63,53.16z"/>
			</g>
		</g>
		<g>
			<g>
				<path class="st6" d="M17.75,53.3c-0.09-0.68-0.11-1.36-0.14-2.04c-0.02-0.32-0.5-0.32-0.5,0c-0.02,0.71,0.17,1.4,0.35,2.08
					C17.5,53.5,17.77,53.47,17.75,53.3L17.75,53.3z"/>
			</g>
		</g>
		<g>
			<g>
				<path class="st6" d="M14.56,53.34c0.34-0.45,0.31-1.23,0.27-1.76c-0.03-0.36-0.56-0.37-0.58,0c-0.01,0.27,0.01,0.54,0.02,0.81
					c0.02,0.29-0.01,0.59,0.01,0.88C14.3,53.42,14.47,53.45,14.56,53.34L14.56,53.34z"/>
			</g>
		</g>
		<g>
			<defs>
				<path id="SVGID_00000160170409879401624030000008055524008535060889_" d="M16.02,38.9c0.5,0.54,1.01,1.22,0.84,1.94
					c-0.11,0.46-0.48,0.81-0.76,1.2c-0.29,0.38-0.49,0.92-0.23,1.32c0.2,0.32,0.61,0.43,0.91,0.65c0.49,0.36,0.7,1.04,0.49,1.61
					c-0.12,0.33-0.37,0.6-0.52,0.92c-0.32,0.65-0.22,1.45,0.12,2.09c0.34,0.64,0.9,1.15,1.5,1.56c-0.92-0.04-1.8-0.03-2.72-0.08
					c-0.5-0.02-1-0.05-1.48-0.19c-0.87-0.26-1.61-0.92-1.96-1.76c-0.2-0.49-0.27-1.03-0.46-1.53c-0.15-0.39-0.36-0.74-0.56-1.1
					c-1.08-1.98-1.68-4.22-2.93-6.1c-0.08-0.12-0.17-0.29-0.08-0.41c0.05-0.07,0.15-0.09,0.24-0.11c1-0.16,2.02-0.01,3.03-0.04
					c1-0.03,1.99-0.24,2.99-0.31C15.03,38.52,15.62,38.47,16.02,38.9z"/>
			</defs>
			<clipPath id="SVGID_00000156587168492118992430000012527885018473654423_">
				<use xlink:href="#SVGID_00000160170409879401624030000008055524008535060889_"  style="overflow:visible;"/>
			</clipPath>
			<g style="clip-path:url(#SVGID_00000156587168492118992430000012527885018473654423_);">
				<g>
					<path class="st6" d="M16.51,49.59c-0.31-0.36-0.48-1.02-0.59-1.46c-0.23-0.85,0.19-1.59,0.35-2.4
						c0.17-0.89-0.79-1.34-1.33-1.86c-1.23-1.17,1.14-2.77,1.28-3.98c0.1-0.9-0.75-2.06-1.49-2.49c-0.07-0.04-0.16,0.04-0.11,0.11
						c0.41,0.55,0.9,0.96,1.17,1.61c0.44,1.05-0.37,1.66-0.92,2.42c-0.47,0.64-0.93,1.73-0.31,2.44c0.33,0.38,0.77,0.63,1.14,0.97
						c0.64,0.6-0.15,1.6-0.16,2.25c-0.02,0.83,0.18,1.95,0.97,2.4C16.51,49.62,16.52,49.61,16.51,49.59L16.51,49.59z"/>
				</g>
			</g>
			<g style="clip-path:url(#SVGID_00000156587168492118992430000012527885018473654423_);">
				<g>
					<path class="st6" d="M15.41,49.48c-1.37-0.87-0.23-2.08-0.38-3.22c-0.04-0.26-0.29-0.5-0.47-0.68
						c-0.53-0.56-1.08-0.93-1.32-1.7c-0.5-1.56,1.18-2.38,1.65-3.66c0.33-0.89,0.04-1.79-0.81-2.29c-0.1-0.06-0.24,0.06-0.17,0.16
						c0.14,0.21,0.3,0.41,0.45,0.62c0.49,0.64,0.15,1.28-0.2,1.88c-0.34,0.57-0.87,0.99-1.18,1.58c-0.46,0.89-0.28,2.11,0.37,2.85
						c0.43,0.48,1.38,0.98,1.23,1.75c-0.09,0.48-0.29,0.85-0.3,1.35c-0.01,0.66,0.31,1.51,1.09,1.47
						C15.44,49.59,15.46,49.52,15.41,49.48L15.41,49.48z"/>
				</g>
			</g>
			<g style="clip-path:url(#SVGID_00000156587168492118992430000012527885018473654423_);">
				<g>
					<path class="st6" d="M14.27,49.74c-0.26-0.2-0.6-0.94-0.71-1.22c-0.19-0.47,0.19-1.39,0.12-1.94c-0.05-0.41-0.3-0.68-0.6-0.94
						c-0.62-0.53-1.16-0.89-1.42-1.7c-0.76-2.38,3.19-4.6,0.45-6.63c-0.15-0.11-0.36,0.11-0.26,0.25c0.64,0.89,1.02,1.5,0.52,2.6
						c-0.25,0.55-0.63,1.03-0.83,1.6c-0.41,1.13-0.5,2.21,0.23,3.22c0.32,0.45,0.82,0.74,1.23,1.11c0.73,0.67-0.03,1.55,0.13,2.3
						c0.08,0.4,0.56,1.53,1.14,1.41C14.3,49.8,14.3,49.76,14.27,49.74L14.27,49.74z"/>
				</g>
			</g>
			<g style="clip-path:url(#SVGID_00000156587168492118992430000012527885018473654423_);">
				<g>
					<path class="st6" d="M11.97,49.7c0.82-0.16,0.73-1.42,0.71-2.04c-0.03-1.34-1.18-1.75-2.03-2.6c-0.49-0.5-0.32-1.2-0.27-1.84
						c0.08-1.03,0.53-1.88,0.9-2.82c0.43-1.11,0.15-2.9-1.3-3.07c-0.11-0.01-0.13,0.13-0.08,0.19c0.67,0.84,1.23,1.27,0.99,2.44
						c-0.14,0.69-0.56,1.35-0.76,2.04c-0.24,0.82-0.48,2.05-0.17,2.87c0.28,0.74,1.22,1.18,1.8,1.63c0.51,0.4,0.54,0.95,0.55,1.53
						c0.01,0.33,0.08,1.47-0.36,1.62C11.92,49.66,11.93,49.71,11.97,49.7L11.97,49.7z"/>
				</g>
			</g>
			<g style="clip-path:url(#SVGID_00000156587168492118992430000012527885018473654423_);">
				<g>
					<path class="st6" d="M8.29,42.35c1.18,0.8,2.79-3.7,1.03-4.74c-0.07-0.04-0.16,0.04-0.11,0.11c0.59,0.81,0.65,1.71,0.43,2.66
						c-0.15,0.66-0.61,1.62-1.33,1.81C8.23,42.22,8.23,42.31,8.29,42.35L8.29,42.35z"/>
				</g>
			</g>
			<g style="clip-path:url(#SVGID_00000156587168492118992430000012527885018473654423_);">
				<g>
					<path class="st6" d="M7.75,41.29c0.56,0.11,1.03-0.56,1.2-1.01c0.31-0.78,0.15-1.64-0.4-2.28C8.52,37.97,8.43,38,8.43,38.06
						c0.07,0.61,0.36,1.14,0.26,1.78c-0.1,0.62-0.54,0.95-0.96,1.36C7.7,41.23,7.71,41.29,7.75,41.29L7.75,41.29z"/>
				</g>
			</g>
		</g>
		<g>
			<defs>
				<path id="SVGID_00000003064570271996413650000007885364349761775281_" d="M24.82,42.06c0.15-0.63,0.05-1.31-0.28-1.87
					c-0.1-0.17-0.24-0.34-0.44-0.4c-0.17-0.05-0.35-0.01-0.51,0.05c-0.74,0.28-1.28,1.03-1.3,1.81c-0.25-0.98-1.3-1.56-2.31-1.74
					c-1.01-0.17-2.06-0.05-3.07-0.22c0.1,0.6,0.48,1.11,0.85,1.6c0.36,0.47,0.73,0.96,1.26,1.24c0.54,0.29,1.17,0.32,1.78,0.36
					c1.12,0.06,2.26,0.12,3.35-0.13c0.13-0.03,0.26-0.06,0.36-0.14C24.68,42.49,24.77,42.28,24.82,42.06z"/>
			</defs>
			<use xlink:href="#SVGID_00000003064570271996413650000007885364349761775281_"  style="overflow:visible;fill:#D6002B;"/>
			<clipPath id="SVGID_00000078757118546479592540000008423835385438457531_">
				<use xlink:href="#SVGID_00000003064570271996413650000007885364349761775281_"  style="overflow:visible;"/>
			</clipPath>
			<g style="clip-path:url(#SVGID_00000078757118546479592540000008423835385438457531_);">
				<g>
					<path class="st6" d="M22.88,43.36c0.05-0.32,0.03-0.59,0.01-0.91c-0.05-0.79,0.42-1.51,0.95-2.05
						c0.58-0.59,0.94-1.19,0.88-2.03c-0.01-0.1-0.12-0.12-0.17-0.05c-0.36,0.49-0.43,1.08-0.84,1.55c-0.26,0.3-0.54,0.56-0.78,0.89
						c-0.61,0.84-0.41,1.7-0.13,2.59C22.82,43.39,22.87,43.4,22.88,43.36L22.88,43.36z"/>
				</g>
			</g>
			<g style="clip-path:url(#SVGID_00000078757118546479592540000008423835385438457531_);">
				<g>
					<path class="st6" d="M23.53,43.33c0.04-0.3,0.05-0.59,0.06-0.89c0.01-0.63,0.51-1.09,0.9-1.53c0.4-0.46,0.83-1.06,0.7-1.69
						c-0.02-0.08-0.15-0.1-0.18-0.02c-0.33,0.76-0.78,1.3-1.29,1.96c-0.6,0.78-0.42,1.26-0.3,2.17
						C23.42,43.37,23.52,43.4,23.53,43.33L23.53,43.33z"/>
				</g>
			</g>
			<g style="clip-path:url(#SVGID_00000078757118546479592540000008423835385438457531_);">
				<g>
					<path class="st6" d="M23.93,43.22c0.11-0.27,0.18-0.54,0.26-0.81c0.12-0.39,0.41-0.62,0.72-0.85c0.31-0.22,0.63-0.47,0.73-0.85
						c0.02-0.06-0.06-0.11-0.11-0.06c-0.38,0.37-0.86,0.58-1.24,0.95c-0.44,0.43-0.35,1.06-0.43,1.61
						C23.86,43.24,23.91,43.26,23.93,43.22L23.93,43.22z"/>
				</g>
			</g>
			<g style="clip-path:url(#SVGID_00000078757118546479592540000008423835385438457531_);">
				<g>
					<path class="st6" d="M22.24,43.36c0.27-0.94-0.61-1.84-1.13-2.53c-0.54-0.7-1.66-1.74-2.64-1.58
						c-0.09,0.02-0.09,0.14-0.02,0.18c0.85,0.52,1.65,0.88,2.33,1.66c0.59,0.68,1.18,1.4,1.41,2.28
						C22.19,43.39,22.24,43.39,22.24,43.36L22.24,43.36z"/>
				</g>
			</g>
			<g style="clip-path:url(#SVGID_00000078757118546479592540000008423835385438457531_);">
				<g>
					<path class="st6" d="M21.58,43.47c0.36-0.56-0.7-1.52-0.98-1.9c-0.32-0.44-0.66-0.88-1.12-1.18c-0.42-0.27-0.85-0.51-1.24-0.83
						c-0.3-0.25-0.5-0.59-0.8-0.84c-0.07-0.06-0.19,0-0.16,0.09c0.29,0.98,1.18,1.41,1.98,1.94c0.59,0.39,0.98,0.98,1.41,1.52
						c0.29,0.37,0.75,0.71,0.84,1.19C21.52,43.49,21.56,43.49,21.58,43.47L21.58,43.47z"/>
				</g>
			</g>
			<g style="clip-path:url(#SVGID_00000078757118546479592540000008423835385438457531_);">
				<g>
					<path class="st6" d="M20.49,43.43c0.24-0.85-0.63-1.52-1.2-2.01c-0.47-0.41-0.91-0.81-1.33-1.27
						c-0.52-0.57-0.79-1.09-1.13-1.76c-0.04-0.07-0.15-0.05-0.17,0.02c-0.24,1.07,0.51,1.6,1.18,2.32c0.8,0.85,2.24,1.5,2.53,2.7
						C20.38,43.5,20.47,43.5,20.49,43.43L20.49,43.43z"/>
				</g>
			</g>
		</g>
		<g>
			<defs>
				<path id="SVGID_00000031889585834185896550000016653115512628801709_" d="M23.77,38.87c-0.57-0.56-1.45-0.66-2.25-0.7
					c-0.48-0.02-0.96-0.04-1.45-0.05c-0.33-0.01-0.67-0.01-1,0.05c-0.46,0.09-0.9,0.3-1.32,0.51c-0.81,0.41-1.61,0.84-2.39,1.31
					c-0.22,0.13-0.44,0.27-0.63,0.44c-0.41,0.39-0.6,0.95-0.71,1.5c-0.4,1.94-0.04,3.95,0.33,5.9c0.05,0.27,0.1,0.55,0.24,0.79
					c0.28,0.5,0.86,0.76,1.42,0.91c0.91,0.24,1.87,0.25,2.82,0.21c1.55-0.07,3.11-0.3,4.55-0.86c-0.02-0.42-0.04-0.83-0.07-1.25
					c0-0.08-0.01-0.17,0.02-0.25c0.04-0.14,0.17-0.24,0.29-0.33c0.99-0.82,1.61-1.98,2.2-3.12c0.25-0.48,0.51-1,0.46-1.54
					c-0.25-0.12-0.57-0.13-0.83-0.02c-0.24,0.11-0.48,0.32-0.73,0.22c-0.23-0.09-0.28-0.38-0.29-0.63
					c-0.01-0.54,0.03-1.09-0.03-1.63C24.34,39.8,24.16,39.26,23.77,38.87z"/>
			</defs>
			<clipPath id="SVGID_00000165193686721867452300000005413576796497233082_">
				<use xlink:href="#SVGID_00000031889585834185896550000016653115512628801709_"  style="overflow:visible;"/>
			</clipPath>
			<g style="clip-path:url(#SVGID_00000165193686721867452300000005413576796497233082_);">
				<g>
					<path class="st6" d="M25.49,42.06c-0.6,0.41-1.25,0.69-1.98,0.73c-0.4,0.02-0.83,0.15-1.11,0.45
						c-0.47,0.51,0.06,1.16,0.62,1.26c0.15,0.03,0.22-0.19,0.07-0.23c-0.33-0.08-0.65-0.21-0.67-0.59
						c-0.01-0.41,0.53-0.59,0.85-0.66c0.45-0.1,0.85-0.07,1.28-0.25c0.37-0.16,0.72-0.34,0.96-0.68
						C25.52,42.07,25.5,42.05,25.49,42.06L25.49,42.06z"/>
				</g>
			</g>
		</g>
		<g>
			<g>
				<path class="st6" d="M23.21,53.61c-0.21,0-0.21,0.32,0,0.32C23.42,53.93,23.42,53.61,23.21,53.61L23.21,53.61z"/>
			</g>
		</g>
		<g>
			<g>
				<path class="st6" d="M23.32,54.18c-0.01,0-0.02,0-0.03,0c-0.2,0.03-0.2,0.28,0,0.3c0.01,0,0.02,0,0.03,0
					C23.52,54.52,23.52,54.16,23.32,54.18L23.32,54.18z"/>
			</g>
		</g>
		<g>
			<g>
				<path class="st6" d="M23.37,54.76c-0.19,0-0.19,0.29,0,0.29C23.56,55.05,23.56,54.76,23.37,54.76L23.37,54.76z"/>
			</g>
		</g>
		<g>
			<g>
				<path class="st6" d="M20.53,53.67c-0.26,0-0.26,0.4,0,0.4C20.79,54.07,20.79,53.67,20.53,53.67L20.53,53.67z"/>
			</g>
		</g>
		<g>
			<g>
				<path class="st6" d="M20.53,54.39c0,0,0.01-0.01,0.01-0.01c0.05-0.01,0.09-0.01,0.14-0.02c-0.01,0-0.01,0-0.02,0
					c-0.15-0.03-0.29,0.09-0.24,0.24c0.04,0.14,0.23,0.2,0.33,0.09c0.08-0.09,0.09-0.21,0-0.3C20.68,54.33,20.59,54.33,20.53,54.39
					L20.53,54.39z"/>
			</g>
		</g>
		<g>
			<g>
				<path class="st6" d="M20.64,54.98c-0.25,0-0.25,0.38,0,0.38C20.88,55.35,20.88,54.98,20.64,54.98L20.64,54.98z"/>
			</g>
		</g>
		<g>
			<g>
				<path class="st6" d="M17.6,53.93c0,0-0.01,0-0.02,0.01c-0.14,0.05-0.23,0.18-0.19,0.32c0.04,0.13,0.19,0.22,0.32,0.18
					c0.01,0,0.01,0,0.02-0.01c0.14-0.04,0.22-0.18,0.19-0.32C17.89,53.98,17.74,53.88,17.6,53.93L17.6,53.93z"/>
			</g>
		</g>
		<g>
			<g>
				<path class="st6" d="M17.55,54.72c0,0.01-0.01,0.01-0.01,0.02c-0.11,0.2,0.15,0.4,0.32,0.24c0.01,0,0.01-0.01,0.02-0.02
					C18.09,54.76,17.69,54.45,17.55,54.72L17.55,54.72z"/>
			</g>
		</g>
		<g>
			<g>
				<path class="st6" d="M17.6,55.38c0,0.01-0.01,0.02-0.01,0.02c-0.09,0.25,0.4,0.25,0.31,0c0-0.01-0.01-0.02-0.01-0.02
					C17.84,55.25,17.65,55.25,17.6,55.38L17.6,55.38z"/>
			</g>
		</g>
		<g>
			<g>
				<path class="st6" d="M14.53,53.86c-0.35,0-0.35,0.54,0,0.54C14.89,54.4,14.89,53.86,14.53,53.86L14.53,53.86z"/>
			</g>
		</g>
		<g>
			<g>
				<path class="st6" d="M14.53,54.64c-0.28,0-0.28,0.43,0,0.43C14.81,55.07,14.81,54.64,14.53,54.64L14.53,54.64z"/>
			</g>
		</g>
		<g>
			<g>
				<path class="st6" d="M14.58,55.22c-0.01,0-0.02-0.01-0.02-0.01c-0.1-0.04-0.21,0.06-0.21,0.16c0,0.1,0.11,0.2,0.21,0.16
					c0.01,0,0.02-0.01,0.02-0.01C14.73,55.46,14.73,55.28,14.58,55.22L14.58,55.22z"/>
			</g>
		</g>
		<g>
			<g>
				<path class="st6" d="M29.42,29.94C29.42,29.94,29.42,29.94,29.42,29.94c0.04,0,0.07,0,0.1,0c0,0-0.01,0-0.01,0
					c0.03,0.01,0.06,0.03,0.09,0.04c-0.05-0.04-0.11-0.06-0.17-0.06c0.03,0.01,0.06,0.01,0.1,0.02c-0.01,0-0.01-0.01-0.02-0.01
					c-0.15-0.08-0.29,0.07-0.25,0.21c0,0,0-0.01,0-0.01c0.01,0.1,0.1,0.2,0.22,0.18c0.11-0.01,0.2-0.09,0.21-0.2
					C29.69,29.98,29.54,29.83,29.42,29.94L29.42,29.94z"/>
			</g>
		</g>
		<g>
			<g>
				<path class="st6" d="M29.53,29.08c-0.01,0-0.02,0-0.02,0c-0.33,0.04-0.3,0.51,0.04,0.51c0.01,0,0.02,0,0.02,0
					C29.9,29.59,29.87,29.03,29.53,29.08L29.53,29.08z"/>
			</g>
		</g>
		<g>
			<g>
				<path class="st6" d="M29.69,28.16c-0.07-0.02-0.13,0-0.18,0.03c-0.11,0.07-0.13,0.29,0.02,0.34c0,0,0.01,0,0.01,0
					c0.09,0.03,0.18,0.03,0.25-0.05c0.08-0.09,0.06-0.21-0.02-0.29C29.75,28.18,29.72,28.16,29.69,28.16L29.69,28.16z"/>
			</g>
		</g>
		<g>
			<g>
				<path class="st6" d="M29.8,27.36c-0.01,0-0.02,0-0.03-0.01c-0.23-0.04-0.29,0.3-0.07,0.34c0.01,0,0.02,0,0.02,0.01
					C29.95,27.76,30.03,27.4,29.8,27.36L29.8,27.36z"/>
			</g>
		</g>
		<g>
			<g>
				<path class="st6" d="M29.89,26.69c-0.17-0.03-0.22,0.22-0.05,0.25C30,26.97,30.05,26.72,29.89,26.69L29.89,26.69z"/>
			</g>
		</g>
		<g>
			<g>
				<path class="st6" d="M27.99,26.15c-0.01,0.01-0.02,0.02-0.03,0.02c-0.1,0.08,0,0.22,0.11,0.16c0.01-0.01,0.02-0.01,0.03-0.02
					C28.22,26.26,28.09,26.07,27.99,26.15L27.99,26.15z"/>
			</g>
		</g>
		<g>
			<g>
				<path class="st6" d="M27.77,26.68c-0.04-0.04-0.08-0.06-0.14-0.07c-0.22-0.06-0.3,0.32-0.07,0.35c0.06,0.01,0.1,0.01,0.15-0.01
					C27.83,26.9,27.85,26.77,27.77,26.68L27.77,26.68z"/>
			</g>
		</g>
		<g>
			<g>
				<path class="st6" d="M27.25,27.23c-0.28-0.06-0.37,0.37-0.09,0.43C27.44,27.72,27.53,27.29,27.25,27.23L27.25,27.23z"/>
			</g>
		</g>
		<g>
			<g>
				<path class="st6" d="M27.02,28.1c-0.27-0.05-0.35,0.35-0.08,0.41C27.2,28.56,27.29,28.15,27.02,28.1L27.02,28.1z"/>
			</g>
		</g>
		<g>
			<g>
				<path class="st6" d="M26.87,28.82c-0.25-0.05-0.33,0.34-0.08,0.39C27.04,29.25,27.12,28.87,26.87,28.82L26.87,28.82z"/>
			</g>
		</g>
		<g>
			<path class="st2" d="M28.12,24.68c0.33,0.04,0.43,0.41,0.01,1.56c-0.42,1.15-0.46,2.12-0.3,2.81c0.17,0.69,0.38,1.8-0.19,1.78
				c-0.56-0.02-0.98-0.98-1.06-1.93c-0.08-1,0.14-1.79,0.34-2.53C27.13,25.64,27.77,24.64,28.12,24.68z"/>
		</g>
		<g>
			<path class="st2" d="M30.45,25c0.4-0.02,0.73,0.17,0.56,1.65c-0.18,1.48-0.75,4.38-1.34,4.54c-0.59,0.16-0.73-0.17-0.72-0.7
				C28.94,29.96,29.71,25.03,30.45,25z"/>
		</g>
		<g>
			<g>
				<path class="st6" d="M27.54,26.23c0.06,0.03,0.1,0.04,0.17,0.04c0.18,0,0.24-0.28,0.07-0.35c-0.06-0.02-0.1-0.04-0.17-0.03
					C27.43,25.89,27.37,26.15,27.54,26.23L27.54,26.23z"/>
			</g>
		</g>
		<g>
			<g>
				<path class="st6" d="M27.48,26.75c-0.15-0.03-0.3,0.07-0.34,0.22c-0.03,0.15,0.07,0.3,0.22,0.33c0.15,0.03,0.3-0.07,0.33-0.22
					C27.74,26.93,27.63,26.78,27.48,26.75L27.48,26.75z"/>
			</g>
		</g>
		<g>
			<g>
				<path class="st6" d="M27.09,28.33c0.01,0.01,0.02,0.01,0.03,0.02c0.16,0.09,0.36-0.02,0.4-0.19c0.03-0.17-0.11-0.35-0.29-0.33
					c-0.01,0-0.02,0-0.03,0C26.93,27.86,26.86,28.2,27.09,28.33L27.09,28.33z"/>
			</g>
		</g>
		<g>
			<g>
				<path class="st6" d="M27.05,29.32c0.11,0.11,0.27,0.13,0.4,0.04c0.11-0.07,0.14-0.21,0.07-0.32c-0.09-0.13-0.24-0.17-0.38-0.11
					C26.96,29,26.92,29.2,27.05,29.32L27.05,29.32z"/>
			</g>
		</g>
		<g>
			<g>
				<path class="st6" d="M27.35,30.31c0.04,0.02,0.07,0.03,0.11,0.04c0.24,0.03,0.31-0.3,0.08-0.37c-0.04-0.01-0.08-0.01-0.12-0.01
					C27.24,29.99,27.19,30.22,27.35,30.31L27.35,30.31z"/>
			</g>
		</g>
		<g>
			<g>
				<path class="st6" d="M29.68,30.76c0,0,0.01-0.01,0.01-0.01c0.12-0.09,0.13-0.29-0.02-0.36c0,0-0.01,0-0.01-0.01
					c-0.15-0.07-0.33,0.04-0.32,0.21C29.35,30.75,29.54,30.87,29.68,30.76L29.68,30.76z"/>
			</g>
		</g>
		<g>
			<g>
				<path class="st6" d="M29.79,29.95c0.01,0,0.01-0.01,0.01-0.01c0.1-0.08,0.12-0.19,0.06-0.31c0-0.01-0.01-0.01-0.01-0.02
					c-0.1-0.2-0.4-0.1-0.44,0.08C29.38,29.89,29.62,30.09,29.79,29.95L29.79,29.95z"/>
			</g>
		</g>
		<g>
			<g>
				<path class="st6" d="M29.95,29.06c0.04-0.01,0.08-0.03,0.12-0.06c0.11-0.06,0.15-0.22,0.12-0.33c-0.04-0.13-0.16-0.2-0.3-0.19
					c-0.02,0-0.04,0-0.06,0.01c-0.16,0.03-0.29,0.14-0.28,0.32C29.57,28.99,29.77,29.13,29.95,29.06L29.95,29.06z"/>
			</g>
		</g>
		<g>
			<g>
				<path class="st6" d="M30.06,27.52c-0.38-0.08-0.5,0.5-0.12,0.58C30.32,28.17,30.44,27.6,30.06,27.52L30.06,27.52z"/>
			</g>
		</g>
		<g>
			<g>
				<path class="st6" d="M30.25,26.62c-0.29-0.06-0.38,0.38-0.09,0.44C30.44,27.12,30.53,26.68,30.25,26.62L30.25,26.62z"/>
			</g>
		</g>
		<g>
			<g>
				<path class="st6" d="M30.38,25.95c-0.24-0.05-0.31,0.32-0.07,0.36C30.55,26.36,30.62,26,30.38,25.95L30.38,25.95z"/>
			</g>
		</g>
		<g>
			<g>
				<path class="st6" d="M30.53,25.68c0,0,0.01-0.01,0.02-0.01c0.05-0.03,0.06-0.1,0.03-0.14c0-0.01-0.01-0.01-0.01-0.02
					c-0.06-0.09-0.2-0.06-0.23,0.04C30.32,25.65,30.44,25.73,30.53,25.68L30.53,25.68z"/>
			</g>
		</g>
		<g>
			<g>
				<path class="st6" d="M27.94,25.33c-0.2-0.04-0.26,0.26-0.06,0.3C28.07,25.68,28.14,25.37,27.94,25.33L27.94,25.33z"/>
			</g>
		</g>
		<g>
			<path class="st2" d="M33.52,25.7c-0.33-0.03-0.56,0.22-0.63,1.44c-0.07,1.22-0.41,2.13-0.84,2.7c-0.42,0.57-1.06,1.51-0.53,1.71
				c0.53,0.2,1.29-0.52,1.74-1.37c0.47-0.89,0.56-1.7,0.69-2.46C34.07,26.92,33.89,25.73,33.52,25.7z"/>
		</g>
		<g>
			<g>
				<path class="st6" d="M33.43,27.35c-0.06,0-0.11-0.01-0.17-0.03c-0.17-0.07-0.11-0.36,0.07-0.35c0.06,0,0.11,0.01,0.17,0.04
					C33.67,27.08,33.62,27.34,33.43,27.35L33.43,27.35z"/>
			</g>
		</g>
		<g>
			<g>
				<path class="st6" d="M33.28,27.85c0.15,0.03,0.25,0.18,0.22,0.33c-0.03,0.15-0.18,0.25-0.34,0.22
					c-0.15-0.03-0.25-0.18-0.22-0.33C32.97,27.92,33.13,27.82,33.28,27.85L33.28,27.85z"/>
			</g>
		</g>
		<g>
			<g>
				<path class="st6" d="M33.02,29.46c-0.01,0-0.02,0-0.03,0c-0.18,0.02-0.32-0.16-0.29-0.33c0.03-0.17,0.24-0.28,0.4-0.19
					c0.01,0.01,0.02,0.01,0.03,0.02C33.35,29.09,33.28,29.43,33.02,29.46L33.02,29.46z"/>
			</g>
		</g>
		<g>
			<g>
				<path class="st6" d="M32.66,30.39c-0.15,0.06-0.3,0.01-0.38-0.11c-0.07-0.1-0.04-0.25,0.06-0.32c0.13-0.08,0.29-0.07,0.4,0.04
					C32.87,30.13,32.83,30.32,32.66,30.39L32.66,30.39z"/>
			</g>
		</g>
		<g>
			<g>
				<path class="st6" d="M32,31.18c-0.04,0.01-0.08,0-0.12-0.01c-0.23-0.07-0.17-0.39,0.08-0.36c0.04,0,0.08,0.02,0.11,0.04
					C32.22,30.93,32.18,31.16,32,31.18L32,31.18z"/>
			</g>
		</g>
		<g>
			<g>
				<path class="st6" d="M33.42,26.37c0.2,0.04,0.14,0.34-0.06,0.3C33.16,26.64,33.22,26.33,33.42,26.37L33.42,26.37z"/>
			</g>
		</g>
		<g>
			<g>
				<g>
					<path class="st2" d="M27.58,48.13c0.06-0.02,0.12-0.06,0.16-0.1c0.14-0.13,0.21-0.33,0.19-0.52c-0.02-0.19-0.12-0.37-0.28-0.47
						c-0.08-0.06-0.19-0.1-0.29-0.09c-0.23,0.03-0.35,0.28-0.41,0.5c-0.04,0.15-0.07,0.36,0.18,0.55
						C27.26,48.09,27.43,48.17,27.58,48.13z"/>
				</g>
				<g>
					<path class="st2" d="M27.12,47.75c-0.3-0.05-0.59-0.11-0.88-0.19c0.32-0.19,0.7-0.28,1.08-0.24c-0.05,0.13,0.09,0.32-0.01,0.41
						C27.25,47.77,27.18,47.76,27.12,47.75z"/>
				</g>
				<g>
					<g>
						<path class="st2" d="M30.08,43.28c-0.63-0.15-1.31-0.12-1.87,0.19c-0.56,0.31-0.95,0.96-0.84,1.58
							c0.04,0.24,0.15,0.47,0.31,0.66c0.15,0.19,0.33,0.38,0.55,0.46c1.06,0.38,2.52-0.28,2.98-0.86c0.1-0.12,0.18-0.26,0.23-0.4
							c0.12-0.38-0.03-0.8-0.31-1.08C30.85,43.54,30.47,43.37,30.08,43.28z"/>
					</g>
					<g>
						<path class="st2" d="M33.05,45.83c0.98-0.12,1.75-1,1.94-1.95c0.2-0.96-0.08-1.95-0.53-2.82c-0.02-0.05-0.05-0.09-0.09-0.13
							c-0.52,0.6-3.37,3-3.91,3.93c0.19,0.24,0.43,0.39,0.7,0.54C31.8,45.73,32.34,45.92,33.05,45.83z"/>
					</g>
					<g>
						<path class="st2" d="M27.88,44.45c0.08,0.01,0.15,0.06,0.21,0.11c0.55,0.44,1.4,0.89,1.52,1.57c-0.57,0.33-1.56,1.45-2,1.94
							c-0.22-0.82-0.32-2.47-0.25-3.32c0.01-0.13,0.12,0,0.18-0.12C27.61,44.52,27.74,44.42,27.88,44.45z"/>
					</g>
					<g>
						<path class="st2" d="M27.94,48.4c0.05,0.14,0.23,0.2,0.38,0.2c0.13,0.01,0.29-0.03,0.36-0.14c0.06-0.09,0.05-0.2,0.01-0.3
							c-0.05-0.09-0.13-0.16-0.22-0.22c0.16,0.06,0.38-0.01,0.42-0.18c0.03-0.14-0.08-0.28-0.2-0.36c-0.13-0.07-0.28-0.09-0.42-0.14
							c-0.15-0.06-0.29-0.15-0.42-0.24c-0.12,0.24-0.25,0.48-0.37,0.72c-0.06,0.11-0.11,0.22-0.16,0.33
							c-0.05,0.12-0.1,0.24-0.1,0.36c0,0.13,0.03,0.26,0.13,0.34c0.03,0.03,0.07,0.05,0.11,0.07c0.14,0.06,0.32,0.05,0.44-0.05
							C28,48.71,28.04,48.51,27.94,48.4z"/>
					</g>
					<g>
						<g>
							<path class="st6" d="M30.54,44.66c-0.46-0.44-1.07-0.82-1.71-0.49c-0.44,0.22-1.06,0.76-0.82,1.3c0.02,0.06,0.12,0.05,0.15,0
								c0.19-0.41,0.3-0.73,0.71-0.99c0.53-0.33,1.14-0.08,1.59,0.26C30.52,44.79,30.6,44.71,30.54,44.66L30.54,44.66z"/>
						</g>
					</g>
					<g>
						<defs>
							<path id="SVGID_00000157284013205392890420000008863235161330179257_" d="M33.05,45.83c0.98-0.12,1.75-1,1.94-1.95
								c0.2-0.96-0.08-1.95-0.53-2.82c-0.02-0.05-0.05-0.09-0.09-0.13c-0.52,0.6-3.37,3-3.91,3.93c0.19,0.24,0.43,0.39,0.7,0.54
								C31.8,45.73,32.34,45.92,33.05,45.83z"/>
						</defs>
						<clipPath id="SVGID_00000020374835378654653300000009789464619315750573_">
							<use xlink:href="#SVGID_00000157284013205392890420000008863235161330179257_"  style="overflow:visible;"/>
						</clipPath>
						<g style="clip-path:url(#SVGID_00000020374835378654653300000009789464619315750573_);">
							<g>
								<path class="st6" d="M32.16,45.2c0.94,0.69,1.78-0.44,2.08-1.25c0.41-1.08,0-2.51-0.92-3.21c-0.06-0.04-0.14,0.03-0.12,0.09
									c0.25,0.74,0.71,1.28,0.76,2.1c0.06,1.01-0.62,2.29-1.78,2.19C32.14,45.12,32.14,45.18,32.16,45.2L32.16,45.2z"/>
							</g>
						</g>
						<g style="clip-path:url(#SVGID_00000020374835378654653300000009789464619315750573_);">
							<g>
								<path class="st6" d="M32.18,44.72c1.44-0.12,1.4-2.55,0.36-3.15c-0.07-0.04-0.15,0.02-0.13,0.1
									c0.13,0.45,0.36,0.85,0.45,1.31c0.13,0.7-0.15,1.22-0.71,1.62C32.1,44.63,32.11,44.72,32.18,44.72L32.18,44.72z"/>
							</g>
						</g>
						<g style="clip-path:url(#SVGID_00000020374835378654653300000009789464619315750573_);">
							<g>
								<path class="st6" d="M31.97,44.26c0.73-0.5,0.56-1.67-0.29-1.97c-0.08-0.03-0.12,0.06-0.09,0.12
									c0.27,0.59,0.84,1.08,0.27,1.71C31.79,44.19,31.88,44.32,31.97,44.26L31.97,44.26z"/>
							</g>
						</g>
					</g>
					<g>
						<path class="st13" d="M27.4,32.06c-0.12-0.01-0.25-0.02-0.37,0.01c-0.26,0.06-0.44,0.3-0.52,0.56
							c-0.08,0.25-0.08,0.52-0.11,0.78c-0.04,0.37-0.13,0.73-0.27,1.07c-0.13,0.31-0.3,0.61-0.34,0.94
							c-0.09,0.69,0.39,1.33,0.85,1.85c0.48,0.54,1,0.65,1.48,1.84c0.25,0.6,0.33,0.92,0.46,0.98c0.19,0.1,0.37-0.13,0.46-0.24
							c0.08-0.43,0.13-0.45-0.02-1.14c-0.09-0.42-0.02-0.59-0.42-1.59c-0.13-0.34-0.09-0.14-0.28-0.45
							c0.31-0.32,0.64-0.07,1.05-0.23c0.41-0.16,0.54-0.67,0.57-1.1c0.04-0.47,0.03-0.95-0.03-1.41c-0.06-0.55-0.22-1.13-0.67-1.46
							c-0.36-0.27-0.83-0.31-1.28-0.35C27.79,32.09,27.6,32.08,27.4,32.06z"/>
					</g>
					<g>
						<g>
							<path class="st6" d="M28.69,35.76c-0.23-0.27-0.66-0.57-0.58-0.97c0.07-0.37,0.6-0.14,0.8-0.11
								c0.05,0.01,0.09-0.04,0.07-0.09c-0.15-0.32-0.82-0.25-1.01,0c-0.15,0.2-0.08,0.46,0.02,0.67c0.13,0.27,0.4,0.41,0.65,0.54
								C28.68,35.84,28.71,35.79,28.69,35.76L28.69,35.76z"/>
						</g>
					</g>
					<g>
						<g>
							<path class="st6" d="M28.82,34.47c-0.12-0.13-0.29-0.18-0.42-0.3c-0.15-0.14-0.25-0.42-0.1-0.59c0.2-0.23,0.56-0.09,0.8-0.05
								c0.05,0.01,0.08-0.03,0.06-0.08c-0.16-0.32-0.77-0.21-0.99,0c-0.14,0.14-0.14,0.39-0.06,0.56c0.05,0.12,0.13,0.21,0.22,0.3
								c0.12,0.11,0.29,0.12,0.41,0.22C28.8,34.58,28.86,34.52,28.82,34.47L28.82,34.47z"/>
						</g>
					</g>
					<g>
						<g>
							<path class="st6" d="M28.83,32.53c-0.28-0.08-0.62-0.03-0.7,0.29c-0.08,0.32,0.16,0.51,0.43,0.61
								c0.07,0.02,0.38,0.09,0.34-0.08c-0.04-0.16-0.28-0.19-0.42-0.25c-0.15-0.06-0.24-0.2-0.12-0.35
								c0.09-0.11,0.33-0.13,0.46-0.17C28.85,32.57,28.85,32.54,28.83,32.53L28.83,32.53z"/>
						</g>
					</g>
					<g>
						<path class="st2" d="M28.66,36.4c0.24-0.01,0.5,0.34,0.52,0.56c0.04,0.33-0.03,0.13,0.01,0.47c0.12,0.94,0.3,2.41,0.32,3.35
							c0.02,0.81,0.13,1.62,0.07,2.42c-0.01,0.13-0.13,0.27-0.2,0.38c-0.07,0.11-0.2,0.2-0.34,0.18c0.18-1.8,0.01-3.19-0.09-5.48
							C28.92,37.66,28.63,37.03,28.66,36.4z"/>
					</g>
					<g>
						<path class="st5" d="M27.98,36.17c0.07-0.22,0.29-0.39,0.53-0.39c0.21,0,0.4,0.11,0.58,0.21c0.14,0.08,0.28,0.17,0.43,0.25
							c0.26,0.15,0.52,0.3,0.7,0.53c0.18,0.23,0.27,0.56,0.15,0.82c-0.08,0.17-0.34,0.77-1.02,0.44c-0.37-0.18-0.88-0.84-1.26-1.32
							C27.96,36.58,27.92,36.34,27.98,36.17z"/>
					</g>
					<g>
						<g>
							<path class="st6" d="M28.93,35.88c-0.15-0.22-0.62-0.33-0.86-0.21c-0.28,0.15-0.36,0.52-0.14,0.75
								c0.02,0.02,0.05,0,0.05-0.02c-0.02-0.18,0-0.49,0.2-0.56c0.2-0.07,0.51,0,0.69,0.1C28.9,35.97,28.96,35.92,28.93,35.88
								L28.93,35.88z"/>
						</g>
					</g>
				</g>
			</g>
			<g>
				<g>
					<path class="st6" d="M27.56,47.52c-0.17,0-0.17,0.26,0,0.26C27.73,47.79,27.73,47.52,27.56,47.52L27.56,47.52z"/>
				</g>
			</g>
		</g>
		<g>
			<g>
				<path class="st6" d="M27.17,23.51c-0.01-0.01-0.02-0.01-0.03-0.02c-0.16-0.09-0.36,0.02-0.39,0.19
					c-0.03,0.17,0.11,0.35,0.29,0.32c0.01,0,0.02,0,0.03,0C27.34,23.98,27.41,23.64,27.17,23.51L27.17,23.51z"/>
			</g>
		</g>
		<g>
			<g>
				<path class="st6" d="M10.93,36.85c-0.01-0.01-0.02-0.01-0.03-0.02c-0.16-0.09-0.36,0.02-0.4,0.19
					c-0.03,0.17,0.11,0.35,0.29,0.32c0.01,0,0.02,0,0.03,0C11.09,37.31,11.16,36.97,10.93,36.85L10.93,36.85z"/>
			</g>
		</g>
		<g>
			<g>
				<path class="st6" d="M8.44,37.93c-0.01-0.01-0.02-0.01-0.03-0.02c-0.16-0.09-0.36,0.02-0.39,0.19
					c-0.03,0.17,0.11,0.35,0.29,0.32c0.01,0,0.02,0,0.03,0C8.6,38.39,8.67,38.06,8.44,37.93L8.44,37.93z"/>
			</g>
		</g>
		<g>
			<g>
				<path class="st6" d="M12.08,36.26c-0.01-0.01-0.02-0.01-0.03-0.02c-0.16-0.09-0.36,0.02-0.39,0.19
					c-0.03,0.17,0.11,0.35,0.29,0.32c0.01,0,0.02,0,0.03,0C12.24,36.72,12.31,36.38,12.08,36.26L12.08,36.26z"/>
			</g>
		</g>
		<g>
			<g>
				<path class="st6" d="M9.76,37.42c-0.01,0-0.02-0.01-0.03-0.02c-0.16-0.09-0.36,0.02-0.39,0.19c-0.03,0.17,0.11,0.35,0.29,0.32
					c0.01,0,0.02,0,0.03,0C9.92,37.89,9.99,37.55,9.76,37.42L9.76,37.42z"/>
			</g>
		</g>
		<g>
			<g>
				<path class="st6" d="M28.42,22.75c-0.01-0.01-0.02-0.01-0.03-0.02c-0.16-0.09-0.36,0.02-0.39,0.19
					c-0.03,0.17,0.11,0.35,0.29,0.32c0.01,0,0.02,0,0.03,0C28.59,23.21,28.65,22.87,28.42,22.75L28.42,22.75z"/>
			</g>
		</g>
		<g>
			<g>
				<path class="st6" d="M29.67,22.02c-0.01-0.01-0.02-0.01-0.03-0.02c-0.16-0.09-0.36,0.02-0.39,0.19
					c-0.03,0.17,0.11,0.35,0.29,0.32c0.01,0,0.02,0,0.03,0C29.83,22.49,29.9,22.15,29.67,22.02L29.67,22.02z"/>
			</g>
		</g>
		<g>
			<g>
				<path class="st6" d="M30.84,21.45c-0.01-0.01-0.02-0.01-0.03-0.02c-0.16-0.09-0.36,0.02-0.39,0.19
					c-0.03,0.17,0.11,0.35,0.29,0.32c0.01,0,0.02,0,0.03,0C31.01,21.91,31.07,21.57,30.84,21.45L30.84,21.45z"/>
			</g>
		</g>
	</g>
	<g>
		<g>
			<path class="st8" d="M5.53,11.97c0.16-0.15,0.34-0.26,0.52-0.39c0.19-0.14,0.4-0.27,0.55-0.45c0.13-0.15,0.19-0.3,0.25-0.48
				c0.06-0.18,0.07-0.58-0.03-0.75c-0.3-0.48-1.14-0.89-1.7,0.16c-0.01,0.01-0.02,0.02-0.04,0.02l0,0c-0.02,0-0.03-0.01-0.04-0.02
				c-0.56-1.05-1.4-0.63-1.7-0.16c-0.11,0.17-0.1,0.56-0.03,0.75c0.06,0.18,0.12,0.33,0.25,0.48c0.15,0.18,0.36,0.31,0.55,0.45
				c0.18,0.13,0.36,0.24,0.52,0.39c0.08,0.07,0.45,0.46,0.45,0.46S5.45,12.05,5.53,11.97z"/>
		</g>
	</g>
	<g>
		<g>
			<path class="st8" d="M34.33,47.56c-0.16,0.15-0.34,0.26-0.52,0.39c-0.19,0.14-0.4,0.27-0.56,0.45c-0.13,0.15-0.19,0.3-0.25,0.48
				c-0.06,0.18-0.07,0.58,0.03,0.75c0.3,0.48,1.15,0.89,1.7-0.16c0.01-0.02,0.02-0.02,0.04-0.02h0c0.02,0,0.03,0.01,0.04,0.02
				c0.56,1.05,1.4,0.63,1.7,0.16c0.1-0.17,0.1-0.56,0.03-0.75c-0.06-0.19-0.12-0.33-0.25-0.48c-0.15-0.18-0.36-0.31-0.55-0.45
				c-0.18-0.13-0.36-0.24-0.52-0.39c-0.08-0.07-0.45-0.46-0.45-0.46S34.41,47.48,34.33,47.56z"/>
		</g>
	</g>
	<g>
		<path class="st8" d="M7.6,8.15H6.83L5.15,5.09L3.86,6.68v1.48h-0.7V2.62h0.7v3.21L6.4,2.62h0.76L5.64,4.55L7.6,8.15z"/>
	</g>
	<g>
		<path class="st8" d="M32.22,51.31h0.77l1.68,3.06l1.29-1.58v-1.48h0.7v5.54h-0.7v-3.21l-2.54,3.21h-0.76l1.52-1.94L32.22,51.31z"
			/>
	</g>
	<g>
		<g>
			<g>
				<path class="st8" d="M12.88,56.67H5.96c-1.62,0-2.93-1.38-2.93-3.07V14.81h0.18V53.6c0,1.6,1.23,2.89,2.75,2.89h6.92V56.67z"/>
			</g>
		</g>
		<g>
			<g>
				<rect x="25.03" y="56.49" class="st8" width="6.92" height="0.18"/>
			</g>
		</g>
		<g>
			<g>
				<path class="st8" d="M36.79,44.83h-0.18V5.86c0-1.6-1.23-2.89-2.75-2.89h-7V2.79h7c1.62,0,2.94,1.38,2.94,3.07V44.83z"/>
			</g>
		</g>
		<g>
			<g>
				<rect x="8.16" y="2.79" class="st8" width="6.28" height="0.18"/>
			</g>
		</g>
	</g>
</g>
</svg>
