<?xml version="1.0" encoding="utf-8"?>
<!-- Generator: Adobe Illustrator 26.3.1, SVG Export Plug-In . SVG Version: 6.00 Build 0)  -->
<svg version="1.1" id="Layer_1" xmlns="http://www.w3.org/2000/svg" xmlns:xlink="http://www.w3.org/1999/xlink" x="0px" y="0px"
	 viewBox="0 0 40 60" style="enable-background:new 0 0 40 60;" xml:space="preserve">
<style type="text/css">
	.st0{fill:#FFFFFF;}
	.st1{fill:#2D2D2D;}
	.st2{fill:#FCC07E;}
	.st3{fill:#191956;}
	.st4{fill:#0C0A35;}
	.st5{fill:#B70027;}
	.st6{clip-path:url(#SVGID_00000041993477493848425070000011818532203428181648_);}
	.st7{fill:#222272;}
	.st8{fill:#FFD6A1;}
	.st9{fill:#F70032;}
	.st10{clip-path:url(#SVGID_00000092423096843632577370000000940179913281190318_);}
	.st11{fill:#990028;}
	.st12{clip-path:url(#SVGID_00000039092391727022577700000012453131888553828765_);}
	.st13{clip-path:url(#SVGID_00000167377590712524762510000008895748620347493549_);}
</style>
<g>
	<g>
		<path class="st0" d="M36.47,59.91H3.39c-1.86,0-3.37-1.49-3.37-3.32V3.41c0-1.83,1.51-3.32,3.37-3.32h33.07
			c1.86,0,3.37,1.49,3.37,3.32v53.18C39.84,58.42,38.33,59.91,36.47,59.91z"/>
		<path class="st1" d="M36.47,60H3.39c-1.91,0-3.46-1.53-3.46-3.41V3.41C-0.07,1.53,1.48,0,3.39,0h33.07c1.91,0,3.46,1.53,3.46,3.41
			v53.17C39.93,58.47,38.38,60,36.47,60z M3.39,0.18c-1.81,0-3.28,1.45-3.28,3.23v53.17c0,1.78,1.47,3.23,3.28,3.23h33.07
			c1.81,0,3.28-1.45,3.28-3.23V3.41c0-1.78-1.47-3.23-3.28-3.23H3.39z"/>
	</g>
	<g>
		<g>
			<path class="st2" d="M30.87,36.82c-0.02,0.31-0.07,0.63-0.24,0.91c-0.22,0.37-0.63,0.64-1.05,0.84c-1.6,0.78-3.51,0.88-5.35,0.8
				c-0.58-0.02-1.24-0.04-1.64,0.33c-0.25,0.23-0.33,0.57-0.38,0.89c-0.09,0.67-0.08,1.34,0.03,2c0.03,0.14,0.05,0.28-0.01,0.41
				c-0.07,0.14-0.23,0.22-0.38,0.29c-1.03,0.47-3.19,2.3-4.26,2.69c-0.18-1.2,0.7-3.88-0.24-4.77c-1.05-1-2.72-1.25-4.26-1.46
				c-1.54-0.2-3.21-0.47-4.24-1.49c-0.63-0.63-0.93-1.47-1.01-2.3c-0.08-0.83,0.05-1.67,0.18-2.5c0.02-0.13,0.04-0.26,0.15-0.36
				c0.15-0.14,0.4-0.12,0.61-0.11c0.99,0.06,1.98-0.08,2.97-0.19c2.93-0.35,5.91-0.54,8.83-0.14c0.97,0.13,1.93,0.33,2.9,0.47
				c1.43,0.2,2.88,0.27,4.32,0.17c0.63-0.05,1.28-0.12,1.87,0.08c0.59,0.2,1.06,0.78,0.82,1.29C30.78,35.34,30.91,36.08,30.87,36.82
				z"/>
		</g>
		<g>
			<path class="st2" d="M9.25,23.37c0.02-0.31,0.07-0.63,0.24-0.91c0.22-0.37,0.63-0.64,1.05-0.84c1.6-0.78,3.51-0.88,5.34-0.8
				c0.58,0.02,1.24,0.04,1.64-0.33c0.25-0.23,0.33-0.57,0.38-0.89c0.09-0.67,0.08-1.34-0.04-2c-0.02-0.14-0.05-0.28,0.01-0.41
				c0.07-0.14,0.23-0.22,0.38-0.29c1.03-0.47,3.19-2.3,4.26-2.69c0.18,1.2-0.7,3.88,0.24,4.77c1.05,1,2.72,1.25,4.26,1.46
				c1.54,0.2,3.21,0.48,4.24,1.49c0.63,0.63,0.93,1.47,1.01,2.3c0.08,0.83-0.05,1.67-0.18,2.5c-0.02,0.13-0.04,0.26-0.15,0.36
				c-0.15,0.14-0.4,0.12-0.61,0.11c-0.99-0.06-1.98,0.08-2.97,0.19c-2.93,0.35-5.91,0.54-8.83,0.14c-0.97-0.13-1.93-0.33-2.9-0.47
				c-1.43-0.2-2.88-0.27-4.32-0.17c-0.63,0.05-1.28,0.12-1.87-0.08s-1.06-0.79-0.82-1.29C9.34,24.85,9.2,24.11,9.25,23.37z"/>
		</g>
		<g>
			<path class="st3" d="M29.57,24.12c0.35,0.02,2.57-0.85,2.79-0.05c0.33,1.2-0.54,3.28-0.2,4.28c0.28,0.83-1.3,2.04-1.24,2.91
				c0.12,1.7,0.54,5.09-0.14,5.12c-0.67,0.04-2.36-0.21-3.03-0.24c-6.41-0.24-10.21-0.14-15.84-0.38c-1.05-0.05-2.49,0.18-2.52,0.19
				c-0.53,0.08-1.99,1.1-2.12-0.15c-0.13-1.2-0.08-3.58,0.02-4.78c0.07-0.81,0.14-1.62,0.24-2.43c0.18-1.39,0.45-2.76,0.83-4.12
				c0.04-0.14,0.08-0.29,0.19-0.41c0.12-0.14,0.32-0.22,0.51-0.29c2.8-1.02,5.97-0.78,8.99-0.53c1.09,0.09,2.19,0.18,3.25,0.44
				C22.04,23.86,28.05,24.04,29.57,24.12z"/>
		</g>
		<g>
			<path class="st4" d="M25.1,54.18c1.1-1.11,1.15-6.97,1.15-7.12c0.03-0.7-0.6-4.49-0.31-5.16c0.23-0.54,0.77-0.79,1.09-1.28
				c0.32-0.49,0.42-1.14,0.17-1.67c-0.21-0.46-0.66-0.78-1.14-0.97c-1.2-0.46-2.44-0.29-3.57,0.31c-0.19,0.1-0.51,0.39-0.67,0.54
				c-0.17,0.16-0.29,0.35-0.38,0.56c-0.19,0.46-0.21,0.97-0.19,1.47c0.07,1.58,0.49,3.11,0.91,4.64c0.12,0.43,0.24,0.86,0.47,1.24
				C23.18,47.67,21.73,54.78,25.1,54.18z"/>
		</g>
		<path class="st4" d="M7.32,36.49c-0.04-0.15-0.07-0.32,0-0.47c0.07-0.15,0.23-0.23,0.38-0.3c3.1-1.54,5.15-3.32,7.82-5.51
			c1.28-1.06,9.2-7.71,11.67-9.61c0.13-0.1,0.26-0.2,0.42-0.25c0.23-0.07,0.48-0.02,0.72,0.03c0.95,0.2,1.92,0.41,2.75,0.92
			c0.83,0.5,1.38,1.37,1.29,2.78c-2.77,1.36-6.77,5.27-11.06,8.08c-0.96,0.63-7.22,5.75-8.84,7.79c-0.09,0.11-0.18,0.23-0.31,0.29
			c-0.18,0.08-0.88,0.07-1.07,0.01C9.5,39.73,7.71,38.07,7.32,36.49z"/>
		<g>
			<g>
				<path class="st5" d="M24.47,50.98c1.16-0.82,2.22-3.44,0.49-4.29c-0.08-0.04-0.19,0.04-0.14,0.13c0.45,0.72,0.72,1.27,0.57,2.14
					c-0.12,0.69-0.53,1.4-1,1.92C24.36,50.94,24.42,51.02,24.47,50.98L24.47,50.98z"/>
			</g>
		</g>
		<g>
			<g>
				<path class="st5" d="M24.92,46.76c-0.11-0.3-0.25-0.57-0.45-0.82c-0.19-0.25-0.39-0.59-0.69-0.71
					c-0.08-0.03-0.16,0.02-0.14,0.11c0.07,0.28,0.33,0.5,0.51,0.72c0.22,0.25,0.45,0.51,0.66,0.77
					C24.86,46.87,24.94,46.82,24.92,46.76L24.92,46.76z"/>
			</g>
		</g>
		<g>
			<g>
				<path class="st5" d="M24.05,50.42c1.18-0.38,1.21-2.23,0.1-2.71c-0.08-0.04-0.18,0.04-0.13,0.13c0.2,0.35,0.49,0.6,0.59,1.01
					c0.12,0.5-0.17,1.19-0.63,1.43C23.9,50.31,23.96,50.45,24.05,50.42L24.05,50.42z"/>
			</g>
		</g>
		<g>
			<defs>
				<path id="SVGID_1_" d="M25.1,54.18c1.1-1.11,1.15-6.97,1.15-7.12c0.03-0.7-0.6-4.49-0.31-5.16c0.23-0.54,0.77-0.79,1.09-1.28
					c0.32-0.49,0.42-1.14,0.17-1.67c-0.21-0.46-0.66-0.78-1.14-0.97c-1.2-0.46-2.44-0.29-3.57,0.31c-0.19,0.1-0.51,0.39-0.67,0.54
					c-0.17,0.16-0.29,0.35-0.38,0.56c-0.19,0.46-0.21,0.97-0.19,1.47c0.07,1.58,0.49,3.11,0.91,4.64c0.12,0.43,0.24,0.86,0.47,1.24
					C23.18,47.67,21.73,54.78,25.1,54.18z"/>
			</defs>
			<clipPath id="SVGID_00000081631461440701476280000003029613667305968523_">
				<use xlink:href="#SVGID_1_"  style="overflow:visible;"/>
			</clipPath>
			<g style="clip-path:url(#SVGID_00000081631461440701476280000003029613667305968523_);">
				<g>
					<path class="st5" d="M25.59,54.71c-0.52-0.82-0.7-1.76-0.51-2.71c0.17-0.9,1.09-1.39,1.44-2.21c0.69-1.62,0.15-3.16-0.85-4.54
						c-0.6-0.84-0.79-1.95-0.79-2.95c0-0.86,0.35-1.7,0.35-2.58c0-0.62-0.32-1.19-0.68-1.66c-0.26-0.34-0.55-0.62-0.79-0.98
						c-0.26-0.4-0.29-0.89-0.5-1.31c-0.05-0.11-0.23-0.03-0.19,0.08c0.22,0.7,0.33,1.28,0.74,1.91c0.22,0.34,0.52,0.62,0.73,0.96
						c0.4,0.64,0.32,1.38,0.21,2.08c-0.26,1.68-0.36,3.12,0.58,4.64c0.62,1,1.11,1.85,1.15,3.06c0.03,1.18-1.02,1.95-1.55,2.89
						c-0.59,1.04-0.18,2.54,0.63,3.34C25.57,54.76,25.6,54.73,25.59,54.71L25.59,54.71z"/>
				</g>
			</g>
			<g style="clip-path:url(#SVGID_00000081631461440701476280000003029613667305968523_);">
				<g>
					<path class="st5" d="M26.22,53.97c-0.71-0.31-0.62-1-0.26-1.54c0.27-0.42,0.82-0.75,0.94-1.26c0.02-0.09-0.07-0.16-0.15-0.12
						c-0.56,0.28-1.37,1.19-1.44,1.84c-0.06,0.55,0.25,1.19,0.89,1.15C26.23,54.04,26.26,53.98,26.22,53.97L26.22,53.97z"/>
				</g>
			</g>
			<g style="clip-path:url(#SVGID_00000081631461440701476280000003029613667305968523_);">
				<g>
					<path class="st5" d="M27.52,45.71c-0.04-0.15-0.16-0.23-0.28-0.33c-0.34-0.28-0.48-0.59-0.72-0.95
						c-0.73-1.09-0.77-2.19-0.1-3.34c0.83-1.43,0.57-3.48-0.98-4.28c-0.09-0.05-0.21,0.05-0.15,0.14c0.34,0.52,0.81,0.82,1.04,1.45
						c0.21,0.6,0.13,1.4-0.03,1.99c-0.18,0.67-0.64,1.14-0.73,1.86c-0.08,0.68-0.08,1.44,0.37,2c0.25,0.31,0.43,0.74,0.69,1.02
						c0.21,0.23,0.56,0.29,0.77,0.51C27.45,45.82,27.53,45.77,27.52,45.71L27.52,45.71z"/>
				</g>
			</g>
			<g style="clip-path:url(#SVGID_00000081631461440701476280000003029613667305968523_);">
				<g>
					<path class="st5" d="M23.6,44.15c-0.01-0.93-0.19-1.69,0.26-2.57c0.24-0.46,0.48-1.08,0.47-1.59C24.3,38.88,23.4,38,22.5,37.43
						c-0.07-0.04-0.16,0.04-0.11,0.11c0.24,0.35,0.54,0.64,0.83,0.95c0.66,0.7,0.69,1.48,0.46,2.38c-0.13,0.49-0.42,0.88-0.53,1.38
						c-0.13,0.59,0.19,1.34,0.26,1.91C23.42,44.27,23.6,44.28,23.6,44.15L23.6,44.15z"/>
				</g>
			</g>
			<g style="clip-path:url(#SVGID_00000081631461440701476280000003029613667305968523_);">
				<g>
					<path class="st5" d="M22.67,42.94c-0.18-0.77-0.11-1.37,0.15-2.11c0.13-0.37,0.2-0.82,0.11-1.21c-0.17-0.76-0.6-1.48-1.35-1.8
						c-0.08-0.03-0.16,0.05-0.1,0.12c0.81,0.84,1.4,1.59,1.08,2.82c-0.22,0.84-0.32,1.38-0.11,2.23
						C22.49,43.13,22.7,43.07,22.67,42.94L22.67,42.94z"/>
				</g>
			</g>
			<g style="clip-path:url(#SVGID_00000081631461440701476280000003029613667305968523_);">
				<g>
					<path class="st5" d="M21.97,42.98c-0.3-1.03,0.33-2.18,0.03-3.26c-0.18-0.66-0.68-1.45-1.45-1.46c-0.12,0-0.15,0.15-0.06,0.21
						c1.02,0.66,1.24,1.68,1.19,2.81c-0.02,0.44-0.19,1.39,0.23,1.73C21.93,43.04,21.98,43.02,21.97,42.98L21.97,42.98z"/>
				</g>
			</g>
		</g>
		<g>
			<path class="st7" d="M16.43,55.74c0.01,0.07-0.09,0.08-0.16,0.07c-0.27-0.06-0.54-0.14-0.8-0.24c-0.68-0.26-1.33-0.64-1.8-1.19
				c-0.85-0.99-1.03-2.38-1.07-3.67c-0.04-1.3-0.23-2.68-0.62-4.16c-0.02-0.33,2.43-0.33,2.88-0.3c0.13,1.93,0.26,3.87,0.58,5.78
				c0.09,0.55,0.2,1.1,0.45,1.6c0.25,0.5,0.66,0.94,1.19,1.11c-0.13,0.48-0.48,0.91-0.94,1.13L16.43,55.74z"/>
		</g>
		<g>
			<path class="st8" d="M23.97,53.41c0.81-1.04,0.97-2.51,0.5-3.73c-0.05-0.13-0.11-0.27-0.1-0.41c0.03-0.29,1.14-1.47,1.43-1.94
				c0.06-0.09,0.11-0.19,0.11-0.3c0-0.26-0.29-0.43-0.55-0.47c-0.26-0.04-0.55-0.02-0.78-0.16c-0.37-0.23-0.36-0.76-0.35-1.19
				c0.04-1.01-0.16-2.1-0.9-2.79c-0.78-0.74-2.03-0.85-3.02-0.44c-0.99,0.41-1.74,1.28-2.2,2.24c-0.18,0.37-0.32,0.76-0.44,1.16
				c-0.42,1.34-0.68,2.72-0.77,4.12c-0.04,0.67-0.05,1.35,0.11,2c0.16,0.65,0.48,1.29,1.01,1.71c0.29,0.24,0.63,0.4,0.98,0.54
				c1.26,0.49,2.69,0.55,3.99,0.17c0.43-0.13,0.86-0.31,1.16-0.65L23.97,53.41z"/>
		</g>
		<g>
			<path class="st4" d="M24.33,55.15c0.51-0.35,0.87-0.89,0.99-1.49c0.08-0.41,0.05-0.84,0.02-1.25c-0.34-0.12-0.62-0.09-0.98-0.06
				c-1.97,0.16-3.96,0.16-5.93-0.02c0.43-2.73-0.16-5.5-0.14-8.26c0.01-1.78,0.16-2.63-0.3-4.35c-0.42-1.56-1.31-1.63-2.44-1.62
				c-1.07,0.02-2.24,0.2-3.05,0.89c-0.81,0.69-1,2.14-0.59,3.11c0.32,0.76,1.1,1.26,1.9,1.48c0.2,0.06,0.42,0.11,0.52,0.28
				c0.06,0.1,0.07,0.23,0.08,0.35c0.12,2.01,0.23,4.02,0.35,6.03c0.05,0.88,0.22,1.6,0.49,2.45c0.27,0.84,1.02,1.37,1.81,1.81
				c0.72,0.4,1.24,0.9,2.06,0.94c1.01,0.05,2.01,0.1,3.01,0.14c0.42,0.02,0.84,0.04,1.25-0.06L24.33,55.15z"/>
		</g>
		<g>
			<path class="st9" d="M24.54,44.18c0.01-0.07,0.01-0.15-0.02-0.21c-0.04-0.06-0.31-0.43-0.74-0.22c-0.09,0.05-0.38,0.23-0.47,0.29
				c-0.7,0.4-0.99,0.52-1.49,0.66c0.56,0.04,0.99,0.19,1.29,0.37c0.25,0.14,0.44,0.26,0.71,0.37c0.26,0.11,0.62,0.09,0.78-0.14
				c0.03-0.04,0.06-0.08,0.05-0.13c-0.01-0.39-0.26-0.47-0.36-0.56C24.26,44.57,24.5,44.41,24.54,44.18z"/>
		</g>
		<g>
			<g>
				<path class="st4" d="M19.3,51.49c0.85,0.78,2.64,0.75,3.51-0.02c0.06-0.05,0.02-0.17-0.07-0.17c-0.54,0.04-1.05,0.29-1.6,0.36
					c-0.62,0.08-1.21-0.06-1.79-0.27C19.3,51.37,19.26,51.45,19.3,51.49L19.3,51.49z"/>
			</g>
		</g>
		<g>
			<g>
				<path class="st4" d="M22.25,49.93c0.08,0.12,0.15,0.26,0.23,0.39c0.06,0.1,0.15,0.24,0.28,0.22c0.03-0.01,0.05-0.04,0.05-0.07
					c0-0.06-0.02-0.08-0.05-0.12c-0.05-0.05-0.08-0.1-0.11-0.16c-0.07-0.12-0.12-0.25-0.2-0.36C22.37,49.69,22.17,49.81,22.25,49.93
					L22.25,49.93z"/>
			</g>
		</g>
		<g>
			<g>
				<path class="st4" d="M21.07,49.86c-0.13,0.18-0.12,0.44-0.19,0.65c-0.06,0.17-0.12,0.45,0.04,0.58c0.03,0.02,0.07,0.03,0.1,0
					c0.12-0.11,0.14-0.38,0.14-0.54c0.01-0.22,0-0.46-0.03-0.68C21.12,49.84,21.08,49.84,21.07,49.86L21.07,49.86z"/>
			</g>
		</g>
		<g>
			<g>
				<path class="st4" d="M21.52,49.88c-0.07,0.19-0.01,0.36,0.06,0.54c0.04,0.1,0.08,0.19,0.12,0.29c0.03,0.08,0.04,0.16,0.13,0.19
					c0.03,0.01,0.05,0.01,0.07-0.01c0.13-0.1,0.04-0.3,0.01-0.43c-0.06-0.2-0.14-0.42-0.25-0.6C21.62,49.81,21.54,49.83,21.52,49.88
					L21.52,49.88z"/>
			</g>
		</g>
		<g>
			<g>
				<path class="st4" d="M19.94,49.7c-0.33,0-0.89,0.22-0.95,0.6c-0.01,0.04,0.03,0.08,0.07,0.07c0.14-0.03,0.28-0.14,0.39-0.23
					c0.16-0.13,0.33-0.24,0.5-0.35C20,49.76,19.99,49.7,19.94,49.7L19.94,49.7z"/>
			</g>
		</g>
		<g>
			<g>
				<path class="st4" d="M20.37,49.97c-0.25,0.15-0.53,0.47-0.52,0.78c0,0.05,0.05,0.08,0.09,0.07c0.33-0.09,0.43-0.52,0.49-0.81
					C20.43,49.98,20.4,49.95,20.37,49.97L20.37,49.97z"/>
			</g>
		</g>
		<g>
			<g>
				<path class="st4" d="M21.05,49.65c0.06-0.17,0.09-0.34,0.08-0.52c-0.01-0.14,0-0.34-0.11-0.44c-0.03-0.03-0.08-0.03-0.11,0
					c-0.12,0.12-0.07,0.29-0.05,0.44c0.02,0.18,0.09,0.35,0.12,0.52C20.99,49.68,21.04,49.68,21.05,49.65L21.05,49.65z"/>
			</g>
		</g>
		<g>
			<g>
				<path class="st4" d="M21.61,49.59c0.05-0.14,0.09-0.28,0.13-0.41c0.04-0.12,0.09-0.28,0.01-0.39c-0.02-0.03-0.07-0.05-0.1-0.03
					c-0.13,0.07-0.14,0.22-0.17,0.35c-0.04,0.15-0.04,0.31-0.03,0.46C21.47,49.65,21.59,49.67,21.61,49.59L21.61,49.59z"/>
			</g>
		</g>
		<g>
			<g>
				<path class="st4" d="M22.18,49.6c0.11-0.11,0.18-0.22,0.25-0.35c0.06-0.12,0.17-0.22,0.18-0.36c0-0.03-0.03-0.06-0.06-0.05
					c-0.15,0.02-0.22,0.15-0.29,0.27c-0.08,0.14-0.12,0.29-0.18,0.44C22.07,49.6,22.14,49.64,22.18,49.6L22.18,49.6z"/>
			</g>
		</g>
		<g>
			<g>
				<path class="st4" d="M20.38,49.7c0.27-0.13,0.02-0.98-0.27-0.82c-0.16,0.09,0.01,0.38,0.06,0.49
					C20.2,49.42,20.28,49.74,20.38,49.7L20.38,49.7z"/>
			</g>
		</g>
		<g>
			<g>
				<path class="st4" d="M19.92,49.75c-0.01-0.14,0-0.25-0.06-0.38c-0.06-0.13-0.13-0.25-0.27-0.3c-0.04-0.01-0.09,0-0.12,0.03
					c-0.1,0.1,0.04,0.25,0.11,0.32c0.05,0.06,0.09,0.12,0.14,0.18c0.05,0.06,0.11,0.11,0.16,0.17
					C19.89,49.78,19.92,49.77,19.92,49.75L19.92,49.75z"/>
			</g>
		</g>
		<g>
			<path class="st0" d="M23.17,49.65c-0.58,0.46-1.31,0.72-2.05,0.74c-0.74,0.02-1.49-0.21-2.09-0.64c0.29-0.2,0.64-0.28,0.99-0.34
				c0.3-0.06,0.72-0.12,1.03-0.13c0.43-0.01,0.82,0.01,1.24,0.1C22.61,49.45,22.85,49.49,23.17,49.65z"/>
		</g>
		<g>
			<g>
				<path class="st4" d="M21.07,49.36c-0.23,0-0.42,0.19-0.42,0.42c0,0.23,0.19,0.42,0.42,0.42c0.23,0,0.42-0.19,0.42-0.42
					C21.49,49.54,21.3,49.36,21.07,49.36L21.07,49.36z"/>
			</g>
		</g>
		<g>
			<defs>
				<path id="SVGID_00000082333765479372370860000014419670901954256260_" d="M24.33,55.15c0.51-0.35,0.87-0.89,0.99-1.49
					c0.08-0.41,0.05-0.84,0.02-1.25c-0.34-0.12-0.62-0.09-0.98-0.06c-1.97,0.16-3.96,0.16-5.93-0.02c0.43-2.73-0.16-5.5-0.14-8.26
					c0.01-1.78,0.16-2.63-0.3-4.35c-0.42-1.56-1.31-1.63-2.44-1.62c-1.07,0.02-2.24,0.2-3.05,0.89c-0.81,0.69-1,2.14-0.59,3.11
					c0.32,0.76,1.1,1.26,1.9,1.48c0.2,0.06,0.42,0.11,0.52,0.28c0.06,0.1,0.07,0.23,0.08,0.35c0.12,2.01,0.23,4.02,0.35,6.03
					c0.05,0.88,0.22,1.6,0.49,2.45c0.27,0.84,1.02,1.37,1.81,1.81c0.72,0.4,1.24,0.9,2.06,0.94c1.01,0.05,2.01,0.1,3.01,0.14
					c0.42,0.02,0.84,0.04,1.25-0.06L24.33,55.15z"/>
			</defs>
			<clipPath id="SVGID_00000173846086894333166060000013809060404071447995_">
				<use xlink:href="#SVGID_00000082333765479372370860000014419670901954256260_"  style="overflow:visible;"/>
			</clipPath>
			<g style="clip-path:url(#SVGID_00000173846086894333166060000013809060404071447995_);">
				<g>
					<path class="st5" d="M24.04,55.85c0.64-0.37,0.87-0.94,0.78-1.66c-0.04-0.33-0.18-0.62-0.35-0.9
						c-0.59-0.95-0.24-1.56,0.13-2.48c0.03-0.06-0.06-0.13-0.12-0.09c-0.71,0.5-0.83,1.23-0.75,2.05c0.04,0.38,0.29,0.59,0.48,0.89
						c0.41,0.64,0.3,1.58-0.26,2.09C23.92,55.81,23.98,55.88,24.04,55.85L24.04,55.85z"/>
				</g>
			</g>
			<g style="clip-path:url(#SVGID_00000173846086894333166060000013809060404071447995_);">
				<g>
					<path class="st5" d="M23.09,56.15c0.37-0.4,0.68-1.04,0.52-1.59c-0.11-0.4-0.32-0.72-0.54-1.08c-0.57-0.94,0.07-1.71,0.3-2.59
						c0.03-0.1-0.11-0.19-0.19-0.11c-0.55,0.56-0.76,1.32-0.72,2.09c0.02,0.39,0.24,0.76,0.43,1.08c0.41,0.66,0.5,1.44,0.12,2.15
						C22.99,56.14,23.05,56.19,23.09,56.15L23.09,56.15z"/>
				</g>
			</g>
			<g style="clip-path:url(#SVGID_00000173846086894333166060000013809060404071447995_);">
				<g>
					<path class="st5" d="M21.93,55.8c0.42-0.64,0.37-1.21,0.11-1.91c-0.14-0.39-0.41-0.74-0.57-1.13
						c-0.29-0.71,0.26-1.38,0.37-2.06c0.02-0.1-0.09-0.17-0.17-0.1c-0.56,0.52-0.81,1.18-0.75,1.93c0.1,1.22,1.46,1.86,0.95,3.24
						C21.86,55.81,21.92,55.82,21.93,55.8L21.93,55.8z"/>
				</g>
			</g>
			<g style="clip-path:url(#SVGID_00000173846086894333166060000013809060404071447995_);">
				<g>
					<path class="st5" d="M21.11,55.9c0.23-0.69-0.02-1.16-0.43-1.73c-0.37-0.52-0.56-0.94-0.59-1.59c-0.03-0.69,0.38-1.2,0.5-1.83
						c0.02-0.08-0.06-0.14-0.14-0.1c-0.78,0.34-0.85,1.48-0.81,2.22c0.07,1.19,1.41,1.86,1.33,3.02
						C20.97,55.96,21.09,55.97,21.11,55.9L21.11,55.9z"/>
				</g>
			</g>
			<g style="clip-path:url(#SVGID_00000173846086894333166060000013809060404071447995_);">
				<g>
					<path class="st5" d="M20.14,56.11c0.08-0.93-0.3-1.56-0.94-2.21c-1.14-1.15,0.1-2.43,0.25-3.65c0.01-0.09-0.12-0.14-0.18-0.07
						c-0.65,0.72-1.02,1.82-1,2.78c0.01,0.34,0.17,0.77,0.4,1.02c0.62,0.68,1.22,1.17,1.39,2.14
						C20.08,56.16,20.13,56.15,20.14,56.11L20.14,56.11z"/>
				</g>
			</g>
			<g style="clip-path:url(#SVGID_00000173846086894333166060000013809060404071447995_);">
				<g>
					<path class="st5" d="M19.27,55.79c-0.14-0.54-0.68-0.96-0.96-1.43c-0.67-1.13-0.95-2.3-0.64-3.59
						c0.22-0.94,0.75-1.77,0.95-2.72c0.16-0.78-0.19-1.48-0.44-2.19c-0.31-0.9-0.76-1.88-0.86-2.83c-0.1-0.93,0.49-1.84,0.82-2.68
						c0.45-1.17,0.15-2.59-0.77-3.44c-0.06-0.06-0.18,0.02-0.12,0.09c1.21,1.8,0.47,3.2-0.12,5.02c-0.48,1.47,0.48,3.29,1.04,4.62
						c0.75,1.79-0.92,3.65-0.94,5.49c-0.01,0.74,0.31,1.45,0.62,2.1c0.34,0.72,0.9,0.99,1.32,1.6
						C19.2,55.89,19.29,55.86,19.27,55.79L19.27,55.79z"/>
				</g>
			</g>
			<g style="clip-path:url(#SVGID_00000173846086894333166060000013809060404071447995_);">
				<g>
					<path class="st5" d="M19.65,45.47c-0.65-0.64-1.15-1.34-1.26-2.26c-0.08-0.74,0.26-1.46,0.26-2.2c0-0.1-0.13-0.13-0.18-0.05
						c-1.1,1.7-0.46,3.51,1.03,4.66C19.61,45.69,19.75,45.57,19.65,45.47L19.65,45.47z"/>
				</g>
			</g>
			<g style="clip-path:url(#SVGID_00000173846086894333166060000013809060404071447995_);">
				<g>
					<path class="st5" d="M17.43,55.52c-0.49-0.63-0.82-1.17-1-1.95c-0.24-1.08,0.12-2.18,0.47-3.2c0.46-1.37,1.22-2.53,0.49-4
						c-0.38-0.76-0.83-1.39-1.06-2.22c-0.34-1.23-0.05-2.23,0.43-3.37c0.54-1.24,0.72-2.65-0.25-3.71c-0.07-0.07-0.21,0-0.17,0.1
						c0.38,0.95,0.52,1.77,0.25,2.78c-0.21,0.8-0.75,1.52-0.83,2.35c-0.08,0.78,0.02,1.52,0.21,2.27c0.22,0.84,0.77,1.49,1.07,2.28
						c0.68,1.78-0.96,3.64-1.09,5.43c-0.09,1.22,0.19,2.73,1.4,3.31C17.4,55.61,17.46,55.57,17.43,55.52L17.43,55.52z"/>
				</g>
			</g>
			<g style="clip-path:url(#SVGID_00000173846086894333166060000013809060404071447995_);">
				<g>
					<path class="st5" d="M15.39,54.34c-0.01-0.92-0.27-1.72-0.05-2.66c0.21-0.92,0.58-1.77,0.87-2.66c0.59-1.8-0.31-3.19-0.92-4.84
						c-0.35-0.95-0.53-1.85-0.2-2.84c0.28-0.84,0.8-1.53,1-2.41c0.32-1.41-0.54-2.29-1.62-2.99c-0.12-0.08-0.24,0.07-0.18,0.18
						c0.34,0.64,0.95,0.98,1.22,1.7c0.38,1.02-0.37,2.14-0.78,3.02c-0.62,1.29-0.31,2.53,0.18,3.8c0.3,0.78,0.74,1.5,1,2.3
						c0.33,1.01-0.02,2.03-0.37,2.97c-0.29,0.77-0.55,1.55-0.72,2.35c-0.16,0.75,0.22,1.4,0.43,2.1
						C15.26,54.44,15.39,54.42,15.39,54.34L15.39,54.34z"/>
				</g>
			</g>
			<g style="clip-path:url(#SVGID_00000173846086894333166060000013809060404071447995_);">
				<g>
					<path class="st5" d="M14.16,50.77c0.78-0.92,1.09-2.04,0.96-3.23c-0.11-0.96-0.44-2.2-1.46-2.55
						c-0.12-0.04-0.24,0.11-0.17,0.22c1.1,1.57,1.75,3.72,0.51,5.44C13.93,50.74,14.08,50.86,14.16,50.77L14.16,50.77z"/>
				</g>
			</g>
			<g style="clip-path:url(#SVGID_00000173846086894333166060000013809060404071447995_);">
				<g>
					<path class="st5" d="M14.25,44.01c-0.65-0.98-0.86-1.9-0.37-3.02c0.35-0.79,0.8-1.41,0.95-2.28c0.21-1.16-0.87-2.09-1.92-2.34
						c-0.12-0.03-0.22,0.12-0.12,0.21c0.55,0.51,1.25,0.82,1.5,1.57c0.32,0.95-0.66,2.08-1.01,2.91c-0.46,1.09-0.18,2.43,0.87,3.05
						C14.21,44.15,14.3,44.07,14.25,44.01L14.25,44.01z"/>
				</g>
			</g>
			<g style="clip-path:url(#SVGID_00000173846086894333166060000013809060404071447995_);">
				<g>
					<path class="st5" d="M13.06,43.67c-0.58-1.1-0.72-2.12-0.19-3.27c0.26-0.58,0.52-1.03,0.53-1.68c0.02-0.9-0.89-1.8-1.75-1.9
						c-0.08-0.01-0.11,0.1-0.06,0.15c0.47,0.5,0.98,0.8,1.26,1.47c0.34,0.8-0.41,1.71-0.66,2.45c-0.35,1.04,0.08,2.06,0.72,2.87
						C12.98,43.84,13.12,43.77,13.06,43.67L13.06,43.67z"/>
				</g>
			</g>
		</g>
		<g>
			<path class="st3" d="M25.05,57.46c0.05,0.2,0.18,0.56,0.21,0.82c0.01,0.07-0.06,0.12-0.13,0.11c-0.15-0.04-1.26-0.94-1.72-1.24
				c-0.08-0.05-0.18-0.02-0.21,0.06c-0.28,0.65-0.46,1.44-0.6,2.14c-0.02,0.09-0.13,0.11-0.19,0.04c-0.43-0.61-0.93-1.24-1.24-1.92
				c-0.02-0.04-0.08-0.04-0.1,0c-0.28,0.71-0.6,1.4-0.96,2.06c-0.06,0.1-0.21,0.1-0.26-0.01c-0.31-0.69-0.36-1.35-0.61-2.07
				c-0.03-0.09-0.08-0.18-0.17-0.2c-0.1-0.02-0.17,0.07-0.23,0.15c-0.18,0.28-0.89,1.57-1.24,1.88c-0.09,0.09-0.25,0.04-0.28-0.08
				c-0.19-0.79-0.12-2.14-0.37-2.3c-0.16-0.1-1.4,1.34-1.94,1.34c-0.02,0-0.03-0.02-0.04-0.03c-0.15-0.21,0.25-1.63,0.45-2.54
				c0.03-0.13,0.36-2.11,0.45-2.03c0.45,0.38,1.31,0.81,2.39,1.09c2.19,0.56,3.46,0.51,5.7,0.28c0.11-0.01,0.23-0.02,0.32,0.04
				c0.07,0.04,0.1,0.12,0.14,0.19C24.61,55.59,24.75,56.36,25.05,57.46z"/>
		</g>
		<g>
			<g>
				<path class="st9" d="M24.66,57.27c-0.1-0.24-0.24-0.48-0.39-0.7c-0.16-0.24-0.57,0-0.39,0.23c0.16,0.21,0.38,0.39,0.51,0.63
					C24.48,57.61,24.74,57.45,24.66,57.27L24.66,57.27z"/>
			</g>
		</g>
		<g>
			<g>
				<path class="st9" d="M22.54,58.02c-0.03-0.36,0.21-0.86-0.14-1.15c-0.23-0.19-0.62-0.02-0.52,0.3c0.04,0.15,0.12,0.27,0.17,0.42
					c0.05,0.16,0.11,0.31,0.15,0.47C22.24,58.25,22.56,58.22,22.54,58.02L22.54,58.02z"/>
			</g>
		</g>
		<g>
			<g>
				<path class="st9" d="M20.23,58.2c0.1-0.34,0.25-0.66,0.27-1.01c0.02-0.41-0.63-0.41-0.65,0c-0.01,0.34,0.06,0.68,0.11,1.01
					C19.99,58.34,20.2,58.32,20.23,58.2L20.23,58.2z"/>
			</g>
		</g>
		<g>
			<g>
				<path class="st9" d="M17.98,57.8c0.14-0.28,0.35-0.52,0.42-0.83c0.07-0.3-0.4-0.53-0.53-0.22c-0.13,0.3-0.12,0.61-0.21,0.92
					C17.6,57.85,17.89,57.98,17.98,57.8L17.98,57.8z"/>
			</g>
		</g>
		<g>
			<g>
				<path class="st9" d="M15.82,57.08c0.26-0.33,1.05-0.57,0.77-1.12c-0.1-0.19-0.35-0.19-0.49-0.06c-0.08,0.07-0.1,0.16-0.14,0.24
					c-0.04,0.09-0.1,0.18-0.16,0.27c-0.1,0.16-0.21,0.32-0.28,0.5C15.45,57.07,15.71,57.22,15.82,57.08L15.82,57.08z"/>
			</g>
		</g>
		<g>
			<g>
				<path class="st4" d="M24.3,55.82c-0.18,0-0.18,0.28,0,0.28C24.48,56.1,24.48,55.82,24.3,55.82L24.3,55.82z"/>
			</g>
		</g>
		<g>
			<g>
				<path class="st4" d="M23.78,55.94c-0.23,0-0.23,0.36,0,0.36C24.01,56.29,24.01,55.94,23.78,55.94L23.78,55.94z"/>
			</g>
		</g>
		<g>
			<g>
				<path class="st4" d="M23.24,56.07c-0.24,0-0.24,0.38,0,0.38C23.49,56.44,23.49,56.07,23.24,56.07L23.24,56.07z"/>
			</g>
		</g>
		<g>
			<g>
				<path class="st4" d="M22.57,56.19c-0.24,0-0.24,0.36,0,0.36C22.81,56.55,22.81,56.19,22.57,56.19L22.57,56.19z"/>
			</g>
		</g>
		<g>
			<g>
				<path class="st4" d="M21.84,56.24c-0.25,0-0.25,0.37,0,0.37C22.09,56.61,22.09,56.24,21.84,56.24L21.84,56.24z"/>
			</g>
		</g>
		<g>
			<g>
				<path class="st4" d="M21.15,56.26c-0.26,0-0.26,0.4,0,0.4C21.41,56.67,21.41,56.26,21.15,56.26L21.15,56.26z"/>
			</g>
		</g>
		<g>
			<g>
				<path class="st4" d="M20.39,56.23c-0.25,0-0.25,0.38,0,0.38C20.64,56.62,20.64,56.23,20.39,56.23L20.39,56.23z"/>
			</g>
		</g>
		<g>
			<g>
				<path class="st4" d="M19.64,56.12c-0.29,0-0.29,0.45,0,0.45C19.94,56.57,19.94,56.12,19.64,56.12L19.64,56.12z"/>
			</g>
		</g>
		<g>
			<g>
				<path class="st4" d="M18.9,55.99c-0.3,0-0.3,0.46,0,0.46C19.2,56.45,19.2,55.99,18.9,55.99L18.9,55.99z"/>
			</g>
		</g>
		<g>
			<g>
				<path class="st4" d="M18.14,55.79c-0.26,0-0.26,0.4,0,0.4C18.4,56.19,18.4,55.79,18.14,55.79L18.14,55.79z"/>
			</g>
		</g>
		<g>
			<g>
				<path class="st4" d="M17.5,55.55c-0.31,0-0.31,0.47,0,0.47C17.8,56.01,17.8,55.55,17.5,55.55L17.5,55.55z"/>
			</g>
		</g>
		<g>
			<g>
				<path class="st4" d="M16.92,55.32c-0.28,0-0.28,0.42,0,0.42C17.2,55.75,17.2,55.32,16.92,55.32L16.92,55.32z"/>
			</g>
		</g>
		<g>
			<g>
				<path class="st4" d="M16.3,55.19c0,0-0.01,0-0.01,0c-0.13,0.03-0.13,0.24,0,0.27c0,0,0.01,0,0.01,0
					C16.53,55.51,16.53,55.15,16.3,55.19L16.3,55.19z"/>
			</g>
		</g>
		<g>
			<g>
				<path class="st4" d="M15.79,55.06c-0.02,0-0.02,0.02,0,0.02C15.8,55.08,15.8,55.06,15.79,55.06L15.79,55.06z"/>
			</g>
		</g>
		<g>
			<g>
				<path class="st4" d="M15.82,54.93c-0.25,0-0.25,0.39,0,0.39C16.08,55.32,16.08,54.93,15.82,54.93L15.82,54.93z"/>
			</g>
		</g>
		<g>
			<g>
				<path class="st3" d="M15.4,54.35c-0.09-0.09-0.18-0.18-0.26-0.27c-0.06-0.06-0.19-0.15-0.27-0.07c-0.08,0.08,0.01,0.2,0.08,0.26
					c0.09,0.08,0.18,0.17,0.28,0.25C15.35,54.63,15.52,54.46,15.4,54.35L15.4,54.35z"/>
			</g>
		</g>
		<g>
			<g>
				<path class="st3" d="M14.81,54.63c-0.08-0.07-0.15-0.14-0.21-0.22c-0.07-0.09-0.15-0.18-0.26-0.21
					c-0.08-0.02-0.14,0.04-0.15,0.11c-0.02,0.24,0.3,0.42,0.48,0.51C14.78,54.87,14.92,54.72,14.81,54.63L14.81,54.63z"/>
			</g>
		</g>
		<g>
			<g>
				<path class="st3" d="M15.36,53.53c-0.05-0.12-0.1-0.23-0.19-0.33c-0.11-0.13-0.33,0.01-0.28,0.16c0.04,0.11,0.1,0.2,0.15,0.3
					C15.12,53.84,15.43,53.71,15.36,53.53L15.36,53.53z"/>
			</g>
		</g>
		<g>
			<g>
				<path class="st3" d="M14.37,53.54c-0.06-0.16-0.14-0.35-0.31-0.42c-0.09-0.04-0.22,0.03-0.18,0.14
					c0.05,0.15,0.16,0.25,0.24,0.39C14.19,53.78,14.42,53.69,14.37,53.54L14.37,53.54z"/>
			</g>
		</g>
		<g>
			<g>
				<path class="st3" d="M14.61,52.65c-0.03-0.13-0.08-0.27-0.13-0.4c-0.03-0.07-0.06-0.12-0.14-0.15c0.07,0.02-0.03-0.02-0.04-0.02
					c-0.02-0.01-0.05-0.01-0.07,0c-0.13,0.04-0.13,0.22-0.09,0.32c0.05,0.13,0.14,0.24,0.19,0.37C14.4,52.92,14.65,52.8,14.61,52.65
					L14.61,52.65z"/>
			</g>
		</g>
		<g>
			<g>
				<path class="st3" d="M14.63,51.31c-0.06-0.17-0.16-0.4-0.32-0.49c-0.1-0.05-0.23,0.04-0.2,0.15c0.05,0.17,0.22,0.28,0.3,0.43
					C14.47,51.52,14.67,51.44,14.63,51.31L14.63,51.31z"/>
			</g>
		</g>
		<g>
			<g>
				<path class="st3" d="M13.65,52.35c-0.03-0.14-0.03-0.3-0.15-0.4c-0.06-0.05-0.13-0.07-0.2-0.03c-0.06,0.04-0.1,0.12-0.08,0.18
					c0.04,0.11,0.09,0.21,0.13,0.32C13.43,52.61,13.68,52.55,13.65,52.35L13.65,52.35z"/>
			</g>
		</g>
		<g>
			<g>
				<path class="st3" d="M13.51,51.17c-0.03-0.16,0.03-0.35-0.05-0.49c-0.05-0.09-0.19-0.09-0.24,0c-0.05,0.08-0.04,0.17-0.03,0.26
					c0.01,0.1,0.02,0.2,0.05,0.3C13.29,51.42,13.55,51.34,13.51,51.17L13.51,51.17z"/>
			</g>
		</g>
		<g>
			<g>
				<path class="st3" d="M13.5,53.26c-0.03-0.14-0.01-0.27-0.12-0.38c-0.1-0.1-0.25,0.01-0.23,0.13c0.02,0.12,0.1,0.23,0.17,0.33
					C13.39,53.42,13.53,53.37,13.5,53.26L13.5,53.26z"/>
			</g>
		</g>
		<g>
			<g>
				<path class="st3" d="M13.93,50.23c0-0.12-0.01-0.23-0.02-0.35c-0.01-0.08-0.05-0.2-0.15-0.2c-0.1,0-0.14,0.12-0.14,0.2
					c-0.01,0.12,0.06,0.26,0.09,0.38C13.74,50.38,13.93,50.36,13.93,50.23L13.93,50.23z"/>
			</g>
		</g>
		<g>
			<g>
				<path class="st3" d="M14.42,49.57c0.05-0.18,0.08-0.48-0.09-0.61c-0.1-0.08-0.22-0.05-0.27,0.07c-0.07,0.18,0.09,0.36,0.11,0.54
					C14.2,49.7,14.39,49.68,14.42,49.57L14.42,49.57z"/>
			</g>
		</g>
		<g>
			<g>
				<path class="st3" d="M13.15,49.93c-0.03-0.14-0.04-0.36-0.19-0.42c-0.03-0.01-0.07-0.02-0.09,0.01c-0.11,0.14-0.02,0.33,0,0.49
					C12.9,50.18,13.19,50.11,13.15,49.93L13.15,49.93z"/>
			</g>
		</g>
		<g>
			<g>
				<path class="st3" d="M13.46,48.72c-0.05-0.12-0.04-0.27-0.19-0.32c-0.04-0.01-0.07,0.01-0.08,0.05
					c-0.05,0.12,0.02,0.28,0.07,0.39C13.32,48.98,13.52,48.86,13.46,48.72L13.46,48.72z"/>
			</g>
		</g>
		<g>
			<g>
				<path class="st3" d="M14.12,48.1c0.01-0.13-0.02-0.3-0.08-0.42c-0.04-0.09-0.19-0.07-0.21,0.03c-0.03,0.13,0.04,0.26,0.03,0.39
					C13.85,48.26,14.11,48.26,14.12,48.1L14.12,48.1z"/>
			</g>
		</g>
		<g>
			<g>
				<path class="st3" d="M12.84,48.15c-0.01-0.07-0.02-0.14-0.04-0.2c-0.02-0.07-0.02-0.14-0.04-0.2c-0.01-0.04-0.04-0.08-0.08-0.08
					c-0.01,0-0.02,0-0.03,0c-0.05,0-0.1,0.03-0.11,0.09c-0.04,0.14,0.04,0.3,0.07,0.44C12.63,48.31,12.85,48.28,12.84,48.15
					L12.84,48.15z"/>
			</g>
		</g>
		<g>
			<g>
				<path class="st3" d="M13.34,47.42c-0.02-0.12,0-0.25-0.06-0.36c-0.05-0.09-0.23-0.08-0.24,0.03c-0.02,0.13,0,0.28,0.03,0.41
					C13.1,47.67,13.37,47.6,13.34,47.42L13.34,47.42z"/>
			</g>
		</g>
		<g>
			<g>
				<path class="st3" d="M14.17,46.96c-0.02-0.12-0.05-0.25-0.14-0.34c-0.03-0.03-0.09-0.05-0.14-0.03
					c-0.19,0.07-0.04,0.33-0.02,0.46C13.91,47.23,14.2,47.15,14.17,46.96L14.17,46.96z"/>
			</g>
		</g>
		<g>
			<g>
				<path class="st3" d="M12.73,46.89c-0.01-0.1-0.04-0.18-0.12-0.24c-0.07-0.05-0.17,0.02-0.17,0.09c0,0.06,0.03,0.12,0.03,0.18
					C12.5,47.11,12.76,47.08,12.73,46.89L12.73,46.89z"/>
			</g>
		</g>
		<g>
			<g>
				<path class="st9" d="M20.03,46.11c-0.47,0-0.87,0.39-0.87,0.85c0,0.47,0.39,0.85,0.87,0.85c0.47,0,0.87-0.39,0.87-0.85
					C20.9,46.49,20.5,46.11,20.03,46.11L20.03,46.11z"/>
			</g>
		</g>
		<g>
			<g>
				<path class="st9" d="M22.53,38.84c-0.3,0-0.3,0.45,0,0.45C22.83,39.3,22.83,38.84,22.53,38.84L22.53,38.84z"/>
			</g>
		</g>
		<g>
			<g>
				<path class="st9" d="M22.01,38.42c-0.25,0-0.25,0.38,0,0.38C22.26,38.79,22.26,38.42,22.01,38.42L22.01,38.42z"/>
			</g>
		</g>
		<g>
			<g>
				<path class="st9" d="M21.41,38.2c-0.27,0-0.27,0.41,0,0.41C21.68,38.6,21.68,38.2,21.41,38.2L21.41,38.2z"/>
			</g>
		</g>
		<g>
			<g>
				<path class="st9" d="M20.73,38.07c-0.26,0-0.26,0.4,0,0.4C20.99,38.47,20.99,38.07,20.73,38.07L20.73,38.07z"/>
			</g>
		</g>
		<g>
			<g>
				<path class="st9" d="M20.08,38.03c-0.28,0-0.28,0.43,0,0.43C20.36,38.46,20.36,38.03,20.08,38.03L20.08,38.03z"/>
			</g>
		</g>
		<g>
			<g>
				<path class="st9" d="M19.42,38.05c-0.29,0-0.29,0.44,0,0.44C19.71,38.49,19.71,38.05,19.42,38.05L19.42,38.05z"/>
			</g>
		</g>
		<g>
			<g>
				<path class="st9" d="M18.74,38.18c-0.25,0-0.25,0.39,0,0.39C18.99,38.57,18.99,38.18,18.74,38.18L18.74,38.18z"/>
			</g>
		</g>
		<g>
			<g>
				<path class="st9" d="M18.06,38.38c-0.29,0-0.29,0.45,0,0.45C18.35,38.83,18.35,38.38,18.06,38.38L18.06,38.38z"/>
			</g>
		</g>
		<g>
			<g>
				<path class="st9" d="M20.11,36.95c-0.26,0-0.47,0.21-0.47,0.47c0,0.25,0.21,0.47,0.47,0.47c0.26,0,0.47-0.21,0.47-0.47
					C20.58,37.17,20.37,36.95,20.11,36.95L20.11,36.95z"/>
			</g>
		</g>
		<g>
			<g>
				<path class="st7" d="M29.04,30.65c-0.08,0.68-0.07,1.37,0.04,2.05c0.21,0.01,0.7,2.63,0.82,2.72c0.94,0.73,1.03-0.91,0.87-0.05
					c-0.05,0.29-0.61,0.61-0.41,0.89c0.12,0.06,0.64,0.13,1.26-0.18c0.54-0.27,0.72-0.68,0.84-1.06c0.12-0.38,0.03-0.78-0.32-1.11
					c-0.11-0.11-0.24-0.21-0.34-0.31c-0.24-0.26-0.26-0.55-0.3-0.84c-0.09-0.67-0.3-1.34-0.5-2.01c-0.02-0.07-0.05-0.15-0.16-0.2
					c-0.08-0.03-0.18-0.04-0.28-0.05c-0.36-0.03-0.72-0.05-1.09-0.06c-0.1,0-0.2,0-0.28,0.03C29.06,30.51,29.04,30.58,29.04,30.65z"
					/>
			</g>
			<g>
				<path class="st9" d="M30.9,46.83c0.03,0.8,0.02,1.21,0.03,1.69c0,0.18-0.18,0.36-0.27,0.27c-0.08-0.08-0.34-3.32-0.83-3.24
					c-0.17,0.03,0.02,2.02-0.05,2.88c-0.02,0.22-0.13,0.47-0.25,0.44c-0.16-0.03-0.28-2.75-0.56-3.11
					c-0.14-0.18-0.29,1.77-0.46,2.62c-0.04,0.22-0.2,0.57-0.33,0.4c-0.09-0.11-0.15-0.71-0.18-2.54c-0.02-0.98-0.09-1.19,0.18-1.61
					c0.28-0.43,0.41-0.15,0.78-0.44c0.09-0.07,0.12-0.45,0.13-0.57c0.06-0.95,0.01-1.7,0.07-2.65c0.04-0.75-0.37-6.39-0.42-7.04
					c-0.01-0.16-0.02-0.32,0.06-0.46c0.08-0.14,0.24-0.39,0.35,1.42c0.27,4.47,0.31,5.18,0.24,9.06c0,0.13,0.08,0.3,0.31,0.35
					c0.23,0.06,0.46-0.14,0.9,0.5C30.79,45.03,30.86,45.83,30.9,46.83z"/>
			</g>
			<g>
				<path class="st8" d="M31.35,38.31c-0.14,0.22-0.49,0.47-0.75,0.47c-0.6,0-1-0.08-1.64-0.16c-0.11-0.01-0.21-0.07-0.26-0.16
					c-0.03-0.06-0.14-0.33,0.29-0.46c0.13-0.04,0.27-0.05,0.41-0.05c0.33-0.01,1.15,0.12,1.17,0c0.03-0.15-1.46-0.25-1.95-0.55
					c-0.06-0.04-0.12-0.08-0.15-0.14c-0.09-0.18,0.04-0.33,0.23-0.39c0.44-0.13,1.07,0.23,1.73,0.25c0.05,0,0.07-0.07,0.02-0.09
					c-0.62-0.26-1.5-0.51-1.81-1c-0.11-0.17,0.08-0.36,0.28-0.38c0.3-0.03,1.18,0.52,1.38,0.47c0.05-0.01,0.06-0.14-0.18-0.26
					c-0.28-0.14-0.66-0.39-0.85-0.56c-0.11-0.1-0.15-0.25-0.1-0.38c0.07-0.19,0.36-0.08,0.52-0.07c0.15,0.01,0.61,0.26,0.84,0.39
					c0.19,0.11,0.12-0.28,0.1-0.5c-0.02-0.33,0.01-0.67,0.18-0.73c0.34-0.12,0.69,0.09,0.99,0.28c0.09,0.06,0.19,0.13,0.25,0.22
					c0.05,0.08,0.21,0.43,0.22,0.52C32.32,36.8,32.03,37.26,31.35,38.31z"/>
			</g>
			<g>
				<g>
					<path class="st11" d="M29.41,38.4c-0.06-0.14-0.16-0.19-0.29-0.24c-0.06-0.02-0.13-0.04-0.2-0.05c-0.04,0-0.08,0-0.12,0.01
						c-0.02,0.01-0.11,0.05-0.05,0.03c-0.09,0.04-0.15,0.11-0.13,0.22c-0.02-0.09,0.03,0.08,0.03,0.08
						c0.02,0.03,0.04,0.06,0.06,0.08c0.06,0.06,0.14,0.08,0.21,0.1c0.12,0.03,0.29,0.03,0.4-0.04
						C29.39,38.56,29.44,38.48,29.41,38.4L29.41,38.4z"/>
				</g>
			</g>
			<g>
				<g>
					<path class="st11" d="M29.03,37.12c-0.14-0.13-0.28-0.22-0.48-0.18c-0.19,0.03-0.27,0.32-0.12,0.44
						c0.11,0.09,0.28,0.16,0.43,0.14c0.09-0.01,0.16-0.04,0.2-0.12C29.12,37.32,29.11,37.2,29.03,37.12L29.03,37.12z"/>
				</g>
			</g>
			<g>
				<g>
					<path class="st11" d="M29.21,36.12c0-0.02,0-0.09,0-0.03c0-0.01-0.05-0.15-0.02-0.09c-0.03-0.08-0.08-0.14-0.14-0.2
						c-0.09-0.09-0.19-0.13-0.32-0.11c-0.08,0.01-0.17,0.09-0.19,0.17c-0.02,0.1,0.01,0.21,0.08,0.28c0.02,0.01,0.04,0.03,0.06,0.04
						c-0.02-0.02-0.02-0.02,0,0c0.04,0.03,0.07,0.06,0.12,0.08C28.95,36.34,29.19,36.32,29.21,36.12L29.21,36.12z"/>
				</g>
			</g>
			<g>
				<g>
					<path class="st11" d="M29.71,35.21c-0.02-0.07-0.05-0.11-0.1-0.19c-0.06-0.09-0.14-0.17-0.25-0.19
						c-0.17-0.02-0.35,0.1-0.29,0.29c0.06,0.18,0.3,0.38,0.51,0.31C29.67,35.4,29.74,35.31,29.71,35.21L29.71,35.21z"/>
				</g>
			</g>
			<g>
				<g>
					<path class="st4" d="M31.36,38.35c0.02-0.06,0.04-0.13,0.04-0.2c-0.01-0.12-0.16-0.14-0.21-0.03
						c-0.02,0.05-0.03,0.11-0.05,0.17C31.09,38.42,31.31,38.48,31.36,38.35L31.36,38.35z"/>
				</g>
			</g>
			<g>
				<g>
					<path class="st4" d="M31.45,37.61c0.05-0.09,0.08-0.19,0.05-0.29c-0.05-0.14-0.29-0.13-0.28,0.04c0,0.07,0.02,0.13,0.01,0.19
						C31.21,37.67,31.39,37.7,31.45,37.61L31.45,37.61z"/>
				</g>
			</g>
			<g>
				<g>
					<path class="st4" d="M31.54,36.76c0.02-0.1,0.03-0.21-0.04-0.29c-0.05-0.06-0.17-0.03-0.19,0.05
						c-0.01,0.07,0.01,0.14,0.01,0.21C31.32,36.86,31.52,36.89,31.54,36.76L31.54,36.76z"/>
				</g>
			</g>
			<g>
				<g>
					<path class="st4" d="M31.51,35.77c-0.03-0.09-0.07-0.18-0.16-0.23c-0.09-0.05-0.22,0.03-0.19,0.14
						c0.02,0.07,0.07,0.13,0.1,0.19C31.34,36.01,31.56,35.91,31.51,35.77L31.51,35.77z"/>
				</g>
			</g>
			<g>
				<path class="st9" d="M30.5,40.12c-0.18-0.26-0.49-0.41-0.81-0.42c-0.09,0-0.18,0-0.26,0.03c-0.02,0.01-0.05,0.02-0.07,0.04
					c-0.04,0.04-0.03,0.11,0,0.17c0.07,0.16,0.14,0.44,0.49,0.63c0.42,0.23,0.75,0.32,0.96,0.29c0.01-0.01,0.01-0.01,0.01-0.03
					C30.69,40.61,30.64,40.34,30.5,40.12z"/>
			</g>
			<g>
				<path class="st9" d="M29.23,39.01c0.01,0.02,0.01,0.04,0.01,0.06c-0.05,0.31-0.34,0.53-0.64,0.62c-0.3,0.09-0.62,0.08-0.94,0.11
					c0.07-0.14,0.16-0.27,0.26-0.4c0.06-0.07,0.11-0.14,0.18-0.19c0.29-0.25,0.71-0.34,1.07-0.23
					C29.2,38.98,29.22,38.99,29.23,39.01z"/>
			</g>
			<g>
				<path class="st7" d="M28.25,27.46c-0.56,0.7-0.57,1.88-0.53,2.28c0.03,0.43,0.07,0.87,0.21,1.28c0.2,0.58,0.61,1.07,1.01,1.54
					c0.14,0.16,0.05,0.48,0.22,0.61c0.68,0.54,1.59-0.1,2.46-0.04c0.05-0.27,0.22-0.48,0.41-0.68c0.52-0.56,0.94-0.55,1.48-1.42
					c0.77-1.23,0.24-2.67-0.64-3.8c-0.55-0.71-1.71-0.68-2.52-0.66C29.49,26.59,28.78,26.81,28.25,27.46z"/>
			</g>
			<g>
				<g>
					<path class="st11" d="M29.24,31.36c-0.15-0.72-0.18-1.44-0.15-2.18c0.03-0.62,0.59-1.04,0.55-1.63
						c-0.02-0.34-0.5-0.52-0.69-0.18c-0.33,0.62-0.62,1.08-0.6,1.81c0.01,0.8,0.22,1.6,0.54,2.32
						C28.98,31.71,29.28,31.56,29.24,31.36L29.24,31.36z"/>
				</g>
			</g>
			<g>
				<g>
					<path class="st11" d="M30.59,31.56c0.34-0.61,0.42-1.25,0.47-1.94c0.04-0.66-0.18-1.31-0.11-1.97c0.05-0.52-0.79-0.52-0.82,0
						c-0.04,0.57,0.14,1.13,0.17,1.7c0.03,0.71-0.04,1.41-0.05,2.11C30.24,31.65,30.5,31.72,30.59,31.56L30.59,31.56z"/>
				</g>
			</g>
			<g>
				<g>
					<path class="st11" d="M31.9,31.68c0.49-0.64,0.64-1.38,0.68-2.17c0.04-0.61-0.11-1.58-0.7-1.9c-0.13-0.07-0.27,0-0.32,0.13
						c-0.2,0.54,0.27,1.19,0.29,1.77c0.02,0.67-0.11,1.39-0.28,2.03C31.51,31.75,31.78,31.84,31.9,31.68L31.9,31.68z"/>
				</g>
			</g>
			<g>
				<g>
					<path class="st9" d="M29.15,32.48C29.16,32.48,29.16,32.48,29.15,32.48c0.01,0.05,0.06,0.1,0.11,0.11c0,0,0,0,0.01,0
						c0.15,0.02,0.28-0.14,0.16-0.27C29.31,32.21,29.12,32.32,29.15,32.48L29.15,32.48z"/>
				</g>
			</g>
			<g>
				<g>
					<path class="st9" d="M29.8,32.26c-0.22,0-0.22,0.34,0,0.34S30.02,32.26,29.8,32.26L29.8,32.26z"/>
				</g>
			</g>
			<g>
				<g>
					<path class="st9" d="M30.35,32.28c-0.2,0-0.2,0.3,0,0.3C30.55,32.59,30.55,32.28,30.35,32.28L30.35,32.28z"/>
				</g>
			</g>
			<g>
				<g>
					<path class="st9" d="M30.87,32.27c-0.24,0-0.24,0.36,0,0.36C31.11,32.63,31.11,32.27,30.87,32.27L30.87,32.27z"/>
				</g>
			</g>
			<g>
				<g>
					<path class="st9" d="M31.42,32.31c-0.22,0-0.22,0.33,0,0.33C31.64,32.65,31.64,32.31,31.42,32.31L31.42,32.31z"/>
				</g>
			</g>
		</g>
		<g>
			<g>
				<path class="st9" d="M25.94,35.38c-0.24,0-0.24,0.36,0,0.36C26.18,35.74,26.18,35.38,25.94,35.38L25.94,35.38z"/>
			</g>
		</g>
		<g>
			<g>
				<path class="st9" d="M26.96,33.29c0-0.01,0-0.01-0.01-0.02c-0.07-0.15-0.3-0.09-0.33,0.05c0,0.01,0,0.01,0,0.02
					c-0.03,0.12,0.06,0.23,0.18,0.23C26.95,33.57,27.01,33.41,26.96,33.29L26.96,33.29z"/>
			</g>
		</g>
		<g>
			<g>
				<path class="st9" d="M27.6,34.3c-0.2,0-0.2,0.3,0,0.3C27.79,34.6,27.79,34.3,27.6,34.3L27.6,34.3z"/>
			</g>
		</g>
		<g>
			<g>
				<path class="st9" d="M28.7,32.27c-0.25,0-0.25,0.38,0,0.38C28.94,32.65,28.94,32.27,28.7,32.27L28.7,32.27z"/>
			</g>
		</g>
		<g>
			<g>
				<path class="st9" d="M27.32,31.79c-0.01,0-0.01-0.01-0.02-0.01c-0.11-0.05-0.22,0.01-0.23,0.13c0,0.01,0,0.01,0,0.02
					c-0.01,0.12,0.14,0.2,0.25,0.14C27.42,32.02,27.44,31.85,27.32,31.79L27.32,31.79z"/>
			</g>
		</g>
		<g>
			<g>
				<path class="st9" d="M25.42,33.77c0-0.01-0.01-0.02-0.01-0.03c-0.04-0.17-0.32-0.17-0.36,0c0,0.01,0,0.02-0.01,0.03
					c-0.03,0.12,0.06,0.24,0.19,0.24C25.37,34.01,25.45,33.89,25.42,33.77L25.42,33.77z"/>
			</g>
		</g>
		<g>
			<g>
				<path class="st9" d="M23.92,35.07c-0.29,0-0.29,0.44,0,0.44C24.21,35.52,24.21,35.07,23.92,35.07L23.92,35.07z"/>
			</g>
		</g>
		<g>
			<g>
				<path class="st9" d="M22.65,33.33c-0.24,0-0.24,0.37,0,0.37C22.9,33.7,22.9,33.33,22.65,33.33L22.65,33.33z"/>
			</g>
		</g>
		<g>
			<g>
				<path class="st9" d="M21.4,35.15c-0.23,0-0.23,0.36,0,0.36C21.64,35.51,21.64,35.15,21.4,35.15L21.4,35.15z"/>
			</g>
		</g>
		<g>
			<g>
				<path class="st9" d="M23.8,32.29c0.06-0.07,0.08-0.13,0.07-0.21c-0.01-0.07-0.09-0.11-0.15-0.11c-0.09,0-0.15,0.07-0.15,0.15
					c0,0.01,0,0.02,0,0.02c0.01-0.03,0.01-0.05,0.02-0.08c0,0-0.01,0.01-0.01,0.01C23.43,32.21,23.67,32.44,23.8,32.29L23.8,32.29z"
					/>
			</g>
		</g>
		<g>
			<g>
				<path class="st9" d="M24.76,30.39c-0.22,0-0.22,0.34,0,0.34C24.99,30.73,24.99,30.39,24.76,30.39L24.76,30.39z"/>
			</g>
		</g>
		<g>
			<g>
				<path class="st9" d="M21.42,33.73c-0.29,0-0.29,0.44,0,0.44C21.71,34.17,21.71,33.73,21.42,33.73L21.42,33.73z"/>
			</g>
		</g>
		<g>
			<g>
				<path class="st9" d="M22.78,34.77c0,0-0.01-0.01-0.02-0.01c-0.1-0.07-0.27,0.02-0.26,0.15c0,0.01,0,0.01,0,0.02
					c0.01,0.13,0.15,0.23,0.28,0.16C22.9,35.01,22.89,34.84,22.78,34.77L22.78,34.77z"/>
			</g>
		</g>
		<g>
			<g>
				<path class="st9" d="M19.96,33.81c-0.23,0-0.23,0.35,0,0.35S20.19,33.81,19.96,33.81L19.96,33.81z"/>
			</g>
		</g>
		<g>
			<g>
				<path class="st9" d="M19.82,34.98c-0.28,0-0.28,0.43,0,0.43C20.1,35.41,20.1,34.98,19.82,34.98L19.82,34.98z"/>
			</g>
		</g>
		<g>
			<g>
				<path class="st9" d="M26.55,34.61c0.02-0.03,0.04-0.07,0.03-0.11c-0.01-0.18-0.28-0.23-0.33-0.04c0,0,0,0.01,0,0.01
					c0.01-0.02,0.03-0.05,0.04-0.07c0,0-0.01,0.01-0.02,0.01C26.09,34.54,26.39,34.83,26.55,34.61L26.55,34.61z"/>
			</g>
		</g>
		<g>
			<g>
				<path class="st9" d="M27.18,28.56c-0.2,0-0.2,0.3,0,0.3C27.37,28.86,27.37,28.56,27.18,28.56L27.18,28.56z"/>
			</g>
		</g>
		<g>
			<g>
				<path class="st9" d="M26.47,30.66c-0.26,0-0.26,0.4,0,0.4C26.74,31.07,26.74,30.66,26.47,30.66L26.47,30.66z"/>
			</g>
		</g>
		<g>
			<g>
				<path class="st9" d="M24.4,32.71c-0.28,0-0.28,0.43,0,0.43C24.68,33.14,24.68,32.71,24.4,32.71L24.4,32.71z"/>
			</g>
		</g>
		<g>
			<g>
				<path class="st9" d="M25.8,32.17c0-0.01,0.01-0.01,0.01-0.02c0.09-0.16-0.06-0.31-0.22-0.28c-0.06,0.01-0.1,0.06-0.12,0.11
					c-0.04,0.1-0.03,0.2,0.07,0.26C25.63,32.29,25.75,32.26,25.8,32.17L25.8,32.17z"/>
			</g>
		</g>
		<g>
			<g>
				<path class="st9" d="M25.8,29.38c-0.01,0-0.02,0-0.03,0c-0.09-0.01-0.17,0.07-0.19,0.15c-0.03,0.09,0.02,0.17,0.09,0.22
					c0.01,0.01,0.02,0.01,0.03,0.02c0.11,0.08,0.27,0,0.31-0.12C26.04,29.5,25.93,29.39,25.8,29.38L25.8,29.38z"/>
			</g>
		</g>
		<g>
			<g>
				<path class="st9" d="M27.23,29.94c0-0.01,0-0.02,0-0.02c-0.01-0.07-0.04-0.13-0.12-0.15c-0.08-0.02-0.18,0.03-0.2,0.11
					c0,0.01,0,0.02,0,0.02C26.85,30.15,27.26,30.16,27.23,29.94L27.23,29.94z"/>
			</g>
		</g>
		<g>
			<g>
				<path class="st9" d="M32,25.15c0-0.01,0-0.02,0-0.02c0-0.21-0.32-0.21-0.33,0c0,0.01,0,0.02,0,0.02
					C31.66,25.36,32,25.36,32,25.15L32,25.15z"/>
			</g>
		</g>
		<g>
			<g>
				<path class="st9" d="M30.58,25.65c-0.3,0-0.3,0.46,0,0.46C30.88,26.12,30.88,25.65,30.58,25.65L30.58,25.65z"/>
			</g>
		</g>
		<g>
			<g>
				<path class="st9" d="M31.62,25.97c-0.07-0.03-0.12,0.05-0.11,0.11c0,0.01,0,0.01,0,0.02c0.02,0.07,0.11,0.09,0.16,0.04
					c0.06-0.05,0.02-0.13-0.04-0.16L31.62,25.97z"/>
			</g>
		</g>
		<g>
			<path class="st4" d="M15.02,6.01c-1.1,1.11-1.15,6.97-1.15,7.12c-0.03,0.7,0.6,4.49,0.31,5.16c-0.23,0.54-0.77,0.79-1.09,1.28
				c-0.32,0.49-0.42,1.14-0.17,1.67c0.22,0.46,0.66,0.78,1.14,0.97c1.2,0.46,2.44,0.29,3.57-0.31c0.19-0.1,0.51-0.39,0.67-0.54
				c0.17-0.16,0.29-0.35,0.38-0.56c0.19-0.46,0.21-0.97,0.19-1.47c-0.07-1.58-0.49-3.11-0.91-4.64c-0.12-0.43-0.24-0.86-0.47-1.24
				C16.94,12.52,18.38,5.41,15.02,6.01z"/>
		</g>
		<g>
			<g>
				<path class="st5" d="M15.64,9.21c-1.17,0.82-2.22,3.44-0.49,4.29c0.09,0.04,0.19-0.05,0.14-0.13c-0.45-0.72-0.72-1.27-0.57-2.14
					c0.12-0.69,0.53-1.4,1-1.92C15.75,9.25,15.7,9.17,15.64,9.21L15.64,9.21z"/>
			</g>
		</g>
		<g>
			<g>
				<path class="st5" d="M15.19,13.43c0.11,0.3,0.25,0.57,0.45,0.82c0.19,0.25,0.39,0.59,0.69,0.71c0.08,0.03,0.16-0.02,0.14-0.11
					c-0.07-0.28-0.33-0.5-0.51-0.71c-0.22-0.25-0.45-0.51-0.66-0.77C15.26,13.32,15.17,13.37,15.19,13.43L15.19,13.43z"/>
			</g>
		</g>
		<g>
			<g>
				<path class="st5" d="M16.07,9.77c-1.18,0.38-1.21,2.23-0.1,2.71c0.08,0.04,0.18-0.04,0.13-0.13c-0.2-0.35-0.49-0.6-0.59-1.01
					c-0.12-0.5,0.17-1.19,0.63-1.43C16.22,9.88,16.16,9.74,16.07,9.77L16.07,9.77z"/>
			</g>
		</g>
		<g>
			<defs>
				<path id="SVGID_00000032625201111502099980000000009357296279134622_" d="M15.02,6.01c-1.1,1.11-1.15,6.97-1.15,7.12
					c-0.03,0.7,0.6,4.49,0.31,5.16c-0.23,0.54-0.77,0.79-1.09,1.28c-0.32,0.49-0.42,1.14-0.17,1.67c0.22,0.46,0.66,0.78,1.14,0.97
					c1.2,0.46,2.44,0.29,3.57-0.31c0.19-0.1,0.51-0.39,0.67-0.54c0.17-0.16,0.29-0.35,0.38-0.56c0.19-0.46,0.21-0.97,0.19-1.47
					c-0.07-1.58-0.49-3.11-0.91-4.64c-0.12-0.43-0.24-0.86-0.47-1.24C16.94,12.52,18.38,5.41,15.02,6.01z"/>
			</defs>
			<clipPath id="SVGID_00000165922204628819422530000017523067576749398676_">
				<use xlink:href="#SVGID_00000032625201111502099980000000009357296279134622_"  style="overflow:visible;"/>
			</clipPath>
			<g style="clip-path:url(#SVGID_00000165922204628819422530000017523067576749398676_);">
				<g>
					<path class="st5" d="M14.53,5.48c0.52,0.82,0.7,1.76,0.51,2.71c-0.17,0.9-1.09,1.39-1.44,2.21c-0.69,1.62-0.15,3.16,0.85,4.54
						c0.6,0.84,0.79,1.95,0.79,2.95c0,0.86-0.35,1.7-0.35,2.58c0,0.62,0.32,1.19,0.68,1.66c0.26,0.34,0.55,0.62,0.79,0.98
						c0.27,0.4,0.29,0.89,0.5,1.31c0.05,0.11,0.23,0.03,0.19-0.08c-0.22-0.7-0.33-1.28-0.74-1.91c-0.22-0.34-0.52-0.62-0.73-0.96
						c-0.4-0.64-0.32-1.38-0.21-2.08c0.26-1.68,0.36-3.12-0.58-4.64c-0.62-1-1.11-1.85-1.15-3.06c-0.03-1.18,1.02-1.95,1.55-2.89
						c0.59-1.04,0.18-2.54-0.63-3.34C14.54,5.44,14.51,5.46,14.53,5.48L14.53,5.48z"/>
				</g>
			</g>
			<g style="clip-path:url(#SVGID_00000165922204628819422530000017523067576749398676_);">
				<g>
					<path class="st5" d="M13.9,6.23c0.71,0.31,0.62,1,0.26,1.54c-0.27,0.42-0.82,0.75-0.94,1.26c-0.02,0.09,0.07,0.16,0.15,0.12
						c0.56-0.28,1.37-1.19,1.44-1.84c0.06-0.55-0.25-1.19-0.89-1.15C13.88,6.16,13.86,6.21,13.9,6.23L13.9,6.23z"/>
				</g>
			</g>
			<g style="clip-path:url(#SVGID_00000165922204628819422530000017523067576749398676_);">
				<g>
					<path class="st5" d="M12.6,14.49c0.04,0.15,0.16,0.23,0.28,0.33c0.34,0.28,0.48,0.59,0.72,0.95c0.73,1.09,0.77,2.19,0.1,3.34
						c-0.83,1.43-0.57,3.48,0.98,4.28c0.09,0.05,0.21-0.05,0.14-0.14c-0.34-0.52-0.81-0.82-1.04-1.45c-0.21-0.6-0.13-1.4,0.03-1.99
						c0.18-0.67,0.64-1.14,0.73-1.86c0.09-0.68,0.09-1.44-0.37-2c-0.25-0.31-0.43-0.73-0.69-1.02c-0.21-0.23-0.56-0.29-0.77-0.51
						C12.66,14.38,12.58,14.42,12.6,14.49L12.6,14.49z"/>
				</g>
			</g>
			<g style="clip-path:url(#SVGID_00000165922204628819422530000017523067576749398676_);">
				<g>
					<path class="st5" d="M16.52,16.04c0.01,0.93,0.19,1.69-0.26,2.57c-0.24,0.46-0.48,1.08-0.47,1.59
						c0.03,1.11,0.93,1.99,1.83,2.56c0.07,0.04,0.16-0.04,0.11-0.11c-0.24-0.35-0.54-0.64-0.83-0.95c-0.66-0.7-0.69-1.48-0.46-2.38
						c0.13-0.49,0.43-0.88,0.53-1.38c0.13-0.59-0.19-1.34-0.26-1.91C16.69,15.92,16.51,15.92,16.52,16.04L16.52,16.04z"/>
				</g>
			</g>
			<g style="clip-path:url(#SVGID_00000165922204628819422530000017523067576749398676_);">
				<g>
					<path class="st5" d="M17.45,17.26c0.18,0.77,0.11,1.37-0.15,2.11c-0.13,0.37-0.2,0.82-0.11,1.21c0.17,0.76,0.6,1.48,1.35,1.8
						c0.08,0.03,0.16-0.05,0.1-0.12c-0.81-0.84-1.4-1.59-1.08-2.82c0.22-0.84,0.33-1.38,0.11-2.23
						C17.63,17.06,17.42,17.12,17.45,17.26L17.45,17.26z"/>
				</g>
			</g>
			<g style="clip-path:url(#SVGID_00000165922204628819422530000017523067576749398676_);">
				<g>
					<path class="st5" d="M18.15,17.21c0.3,1.03-0.33,2.18-0.03,3.26c0.18,0.66,0.68,1.45,1.45,1.46c0.12,0,0.15-0.15,0.06-0.21
						c-1.02-0.66-1.24-1.68-1.19-2.81c0.02-0.44,0.19-1.39-0.23-1.73C18.18,17.15,18.14,17.17,18.15,17.21L18.15,17.21z"/>
				</g>
			</g>
		</g>
		<g>
			<path class="st7" d="M23.68,4.45c-0.01-0.07,0.09-0.08,0.16-0.07c0.27,0.06,0.54,0.14,0.8,0.24c0.68,0.26,1.33,0.64,1.8,1.19
				c0.85,0.99,1.03,2.38,1.07,3.67c0.04,1.3,0.23,2.68,0.62,4.16c0.02,0.33-2.43,0.33-2.88,0.3c-0.13-1.93-0.26-3.87-0.58-5.78
				c-0.09-0.55-0.2-1.1-0.45-1.6c-0.25-0.5-0.66-0.94-1.19-1.11c0.13-0.48,0.48-0.91,0.93-1.13L23.68,4.45z"/>
		</g>
		<g>
			<path class="st8" d="M16.15,6.78c-0.81,1.04-0.97,2.51-0.5,3.73c0.05,0.13,0.11,0.27,0.1,0.41c-0.03,0.29-1.14,1.47-1.43,1.94
				c-0.06,0.09-0.11,0.19-0.11,0.3c-0.01,0.26,0.29,0.43,0.55,0.47c0.26,0.04,0.55,0.02,0.78,0.16c0.37,0.23,0.36,0.76,0.35,1.19
				c-0.04,1.01,0.16,2.1,0.9,2.79c0.78,0.73,2.03,0.85,3.02,0.44c0.99-0.41,1.74-1.28,2.2-2.24c0.18-0.37,0.32-0.76,0.44-1.16
				c0.42-1.34,0.68-2.72,0.77-4.12c0.04-0.67,0.05-1.35-0.11-2c-0.16-0.65-0.48-1.29-1.01-1.71c-0.29-0.24-0.63-0.4-0.98-0.54
				c-1.26-0.49-2.69-0.54-3.99-0.17c-0.43,0.13-0.86,0.31-1.16,0.65L16.15,6.78z"/>
		</g>
		<g>
			<path class="st4" d="M15.78,5.04c-0.51,0.35-0.87,0.89-0.99,1.49c-0.08,0.41-0.05,0.84-0.02,1.25c0.34,0.12,0.62,0.09,0.98,0.06
				c1.97-0.16,3.96-0.16,5.93,0.02c-0.43,2.73,0.16,5.5,0.14,8.26c-0.01,1.78-0.16,2.63,0.29,4.35c0.42,1.56,1.31,1.63,2.44,1.62
				c1.07-0.02,2.24-0.2,3.05-0.89c0.81-0.69,1-2.14,0.59-3.11c-0.32-0.76-1.1-1.26-1.9-1.48c-0.2-0.05-0.42-0.11-0.52-0.28
				c-0.06-0.1-0.07-0.23-0.08-0.35c-0.12-2.01-0.23-4.02-0.35-6.03c-0.05-0.88-0.22-1.6-0.49-2.45c-0.27-0.84-1.02-1.37-1.8-1.81
				c-0.72-0.4-1.24-0.9-2.06-0.94c-1.01-0.05-2.01-0.1-3.01-0.14c-0.42-0.02-0.84-0.04-1.25,0.06L15.78,5.04z"/>
		</g>
		<g>
			<path class="st9" d="M15.58,16.01c-0.01,0.07-0.01,0.15,0.02,0.21c0.04,0.06,0.31,0.43,0.74,0.22c0.09-0.05,0.38-0.23,0.47-0.29
				c0.7-0.4,0.99-0.52,1.49-0.66c-0.56-0.04-0.99-0.2-1.29-0.37c-0.25-0.14-0.44-0.26-0.71-0.36c-0.26-0.11-0.62-0.09-0.78,0.14
				c-0.03,0.04-0.06,0.08-0.06,0.13c0.01,0.39,0.26,0.47,0.36,0.56C15.85,15.62,15.62,15.78,15.58,16.01z"/>
		</g>
		<g>
			<g>
				<path class="st4" d="M20.81,8.7c-0.85-0.78-2.65-0.75-3.51,0.02c-0.06,0.06-0.02,0.17,0.07,0.17c0.54-0.04,1.05-0.3,1.6-0.36
					c0.62-0.08,1.21,0.05,1.79,0.27C20.81,8.82,20.85,8.74,20.81,8.7L20.81,8.7z"/>
			</g>
		</g>
		<g>
			<g>
				<path class="st4" d="M17.86,10.26c-0.09-0.12-0.15-0.26-0.23-0.39c-0.06-0.1-0.15-0.24-0.28-0.22C17.32,9.66,17.3,9.7,17.3,9.72
					c0,0.06,0.01,0.08,0.05,0.12c0.05,0.05,0.08,0.1,0.11,0.16c0.07,0.12,0.12,0.25,0.2,0.36C17.74,10.5,17.94,10.38,17.86,10.26
					L17.86,10.26z"/>
			</g>
		</g>
		<g>
			<g>
				<path class="st4" d="M19.05,10.33c0.13-0.18,0.12-0.44,0.19-0.65c0.06-0.17,0.12-0.45-0.04-0.58c-0.03-0.02-0.07-0.03-0.1,0
					c-0.12,0.11-0.14,0.38-0.14,0.54c-0.01,0.22,0,0.46,0.03,0.68C18.99,10.35,19.03,10.35,19.05,10.33L19.05,10.33z"/>
			</g>
		</g>
		<g>
			<g>
				<path class="st4" d="M18.59,10.31c0.07-0.19,0.01-0.36-0.06-0.54c-0.04-0.1-0.08-0.19-0.11-0.29c-0.03-0.08-0.04-0.16-0.13-0.19
					c-0.03-0.01-0.05-0.01-0.07,0.01c-0.13,0.1-0.04,0.3-0.01,0.43c0.06,0.2,0.14,0.42,0.25,0.6C18.5,10.38,18.57,10.37,18.59,10.31
					L18.59,10.31z"/>
			</g>
		</g>
		<g>
			<g>
				<path class="st4" d="M20.17,10.49c0.33,0,0.89-0.22,0.94-0.6c0.01-0.04-0.02-0.08-0.07-0.07c-0.14,0.03-0.28,0.14-0.39,0.23
					c-0.16,0.13-0.33,0.24-0.5,0.35C20.11,10.43,20.13,10.49,20.17,10.49L20.17,10.49z"/>
			</g>
		</g>
		<g>
			<g>
				<path class="st4" d="M19.75,10.22c0.25-0.15,0.53-0.47,0.53-0.78c0-0.05-0.05-0.08-0.09-0.07c-0.33,0.09-0.43,0.52-0.49,0.81
					C19.68,10.21,19.71,10.24,19.75,10.22L19.75,10.22z"/>
			</g>
		</g>
		<g>
			<g>
				<path class="st4" d="M19.07,10.54c-0.06,0.17-0.09,0.34-0.08,0.52c0.01,0.14,0,0.34,0.11,0.44c0.03,0.03,0.08,0.03,0.11,0
					c0.12-0.12,0.07-0.29,0.05-0.44c-0.02-0.18-0.09-0.35-0.12-0.52C19.12,10.51,19.08,10.51,19.07,10.54L19.07,10.54z"/>
			</g>
		</g>
		<g>
			<g>
				<path class="st4" d="M18.5,10.61c-0.05,0.14-0.09,0.28-0.13,0.41c-0.04,0.12-0.09,0.28-0.01,0.39c0.02,0.03,0.06,0.05,0.1,0.03
					c0.13-0.07,0.14-0.22,0.17-0.35c0.04-0.15,0.04-0.31,0.03-0.46C18.64,10.54,18.53,10.52,18.5,10.61L18.5,10.61z"/>
			</g>
		</g>
		<g>
			<g>
				<path class="st4" d="M17.93,10.59c-0.11,0.11-0.18,0.22-0.25,0.35c-0.07,0.12-0.17,0.22-0.18,0.36c0,0.03,0.03,0.06,0.05,0.05
					c0.16-0.02,0.22-0.15,0.29-0.27c0.08-0.14,0.12-0.29,0.18-0.44C18.05,10.59,17.97,10.55,17.93,10.59L17.93,10.59z"/>
			</g>
		</g>
		<g>
			<g>
				<path class="st4" d="M19.74,10.5c-0.27,0.13-0.02,0.98,0.27,0.82c0.16-0.09-0.01-0.38-0.06-0.49
					C19.92,10.77,19.84,10.45,19.74,10.5L19.74,10.5z"/>
			</g>
		</g>
		<g>
			<g>
				<path class="st4" d="M20.2,10.45c0.01,0.14,0,0.26,0.06,0.38c0.06,0.13,0.13,0.25,0.27,0.3c0.04,0.01,0.09,0,0.12-0.03
					c0.1-0.1-0.04-0.25-0.11-0.32c-0.05-0.06-0.09-0.12-0.14-0.18c-0.05-0.06-0.11-0.11-0.16-0.17
					C20.23,10.41,20.19,10.42,20.2,10.45L20.2,10.45z"/>
			</g>
		</g>
		<g>
			<path class="st0" d="M16.94,10.54c0.58-0.46,1.31-0.72,2.05-0.74c0.74-0.02,1.49,0.21,2.09,0.64c-0.29,0.2-0.64,0.28-0.99,0.34
				c-0.3,0.06-0.73,0.12-1.03,0.13c-0.43,0.01-0.81-0.01-1.24-0.1C17.5,10.74,17.27,10.7,16.94,10.54z"/>
		</g>
		<g>
			<g>
				<path class="st4" d="M19.05,10.84c0.23,0,0.42-0.19,0.42-0.42c0-0.23-0.19-0.42-0.42-0.42c-0.23,0-0.42,0.19-0.42,0.42
					C18.62,10.65,18.81,10.84,19.05,10.84L19.05,10.84z"/>
			</g>
		</g>
		<g>
			<defs>
				<path id="SVGID_00000168093400727190031890000007938285071312857232_" d="M15.78,5.04c-0.51,0.35-0.87,0.89-0.99,1.49
					c-0.08,0.41-0.05,0.84-0.02,1.25c0.34,0.12,0.62,0.09,0.98,0.06c1.97-0.16,3.96-0.16,5.93,0.02c-0.43,2.73,0.16,5.5,0.14,8.26
					c-0.01,1.78-0.16,2.63,0.29,4.35c0.42,1.56,1.31,1.63,2.44,1.62c1.07-0.02,2.24-0.2,3.05-0.89c0.81-0.69,1-2.14,0.59-3.11
					c-0.32-0.76-1.1-1.26-1.9-1.48c-0.2-0.05-0.42-0.11-0.52-0.28c-0.06-0.1-0.07-0.23-0.08-0.35c-0.12-2.01-0.23-4.02-0.35-6.03
					c-0.05-0.88-0.22-1.6-0.49-2.45c-0.27-0.84-1.02-1.37-1.8-1.81c-0.72-0.4-1.24-0.9-2.06-0.94c-1.01-0.05-2.01-0.1-3.01-0.14
					c-0.42-0.02-0.84-0.04-1.25,0.06L15.78,5.04z"/>
			</defs>
			<clipPath id="SVGID_00000051358018422885961730000017665883106560096147_">
				<use xlink:href="#SVGID_00000168093400727190031890000007938285071312857232_"  style="overflow:visible;"/>
			</clipPath>
			<g style="clip-path:url(#SVGID_00000051358018422885961730000017665883106560096147_);">
				<g>
					<path class="st5" d="M16.08,4.34C15.44,4.72,15.21,5.28,15.3,6c0.04,0.33,0.18,0.62,0.35,0.9c0.59,0.95,0.24,1.56-0.13,2.48
						c-0.02,0.06,0.06,0.13,0.12,0.09c0.71-0.5,0.83-1.23,0.75-2.05c-0.04-0.38-0.29-0.59-0.48-0.89c-0.41-0.64-0.3-1.58,0.26-2.09
						C16.2,4.39,16.13,4.31,16.08,4.34L16.08,4.34z"/>
				</g>
			</g>
			<g style="clip-path:url(#SVGID_00000051358018422885961730000017665883106560096147_);">
				<g>
					<path class="st5" d="M17.02,4.04c-0.37,0.4-0.68,1.04-0.52,1.59c0.11,0.41,0.32,0.72,0.54,1.09c0.57,0.94-0.07,1.71-0.3,2.59
						c-0.03,0.1,0.11,0.19,0.19,0.11c0.55-0.56,0.76-1.32,0.72-2.09c-0.02-0.39-0.24-0.76-0.43-1.08c-0.41-0.66-0.5-1.44-0.12-2.15
						C17.13,4.05,17.06,4,17.02,4.04L17.02,4.04z"/>
				</g>
			</g>
			<g style="clip-path:url(#SVGID_00000051358018422885961730000017665883106560096147_);">
				<g>
					<path class="st5" d="M18.18,4.4c-0.42,0.64-0.37,1.21-0.11,1.91c0.14,0.39,0.41,0.74,0.57,1.13c0.29,0.71-0.26,1.38-0.37,2.06
						c-0.02,0.1,0.09,0.17,0.17,0.1c0.56-0.52,0.81-1.18,0.75-1.93c-0.1-1.22-1.46-1.86-0.95-3.24C18.25,4.39,18.2,4.37,18.18,4.4
						L18.18,4.4z"/>
				</g>
			</g>
			<g style="clip-path:url(#SVGID_00000051358018422885961730000017665883106560096147_);">
				<g>
					<path class="st5" d="M19.01,4.29c-0.23,0.69,0.02,1.16,0.43,1.73c0.38,0.52,0.56,0.94,0.59,1.59c0.03,0.69-0.38,1.2-0.5,1.83
						c-0.02,0.08,0.06,0.14,0.14,0.1c0.78-0.34,0.85-1.48,0.81-2.22c-0.07-1.19-1.41-1.85-1.33-3.02
						C19.15,4.23,19.03,4.22,19.01,4.29L19.01,4.29z"/>
				</g>
			</g>
			<g style="clip-path:url(#SVGID_00000051358018422885961730000017665883106560096147_);">
				<g>
					<path class="st5" d="M19.98,4.08c-0.08,0.93,0.3,1.56,0.94,2.21c1.14,1.15-0.1,2.43-0.25,3.65c-0.01,0.09,0.12,0.13,0.18,0.07
						c0.65-0.72,1.02-1.82,1-2.78c-0.01-0.34-0.17-0.77-0.4-1.02c-0.62-0.68-1.22-1.16-1.39-2.14C20.04,4.03,19.98,4.04,19.98,4.08
						L19.98,4.08z"/>
				</g>
			</g>
			<g style="clip-path:url(#SVGID_00000051358018422885961730000017665883106560096147_);">
				<g>
					<path class="st5" d="M20.84,4.4c0.14,0.54,0.68,0.96,0.96,1.43c0.67,1.13,0.95,2.3,0.64,3.59c-0.22,0.94-0.75,1.77-0.95,2.72
						c-0.16,0.78,0.19,1.48,0.44,2.19c0.31,0.9,0.77,1.88,0.86,2.83c0.1,0.93-0.49,1.84-0.82,2.68c-0.45,1.17-0.15,2.59,0.77,3.44
						c0.06,0.06,0.18-0.02,0.12-0.09c-1.21-1.8-0.47-3.2,0.12-5.02c0.48-1.47-0.48-3.29-1.04-4.62c-0.75-1.79,0.92-3.65,0.94-5.49
						c0.01-0.74-0.31-1.45-0.62-2.1c-0.35-0.72-0.9-0.99-1.32-1.6C20.92,4.3,20.82,4.33,20.84,4.4L20.84,4.4z"/>
				</g>
			</g>
			<g style="clip-path:url(#SVGID_00000051358018422885961730000017665883106560096147_);">
				<g>
					<path class="st5" d="M20.46,14.72c0.65,0.64,1.15,1.34,1.26,2.26c0.08,0.75-0.26,1.46-0.26,2.2c0,0.1,0.13,0.13,0.18,0.05
						c1.1-1.7,0.46-3.51-1.03-4.66C20.51,14.5,20.37,14.63,20.46,14.72L20.46,14.72z"/>
				</g>
			</g>
			<g style="clip-path:url(#SVGID_00000051358018422885961730000017665883106560096147_);">
				<g>
					<path class="st5" d="M22.69,4.67c0.49,0.63,0.82,1.17,1,1.95c0.24,1.08-0.12,2.18-0.47,3.2c-0.46,1.37-1.22,2.53-0.49,4
						c0.38,0.76,0.83,1.39,1.06,2.22c0.34,1.23,0.05,2.23-0.43,3.36c-0.53,1.24-0.72,2.65,0.25,3.71c0.07,0.07,0.21,0,0.17-0.1
						c-0.38-0.95-0.52-1.77-0.25-2.78c0.21-0.8,0.75-1.52,0.83-2.35c0.08-0.78-0.02-1.52-0.21-2.27c-0.22-0.84-0.77-1.49-1.07-2.28
						c-0.68-1.78,0.96-3.64,1.09-5.43c0.09-1.22-0.19-2.73-1.4-3.31C22.72,4.58,22.65,4.63,22.69,4.67L22.69,4.67z"/>
				</g>
			</g>
			<g style="clip-path:url(#SVGID_00000051358018422885961730000017665883106560096147_);">
				<g>
					<path class="st5" d="M24.72,5.86c0,0.92,0.27,1.72,0.05,2.66c-0.21,0.91-0.58,1.77-0.88,2.66c-0.59,1.8,0.31,3.19,0.92,4.84
						c0.35,0.95,0.53,1.85,0.2,2.84c-0.28,0.84-0.8,1.53-1,2.41c-0.32,1.41,0.54,2.29,1.62,2.99c0.12,0.08,0.24-0.07,0.18-0.18
						c-0.34-0.64-0.95-0.98-1.22-1.7c-0.38-1.02,0.37-2.14,0.79-3.02c0.62-1.29,0.31-2.53-0.18-3.8c-0.3-0.78-0.74-1.5-1-2.3
						c-0.33-1.01,0.02-2.03,0.37-2.97c0.29-0.77,0.55-1.55,0.72-2.35c0.16-0.75-0.22-1.4-0.42-2.1C24.85,5.76,24.72,5.77,24.72,5.86
						L24.72,5.86z"/>
				</g>
			</g>
			<g style="clip-path:url(#SVGID_00000051358018422885961730000017665883106560096147_);">
				<g>
					<path class="st5" d="M25.96,9.42c-0.78,0.92-1.09,2.04-0.95,3.23c0.11,0.96,0.44,2.2,1.46,2.55c0.12,0.04,0.24-0.11,0.17-0.22
						c-1.1-1.57-1.75-3.72-0.51-5.44C26.19,9.45,26.03,9.33,25.96,9.42L25.96,9.42z"/>
				</g>
			</g>
			<g style="clip-path:url(#SVGID_00000051358018422885961730000017665883106560096147_);">
				<g>
					<path class="st5" d="M25.86,16.18c0.65,0.98,0.86,1.9,0.38,3.02c-0.35,0.79-0.8,1.41-0.95,2.28c-0.21,1.16,0.87,2.09,1.92,2.34
						c0.12,0.03,0.22-0.12,0.12-0.21c-0.55-0.51-1.25-0.82-1.5-1.57c-0.32-0.95,0.66-2.08,1.01-2.91c0.46-1.09,0.18-2.43-0.87-3.04
						C25.9,16.04,25.82,16.12,25.86,16.18L25.86,16.18z"/>
				</g>
			</g>
			<g style="clip-path:url(#SVGID_00000051358018422885961730000017665883106560096147_);">
				<g>
					<path class="st5" d="M27.05,16.52c0.58,1.1,0.72,2.12,0.19,3.27c-0.26,0.58-0.52,1.03-0.53,1.68c-0.02,0.9,0.89,1.8,1.75,1.9
						c0.08,0.01,0.11-0.1,0.06-0.15c-0.47-0.5-0.98-0.8-1.26-1.47c-0.34-0.8,0.41-1.71,0.66-2.45c0.35-1.04-0.08-2.06-0.72-2.87
						C27.14,16.35,27,16.42,27.05,16.52L27.05,16.52z"/>
				</g>
			</g>
		</g>
		<g>
			<path class="st3" d="M15.07,2.73c-0.05-0.2-0.18-0.56-0.21-0.82c-0.01-0.07,0.06-0.12,0.13-0.11c0.15,0.04,1.26,0.94,1.72,1.24
				c0.08,0.05,0.18,0.02,0.21-0.06c0.28-0.65,0.46-1.44,0.6-2.14c0.02-0.09,0.13-0.11,0.19-0.04c0.43,0.61,0.93,1.24,1.24,1.92
				c0.02,0.04,0.08,0.04,0.1,0c0.28-0.71,0.6-1.4,0.96-2.06c0.06-0.1,0.21-0.1,0.26,0.01c0.31,0.69,0.36,1.34,0.61,2.07
				c0.03,0.09,0.08,0.18,0.17,0.2c0.1,0.02,0.17-0.07,0.23-0.15c0.18-0.28,0.89-1.56,1.24-1.88c0.1-0.09,0.25-0.04,0.28,0.08
				c0.19,0.79,0.12,2.14,0.37,2.3c0.16,0.1,1.4-1.34,1.94-1.34c0.02,0,0.03,0.02,0.04,0.04c0.14,0.2-0.25,1.63-0.45,2.54
				c-0.03,0.13-0.36,2.11-0.45,2.03c-0.45-0.38-1.31-0.81-2.39-1.09c-2.19-0.56-3.46-0.51-5.7-0.28c-0.11,0.01-0.23,0.02-0.32-0.04
				c-0.07-0.04-0.1-0.12-0.14-0.19C15.5,4.6,15.37,3.83,15.07,2.73z"/>
		</g>
		<g>
			<g>
				<path class="st9" d="M15.46,2.92c0.1,0.24,0.24,0.48,0.39,0.7c0.16,0.24,0.57,0,0.39-0.23C16.07,3.18,15.86,3,15.73,2.76
					C15.63,2.58,15.38,2.74,15.46,2.92L15.46,2.92z"/>
			</g>
		</g>
		<g>
			<g>
				<path class="st9" d="M17.57,2.17c0.03,0.36-0.2,0.86,0.14,1.14c0.23,0.19,0.62,0.02,0.53-0.3c-0.04-0.14-0.12-0.27-0.17-0.42
					c-0.05-0.16-0.11-0.31-0.15-0.47C17.87,1.94,17.56,1.97,17.57,2.17L17.57,2.17z"/>
			</g>
		</g>
		<g>
			<g>
				<path class="st9" d="M19.88,1.99c-0.1,0.34-0.25,0.65-0.27,1.01c-0.02,0.41,0.63,0.41,0.65,0c0.01-0.34-0.06-0.68-0.11-1.01
					C20.12,1.85,19.91,1.87,19.88,1.99L19.88,1.99z"/>
			</g>
		</g>
		<g>
			<g>
				<path class="st9" d="M22.14,2.39c-0.14,0.28-0.35,0.52-0.42,0.83c-0.07,0.3,0.39,0.53,0.53,0.22c0.13-0.3,0.12-0.61,0.21-0.92
					C22.51,2.34,22.23,2.22,22.14,2.39L22.14,2.39z"/>
			</g>
		</g>
		<g>
			<g>
				<path class="st9" d="M24.29,3.11c-0.26,0.33-1.05,0.57-0.77,1.12c0.1,0.19,0.35,0.19,0.49,0.06c0.08-0.07,0.1-0.16,0.14-0.24
					c0.05-0.09,0.1-0.18,0.16-0.27c0.11-0.16,0.21-0.32,0.28-0.5C24.66,3.12,24.4,2.97,24.29,3.11L24.29,3.11z"/>
			</g>
		</g>
		<g>
			<g>
				<path class="st4" d="M15.82,4.37c0.18,0,0.18-0.28,0-0.28C15.63,4.09,15.63,4.37,15.82,4.37L15.82,4.37z"/>
			</g>
		</g>
		<g>
			<g>
				<path class="st4" d="M16.34,4.26c0.23,0,0.23-0.36,0-0.36C16.1,3.9,16.1,4.26,16.34,4.26L16.34,4.26z"/>
			</g>
		</g>
		<g>
			<g>
				<path class="st4" d="M16.87,4.12c0.25,0,0.25-0.38,0-0.38C16.63,3.75,16.63,4.12,16.87,4.12L16.87,4.12z"/>
			</g>
		</g>
		<g>
			<g>
				<path class="st4" d="M17.55,4.01c0.24,0,0.24-0.36,0-0.36C17.31,3.64,17.31,4.01,17.55,4.01L17.55,4.01z"/>
			</g>
		</g>
		<g>
			<g>
				<path class="st4" d="M18.27,3.96c0.25,0,0.25-0.38,0-0.38C18.03,3.58,18.03,3.96,18.27,3.96L18.27,3.96z"/>
			</g>
		</g>
		<g>
			<g>
				<path class="st4" d="M18.97,3.93c0.26,0,0.26-0.4,0-0.4C18.7,3.53,18.7,3.93,18.97,3.93L18.97,3.93z"/>
			</g>
		</g>
		<g>
			<g>
				<path class="st4" d="M19.72,3.96c0.25,0,0.25-0.38,0-0.38C19.47,3.58,19.47,3.96,19.72,3.96L19.72,3.96z"/>
			</g>
		</g>
		<g>
			<g>
				<path class="st4" d="M20.47,4.07c0.29,0,0.29-0.45,0-0.45C20.18,3.62,20.18,4.07,20.47,4.07L20.47,4.07z"/>
			</g>
		</g>
		<g>
			<g>
				<path class="st4" d="M21.22,4.21c0.3,0,0.3-0.46,0-0.46C20.91,3.74,20.91,4.21,21.22,4.21L21.22,4.21z"/>
			</g>
		</g>
		<g>
			<g>
				<path class="st4" d="M21.98,4.4c0.26,0,0.26-0.39,0-0.39C21.72,4.01,21.72,4.4,21.98,4.4L21.98,4.4z"/>
			</g>
		</g>
		<g>
			<g>
				<path class="st4" d="M22.62,4.65c0.31,0,0.31-0.47,0-0.47C22.31,4.18,22.31,4.65,22.62,4.65L22.62,4.65z"/>
			</g>
		</g>
		<g>
			<g>
				<path class="st4" d="M23.19,4.87c0.28,0,0.28-0.42,0-0.42C22.91,4.45,22.91,4.87,23.19,4.87L23.19,4.87z"/>
			</g>
		</g>
		<g>
			<g>
				<path class="st4" d="M23.82,5c0,0,0.01,0,0.01,0c0.14-0.03,0.14-0.24,0-0.27c0,0-0.01,0-0.01,0C23.59,4.68,23.59,5.04,23.82,5
					L23.82,5z"/>
			</g>
		</g>
		<g>
			<g>
				<path class="st4" d="M24.33,5.13c0.02,0,0.02-0.02,0-0.02C24.31,5.11,24.31,5.13,24.33,5.13L24.33,5.13z"/>
			</g>
		</g>
		<g>
			<g>
				<path class="st4" d="M24.29,5.27c0.26,0,0.26-0.39,0-0.39C24.04,4.88,24.04,5.27,24.29,5.27L24.29,5.27z"/>
			</g>
		</g>
		<g>
			<g>
				<path class="st3" d="M24.71,5.84c0.09,0.09,0.18,0.18,0.26,0.27c0.06,0.06,0.18,0.15,0.27,0.07c0.08-0.08-0.01-0.2-0.08-0.26
					c-0.09-0.08-0.19-0.17-0.28-0.25C24.77,5.56,24.59,5.73,24.71,5.84L24.71,5.84z"/>
			</g>
		</g>
		<g>
			<g>
				<path class="st3" d="M25.31,5.56c0.08,0.07,0.15,0.14,0.21,0.22c0.07,0.09,0.15,0.18,0.27,0.21c0.08,0.02,0.14-0.04,0.15-0.11
					c0.02-0.24-0.29-0.42-0.48-0.51C25.34,5.32,25.2,5.47,25.31,5.56L25.31,5.56z"/>
			</g>
		</g>
		<g>
			<g>
				<path class="st3" d="M24.76,6.66c0.05,0.12,0.1,0.23,0.19,0.33c0.11,0.13,0.33-0.01,0.28-0.16c-0.04-0.11-0.1-0.2-0.15-0.3
					C24.99,6.35,24.68,6.48,24.76,6.66L24.76,6.66z"/>
			</g>
		</g>
		<g>
			<g>
				<path class="st3" d="M25.75,6.65c0.06,0.16,0.14,0.35,0.31,0.42c0.09,0.04,0.22-0.03,0.18-0.14C26.19,6.79,26.07,6.68,26,6.54
					C25.93,6.41,25.69,6.5,25.75,6.65L25.75,6.65z"/>
			</g>
		</g>
		<g>
			<g>
				<path class="st3" d="M25.51,7.55c0.03,0.13,0.08,0.27,0.13,0.4c0.03,0.07,0.06,0.12,0.14,0.15c-0.07-0.03,0.03,0.02,0.04,0.02
					c0.02,0.01,0.05,0.01,0.07,0c0.13-0.04,0.13-0.23,0.09-0.32c-0.05-0.13-0.14-0.24-0.19-0.37C25.72,7.27,25.47,7.39,25.51,7.55
					L25.51,7.55z"/>
			</g>
		</g>
		<g>
			<g>
				<path class="st3" d="M25.49,8.88c0.06,0.17,0.16,0.4,0.32,0.49c0.1,0.05,0.23-0.03,0.2-0.15c-0.05-0.17-0.22-0.28-0.3-0.43
					C25.64,8.67,25.44,8.75,25.49,8.88L25.49,8.88z"/>
			</g>
		</g>
		<g>
			<g>
				<path class="st3" d="M26.47,7.84c0.03,0.14,0.03,0.3,0.15,0.4c0.06,0.05,0.13,0.07,0.2,0.03c0.06-0.04,0.1-0.12,0.08-0.18
					c-0.04-0.11-0.09-0.21-0.13-0.32C26.69,7.58,26.43,7.64,26.47,7.84L26.47,7.84z"/>
			</g>
		</g>
		<g>
			<g>
				<path class="st3" d="M26.6,9.02c0.03,0.16-0.03,0.35,0.05,0.49c0.05,0.09,0.19,0.09,0.24,0c0.05-0.09,0.04-0.17,0.03-0.26
					c-0.01-0.1-0.02-0.2-0.05-0.3C26.83,8.77,26.57,8.85,26.6,9.02L26.6,9.02z"/>
			</g>
		</g>
		<g>
			<g>
				<path class="st3" d="M26.61,6.93c0.03,0.14,0.01,0.27,0.12,0.38c0.1,0.1,0.25-0.01,0.23-0.13c-0.02-0.12-0.1-0.23-0.17-0.33
					C26.72,6.78,26.59,6.82,26.61,6.93L26.61,6.93z"/>
			</g>
		</g>
		<g>
			<g>
				<path class="st3" d="M26.18,9.97c0,0.12,0.01,0.23,0.02,0.35c0.01,0.08,0.05,0.2,0.15,0.2c0.1,0,0.14-0.12,0.15-0.2
					c0.01-0.12-0.06-0.26-0.09-0.38C26.38,9.81,26.18,9.84,26.18,9.97L26.18,9.97z"/>
			</g>
		</g>
		<g>
			<g>
				<path class="st3" d="M25.69,10.62c-0.05,0.18-0.08,0.48,0.09,0.61c0.1,0.08,0.22,0.05,0.27-0.07c0.07-0.18-0.09-0.36-0.11-0.54
					C25.92,10.49,25.72,10.51,25.69,10.62L25.69,10.62z"/>
			</g>
		</g>
		<g>
			<g>
				<path class="st3" d="M26.96,10.26c0.03,0.14,0.04,0.36,0.19,0.42c0.03,0.01,0.07,0.02,0.09-0.01c0.11-0.14,0.02-0.33,0-0.48
					C27.21,10.01,26.93,10.08,26.96,10.26L26.96,10.26z"/>
			</g>
		</g>
		<g>
			<g>
				<path class="st3" d="M26.65,11.47c0.05,0.12,0.04,0.27,0.19,0.32c0.04,0.01,0.07-0.01,0.09-0.05c0.05-0.12-0.02-0.28-0.07-0.39
					C26.8,11.21,26.59,11.33,26.65,11.47L26.65,11.47z"/>
			</g>
		</g>
		<g>
			<g>
				<path class="st3" d="M26,12.1c-0.01,0.13,0.02,0.3,0.08,0.42c0.04,0.09,0.19,0.07,0.21-0.03c0.03-0.13-0.04-0.26-0.03-0.39
					C26.26,11.93,26,11.93,26,12.1L26,12.1z"/>
			</g>
		</g>
		<g>
			<g>
				<path class="st3" d="M27.28,12.05c0.01,0.07,0.02,0.14,0.04,0.2c0.02,0.07,0.02,0.14,0.04,0.2c0.01,0.04,0.04,0.07,0.08,0.08
					c0.01,0,0.02,0,0.03,0c0.05,0,0.1-0.03,0.11-0.09c0.04-0.14-0.04-0.3-0.07-0.44C27.49,11.89,27.26,11.91,27.28,12.05
					L27.28,12.05z"/>
			</g>
		</g>
		<g>
			<g>
				<path class="st3" d="M26.77,12.77c0.02,0.12,0,0.25,0.06,0.36c0.05,0.09,0.23,0.08,0.24-0.03c0.02-0.13,0-0.28-0.03-0.41
					C27.01,12.52,26.74,12.6,26.77,12.77L26.77,12.77z"/>
			</g>
		</g>
		<g>
			<g>
				<path class="st3" d="M25.94,13.24c0.02,0.12,0.05,0.25,0.14,0.34c0.03,0.03,0.09,0.05,0.13,0.04c0.19-0.07,0.04-0.33,0.02-0.46
					C26.21,12.97,25.91,13.05,25.94,13.24L25.94,13.24z"/>
			</g>
		</g>
		<g>
			<g>
				<path class="st3" d="M27.38,13.3c0.01,0.1,0.04,0.18,0.12,0.24c0.07,0.05,0.17-0.02,0.17-0.09c0-0.06-0.03-0.12-0.03-0.18
					C27.62,13.08,27.35,13.12,27.38,13.3L27.38,13.3z"/>
			</g>
		</g>
		<g>
			<g>
				<path class="st9" d="M20.08,14.09c0.47,0,0.87-0.39,0.87-0.85c0-0.47-0.39-0.85-0.87-0.85c-0.47,0-0.87,0.39-0.87,0.85
					C19.22,13.7,19.61,14.09,20.08,14.09L20.08,14.09z"/>
			</g>
		</g>
		<g>
			<g>
				<path class="st9" d="M17.58,21.35c0.3,0,0.3-0.45,0-0.45C17.28,20.9,17.28,21.35,17.58,21.35L17.58,21.35z"/>
			</g>
		</g>
		<g>
			<g>
				<path class="st9" d="M18.1,21.77c0.25,0,0.25-0.38,0-0.38C17.86,21.4,17.86,21.77,18.1,21.77L18.1,21.77z"/>
			</g>
		</g>
		<g>
			<g>
				<path class="st9" d="M18.71,22c0.27,0,0.27-0.41,0-0.41C18.44,21.59,18.44,22,18.71,22L18.71,22z"/>
			</g>
		</g>
		<g>
			<g>
				<path class="st9" d="M19.38,22.12c0.26,0,0.26-0.4,0-0.4C19.12,21.72,19.12,22.12,19.38,22.12L19.38,22.12z"/>
			</g>
		</g>
		<g>
			<g>
				<path class="st9" d="M20.04,22.16c0.28,0,0.28-0.43,0-0.43C19.76,21.73,19.76,22.16,20.04,22.16L20.04,22.16z"/>
			</g>
		</g>
		<g>
			<g>
				<path class="st9" d="M20.69,22.14c0.29,0,0.29-0.44,0-0.44C20.41,21.7,20.41,22.14,20.69,22.14L20.69,22.14z"/>
			</g>
		</g>
		<g>
			<g>
				<path class="st9" d="M21.37,22.01c0.25,0,0.25-0.38,0-0.38S21.12,22.01,21.37,22.01L21.37,22.01z"/>
			</g>
		</g>
		<g>
			<g>
				<path class="st9" d="M22.05,21.81c0.29,0,0.29-0.45,0-0.45C21.76,21.36,21.76,21.81,22.05,21.81L22.05,21.81z"/>
			</g>
		</g>
		<g>
			<g>
				<path class="st9" d="M20,23.24c0.26,0,0.47-0.21,0.47-0.47c0-0.25-0.21-0.47-0.47-0.47c-0.26,0-0.47,0.21-0.47,0.47
					C19.53,23.03,19.75,23.24,20,23.24L20,23.24z"/>
			</g>
		</g>
		<g>
			<g>
				<path class="st7" d="M11.08,29.54c0.08-0.68,0.07-1.37-0.04-2.05c-0.21-0.01-0.8-2.4-0.91-2.49c-0.94-0.73-0.94,0.68-0.78-0.18
					c0.05-0.29,0.61-0.61,0.41-0.89c-0.12-0.06-0.64-0.13-1.26,0.18c-0.54,0.27-0.72,0.68-0.84,1.06c-0.12,0.38-0.04,0.78,0.32,1.11
					c0.11,0.11,0.25,0.21,0.35,0.31c0.24,0.26,0.26,0.55,0.3,0.84c0.09,0.67,0.3,1.34,0.5,2.01c0.02,0.07,0.05,0.15,0.16,0.2
					c0.08,0.03,0.18,0.04,0.28,0.05c0.36,0.03,0.72,0.05,1.09,0.06c0.1,0,0.2,0,0.28-0.03C11.05,29.68,11.07,29.61,11.08,29.54z"/>
			</g>
			<g>
				<path class="st9" d="M9.22,13.37c-0.03-0.8-0.02-1.21-0.03-1.69c0-0.18,0.18-0.36,0.27-0.27c0.08,0.08,0.34,3.32,0.83,3.24
					c0.17-0.03-0.02-2.02,0.05-2.88c0.02-0.22,0.13-0.47,0.25-0.44c0.16,0.03,0.28,2.75,0.56,3.11c0.14,0.18,0.29-1.77,0.46-2.62
					c0.04-0.22,0.2-0.57,0.33-0.4c0.09,0.11,0.15,0.71,0.18,2.54c0.02,0.98,0.09,1.19-0.18,1.61c-0.28,0.43-0.41,0.15-0.78,0.44
					c-0.09,0.07-0.12,0.45-0.13,0.57c-0.06,0.95-0.01,1.7-0.07,2.65c-0.05,0.75,0.37,6.39,0.41,7.04c0.01,0.16,0.02,0.32-0.06,0.46
					c-0.08,0.14-0.24,0.39-0.35-1.42c-0.27-4.47-0.31-5.18-0.24-9.06c0-0.13-0.08-0.3-0.31-0.36c-0.23-0.06-0.46,0.14-0.9-0.5
					C9.32,15.16,9.25,14.37,9.22,13.37z"/>
			</g>
			<g>
				<path class="st8" d="M8.76,21.89c0.14-0.22,0.49-0.47,0.75-0.46c0.6,0,1,0.08,1.63,0.16c0.11,0.01,0.22,0.07,0.26,0.16
					c0.03,0.06,0.14,0.33-0.29,0.46c-0.13,0.04-0.27,0.05-0.41,0.05c-0.33,0.01-1.15-0.12-1.17,0c-0.03,0.15,1.45,0.25,1.95,0.55
					c0.06,0.04,0.12,0.08,0.15,0.14c0.09,0.18-0.04,0.33-0.23,0.39c-0.44,0.13-1.07-0.23-1.73-0.25c-0.05,0-0.07,0.07-0.02,0.09
					c0.62,0.26,1.5,0.51,1.81,1c0.11,0.17-0.08,0.36-0.28,0.38c-0.3,0.03-1.18-0.52-1.38-0.47c-0.05,0.01-0.06,0.14,0.18,0.26
					c0.28,0.14,0.66,0.39,0.85,0.56c0.11,0.1,0.15,0.25,0.1,0.38c-0.07,0.19-0.36,0.08-0.52,0.07c-0.15-0.01-0.61-0.26-0.84-0.39
					c-0.19-0.11-0.12,0.28-0.1,0.5c0.02,0.33-0.01,0.67-0.18,0.73c-0.34,0.12-0.69-0.09-0.99-0.28c-0.1-0.06-0.19-0.13-0.25-0.22
					c-0.05-0.08-0.21-0.43-0.22-0.52C7.79,23.4,8.08,22.94,8.76,21.89z"/>
			</g>
			<g>
				<g>
					<path class="st11" d="M10.71,21.79c0.06,0.14,0.15,0.19,0.29,0.24c0.07,0.02,0.13,0.04,0.2,0.05c0.03,0,0.08,0,0.11-0.01
						c0.02-0.01,0.11-0.05,0.06-0.03c0.09-0.04,0.15-0.11,0.13-0.22c0.02,0.08-0.03-0.08-0.03-0.08c-0.02-0.03-0.04-0.06-0.07-0.08
						c-0.06-0.06-0.14-0.08-0.21-0.1c-0.12-0.03-0.29-0.04-0.4,0.04C10.73,21.63,10.68,21.71,10.71,21.79L10.71,21.79z"/>
				</g>
			</g>
			<g>
				<g>
					<path class="st11" d="M11.08,23.07c0.14,0.13,0.28,0.22,0.48,0.18c0.19-0.03,0.27-0.32,0.12-0.44
						c-0.11-0.09-0.28-0.16-0.43-0.14c-0.09,0.01-0.16,0.04-0.21,0.12C10.99,22.88,11.01,23,11.08,23.07L11.08,23.07z"/>
				</g>
			</g>
			<g>
				<g>
					<path class="st11" d="M10.91,24.07c0,0.02,0,0.09,0,0.03c0,0.01,0.05,0.15,0.02,0.09c0.03,0.08,0.08,0.14,0.14,0.2
						c0.09,0.09,0.19,0.13,0.32,0.11c0.08-0.01,0.17-0.09,0.19-0.17c0.02-0.1-0.01-0.21-0.08-0.28c-0.02-0.01-0.04-0.03-0.06-0.04
						c0.02,0.02,0.02,0.02-0.01,0c-0.04-0.03-0.07-0.06-0.12-0.08C11.17,23.85,10.93,23.87,10.91,24.07L10.91,24.07z"/>
				</g>
			</g>
			<g>
				<g>
					<path class="st11" d="M10.41,24.98c0.02,0.07,0.05,0.11,0.1,0.19c0.06,0.09,0.14,0.17,0.25,0.19c0.17,0.02,0.35-0.1,0.29-0.29
						c-0.06-0.18-0.31-0.38-0.51-0.31C10.44,24.79,10.38,24.88,10.41,24.98L10.41,24.98z"/>
				</g>
			</g>
			<g>
				<g>
					<path class="st4" d="M8.75,21.85c-0.02,0.06-0.05,0.13-0.04,0.2c0.01,0.12,0.16,0.14,0.21,0.03c0.02-0.05,0.03-0.11,0.05-0.17
						C9.02,21.77,8.8,21.71,8.75,21.85L8.75,21.85z"/>
				</g>
			</g>
			<g>
				<g>
					<path class="st4" d="M8.67,22.58c-0.05,0.09-0.08,0.19-0.05,0.29c0.05,0.14,0.29,0.13,0.28-0.04c0-0.07-0.02-0.13-0.01-0.19
						C8.9,22.52,8.72,22.49,8.67,22.58L8.67,22.58z"/>
				</g>
			</g>
			<g>
				<g>
					<path class="st4" d="M8.57,23.43c-0.02,0.1-0.03,0.21,0.04,0.29c0.05,0.06,0.17,0.03,0.19-0.05c0.01-0.07-0.01-0.14-0.01-0.21
						C8.8,23.33,8.6,23.3,8.57,23.43L8.57,23.43z"/>
				</g>
			</g>
			<g>
				<g>
					<path class="st4" d="M8.6,24.42c0.03,0.09,0.07,0.18,0.16,0.23c0.09,0.05,0.22-0.03,0.19-0.14c-0.02-0.07-0.07-0.13-0.1-0.19
						C8.78,24.18,8.56,24.28,8.6,24.42L8.6,24.42z"/>
				</g>
			</g>
			<g>
				<path class="st9" d="M9.62,20.07c0.18,0.26,0.49,0.41,0.81,0.42c0.09,0,0.18,0,0.26-0.03c0.02-0.01,0.05-0.02,0.07-0.04
					c0.04-0.04,0.03-0.11,0-0.17c-0.07-0.16-0.14-0.44-0.49-0.63c-0.42-0.23-0.74-0.32-0.96-0.29C9.3,19.35,9.3,19.35,9.3,19.36
					C9.42,19.58,9.47,19.86,9.62,20.07z"/>
			</g>
			<g>
				<path class="st9" d="M10.88,21.18c-0.01-0.02-0.01-0.04,0-0.06c0.05-0.31,0.34-0.53,0.64-0.62c0.3-0.09,0.62-0.08,0.94-0.11
					c-0.07,0.14-0.16,0.27-0.26,0.4c-0.05,0.07-0.11,0.13-0.18,0.19c-0.29,0.25-0.71,0.34-1.07,0.23
					C10.92,21.21,10.89,21.2,10.88,21.18z"/>
			</g>
			<g>
				<path class="st7" d="M11.86,32.73c0.56-0.7,0.57-1.88,0.53-2.28c-0.03-0.43-0.07-0.87-0.21-1.28c-0.2-0.58-0.61-1.07-1.01-1.54
					c-0.14-0.17-0.28-0.54-0.45-0.68c-0.68-0.54-1.35,0.16-2.22,0.11c-0.05,0.27-0.22,0.48-0.41,0.68
					c-0.52,0.56-1.57,0.82-2.02,2.03c-0.5,1.36-0.04,2.13,0.84,3.26c0.55,0.71,2.05,0.6,2.86,0.58
					C10.63,33.6,11.34,33.39,11.86,32.73z"/>
			</g>
			<g>
				<g>
					<path class="st11" d="M10.88,28.83c0.15,0.72,0.18,1.44,0.15,2.18c-0.03,0.62-0.59,1.04-0.55,1.63
						c0.02,0.34,0.5,0.52,0.69,0.18c0.33-0.62,0.61-1.08,0.6-1.81c-0.01-0.8-0.22-1.6-0.54-2.32
						C11.14,28.48,10.84,28.63,10.88,28.83L10.88,28.83z"/>
				</g>
			</g>
			<g>
				<g>
					<path class="st11" d="M9.53,28.63c-0.34,0.61-0.42,1.25-0.46,1.94c-0.04,0.66,0.18,1.31,0.11,1.97c-0.05,0.52,0.78,0.52,0.82,0
						c0.04-0.57-0.14-1.13-0.17-1.7c-0.03-0.71,0.04-1.41,0.05-2.11C9.88,28.54,9.62,28.47,9.53,28.63L9.53,28.63z"/>
				</g>
			</g>
			<g>
				<g>
					<path class="st11" d="M8.22,28.51c-0.49,0.64-0.64,1.38-0.68,2.17c-0.04,0.61,0.11,1.58,0.7,1.9c0.13,0.07,0.27,0,0.32-0.13
						c0.2-0.54-0.27-1.19-0.29-1.77c-0.02-0.67,0.11-1.39,0.28-2.03C8.61,28.44,8.33,28.35,8.22,28.51L8.22,28.51z"/>
				</g>
			</g>
			<g>
				<g>
					<path class="st9" d="M10.96,27.72C10.96,27.71,10.96,27.71,10.96,27.72c-0.01-0.05-0.06-0.1-0.11-0.11c0,0,0,0-0.01,0
						c-0.15-0.02-0.28,0.14-0.16,0.27C10.8,27.99,11,27.87,10.96,27.72L10.96,27.72z"/>
				</g>
			</g>
			<g>
				<g>
					<path class="st9" d="M10.31,27.93c0.22,0,0.22-0.34,0-0.34C10.09,27.59,10.09,27.93,10.31,27.93L10.31,27.93z"/>
				</g>
			</g>
			<g>
				<g>
					<path class="st9" d="M9.76,27.91c0.2,0,0.2-0.3,0-0.3C9.57,27.61,9.57,27.91,9.76,27.91L9.76,27.91z"/>
				</g>
			</g>
			<g>
				<g>
					<path class="st9" d="M9.24,27.92c0.24,0,0.24-0.36,0-0.36C9.01,27.56,9.01,27.92,9.24,27.92L9.24,27.92z"/>
				</g>
			</g>
			<g>
				<g>
					<path class="st9" d="M8.69,27.88c0.22,0,0.22-0.33,0-0.33C8.48,27.55,8.48,27.88,8.69,27.88L8.69,27.88z"/>
				</g>
			</g>
		</g>
		<g>
			<g>
				<path class="st11" d="M20.15,29.09c0.32-0.45,0.25-1.05,0.26-1.58c0.01-0.48-0.76-0.48-0.76,0c0,0.53,0.04,1.1,0.27,1.58
					C19.96,29.18,20.09,29.16,20.15,29.09L20.15,29.09z"/>
			</g>
		</g>
		<g>
			<g>
				<path class="st11" d="M20.06,30.23c-0.18,0.26-0.19,0.6-0.2,0.9c-0.01,0.38-0.06,0.78,0.1,1.13c0.1,0.2,0.46,0.21,0.55,0
					c0.15-0.32,0.09-0.65,0.05-0.99c-0.04-0.34-0.04-0.74-0.23-1.04C20.27,30.13,20.13,30.13,20.06,30.23L20.06,30.23z"/>
			</g>
		</g>
		<g>
			<g>
				<path class="st11" d="M19.63,29.54c-0.27-0.21-0.72-0.2-1.04-0.13c-0.36,0.08-0.29,0.69,0.09,0.65
					c0.31-0.04,0.71-0.11,0.95-0.31C19.69,29.7,19.69,29.59,19.63,29.54L19.63,29.54z"/>
			</g>
		</g>
		<g>
			<g>
				<path class="st11" d="M20.75,29.55c0.09,0.14,0.28,0.17,0.44,0.19c0.2,0.02,0.44,0.08,0.63,0.01c0.18-0.06,0.26-0.28,0.11-0.42
					c-0.16-0.16-0.39-0.17-0.61-0.15c-0.19,0.02-0.47,0.05-0.57,0.23C20.73,29.45,20.73,29.51,20.75,29.55L20.75,29.55z"/>
			</g>
		</g>
		<g>
			<g>
				<path class="st9" d="M20.23,29.82c0.21,0,0.21-0.33,0-0.33C20.01,29.49,20.01,29.82,20.23,29.82L20.23,29.82z"/>
			</g>
		</g>
		<g>
			<g>
				<path class="st9" d="M14.17,24.82c0.24,0,0.24-0.36,0-0.36C13.94,24.45,13.94,24.82,14.17,24.82L14.17,24.82z"/>
			</g>
		</g>
		<g>
			<g>
				<path class="st9" d="M13.16,26.9c0,0.01,0,0.01,0.01,0.02c0.07,0.15,0.3,0.09,0.33-0.05c0-0.01,0-0.01,0-0.02
					c0.03-0.12-0.06-0.23-0.18-0.23C13.16,26.63,13.1,26.78,13.16,26.9L13.16,26.9z"/>
			</g>
		</g>
		<g>
			<g>
				<path class="st9" d="M12.52,25.9c0.2,0,0.2-0.3,0-0.3C12.32,25.59,12.32,25.9,12.52,25.9L12.52,25.9z"/>
			</g>
		</g>
		<g>
			<g>
				<path class="st9" d="M11.42,27.92c0.25,0,0.25-0.37,0-0.37C11.17,27.55,11.17,27.92,11.42,27.92L11.42,27.92z"/>
			</g>
		</g>
		<g>
			<g>
				<path class="st9" d="M12.28,28.24c0.01,0,0.01,0.01,0.02,0.01c0.11,0.05,0.22-0.01,0.23-0.13c0-0.01,0-0.01,0-0.02
					c0.01-0.12-0.14-0.2-0.25-0.14C12.18,28.02,12.16,28.19,12.28,28.24L12.28,28.24z"/>
			</g>
		</g>
		<g>
			<g>
				<path class="st9" d="M14.69,26.42c0,0.01,0,0.02,0.01,0.03c0.04,0.18,0.32,0.18,0.36,0c0-0.01,0-0.02,0.01-0.03
					c0.03-0.12-0.06-0.24-0.19-0.24C14.75,26.18,14.66,26.3,14.69,26.42L14.69,26.42z"/>
			</g>
		</g>
		<g>
			<g>
				<path class="st9" d="M16.19,25.12c0.29,0,0.29-0.44,0-0.44C15.9,24.67,15.9,25.12,16.19,25.12L16.19,25.12z"/>
			</g>
		</g>
		<g>
			<g>
				<path class="st9" d="M16.5,26.61c0.24,0,0.24-0.37,0-0.37C16.26,26.24,16.26,26.61,16.5,26.61L16.5,26.61z"/>
			</g>
		</g>
		<g>
			<g>
				<path class="st9" d="M18.71,25.04c0.23,0,0.23-0.36,0-0.36C18.48,24.68,18.48,25.04,18.71,25.04L18.71,25.04z"/>
			</g>
		</g>
		<g>
			<g>
				<path class="st9" d="M16.31,27.91c-0.06,0.07-0.08,0.13-0.07,0.21c0.01,0.07,0.09,0.11,0.15,0.11c0.09,0,0.15-0.07,0.15-0.15
					c0-0.01,0-0.01,0-0.02c-0.01,0.03-0.01,0.05-0.02,0.08c0,0,0-0.01,0.01-0.01C16.68,27.99,16.45,27.76,16.31,27.91L16.31,27.91z"
					/>
			</g>
		</g>
		<g>
			<g>
				<path class="st9" d="M15.35,29.8c0.22,0,0.22-0.34,0-0.34S15.13,29.8,15.35,29.8L15.35,29.8z"/>
			</g>
		</g>
		<g>
			<g>
				<path class="st9" d="M19.58,26.32c0.29,0,0.29-0.44,0-0.44C19.29,25.87,19.29,26.32,19.58,26.32L19.58,26.32z"/>
			</g>
		</g>
		<g>
			<g>
				<path class="st9" d="M12.43,24.18c0.01,0,0.01,0.01,0.02,0.01c0.1,0.07,0.27-0.02,0.26-0.15c0-0.01,0-0.01,0-0.02
					c-0.01-0.13-0.15-0.23-0.27-0.16C12.3,23.94,12.31,24.11,12.43,24.18L12.43,24.18z"/>
			</g>
		</g>
		<g>
			<g>
				<path class="st9" d="M17.49,24.03c0.23,0,0.23-0.35,0-0.35S17.27,24.03,17.49,24.03L17.49,24.03z"/>
			</g>
		</g>
		<g>
			<g>
				<path class="st9" d="M20.56,24.85c0.28,0,0.28-0.43,0-0.43C20.27,24.42,20.27,24.85,20.56,24.85L20.56,24.85z"/>
			</g>
		</g>
		<g>
			<g>
				<path class="st9" d="M21.84,32.35c-0.02,0.03-0.04,0.07-0.04,0.11c0.01,0.18,0.28,0.23,0.33,0.04c0,0,0-0.01,0-0.01
					c-0.01,0.02-0.03,0.05-0.04,0.07c0.01,0,0.01-0.01,0.02-0.01C22.29,32.42,21.99,32.14,21.84,32.35L21.84,32.35z"/>
			</g>
		</g>
		<g>
			<g>
				<path class="st9" d="M15.37,24.09c0.2,0,0.2-0.3,0-0.3C15.17,23.78,15.17,24.09,15.37,24.09L15.37,24.09z"/>
			</g>
		</g>
		<g>
			<g>
				<path class="st9" d="M13.64,29.53c0.27,0,0.27-0.4,0-0.4C13.38,29.12,13.38,29.53,13.64,29.53L13.64,29.53z"/>
			</g>
		</g>
		<g>
			<g>
				<path class="st9" d="M14.43,28.07c0.28,0,0.28-0.43,0-0.43C14.15,27.63,14.15,28.07,14.43,28.07L14.43,28.07z"/>
			</g>
		</g>
		<g>
			<g>
				<path class="st9" d="M23.46,31.03c0,0.01-0.01,0.01-0.01,0.02c-0.09,0.15,0.06,0.31,0.22,0.28c0.06-0.01,0.1-0.06,0.12-0.11
					c0.04-0.09,0.03-0.2-0.07-0.26C23.63,30.91,23.51,30.94,23.46,31.03L23.46,31.03z"/>
			</g>
		</g>
		<g>
			<g>
				<path class="st9" d="M17.71,26.7c0.01,0,0.02,0,0.03,0c0.09,0.01,0.17-0.07,0.19-0.14c0.03-0.09-0.02-0.17-0.09-0.22
					c-0.01-0.01-0.02-0.01-0.03-0.02c-0.11-0.08-0.28,0-0.31,0.12C17.46,26.58,17.57,26.69,17.71,26.7L17.71,26.7z"/>
			</g>
		</g>
		<g>
			<g>
				<path class="st9" d="M27.5,35.57c0,0.01,0,0.02,0,0.02c0.01,0.07,0.04,0.13,0.12,0.15c0.08,0.02,0.18-0.03,0.19-0.11
					c0-0.01,0-0.01,0-0.02C27.87,35.37,27.47,35.36,27.5,35.57L27.5,35.57z"/>
			</g>
		</g>
		<g>
			<g>
				<path class="st9" d="M13.11,30.7c0,0.01,0,0.02,0,0.02c0,0.21,0.32,0.21,0.33,0c0-0.01,0-0.02,0-0.02
					C13.45,30.49,13.11,30.49,13.11,30.7L13.11,30.7z"/>
			</g>
		</g>
		<g>
			<g>
				<path class="st9" d="M18.03,35.61c0.3,0,0.3-0.46,0-0.46S17.73,35.61,18.03,35.61L18.03,35.61z"/>
			</g>
		</g>
		<g>
			<g>
				<path class="st9" d="M7.96,34.35c0.26,0,0.26-0.39,0-0.39C7.7,33.96,7.7,34.35,7.96,34.35L7.96,34.35z"/>
			</g>
		</g>
		<g>
			<g>
				<path class="st9" d="M9.34,34.11c0,0,0.01,0,0.01,0.01c0.07,0.03,0.12-0.05,0.11-0.11c0-0.01,0-0.01,0-0.02
					c-0.02-0.07-0.11-0.09-0.16-0.04C9.25,34,9.28,34.08,9.34,34.11L9.34,34.11z"/>
			</g>
		</g>
	</g>
	<g>
		<g>
			<g>
				<path class="st4" d="M5.3,11.42c0,0.1-0.04,0.23-0.04,0.33c0,0.1,0,0.2,0.01,0.29c0.04,0.33,0.16,0.65,0.41,0.87
					c-0.23,0.01-0.8,0.01-1.03,0c0.25-0.22,0.37-0.54,0.41-0.87c0.01-0.1,0.01-0.2,0.01-0.29c0-0.1-0.04-0.23-0.04-0.33H5.3z"/>
			</g>
		</g>
		<g>
			<g>
				<path class="st4" d="M5.24,11.66c0.1,0.01,0.15,0.1,0.33,0.29c0.16,0.17,0.32,0.35,0.67,0.39c0.18,0.02,0.43-0.07,0.53-0.22
					C6.86,12,6.91,11.85,6.95,11.7C7.03,11.43,7,11.15,6.86,10.9c-0.14-0.25-0.51-0.36-0.74-0.23C6,10.74,5.95,10.83,5.84,10.85
					c-0.03,0.01-0.06-0.03-0.06-0.06c0.04-0.17,0.17-0.19,0.22-0.39c0.07-0.24,0.1-0.43-0.24-0.73c-0.27-0.23-0.91-0.21-1.19,0
					c-0.29,0.21-0.31,0.41-0.24,0.65c0.05,0.19,0.16,0.28,0.21,0.44c0.02,0.05-0.04,0.11-0.09,0.08c-0.08-0.03-0.13-0.11-0.23-0.17
					c-0.23-0.14-0.6-0.02-0.74,0.23c-0.14,0.25-0.17,0.53-0.09,0.81c0.04,0.15,0.09,0.3,0.18,0.42c0.11,0.14,0.35,0.24,0.53,0.22
					c0.36-0.04,0.51-0.22,0.67-0.39c0.18-0.19,0.23-0.28,0.33-0.29H5.24z"/>
			</g>
		</g>
	</g>
	<g>
		<path class="st4" d="M4.85,7.91c-0.72,0-1.28-0.27-1.69-0.81C2.75,6.56,2.54,5.88,2.54,5.08c0-0.86,0.21-1.56,0.64-2.1
			C3.6,2.43,4.16,2.16,4.84,2.16c0.67,0,1.22,0.26,1.65,0.78c0.43,0.52,0.65,1.2,0.65,2.05c0,0.71-0.16,1.33-0.48,1.86
			C6.33,7.38,5.92,7.71,5.42,7.84l0,0.08c0,0.4,0.25,0.61,0.75,0.61c0.24,0,0.45-0.02,0.64-0.05v0.55C6.62,9.08,6.42,9.11,6.22,9.11
			c-0.43,0-0.76-0.09-0.99-0.27C5,8.66,4.87,8.35,4.85,7.91z M4.84,7.35c0.49,0,0.87-0.22,1.15-0.66C6.27,6.25,6.4,5.68,6.4,4.99
			c0-0.71-0.14-1.27-0.43-1.66S5.31,2.73,4.84,2.73c-0.48,0-0.86,0.21-1.14,0.64C3.42,3.8,3.28,4.36,3.28,5.06
			c0,0.68,0.14,1.23,0.43,1.65C3.99,7.13,4.37,7.35,4.84,7.35z"/>
	</g>
	<g>
		<g>
			<g>
				<path class="st4" d="M34.6,48.61c0-0.1,0.04-0.23,0.04-0.33c0-0.1,0-0.2-0.01-0.29c-0.04-0.33-0.16-0.65-0.41-0.87
					c0.23-0.01,0.8-0.01,1.03,0c-0.25,0.22-0.37,0.54-0.41,0.87c-0.01,0.1-0.01,0.2-0.01,0.29c0,0.1,0.04,0.24,0.04,0.33H34.6z"/>
			</g>
		</g>
		<g>
			<g>
				<path class="st4" d="M34.67,48.37c-0.1-0.01-0.15-0.11-0.33-0.29c-0.16-0.17-0.32-0.35-0.67-0.39
					c-0.18-0.02-0.42,0.07-0.53,0.22c-0.09,0.12-0.15,0.27-0.18,0.42c-0.08,0.28-0.05,0.55,0.09,0.81c0.14,0.25,0.51,0.36,0.74,0.23
					c0.12-0.07,0.16-0.16,0.28-0.18c0.04-0.01,0.06,0.03,0.06,0.06c-0.05,0.17-0.17,0.19-0.22,0.39c-0.07,0.24-0.1,0.43,0.24,0.73
					c0.27,0.23,0.91,0.21,1.19,0c0.29-0.21,0.31-0.41,0.25-0.65c-0.05-0.19-0.16-0.28-0.21-0.43c-0.02-0.05,0.04-0.11,0.09-0.09
					c0.08,0.03,0.13,0.11,0.23,0.17c0.23,0.14,0.6,0.03,0.74-0.23c0.14-0.25,0.17-0.53,0.09-0.81c-0.04-0.15-0.09-0.3-0.18-0.42
					c-0.11-0.14-0.35-0.24-0.53-0.22c-0.36,0.04-0.51,0.22-0.67,0.39c-0.18,0.19-0.23,0.28-0.33,0.29H34.67z"/>
			</g>
		</g>
	</g>
	<g>
		<path class="st4" d="M35.06,52.12c0.72,0,1.28,0.27,1.69,0.81c0.41,0.54,0.61,1.21,0.61,2.02c0,0.86-0.21,1.56-0.64,2.1
			c-0.42,0.54-0.98,0.81-1.67,0.81c-0.67,0-1.22-0.26-1.65-0.78c-0.43-0.52-0.65-1.2-0.65-2.05c0-0.71,0.16-1.33,0.48-1.86
			c0.32-0.53,0.74-0.86,1.24-0.99l0-0.08c0-0.4-0.25-0.61-0.75-0.61c-0.24,0-0.45,0.02-0.64,0.05v-0.55
			c0.19-0.06,0.38-0.08,0.58-0.08c0.43,0,0.76,0.09,0.99,0.27C34.9,51.37,35.03,51.68,35.06,52.12z M35.06,52.68
			c-0.49,0-0.87,0.22-1.15,0.66c-0.28,0.44-0.41,1.01-0.41,1.7c0,0.71,0.14,1.27,0.43,1.66c0.29,0.4,0.66,0.59,1.14,0.59
			c0.48,0,0.86-0.21,1.14-0.64c0.28-0.43,0.42-0.99,0.42-1.68c0-0.68-0.14-1.23-0.43-1.65C35.92,52.9,35.54,52.68,35.06,52.68z"/>
	</g>
	<g>
		<g>
			<path class="st3" d="M14.21,56.86H6.05c-1.61,0-2.92-1.37-2.92-3.06V15.15c0-0.05,0.04-0.09,0.09-0.09
				c0.05,0,0.09,0.04,0.09,0.09V53.8c0,1.59,1.23,2.88,2.74,2.88h8.16c0.05,0,0.09,0.04,0.09,0.09
				C14.31,56.82,14.27,56.86,14.21,56.86z"/>
		</g>
		<g>
			<path class="st3" d="M31.94,56.86h-6.1c-0.05,0-0.09-0.04-0.09-0.09c0-0.05,0.04-0.09,0.09-0.09h6.1c0.05,0,0.09,0.04,0.09,0.09
				C32.03,56.82,31.99,56.86,31.94,56.86z"/>
		</g>
		<g>
			<path class="st3" d="M36.68,45.16c-0.05,0-0.09-0.04-0.09-0.09V6.23c0-1.59-1.23-2.88-2.74-2.88H25.8
				c-0.05,0-0.09-0.04-0.09-0.09c0-0.05,0.04-0.09,0.09-0.09h8.05c1.61,0,2.92,1.37,2.92,3.06v38.84
				C36.77,45.12,36.73,45.16,36.68,45.16z"/>
		</g>
		<g>
			<path class="st3" d="M14.57,3.35H8.25c-0.05,0-0.09-0.04-0.09-0.09c0-0.05,0.04-0.09,0.09-0.09h6.33c0.05,0,0.09,0.04,0.09,0.09
				C14.67,3.31,14.62,3.35,14.57,3.35z"/>
		</g>
	</g>
</g>
</svg>
