<?xml version="1.0" encoding="utf-8"?>
<!-- Generator: Adobe Illustrator 26.3.1, SVG Export Plug-In . SVG Version: 6.00 Build 0)  -->
<svg version="1.1" id="Layer_1" xmlns="http://www.w3.org/2000/svg" xmlns:xlink="http://www.w3.org/1999/xlink" x="0px" y="0px"
	 viewBox="0 0 40 60" style="enable-background:new 0 0 40 60;" xml:space="preserve">
<style type="text/css">
	.st0{fill:#FFFFFF;}
	.st1{fill:#2D2D2D;}
	.st2{fill:#FFD6A1;}
	.st3{fill:#B70027;}
	.st4{clip-path:url(#SVGID_00000107580082161232616260000017750721986243620748_);}
	.st5{fill:#0C0A35;}
	.st6{fill:#990028;}
	.st7{fill:#F70032;}
	.st8{fill:#D6002B;}
	.st9{clip-path:url(#SVGID_00000083052893233292276240000012793626274600606123_);}
	.st10{clip-path:url(#SVGID_00000120517949902379886650000004441213031287260036_);}
	.st11{clip-path:url(#SVGID_00000163044550493436715750000010502222429574835615_);}
	.st12{clip-path:url(#SVGID_00000016775670064006986900000011239472931635278744_);}
	.st13{clip-path:url(#SVGID_00000126299121980774291740000011103559510248273597_);}
	.st14{fill:#222272;}
</style>
<g>
	<g>
		<path class="st0" d="M36.54,59.91H3.46c-1.86,0-3.37-1.49-3.37-3.32V3.41c0-1.84,1.51-3.32,3.37-3.32h33.08
			c1.86,0,3.37,1.49,3.37,3.32v53.17C39.91,58.42,38.4,59.91,36.54,59.91z"/>
		<path class="st1" d="M36.54,60H3.46C1.55,60,0,58.47,0,56.59V3.41C0,1.53,1.55,0,3.46,0h33.08C38.45,0,40,1.53,40,3.41v53.17
			C40,58.47,38.45,60,36.54,60z M3.46,0.18c-1.81,0-3.28,1.45-3.28,3.23v53.17c0,1.78,1.47,3.23,3.28,3.23h33.08
			c1.81,0,3.28-1.45,3.28-3.23V3.41c0-1.78-1.47-3.23-3.28-3.23H3.46z"/>
	</g>
	<g>
		<path class="st2" d="M30.66,37.31c0.03,0.13-0.35,0.45-0.47,0.5c-0.83,0.34-3.72,0.51-4.59,0.72c-0.87,0.21-2.02,0.72-2.38,1.54
			c-0.26,0.59-0.19,1.28,0,1.9c0.06,0.18,0.12,0.37,0.12,0.56c0,0.21-0.1,0.41-0.22,0.6c-0.33,0.52-0.85,0.9-1.38,1.22
			c-0.9,0.55-1.93,0.97-2.98,0.87c-0.41-0.04-0.82-0.17-1.14-0.42c-0.69-0.56-0.78-1.54-0.83-2.42c-0.05-0.88,0.13-2.35-0.64-2.79
			c-0.73-0.42-5.65-1.13-2.93-1.19c0.11,0,1.99-0.1,2.05-0.19c0.59-0.94,1.86-0.53,2.64-1.33c0.59-0.61,1.25-1.18,2.05-1.48
			c0.79-0.29,1.67-0.28,2.51-0.27c0.47,0.01,0.94,0.02,1.39,0.15c1.12,0.35,1.87,1.44,2.98,1.83
			C27.27,37.26,30.64,37.25,30.66,37.31z"/>
	</g>
	<path class="st3" d="M7.5,24.79c0.4,1.39,0.52,2.81,0.36,4.22c-0.03,0.29-0.08,0.58-0.19,0.86c-0.33,0.8-1.2,1.44-1.55,2.23
		c-0.29,0.64-0.2,1.36,0.22,1.96c0.43,0.6,1.2,1.08,2.1,1.3c0.1,0.02,0.21,0.05,0.29,0.1c0.13,0.08,0.19,0.2,0.23,0.32
		c0.18,0.46,0.3,0.61,0.48,1.06c0.16,0.41,0.45,0.74,0.73,1.11c0.29,0.37,0.71,0.61,1.24,0.83c0.89,0.36,1.66,0.47,2.66,0.3
		c0.7-0.12,1.25-0.22,1.89-0.46c0.63-0.25,3.4-1.5,3.95-1.85c1.32-0.85,3.55-0.89,4.95-0.1c0.61,0.34,1.06,0.81,1.71,1.11
		c0.82,0.37,1.49,0.61,2.46,0.6c1.16-0.01,2.26-0.54,2.55-0.7c0.95-0.54,1.3-1,1.61-1.83c0.29-0.8,0.58-1.59,0.88-2.39
		c0.19-0.52,0.38-1.05,0.47-1.58c0.07-0.44,0.07-0.89,0.07-1.33c0-1.59,0-3.18-0.24-4.76c-0.03-0.2-0.07-0.42-0.22-0.59
		c-0.16-0.17-0.47-0.29-0.74-0.22c-1.28,0.32-2.9,0.25-4.24,0.39c-1.74,0.17-3.5,0.09-5.26,0.01c-1.91-0.08-3.82-0.17-5.73-0.25
		c-1.78-0.08-3.56-0.16-5.33-0.24c-0.62-0.03-1.25-0.06-1.86-0.16c-0.41-0.07-0.8-0.17-1.21-0.22C9.01,24.4,8.18,24.57,7.5,24.79z"
		/>
	<g>
		<defs>
			<path id="SVGID_1_" d="M14.26,19.77c0.13-0.11,0.22-0.27,0.37-0.36c0.21-0.12,0.48-0.07,0.71,0.03c0.22,0.1,0.44,0.23,0.68,0.27
				c0.4,0.06,0.81-0.16,1.09-0.45c0.29-0.29,0.49-0.65,0.75-0.96c0.19-0.22,0.4-0.41,0.58-0.64c0.56-0.69,0.75-1.65,0.52-2.51
				c-0.23-0.85-0.88-1.59-1.69-1.95c-0.08-0.03-0.16-0.07-0.25-0.06c-0.1,0-0.2,0.06-0.29,0.11c-0.23,0.13-0.46,0.26-0.68,0.41
				c-0.71,0.49-1.26,1.18-1.58,1.97c-0.1,0.24-0.18,0.5-0.36,0.69c-0.21,0.23-0.53,0.32-0.82,0.46c-0.58,0.28-1.04,0.79-1.26,1.39
				c-0.2,0.56-0.14,1.29,0.37,1.61c0.18,0.11,0.39,0.16,0.6,0.19C13.44,20.05,13.93,20.07,14.26,19.77z"/>
		</defs>
		<use xlink:href="#SVGID_1_"  style="overflow:visible;fill:#990028;"/>
		<clipPath id="SVGID_00000102512843391524332200000005665663203689758119_">
			<use xlink:href="#SVGID_1_"  style="overflow:visible;"/>
		</clipPath>
		<g style="clip-path:url(#SVGID_00000102512843391524332200000005665663203689758119_);">
			<g>
				<path class="st5" d="M12.4,20.8c-0.29-0.73-0.31-1.6,0.07-2.3c0.37-0.69,1.3-1.04,1.92-1.49c0.95-0.68,1.17-1.66,1.32-2.76
					c0-0.04-0.05-0.07-0.07-0.03c-0.47,0.82-0.42,1.7-1.17,2.41c-0.56,0.53-1.3,0.82-1.88,1.33c-0.76,0.68-0.93,2.1-0.24,2.87
					C12.37,20.85,12.41,20.83,12.4,20.8L12.4,20.8z"/>
			</g>
		</g>
		<g style="clip-path:url(#SVGID_00000102512843391524332200000005665663203689758119_);">
			<g>
				<path class="st5" d="M12.85,20.48c-0.06-0.84,0.11-1.48,0.82-2c0.48-0.36,1-0.66,1.5-0.99c0.7-0.45,1.29-1.09,1.21-1.96
					c-0.01-0.08-0.11-0.1-0.15-0.02c-0.34,0.83-0.69,1.32-1.45,1.83c-0.5,0.33-0.99,0.66-1.47,1.02c-0.69,0.53-0.88,1.33-0.55,2.12
					C12.78,20.53,12.85,20.53,12.85,20.48L12.85,20.48z"/>
			</g>
		</g>
		<g style="clip-path:url(#SVGID_00000102512843391524332200000005665663203689758119_);">
			<g>
				<path class="st5" d="M13.25,20.69c0.26-1.26,1.07-1.76,2.1-2.42c0.66-0.43,1.27-0.94,1.4-1.75c0.01-0.08-0.09-0.13-0.14-0.06
					c-0.38,0.55-0.56,0.99-1.14,1.41c-0.46,0.34-1.02,0.58-1.45,0.96c-0.56,0.49-0.97,1.1-0.85,1.86
					C13.17,20.73,13.24,20.73,13.25,20.69L13.25,20.69z"/>
			</g>
		</g>
		<g style="clip-path:url(#SVGID_00000102512843391524332200000005665663203689758119_);">
			<g>
				<path class="st5" d="M14.25,20.65c0.23-1.03,0.8-1.57,1.76-1.96c0.62-0.25,1.01-0.8,1.24-1.41c0.02-0.06-0.05-0.11-0.1-0.08
					c-0.35,0.24-0.48,0.64-0.77,0.95c-0.35,0.38-0.95,0.4-1.34,0.73c-0.5,0.42-1,1.1-0.85,1.77C14.19,20.69,14.25,20.69,14.25,20.65
					L14.25,20.65z"/>
			</g>
		</g>
		<g style="clip-path:url(#SVGID_00000102512843391524332200000005665663203689758119_);">
			<g>
				<path class="st5" d="M15.26,20.68c0.17-1.5,2.27-1.76,2.48-3.33c0.01-0.06-0.07-0.11-0.11-0.05c-0.24,0.42-0.45,0.82-0.79,1.18
					c-0.28,0.3-0.64,0.51-0.97,0.76c-0.4,0.31-1.08,0.91-0.68,1.45C15.22,20.72,15.26,20.71,15.26,20.68L15.26,20.68z"/>
			</g>
		</g>
	</g>
	<g>
		<path class="st2" d="M10.35,22.86c-0.03-0.13,0.35-0.45,0.47-0.5c0.83-0.34,3.72-0.51,4.59-0.72c0.87-0.22,2.02-0.72,2.38-1.54
			c0.26-0.59,0.19-1.28,0-1.9c-0.06-0.18-0.12-0.37-0.12-0.56c0.01-0.21,0.1-0.42,0.22-0.6c0.33-0.52,0.85-0.9,1.38-1.22
			c0.9-0.55,1.93-0.97,2.98-0.87c0.41,0.04,0.82,0.17,1.13,0.42c0.69,0.56,0.79,1.55,0.83,2.42c0.05,0.88-0.13,2.35,0.64,2.79
			c0.73,0.42,5.65,1.13,2.93,1.19c-0.11,0-1.99,0.1-2.05,0.19c-0.59,0.94-1.86,0.53-2.64,1.33c-0.59,0.61-1.25,1.18-2.05,1.48
			c-0.8,0.29-1.67,0.28-2.51,0.27c-0.47-0.01-0.94-0.02-1.39-0.15c-1.12-0.35-1.87-1.44-2.98-1.83
			C13.74,22.92,10.36,22.92,10.35,22.86z"/>
	</g>
	<g>
		<path class="st3" d="M33.51,35.38c-0.4-1.39-0.52-2.81-0.36-4.22c0.03-0.29,0.08-0.58,0.19-0.86c0.33-0.8,1.19-1.44,1.55-2.23
			c0.29-0.64,0.2-1.36-0.22-1.96c-0.43-0.6-1.2-1.08-2.1-1.3c-0.1-0.02-0.21-0.05-0.29-0.1c-0.13-0.08-0.19-0.2-0.23-0.32
			c-0.18-0.46-0.3-0.61-0.48-1.06c-0.16-0.41-0.44-0.74-0.73-1.11c-0.29-0.37-0.71-0.61-1.24-0.83c-0.89-0.37-1.66-0.47-2.66-0.3
			c-0.7,0.12-1.26,0.22-1.89,0.46c-0.63,0.25-3.4,1.5-3.95,1.86c-1.32,0.85-3.55,0.89-4.95,0.1c-0.61-0.34-1.06-0.81-1.71-1.11
			c-0.82-0.37-1.49-0.61-2.46-0.6c-1.16,0-2.26,0.54-2.55,0.7c-0.95,0.54-1.3,1-1.61,1.83c-0.29,0.8-0.58,1.59-0.88,2.39
			c-0.19,0.52-0.38,1.05-0.47,1.58c-0.07,0.44-0.07,0.89-0.07,1.33c0,1.59,0,3.18,0.23,4.76c0.03,0.2,0.07,0.41,0.23,0.59
			c0.16,0.17,0.47,0.29,0.74,0.23c1.28-0.32,2.9-0.26,4.24-0.39c1.74-0.17,3.51-0.09,5.26-0.01c1.91,0.08,3.82,0.17,5.73,0.25
			c1.78,0.08,3.56,0.16,5.33,0.24c0.62,0.03,1.25,0.06,1.86,0.16c0.41,0.07,0.8,0.16,1.21,0.22C32,35.77,32.83,35.61,33.51,35.38z"
			/>
	</g>
	<g>
		<path class="st6" d="M22.52,17.73c0.18,0.31,0.36,0.68,0.22,1.01c-0.07,0.17-0.21,0.29-0.35,0.41c-1.3,1.05-3.09,1.48-4.73,1.13
			c0.28-0.37,0.29-1.01,0.35-1c1.59,0.2,3.37-0.44,4.32-1.71C22.43,17.57,22.48,17.65,22.52,17.73z"/>
	</g>
	<g>
		<path class="st5" d="M19.24,23.07c-0.16,0.12-0.41,0.07-0.55-0.06c-0.15-0.14-0.2-0.35-0.2-0.54c0.01-0.2,0.07-0.39,0.13-0.58
			c0.08-0.24,0.16-0.49,0.23-0.73c0.07-0.23,0.15-0.48,0.32-0.65c0.03-0.03,0.08-0.06,0.11-0.03c0.01,0.01,0.02,0.03,0.02,0.05
			c0.15,0.71,0.31,1.46,0.15,2.17C19.42,22.82,19.37,22.98,19.24,23.07z"/>
	</g>
	<g>
		<path class="st5" d="M16.34,21.8c-0.12-0.12-0.11-0.33-0.03-0.48c0.09-0.15,0.23-0.25,0.38-0.35c0.28-0.19,0.61-0.4,0.85-0.63
			c0.14-0.13,0.19,0.02,0.19,0.13c-0.04,0.31-0.16,0.5-0.29,0.79c-0.13,0.29-0.37,0.54-0.68,0.62C16.62,21.92,16.45,21.9,16.34,21.8
			z"/>
	</g>
	<g>
		<path class="st5" d="M21.33,21.91c0.18,0.11,0.44,0.04,0.6-0.1c0.11-0.1,0.11-0.45,0.08-0.6c-0.11-0.61-0.4-0.81-0.74-1.11
			c-0.06-0.06-0.17-0.11-0.23-0.05c-0.03,0.03-0.03,0.08-0.03,0.12c0,0.33-0.02,0.65,0,0.98C21.05,21.57,21.13,21.79,21.33,21.91z"
			/>
	</g>
	<g>
		<path class="st2" d="M15.94,7.44c-0.06-0.05-0.15,0.02-0.2,0.08c-0.52,0.73-0.27,1.72-0.4,2.59c-0.07,0.48-0.32,1.03-0.61,1.43
			c-0.38,0.51-0.89,0.88-1,1.48c-0.02,0.11,0.07,0.19,0.19,0.22c0.26,0.07,0.67,0.02,0.85,0.19c0.08,0.07,0.08,0.2,0.08,0.3
			c0.02,0.5-0.16,1.01-0.05,1.51c0.13,0.59,0.66,1.02,0.9,1.59c0.11,0.28,0.15,0.58,0.23,0.88c0.1,0.41,0.29,0.8,0.53,1.14
			c0.22,0.31,0.71,0.44,1.06,0.31c0.6-0.23,1.12-0.6,1.63-0.98c0.72-0.52,1.46-1.07,1.86-1.85c0.11-0.22,0.2-0.45,0.31-0.67
			c0.32-0.62,0.85-1.1,1.22-1.69c0.49-0.78,0.68-1.71,0.76-2.63c0.04-0.42,0.06-0.86-0.01-1.28c-0.13-0.73-0.55-1.39-1.12-1.86
			c-0.57-0.48-1.28-0.78-2.01-0.91c-0.63-0.12-1.27-0.12-1.92-0.12c-0.53,0-1.07,0-1.6,0C16.42,7.17,15.97,7.23,15.94,7.44z"/>
	</g>
	<g>
		<path class="st5" d="M19.8,7.79c0.02,0.01,0.04,0.04,0.05,0.06c0.14,0.2,0.28,0.41,0.41,0.61c-0.67,0.32-1.4,0.53-2.14,0.5
			c-0.74-0.02-1.49-0.29-2.01-0.8c0.19-0.17,0.38-0.34,0.57-0.51c0.89,0.51,2.03,0.58,2.98,0.16C19.7,7.79,19.76,7.77,19.8,7.79z"/>
	</g>
	<g>
		<path class="st7" d="M20.81,12.21c-0.17-0.14-0.38-0.24-0.59-0.27c-0.25-0.03-0.5,0.05-0.71,0.18c-0.32,0.2-0.58,0.54-0.56,0.91
			c0.02,0.46,0.43,0.81,0.87,0.96c0.32,0.11,0.7,0.13,0.97-0.07c0.18-0.13,0.29-0.35,0.36-0.56C21.23,13.1,21.31,12.63,20.81,12.21z
			"/>
	</g>
	<g>
		<path class="st7" d="M15.16,14.43c0.11-0.27,0.24-0.49,0.53-0.51c0.3-0.02,0.51,0.3,0.46,0.55c-0.15,0.73-0.37,1.27-0.71,1.94
			c-0.2-0.12-1.09-1.29-1.07-1.84c0.01-0.15,0.04-0.31,0.14-0.41c0.11-0.11,0.28-0.14,0.42-0.08
			C15.07,14.13,15.17,14.28,15.16,14.43z"/>
	</g>
	<g>
		<path class="st8" d="M27.07,14.37c0.02,0.57,0.04,1.16-0.15,1.71c-0.09,0.26-0.24,0.51-0.31,0.78c-0.07,0.27-0.05,0.59,0.15,0.79
			c0.11,0.11,0.27,0.18,0.39,0.28c0.35,0.28,0.39,0.82,0.2,1.22c-0.2,0.4-0.58,0.68-0.97,0.9c-0.71,0.39-1.52,0.64-2.34,0.57
			c-0.81-0.07-1.61-0.48-2.04-1.17c-0.17-0.28-0.28-0.6-0.26-0.92c0.02-0.32,0.1-0.69,0.35-0.9c0.67-0.6,1.29-0.37,1.27-1.01
			c-0.01-0.46-0.66-0.52-0.89-0.54c-0.74-0.09-2.14-1.04-0.89-2.36c0.31-0.33,0.69-0.57,1.07-0.81c0.1-0.06,0.2-0.13,0.26-0.23
			c0.18-0.31-0.15-0.69-0.49-0.8c-0.35-0.11-0.74-0.08-1.05-0.26c-0.38-0.22-0.54-0.68-0.57-1.12c-0.03-0.43,0.04-0.87-0.02-1.3
			c-0.05-0.4-0.22-0.78-0.47-1.09c-0.11-0.14-0.24-0.27-0.41-0.34c-0.15-0.07-0.32-0.08-0.48-0.09c-0.58-0.04-1.16-0.07-1.73-0.07
			c-0.3,0-0.62,0.01-0.89,0.14c-0.89,0.45-0.97,1.95-1.84,2.44c-0.39,0.22-0.91,0.22-1.35,0.1c-0.56-0.16-0.87-0.56-1.08-1.09
			c-0.27-0.7,0.23-1.53,0.92-1.84c0.36-0.16,0.85-0.2,1.06-0.53c0.31-0.49-0.01-0.66,0.11-0.98c0.18-0.51,0.91-0.94,1.46-0.97
			c0.53-0.04,1.13-0.02,1.36,0.46c0.05,0.11,0.08,0.22,0.14,0.33c0.21,0.4,0.75,0.53,1.2,0.44c0.45-0.1,0.83-0.38,1.2-0.63
			c0.38-0.26,0.78-0.51,1.24-0.54C21.59,4.87,21.97,5,22.3,5.19c1.21,0.67,1.91,1.96,2.52,3.19c0.46,0.91,0.9,1.83,1.22,2.79
			C26.39,12.25,27.02,13.24,27.07,14.37z"/>
	</g>
	<g>
		<g>
			<path class="st5" d="M14.45,15.03c0.22,0.35,0.88,0.24,1.22,0.18c0.49-0.09,1.1-0.32,1.4-0.72c0.02-0.02-0.01-0.06-0.04-0.05
				c-0.4,0.17-0.77,0.39-1.2,0.5c-0.47,0.13-0.9,0.04-1.37,0.06C14.45,14.99,14.44,15.01,14.45,15.03L14.45,15.03z"/>
		</g>
	</g>
	<g>
		<g>
			<path class="st5" d="M17.9,19.07c0.9-0.24,1.58-0.92,2.27-1.51c0.53-0.46,0.9-1.05,1.05-1.74c0.01-0.05-0.05-0.06-0.07-0.02
				c-0.27,0.71-0.6,1.08-1.16,1.58c-0.36,0.31-0.72,0.63-1.1,0.92c-0.33,0.25-0.71,0.39-1.05,0.63
				C17.77,18.98,17.81,19.09,17.9,19.07L17.9,19.07z"/>
		</g>
	</g>
	<g>
		<g>
			<path class="st5" d="M16.24,9.73c0.03,0.13,0.09,0.32,0.26,0.3c0.03,0,0.03-0.03,0.02-0.05c-0.05-0.11-0.17-0.17-0.23-0.27
				C16.27,9.68,16.23,9.69,16.24,9.73L16.24,9.73z"/>
		</g>
	</g>
	<g>
		<g>
			<path class="st5" d="M17.97,9.11c-0.04,0.06-0.04,0.12-0.04,0.19c0,0.12,0.19,0.12,0.19,0c0-0.07,0.01-0.13-0.04-0.19
				C18.06,9.07,18,9.07,17.97,9.11L17.97,9.11z"/>
		</g>
	</g>
	<g>
		<g>
			<path class="st5" d="M16.97,9.37c-0.01,0.08,0.04,0.14,0.08,0.2c0.07,0.09,0.22-0.03,0.16-0.12c-0.04-0.06-0.08-0.12-0.16-0.14
				C17.01,9.3,16.98,9.32,16.97,9.37L16.97,9.37z"/>
		</g>
	</g>
	<g>
		<g>
			<path class="st5" d="M19.7,10.05c0.07,0.03,0.12-0.02,0.18-0.06c0.08-0.06,0.13-0.13,0.14-0.22c0-0.04-0.04-0.05-0.07-0.04
				c-0.07,0.03-0.11,0.08-0.16,0.13c-0.04,0.05-0.11,0.08-0.11,0.15C19.68,10.03,19.69,10.05,19.7,10.05L19.7,10.05z"/>
		</g>
	</g>
	<g>
		<g>
			<path class="st5" d="M18.95,9.54c0.05-0.09,0.12-0.15,0.15-0.26c0.01-0.03-0.02-0.05-0.04-0.04c-0.13,0.03-0.22,0.11-0.27,0.23
				C18.75,9.56,18.9,9.62,18.95,9.54L18.95,9.54z"/>
		</g>
	</g>
	<g>
		<g>
			<path class="st5" d="M16.65,11.16c0.05-0.07,0.11-0.14,0.17-0.2c0.05-0.05,0.08-0.08,0.08-0.15c0-0.02-0.02-0.04-0.04-0.04
				c-0.16-0.01-0.26,0.23-0.29,0.35C16.56,11.17,16.63,11.19,16.65,11.16L16.65,11.16z"/>
		</g>
	</g>
	<g>
		<g>
			<path class="st5" d="M17.48,11.39c0.07-0.09,0.11-0.24,0.07-0.34c-0.01-0.03-0.04-0.04-0.07-0.03c-0.13,0.05-0.13,0.24-0.11,0.36
				C17.37,11.44,17.45,11.43,17.48,11.39L17.48,11.39z"/>
		</g>
	</g>
	<g>
		<g>
			<path class="st5" d="M18.16,11.47c0.07-0.08,0.14-0.25,0.04-0.33c-0.03-0.02-0.06-0.02-0.09,0c-0.1,0.08-0.04,0.25,0.04,0.33
				C18.15,11.47,18.16,11.47,18.16,11.47L18.16,11.47z"/>
		</g>
	</g>
	<g>
		<g>
			<path class="st5" d="M19.3,11.16c0-0.07-0.03-0.12-0.06-0.18c-0.03-0.07-0.04-0.11-0.12-0.13c-0.02,0-0.04,0-0.05,0.02
				c-0.04,0.07-0.02,0.11,0.01,0.18c0.03,0.07,0.05,0.14,0.12,0.17C19.25,11.24,19.3,11.21,19.3,11.16L19.3,11.16z"/>
		</g>
	</g>
	<g>
		<g>
			<path class="st5" d="M20.03,10.95c0.04-0.1-0.09-0.24-0.17-0.28c-0.09-0.05-0.18,0.05-0.14,0.14
				C19.76,10.87,19.97,11.12,20.03,10.95L20.03,10.95z"/>
		</g>
	</g>
	<g>
		<path class="st0" d="M20.28,10.41c-1.21,0.89-2.98,0.96-4.27,0.18c0.28-0.5,0.76-0.89,1.32-1.07c0.55-0.17,1.18-0.13,1.7,0.12
			c0.17,0.08,0.33,0.18,0.49,0.28C19.77,10.08,20.03,10.24,20.28,10.41z"/>
	</g>
	<g>
		<path class="st5" d="M18.51,10.03c-0.14-0.17-0.4-0.28-0.68-0.22c-0.22,0.04-0.44,0.27-0.44,0.49c0,0.22,0.17,0.4,0.37,0.49
			c0.16,0.07,0.35,0.1,0.52,0.05C18.45,10.78,18.85,10.44,18.51,10.03z"/>
	</g>
	<g>
		<defs>
			<path id="SVGID_00000108990270430101652340000010489667945406317708_" d="M27.07,14.37c0.02,0.57,0.04,1.16-0.15,1.71
				c-0.09,0.26-0.24,0.51-0.31,0.78c-0.07,0.27-0.05,0.59,0.15,0.79c0.11,0.11,0.27,0.18,0.39,0.28c0.35,0.28,0.39,0.82,0.2,1.22
				c-0.2,0.4-0.58,0.68-0.97,0.9c-0.71,0.39-1.52,0.64-2.34,0.57c-0.81-0.07-1.61-0.48-2.04-1.17c-0.17-0.28-0.28-0.6-0.26-0.92
				c0.02-0.32,0.1-0.69,0.35-0.9c0.67-0.6,1.29-0.37,1.27-1.01c-0.01-0.46-0.66-0.52-0.89-0.54c-0.74-0.09-2.14-1.04-0.89-2.36
				c0.31-0.33,0.69-0.57,1.07-0.81c0.1-0.06,0.2-0.13,0.26-0.23c0.18-0.31-0.15-0.69-0.49-0.8c-0.35-0.11-0.74-0.08-1.05-0.26
				c-0.38-0.22-0.54-0.68-0.57-1.12c-0.03-0.43,0.04-0.87-0.02-1.3c-0.05-0.4-0.22-0.78-0.47-1.09c-0.11-0.14-0.24-0.27-0.41-0.34
				c-0.15-0.07-0.32-0.08-0.48-0.09c-0.58-0.04-1.16-0.07-1.73-0.07c-0.3,0-0.62,0.01-0.89,0.14c-0.89,0.45-0.97,1.95-1.84,2.44
				c-0.39,0.22-0.91,0.22-1.35,0.1c-0.56-0.16-0.87-0.56-1.08-1.09c-0.27-0.7,0.23-1.53,0.92-1.84c0.36-0.16,0.85-0.2,1.06-0.53
				c0.31-0.49-0.01-0.66,0.11-0.98c0.18-0.51,0.91-0.94,1.46-0.97c0.53-0.04,1.13-0.02,1.36,0.46c0.05,0.11,0.08,0.22,0.14,0.33
				c0.21,0.4,0.75,0.53,1.2,0.44c0.45-0.1,0.83-0.38,1.2-0.63c0.38-0.26,0.78-0.51,1.24-0.54C21.59,4.87,21.97,5,22.3,5.19
				c1.21,0.67,1.91,1.96,2.52,3.19c0.46,0.91,0.9,1.83,1.22,2.79C26.39,12.25,27.02,13.24,27.07,14.37z"/>
		</defs>
		<clipPath id="SVGID_00000062876547294521129010000011569195710477452677_">
			<use xlink:href="#SVGID_00000108990270430101652340000010489667945406317708_"  style="overflow:visible;"/>
		</clipPath>
		<g style="clip-path:url(#SVGID_00000062876547294521129010000011569195710477452677_);">
			<g>
				<path class="st5" d="M15.21,5.42c-0.23,0.23-0.21,0.49-0.22,0.8c-0.03,1.19-0.97,1.4-1.86,1.85c-0.87,0.43-0.79,1.46-0.43,2.18
					c0.04,0.07,0.14,0.02,0.12-0.05c-0.17-0.89-0.25-1.7,0.84-2.11c0.38-0.14,0.67-0.25,0.99-0.5c0.82-0.63,0.33-1.32,0.67-2.11
					C15.34,5.42,15.25,5.38,15.21,5.42L15.21,5.42z"/>
			</g>
		</g>
		<g style="clip-path:url(#SVGID_00000062876547294521129010000011569195710477452677_);">
			<g>
				<path class="st5" d="M15.69,5.84c-0.1,0.98-0.42,1.63-1.22,2.22c-0.39,0.29-0.83,0.48-1.2,0.81c-0.55,0.5-0.49,1.48-0.07,2.01
					c0.05,0.06,0.13-0.01,0.12-0.07c-0.23-1.01-0.17-1.66,0.82-2.21c0.33-0.19,0.63-0.39,0.93-0.63c0.68-0.54,0.76-1.34,0.7-2.14
					C15.77,5.79,15.7,5.79,15.69,5.84L15.69,5.84z"/>
			</g>
		</g>
		<g style="clip-path:url(#SVGID_00000062876547294521129010000011569195710477452677_);">
			<g>
				<path class="st5" d="M16.47,5.48c-0.27,0.83-0.14,1.62-0.63,2.41c-0.39,0.64-1.14,0.93-1.68,1.42c-0.49,0.45-0.79,1.5-0.33,2.03
					c0.08,0.09,0.23-0.03,0.17-0.13c-0.8-1.38,1.13-2.14,1.85-2.93c0.72-0.8,0.71-1.78,0.7-2.78C16.56,5.44,16.49,5.43,16.47,5.48
					L16.47,5.48z"/>
			</g>
		</g>
		<g style="clip-path:url(#SVGID_00000062876547294521129010000011569195710477452677_);">
			<g>
				<path class="st5" d="M14.47,11.11c-0.12-1.17,1.65-2.14,2.3-2.98c0.57-0.73,0.53-1.88,0.48-2.74c-0.01-0.17-0.26-0.17-0.27,0
					c-0.03,0.61,0,1.19-0.11,1.8c-0.15,0.85-0.85,1.47-1.44,2.04c-0.57,0.55-1.23,1.03-1.06,1.9
					C14.38,11.17,14.47,11.16,14.47,11.11L14.47,11.11z"/>
			</g>
		</g>
		<g style="clip-path:url(#SVGID_00000062876547294521129010000011569195710477452677_);">
			<g>
				<path class="st5" d="M17.76,5.36c-0.21,0.35-0.09,0.84-0.11,1.23c-0.02,0.63-0.47,1.21-0.41,1.84c0.01,0.08,0.1,0.11,0.15,0.04
					c0.46-0.68,0.89-2.36,0.4-3.11C17.78,5.35,17.77,5.35,17.76,5.36L17.76,5.36z"/>
			</g>
		</g>
		<g style="clip-path:url(#SVGID_00000062876547294521129010000011569195710477452677_);">
			<g>
				<path class="st5" d="M18.7,5.46c-0.3,0.32-0.37,0.7-0.42,1.12c-0.05,0.5-0.15,1.11,0.15,1.55c0.03,0.04,0.12,0.03,0.11-0.03
					c-0.05-0.42-0.07-0.81-0.04-1.23c0.04-0.47,0-0.94,0.27-1.36C18.8,5.47,18.74,5.42,18.7,5.46L18.7,5.46z"/>
			</g>
		</g>
		<g style="clip-path:url(#SVGID_00000062876547294521129010000011569195710477452677_);">
			<g>
				<path class="st5" d="M19.73,5.58c-0.4,0.18-0.44,0.81-0.49,1.18c-0.11,0.76-0.14,1.43,0.33,2.07c0.04,0.06,0.13,0.02,0.12-0.05
					c-0.06-0.25-0.17-0.47-0.24-0.71c-0.12-0.37-0.02-0.87,0.03-1.24c0.05-0.35,0.05-0.9,0.3-1.19C19.8,5.61,19.77,5.56,19.73,5.58
					L19.73,5.58z"/>
			</g>
		</g>
		<g style="clip-path:url(#SVGID_00000062876547294521129010000011569195710477452677_);">
			<g>
				<path class="st5" d="M20.73,5.91c-0.41-0.27-0.54,0.6-0.58,0.81c-0.12,0.73-0.24,1.85,0.36,2.41c0.04,0.03,0.1,0,0.08-0.05
					c-0.21-0.65-0.26-1.22-0.22-1.89c0.02-0.31-0.03-1.16,0.35-1.27C20.74,5.92,20.74,5.91,20.73,5.91L20.73,5.91z"/>
			</g>
		</g>
		<g style="clip-path:url(#SVGID_00000062876547294521129010000011569195710477452677_);">
			<g>
				<path class="st5" d="M21.29,6.06c-0.11,1.36-0.41,3.24,0.21,4.53c0.41,0.86,1.36,1.3,2.27,0.88c0.07-0.03,0.03-0.13-0.04-0.13
					c-0.48,0.01-0.93,0-1.39-0.19c-0.61-0.26-0.76-1.15-0.81-1.71c-0.11-1.12-0.11-2.25-0.21-3.38C21.33,6.04,21.29,6.04,21.29,6.06
					L21.29,6.06z"/>
			</g>
		</g>
		<g style="clip-path:url(#SVGID_00000062876547294521129010000011569195710477452677_);">
			<g>
				<path class="st5" d="M21.9,6.21c-0.42,1-0.16,2.16,0.03,3.19c0.18,0.96,1.15,1.49,2.08,1.38c0.04-0.01,0.06-0.07,0.01-0.08
					c-1.13-0.23-1.79-0.65-1.96-1.87c-0.12-0.87-0.27-1.74-0.13-2.61C21.93,6.19,21.91,6.19,21.9,6.21L21.9,6.21z"/>
			</g>
		</g>
		<g style="clip-path:url(#SVGID_00000062876547294521129010000011569195710477452677_);">
			<g>
				<path class="st5" d="M24.28,12.45c-0.8,0.33-2.3,0.96-2.35,2c-0.06,1.21,1.38,1.04,2.08,1.61c0.92,0.75-1.03,1.85-1.44,2.2
					c-0.31,0.26-0.55,0.71-0.58,1.11c-0.07,0.92,0.45,1.77,1.41,1.92c0.05,0.01,0.09-0.06,0.04-0.09c-1.37-0.83-1.37-2.15-0.08-3.07
					c0.58-0.41,1.17-0.85,1.21-1.6c0.03-0.63-0.61-0.94-1.12-1.1c-0.29-0.09-0.56-0.15-0.84-0.28c-0.91-0.41-0.13-1.25,0.17-1.54
					C23.21,13.17,23.81,12.89,24.28,12.45C24.29,12.45,24.28,12.45,24.28,12.45L24.28,12.45z"/>
			</g>
		</g>
		<g style="clip-path:url(#SVGID_00000062876547294521129010000011569195710477452677_);">
			<g>
				<path class="st5" d="M24.88,12.69c-0.84-0.01-1.66,0.7-1.98,1.43c-0.24,0.54,0.4,0.84,0.8,1c1.06,0.42,2.2,1.33,1.09,2.51
					c-0.42,0.44-0.98,0.69-1.38,1.16c-0.68,0.8-0.27,1.77,0.37,2.44c0.06,0.07,0.16-0.02,0.12-0.09c-0.45-0.9-0.79-1.61,0.1-2.47
					c0.31-0.3,0.7-0.53,1.02-0.81c0.49-0.43,0.6-1,0.48-1.6c-0.11-0.58-0.65-1-1.17-1.21c-0.38-0.15-1.44-0.27-1.12-0.99
					c0.27-0.61,1.07-1.05,1.68-1.24C24.97,12.79,24.95,12.69,24.88,12.69L24.88,12.69z"/>
			</g>
		</g>
		<g style="clip-path:url(#SVGID_00000062876547294521129010000011569195710477452677_);">
			<g>
				<path class="st5" d="M24.71,13.27c-0.5,0.13-1.1,0.43-0.8,1.02c0.12,0.24,0.61,0.38,0.82,0.49c0.81,0.43,1.17,0.88,1.22,1.82
					c0.09,1.53-1.11,1.83-1.72,2.96c-0.42,0.78,0.28,1.66,0.77,2.19c0.05,0.06,0.14-0.02,0.11-0.08c-0.37-0.69-0.9-1.31-0.46-2.12
					c0.2-0.36,0.65-0.65,0.95-0.92c0.52-0.47,0.67-1.09,0.72-1.76c0.04-0.56-0.04-1.33-0.47-1.75c-0.22-0.22-0.46-0.37-0.74-0.52
					c-0.16-0.08-0.33-0.16-0.5-0.22c-0.67-0.26-0.44-0.81,0.1-1.09C24.74,13.29,24.73,13.27,24.71,13.27L24.71,13.27z"/>
			</g>
		</g>
		<g style="clip-path:url(#SVGID_00000062876547294521129010000011569195710477452677_);">
			<g>
				<path class="st5" d="M25.66,21.21c-0.22-0.39-0.26-0.8-0.11-1.21c0.09-0.35,0.31-0.68,0.51-0.98c0.3-0.45,0.76-0.77,1.08-1.2
					c0.49-0.66,0.33-1.49-0.01-2.15C27.1,15.62,27,15.64,27,15.7c0.11,0.89,0.24,1.62-0.43,2.36c-0.32,0.35-0.63,0.65-0.89,1.05
					c-0.43,0.66-0.67,1.55-0.13,2.2c0.02,0.03,0.08,0.02,0.09-0.01C25.66,21.25,25.66,21.26,25.66,21.21
					C25.66,21.21,25.66,21.21,25.66,21.21L25.66,21.21z"/>
			</g>
		</g>
		<g style="clip-path:url(#SVGID_00000062876547294521129010000011569195710477452677_);">
			<g>
				<path class="st5" d="M26.38,20.83c-0.14-0.16-0.02-0.82,0.01-0.98c0.07-0.46,0.46-0.81,0.79-1.11c0.54-0.48,0.83-0.97,0.85-1.7
					c0-0.05-0.07-0.07-0.09-0.02c-0.25,0.49-0.35,0.98-0.77,1.39c-0.33,0.33-0.66,0.59-0.89,1c-0.2,0.35-0.33,1.13-0.04,1.47
					c0.02,0.02,0.05,0.02,0.07,0.02c0.02,0,0.05-0.01,0.07-0.01C26.39,20.86,26.39,20.84,26.38,20.83L26.38,20.83z"/>
			</g>
		</g>
	</g>
	<g>
		<path class="st3" d="M26.72,16.28c0.35,0.04,0.58-0.32,0.79-0.6c0.58-0.75,0.93-1.2,1.79-2.06c0.21-0.21,0.43-0.42,0.59-0.67
			c0.05-0.08,0.1-0.17,0.1-0.27c0-0.13-0.1-0.24-0.19-0.33c-0.53-0.53-1.14-0.97-1.62-1.55c-0.49-0.58-1.25-1.8-1.33-2.07
			c-0.44-1.49-0.57-2.16,0.33-4.65c0.09-0.25-0.08-0.51-0.34-0.52c-0.84-0.04-1.7-0.1-2.52-0.13c-0.11-0.01-0.22,0.03-0.29,0.11
			c-0.23,0.25-0.38,0.68-0.53,0.95c-0.16,0.28-0.64,0.76-0.91,1.45c-0.73,1.89-0.39,3.56,0.44,5.41c0.56,1.25,1.18,2.19,2.45,3.49
			C25.64,15.04,26.67,16.18,26.72,16.28z"/>
	</g>
	<g>
		<g>
			<path class="st5" d="M26.5,4.45c0.18,0,0.32-0.14,0.32-0.32c0-0.17-0.15-0.32-0.32-0.32s-0.32,0.14-0.32,0.32
				C26.18,4.3,26.32,4.45,26.5,4.45L26.5,4.45z"/>
		</g>
	</g>
	<g>
		<g>
			<path class="st5" d="M26.06,5.54c0.17,0,0.32-0.14,0.32-0.31c0-0.17-0.14-0.31-0.32-0.31c-0.17,0-0.32,0.14-0.32,0.31
				C25.74,5.39,25.89,5.54,26.06,5.54L26.06,5.54z"/>
		</g>
	</g>
	<g>
		<g>
			<path class="st5" d="M25.84,6.71c0.39,0,0.39-0.6,0-0.6C25.45,6.11,25.45,6.71,25.84,6.71L25.84,6.71z"/>
		</g>
	</g>
	<g>
		<g>
			<path class="st5" d="M25.83,7.98c0.43,0,0.43-0.66,0-0.66C25.39,7.31,25.39,7.98,25.83,7.98L25.83,7.98z"/>
		</g>
	</g>
	<g>
		<g>
			<path class="st5" d="M26.05,9.12c0.17,0,0.32-0.14,0.32-0.31c0-0.17-0.14-0.31-0.32-0.31c-0.17,0-0.32,0.14-0.32,0.31
				C25.73,8.98,25.88,9.12,26.05,9.12L26.05,9.12z"/>
		</g>
	</g>
	<g>
		<g>
			<path class="st5" d="M26.46,10.15c0.16,0,0.29-0.13,0.29-0.28c0-0.15-0.13-0.28-0.29-0.28c-0.15,0-0.29,0.13-0.29,0.28
				C26.18,10.02,26.31,10.15,26.46,10.15L26.46,10.15z"/>
		</g>
	</g>
	<g>
		<g>
			<path class="st5" d="M27,11.07c0.41,0,0.41-0.62,0-0.62C26.6,10.45,26.6,11.07,27,11.07L27,11.07z"/>
		</g>
	</g>
	<g>
		<g>
			<path class="st5" d="M27.63,11.91c0.18,0,0.34-0.15,0.34-0.33c0-0.18-0.15-0.33-0.34-0.33c-0.18,0-0.34,0.15-0.34,0.33
				C27.3,11.76,27.45,11.91,27.63,11.91L27.63,11.91z"/>
		</g>
	</g>
	<g>
		<g>
			<path class="st5" d="M28.37,12.62c0.19,0,0.34-0.15,0.34-0.34c0-0.18-0.15-0.34-0.34-0.34c-0.19,0-0.34,0.15-0.34,0.34
				C28.03,12.46,28.19,12.62,28.37,12.62L28.37,12.62z"/>
		</g>
	</g>
	<g>
		<g>
			<path class="st5" d="M29.39,13.05C29.39,13.05,29.39,13.05,29.39,13.05c0.12-0.09,0.12-0.31,0.01-0.39c0,0,0,0-0.01-0.01
				c-0.08-0.06-0.17-0.1-0.28-0.07c-0.12,0.03-0.21,0.15-0.21,0.27c0,0.1,0.05,0.19,0.14,0.24C29.16,13.16,29.29,13.13,29.39,13.05
				L29.39,13.05z"/>
		</g>
	</g>
	<g>
		<defs>
			<path id="SVGID_00000096017353778989092960000016852896349855615623_" d="M26.72,16.28c0.35,0.04,0.58-0.32,0.79-0.6
				c0.58-0.75,0.93-1.2,1.79-2.06c0.21-0.21,0.43-0.42,0.59-0.67c0.05-0.08,0.1-0.17,0.1-0.27c0-0.13-0.1-0.24-0.19-0.33
				c-0.53-0.53-1.14-0.97-1.62-1.55c-0.49-0.58-1.25-1.8-1.33-2.07c-0.44-1.49-0.57-2.16,0.33-4.65c0.09-0.25-0.08-0.51-0.34-0.52
				c-0.84-0.04-1.7-0.1-2.52-0.13c-0.11-0.01-0.22,0.03-0.29,0.11c-0.23,0.25-0.38,0.68-0.53,0.95c-0.16,0.28-0.64,0.76-0.91,1.45
				c-0.73,1.89-0.39,3.56,0.44,5.41c0.56,1.25,1.18,2.19,2.45,3.49C25.64,15.04,26.67,16.18,26.72,16.28z"/>
		</defs>
		<clipPath id="SVGID_00000081608606012361640380000001653541331413954232_">
			<use xlink:href="#SVGID_00000096017353778989092960000016852896349855615623_"  style="overflow:visible;"/>
		</clipPath>
		<g style="clip-path:url(#SVGID_00000081608606012361640380000001653541331413954232_);">
			<g>
				<path class="st5" d="M22.61,4.39c-1.24,2.29-0.67,4.84,0.22,7.15c0.42,1.09,0.98,1.97,1.87,2.74c0.84,0.73,1.41,1.95,2.42,2.46
					c0.25,0.13,0.52,0.09,0.73-0.09c0.03-0.03,0.06-0.05,0.09-0.08c0.18-0.16,0.19-0.52,0-0.68c-0.74-0.61-1.31-1.31-1.94-2.02
					c-0.34-0.38-1.52-1.94-1.71-2.42c-0.63-1.54-1.04-2.77-1.06-3.9C23.2,6.06,23.36,5.4,23.2,4.25
					C23.18,4.06,22.69,4.24,22.61,4.39L22.61,4.39z"/>
			</g>
		</g>
	</g>
	<g>
		<path class="st7" d="M14.53,6.31c-0.12-0.17-0.23-0.53-0.71-1.61c-0.25-0.56-0.41-1.18-0.37-1.79c0.03-0.56,0.17-0.69,0.34-0.89
			c0.16-0.18,0.44-0.21,0.67-0.15c0.24,0.06,0.45,0.19,0.68,0.27c0.49,0.16,1.06,0.07,1.47-0.25c0.45-0.36,0.7-0.95,1.22-1.2
			c0.62-0.3,1.41,0.04,1.8,0.61c0.1,0.15,0.19,0.33,0.34,0.44c0.27,0.19,0.76,0.23,1.06,0.09c0.3-0.14,0.53-0.33,0.86-0.38
			c0.36-0.06,0.81-0.07,1.13,0.12c1.48,0.85,1.17,1.88,1.08,2.27C24,4.24,23.5,4.87,22.82,6.04c-0.4,0.7-0.53,1.09-0.71,1.04
			c-1.79-0.48-2.96-0.63-5.21-0.73C16.37,6.33,14.65,6.48,14.53,6.31z"/>
	</g>
	<g>
		<path class="st5" d="M18.18,2.02c0.59-0.23,1,0.22,1.1,0.69c0.07,0.34,0,0.68-0.07,1.02c-0.08,0.37-0.17,0.75-0.27,1.11
			c-0.05,0.19-0.11,0.39-0.23,0.54c0,0,0,0,0,0.01c-0.19,0.24-0.57,0.18-0.7-0.09c-0.25-0.52-0.41-1.08-0.48-1.66
			c-0.06-0.48-0.04-0.98,0.28-1.37C17.92,2.16,18.04,2.07,18.18,2.02z"/>
	</g>
	<g>
		<path class="st5" d="M22.68,2.98c0.25,0.1,0.33,0.42,0.26,0.67c-0.08,0.25-0.27,0.45-0.47,0.63c-0.28,0.26-1.15,1.26-1.48,1.45
			c0,0,0,0,0,0c-0.18,0.1-0.38-0.08-0.31-0.27c0.29-0.68,0.86-1.7,1.18-2.12c0.1-0.13,0.21-0.25,0.35-0.33
			C22.35,2.94,22.53,2.91,22.68,2.98z"/>
	</g>
	<g>
		<path class="st5" d="M14.68,2.82c0.13-0.06,0.29-0.09,0.42-0.04c0.14,0.05,0.35,0.13,0.43,0.7c0.06,0.44,0.21,2.07-0.03,2.11
			c-0.34,0.06-1-1.8-1.05-2.4c-0.01-0.07,0-0.15,0.03-0.22C14.53,2.9,14.6,2.85,14.68,2.82z"/>
	</g>
	<g>
		<g>
			<path class="st7" d="M16.81,21.59c0.28,0,0.28-0.43,0-0.43C16.53,21.16,16.53,21.59,16.81,21.59L16.81,21.59z"/>
		</g>
	</g>
	<g>
		<g>
			<path class="st7" d="M19,22.78c0.32,0,0.32-0.49,0-0.49C18.68,22.29,18.68,22.78,19,22.78L19,22.78z"/>
		</g>
	</g>
	<g>
		<g>
			<path class="st7" d="M21.55,21.65c0.31,0,0.31-0.48,0-0.48C21.24,21.17,21.24,21.65,21.55,21.65L21.55,21.65z"/>
		</g>
	</g>
	<g>
		<g>
			<path class="st7" d="M18.09,20.63c0.24,0,0.24-0.36,0-0.36C17.85,20.26,17.85,20.63,18.09,20.63L18.09,20.63z"/>
		</g>
	</g>
	<g>
		<g>
			<path class="st7" d="M18.66,20.65c0.27,0,0.27-0.41,0-0.41C18.39,20.24,18.39,20.65,18.66,20.65L18.66,20.65z"/>
		</g>
	</g>
	<g>
		<g>
			<path class="st7" d="M19.87,20.56c0.28,0,0.28-0.43,0-0.43S19.59,20.56,19.87,20.56L19.87,20.56z"/>
		</g>
	</g>
	<g>
		<g>
			<path class="st7" d="M20.51,20.4c0.29,0,0.29-0.44,0-0.44C20.22,19.96,20.22,20.4,20.51,20.4L20.51,20.4z"/>
		</g>
	</g>
	<g>
		<g>
			<path class="st5" d="M20.12,24.54c-0.72-0.06-1.51,0.41-1.32,1.21c0.2,0.85,1.36,0.88,2,0.58c0.35-0.16,0.65-0.55,0.62-0.94
				c-0.04-0.52-0.52-0.83-1.01-0.89c-0.37-0.04-0.82,0.11-1.07,0.38c-0.16,0.18-0.24,0.42-0.17,0.66c0.08,0.28,0.34,0.43,0.61,0.52
				c0.26,0.09,0.55-0.1,0.63-0.35c0.08-0.28-0.09-0.53-0.36-0.62c-0.11-0.04-0.01,0.01,0.02,0.03c0.09,0.07,0.1,0.22,0.08,0.32
				c-0.01,0.02-0.11,0.16-0.04,0.1c-0.09,0.09,0.02-0.01,0.06-0.03c-0.1,0.05,0.02,0,0.04-0.01c0.03-0.01,0.06-0.02,0.09-0.02
				c-0.06,0.01-0.06,0.01,0,0c0.03,0,0.16,0.02,0.03,0c0.03,0.01,0.07,0.02,0.1,0.03c-0.04-0.01-0.03-0.01,0.02,0.02
				c0.12,0.06-0.05-0.06,0.03,0.03c-0.02-0.02-0.08-0.16-0.05-0.07c0-0.02-0.01-0.05-0.01-0.07c0,0.06,0,0.04,0.01-0.04
				c-0.02,0.05-0.01,0.04,0.01-0.03c-0.03,0.05-0.02,0.04,0.02-0.01c-0.02,0.03-0.05,0.06-0.08,0.08c0.09-0.08-0.05,0.02-0.08,0.04
				c0.1-0.05-0.03,0.01-0.05,0.02c-0.03,0.01-0.06,0.02-0.09,0.02c0.05,0,0.04,0-0.02,0c-0.05,0-0.1,0.01-0.15,0.01
				c-0.02,0-0.17-0.02-0.04,0c-0.04-0.01-0.08-0.02-0.11-0.03c-0.09-0.02,0.09,0.05-0.04-0.02c-0.03-0.02-0.11-0.08,0,0.01
				c-0.1-0.09,0.03,0.06-0.01,0c-0.02-0.03-0.05-0.12,0.01,0.03c-0.05-0.12,0,0.09,0,0.01c0-0.1-0.03,0.13-0.01,0.04
				c0.01-0.04,0.05-0.11-0.02,0.03c0.02-0.03,0.08-0.1-0.02,0.02c0.09-0.1-0.06,0.03,0.01-0.01c0.03-0.02,0.13-0.06,0-0.01
				c0.05-0.02,0.1-0.03,0.14-0.04c-0.13,0.03,0.01,0,0.03,0c0.06,0,0.13,0,0.19,0.01c0.28,0.02,0.51-0.25,0.51-0.5
				C20.63,24.75,20.4,24.57,20.12,24.54L20.12,24.54z"/>
		</g>
	</g>
	<g>
		<g>
			<path class="st7" d="M20.12,25.9c0.2,0.02,0.34-0.09,0.45-0.24c0.08-0.11,0.08-0.32,0-0.43c-0.11-0.15-0.25-0.26-0.45-0.24
				c-0.25,0.02-0.46,0.19-0.46,0.46C19.66,25.71,19.87,25.88,20.12,25.9L20.12,25.9z"/>
		</g>
	</g>
	<g>
		<g>
			<path class="st5" d="M18.08,25.06c-0.18-0.08-0.32-0.08-0.49,0c-0.29,0.13-0.31,0.55-0.1,0.76c0.19,0.19,0.5,0.19,0.69,0
				C18.39,25.61,18.37,25.19,18.08,25.06L18.08,25.06z"/>
		</g>
	</g>
	<g>
		<g>
			<path class="st5" d="M16.13,25.28c0,0,0.01,0,0.01,0.01c0.19,0.11,0.43,0.01,0.49-0.2c0.07-0.24-0.16-0.47-0.41-0.4
				c0,0-0.01,0-0.01,0C15.93,24.77,15.88,25.13,16.13,25.28L16.13,25.28z"/>
		</g>
	</g>
	<g>
		<g>
			<path class="st5" d="M14.88,24.84c0.39,0,0.39-0.59,0-0.59C14.49,24.25,14.49,24.84,14.88,24.84L14.88,24.84z"/>
		</g>
	</g>
	<g>
		<g>
			<path class="st5" d="M13.51,24.4c0.34,0,0.34-0.52,0-0.52S13.17,24.4,13.51,24.4L13.51,24.4z"/>
		</g>
	</g>
	<g>
		<g>
			<path class="st5" d="M12.39,24.04c0.26,0,0.26-0.39,0-0.39C12.13,23.64,12.13,24.04,12.39,24.04L12.39,24.04z"/>
		</g>
	</g>
	<g>
		<g>
			<path class="st5" d="M22.31,25.32c0.07-0.05,0.17-0.12,0.2-0.21c0.1-0.23,0.02-0.47-0.23-0.55c-0.12-0.04-0.29-0.02-0.4,0.05
				c-0.19,0.12-0.27,0.36-0.15,0.56C21.85,25.36,22.12,25.44,22.31,25.32L22.31,25.32z"/>
		</g>
	</g>
	<g>
		<g>
			<path class="st5" d="M23.53,24.81c0.01,0,0.02,0,0.03,0c0.2,0.01,0.37-0.17,0.37-0.36c0-0.19-0.17-0.37-0.37-0.36
				c-0.01,0-0.02,0-0.03,0c-0.2,0.01-0.37,0.16-0.37,0.36C23.16,24.65,23.33,24.8,23.53,24.81L23.53,24.81z"/>
		</g>
	</g>
	<g>
		<g>
			<path class="st5" d="M25.06,24.31c0.01,0,0.01-0.01,0.02-0.01c0.19-0.14,0.19-0.36,0-0.5c-0.01,0-0.01-0.01-0.02-0.01
				c-0.19-0.14-0.47,0.05-0.47,0.26C24.59,24.25,24.86,24.45,25.06,24.31L25.06,24.31z"/>
		</g>
	</g>
	<g>
		<g>
			<path class="st5" d="M26.41,23.85c0.01,0,0.02-0.01,0.03-0.01c0.3-0.08,0.3-0.52,0-0.6c-0.01,0-0.02-0.01-0.03-0.01
				c-0.2-0.05-0.41,0.1-0.41,0.31C26,23.75,26.21,23.9,26.41,23.85L26.41,23.85z"/>
		</g>
	</g>
	<g>
		<g>
			<path class="st5" d="M27.5,23.44c0.32,0,0.32-0.49,0-0.49C27.17,22.94,27.17,23.44,27.5,23.44L27.5,23.44z"/>
		</g>
	</g>
	<g>
		<g>
			<path class="st5" d="M28.62,23c0.32,0,0.32-0.49,0-0.49C28.3,22.51,28.3,23,28.62,23L28.62,23z"/>
		</g>
	</g>
	<g>
		<g>
			<path class="st5" d="M29.89,22.76c0.32,0,0.32-0.49,0-0.49C29.57,22.27,29.57,22.76,29.89,22.76L29.89,22.76z"/>
		</g>
	</g>
	<g>
		<g>
			<path class="st2" d="M10.97,28c-0.01,0.02-0.01,0.04-0.02,0.06c0.26,0.1,0.41,0.39,0.44,0.67c0.03,0.27-0.04,0.55-0.11,0.81
				c-0.35,1.24-0.82,2.45-1.42,3.6c-0.27,0.07-0.54,0-0.81-0.06c-1.01-0.25-2.02-0.5-3.03-0.75c-0.14-0.03-0.29-0.07-0.39-0.18
				c-0.16-0.16-0.14-0.41-0.12-0.63c0.14-1.13,0.4-2.24,0.77-3.31c0.16-0.47,0.4-0.98,0.87-1.12c0.26-0.08,0.54-0.03,0.81,0.02
				C9.06,27.3,9.99,27.46,10.97,28z"/>
		</g>
		<g>
			<path class="st7" d="M9.65,23.15c-0.69-0.12-1.51-0.27-2.16-0.02c-0.65,0.25-1.19,0.75-1.52,1.36c-0.21,0.39-0.33,0.88-0.11,1.26
				c0.18,0.3,0.53,0.46,0.81,0.67c0.28,0.21-0.04,0.95-0.21,1.26c1.03,0.41,2.2,0.72,3.26,1.03c1.16,0.34,1.69,0.81,1.78,0.41
				c0.13-0.61,0.25-1.05,0.42-1.3c0.27-0.4,0.63-0.51,1.01-0.82c0.44-0.36,0.51-1.03,0.29-1.55c-0.22-0.52-0.67-0.91-1.15-1.22
				C11.49,23.85,10.62,23.32,9.65,23.15z"/>
		</g>
		<g>
			<g>
				<path class="st6" d="M8.7,23.45c-0.69-0.35-1.52,0.51-1.87,1.02c-0.34,0.5-0.38,1.7,0.27,1.95c0.4,0.15,0.79-0.24,0.72-0.62
					c-0.04-0.21-0.2-0.61-0.07-0.86c0.26-0.51,0.65-0.82,1-1.25C8.8,23.62,8.78,23.49,8.7,23.45L8.7,23.45z"/>
			</g>
		</g>
		<g>
			<g>
				<path class="st6" d="M9.82,23.63c-0.46,0.03-0.77,0.46-1.03,0.8c-0.39,0.5-0.64,1.12-0.75,1.74c-0.11,0.6,0.94,0.8,1.07,0.21
					c0.11-0.48,0.23-0.94,0.4-1.41c0.14-0.38,0.46-0.73,0.51-1.12C10.04,23.74,9.93,23.62,9.82,23.63L9.82,23.63z"/>
			</g>
		</g>
		<g>
			<g>
				<path class="st6" d="M10.55,24.05c-0.36,0.83-0.69,1.69-1.04,2.53c-0.25,0.6,0.74,0.93,0.96,0.32c0.21-0.56,0.39-1.11,0.51-1.7
					c0.08-0.38,0.15-0.9-0.15-1.21C10.74,23.91,10.6,23.94,10.55,24.05L10.55,24.05z"/>
			</g>
		</g>
		<g>
			<g>
				<path class="st6" d="M11.59,24.59c0,0.45,0.17,0.85,0.01,1.29c-0.12,0.35-0.4,0.64-0.66,0.9c-0.12,0.13-0.24,0.32-0.17,0.51
					c0.07,0.2,0.14,0.33,0.35,0.39c0.17,0.05,0.4,0.04,0.52-0.1c0.39-0.42,0.81-0.93,0.86-1.53c0.04-0.61-0.18-1.28-0.77-1.55
					C11.67,24.47,11.59,24.52,11.59,24.59L11.59,24.59z"/>
			</g>
		</g>
		<g>
			<g>
				<path class="st6" d="M7.04,27.1c-0.08,0.04-0.13,0.15-0.16,0.22c-0.05,0.11-0.07,0.22-0.03,0.33c0.04,0.1,0.18,0.09,0.23,0.02
					c0.08-0.12,0.15-0.46,0.01-0.56C7.08,27.09,7.05,27.09,7.04,27.1L7.04,27.1z"/>
			</g>
		</g>
		<g>
			<g>
				<path class="st6" d="M7.59,27.29c-0.08-0.02-0.18,0.05-0.22,0.11c-0.07,0.11-0.12,0.26-0.06,0.38c0.05,0.11,0.19,0.09,0.26,0.02
					c0.06-0.07,0.08-0.22,0.09-0.31C7.66,27.45,7.66,27.31,7.59,27.29L7.59,27.29z"/>
			</g>
		</g>
		<g>
			<g>
				<path class="st6" d="M8.02,27.45c-0.1,0.01-0.16,0.06-0.2,0.15c-0.04,0.08-0.07,0.2-0.07,0.28c0.01,0.14,0.19,0.23,0.28,0.09
					c0.04-0.07,0.05-0.15,0.06-0.23c0.01-0.07,0.03-0.14,0.01-0.21C8.1,27.49,8.07,27.44,8.02,27.45L8.02,27.45z"/>
			</g>
		</g>
		<g>
			<g>
				<path class="st6" d="M8.47,27.61c-0.19-0.01-0.24,0.3-0.26,0.43c-0.03,0.18,0.27,0.2,0.29,0.02
					C8.51,27.97,8.65,27.62,8.47,27.61L8.47,27.61z"/>
			</g>
		</g>
		<g>
			<g>
				<path class="st6" d="M8.84,27.81c-0.11,0.09-0.22,0.36-0.09,0.47c0.06,0.06,0.14,0.07,0.21,0.01c0.08-0.06,0.07-0.15,0.09-0.24
					c0.01-0.09,0-0.17-0.05-0.24C8.97,27.77,8.88,27.77,8.84,27.81L8.84,27.81z"/>
			</g>
		</g>
		<g>
			<g>
				<path class="st6" d="M9.43,27.93c-0.18,0-0.25,0.25-0.23,0.39c0.01,0.15,0.23,0.14,0.28,0.02C9.51,28.28,9.59,27.93,9.43,27.93
					L9.43,27.93z"/>
			</g>
		</g>
		<g>
			<g>
				<path class="st6" d="M9.81,28.1c-0.11,0.07-0.15,0.2-0.15,0.32c-0.01,0.2,0.27,0.2,0.31,0.02c0.02-0.11,0.02-0.25-0.08-0.33
					C9.86,28.09,9.83,28.09,9.81,28.1L9.81,28.1z"/>
			</g>
		</g>
		<g>
			<g>
				<path class="st6" d="M10.26,28.28c-0.1,0.09-0.15,0.28-0.1,0.4c0.02,0.05,0.09,0.07,0.14,0.05c0.14-0.06,0.18-0.28,0.12-0.41
					C10.39,28.25,10.31,28.23,10.26,28.28L10.26,28.28z"/>
			</g>
		</g>
		<g>
			<g>
				<path class="st6" d="M10.67,28.42c-0.11,0.12-0.13,0.31-0.04,0.45c0.05,0.06,0.15,0.06,0.21,0.01c0.11-0.1,0.12-0.34,0.01-0.45
					C10.8,28.39,10.72,28.37,10.67,28.42L10.67,28.42z"/>
			</g>
		</g>
		<g>
			<g>
				<path class="st6" d="M11.22,28.6c-0.13-0.02-0.2,0.19-0.21,0.28c-0.02,0.12,0.17,0.18,0.23,0.08
					C11.28,28.89,11.37,28.62,11.22,28.6L11.22,28.6z"/>
			</g>
		</g>
	</g>
	<g>
		<g>
			<path class="st6" d="M20.51,28.1c0.1,0.03,0.18,0.02,0.26-0.03c0.17-0.09,0.17-0.34,0-0.43c-0.09-0.05-0.17-0.06-0.26-0.03
				C20.26,27.69,20.26,28.01,20.51,28.1L20.51,28.1z"/>
		</g>
	</g>
	<g>
		<g>
			<path class="st6" d="M23.31,30c0-0.01,0.01-0.01,0.01-0.02c0.12-0.15,0.12-0.29,0-0.44c0-0.01-0.01-0.01-0.01-0.02
				c-0.07-0.09-0.23-0.11-0.33-0.09c-0.15,0.04-0.25,0.17-0.25,0.32c0,0.12,0.07,0.23,0.17,0.29C23.02,30.12,23.22,30.11,23.31,30
				L23.31,30z"/>
		</g>
	</g>
	<g>
		<g>
			<path class="st6" d="M25,27.45c0.05,0,0.1-0.01,0.15-0.02c0.28-0.1,0.28-0.46,0-0.56c-0.05-0.02-0.09-0.02-0.15-0.02
				C24.61,26.84,24.61,27.46,25,27.45L25,27.45z"/>
		</g>
	</g>
	<g>
		<g>
			<path class="st6" d="M27.87,29.64c0.18,0,0.33-0.15,0.33-0.33c0-0.18-0.15-0.33-0.33-0.33s-0.33,0.15-0.33,0.33
				C27.53,29.49,27.69,29.64,27.87,29.64L27.87,29.64z"/>
		</g>
	</g>
	<g>
		<g>
			<path class="st6" d="M28.79,26.08c0.08,0.11,0.18,0.18,0.33,0.17c0.28-0.02,0.35-0.33,0.13-0.49c-0.07-0.05-0.15-0.08-0.23-0.07
				c-0.1,0.01-0.18,0.04-0.23,0.13C28.75,25.89,28.74,26,28.79,26.08L28.79,26.08z"/>
		</g>
	</g>
	<g>
		<g>
			<path class="st6" d="M30.95,28.31c0.27,0,0.27-0.41,0-0.41C30.68,27.9,30.68,28.31,30.95,28.31L30.95,28.31z"/>
		</g>
	</g>
	<g>
		<g>
			<path class="st6" d="M24.36,33.99c0.36,0,0.36-0.55,0-0.55C24.01,33.44,24.01,33.99,24.36,33.99L24.36,33.99z"/>
		</g>
	</g>
	<g>
		<g>
			<path class="st6" d="M25.94,32.69c0.36,0,0.36-0.55,0-0.55C25.58,32.14,25.58,32.69,25.94,32.69L25.94,32.69z"/>
		</g>
	</g>
	<g>
		<g>
			<path class="st6" d="M26.49,34.35c0.36,0,0.36-0.55,0-0.55C26.13,33.81,26.13,34.35,26.49,34.35L26.49,34.35z"/>
		</g>
	</g>
	<g>
		<g>
			<path class="st5" d="M14.88,13.22c0.16,0,0.16-0.24,0-0.24C14.72,12.97,14.72,13.22,14.88,13.22L14.88,13.22z"/>
		</g>
	</g>
	<g>
		<defs>
			<path id="SVGID_00000104674068968493807010000018339994506538832267_" d="M26.75,40.4c-0.13,0.11-0.22,0.27-0.37,0.36
				c-0.21,0.12-0.48,0.07-0.71-0.03c-0.23-0.09-0.44-0.23-0.68-0.27c-0.4-0.06-0.8,0.16-1.09,0.45c-0.29,0.29-0.49,0.65-0.75,0.96
				c-0.18,0.22-0.4,0.41-0.58,0.64c-0.56,0.69-0.75,1.65-0.51,2.51s0.88,1.59,1.69,1.95c0.08,0.03,0.16,0.07,0.25,0.06
				c0.1,0,0.2-0.05,0.29-0.11c0.23-0.13,0.46-0.26,0.68-0.41c0.71-0.49,1.26-1.19,1.58-1.98c0.1-0.24,0.18-0.5,0.36-0.69
				c0.21-0.23,0.53-0.32,0.82-0.46c0.58-0.28,1.04-0.79,1.25-1.39c0.2-0.56,0.14-1.29-0.37-1.61c-0.18-0.11-0.39-0.16-0.6-0.19
				C27.57,40.12,27.08,40.11,26.75,40.4z"/>
		</defs>
		<use xlink:href="#SVGID_00000104674068968493807010000018339994506538832267_"  style="overflow:visible;fill:#990028;"/>
		<clipPath id="SVGID_00000157995584664478453560000009137501129508606649_">
			<use xlink:href="#SVGID_00000104674068968493807010000018339994506538832267_"  style="overflow:visible;"/>
		</clipPath>
		<g style="clip-path:url(#SVGID_00000157995584664478453560000009137501129508606649_);">
			<g>
				<path class="st5" d="M28.61,39.37c0.29,0.73,0.31,1.6-0.07,2.3c-0.37,0.68-1.3,1.04-1.92,1.49c-0.95,0.69-1.17,1.66-1.32,2.76
					c-0.01,0.04,0.05,0.07,0.07,0.03c0.47-0.82,0.42-1.7,1.16-2.41c0.56-0.53,1.3-0.82,1.88-1.33c0.76-0.68,0.93-2.1,0.24-2.87
					C28.64,39.32,28.6,39.34,28.61,39.37L28.61,39.37z"/>
			</g>
		</g>
		<g style="clip-path:url(#SVGID_00000157995584664478453560000009137501129508606649_);">
			<g>
				<path class="st5" d="M28.16,39.69c0.06,0.84-0.11,1.47-0.82,2c-0.48,0.36-1,0.66-1.5,0.99c-0.7,0.45-1.29,1.09-1.21,1.96
					c0.01,0.08,0.11,0.1,0.15,0.02c0.34-0.83,0.69-1.32,1.45-1.83c0.5-0.33,0.99-0.66,1.47-1.02c0.69-0.53,0.88-1.33,0.55-2.12
					C28.23,39.64,28.15,39.64,28.16,39.69L28.16,39.69z"/>
			</g>
		</g>
		<g style="clip-path:url(#SVGID_00000157995584664478453560000009137501129508606649_);">
			<g>
				<path class="st5" d="M27.76,39.48c-0.26,1.26-1.07,1.76-2.1,2.42c-0.66,0.43-1.27,0.94-1.4,1.75c-0.01,0.08,0.09,0.13,0.14,0.06
					c0.38-0.55,0.56-0.99,1.14-1.41c0.46-0.34,1.02-0.58,1.45-0.96c0.56-0.49,0.97-1.1,0.85-1.86
					C27.83,39.44,27.76,39.44,27.76,39.48L27.76,39.48z"/>
			</g>
		</g>
		<g style="clip-path:url(#SVGID_00000157995584664478453560000009137501129508606649_);">
			<g>
				<path class="st5" d="M26.75,39.52c-0.23,1.03-0.8,1.57-1.76,1.97c-0.62,0.25-1.01,0.8-1.24,1.41c-0.02,0.05,0.05,0.11,0.1,0.08
					c0.35-0.24,0.48-0.64,0.77-0.95c0.35-0.38,0.95-0.4,1.34-0.73c0.5-0.42,1-1.1,0.85-1.77C26.82,39.48,26.76,39.48,26.75,39.52
					L26.75,39.52z"/>
			</g>
		</g>
		<g style="clip-path:url(#SVGID_00000157995584664478453560000009137501129508606649_);">
			<g>
				<path class="st5" d="M25.75,39.49c-0.17,1.5-2.27,1.76-2.48,3.33c-0.01,0.06,0.07,0.11,0.11,0.05c0.24-0.42,0.45-0.82,0.79-1.18
					c0.29-0.3,0.65-0.51,0.97-0.76c0.4-0.31,1.09-0.91,0.68-1.45C25.79,39.45,25.75,39.46,25.75,39.49L25.75,39.49z"/>
			</g>
		</g>
	</g>
	<g>
		<path class="st6" d="M18.48,42.44c-0.18-0.31-0.36-0.68-0.22-1.01c0.07-0.17,0.21-0.29,0.35-0.41c1.3-1.05,3.09-1.48,4.73-1.13
			c-0.28,0.37-0.29,1.01-0.35,1c-1.59-0.2-3.37,0.44-4.32,1.71C18.58,42.6,18.53,42.52,18.48,42.44z"/>
	</g>
	<g>
		<path class="st5" d="M21.76,37.11c0.16-0.12,0.41-0.07,0.55,0.06c0.15,0.14,0.2,0.35,0.2,0.55c0,0.2-0.07,0.39-0.13,0.58
			c-0.08,0.24-0.16,0.49-0.23,0.73c-0.07,0.23-0.15,0.47-0.32,0.65c-0.03,0.03-0.08,0.06-0.11,0.03c-0.01-0.01-0.02-0.03-0.02-0.05
			c-0.15-0.71-0.31-1.46-0.15-2.17C21.59,37.35,21.64,37.19,21.76,37.11z"/>
	</g>
	<g>
		<path class="st5" d="M24.66,38.37c0.12,0.12,0.11,0.33,0.02,0.48C24.6,39,24.45,39.1,24.31,39.2c-0.28,0.19-0.61,0.4-0.85,0.63
			c-0.14,0.13-0.19-0.02-0.19-0.13c0.04-0.31,0.16-0.5,0.29-0.79c0.13-0.29,0.37-0.54,0.68-0.62
			C24.39,38.26,24.56,38.27,24.66,38.37z"/>
	</g>
	<g>
		<path class="st5" d="M19.67,38.27c-0.18-0.11-0.44-0.04-0.6,0.1c-0.12,0.1-0.11,0.45-0.08,0.6c0.11,0.61,0.4,0.81,0.74,1.11
			c0.06,0.06,0.17,0.11,0.23,0.05c0.03-0.03,0.03-0.08,0.03-0.12c0-0.33,0.02-0.65,0-0.98C19.96,38.6,19.88,38.38,19.67,38.27z"/>
	</g>
	<g>
		<path class="st2" d="M25.07,52.73c0.06,0.05,0.15-0.02,0.2-0.08c0.52-0.73,0.28-1.72,0.4-2.59c0.07-0.48,0.32-1.03,0.61-1.43
			c0.38-0.51,0.89-0.88,1-1.48c0.02-0.11-0.07-0.19-0.19-0.22c-0.26-0.08-0.67-0.02-0.85-0.18c-0.08-0.07-0.08-0.2-0.08-0.3
			c-0.02-0.5,0.16-1.01,0.05-1.51c-0.14-0.59-0.66-1.02-0.9-1.59c-0.11-0.28-0.15-0.58-0.23-0.87c-0.11-0.41-0.29-0.8-0.53-1.14
			c-0.22-0.31-0.71-0.44-1.06-0.31c-0.6,0.23-1.12,0.6-1.63,0.98c-0.72,0.52-1.46,1.07-1.86,1.85c-0.11,0.22-0.2,0.45-0.31,0.67
			c-0.32,0.62-0.85,1.1-1.22,1.69c-0.49,0.78-0.68,1.71-0.76,2.63c-0.04,0.42-0.06,0.85,0.01,1.27c0.13,0.73,0.55,1.39,1.12,1.86
			c0.57,0.48,1.28,0.78,2.01,0.91C21.48,53,22.13,53,22.77,53c0.53,0,1.07,0,1.6,0C24.59,53.01,25.03,52.94,25.07,52.73z"/>
	</g>
	<g>
		<path class="st5" d="M21.21,52.38c-0.02-0.01-0.04-0.04-0.05-0.06c-0.14-0.21-0.28-0.41-0.42-0.62c0.67-0.32,1.4-0.53,2.14-0.5
			c0.74,0.02,1.49,0.29,2.01,0.8c-0.19,0.17-0.38,0.34-0.57,0.51c-0.89-0.52-2.03-0.58-2.98-0.16C21.3,52.38,21.25,52.4,21.21,52.38
			z"/>
	</g>
	<g>
		<path class="st7" d="M20.2,47.97c0.17,0.14,0.38,0.24,0.6,0.27c0.25,0.03,0.5-0.05,0.71-0.18c0.32-0.2,0.58-0.54,0.56-0.91
			c-0.02-0.46-0.43-0.81-0.87-0.96c-0.32-0.11-0.7-0.13-0.97,0.07c-0.18,0.13-0.29,0.35-0.36,0.56
			C19.78,47.07,19.7,47.54,20.2,47.97z"/>
	</g>
	<g>
		<path class="st7" d="M25.85,45.74c-0.11,0.27-0.24,0.49-0.53,0.51c-0.3,0.02-0.51-0.3-0.46-0.55c0.15-0.73,0.37-1.27,0.71-1.94
			c0.2,0.12,1.09,1.29,1.07,1.84c0,0.15-0.04,0.31-0.14,0.41c-0.1,0.11-0.28,0.14-0.42,0.08C25.93,46.04,25.84,45.89,25.85,45.74z"
			/>
	</g>
	<g>
		<path class="st8" d="M13.94,45.8c-0.02-0.57-0.04-1.17,0.15-1.71c0.09-0.26,0.24-0.51,0.31-0.78c0.07-0.27,0.05-0.59-0.15-0.79
			c-0.11-0.11-0.27-0.18-0.39-0.28c-0.35-0.28-0.39-0.82-0.2-1.22c0.2-0.4,0.58-0.68,0.97-0.9c0.71-0.4,1.53-0.64,2.34-0.57
			c0.81,0.07,1.61,0.48,2.04,1.17c0.17,0.28,0.28,0.6,0.26,0.92c-0.02,0.32-0.1,0.69-0.35,0.9c-0.67,0.6-1.29,0.38-1.27,1.01
			c0.01,0.46,0.66,0.52,0.88,0.54c0.74,0.09,2.14,1.04,0.89,2.36c-0.31,0.33-0.69,0.57-1.07,0.81c-0.1,0.06-0.2,0.13-0.26,0.23
			c-0.18,0.31,0.15,0.69,0.49,0.8c0.35,0.11,0.74,0.08,1.05,0.26c0.38,0.22,0.54,0.68,0.57,1.12c0.03,0.43-0.04,0.87,0.02,1.3
			c0.05,0.4,0.22,0.78,0.47,1.09c0.11,0.14,0.24,0.27,0.41,0.34c0.15,0.07,0.32,0.08,0.48,0.1c0.58,0.04,1.16,0.07,1.74,0.07
			c0.3,0,0.62-0.01,0.89-0.14c0.89-0.45,0.97-1.95,1.84-2.44c0.39-0.22,0.91-0.22,1.35-0.1c0.56,0.16,0.87,0.56,1.08,1.09
			c0.27,0.7-0.23,1.53-0.92,1.84c-0.36,0.17-0.85,0.2-1.06,0.53c-0.31,0.49,0.01,0.66-0.11,0.98c-0.18,0.51-0.91,0.94-1.46,0.97
			c-0.53,0.04-1.13,0.02-1.36-0.46c-0.05-0.11-0.08-0.22-0.14-0.33c-0.21-0.4-0.75-0.53-1.2-0.44c-0.45,0.1-0.83,0.38-1.2,0.63
			c-0.38,0.26-0.78,0.51-1.24,0.54c-0.38,0.03-0.76-0.11-1.09-0.29c-1.21-0.67-1.91-1.96-2.52-3.19c-0.46-0.91-0.9-1.83-1.22-2.79
			C14.62,47.92,13.98,46.93,13.94,45.8z"/>
	</g>
	<g>
		<g>
			<path class="st5" d="M26.56,45.14c-0.22-0.35-0.88-0.24-1.22-0.18c-0.49,0.08-1.1,0.32-1.4,0.72c-0.02,0.02,0.01,0.06,0.04,0.05
				c0.4-0.17,0.77-0.38,1.2-0.5c0.47-0.13,0.9-0.04,1.37-0.06C26.55,45.18,26.57,45.16,26.56,45.14L26.56,45.14z"/>
		</g>
	</g>
	<g>
		<g>
			<path class="st5" d="M23.11,41.1c-0.9,0.24-1.59,0.92-2.27,1.51c-0.53,0.46-0.9,1.05-1.05,1.74c-0.01,0.04,0.05,0.06,0.07,0.02
				c0.27-0.71,0.6-1.08,1.16-1.58c0.36-0.32,0.72-0.63,1.1-0.92c0.33-0.25,0.71-0.39,1.05-0.63C23.24,41.19,23.2,41.08,23.11,41.1
				L23.11,41.1z"/>
		</g>
	</g>
	<g>
		<g>
			<path class="st5" d="M24.77,50.45c-0.03-0.13-0.09-0.32-0.26-0.3c-0.03,0-0.03,0.03-0.02,0.05c0.05,0.11,0.17,0.17,0.23,0.27
				C24.74,50.5,24.78,50.48,24.77,50.45L24.77,50.45z"/>
		</g>
	</g>
	<g>
		<g>
			<path class="st5" d="M23.04,51.06c0.04-0.06,0.04-0.12,0.04-0.19c0-0.12-0.19-0.12-0.19,0c0,0.07-0.01,0.13,0.04,0.19
				C22.95,51.1,23,51.1,23.04,51.06L23.04,51.06z"/>
		</g>
	</g>
	<g>
		<g>
			<path class="st5" d="M24.04,50.81c0.01-0.08-0.03-0.14-0.08-0.2c-0.07-0.09-0.22,0.03-0.16,0.12c0.04,0.06,0.08,0.12,0.16,0.14
				C24,50.88,24.03,50.85,24.04,50.81L24.04,50.81z"/>
		</g>
	</g>
	<g>
		<g>
			<path class="st5" d="M21.31,50.12c-0.07-0.03-0.12,0.02-0.18,0.06c-0.08,0.06-0.13,0.12-0.14,0.22
				c-0.01,0.04,0.04,0.05,0.07,0.04c0.07-0.03,0.11-0.08,0.16-0.14c0.04-0.05,0.11-0.08,0.11-0.15
				C21.33,50.14,21.32,50.13,21.31,50.12L21.31,50.12z"/>
		</g>
	</g>
	<g>
		<g>
			<path class="st5" d="M22.06,50.64c-0.05,0.09-0.12,0.15-0.15,0.26c-0.01,0.03,0.02,0.05,0.04,0.04c0.13-0.03,0.22-0.11,0.27-0.23
				C22.26,50.61,22.11,50.55,22.06,50.64L22.06,50.64z"/>
		</g>
	</g>
	<g>
		<g>
			<path class="st5" d="M24.36,49.02c-0.05,0.07-0.11,0.14-0.17,0.2c-0.05,0.05-0.08,0.08-0.08,0.14c0,0.02,0.02,0.04,0.04,0.04
				c0.16,0.01,0.26-0.22,0.29-0.35C24.44,49,24.38,48.98,24.36,49.02L24.36,49.02z"/>
		</g>
	</g>
	<g>
		<g>
			<path class="st5" d="M23.53,48.78c-0.07,0.09-0.11,0.24-0.07,0.34c0.01,0.03,0.04,0.04,0.07,0.03c0.13-0.05,0.13-0.24,0.11-0.36
				C23.64,48.73,23.56,48.74,23.53,48.78L23.53,48.78z"/>
		</g>
	</g>
	<g>
		<g>
			<path class="st5" d="M22.84,48.7c-0.07,0.08-0.14,0.25-0.04,0.33c0.03,0.02,0.06,0.02,0.09,0c0.1-0.08,0.04-0.25-0.04-0.33
				C22.86,48.7,22.85,48.7,22.84,48.7L22.84,48.7z"/>
		</g>
	</g>
	<g>
		<g>
			<path class="st5" d="M21.7,49.01c0,0.07,0.03,0.12,0.06,0.18c0.03,0.07,0.04,0.11,0.12,0.13c0.02,0,0.04,0,0.05-0.02
				c0.04-0.07,0.02-0.11-0.01-0.18c-0.03-0.07-0.05-0.14-0.12-0.17C21.76,48.93,21.7,48.96,21.7,49.01L21.7,49.01z"/>
		</g>
	</g>
	<g>
		<g>
			<path class="st5" d="M20.98,49.22c-0.03,0.1,0.09,0.24,0.16,0.28c0.09,0.05,0.18-0.05,0.14-0.14
				C21.25,49.3,21.04,49.06,20.98,49.22L20.98,49.22z"/>
		</g>
	</g>
	<g>
		<path class="st0" d="M20.73,49.77c1.21-0.89,2.98-0.97,4.27-0.18c-0.28,0.5-0.76,0.89-1.32,1.07c-0.56,0.17-1.18,0.13-1.7-0.12
			c-0.17-0.08-0.33-0.18-0.49-0.28C21.23,50.09,20.98,49.93,20.73,49.77z"/>
	</g>
	<g>
		<path class="st5" d="M22.5,50.15c0.14,0.17,0.4,0.28,0.68,0.22c0.22-0.04,0.44-0.27,0.44-0.49c0-0.22-0.17-0.4-0.37-0.49
			c-0.16-0.07-0.35-0.1-0.51-0.05C22.56,49.4,22.16,49.74,22.5,50.15z"/>
	</g>
	<g>
		<defs>
			<path id="SVGID_00000109023392473121634880000013064668920838692270_" d="M13.94,45.8c-0.02-0.57-0.04-1.17,0.15-1.71
				c0.09-0.26,0.24-0.51,0.31-0.78c0.07-0.27,0.05-0.59-0.15-0.79c-0.11-0.11-0.27-0.18-0.39-0.28c-0.35-0.28-0.39-0.82-0.2-1.22
				c0.2-0.4,0.58-0.68,0.97-0.9c0.71-0.4,1.53-0.64,2.34-0.57c0.81,0.07,1.61,0.48,2.04,1.17c0.17,0.28,0.28,0.6,0.26,0.92
				c-0.02,0.32-0.1,0.69-0.35,0.9c-0.67,0.6-1.29,0.38-1.27,1.01c0.01,0.46,0.66,0.52,0.88,0.54c0.74,0.09,2.14,1.04,0.89,2.36
				c-0.31,0.33-0.69,0.57-1.07,0.81c-0.1,0.06-0.2,0.13-0.26,0.23c-0.18,0.31,0.15,0.69,0.49,0.8c0.35,0.11,0.74,0.08,1.05,0.26
				c0.38,0.22,0.54,0.68,0.57,1.12c0.03,0.43-0.04,0.87,0.02,1.3c0.05,0.4,0.22,0.78,0.47,1.09c0.11,0.14,0.24,0.27,0.41,0.34
				c0.15,0.07,0.32,0.08,0.48,0.1c0.58,0.04,1.16,0.07,1.74,0.07c0.3,0,0.62-0.01,0.89-0.14c0.89-0.45,0.97-1.95,1.84-2.44
				c0.39-0.22,0.91-0.22,1.35-0.1c0.56,0.16,0.87,0.56,1.08,1.09c0.27,0.7-0.23,1.53-0.92,1.84c-0.36,0.17-0.85,0.2-1.06,0.53
				c-0.31,0.49,0.01,0.66-0.11,0.98c-0.18,0.51-0.91,0.94-1.46,0.97c-0.53,0.04-1.13,0.02-1.36-0.46c-0.05-0.11-0.08-0.22-0.14-0.33
				c-0.21-0.4-0.75-0.53-1.2-0.44c-0.45,0.1-0.83,0.38-1.2,0.63c-0.38,0.26-0.78,0.51-1.24,0.54c-0.38,0.03-0.76-0.11-1.09-0.29
				c-1.21-0.67-1.91-1.96-2.52-3.19c-0.46-0.91-0.9-1.83-1.22-2.79C14.62,47.92,13.98,46.93,13.94,45.8z"/>
		</defs>
		<clipPath id="SVGID_00000139993005152208653520000014132456994490343613_">
			<use xlink:href="#SVGID_00000109023392473121634880000013064668920838692270_"  style="overflow:visible;"/>
		</clipPath>
		<g style="clip-path:url(#SVGID_00000139993005152208653520000014132456994490343613_);">
			<g>
				<path class="st5" d="M25.8,54.75c0.23-0.23,0.22-0.49,0.22-0.8c0.03-1.19,0.97-1.4,1.86-1.85c0.87-0.43,0.79-1.46,0.43-2.18
					c-0.04-0.07-0.14-0.02-0.12,0.05c0.17,0.89,0.25,1.7-0.84,2.11c-0.38,0.14-0.67,0.25-0.99,0.5c-0.82,0.63-0.33,1.32-0.67,2.11
					C25.67,54.75,25.76,54.79,25.8,54.75L25.8,54.75z"/>
			</g>
		</g>
		<g style="clip-path:url(#SVGID_00000139993005152208653520000014132456994490343613_);">
			<g>
				<path class="st5" d="M25.31,54.33c0.1-0.98,0.42-1.63,1.22-2.22c0.39-0.29,0.83-0.48,1.2-0.81c0.55-0.5,0.49-1.48,0.07-2.01
					c-0.05-0.06-0.13,0.01-0.12,0.07c0.23,1,0.17,1.66-0.82,2.21c-0.33,0.19-0.63,0.39-0.93,0.63c-0.68,0.54-0.76,1.34-0.69,2.14
					C25.24,54.38,25.31,54.38,25.31,54.33L25.31,54.33z"/>
			</g>
		</g>
		<g style="clip-path:url(#SVGID_00000139993005152208653520000014132456994490343613_);">
			<g>
				<path class="st5" d="M24.53,54.69c0.27-0.83,0.14-1.62,0.62-2.41c0.39-0.64,1.14-0.93,1.68-1.42c0.49-0.45,0.79-1.5,0.33-2.03
					c-0.08-0.1-0.23,0.03-0.17,0.13c0.8,1.38-1.13,2.14-1.85,2.93c-0.72,0.8-0.71,1.78-0.7,2.79
					C24.45,54.73,24.52,54.74,24.53,54.69L24.53,54.69z"/>
			</g>
		</g>
		<g style="clip-path:url(#SVGID_00000139993005152208653520000014132456994490343613_);">
			<g>
				<path class="st5" d="M26.54,49.06c0.12,1.17-1.65,2.14-2.3,2.98c-0.57,0.73-0.53,1.88-0.48,2.74c0.01,0.17,0.26,0.17,0.27,0
					c0.03-0.61,0-1.19,0.11-1.8c0.15-0.85,0.85-1.47,1.44-2.04c0.57-0.55,1.23-1.03,1.06-1.9C26.62,49,26.53,49.01,26.54,49.06
					L26.54,49.06z"/>
			</g>
		</g>
		<g style="clip-path:url(#SVGID_00000139993005152208653520000014132456994490343613_);">
			<g>
				<path class="st5" d="M23.24,54.81c0.21-0.35,0.09-0.84,0.11-1.23c0.02-0.63,0.47-1.21,0.41-1.83c-0.01-0.08-0.1-0.11-0.15-0.04
					c-0.46,0.68-0.89,2.36-0.4,3.1C23.22,54.82,23.24,54.82,23.24,54.81L23.24,54.81z"/>
			</g>
		</g>
		<g style="clip-path:url(#SVGID_00000139993005152208653520000014132456994490343613_);">
			<g>
				<path class="st5" d="M22.3,54.71c0.3-0.32,0.37-0.7,0.42-1.12c0.06-0.5,0.15-1.11-0.15-1.55c-0.03-0.04-0.12-0.03-0.11,0.03
					c0.05,0.42,0.07,0.81,0.04,1.23c-0.04,0.47,0,0.94-0.27,1.36C22.21,54.7,22.27,54.75,22.3,54.71L22.3,54.71z"/>
			</g>
		</g>
		<g style="clip-path:url(#SVGID_00000139993005152208653520000014132456994490343613_);">
			<g>
				<path class="st5" d="M21.28,54.59c0.4-0.18,0.43-0.81,0.49-1.18c0.11-0.76,0.14-1.43-0.33-2.07c-0.04-0.06-0.13-0.02-0.12,0.05
					c0.06,0.25,0.17,0.47,0.24,0.71c0.12,0.37,0.02,0.87-0.03,1.24c-0.05,0.35-0.05,0.9-0.3,1.19
					C21.21,54.56,21.24,54.61,21.28,54.59L21.28,54.59z"/>
			</g>
		</g>
		<g style="clip-path:url(#SVGID_00000139993005152208653520000014132456994490343613_);">
			<g>
				<path class="st5" d="M20.27,54.27c0.41,0.27,0.54-0.6,0.58-0.81c0.12-0.74,0.24-1.85-0.36-2.41c-0.04-0.03-0.1,0-0.08,0.05
					c0.21,0.65,0.26,1.22,0.22,1.89c-0.02,0.3,0.03,1.16-0.35,1.27C20.27,54.25,20.27,54.26,20.27,54.27L20.27,54.27z"/>
			</g>
		</g>
		<g style="clip-path:url(#SVGID_00000139993005152208653520000014132456994490343613_);">
			<g>
				<path class="st5" d="M19.72,54.11c0.1-1.36,0.42-3.24-0.21-4.53c-0.41-0.86-1.36-1.31-2.27-0.88c-0.07,0.03-0.03,0.13,0.04,0.13
					c0.48-0.01,0.93,0,1.39,0.19c0.61,0.26,0.76,1.15,0.81,1.71c0.11,1.12,0.11,2.25,0.21,3.38C19.68,54.13,19.72,54.13,19.72,54.11
					L19.72,54.11z"/>
			</g>
		</g>
		<g style="clip-path:url(#SVGID_00000139993005152208653520000014132456994490343613_);">
			<g>
				<path class="st5" d="M19.11,53.97c0.42-1,0.16-2.17-0.03-3.2c-0.18-0.96-1.15-1.49-2.08-1.38c-0.04,0.01-0.06,0.07-0.01,0.08
					c1.13,0.23,1.79,0.65,1.96,1.87c0.12,0.87,0.27,1.74,0.13,2.62C19.07,53.98,19.1,53.99,19.11,53.97L19.11,53.97z"/>
			</g>
		</g>
		<g style="clip-path:url(#SVGID_00000139993005152208653520000014132456994490343613_);">
			<g>
				<path class="st5" d="M16.73,47.72c0.8-0.33,2.3-0.96,2.35-2c0.06-1.21-1.38-1.04-2.08-1.61c-0.92-0.75,1.03-1.85,1.44-2.2
					c0.31-0.26,0.55-0.71,0.58-1.11c0.07-0.92-0.45-1.77-1.41-1.92c-0.05-0.01-0.09,0.06-0.04,0.09c1.37,0.83,1.37,2.15,0.08,3.07
					c-0.58,0.41-1.17,0.85-1.21,1.6c-0.03,0.63,0.61,0.94,1.12,1.1c0.29,0.09,0.56,0.15,0.84,0.28c0.91,0.41,0.14,1.25-0.17,1.54
					C17.8,47,17.2,47.28,16.73,47.72C16.72,47.72,16.73,47.72,16.73,47.72L16.73,47.72z"/>
			</g>
		</g>
		<g style="clip-path:url(#SVGID_00000139993005152208653520000014132456994490343613_);">
			<g>
				<path class="st5" d="M16.12,47.48c0.84,0.01,1.66-0.7,1.98-1.43c0.24-0.54-0.4-0.84-0.8-1c-1.06-0.42-2.2-1.33-1.09-2.51
					c0.42-0.44,0.98-0.69,1.38-1.16c0.68-0.8,0.27-1.77-0.37-2.44c-0.06-0.07-0.16,0.02-0.12,0.09c0.45,0.9,0.8,1.61-0.09,2.47
					c-0.31,0.3-0.7,0.53-1.02,0.81c-0.49,0.43-0.59,1-0.48,1.6c0.11,0.58,0.65,1,1.17,1.21c0.38,0.15,1.44,0.27,1.11,0.99
					c-0.27,0.61-1.07,1.05-1.68,1.24C16.04,47.38,16.05,47.48,16.12,47.48L16.12,47.48z"/>
			</g>
		</g>
		<g style="clip-path:url(#SVGID_00000139993005152208653520000014132456994490343613_);">
			<g>
				<path class="st5" d="M16.3,46.9c0.5-0.13,1.1-0.43,0.8-1.02c-0.12-0.24-0.61-0.38-0.82-0.49c-0.81-0.43-1.17-0.88-1.22-1.82
					c-0.09-1.53,1.11-1.83,1.72-2.96c0.42-0.78-0.28-1.66-0.78-2.19c-0.05-0.06-0.14,0.02-0.1,0.08c0.37,0.68,0.9,1.31,0.46,2.12
					c-0.2,0.36-0.65,0.65-0.96,0.92c-0.52,0.47-0.66,1.09-0.71,1.76c-0.04,0.56,0.04,1.33,0.47,1.75c0.22,0.22,0.46,0.37,0.74,0.52
					c0.16,0.08,0.33,0.16,0.5,0.22c0.67,0.26,0.44,0.81-0.1,1.1C16.27,46.88,16.28,46.91,16.3,46.9L16.3,46.9z"/>
			</g>
		</g>
		<g style="clip-path:url(#SVGID_00000139993005152208653520000014132456994490343613_);">
			<g>
				<path class="st5" d="M15.35,38.97c0.22,0.39,0.26,0.79,0.11,1.21c-0.09,0.35-0.31,0.68-0.51,0.98c-0.3,0.45-0.76,0.77-1.08,1.2
					c-0.49,0.66-0.33,1.49,0.01,2.15c0.03,0.06,0.13,0.03,0.13-0.03c-0.11-0.89-0.24-1.62,0.43-2.36c0.32-0.35,0.63-0.65,0.89-1.05
					c0.42-0.66,0.67-1.55,0.13-2.2c-0.02-0.03-0.08-0.02-0.09,0.01C15.34,38.92,15.34,38.91,15.35,38.97
					C15.35,38.97,15.35,38.97,15.35,38.97L15.35,38.97z"/>
			</g>
		</g>
		<g style="clip-path:url(#SVGID_00000139993005152208653520000014132456994490343613_);">
			<g>
				<path class="st5" d="M14.62,39.35c0.14,0.16,0.02,0.82-0.01,0.98c-0.07,0.46-0.46,0.81-0.79,1.11c-0.54,0.48-0.84,0.97-0.84,1.7
					c0,0.05,0.07,0.07,0.09,0.03c0.25-0.49,0.35-0.98,0.77-1.39c0.33-0.33,0.66-0.59,0.89-1c0.2-0.35,0.32-1.13,0.04-1.47
					c-0.02-0.02-0.04-0.02-0.07-0.02c-0.02,0-0.05,0.01-0.07,0.01C14.62,39.31,14.61,39.33,14.62,39.35L14.62,39.35z"/>
			</g>
		</g>
	</g>
	<g>
		<path class="st3" d="M14.29,43.89c-0.35-0.04-0.58,0.32-0.79,0.6c-0.58,0.75-0.93,1.2-1.79,2.06c-0.21,0.21-0.43,0.42-0.59,0.67
			c-0.05,0.08-0.1,0.17-0.1,0.27c0,0.13,0.1,0.24,0.19,0.33c0.53,0.53,1.14,0.97,1.62,1.55c0.49,0.58,1.25,1.8,1.33,2.07
			c0.44,1.49,0.57,2.16-0.33,4.65c-0.09,0.25,0.08,0.51,0.34,0.52c0.83,0.04,1.7,0.1,2.52,0.13c0.11,0,0.22-0.03,0.3-0.11
			c0.23-0.25,0.38-0.68,0.53-0.94c0.16-0.28,0.64-0.76,0.91-1.45c0.73-1.89,0.39-3.56-0.44-5.41c-0.56-1.25-1.18-2.19-2.45-3.49
			C15.37,45.13,14.34,43.99,14.29,43.89z"/>
	</g>
	<g>
		<g>
			<path class="st5" d="M14.51,55.73c-0.18,0-0.32,0.14-0.32,0.32c0,0.17,0.15,0.32,0.32,0.32c0.18,0,0.32-0.14,0.32-0.32
				C14.83,55.87,14.68,55.73,14.51,55.73L14.51,55.73z"/>
		</g>
	</g>
	<g>
		<g>
			<path class="st5" d="M14.95,54.63c-0.17,0-0.32,0.14-0.32,0.31c0,0.17,0.14,0.31,0.32,0.31c0.17,0,0.32-0.14,0.32-0.31
				C15.26,54.78,15.12,54.63,14.95,54.63L14.95,54.63z"/>
		</g>
	</g>
	<g>
		<g>
			<path class="st5" d="M15.17,53.47c-0.39,0-0.39,0.6,0,0.6C15.56,54.07,15.56,53.47,15.17,53.47L15.17,53.47z"/>
		</g>
	</g>
	<g>
		<g>
			<path class="st5" d="M15.18,52.2c-0.43,0-0.43,0.66,0,0.66C15.61,52.86,15.61,52.2,15.18,52.2L15.18,52.2z"/>
		</g>
	</g>
	<g>
		<g>
			<path class="st5" d="M14.96,51.05c-0.17,0-0.32,0.14-0.32,0.31s0.14,0.31,0.32,0.31c0.17,0,0.32-0.14,0.32-0.31
				S15.13,51.05,14.96,51.05L14.96,51.05z"/>
		</g>
	</g>
	<g>
		<g>
			<path class="st5" d="M14.54,50.02c-0.16,0-0.28,0.13-0.28,0.28c0,0.15,0.13,0.28,0.28,0.28c0.15,0,0.28-0.13,0.28-0.28
				C14.83,50.15,14.7,50.02,14.54,50.02L14.54,50.02z"/>
		</g>
	</g>
	<g>
		<g>
			<path class="st5" d="M14,49.1c-0.41,0-0.41,0.62,0,0.62C14.41,49.72,14.41,49.1,14,49.1L14,49.1z"/>
		</g>
	</g>
	<g>
		<g>
			<path class="st5" d="M13.37,48.26c-0.18,0-0.34,0.15-0.34,0.33c0,0.18,0.15,0.33,0.34,0.33c0.18,0,0.34-0.15,0.34-0.33
				C13.71,48.41,13.56,48.26,13.37,48.26L13.37,48.26z"/>
		</g>
	</g>
	<g>
		<g>
			<path class="st5" d="M12.63,47.56c-0.19,0-0.34,0.15-0.34,0.34c0,0.18,0.16,0.34,0.34,0.34c0.19,0,0.34-0.15,0.34-0.34
				C12.97,47.71,12.82,47.56,12.63,47.56L12.63,47.56z"/>
		</g>
	</g>
	<g>
		<g>
			<path class="st5" d="M11.62,47.12C11.62,47.12,11.61,47.13,11.62,47.12c-0.12,0.09-0.12,0.31-0.01,0.39c0,0,0,0,0.01,0.01
				c0.08,0.06,0.17,0.1,0.28,0.07c0.12-0.03,0.21-0.15,0.21-0.27c0-0.1-0.05-0.19-0.14-0.24C11.84,47.01,11.72,47.04,11.62,47.12
				L11.62,47.12z"/>
		</g>
	</g>
	<g>
		<defs>
			<path id="SVGID_00000090973544852153967660000012971487474980055207_" d="M14.29,43.89c-0.35-0.04-0.58,0.32-0.79,0.6
				c-0.58,0.75-0.93,1.2-1.79,2.06c-0.21,0.21-0.43,0.42-0.59,0.67c-0.05,0.08-0.1,0.17-0.1,0.27c0,0.13,0.1,0.24,0.19,0.33
				c0.53,0.53,1.14,0.97,1.62,1.55c0.49,0.58,1.25,1.8,1.33,2.07c0.44,1.49,0.57,2.16-0.33,4.65c-0.09,0.25,0.08,0.51,0.34,0.52
				c0.83,0.04,1.7,0.1,2.52,0.13c0.11,0,0.22-0.03,0.3-0.11c0.23-0.25,0.38-0.68,0.53-0.94c0.16-0.28,0.64-0.76,0.91-1.45
				c0.73-1.89,0.39-3.56-0.44-5.41c-0.56-1.25-1.18-2.19-2.45-3.49C15.37,45.13,14.34,43.99,14.29,43.89z"/>
		</defs>
		<clipPath id="SVGID_00000072258455482549185210000017015131278627523208_">
			<use xlink:href="#SVGID_00000090973544852153967660000012971487474980055207_"  style="overflow:visible;"/>
		</clipPath>
		<g style="clip-path:url(#SVGID_00000072258455482549185210000017015131278627523208_);">
			<g>
				<path class="st5" d="M18.4,55.78c1.24-2.29,0.67-4.84-0.22-7.15c-0.42-1.09-0.98-1.97-1.87-2.75c-0.84-0.73-1.41-1.95-2.42-2.46
					c-0.25-0.13-0.51-0.09-0.72,0.09c-0.03,0.03-0.06,0.05-0.09,0.08c-0.19,0.16-0.2,0.52,0,0.68c0.74,0.6,1.3,1.31,1.93,2.02
					c0.34,0.38,1.52,1.94,1.71,2.42c0.63,1.54,1.04,2.77,1.06,3.9c0.02,1.49-0.13,2.16,0.02,3.31
					C17.83,56.11,18.31,55.93,18.4,55.78L18.4,55.78z"/>
			</g>
		</g>
	</g>
	<g>
		<path class="st7" d="M26.48,53.86c0.12,0.17,0.23,0.53,0.71,1.61c0.25,0.56,0.41,1.18,0.37,1.79c-0.03,0.56-0.17,0.69-0.34,0.89
			c-0.16,0.18-0.44,0.21-0.67,0.14c-0.23-0.06-0.45-0.19-0.68-0.27c-0.49-0.17-1.06-0.07-1.47,0.25c-0.45,0.35-0.7,0.95-1.22,1.2
			c-0.62,0.3-1.41-0.05-1.8-0.61c-0.11-0.15-0.19-0.33-0.34-0.44c-0.27-0.19-0.76-0.23-1.06-0.09c-0.3,0.14-0.53,0.33-0.86,0.38
			c-0.36,0.06-0.81,0.07-1.13-0.12c-1.48-0.84-1.17-1.88-1.08-2.27c0.09-0.41,0.6-1.04,1.27-2.21c0.4-0.7,0.53-1.09,0.72-1.05
			c1.79,0.48,2.96,0.63,5.21,0.73C24.64,53.84,26.36,53.69,26.48,53.86z"/>
	</g>
	<g>
		<path class="st5" d="M22.83,58.15c-0.59,0.23-1-0.22-1.1-0.69c-0.07-0.33,0-0.68,0.07-1.02c0.08-0.37,0.17-0.74,0.27-1.11
			c0.05-0.19,0.11-0.39,0.23-0.55c0,0,0,0,0,0c0.19-0.24,0.57-0.18,0.7,0.09c0.25,0.52,0.41,1.09,0.48,1.66
			c0.06,0.47,0.04,0.98-0.28,1.37C23.09,58.01,22.97,58.1,22.83,58.15z"/>
	</g>
	<g>
		<path class="st5" d="M18.33,57.19c-0.24-0.11-0.33-0.42-0.26-0.68c0.08-0.25,0.27-0.45,0.47-0.63c0.28-0.26,1.15-1.26,1.48-1.45
			c0,0,0,0,0,0c0.18-0.1,0.38,0.08,0.31,0.27c-0.28,0.68-0.86,1.7-1.18,2.12c-0.1,0.13-0.21,0.25-0.35,0.33
			C18.65,57.23,18.48,57.26,18.33,57.19z"/>
	</g>
	<g>
		<path class="st5" d="M26.33,57.35c-0.13,0.06-0.29,0.09-0.42,0.04c-0.14-0.05-0.35-0.12-0.43-0.7c-0.06-0.44-0.21-2.07,0.03-2.11
			c0.34-0.06,1,1.8,1.05,2.4c0.01,0.07,0,0.15-0.03,0.22C26.48,57.28,26.41,57.32,26.33,57.35z"/>
	</g>
	<g>
		<g>
			<path class="st7" d="M24.2,38.58c-0.28,0-0.28,0.43,0,0.43C24.48,39.01,24.48,38.58,24.2,38.58L24.2,38.58z"/>
		</g>
	</g>
	<g>
		<g>
			<path class="st7" d="M22.01,37.39c-0.32,0-0.32,0.49,0,0.49C22.33,37.88,22.33,37.39,22.01,37.39L22.01,37.39z"/>
		</g>
	</g>
	<g>
		<g>
			<path class="st7" d="M19.45,38.52c-0.31,0-0.31,0.48,0,0.48C19.77,39,19.77,38.52,19.45,38.52L19.45,38.52z"/>
		</g>
	</g>
	<g>
		<g>
			<path class="st7" d="M22.92,39.55c-0.24,0-0.24,0.36,0,0.36C23.16,39.91,23.16,39.55,22.92,39.55L22.92,39.55z"/>
		</g>
	</g>
	<g>
		<g>
			<path class="st7" d="M22.35,39.52c-0.27,0-0.27,0.41,0,0.41C22.61,39.93,22.61,39.52,22.35,39.52L22.35,39.52z"/>
		</g>
	</g>
	<g>
		<g>
			<path class="st7" d="M21.14,39.61c-0.28,0-0.28,0.43,0,0.43C21.42,40.04,21.42,39.61,21.14,39.61L21.14,39.61z"/>
		</g>
	</g>
	<g>
		<g>
			<path class="st7" d="M20.5,39.77c-0.29,0-0.29,0.44,0,0.44C20.78,40.21,20.78,39.77,20.5,39.77L20.5,39.77z"/>
		</g>
	</g>
	<g>
		<g>
			<path class="st5" d="M20.89,35.63c0.72,0.06,1.51-0.41,1.32-1.21c-0.2-0.85-1.36-0.88-2-0.58c-0.35,0.16-0.65,0.55-0.62,0.94
				c0.04,0.52,0.52,0.83,1.01,0.89c0.37,0.05,0.82-0.11,1.07-0.38c0.16-0.19,0.24-0.42,0.17-0.66c-0.08-0.28-0.35-0.43-0.61-0.52
				c-0.26-0.09-0.56,0.1-0.63,0.35c-0.08,0.28,0.09,0.53,0.36,0.62c0.11,0.04,0.01-0.01-0.02-0.03c-0.09-0.07-0.1-0.22-0.08-0.32
				c0.01-0.02,0.11-0.16,0.04-0.1c0.09-0.09-0.02,0.01-0.06,0.03c0.1-0.05-0.02,0-0.04,0.01c-0.03,0.01-0.06,0.01-0.09,0.02
				c0.06-0.01,0.06-0.01,0,0c-0.03,0-0.15-0.02-0.03,0c-0.03-0.01-0.06-0.02-0.1-0.03c0.04,0.02,0.03,0.01-0.02-0.02
				c-0.12-0.06,0.05,0.06-0.03-0.03c0.02,0.02,0.08,0.16,0.05,0.07c0,0.02,0.01,0.05,0.01,0.07c0-0.05,0-0.04-0.01,0.04
				c0.02-0.05,0.01-0.04-0.01,0.03c0.03-0.05,0.02-0.04-0.02,0.01c0.02-0.03,0.05-0.06,0.08-0.08c-0.09,0.08,0.05-0.02,0.07-0.04
				c-0.1,0.05,0.03-0.01,0.05-0.02c0.03-0.01,0.06-0.02,0.09-0.02c-0.05,0-0.04,0,0.02,0c0.05,0,0.1,0,0.15,0
				c0.02,0,0.17,0.02,0.04,0c0.04,0.01,0.08,0.02,0.11,0.03c0.09,0.02-0.09-0.05,0.04,0.02c0.03,0.02,0.11,0.08,0-0.01
				c0.1,0.09-0.03-0.06,0.01,0c0.02,0.03,0.05,0.12-0.01-0.03c0.04,0.12,0-0.09,0-0.01c0,0.1,0.03-0.13,0.01-0.04
				c-0.01,0.04-0.05,0.11,0.02-0.03c-0.02,0.03-0.08,0.1,0.02-0.02c-0.08,0.1,0.06-0.03-0.01,0.02c-0.03,0.02-0.12,0.06,0,0.01
				c-0.05,0.02-0.09,0.03-0.14,0.04c0.13-0.03-0.01,0-0.03,0c-0.06,0-0.13,0-0.19-0.01c-0.28-0.02-0.51,0.25-0.51,0.5
				C20.38,35.42,20.61,35.6,20.89,35.63L20.89,35.63z"/>
		</g>
	</g>
	<g>
		<g>
			<path class="st7" d="M20.89,34.27c-0.2-0.02-0.34,0.09-0.45,0.24c-0.08,0.11-0.08,0.32,0,0.43c0.11,0.15,0.25,0.26,0.45,0.24
				c0.25-0.02,0.46-0.19,0.46-0.46C21.35,34.46,21.14,34.29,20.89,34.27L20.89,34.27z"/>
		</g>
	</g>
	<g>
		<g>
			<path class="st5" d="M22.93,35.11c0.18,0.08,0.31,0.08,0.49,0c0.29-0.13,0.31-0.55,0.1-0.76c-0.19-0.19-0.5-0.19-0.69,0
				C22.62,34.56,22.63,34.98,22.93,35.11L22.93,35.11z"/>
		</g>
	</g>
	<g>
		<g>
			<path class="st5" d="M24.88,34.89c0,0-0.01,0-0.01-0.01c-0.18-0.11-0.43-0.01-0.49,0.2c-0.07,0.24,0.17,0.47,0.41,0.4
				c0,0,0.01,0,0.01,0C25.08,35.4,25.12,35.04,24.88,34.89L24.88,34.89z"/>
		</g>
	</g>
	<g>
		<g>
			<path class="st5" d="M26.13,35.33c-0.39,0-0.39,0.59,0,0.59C26.51,35.92,26.51,35.33,26.13,35.33L26.13,35.33z"/>
		</g>
	</g>
	<g>
		<g>
			<path class="st5" d="M27.5,35.77c-0.34,0-0.34,0.52,0,0.52C27.84,36.29,27.84,35.77,27.5,35.77L27.5,35.77z"/>
		</g>
	</g>
	<g>
		<g>
			<path class="st5" d="M28.62,36.13c-0.26,0-0.26,0.4,0,0.4C28.88,36.53,28.88,36.13,28.62,36.13L28.62,36.13z"/>
		</g>
	</g>
	<g>
		<g>
			<path class="st5" d="M18.7,34.85c-0.07,0.05-0.17,0.12-0.2,0.21c-0.1,0.23-0.02,0.47,0.23,0.55c0.12,0.04,0.29,0.02,0.39-0.05
				c0.19-0.12,0.27-0.36,0.15-0.56C19.15,34.81,18.89,34.73,18.7,34.85L18.7,34.85z"/>
		</g>
	</g>
	<g>
		<g>
			<path class="st5" d="M17.48,35.37c-0.01,0-0.02,0-0.03,0c-0.2-0.01-0.37,0.17-0.37,0.36c0,0.19,0.17,0.37,0.37,0.36
				c0.01,0,0.02,0,0.03,0c0.2-0.01,0.37-0.16,0.37-0.36C17.85,35.53,17.68,35.37,17.48,35.37L17.48,35.37z"/>
		</g>
	</g>
	<g>
		<g>
			<path class="st5" d="M15.95,35.87c-0.01,0-0.01,0.01-0.02,0.01c-0.19,0.14-0.19,0.36,0,0.5c0.01,0,0.01,0.01,0.02,0.01
				c0.19,0.14,0.47-0.05,0.47-0.26C16.42,35.92,16.14,35.72,15.95,35.87L15.95,35.87z"/>
		</g>
	</g>
	<g>
		<g>
			<path class="st5" d="M14.6,36.32c-0.01,0-0.02,0.01-0.03,0.01c-0.3,0.08-0.3,0.52,0,0.6c0.01,0,0.02,0.01,0.03,0.01
				c0.2,0.05,0.41-0.1,0.41-0.31C15.01,36.42,14.8,36.27,14.6,36.32L14.6,36.32z"/>
		</g>
	</g>
	<g>
		<g>
			<path class="st5" d="M13.51,36.73c-0.32,0-0.32,0.49,0,0.49C13.83,37.23,13.83,36.73,13.51,36.73L13.51,36.73z"/>
		</g>
	</g>
	<g>
		<g>
			<path class="st5" d="M12.39,37.17c-0.32,0-0.32,0.49,0,0.49C12.71,37.66,12.71,37.17,12.39,37.17L12.39,37.17z"/>
		</g>
	</g>
	<g>
		<g>
			<path class="st5" d="M11.12,37.41c-0.32,0-0.32,0.49,0,0.49C11.44,37.9,11.44,37.41,11.12,37.41L11.12,37.41z"/>
		</g>
	</g>
	<g>
		<g>
			<path class="st2" d="M30.04,32.17c0.01-0.02,0.01-0.04,0.02-0.06c-0.26-0.1-0.41-0.39-0.44-0.67c-0.03-0.27,0.04-0.55,0.11-0.81
				c0.35-1.24,0.82-2.45,1.42-3.6c0.27-0.07,0.54,0,0.81,0.06c1.01,0.25,2.02,0.5,3.03,0.75c0.14,0.03,0.29,0.07,0.39,0.18
				c0.16,0.16,0.15,0.41,0.12,0.63c-0.14,1.13-0.4,2.24-0.77,3.31c-0.16,0.47-0.4,0.98-0.88,1.12c-0.26,0.08-0.54,0.03-0.81-0.02
				C31.95,32.87,31.01,32.71,30.04,32.17z"/>
		</g>
		<g>
			<path class="st7" d="M31.36,37.02c0.69,0.12,1.51,0.27,2.16,0.02c0.65-0.25,1.19-0.75,1.52-1.36c0.21-0.39,0.33-0.88,0.11-1.26
				c-0.18-0.3-0.53-0.46-0.81-0.67c-0.28-0.21,0.04-0.95,0.21-1.26c-1.03-0.41-2.2-0.72-3.26-1.03c-1.16-0.34-1.69-0.81-1.78-0.41
				c-0.13,0.61-0.25,1.05-0.42,1.3c-0.27,0.4-0.62,0.51-1.01,0.82c-0.44,0.36-0.51,1.03-0.29,1.55c0.22,0.52,0.67,0.9,1.15,1.22
				C29.51,36.32,30.38,36.85,31.36,37.02z"/>
		</g>
		<g>
			<g>
				<path class="st6" d="M32.3,36.72c0.69,0.35,1.52-0.51,1.87-1.02c0.34-0.5,0.38-1.7-0.27-1.95c-0.4-0.15-0.79,0.24-0.72,0.62
					c0.04,0.21,0.2,0.61,0.07,0.86c-0.26,0.51-0.65,0.82-1,1.25C32.2,36.55,32.22,36.68,32.3,36.72L32.3,36.72z"/>
			</g>
		</g>
		<g>
			<g>
				<path class="st6" d="M31.18,36.55c0.46-0.03,0.77-0.46,1.03-0.8c0.4-0.5,0.64-1.12,0.75-1.74c0.11-0.6-0.94-0.8-1.08-0.21
					c-0.11,0.48-0.23,0.94-0.4,1.41c-0.14,0.38-0.46,0.73-0.51,1.13C30.97,36.43,31.08,36.55,31.18,36.55L31.18,36.55z"/>
			</g>
		</g>
		<g>
			<g>
				<path class="st6" d="M30.45,36.12c0.36-0.83,0.69-1.69,1.04-2.53c0.25-0.6-0.74-0.93-0.97-0.32c-0.21,0.56-0.39,1.11-0.51,1.7
					c-0.08,0.38-0.15,0.9,0.15,1.21C30.26,36.27,30.4,36.24,30.45,36.12L30.45,36.12z"/>
			</g>
		</g>
		<g>
			<g>
				<path class="st6" d="M29.42,35.58c0-0.45-0.17-0.84-0.01-1.29c0.12-0.35,0.4-0.64,0.66-0.9c0.12-0.13,0.24-0.32,0.17-0.51
					c-0.07-0.2-0.14-0.33-0.35-0.39c-0.17-0.05-0.4-0.04-0.52,0.1c-0.39,0.42-0.81,0.93-0.86,1.53c-0.04,0.61,0.18,1.28,0.77,1.55
					C29.34,35.71,29.42,35.65,29.42,35.58L29.42,35.58z"/>
			</g>
		</g>
		<g>
			<g>
				<path class="st6" d="M33.97,33.07c0.08-0.04,0.13-0.15,0.16-0.22c0.05-0.11,0.07-0.21,0.03-0.33c-0.04-0.1-0.18-0.09-0.23-0.02
					c-0.08,0.12-0.15,0.45-0.01,0.56C33.93,33.08,33.95,33.08,33.97,33.07L33.97,33.07z"/>
			</g>
		</g>
		<g>
			<g>
				<path class="st6" d="M33.41,32.88c0.08,0.02,0.18-0.05,0.22-0.11c0.07-0.11,0.12-0.26,0.06-0.38c-0.05-0.11-0.19-0.09-0.26-0.02
					c-0.06,0.07-0.08,0.22-0.09,0.31C33.35,32.72,33.35,32.86,33.41,32.88L33.41,32.88z"/>
			</g>
		</g>
		<g>
			<g>
				<path class="st6" d="M32.99,32.72c0.1-0.01,0.16-0.06,0.2-0.15c0.04-0.07,0.07-0.19,0.06-0.28c-0.01-0.14-0.19-0.23-0.28-0.09
					c-0.04,0.07-0.05,0.15-0.06,0.23c-0.01,0.07-0.03,0.14-0.01,0.21C32.91,32.69,32.94,32.73,32.99,32.72L32.99,32.72z"/>
			</g>
		</g>
		<g>
			<g>
				<path class="st6" d="M32.54,32.56c0.19,0.01,0.24-0.3,0.26-0.43c0.03-0.18-0.27-0.2-0.29-0.02
					C32.49,32.2,32.36,32.56,32.54,32.56L32.54,32.56z"/>
			</g>
		</g>
		<g>
			<g>
				<path class="st6" d="M32.16,32.36c0.11-0.09,0.22-0.36,0.09-0.47c-0.06-0.06-0.14-0.07-0.21-0.01
					c-0.08,0.06-0.07,0.15-0.09,0.24c-0.01,0.09,0,0.17,0.05,0.24C32.04,32.4,32.12,32.4,32.16,32.36L32.16,32.36z"/>
			</g>
		</g>
		<g>
			<g>
				<path class="st6" d="M31.57,32.24c0.18,0,0.25-0.25,0.23-0.39c-0.01-0.15-0.23-0.14-0.28-0.02
					C31.5,31.9,31.41,32.24,31.57,32.24L31.57,32.24z"/>
			</g>
		</g>
		<g>
			<g>
				<path class="st6" d="M31.2,32.07c0.11-0.07,0.15-0.2,0.15-0.32c0.01-0.2-0.27-0.2-0.31-0.02c-0.02,0.11-0.02,0.25,0.08,0.33
					C31.15,32.08,31.18,32.09,31.2,32.07L31.2,32.07z"/>
			</g>
		</g>
		<g>
			<g>
				<path class="st6" d="M30.74,31.89c0.1-0.09,0.15-0.28,0.1-0.4c-0.03-0.05-0.09-0.07-0.14-0.05c-0.14,0.06-0.19,0.28-0.12,0.41
					C30.61,31.92,30.69,31.94,30.74,31.89L30.74,31.89z"/>
			</g>
		</g>
		<g>
			<g>
				<path class="st6" d="M30.34,31.75c0.11-0.12,0.13-0.31,0.04-0.45c-0.04-0.06-0.15-0.06-0.21-0.01c-0.12,0.1-0.12,0.34-0.01,0.45
					C30.21,31.78,30.29,31.8,30.34,31.75L30.34,31.75z"/>
			</g>
		</g>
		<g>
			<g>
				<path class="st6" d="M29.78,31.57c0.13,0.02,0.2-0.19,0.21-0.28c0.02-0.12-0.17-0.18-0.23-0.08
					C29.73,31.28,29.64,31.55,29.78,31.57L29.78,31.57z"/>
			</g>
		</g>
	</g>
	<g>
		<g>
			<path class="st6" d="M20.5,32.07c-0.1-0.03-0.18-0.02-0.26,0.03c-0.16,0.09-0.16,0.34,0,0.43c0.09,0.05,0.17,0.06,0.26,0.03
				C20.74,32.48,20.74,32.16,20.5,32.07L20.5,32.07z"/>
		</g>
	</g>
	<g>
		<g>
			<path class="st6" d="M17.7,30.18c-0.01,0.01-0.01,0.01-0.02,0.02c-0.12,0.14-0.12,0.29,0,0.44c0,0.01,0.01,0.01,0.02,0.02
				c0.07,0.09,0.23,0.12,0.33,0.09c0.15-0.04,0.25-0.17,0.25-0.32c0-0.12-0.06-0.23-0.17-0.29C17.99,30.05,17.79,30.06,17.7,30.18
				L17.7,30.18z"/>
		</g>
	</g>
	<g>
		<g>
			<path class="st6" d="M16,32.72c-0.05,0-0.1,0.01-0.15,0.02c-0.28,0.1-0.28,0.46,0,0.56c0.05,0.02,0.09,0.02,0.15,0.02
				C16.4,33.33,16.4,32.71,16,32.72L16,32.72z"/>
		</g>
	</g>
	<g>
		<g>
			<path class="st6" d="M13.14,30.54c-0.18,0-0.33,0.15-0.33,0.33c0,0.18,0.15,0.33,0.33,0.33c0.18,0,0.33-0.15,0.33-0.33
				C13.47,30.69,13.32,30.54,13.14,30.54L13.14,30.54z"/>
		</g>
	</g>
	<g>
		<g>
			<path class="st6" d="M12.21,34.09c-0.08-0.11-0.18-0.18-0.33-0.17c-0.28,0.02-0.35,0.33-0.14,0.49c0.07,0.05,0.15,0.08,0.23,0.07
				c0.1-0.01,0.18-0.04,0.23-0.13C12.26,34.28,12.27,34.17,12.21,34.09L12.21,34.09z"/>
		</g>
	</g>
	<g>
		<g>
			<path class="st6" d="M9.6,31.34c-0.27,0-0.27,0.41,0,0.41C9.87,31.76,9.87,31.34,9.6,31.34L9.6,31.34z"/>
		</g>
	</g>
	<g>
		<g>
			<path class="st6" d="M15.58,27.73c-0.36,0-0.36,0.55,0,0.55C15.94,28.28,15.94,27.73,15.58,27.73L15.58,27.73z"/>
		</g>
	</g>
	<g>
		<g>
			<path class="st6" d="M14.7,26.14c-0.36,0-0.36,0.55,0,0.55C15.06,26.69,15.06,26.14,14.7,26.14L14.7,26.14z"/>
		</g>
	</g>
	<g>
		<g>
			<path class="st6" d="M13.42,27.91c-0.36,0-0.36,0.55,0,0.55C13.78,28.46,13.78,27.91,13.42,27.91L13.42,27.91z"/>
		</g>
	</g>
	<g>
		<g>
			<path class="st5" d="M26.13,46.95c-0.16,0-0.16,0.24,0,0.24C26.29,47.2,26.29,46.95,26.13,46.95L26.13,46.95z"/>
		</g>
	</g>
	<path class="st14" d="M5.5,35.12c-0.39-1.38-0.52-3.19-0.01-3.49c1.77-1.04,3.73-1.41,5.71-1.96c2.95-0.83,5.28-1.28,8.25-2.01
		c1.61-0.4,3.05-0.98,4.32-1.41c3.01-1.01,5.42-2.46,7.59-3.65c0.92-0.51,4.14,2.74,4.25,5.2c0,0.11,0.01,0.22-0.04,0.32
		c-0.08,0.15-0.25,0.23-0.41,0.3c-4.5,1.92-8.25,2.86-13,4.03c-1.24,0.31-3.57,1.06-4.8,1.41c-2.7,0.76-5.25,1.61-7.7,2.96
		c-0.32,0.18-0.65,0.36-1.02,0.4c-0.45,0.05-0.89-0.14-1.3-0.33C6.55,36.52,5.74,35.97,5.5,35.12z"/>
	<path class="st7" d="M21.17,28.72c0.32-0.26,0.76-0.52,1.14-0.34c0.28,0.13,0.63,0.6,0.6,0.9c-0.04,0.31-0.2,0.59-0.37,0.84
		c-0.4,0.6-1.08,1.05-1.59,1.57c-0.06,0.06-0.13,0.12-0.21,0.13c-0.07,0.01-0.14-0.02-0.2-0.06c-0.57-0.29-1.07-0.72-1.43-1.25
		c-0.23-0.34-0.42-0.73-0.42-1.14c0-0.41,0.2-0.84,0.57-1.02c0.31-0.15,0.69-0.11,0.97,0.07c0.28,0.18,0.47,0.5,0.53,0.83
		C20.79,29.05,20.98,28.87,21.17,28.72z"/>
	<g>
		<path class="st5" d="M20.7,30.41c0.29,0,0.29-0.45,0-0.45C20.41,29.96,20.41,30.41,20.7,30.41L20.7,30.41z"/>
	</g>
	<g>
		<path class="st5" d="M17.62,29.56c-0.82-0.27-2.1-0.89-2.79-0.04c-0.12,0.15-0.05,0.38,0.16,0.38c0.41,0.01,0.8-0.15,1.21-0.15
			c0.47-0.01,0.93,0.01,1.39,0.05C17.73,29.82,17.75,29.61,17.62,29.56L17.62,29.56z"/>
	</g>
	<g>
		<path class="st5" d="M17.34,30.65c-0.84,0.19-1.67,0.35-2.49,0.6c-0.54,0.17-1.27,0.35-1.48,0.91c-0.04,0.1,0.06,0.19,0.15,0.2
			c0.56,0.05,1.22-0.28,1.75-0.45c0.75-0.24,1.44-0.6,2.2-0.82C17.76,31.01,17.64,30.59,17.34,30.65L17.34,30.65z"/>
	</g>
	<g>
		<path class="st5" d="M24.55,28.89c0.83-0.2,1.66-0.38,2.48-0.65c0.53-0.17,1.27-0.37,1.47-0.94c0.04-0.1-0.06-0.19-0.15-0.2
			c-0.55-0.05-1.21,0.3-1.73,0.48c-0.74,0.26-1.43,0.62-2.19,0.85C24.14,28.53,24.26,28.96,24.55,28.89L24.55,28.89z"/>
	</g>
	<g>
		<path class="st5" d="M18.03,31.85c-0.36,0.35-0.85,0.59-1.32,0.76c-0.41,0.16-0.93,0.29-1.11,0.73c-0.05,0.13,0.06,0.24,0.16,0.28
			c0.47,0.19,1.09-0.17,1.5-0.38c0.51-0.27,0.85-0.63,1.09-1.14C18.45,31.9,18.2,31.68,18.03,31.85L18.03,31.85z"/>
	</g>
	<g>
		<path class="st5" d="M23.8,27.87c0.36-0.21,0.72-0.43,1.09-0.64c0.38-0.21,0.77-0.33,1.03-0.69c0.05-0.07,0-0.19-0.09-0.21
			c-0.47-0.08-0.87,0.12-1.28,0.34c-0.45,0.25-0.8,0.56-0.93,1.07C23.61,27.83,23.71,27.92,23.8,27.87L23.8,27.87z"/>
	</g>
	<g>
		<path class="st5" d="M24.52,29.88c0.23,0.42,0.98,0.4,1.4,0.42c0.51,0.02,1.42-0.11,1.74-0.52c0.06-0.07,0.06-0.18-0.03-0.23
			c-0.5-0.26-1.17,0.12-1.71,0.16c-0.44,0.03-1.09-0.27-1.4,0.13C24.51,29.86,24.52,29.87,24.52,29.88L24.52,29.88z"/>
	</g>
	<g>
		<path class="st6" d="M12.71,32.75c0.51,0,0.51-0.79,0-0.79C12.2,31.96,12.2,32.75,12.71,32.75L12.71,32.75z"/>
	</g>
	<g>
		<path class="st6" d="M11.43,33.1c0.5,0,0.5-0.77,0-0.77C10.93,32.33,10.93,33.1,11.43,33.1L11.43,33.1z"/>
	</g>
	<g>
		<path class="st6" d="M10.26,33.46c0.4,0,0.4-0.61,0-0.61S9.86,33.46,10.26,33.46L10.26,33.46z"/>
	</g>
	<g>
		<path class="st6" d="M9.23,33.8c0.37,0,0.37-0.57,0-0.57C8.86,33.23,8.86,33.8,9.23,33.8L9.23,33.8z"/>
	</g>
	<g>
		<path class="st6" d="M8.28,34.14c0.35,0,0.35-0.53,0-0.53C7.93,33.61,7.93,34.14,8.28,34.14L8.28,34.14z"/>
	</g>
	<g>
		<path class="st6" d="M29.56,27.19c0-0.02,0-0.03,0-0.05c-0.04-0.45-0.67-0.45-0.71,0c0,0.02,0,0.03,0,0.05
			C28.81,27.64,29.6,27.64,29.56,27.19L29.56,27.19z"/>
	</g>
	<g>
		<path class="st6" d="M30.27,27.07c0.45,0,0.45-0.69,0-0.69C29.82,26.38,29.82,27.07,30.27,27.07L30.27,27.07z"/>
	</g>
	<g>
		<path class="st6" d="M31.45,26.47c0.01-0.01,0.01-0.02,0.02-0.03c0.11-0.16-0.04-0.37-0.21-0.37c-0.18,0-0.32,0.21-0.21,0.37
			c0.01,0.01,0.01,0.02,0.02,0.03C31.16,26.62,31.35,26.62,31.45,26.47L31.45,26.47z"/>
	</g>
	<g>
		<path class="st6" d="M32.21,26.33c0.35,0,0.35-0.53,0-0.53C31.86,25.81,31.86,26.33,32.21,26.33L32.21,26.33z"/>
	</g>
	<g>
		<path class="st6" d="M33.2,25.92c0.27,0,0.27-0.42,0-0.42C32.92,25.5,32.92,25.92,33.2,25.92L33.2,25.92z"/>
	</g>
	<g>
		<g>
			<path class="st8" d="M5.62,12.24c0.16-0.15,0.34-0.26,0.52-0.39c0.19-0.14,0.4-0.27,0.56-0.45c0.13-0.15,0.19-0.3,0.25-0.48
				c0.06-0.18,0.07-0.58-0.03-0.75c-0.3-0.48-1.14-0.89-1.7,0.16c-0.01,0.02-0.02,0.02-0.04,0.02l0,0c-0.02,0-0.03-0.01-0.04-0.02
				c-0.55-1.05-1.4-0.63-1.7-0.16c-0.11,0.17-0.1,0.56-0.03,0.75c0.06,0.18,0.12,0.33,0.25,0.48c0.16,0.18,0.36,0.31,0.56,0.45
				c0.18,0.13,0.36,0.24,0.52,0.39c0.08,0.07,0.45,0.46,0.45,0.46S5.54,12.32,5.62,12.24z"/>
		</g>
	</g>
	<g>
		<g>
			<path class="st8" d="M34.42,47.83c-0.16,0.14-0.34,0.26-0.52,0.39c-0.19,0.14-0.4,0.27-0.55,0.45c-0.13,0.15-0.19,0.3-0.25,0.48
				c-0.06,0.18-0.07,0.58,0.03,0.75c0.3,0.48,1.14,0.9,1.7-0.16c0.01-0.01,0.02-0.02,0.04-0.02l0,0c0.02,0,0.03,0.01,0.04,0.02
				c0.56,1.05,1.4,0.63,1.7,0.16c0.1-0.17,0.1-0.56,0.03-0.75c-0.06-0.18-0.12-0.33-0.25-0.48c-0.16-0.18-0.36-0.31-0.55-0.45
				c-0.18-0.13-0.36-0.24-0.52-0.39c-0.08-0.07-0.45-0.46-0.45-0.46S34.5,47.75,34.42,47.83z"/>
		</g>
	</g>
	<g>
		<path class="st8" d="M4.84,7.64c-0.72,0-1.29-0.27-1.7-0.81C2.73,6.28,2.53,5.6,2.53,4.79c0-0.86,0.21-1.56,0.64-2.11
			c0.42-0.54,0.98-0.82,1.67-0.82c0.67,0,1.22,0.26,1.66,0.78c0.43,0.52,0.65,1.21,0.65,2.06c0,0.71-0.16,1.33-0.48,1.86
			C6.33,7.11,5.92,7.44,5.41,7.57l0,0.08c0,0.41,0.25,0.61,0.75,0.61c0.24,0,0.45-0.02,0.65-0.05v0.56
			C6.62,8.81,6.42,8.84,6.22,8.84c-0.43,0-0.76-0.09-0.99-0.27C5,8.39,4.87,8.08,4.84,7.64z M4.84,7.07c0.49,0,0.88-0.22,1.15-0.66
			C6.27,5.97,6.41,5.4,6.41,4.7c0-0.71-0.14-1.27-0.43-1.67c-0.29-0.4-0.67-0.6-1.14-0.6c-0.48,0-0.86,0.22-1.14,0.65
			C3.41,3.52,3.27,4.08,3.27,4.77c0,0.68,0.14,1.23,0.43,1.66C3.98,6.86,4.36,7.07,4.84,7.07z"/>
	</g>
	<g>
		<path class="st8" d="M35.16,52.36c0.72,0,1.29,0.27,1.7,0.81c0.41,0.54,0.61,1.22,0.61,2.03c0,0.86-0.21,1.56-0.64,2.11
			c-0.42,0.55-0.98,0.82-1.67,0.82c-0.67,0-1.22-0.26-1.66-0.78c-0.43-0.52-0.65-1.21-0.65-2.06c0-0.71,0.16-1.33,0.49-1.86
			c0.32-0.53,0.74-0.87,1.24-1l0-0.08c0-0.41-0.25-0.61-0.75-0.61c-0.24,0-0.45,0.02-0.65,0.05v-0.55c0.19-0.06,0.38-0.08,0.58-0.08
			c0.43,0,0.76,0.09,0.99,0.27C35,51.61,35.13,51.92,35.16,52.36z M35.16,52.93c-0.49,0-0.88,0.22-1.15,0.66
			c-0.28,0.44-0.42,1.01-0.42,1.7c0,0.71,0.14,1.27,0.43,1.67c0.29,0.4,0.67,0.6,1.14,0.6c0.48,0,0.86-0.21,1.14-0.65
			c0.28-0.43,0.42-0.99,0.42-1.69c0-0.68-0.14-1.23-0.43-1.66C36.02,53.14,35.64,52.93,35.16,52.93z"/>
	</g>
	<g>
		<g>
			<g>
				<path class="st8" d="M13.17,56.94H6.05c-1.62,0-2.93-1.38-2.93-3.07V15.08H3.3v38.78c0,1.6,1.23,2.89,2.75,2.89h7.11V56.94z"/>
			</g>
		</g>
		<g>
			<g>
				<rect x="28.29" y="56.76" class="st8" width="3.74" height="0.18"/>
			</g>
		</g>
		<g>
			<g>
				<path class="st8" d="M36.88,45.1H36.7V6.13c0-1.6-1.23-2.89-2.75-2.89h-5.66V3.06h5.66c1.62,0,2.93,1.38,2.93,3.07V45.1z"/>
			</g>
		</g>
		<g>
			<g>
				<rect x="8.26" y="3.06" class="st8" width="4.32" height="0.18"/>
			</g>
		</g>
	</g>
</g>
</svg>
