<?xml version="1.0" encoding="utf-8"?>
<!-- Generator: Adobe Illustrator 26.3.1, SVG Export Plug-In . SVG Version: 6.00 Build 0)  -->
<svg version="1.1" id="Layer_1" xmlns="http://www.w3.org/2000/svg" xmlns:xlink="http://www.w3.org/1999/xlink" x="0px" y="0px"
	 viewBox="0 0 40 60" style="enable-background:new 0 0 40 60;" xml:space="preserve">
<style type="text/css">
	.st0{fill:#FFFFFF;}
	.st1{fill:#2D2D2D;}
	.st2{fill:#222272;}
	.st3{fill:#FCC07E;}
	.st4{fill:#F70032;}
	.st5{fill:#990028;}
	.st6{fill:#141247;}
	.st7{fill:#0C0A35;}
	.st8{clip-path:url(#SVGID_00000003790706284217332610000008800044299737572748_);}
	.st9{clip-path:url(#SVGID_00000147943098448630722240000017342413228630865039_);}
	.st10{fill:#FFD6A1;}
	.st11{clip-path:url(#SVGID_00000097462057111731839460000011648886399463006082_);}
	.st12{clip-path:url(#SVGID_00000137120057036621705880000018349068290792765098_);}
	.st13{fill:#191956;}
</style>
<g>
	<g>
		<path class="st0" d="M36.22,59.76H3.14c-1.86,0-3.37-1.49-3.37-3.32V3.26c0-1.84,1.51-3.32,3.37-3.32h33.08
			c1.86,0,3.37,1.49,3.37,3.32v53.17C39.59,58.27,38.08,59.76,36.22,59.76z"/>
		<path class="st1" d="M36.22,59.85H3.14c-1.91,0-3.46-1.53-3.46-3.41V3.26c0-1.88,1.55-3.41,3.46-3.41h33.08
			c1.91,0,3.46,1.53,3.46,3.41v53.17C39.68,58.32,38.13,59.85,36.22,59.85z M3.14,0.03c-1.81,0-3.28,1.45-3.28,3.23v53.17
			c0,1.78,1.47,3.23,3.28,3.23h33.08c1.81,0,3.28-1.45,3.28-3.23V3.26c0-1.78-1.47-3.23-3.28-3.23H3.14z"/>
	</g>
	<g>
		<g>
			<path class="st2" d="M16.38,33.26c0.56-0.29,1.11-0.59,1.67-0.88c2.42-1.28,4.87-2.57,6.76-4.32c1.3-1.2,2.3-2.58,3.3-3.95
				c0.68-0.94,1.36-1.87,2.04-2.81c0.17-0.01,0.09,0.23,0.26,0.22c0.4,1.03,2,1.35,2.65,2.3c0.3,0.43,0.46,0.91,0.6,1.38
				c0.5,1.68,0.96,6.32,0.34,13.26c-0.37,4.18-2.74,4.91-3.74,4.36c-0.8-0.44-3.14-5.67-4.12-5.61c-2.67,0.17-5.38-0.34-7.76-1.31
				c-0.62-0.25-1.23-0.55-1.66-0.98C16.29,34.48,16.11,33.77,16.38,33.26z"/>
		</g>
		<g>
			<path class="st2" d="M6.66,24.42c-0.57,0.71-0.8,1.56-0.98,2.39c-0.48,2.3-0.26,4.64-0.02,6.97c0.74,7.22,1.54,8.82,2.64,8.96
				c2.92,0.37,4.46-5.52,7.4-5.48c2.77,0.04,5.62,0.32,8.24-0.38c0.12-0.38-0.27-0.73-0.63-0.99c-0.92-0.69-1.84-1.37-2.87-1.94
				c-2.62-1.47-5.75-2.1-8.52-4.26C8.98,27.38,7.76,24.77,6.66,24.42z"/>
		</g>
		<g>
			<path class="st2" d="M23.27,26.47c-0.56,0.29-1.11,0.59-1.67,0.88c-2.42,1.28-4.87,2.57-6.76,4.32c-1.3,1.2-2.3,2.58-3.3,3.95
				c-0.68,0.94-1.36,1.87-2.04,2.81c-0.17,0.01-0.09-0.23-0.26-0.22c-0.4-1.03-2-1.35-2.65-2.3c-0.3-0.43-0.46-0.91-0.6-1.38
				c-0.5-1.68-0.9-6.64-0.28-13.59c0.37-4.18,3.3-4.19,3.68-4.03c1.79,0.74,3.14,5.67,4.12,5.61c2.67-0.17,5.38,0.34,7.76,1.31
				c0.62,0.25,1.23,0.54,1.66,0.98C23.36,25.25,23.55,25.96,23.27,26.47z"/>
		</g>
		<g>
			<path class="st2" d="M32.99,35.31c0.57-0.71,0.8-1.56,0.98-2.39c0.48-2.3,0.26-4.64,0.02-6.97c-0.74-7.23-0.72-9.06-2.67-9.16
				c-3.36-0.17-4.42,5.72-7.37,5.68c-2.77-0.03-5.62-0.32-8.24,0.38c-0.12,0.38,0.27,0.73,0.63,0.99c0.92,0.69,1.84,1.37,2.87,1.94
				c2.62,1.48,5.75,2.1,8.52,4.26C30.67,32.35,31.89,34.95,32.99,35.31z"/>
		</g>
		<g>
			<path class="st3" d="M20.13,16.41c0.35-0.07,0.72-0.12,1.06-0.04c0.38,0.09,0.67,0.31,0.92,0.56c0.28,0.28,0.53,0.58,0.72,0.9
				c0.1,0.16,0.19,0.33,0.35,0.46c0.22,0.17,0.52,0.24,0.82,0.3c1.59,0.35,3.12,0.86,4.55,1.5c0.74,0.33,1.48,0.71,1.92,1.29
				c0.07,0.08,0.13,0.18,0.13,0.27c0.01,0.26-0.33,0.42-0.62,0.54c-3.5,1.46-5.39,4.57-8.53,6.47c-0.88,0.53-2.05,0.97-3.05,0.61
				c-0.38-0.14-0.69-0.38-0.98-0.62c-1.48-1.19-2.96-2.37-4.44-3.56c-0.5-0.4-1-0.8-1.59-1.12c-0.8-0.42-1.76-0.67-2.43-1.22
				c-0.21-0.17-0.5-0.39-0.76-0.27c-0.08-0.17,0.06-0.35,0.2-0.49c1.6-1.6,4.21-2.45,6.78-2.52c0.29-0.01,0.6-0.01,0.83-0.15
				c0.5-0.3,0.24-0.96,0.5-1.41c0.15-0.27,0.49-0.45,0.81-0.6C18.2,16.91,19.15,16.6,20.13,16.41z"/>
		</g>
		<path class="st4" d="M7.15,31.46c0.06,0.05,0.12,0.1,0.15,0.17c0.04,0.11-0.05,0.23-0.11,0.33c-0.23,0.42-0.03,0.97,0.36,1.25
			c0.39,0.27,0.92,0.31,1.38,0.19c0.47-0.12,0.88-0.36,1.29-0.61c1.67-1,3.3-2.06,4.91-3.16c0.09-0.06,0.19-0.14,0.18-0.25
			c-0.01-0.08-0.08-0.15-0.15-0.2c-2.09-1.69-4.24-3.42-6.81-4.27c-0.45-0.15-1.01-0.23-1.32,0.12c-0.15,0.17-0.19,0.4-0.2,0.63
			c-0.02,0.44,0.07,0.89,0.25,1.3c-0.66,0.56-1.05,1.41-1.04,2.27C6.06,30.08,6.47,30.92,7.15,31.46z"/>
		<path class="st4" d="M32.73,31.46c-0.06,0.05-0.12,0.1-0.14,0.17c-0.03,0.11,0.05,0.23,0.1,0.33c0.23,0.42,0.03,0.97-0.36,1.25
			c-0.39,0.27-0.92,0.31-1.38,0.19c-0.46-0.12-0.88-0.36-1.29-0.61c-1.67-1-3.3-2.06-4.9-3.16c-0.09-0.06-0.19-0.14-0.18-0.25
			c0-0.08,0.08-0.15,0.15-0.2c2.09-1.69,4.24-3.42,6.81-4.27c0.45-0.15,1.02-0.23,1.32,0.12c0.15,0.17,0.19,0.4,0.2,0.63
			c0.02,0.44-0.07,0.89-0.25,1.3c0.66,0.56,1.05,1.41,1.04,2.27C33.82,30.08,33.4,30.92,32.73,31.46z"/>
		<g>
			<path class="st5" d="M19.17,29.06c-0.04,0.03-0.09,0.05-0.15,0.05c-0.07,0-0.12-0.03-0.18-0.06c-1.02-0.61-1.81-1.46-2.22-2.42
				c1.59,0,3.18-0.34,4.74-0.14c-0.46,0.59-0.93,1.19-1.4,1.78C19.75,28.56,19.51,28.86,19.17,29.06z"/>
		</g>
		<g>
			<path class="st6" d="M6.49,24.06c-0.16-0.43,0.02-0.88,0.29-1.3c0.37-0.57,1.08-1.13,2.13-1.31c0.4-0.07,0.83-0.08,1.26-0.07
				c1.72,0.06,3.33,0.49,4.52,1.17c1.83,1.05,2.32,1.73,3.51,3.11c0.12,0.14,0.34,0.36,0.56,0.52c0.1,0.07,0.29,0.06,0.35-0.02
				c0.45-0.59,0.94-1.19,1.59-1.71c1.56-1.26,3.99-2.43,6.42-3.16c2.34-0.7,3.52-0.35,3.99-0.21c1.19,0.36,2.04,1.47,1.89,2.27
				c-0.05,0.26-0.6,1.23-0.77,1.47c-0.71,1.02-1.52,1.58-2.93,2.65c-0.8,0.6-2.29,1.36-2.9,1.66c-1.88,0.92-4.76,1.6-7.25,1.43
				c-2.49-0.17-4.29-0.76-6.1-1.73c-0.53-0.28-2.08-1.2-2.56-1.51C9.51,26.69,6.89,25.12,6.49,24.06z"/>
		</g>
		<g>
			<g>
				<path class="st5" d="M7.44,27.65c-0.35,0.97-0.47,2.64,0.3,3.47c0.1,0.11,0.27,0.11,0.4,0.05c0.38-0.17-0.03-0.74-0.1-0.96
					c-0.23-0.74-0.39-1.69-0.2-2.45C7.9,27.5,7.52,27.41,7.44,27.65L7.44,27.65z"/>
			</g>
		</g>
		<g>
			<g>
				<path class="st5" d="M8.64,28.83c-0.25,0.57-0.19,1.58,0.33,2c0.24,0.2,0.6-0.05,0.44-0.33c-0.26-0.47-0.55-1.04-0.5-1.59
					C8.93,28.77,8.7,28.7,8.64,28.83L8.64,28.83z"/>
			</g>
		</g>
		<g>
			<g>
				<path class="st5" d="M10,29.84c0.05,0.33,0.07,0.85,0.42,1.03c0.18,0.09,0.4-0.06,0.35-0.26c-0.04-0.16-0.18-0.29-0.28-0.43
					c-0.1-0.14-0.19-0.28-0.26-0.43C10.17,29.61,9.98,29.72,10,29.84L10,29.84z"/>
			</g>
		</g>
		<g>
			<g>
				<path class="st5" d="M32.03,27.79c0.2,0.78,0,1.66-0.2,2.43c-0.06,0.23-0.48,0.78-0.1,0.95c0.13,0.06,0.29,0.06,0.39-0.05
					c0.76-0.82,0.64-2.47,0.3-3.43C32.33,27.44,31.97,27.54,32.03,27.79L32.03,27.79z"/>
			</g>
		</g>
		<g>
			<g>
				<path class="st5" d="M30.8,29.31c0.05,0.55-0.23,1.12-0.49,1.58c-0.16,0.28,0.2,0.52,0.44,0.33c0.51-0.42,0.57-1.42,0.32-1.98
					C31.01,29.11,30.79,29.17,30.8,29.31L30.8,29.31z"/>
			</g>
		</g>
		<g>
			<g>
				<path class="st5" d="M29.54,30.1c-0.07,0.15-0.16,0.29-0.25,0.43c-0.1,0.14-0.23,0.26-0.28,0.42c-0.06,0.2,0.16,0.35,0.34,0.26
					c0.35-0.17,0.37-0.69,0.41-1.02C29.78,30.07,29.6,29.96,29.54,30.1L29.54,30.1z"/>
			</g>
		</g>
		<g>
			<g>
				<g>
					<path class="st5" d="M19.8,33.17c1.25,0,2.3-1.03,2.3-2.27c0-1.23-1.04-2.27-2.3-2.27c-1.25,0-2.3,1.03-2.3,2.27
						C17.5,32.14,18.55,33.17,19.8,33.17L19.8,33.17z"/>
				</g>
			</g>
			<g>
				<g>
					<path class="st7" d="M19.82,31.35c0.72,0,0.72-1.11,0-1.11C19.1,30.24,19.1,31.35,19.82,31.35L19.82,31.35z"/>
				</g>
			</g>
			<g>
				<g>
					<path class="st4" d="M18.43,30c0,0,0-0.01,0.01-0.01c0.07-0.13,0.01-0.3-0.14-0.34c-0.14-0.04-0.3,0.07-0.29,0.22
						c0,0.01,0,0.01,0,0.01C18.01,30.1,18.32,30.21,18.43,30L18.43,30z"/>
				</g>
			</g>
			<g>
				<g>
					<path class="st4" d="M18.92,30.57c0.34,0,0.34-0.52,0-0.52C18.58,30.05,18.58,30.57,18.92,30.57L18.92,30.57z"/>
				</g>
			</g>
			<g>
				<g>
					<path class="st4" d="M20.63,30.55c0.32,0,0.32-0.48,0-0.48C20.31,30.07,20.31,30.55,20.63,30.55L20.63,30.55z"/>
				</g>
			</g>
			<g>
				<g>
					<path class="st4" d="M21.21,30.1c0.35,0,0.35-0.53,0-0.53C20.86,29.57,20.86,30.1,21.21,30.1L21.21,30.1z"/>
				</g>
			</g>
			<g>
				<g>
					<path class="st4" d="M19.13,31.82c0.15,0,0.28-0.13,0.28-0.28c0-0.15-0.13-0.28-0.28-0.28c-0.15,0-0.28,0.13-0.28,0.28
						C18.84,31.69,18.97,31.82,19.13,31.82L19.13,31.82z"/>
				</g>
			</g>
			<g>
				<g>
					<path class="st4" d="M18.51,32.4c0.32,0,0.32-0.49,0-0.49C18.19,31.91,18.19,32.4,18.51,32.4L18.51,32.4z"/>
				</g>
			</g>
			<g>
				<g>
					<path class="st4" d="M20.71,31.82c0.01,0,0.01-0.01,0.02-0.01c0.16-0.09,0.16-0.32,0-0.41c-0.01,0-0.01-0.01-0.02-0.01
						c-0.17-0.09-0.38,0.02-0.38,0.21C20.33,31.8,20.54,31.91,20.71,31.82L20.71,31.82z"/>
				</g>
			</g>
			<g>
				<g>
					<path class="st4" d="M21.28,32.01C21.27,32,21.26,32,21.25,31.99c-0.12-0.08-0.29,0.03-0.29,0.16c0,0.14,0.17,0.25,0.29,0.16
						c0.01-0.01,0.02-0.01,0.02-0.02C21.39,32.23,21.39,32.08,21.28,32.01L21.28,32.01z"/>
				</g>
			</g>
		</g>
		<g>
			<g>
				<path class="st5" d="M16.1,29.84c0.43,0,0.43-0.52,0-0.52C15.67,29.32,15.67,29.84,16.1,29.84L16.1,29.84z"/>
			</g>
		</g>
		<g>
			<g>
				<path class="st5" d="M16.82,30.56c0.46,0,0.46-0.56,0-0.56C16.36,30,16.36,30.56,16.82,30.56L16.82,30.56z"/>
			</g>
		</g>
		<g>
			<g>
				<path class="st5" d="M22.55,30.88c0.36,0,0.36-0.44,0-0.44C22.19,30.44,22.19,30.88,22.55,30.88L22.55,30.88z"/>
			</g>
		</g>
		<g>
			<g>
				<path class="st5" d="M23.44,30.37c0.29,0,0.29-0.35,0-0.35C23.15,30.02,23.15,30.37,23.44,30.37L23.44,30.37z"/>
			</g>
		</g>
		<g>
			<g>
				<path class="st5" d="M24.19,29.93c0.39,0,0.39-0.48,0-0.48C23.8,29.45,23.8,29.93,24.19,29.93L24.19,29.93z"/>
			</g>
		</g>
		<g>
			<path class="st3" d="M19.52,43.32c-0.35,0.07-0.72,0.12-1.07,0.04c-0.38-0.08-0.67-0.31-0.92-0.56c-0.28-0.28-0.53-0.58-0.72-0.9
				c-0.1-0.16-0.19-0.33-0.35-0.46c-0.22-0.17-0.52-0.24-0.82-0.3c-1.59-0.35-3.12-0.86-4.55-1.5c-0.74-0.33-1.48-0.71-1.92-1.29
				c-0.07-0.08-0.13-0.18-0.13-0.27c-0.01-0.26,0.33-0.42,0.62-0.54c3.5-1.46,5.39-4.57,8.53-6.47c0.88-0.53,2.05-0.97,3.05-0.61
				c0.38,0.14,0.69,0.38,0.98,0.62c1.48,1.18,2.96,2.37,4.43,3.56c0.5,0.4,1,0.8,1.59,1.12c0.8,0.42,1.76,0.67,2.43,1.22
				c0.21,0.17,0.5,0.39,0.76,0.27c0.08,0.17-0.06,0.35-0.2,0.49c-1.6,1.6-4.21,2.45-6.78,2.52c-0.29,0.01-0.6,0.01-0.83,0.15
				c-0.5,0.3-0.24,0.96-0.5,1.41c-0.15,0.27-0.48,0.45-0.81,0.6C21.45,42.82,20.5,43.12,19.52,43.32z"/>
		</g>
		<g>
			<path class="st5" d="M20.49,30.67c0.04-0.03,0.09-0.05,0.15-0.05c0.06,0,0.12,0.03,0.17,0.06c1.02,0.61,1.81,1.46,2.22,2.42
				c-1.59-0.01-3.18,0.34-4.74,0.14c0.47-0.59,0.93-1.19,1.4-1.78C19.91,31.17,20.14,30.87,20.49,30.67z"/>
		</g>
		<g>
			<g>
				<path class="st5" d="M31.18,30.24c0.25-0.56,0.19-1.56-0.32-1.98c-0.24-0.19-0.6,0.05-0.44,0.33c0.26,0.46,0.54,1.03,0.49,1.58
					C30.9,30.3,31.12,30.36,31.18,30.24L31.18,30.24z"/>
			</g>
		</g>
		<g>
			<g>
				<path class="st5" d="M29.84,29.24c-0.05-0.33-0.07-0.84-0.41-1.02c-0.18-0.09-0.4,0.06-0.34,0.26c0.04,0.16,0.18,0.29,0.28,0.42
					c0.1,0.14,0.19,0.28,0.25,0.43C29.68,29.47,29.85,29.36,29.84,29.24L29.84,29.24z"/>
			</g>
		</g>
		<g>
			<path class="st6" d="M33.17,35.64c0.16,0.47-0.02,0.97-0.29,1.42c-0.37,0.63-1.08,1.24-2.13,1.44c-0.4,0.08-0.84,0.09-1.26,0.07
				c-1.72-0.06-3.33-0.53-4.52-1.29c-1.83-1.16-2.32-1.9-3.51-3.41c-0.12-0.15-0.34-0.39-0.56-0.57c-0.1-0.08-0.29-0.06-0.35,0.03
				c-0.44,0.64-0.94,1.3-1.59,1.87c-1.56,1.38-3.99,2.66-6.42,3.46c-2.34,0.76-3.52,0.38-3.99,0.23c-1.19-0.39-2.04-1.61-1.89-2.48
				c0.05-0.29,0.6-1.35,0.77-1.61c0.71-1.11,1.52-1.73,2.93-2.9c0.79-0.66,2.29-1.49,2.9-1.82c1.88-1.01,4.76-1.75,7.25-1.56
				c2.49,0.19,4.29,0.83,6.1,1.89c0.53,0.31,2.08,1.31,2.56,1.65C30.14,32.75,32.76,34.48,33.17,35.64z"/>
		</g>
		<path class="st4" d="M33.36,22.79c0.11,0.14,0.13,0.45-0.07,0.69c-0.09,0.11-0.17,0.24-0.29,0.33c-3.17,2.55-5.93,3.45-9.93,6.02
			c-1.06,0.68-2.49,1.51-3.58,2.14c-1.19,0.69-2.31,1.49-3.47,2.23c-1.74,1.16-3.47,2.32-5.21,3.48c-0.68,0.47-1.4,0.9-2,1.47
			c-0.19,0.19-0.42,0.4-0.68,0.36c-0.16-0.03-0.28-0.14-0.4-0.25c-0.66-0.66-0.88-1.31-1.1-2.8c-0.03-0.19-0.04-0.35,0.13-0.49
			c4.13-3.65,8.29-6.13,13.04-9.01c0.89-0.54,1.79-1.07,2.69-1.59c2.53-1.49,4.78-2.65,7.31-4.14c0.26-0.15,0.54-0.31,0.84-0.28
			c0.26,0.03,0.59,0.01,1.08,0.3C32.46,21.68,32.76,21.97,33.36,22.79z"/>
		<g>
			<g>
				<g>
					<path class="st5" d="M19.95,27c-1.25,0-2.3,1.03-2.3,2.27c0,1.23,1.04,2.27,2.3,2.27c1.25,0,2.3-1.03,2.3-2.27
						C22.25,28.03,21.2,27,19.95,27L19.95,27z"/>
				</g>
			</g>
			<g>
				<g>
					<path class="st7" d="M19.93,28.81c-0.72,0-0.72,1.11,0,1.11C20.65,29.92,20.65,28.81,19.93,28.81L19.93,28.81z"/>
				</g>
			</g>
			<g>
				<g>
					<path class="st4" d="M21.32,30.16c0,0,0,0.01-0.01,0.01c-0.07,0.13-0.01,0.3,0.14,0.34c0.14,0.04,0.3-0.07,0.29-0.22
						c0,0,0-0.01,0-0.01C21.74,30.06,21.43,29.96,21.32,30.16L21.32,30.16z"/>
				</g>
			</g>
			<g>
				<g>
					<path class="st4" d="M20.83,29.59c-0.34,0-0.34,0.52,0,0.52C21.17,30.11,21.17,29.59,20.83,29.59L20.83,29.59z"/>
				</g>
			</g>
			<g>
				<g>
					<path class="st4" d="M19.12,29.61c-0.32,0-0.32,0.48,0,0.48C19.44,30.09,19.44,29.61,19.12,29.61L19.12,29.61z"/>
				</g>
			</g>
			<g>
				<g>
					<path class="st4" d="M18.54,30.06c-0.35,0-0.35,0.53,0,0.53C18.89,30.59,18.89,30.06,18.54,30.06L18.54,30.06z"/>
				</g>
			</g>
			<g>
				<g>
					<path class="st4" d="M20.62,28.34c-0.15,0-0.28,0.13-0.28,0.28c0,0.15,0.13,0.28,0.28,0.28c0.15,0,0.28-0.13,0.28-0.28
						C20.9,28.47,20.78,28.34,20.62,28.34L20.62,28.34z"/>
				</g>
			</g>
			<g>
				<g>
					<path class="st4" d="M21.24,27.76c-0.32,0-0.32,0.49,0,0.49C21.56,28.25,21.56,27.76,21.24,27.76L21.24,27.76z"/>
				</g>
			</g>
			<g>
				<g>
					<path class="st4" d="M19.04,28.34c-0.01,0-0.01,0.01-0.02,0.01c-0.16,0.09-0.16,0.32,0,0.41c0.01,0,0.01,0.01,0.02,0.01
						c0.17,0.09,0.38-0.02,0.38-0.21S19.21,28.25,19.04,28.34L19.04,28.34z"/>
				</g>
			</g>
			<g>
				<g>
					<path class="st4" d="M18.48,28.15c0.01,0.01,0.02,0.01,0.02,0.02c0.12,0.08,0.29-0.03,0.29-0.16c0-0.14-0.17-0.24-0.29-0.16
						c-0.01,0-0.02,0.01-0.02,0.02C18.36,27.93,18.36,28.08,18.48,28.15L18.48,28.15z"/>
				</g>
			</g>
		</g>
		<g>
			<g>
				<path class="st5" d="M9.03,29.77c-0.05-0.56,0.23-1.13,0.5-1.6c0.16-0.29-0.2-0.53-0.44-0.33c-0.52,0.42-0.58,1.43-0.33,2
					C8.82,29.97,9.04,29.91,9.03,29.77L9.03,29.77z"/>
			</g>
		</g>
		<g>
			<g>
				<path class="st5" d="M10.3,28.97c0.07-0.16,0.16-0.29,0.26-0.43c0.1-0.14,0.24-0.26,0.28-0.43c0.06-0.21-0.17-0.35-0.35-0.26
					c-0.35,0.18-0.37,0.69-0.42,1.03C10.06,29,10.24,29.11,10.3,28.97L10.3,28.97z"/>
			</g>
		</g>
		<g>
			<path class="st2" d="M19,41.37c0.01-0.23,0.01-0.47-0.02-0.7c1.27-0.18,2.56-0.22,3.84-0.12c-0.04,0.16-0.09,0.32-0.16,0.47
				c-0.01,0.03-0.02,0.05-0.04,0.07c-0.04,0.03-0.09,0.04-0.14,0.04C21.33,41.21,20.17,41.29,19,41.37z"/>
		</g>
		<g>
			<path class="st7" d="M21.17,37.82c-0.26,0.04-0.52,0.05-0.78,0.03c0.03,0.35,0.07,0.67,0.19,1c-0.11-0.1-0.15-0.14-0.29-0.18
				c-0.15-0.05-0.32-0.02-0.41,0.1c-0.06,0.08-0.08,0.19-0.06,0.29c0.12,0.43,0.74,1.1,1.03,1.45c0.24-0.36,0.48-0.72,0.72-1.08
				c0.07-0.11,0.15-0.21,0.21-0.31c0.13-0.24,0.03-0.47-0.29-0.53c-0.1-0.02-0.21,0.04-0.3,0.09c-0.09,0.05-0.13,0.13-0.19,0.15
				c-0.03,0.01,0.07-0.18,0.09-0.32C21.13,38.27,21.24,37.91,21.17,37.82z"/>
		</g>
		<g>
			<path class="st7" d="M24.89,52.86c0.14-0.67,0.24-1.35,0.29-2.04c0.03-0.39,0.04-0.78-0.01-1.17c-0.04-0.34-0.13-0.68-0.18-1.03
				c-0.11-0.71-0.06-1.43-0.02-2.14c0.14-2.52,0.15-5.05,0.03-7.57c-0.03-0.6,0.01-1.2,0.08-1.8c0.08-0.65,0.13-1.31,0.36-1.93
				c0.21-0.59,0.57-1.41,1.14-1.46c0.02-0.02,0.03-0.04,0.05-0.06c0.01-0.09-0.28-0.17-0.46-0.16c-2.09,0.18-2.73,1.17-3.1,2.47
				c-0.47,1.63-0.62,2.68-0.76,4.03c-0.15,1.48-0.25,2.97-0.12,4.45c0.11,1.29,0.39,2.57,0.67,3.84c0.12,0.52,0.23,1.04,0.35,1.57
				c0.15,0.68,0.3,1.36,0.54,2.01c0.18,0.49,0.55,1.04,1.08,0.97c0.02-0.06,0.04-0.12,0.06-0.18L24.89,52.86z"/>
		</g>
		<g>
			<path class="st7" d="M15.66,41.33c-0.08,0.73-0.22,1.45-0.3,2.18c-0.12,1.01-0.13,2.03-0.12,3.05c0,0.79,0.01,1.58,0.03,2.37
				c0.01,0.46,0.02,0.92,0.1,1.37c0.29,1.56,1.48,2.93,3,3.44c0.46,0.16,1.08,0.19,1.33-0.22c0.23-0.37,0.01-0.84-0.11-1.26
				c-0.12-0.42-0.13-0.86-0.13-1.29c-0.06-5.35,0.12-10.73-0.65-16.03c-0.11-0.72-0.24-1.46-0.69-2.03
				c-0.35-0.44-0.87-0.74-1.41-0.92c-0.77-0.26-1.61-0.3-2.4-0.13c0.62,0.71,0.78,1.68,0.92,2.6
				C15.57,36.73,15.91,39.04,15.66,41.33z"/>
		</g>
		<g>
			<defs>
				<path id="SVGID_1_" d="M24.89,52.86c0.14-0.67,0.24-1.35,0.29-2.04c0.03-0.39,0.04-0.78-0.01-1.17
					c-0.04-0.34-0.13-0.68-0.18-1.03c-0.11-0.71-0.06-1.43-0.02-2.14c0.14-2.52,0.15-5.05,0.03-7.57c-0.03-0.6,0.01-1.2,0.08-1.8
					c0.08-0.65,0.13-1.31,0.36-1.93c0.21-0.59,0.57-1.41,1.14-1.46c0.02-0.02,0.03-0.04,0.05-0.06c0.01-0.09-0.28-0.17-0.46-0.16
					c-2.09,0.18-2.73,1.17-3.1,2.47c-0.47,1.63-0.62,2.68-0.76,4.03c-0.15,1.48-0.25,2.97-0.12,4.45c0.11,1.29,0.39,2.57,0.67,3.84
					c0.12,0.52,0.23,1.04,0.35,1.57c0.15,0.68,0.3,1.36,0.54,2.01c0.18,0.49,0.55,1.04,1.08,0.97c0.02-0.06,0.04-0.12,0.06-0.18
					L24.89,52.86z"/>
			</defs>
			<clipPath id="SVGID_00000107568764198592279010000017848174653532490431_">
				<use xlink:href="#SVGID_1_"  style="overflow:visible;"/>
			</clipPath>
			<g style="clip-path:url(#SVGID_00000107568764198592279010000017848174653532490431_);">
				<g>
					<path class="st4" d="M27.17,33.4c-1.46,0.18-2.29,1.01-2.84,2.33c-0.38,0.9-0.42,1.93-0.46,2.89
						c-0.06,1.34-0.04,2.72,0.05,4.06c0.01,0.1,0.15,0.1,0.16,0c0.2-2.99-1.03-8.33,3.11-9.14C27.27,33.52,27.25,33.39,27.17,33.4
						L27.17,33.4z"/>
				</g>
			</g>
			<g style="clip-path:url(#SVGID_00000107568764198592279010000017848174653532490431_);">
				<g>
					<path class="st4" d="M25.81,33.3c-1.31-0.17-2.25,1.67-2.6,2.66c-0.15,0.43-0.1,0.96-0.13,1.4c-0.03,0.48-0.15,0.96-0.19,1.44
						c-0.09,1.14-0.19,2.38-0.16,3.53c0,0.05,0.09,0.07,0.1,0.02c0.24-1.56,0.2-3.14,0.39-4.7c0.12-0.97,0.18-1.76,0.68-2.64
						c0.44-0.78,1-1.44,1.92-1.65C25.86,33.35,25.84,33.3,25.81,33.3L25.81,33.3z"/>
				</g>
			</g>
		</g>
		<g>
			<defs>
				<path id="SVGID_00000044145548946053629160000013637896762915375807_" d="M15.66,41.33c-0.08,0.73-0.22,1.45-0.3,2.18
					c-0.12,1.01-0.13,2.03-0.12,3.05c0,0.79,0.01,1.58,0.03,2.37c0.01,0.46,0.02,0.92,0.1,1.37c0.29,1.56,1.48,2.93,3,3.44
					c0.46,0.16,1.08,0.19,1.33-0.22c0.23-0.37,0.01-0.84-0.11-1.26c-0.12-0.42-0.13-0.86-0.13-1.29
					c-0.06-5.35,0.12-10.73-0.65-16.03c-0.11-0.72-0.24-1.46-0.69-2.03c-0.35-0.44-0.87-0.74-1.41-0.92
					c-0.77-0.26-1.61-0.3-2.4-0.13c0.62,0.71,0.78,1.68,0.92,2.6C15.57,36.73,15.91,39.04,15.66,41.33z"/>
			</defs>
			<clipPath id="SVGID_00000118360401032935395850000015624256938799730308_">
				<use xlink:href="#SVGID_00000044145548946053629160000013637896762915375807_"  style="overflow:visible;"/>
			</clipPath>
			<g style="clip-path:url(#SVGID_00000118360401032935395850000015624256938799730308_);">
				<g>
					<path class="st4" d="M18.19,46.62c0.49-1.08,0.4-2.59,0.53-3.76c0.2-1.72,0.09-3.5-0.02-5.22c-0.14-2.1-0.6-5.77-3.02-6.55
						c-0.03-0.01-0.05,0.03-0.02,0.05c2.36,1.61,2.7,4.65,2.85,7.26c0.07,1.36,0.13,2.75,0.03,4.11c-0.05,0.71-0.16,1.41-0.23,2.12
						c-0.06,0.61,0.01,1.39-0.16,1.97C18.14,46.63,18.18,46.65,18.19,46.62L18.19,46.62z"/>
				</g>
			</g>
			<g style="clip-path:url(#SVGID_00000118360401032935395850000015624256938799730308_);">
				<g>
					<path class="st4" d="M17.37,46.14c0.54-1.41,0.6-3.22,0.62-4.71c0.02-1.6-0.11-3.21-0.35-4.8c-0.33-2.11-1.12-4.8-3.62-5.12
						c-0.07-0.01-0.09,0.1-0.03,0.12c1.19,0.54,2.05,1.25,2.56,2.47c0.44,1.08,0.69,2.31,0.84,3.45c0.38,2.91,0.1,5.66-0.15,8.57
						C17.22,46.2,17.34,46.21,17.37,46.14L17.37,46.14z"/>
				</g>
			</g>
			<g style="clip-path:url(#SVGID_00000118360401032935395850000015624256938799730308_);">
				<g>
					<path class="st4" d="M16.28,45.6c0.61-0.13,0.58-1.15,0.63-1.63c0.19-1.81,0.13-3.58-0.08-5.38c-0.34-2.85-1.14-5.58-3.69-7.23
						c-0.09-0.06-0.18,0.05-0.14,0.14c0.19,0.38,0.47,0.62,0.8,0.89c0.53,0.43,0.96,0.93,1.34,1.5c0.77,1.17,1.04,2.69,1.29,4.04
						c0.26,1.4,0.32,2.82,0.3,4.24c-0.01,0.65-0.07,1.29-0.13,1.93c-0.04,0.47,0.01,1.07-0.36,1.43
						C16.2,45.56,16.24,45.61,16.28,45.6L16.28,45.6z"/>
				</g>
			</g>
			<g style="clip-path:url(#SVGID_00000118360401032935395850000015624256938799730308_);">
				<g>
					<path class="st4" d="M15.88,44.44c0.52-2.4,0.48-5.2-0.73-7.41c-0.02-0.04-0.1-0.01-0.08,0.03c0.92,2.29,0.79,4.95,0.71,7.36
						C15.78,44.48,15.87,44.5,15.88,44.44L15.88,44.44z"/>
				</g>
			</g>
		</g>
		<g>
			<path class="st10" d="M18.88,52.9c0.39,0.39,0.8,0.8,1.33,0.98c0.24,0.08,0.5,0.12,0.76,0.15c1.13,0.15,2.32,0.29,3.37-0.15
				c0.12-0.05,0.23-0.11,0.32-0.19c0.1-0.1,0.16-0.23,0.21-0.35c0.42-1.07,0.15-2.29-0.28-3.35c-0.05-0.13-0.11-0.27-0.12-0.41
				c-0.01-0.25,0.13-0.47,0.27-0.68c0.81-1.25,1.56-2.6,1.76-4.07c0.01-0.08-0.03-0.16-0.11-0.19c-0.22-0.07-0.49,0.02-0.71,0.12
				c-0.4,0.18-0.81,0.35-1.21,0.52c-0.04-1.26-0.27-2.52-0.66-3.72c-0.06-0.19-0.14-0.39-0.29-0.52c-0.3-0.26-0.77-0.15-1.13,0.02
				c-0.6,0.28-1.11,0.7-1.62,1.11c-0.35,0.28-0.69,0.56-0.97,0.9c-0.3,0.38-0.51,0.83-0.69,1.28c-0.89,2.24-1.23,4.69-0.98,7.08
				c0.02,0.21,0.05,0.42,0.12,0.61C18.36,52.38,18.62,52.65,18.88,52.9z"/>
		</g>
		<g>
			<path class="st4" d="M22.87,44.18c0.23-0.02,1.23,0.03,1.51,0.15c0.19,0.08,0.31-0.07,0.35-0.14c0.06-0.09-0.04-0.2-0.14-0.23
				c-0.1-0.02-0.13-0.03-0.22-0.08c0.09-0.12,0.2-0.16,0.19-0.31c0-0.11-0.13-0.18-0.24-0.18s-0.21,0.07-0.3,0.13
				C23.62,43.76,23.31,44.01,22.87,44.18z"/>
		</g>
		<g>
			<path class="st7" d="M23.08,45.07c-0.11-0.17-0.33-0.14-0.44-0.03c-0.11,0.11-0.01,0.34,0.16,0.35
				C22.96,45.39,23.09,45.23,23.08,45.07z"/>
		</g>
		<g>
			<path class="st0" d="M19.63,49.79c0.3-0.19,0.6-0.38,0.93-0.51c0.88-0.35,1.93-0.23,2.7,0.3c-0.18,0.38-0.58,0.61-0.99,0.73
				C21.37,50.59,20.32,50.42,19.63,49.79z"/>
		</g>
		<g>
			<path class="st7" d="M21.29,49.43c-0.19,0.04-0.33,0.24-0.3,0.42c0.03,0.19,0.22,0.33,0.41,0.32c0.13-0.01,0.54-0.1,0.44-0.5
				c-0.04-0.14-0.21-0.2-0.35-0.23C21.43,49.42,21.36,49.42,21.29,49.43z"/>
		</g>
		<g>
			<path class="st7" d="M19.63,51.58c0.41,0.32,0.95,0.39,1.47,0.4c0.52,0.02,0.98-0.06,1.46-0.2c0.23-0.07,0.81-0.28,1.06-0.51
				c0.31-0.28,0.27-0.39,0.08-0.71c-0.04-0.06-0.11-0.1-0.18-0.08c-0.17,0.04-0.34,0.2-0.47,0.29c-0.74,0.53-2.17,0.83-3.27,0.52
				C19.6,51.25,19.49,51.47,19.63,51.58z"/>
		</g>
		<g>
			<path class="st2" d="M19.92,55.74c0.11,0.09,0.25,0.24,0.18,0.36c-0.04,0.07-0.03,0.17-0.11,0.19c-0.94,0.24-2.04,0.17-2.95-0.14
				c-0.92-0.31-1.73-0.94-2.18-1.78c-0.42-0.77-0.52-1.66-0.58-2.53c-0.2-3.07,1.19-6.04-0.62-9.57c0.97,0.05,1.84,0.7,2.54,1.37
				c0.68,0.65,1.03,0.78,1.79,1.74c0.07,0.09,0.61,0.49,0.58,0.6c-0.08,0.4-0.22,0.52-0.34,1.5c-0.1,0.83,0.03,0.94-0.02,1.77
				c-0.08,1.15,0.17,2.27,0.24,3.41c0.02,0.32,0.05,0.63,0.13,0.94C18.76,54.44,19.25,55.2,19.92,55.74z"/>
		</g>
		<g>
			<path class="st4" d="M13.83,41.73c-0.15-0.07-0.34-0.05-0.47,0.05c-0.13,0.1-0.19,0.29-0.13,0.45c0.07,0.19,0.31,0.3,0.5,0.23
				c0.11-0.04,0.2-0.13,0.25-0.23c0.06-0.12,0.08-0.28-0.01-0.4C13.93,41.8,13.88,41.76,13.83,41.73z"/>
		</g>
		<g>
			<path class="st6" d="M18.18,48.02c-0.2,1.51-0.32,3.03-0.34,4.55c-0.01,0.53,0,1.06,0.11,1.57c0.1,0.46,0.29,0.91,0.48,1.35
				c0.34,0.8,0.69,1.61,1.03,2.41c0.61-0.88,1.21-1.77,1.79-2.67c0.24,1,0.66,1.96,1.25,2.82c0.32-0.78,0.72-1.95,1.04-2.72
				c0.42,0.61,0.87,1.53,1.5,1.94c0.24-1.4,0.57-1.95,0.46-3.78c-0.01-0.17-0.29-1.21-0.46-1.16c-0.05,0.26-0.08,0.53-0.21,0.77
				c-0.07,0.14-0.16,0.28-0.3,0.34c-0.21,0.09-0.47-0.02-0.61-0.19c-0.15-0.18-0.21-0.4-0.26-0.62c-0.29,0.58-0.89,1-1.54,1.12
				c-0.65,0.11-1.34-0.08-1.86-0.49c-0.76-0.61-1.07-1.6-1.35-2.52C18.65,49.8,18.45,48.93,18.18,48.02z"/>
		</g>
		<g>
			<path class="st4" d="M25.13,58.5c0.03-0.02,0.04-0.04,0.06-0.07c0.21-0.39,0.36-0.81,0.43-1.24c-0.37,0.04-0.74,0.07-1.11,0.11
				C24.42,57.31,25.11,58.51,25.13,58.5z"/>
		</g>
		<g>
			<path class="st4" d="M22.42,59.27c0.03-0.01,0.05-0.04,0.06-0.07c0.24-0.37,0.41-0.78,0.51-1.21c-0.37,0.01-0.74,0.02-1.11,0.04
				C21.79,58.04,22.4,59.28,22.42,59.27z"/>
		</g>
		<g>
			<path class="st4" d="M19.25,59.09c0.03-0.01,0.05-0.04,0.07-0.06c0.26-0.35,0.47-0.75,0.6-1.16c-0.37-0.02-0.74-0.03-1.11-0.05
				C18.72,57.81,19.23,59.09,19.25,59.09z"/>
		</g>
		<g>
			<g>
				<path class="st7" d="M24.57,45.01c-0.11,0.06-0.22,0.1-0.33,0.18c-0.11,0.08-0.23,0.16-0.34,0.24c-0.22,0.17-0.4,0.38-0.42,0.66
					c-0.01,0.18,0.09,0.38,0.25,0.47c0.17,0.09,0.42,0,0.42-0.2c0-0.04-0.03-0.07-0.06-0.08c-0.11-0.03-0.23,0.06-0.31-0.04
					c-0.14-0.18,0.06-0.4,0.18-0.53c0.12-0.12,0.26-0.22,0.4-0.32c0.14-0.1,0.18-0.18,0.26-0.33
					C24.65,45.03,24.61,44.99,24.57,45.01L24.57,45.01z"/>
			</g>
		</g>
		<g>
			<g>
				<path class="st7" d="M20.59,45.87c-1.54-0.35-2.52,1.15-2.44,2.52c0,0.04,0.07,0.06,0.08,0.01c0.17-0.73,0.31-1.44,0.88-1.99
					c0.38-0.36,0.95-0.5,1.46-0.44C20.63,45.98,20.64,45.89,20.59,45.87L20.59,45.87z"/>
			</g>
		</g>
		<g>
			<g>
				<path class="st5" d="M24.32,54.18c0.05,0.24,0.06,0.5,0.08,0.74c0.01,0.21-0.05,0.41,0,0.62c0.07,0.3,0.59,0.24,0.55-0.07
					c-0.06-0.49-0.23-0.9-0.41-1.35C24.49,53.99,24.29,54.04,24.32,54.18L24.32,54.18z"/>
			</g>
		</g>
		<g>
			<g>
				<path class="st5" d="M22.55,54.38c-0.15,0.49-0.36,1.03-0.34,1.55c0.01,0.19,0.28,0.35,0.42,0.17c0.16-0.2,0.13-0.41,0.14-0.66
					c0.02-0.34,0.1-0.68,0.13-1.02C22.93,54.22,22.6,54.2,22.55,54.38L22.55,54.38z"/>
			</g>
		</g>
		<g>
			<g>
				<path class="st5" d="M20.07,53.98c-0.29,0.23-0.38,0.53-0.54,0.85c-0.15,0.32-0.37,0.61-0.29,0.97c0.08,0.35,0.53,0.28,0.64,0
					c0.22-0.57,0.4-1.11,0.43-1.72C20.33,53.95,20.16,53.91,20.07,53.98L20.07,53.98z"/>
			</g>
		</g>
		<g>
			<g>
				<path class="st4" d="M17.39,55.42c0-0.07-0.01-0.14-0.03-0.2c-0.05-0.12-0.22-0.05-0.17,0.07c0.02,0.04,0.02,0.09,0.02,0.13
					C17.2,55.54,17.38,55.54,17.39,55.42L17.39,55.42z"/>
			</g>
		</g>
		<g>
			<g>
				<path class="st4" d="M16.05,54c0.01-0.1,0.01-0.19-0.02-0.29c-0.06-0.18-0.32-0.07-0.24,0.1c0.02,0.05,0.03,0.1,0.03,0.16
					C15.82,54.1,16.03,54.13,16.05,54L16.05,54z"/>
			</g>
		</g>
		<g>
			<g>
				<path class="st4" d="M17.17,52.18c0.03-0.1,0.01-0.19,0-0.29c-0.03-0.19-0.33-0.11-0.3,0.08c0.02,0.1,0.05,0.18,0.11,0.26
					C17.04,52.3,17.15,52.25,17.17,52.18L17.17,52.18z"/>
			</g>
		</g>
		<g>
			<g>
				<path class="st4" d="M14.87,52.08c0.03-0.09,0.01-0.21,0-0.3c-0.02-0.15-0.26-0.09-0.23,0.07c0.01,0.09,0.03,0.2,0.1,0.27
					C14.78,52.16,14.85,52.13,14.87,52.08L14.87,52.08z"/>
			</g>
		</g>
		<g>
			<g>
				<path class="st4" d="M15.75,50.24c0.04-0.12,0.04-0.27-0.03-0.38c-0.04-0.07-0.17-0.04-0.16,0.04c0.01,0.1,0.05,0.19,0.01,0.29
					C15.53,50.3,15.71,50.34,15.75,50.24L15.75,50.24z"/>
			</g>
		</g>
		<g>
			<g>
				<path class="st4" d="M17.3,49.34c0.01-0.13,0.07-0.25,0.02-0.38c-0.04-0.11-0.24-0.15-0.26,0c-0.03,0.16,0.02,0.31,0.13,0.43
					C17.22,49.44,17.29,49.39,17.3,49.34L17.3,49.34z"/>
			</g>
		</g>
		<g>
			<g>
				<path class="st4" d="M16.11,47.28c0.03-0.12,0.06-0.24,0.03-0.36c-0.03-0.13-0.22-0.13-0.26,0c-0.04,0.14,0,0.29,0.1,0.4
					C16.02,47.36,16.1,47.33,16.11,47.28L16.11,47.28z"/>
			</g>
		</g>
		<g>
			<g>
				<path class="st4" d="M18,45.88c0.02-0.11,0.02-0.2,0.01-0.3c-0.01-0.08-0.11-0.12-0.19-0.1c-0.09,0.02-0.12,0.1-0.11,0.18
					c0.02,0.11,0.07,0.19,0.16,0.26C17.91,45.94,17.99,45.94,18,45.88L18,45.88z"/>
			</g>
		</g>
		<g>
			<g>
				<path class="st4" d="M14.81,48.27c0.01-0.11,0.03-0.2-0.04-0.3c-0.02-0.03-0.06-0.03-0.08,0c-0.07,0.09-0.07,0.19-0.09,0.3
					C14.58,48.41,14.8,48.41,14.81,48.27L14.81,48.27z"/>
			</g>
		</g>
		<g>
			<g>
				<path class="st4" d="M15.2,44.52c-0.03-0.13,0.03-0.28-0.02-0.41c-0.04-0.1-0.17-0.1-0.21,0c-0.06,0.14,0.01,0.35,0.08,0.47
					C15.1,44.66,15.22,44.61,15.2,44.52L15.2,44.52z"/>
			</g>
		</g>
		<g>
			<g>
				<path class="st4" d="M21.8,40.95c0.01,0,0.01,0,0.02,0.01c0.1,0.04,0.2-0.08,0.18-0.17c-0.03-0.1-0.17-0.14-0.24-0.06
					c0,0-0.01,0.01-0.01,0.01C21.67,40.81,21.7,40.92,21.8,40.95L21.8,40.95z"/>
			</g>
		</g>
		<g>
			<g>
				<path class="st4" d="M21.32,40.68c-0.22,0-0.22,0.34,0,0.34S21.54,40.68,21.32,40.68L21.32,40.68z"/>
			</g>
		</g>
		<g>
			<g>
				<path class="st4" d="M20.8,40.71c-0.22,0-0.22,0.33,0,0.33C21.02,41.04,21.02,40.71,20.8,40.71L20.8,40.71z"/>
			</g>
		</g>
		<g>
			<g>
				<path class="st4" d="M20.22,40.76c-0.24,0-0.24,0.37,0,0.37C20.46,41.13,20.46,40.76,20.22,40.76L20.22,40.76z"/>
			</g>
		</g>
		<g>
			<g>
				<path class="st4" d="M19.68,40.8c-0.22,0-0.22,0.33,0,0.33C19.9,41.13,19.9,40.8,19.68,40.8L19.68,40.8z"/>
			</g>
		</g>
		<g>
			<g>
				<path class="st4" d="M25.12,52.99c-0.15,0-0.15,0.23,0,0.23C25.27,53.22,25.27,52.99,25.12,52.99L25.12,52.99z"/>
			</g>
		</g>
		<g>
			<g>
				<path class="st4" d="M24.83,53.44c-0.16,0-0.16,0.25,0,0.25C24.99,53.69,24.99,53.44,24.83,53.44L24.83,53.44z"/>
			</g>
		</g>
		<g>
			<g>
				<path class="st4" d="M24.25,53.62c-0.19,0-0.19,0.29,0,0.29S24.44,53.62,24.25,53.62L24.25,53.62z"/>
			</g>
		</g>
		<g>
			<g>
				<path class="st4" d="M23.74,53.49c-0.22,0-0.22,0.34,0,0.34S23.96,53.49,23.74,53.49L23.74,53.49z"/>
			</g>
		</g>
		<g>
			<g>
				<path class="st4" d="M23.6,53.06c-0.2,0-0.2,0.3,0,0.3C23.8,53.36,23.8,53.06,23.6,53.06L23.6,53.06z"/>
			</g>
		</g>
		<g>
			<g>
				<path class="st4" d="M23.2,53.42c-0.19,0-0.19,0.29,0,0.29C23.39,53.71,23.39,53.42,23.2,53.42L23.2,53.42z"/>
			</g>
		</g>
		<g>
			<g>
				<path class="st4" d="M22.71,53.66c-0.23,0-0.23,0.36,0,0.36C22.95,54.02,22.95,53.66,22.71,53.66L22.71,53.66z"/>
			</g>
		</g>
		<g>
			<g>
				<path class="st4" d="M22.17,53.82c-0.21,0-0.21,0.32,0,0.32C22.38,54.14,22.38,53.82,22.17,53.82L22.17,53.82z"/>
			</g>
		</g>
		<g>
			<g>
				<path class="st4" d="M21.59,53.9c-0.22,0-0.22,0.34,0,0.34C21.81,54.24,21.81,53.9,21.59,53.9L21.59,53.9z"/>
			</g>
		</g>
		<g>
			<g>
				<path class="st4" d="M21.03,53.8c-0.21,0-0.21,0.32,0,0.32C21.24,54.12,21.24,53.8,21.03,53.8L21.03,53.8z"/>
			</g>
		</g>
		<g>
			<g>
				<path class="st4" d="M20.47,53.57c-0.26,0-0.26,0.39,0,0.39C20.72,53.96,20.72,53.57,20.47,53.57L20.47,53.57z"/>
			</g>
		</g>
		<g>
			<g>
				<path class="st4" d="M19.96,53.31c-0.23,0-0.23,0.35,0,0.35C20.19,53.66,20.19,53.31,19.96,53.31L19.96,53.31z"/>
			</g>
		</g>
		<g>
			<g>
				<path class="st4" d="M19.54,52.89c-0.2,0-0.2,0.31,0,0.31C19.74,53.2,19.74,52.89,19.54,52.89L19.54,52.89z"/>
			</g>
		</g>
		<g>
			<g>
				<path class="st4" d="M19.27,52.47c-0.18,0-0.18,0.27,0,0.27C19.45,52.74,19.45,52.47,19.27,52.47L19.27,52.47z"/>
			</g>
		</g>
		<g>
			<g>
				<path class="st4" d="M19.05,51.94c-0.19,0-0.19,0.29,0,0.29C19.24,52.22,19.24,51.94,19.05,51.94L19.05,51.94z"/>
			</g>
		</g>
		<g>
			<g>
				<path class="st4" d="M18.88,51.45c-0.2,0-0.2,0.3,0,0.3C19.08,51.76,19.08,51.45,18.88,51.45L18.88,51.45z"/>
			</g>
		</g>
		<g>
			<g>
				<path class="st4" d="M18.73,50.93c-0.17,0-0.17,0.26,0,0.26C18.9,51.18,18.9,50.93,18.73,50.93L18.73,50.93z"/>
			</g>
		</g>
		<g>
			<g>
				<path class="st4" d="M18.58,50.43c-0.14,0-0.14,0.22,0,0.22C18.73,50.64,18.73,50.43,18.58,50.43L18.58,50.43z"/>
			</g>
		</g>
		<g>
			<g>
				<path class="st4" d="M18.4,49.79c-0.22,0-0.22,0.34,0,0.34C18.62,50.13,18.62,49.79,18.4,49.79L18.4,49.79z"/>
			</g>
		</g>
		<g>
			<g>
				<path class="st4" d="M18.23,49.32c-0.18,0-0.18,0.27,0,0.27C18.41,49.59,18.41,49.32,18.23,49.32L18.23,49.32z"/>
			</g>
		</g>
		<g>
			<g>
				<path class="st6" d="M19.38,49.96c0.3,0,0.75,0.26,1.03,0.37c0.38,0.15,0.76,0.2,1.16,0.21c0.7,0.02,1.47-0.25,1.8-0.88
					c0.07-0.13-0.11-0.22-0.19-0.11c-0.68,0.96-1.89,0.81-2.86,0.45c-0.33-0.12-0.64-0.28-0.96-0.08
					C19.34,49.92,19.35,49.96,19.38,49.96L19.38,49.96z"/>
			</g>
		</g>
		<g>
			<path class="st2" d="M20.65,18.36c-0.01,0.23-0.01,0.47,0.02,0.7c-1.27,0.18-2.56,0.22-3.84,0.12c0.04-0.16,0.09-0.32,0.16-0.47
				c0.01-0.03,0.02-0.05,0.04-0.07c0.03-0.03,0.09-0.04,0.14-0.04C18.33,18.51,19.49,18.44,20.65,18.36z"/>
		</g>
		<g>
			<path class="st7" d="M18.48,21.91c0.26-0.04,0.52-0.05,0.78-0.03c-0.03-0.35-0.07-0.67-0.19-1c0.12,0.1,0.15,0.14,0.29,0.18
				c0.15,0.04,0.32,0.02,0.41-0.1c0.06-0.08,0.08-0.19,0.06-0.29c-0.12-0.43-0.74-1.1-1.03-1.45c-0.24,0.36-0.48,0.72-0.72,1.08
				c-0.07,0.11-0.15,0.21-0.21,0.32c-0.13,0.24-0.03,0.47,0.29,0.53c0.1,0.02,0.21-0.04,0.3-0.09c0.09-0.05,0.13-0.13,0.19-0.15
				c0.03-0.01-0.07,0.18-0.09,0.32C18.52,21.46,18.42,21.81,18.48,21.91z"/>
		</g>
		<g>
			<path class="st7" d="M14.76,6.86c-0.14,0.67-0.24,1.36-0.29,2.04c-0.03,0.39-0.04,0.78,0.01,1.17c0.04,0.35,0.13,0.68,0.18,1.03
				c0.11,0.71,0.06,1.43,0.02,2.14c-0.14,2.52-0.15,5.05-0.03,7.57c0.03,0.6-0.01,1.2-0.08,1.79c-0.08,0.65-0.13,1.31-0.36,1.93
				C14,25.13,13.64,25.95,13.07,26c-0.02,0.02-0.03,0.04-0.05,0.06c-0.01,0.1,0.28,0.17,0.46,0.16c2.09-0.19,2.73-1.17,3.1-2.48
				c0.47-1.63,0.62-2.68,0.76-4.03c0.15-1.48,0.25-2.97,0.12-4.45c-0.11-1.3-0.39-2.57-0.67-3.84c-0.12-0.52-0.23-1.04-0.35-1.57
				c-0.15-0.68-0.3-1.36-0.54-2.01c-0.18-0.49-0.55-1.04-1.07-0.97C14.81,6.94,14.8,7,14.78,7.06L14.76,6.86z"/>
		</g>
		<g>
			<path class="st7" d="M23.99,18.4c0.08-0.73,0.22-1.45,0.3-2.18c0.12-1.01,0.12-2.03,0.12-3.05c0-0.79-0.01-1.58-0.03-2.37
				c-0.01-0.46-0.02-0.92-0.1-1.37c-0.29-1.56-1.48-2.93-3-3.44c-0.46-0.16-1.08-0.19-1.33,0.22c-0.23,0.37-0.01,0.84,0.11,1.26
				c0.12,0.42,0.13,0.86,0.13,1.29c0.06,5.35-0.12,10.73,0.65,16.03c0.1,0.71,0.24,1.46,0.69,2.03c0.35,0.44,0.87,0.74,1.41,0.92
				c0.77,0.26,1.61,0.3,2.4,0.13c-0.62-0.71-0.79-1.68-0.92-2.6C24.09,22.99,23.74,20.69,23.99,18.4z"/>
		</g>
		<g>
			<defs>
				<path id="SVGID_00000011007521477428134200000003257308921358482367_" d="M14.76,6.86c-0.14,0.67-0.24,1.36-0.29,2.04
					c-0.03,0.39-0.04,0.78,0.01,1.17c0.04,0.35,0.13,0.68,0.18,1.03c0.11,0.71,0.06,1.43,0.02,2.14c-0.14,2.52-0.15,5.05-0.03,7.57
					c0.03,0.6-0.01,1.2-0.08,1.79c-0.08,0.65-0.13,1.31-0.36,1.93C14,25.13,13.64,25.95,13.07,26c-0.02,0.02-0.03,0.04-0.05,0.06
					c-0.01,0.1,0.28,0.17,0.46,0.16c2.09-0.19,2.73-1.17,3.1-2.48c0.47-1.63,0.62-2.68,0.76-4.03c0.15-1.48,0.25-2.97,0.12-4.45
					c-0.11-1.3-0.39-2.57-0.67-3.84c-0.12-0.52-0.23-1.04-0.35-1.57c-0.15-0.68-0.3-1.36-0.54-2.01c-0.18-0.49-0.55-1.04-1.07-0.97
					C14.81,6.94,14.8,7,14.78,7.06L14.76,6.86z"/>
			</defs>
			<clipPath id="SVGID_00000148633156499342336180000009741325568052561836_">
				<use xlink:href="#SVGID_00000011007521477428134200000003257308921358482367_"  style="overflow:visible;"/>
			</clipPath>
			<g style="clip-path:url(#SVGID_00000148633156499342336180000009741325568052561836_);">
				<g>
					<path class="st4" d="M12.48,26.33c1.46-0.18,2.29-1.01,2.84-2.33c0.38-0.9,0.42-1.93,0.46-2.89c0.06-1.34,0.04-2.72-0.05-4.06
						c-0.01-0.1-0.15-0.1-0.16,0c-0.2,2.99,1.03,8.33-3.11,9.14C12.39,26.21,12.4,26.34,12.48,26.33L12.48,26.33z"/>
				</g>
			</g>
			<g style="clip-path:url(#SVGID_00000148633156499342336180000009741325568052561836_);">
				<g>
					<path class="st4" d="M13.84,26.43c1.31,0.17,2.24-1.67,2.6-2.67c0.15-0.43,0.1-0.96,0.13-1.4c0.03-0.48,0.15-0.96,0.19-1.44
						c0.09-1.15,0.19-2.38,0.16-3.53c0-0.05-0.09-0.07-0.1-0.01c-0.24,1.56-0.2,3.14-0.39,4.7c-0.12,0.97-0.19,1.76-0.68,2.64
						c-0.44,0.78-1,1.44-1.92,1.65C13.79,26.38,13.81,26.43,13.84,26.43L13.84,26.43z"/>
				</g>
			</g>
		</g>
		<g>
			<defs>
				<path id="SVGID_00000090998140850661352270000008955422381184617371_" d="M23.99,18.4c0.08-0.73,0.22-1.45,0.3-2.18
					c0.12-1.01,0.12-2.03,0.12-3.05c0-0.79-0.01-1.58-0.03-2.37c-0.01-0.46-0.02-0.92-0.1-1.37c-0.29-1.56-1.48-2.93-3-3.44
					c-0.46-0.16-1.08-0.19-1.33,0.22c-0.23,0.37-0.01,0.84,0.11,1.26c0.12,0.42,0.13,0.86,0.13,1.29
					c0.06,5.35-0.12,10.73,0.65,16.03c0.1,0.71,0.24,1.46,0.69,2.03c0.35,0.44,0.87,0.74,1.41,0.92c0.77,0.26,1.61,0.3,2.4,0.13
					c-0.62-0.71-0.79-1.68-0.92-2.6C24.09,22.99,23.74,20.69,23.99,18.4z"/>
			</defs>
			<clipPath id="SVGID_00000097489446189447382330000017852962501756639917_">
				<use xlink:href="#SVGID_00000090998140850661352270000008955422381184617371_"  style="overflow:visible;"/>
			</clipPath>
			<g style="clip-path:url(#SVGID_00000097489446189447382330000017852962501756639917_);">
				<g>
					<path class="st4" d="M21.46,13.11c-0.49,1.08-0.4,2.59-0.53,3.76c-0.2,1.72-0.09,3.5,0.02,5.22c0.14,2.1,0.6,5.77,3.02,6.55
						c0.03,0.01,0.05-0.03,0.02-0.05c-2.36-1.61-2.7-4.65-2.85-7.26c-0.08-1.37-0.13-2.75-0.03-4.11c0.05-0.71,0.16-1.41,0.23-2.12
						c0.07-0.61-0.01-1.39,0.16-1.97C21.52,13.1,21.47,13.08,21.46,13.11L21.46,13.11z"/>
				</g>
			</g>
			<g style="clip-path:url(#SVGID_00000097489446189447382330000017852962501756639917_);">
				<g>
					<path class="st4" d="M22.29,13.59c-0.54,1.41-0.6,3.22-0.62,4.71c-0.02,1.6,0.11,3.22,0.35,4.8c0.33,2.11,1.12,4.8,3.62,5.12
						c0.07,0.01,0.09-0.1,0.03-0.12c-1.19-0.54-2.05-1.25-2.56-2.47c-0.44-1.08-0.69-2.31-0.84-3.45c-0.38-2.91-0.11-5.66,0.15-8.57
						C22.44,13.53,22.31,13.52,22.29,13.59L22.29,13.59z"/>
				</g>
			</g>
			<g style="clip-path:url(#SVGID_00000097489446189447382330000017852962501756639917_);">
				<g>
					<path class="st4" d="M23.37,14.13c-0.61,0.13-0.58,1.14-0.63,1.62c-0.19,1.81-0.13,3.58,0.08,5.38
						c0.34,2.85,1.14,5.59,3.69,7.23c0.09,0.06,0.18-0.05,0.14-0.14c-0.19-0.38-0.47-0.62-0.8-0.88c-0.53-0.43-0.96-0.93-1.34-1.5
						c-0.77-1.17-1.04-2.69-1.29-4.04c-0.26-1.4-0.32-2.82-0.3-4.24c0.01-0.65,0.07-1.28,0.13-1.93c0.04-0.47-0.01-1.07,0.36-1.43
						C23.45,14.16,23.41,14.12,23.37,14.13L23.37,14.13z"/>
				</g>
			</g>
			<g style="clip-path:url(#SVGID_00000097489446189447382330000017852962501756639917_);">
				<g>
					<path class="st4" d="M23.77,15.29c-0.52,2.4-0.48,5.2,0.73,7.41c0.02,0.04,0.1,0.01,0.08-0.03c-0.92-2.29-0.79-4.95-0.71-7.37
						C23.88,15.24,23.78,15.23,23.77,15.29L23.77,15.29z"/>
				</g>
			</g>
		</g>
		<g>
			<path class="st10" d="M20.78,6.83c-0.39-0.39-0.8-0.8-1.32-0.98c-0.25-0.09-0.5-0.12-0.76-0.15c-1.13-0.15-2.32-0.29-3.37,0.15
				C15.21,5.89,15.09,5.94,15,6.03c-0.1,0.1-0.16,0.23-0.21,0.36c-0.42,1.07-0.15,2.29,0.28,3.35c0.05,0.13,0.11,0.27,0.12,0.41
				c0.01,0.25-0.13,0.47-0.27,0.68c-0.81,1.25-1.56,2.6-1.76,4.07c-0.01,0.08,0.03,0.16,0.11,0.19c0.22,0.07,0.49-0.02,0.71-0.12
				c0.4-0.18,0.81-0.35,1.21-0.52c0.04,1.26,0.27,2.52,0.66,3.72c0.06,0.19,0.14,0.39,0.29,0.52c0.3,0.26,0.77,0.15,1.13-0.02
				c0.59-0.28,1.11-0.7,1.62-1.11c0.35-0.28,0.69-0.56,0.97-0.9c0.31-0.38,0.51-0.83,0.69-1.28c0.89-2.24,1.23-4.69,0.98-7.08
				c-0.02-0.21-0.05-0.42-0.12-0.62C21.29,7.35,21.03,7.08,20.78,6.83z"/>
		</g>
		<g>
			<path class="st4" d="M16.79,15.55c-0.23,0.02-1.23-0.03-1.51-0.15c-0.19-0.08-0.31,0.07-0.35,0.14
				c-0.06,0.09,0.04,0.21,0.14,0.23c0.11,0.03,0.13,0.03,0.22,0.08c-0.09,0.12-0.2,0.16-0.19,0.31c0,0.11,0.13,0.18,0.24,0.18
				c0.11-0.01,0.21-0.07,0.3-0.13C16.04,15.97,16.35,15.72,16.79,15.55z"/>
		</g>
		<g>
			<path class="st7" d="M16.57,14.66c0.11,0.17,0.33,0.14,0.44,0.03c0.12-0.11,0.01-0.34-0.16-0.35
				C16.7,14.34,16.56,14.5,16.57,14.66z"/>
		</g>
		<g>
			<path class="st0" d="M20.03,9.94c-0.3,0.19-0.6,0.38-0.93,0.51c-0.88,0.35-1.93,0.23-2.7-0.3c0.18-0.38,0.58-0.61,0.99-0.73
				C18.28,9.14,19.33,9.31,20.03,9.94z"/>
		</g>
		<g>
			<path class="st7" d="M18.36,10.29c0.19-0.04,0.33-0.23,0.3-0.42c-0.03-0.19-0.22-0.33-0.41-0.32c-0.13,0.01-0.54,0.1-0.44,0.5
				c0.04,0.14,0.21,0.2,0.35,0.23C18.23,10.3,18.29,10.31,18.36,10.29z"/>
		</g>
		<g>
			<path class="st7" d="M20.02,8.14c-0.41-0.32-0.95-0.39-1.47-0.4c-0.52-0.01-0.98,0.06-1.46,0.2C16.87,8,16.29,8.22,16.03,8.45
				c-0.31,0.28-0.27,0.39-0.08,0.71c0.04,0.06,0.11,0.1,0.18,0.08c0.17-0.04,0.34-0.2,0.47-0.29c0.73-0.53,2.17-0.83,3.27-0.51
				C20.05,8.48,20.16,8.26,20.02,8.14z"/>
		</g>
		<g>
			<path class="st2" d="M19.73,3.99c-0.11-0.09-0.25-0.24-0.18-0.36c0.04-0.07,0.03-0.18,0.11-0.2c0.94-0.24,2.04-0.17,2.95,0.14
				c0.91,0.31,1.73,0.94,2.18,1.78c0.42,0.77,0.52,1.66,0.58,2.53c0.2,3.07-1.19,6.04,0.63,9.58c-0.97-0.05-1.84-0.71-2.54-1.37
				c-0.68-0.65-1.03-0.78-1.79-1.74c-0.07-0.09-0.61-0.49-0.58-0.6c0.08-0.4,0.22-0.52,0.34-1.5c0.1-0.83-0.03-0.94,0.02-1.78
				c0.08-1.14-0.17-2.27-0.24-3.41c-0.02-0.32-0.05-0.63-0.13-0.94C20.89,5.29,20.4,4.53,19.73,3.99z"/>
		</g>
		<g>
			<path class="st4" d="M25.83,17.99c0.15,0.07,0.34,0.05,0.47-0.05c0.13-0.1,0.19-0.29,0.13-0.44c-0.07-0.19-0.31-0.3-0.5-0.23
				c-0.11,0.04-0.2,0.13-0.25,0.23c-0.06,0.12-0.08,0.29,0.01,0.4C25.73,17.94,25.77,17.97,25.83,17.99z"/>
		</g>
		<g>
			<path class="st6" d="M21.47,11.7c0.21-1.51,0.32-3.03,0.34-4.55c0.01-0.53,0-1.06-0.11-1.57c-0.1-0.46-0.29-0.91-0.48-1.35
				c-0.34-0.8-0.69-1.6-1.03-2.41c-0.61,0.88-1.21,1.77-1.79,2.67c-0.24-1-0.66-1.97-1.25-2.82c-0.32,0.78-0.72,1.95-1.04,2.72
				c-0.42-0.61-0.87-1.53-1.5-1.94c-0.24,1.39-0.57,1.95-0.46,3.78c0.01,0.17,0.29,1.21,0.46,1.16c0.05-0.26,0.09-0.53,0.21-0.77
				c0.07-0.14,0.16-0.28,0.3-0.34c0.21-0.09,0.47,0.01,0.61,0.19c0.15,0.17,0.21,0.4,0.26,0.62c0.29-0.59,0.89-1.01,1.54-1.12
				c0.65-0.11,1.34,0.08,1.86,0.49c0.76,0.61,1.07,1.6,1.35,2.52C21.01,9.93,21.2,10.79,21.47,11.7z"/>
		</g>
		<g>
			<path class="st4" d="M14.52,1.23c-0.03,0.02-0.04,0.04-0.06,0.07c-0.21,0.39-0.36,0.81-0.43,1.24c0.37-0.04,0.74-0.07,1.11-0.11
				C15.23,2.42,14.54,1.22,14.52,1.23z"/>
		</g>
		<g>
			<path class="st4" d="M17.23,0.46c-0.03,0.01-0.05,0.04-0.06,0.07c-0.23,0.37-0.41,0.78-0.51,1.21c0.37-0.01,0.74-0.03,1.11-0.04
				C17.86,1.69,17.25,0.45,17.23,0.46z"/>
		</g>
		<g>
			<path class="st4" d="M20.4,0.64c-0.03,0.01-0.05,0.04-0.07,0.06c-0.27,0.35-0.47,0.75-0.6,1.17c0.37,0.02,0.74,0.03,1.11,0.05
				C20.93,1.92,20.43,0.63,20.4,0.64z"/>
		</g>
		<g>
			<g>
				<path class="st7" d="M15.08,14.72c0.11-0.06,0.22-0.1,0.33-0.18c0.11-0.08,0.23-0.16,0.34-0.24c0.22-0.17,0.4-0.38,0.42-0.66
					c0.01-0.18-0.09-0.38-0.25-0.47c-0.17-0.09-0.42,0-0.42,0.2c0,0.04,0.03,0.07,0.06,0.08c0.11,0.03,0.23-0.06,0.31,0.04
					c0.14,0.18-0.06,0.41-0.18,0.53c-0.12,0.12-0.26,0.21-0.4,0.31c-0.14,0.1-0.18,0.18-0.26,0.33C15,14.7,15.04,14.74,15.08,14.72
					L15.08,14.72z"/>
			</g>
		</g>
		<g>
			<g>
				<path class="st7" d="M19.07,13.86c1.53,0.35,2.51-1.15,2.44-2.52c0-0.05-0.07-0.06-0.08-0.01c-0.17,0.73-0.32,1.45-0.88,1.99
					c-0.38,0.36-0.95,0.5-1.46,0.44C19.02,13.75,19.01,13.84,19.07,13.86L19.07,13.86z"/>
			</g>
		</g>
		<g>
			<g>
				<path class="st5" d="M15.33,5.55c-0.05-0.24-0.06-0.5-0.08-0.75c-0.01-0.21,0.05-0.41,0-0.62c-0.06-0.3-0.59-0.24-0.55,0.08
					c0.06,0.49,0.23,0.9,0.41,1.35C15.17,5.74,15.37,5.69,15.33,5.55L15.33,5.55z"/>
			</g>
		</g>
		<g>
			<g>
				<path class="st5" d="M17.11,5.35c0.15-0.49,0.36-1.03,0.34-1.56c-0.01-0.19-0.28-0.35-0.42-0.17c-0.16,0.2-0.13,0.41-0.14,0.66
					c-0.02,0.34-0.1,0.68-0.13,1.02C16.73,5.51,17.05,5.53,17.11,5.35L17.11,5.35z"/>
			</g>
		</g>
		<g>
			<g>
				<path class="st5" d="M19.58,5.75c0.29-0.23,0.38-0.53,0.54-0.85c0.15-0.31,0.37-0.61,0.29-0.97c-0.08-0.35-0.53-0.28-0.64,0
					c-0.22,0.57-0.4,1.11-0.43,1.72C19.33,5.78,19.49,5.82,19.58,5.75L19.58,5.75z"/>
			</g>
		</g>
		<g>
			<g>
				<path class="st4" d="M22.27,4.31c0,0.07,0.01,0.14,0.03,0.2c0.05,0.12,0.22,0.05,0.17-0.07c-0.02-0.04-0.02-0.09-0.02-0.13
					C22.45,4.19,22.27,4.2,22.27,4.31L22.27,4.31z"/>
			</g>
		</g>
		<g>
			<g>
				<path class="st4" d="M23.6,5.73c-0.01,0.1-0.01,0.19,0.02,0.29c0.06,0.18,0.32,0.07,0.24-0.1c-0.02-0.05-0.03-0.11-0.03-0.16
					C23.83,5.63,23.62,5.6,23.6,5.73L23.6,5.73z"/>
			</g>
		</g>
		<g>
			<g>
				<path class="st4" d="M22.48,7.55c-0.03,0.09-0.01,0.19,0,0.29c0.03,0.19,0.33,0.11,0.3-0.08c-0.02-0.1-0.05-0.18-0.11-0.25
					C22.61,7.43,22.51,7.48,22.48,7.55L22.48,7.55z"/>
			</g>
		</g>
		<g>
			<g>
				<path class="st4" d="M24.78,7.65c-0.03,0.08-0.01,0.21,0,0.3c0.02,0.15,0.26,0.09,0.23-0.06c-0.02-0.09-0.03-0.2-0.1-0.27
					C24.87,7.57,24.8,7.6,24.78,7.65L24.78,7.65z"/>
			</g>
		</g>
		<g>
			<g>
				<path class="st4" d="M23.91,9.49c-0.04,0.12-0.04,0.27,0.03,0.38c0.04,0.07,0.17,0.04,0.16-0.04c-0.01-0.1-0.05-0.19-0.01-0.29
					C24.12,9.43,23.95,9.39,23.91,9.49L23.91,9.49z"/>
			</g>
		</g>
		<g>
			<g>
				<path class="st4" d="M22.1,10.65c-0.01,0.13-0.07,0.25-0.02,0.38c0.04,0.11,0.24,0.14,0.27,0c0.02-0.16-0.02-0.31-0.13-0.43
					C22.18,10.54,22.1,10.59,22.1,10.65L22.1,10.65z"/>
			</g>
		</g>
		<g>
			<g>
				<path class="st4" d="M23.54,12.45c-0.03,0.12-0.06,0.24-0.03,0.36c0.03,0.13,0.22,0.13,0.26,0c0.04-0.14,0-0.29-0.1-0.4
					C23.64,12.37,23.56,12.39,23.54,12.45L23.54,12.45z"/>
			</g>
		</g>
		<g>
			<g>
				<path class="st4" d="M21.65,13.85c-0.02,0.11-0.02,0.2,0,0.3c0.01,0.08,0.11,0.12,0.18,0.1c0.09-0.02,0.12-0.1,0.1-0.18
					c-0.02-0.11-0.07-0.19-0.16-0.26C21.74,13.79,21.66,13.79,21.65,13.85L21.65,13.85z"/>
			</g>
		</g>
		<g>
			<g>
				<path class="st4" d="M24.85,11.45c-0.01,0.11-0.03,0.2,0.04,0.3c0.02,0.03,0.06,0.03,0.08,0c0.07-0.09,0.08-0.19,0.09-0.3
					C25.07,11.32,24.86,11.32,24.85,11.45L24.85,11.45z"/>
			</g>
		</g>
		<g>
			<g>
				<path class="st4" d="M24.45,15.21c0.03,0.14-0.03,0.28,0.02,0.41c0.04,0.1,0.17,0.1,0.21,0c0.06-0.14-0.01-0.35-0.08-0.47
					C24.55,15.07,24.43,15.12,24.45,15.21L24.45,15.21z"/>
			</g>
		</g>
		<g>
			<g>
				<path class="st4" d="M17.85,18.77c-0.01,0-0.01,0-0.02-0.01c-0.1-0.04-0.2,0.08-0.18,0.17c0.03,0.1,0.17,0.14,0.24,0.06
					c0,0,0.01-0.01,0.01-0.01C17.98,18.91,17.95,18.81,17.85,18.77L17.85,18.77z"/>
			</g>
		</g>
		<g>
			<g>
				<path class="st4" d="M18.33,19.05c0.22,0,0.22-0.34,0-0.34C18.11,18.71,18.11,19.05,18.33,19.05L18.33,19.05z"/>
			</g>
		</g>
		<g>
			<g>
				<path class="st4" d="M18.85,19.02c0.22,0,0.22-0.33,0-0.33C18.63,18.69,18.63,19.02,18.85,19.02L18.85,19.02z"/>
			</g>
		</g>
		<g>
			<g>
				<path class="st4" d="M19.43,18.97c0.24,0,0.24-0.37,0-0.37C19.19,18.6,19.19,18.97,19.43,18.97L19.43,18.97z"/>
			</g>
		</g>
		<g>
			<g>
				<path class="st4" d="M19.97,18.93c0.22,0,0.22-0.33,0-0.33C19.75,18.6,19.75,18.93,19.97,18.93L19.97,18.93z"/>
			</g>
		</g>
		<g>
			<g>
				<path class="st4" d="M14.53,6.74c0.15,0,0.15-0.23,0-0.23C14.38,6.51,14.38,6.74,14.53,6.74L14.53,6.74z"/>
			</g>
		</g>
		<g>
			<g>
				<path class="st4" d="M14.83,6.29c0.16,0,0.16-0.25,0-0.25C14.67,6.04,14.67,6.29,14.83,6.29L14.83,6.29z"/>
			</g>
		</g>
		<g>
			<g>
				<path class="st4" d="M15.4,6.11c0.19,0,0.19-0.29,0-0.29C15.21,5.82,15.21,6.11,15.4,6.11L15.4,6.11z"/>
			</g>
		</g>
		<g>
			<g>
				<path class="st4" d="M15.91,6.24c0.22,0,0.22-0.34,0-0.34C15.69,5.9,15.69,6.24,15.91,6.24L15.91,6.24z"/>
			</g>
		</g>
		<g>
			<g>
				<path class="st4" d="M16.05,6.67c0.2,0,0.2-0.3,0-0.3C15.86,6.37,15.86,6.67,16.05,6.67L16.05,6.67z"/>
			</g>
		</g>
		<g>
			<g>
				<path class="st4" d="M16.45,6.31c0.19,0,0.19-0.29,0-0.29C16.26,6.02,16.26,6.31,16.45,6.31L16.45,6.31z"/>
			</g>
		</g>
		<g>
			<g>
				<path class="st4" d="M16.94,6.07c0.24,0,0.24-0.36,0-0.36C16.71,5.71,16.71,6.07,16.94,6.07L16.94,6.07z"/>
			</g>
		</g>
		<g>
			<g>
				<path class="st4" d="M17.48,5.91c0.21,0,0.21-0.32,0-0.32C17.27,5.59,17.27,5.91,17.48,5.91L17.48,5.91z"/>
			</g>
		</g>
		<g>
			<g>
				<path class="st4" d="M18.07,5.82c0.22,0,0.22-0.34,0-0.34C17.84,5.49,17.84,5.82,18.07,5.82L18.07,5.82z"/>
			</g>
		</g>
		<g>
			<g>
				<path class="st4" d="M18.63,5.93c0.21,0,0.21-0.32,0-0.32C18.42,5.61,18.42,5.93,18.63,5.93L18.63,5.93z"/>
			</g>
		</g>
		<g>
			<g>
				<path class="st4" d="M19.19,6.16c0.26,0,0.26-0.39,0-0.39C18.93,5.77,18.93,6.16,19.19,6.16L19.19,6.16z"/>
			</g>
		</g>
		<g>
			<g>
				<path class="st4" d="M19.69,6.42c0.23,0,0.23-0.35,0-0.35C19.46,6.07,19.46,6.42,19.69,6.42L19.69,6.42z"/>
			</g>
		</g>
		<g>
			<g>
				<path class="st4" d="M20.11,6.84c0.2,0,0.2-0.31,0-0.31C19.91,6.53,19.91,6.84,20.11,6.84L20.11,6.84z"/>
			</g>
		</g>
		<g>
			<g>
				<path class="st4" d="M20.38,7.25c0.17,0,0.17-0.27,0-0.27C20.2,6.99,20.2,7.25,20.38,7.25L20.38,7.25z"/>
			</g>
		</g>
		<g>
			<g>
				<path class="st4" d="M20.6,7.79c0.19,0,0.19-0.29,0-0.29C20.42,7.51,20.42,7.79,20.6,7.79L20.6,7.79z"/>
			</g>
		</g>
		<g>
			<g>
				<path class="st4" d="M20.78,8.28c0.2,0,0.2-0.3,0-0.3C20.58,7.97,20.58,8.28,20.78,8.28L20.78,8.28z"/>
			</g>
		</g>
		<g>
			<g>
				<path class="st4" d="M20.92,8.8c0.17,0,0.17-0.25,0-0.25C20.75,8.55,20.75,8.8,20.92,8.8L20.92,8.8z"/>
			</g>
		</g>
		<g>
			<g>
				<path class="st4" d="M21.07,9.3c0.14,0,0.14-0.22,0-0.22C20.93,9.08,20.93,9.3,21.07,9.3L21.07,9.3z"/>
			</g>
		</g>
		<g>
			<g>
				<path class="st4" d="M21.26,9.94c0.22,0,0.22-0.34,0-0.34S21.03,9.94,21.26,9.94L21.26,9.94z"/>
			</g>
		</g>
		<g>
			<g>
				<path class="st4" d="M21.42,10.41c0.18,0,0.18-0.27,0-0.27C21.24,10.14,21.24,10.41,21.42,10.41L21.42,10.41z"/>
			</g>
		</g>
		<g>
			<g>
				<path class="st6" d="M20.28,9.76c-0.3,0-0.75-0.26-1.03-0.37c-0.38-0.15-0.76-0.2-1.16-0.21c-0.7-0.02-1.47,0.25-1.8,0.88
					c-0.07,0.13,0.11,0.23,0.19,0.11c0.68-0.96,1.89-0.81,2.86-0.45c0.33,0.12,0.64,0.28,0.96,0.08C20.32,9.8,20.31,9.76,20.28,9.76
					L20.28,9.76z"/>
			</g>
		</g>
		<g>
			<path class="st6" d="M4.2,15.49C4.2,15.49,4.2,15.48,4.2,15.49C4.19,15.48,4.19,15.49,4.2,15.49L4.2,15.49z"/>
		</g>
		<g>
			<path class="st6" d="M4.78,15.63C4.79,15.63,4.79,15.63,4.78,15.63C4.78,15.63,4.78,15.63,4.78,15.63L4.78,15.63z"/>
		</g>
		<g>
			<path class="st6" d="M8.15,18.6c-0.01,0.01-0.01,0.02-0.01,0.02c-0.06,0.1-0.02,0.22,0.07,0.28c0.01,0.01,0.02,0.01,0.02,0.02
				c0.18,0.11,0.4-0.07,0.35-0.26C8.52,18.46,8.25,18.42,8.15,18.6L8.15,18.6z"/>
		</g>
		<g>
			<path class="st6" d="M9.25,19.09c0,0.02-0.01,0.04-0.01,0.05c-0.05,0.28,0.36,0.4,0.44,0.12c0-0.02,0.01-0.04,0.02-0.05
				C9.78,18.92,9.3,18.8,9.25,19.09L9.25,19.09z"/>
		</g>
		<g>
			<path class="st6" d="M9.23,18.27c0.23,0,0.23-0.36,0-0.36C9,17.91,9,18.27,9.23,18.27L9.23,18.27z"/>
		</g>
		<g>
			<path class="st6" d="M7.72,20.46c0,0-0.01,0-0.01,0c0.05,0.04,0.14,0.01,0.17-0.04c0-0.01,0.01-0.02,0.01-0.03
				c0.03-0.06,0.02-0.17-0.05-0.2c-0.01-0.01-0.02-0.01-0.04-0.02C7.56,20.07,7.47,20.44,7.72,20.46L7.72,20.46z"/>
		</g>
		<g>
			<path class="st6" d="M7.08,19.42c0.01,0,0.02,0,0.04-0.01c0.17-0.03,0.15-0.24,0.04-0.31c-0.01-0.01-0.02-0.02-0.03-0.02
				C6.87,18.9,6.69,19.49,7.08,19.42L7.08,19.42z"/>
		</g>
		<g>
			<path class="st6" d="M8.87,20.38c-0.01,0.01-0.02,0.02-0.03,0.02c-0.08,0.07-0.04,0.21,0.06,0.24c0.01,0,0.02,0,0.03,0.01
				C9.26,20.72,9.14,20.16,8.87,20.38L8.87,20.38z"/>
		</g>
		<g>
			<path class="st6" d="M8.28,19.8c0.01-0.01,0.03-0.02,0.04-0.02c0.21-0.12-0.06-0.42-0.21-0.21c-0.01,0.01-0.02,0.03-0.02,0.04
				C8,19.73,8.16,19.87,8.28,19.8L8.28,19.8z"/>
		</g>
		<g>
			<path class="st6" d="M10.6,19.93c0.01,0,0.01-0.02,0-0.02C10.58,19.91,10.58,19.93,10.6,19.93L10.6,19.93z"/>
		</g>
		<g>
			<path class="st6" d="M10.55,20.19c0.23,0,0.23-0.35,0-0.35C10.32,19.84,10.32,20.19,10.55,20.19L10.55,20.19z"/>
		</g>
		<g>
			<path class="st6" d="M10.31,18.88c0.22,0,0.22-0.33,0-0.33C10.09,18.55,10.09,18.88,10.31,18.88L10.31,18.88z"/>
		</g>
		<g>
			<path class="st6" d="M7.62,17.96c0.01,0.01,0.03,0.02,0.04,0.03c0.03,0.02,0.08,0.02,0.11,0c0.01-0.01,0.03-0.02,0.04-0.03
				c0.15-0.11,0.11-0.35-0.1-0.35C7.51,17.61,7.47,17.86,7.62,17.96L7.62,17.96z"/>
		</g>
		<g>
			<path class="st6" d="M6.7,21.29c0.27,0,0.27-0.42,0-0.42C6.42,20.87,6.42,21.29,6.7,21.29L6.7,21.29z"/>
		</g>
		<g>
			<path class="st6" d="M7.71,21.43c0,0.02-0.01,0.04-0.02,0.06c-0.01,0.05,0.03,0.1,0.09,0.08c0.02-0.01,0.04-0.01,0.06-0.02
				C8.06,21.5,7.77,21.22,7.71,21.43L7.71,21.43z"/>
		</g>
		<g>
			<path class="st6" d="M6.3,22.5c-0.02,0-0.03,0-0.05-0.01c-0.22-0.02-0.22,0.36,0,0.33c0.02,0,0.03,0,0.05-0.01
				C6.51,22.8,6.51,22.52,6.3,22.5L6.3,22.5z"/>
		</g>
		<g>
			<path class="st6" d="M6.15,26.24c0.21,0,0.21-0.31,0-0.31C5.95,25.93,5.95,26.24,6.15,26.24L6.15,26.24z"/>
		</g>
		<g>
			<path class="st6" d="M6.54,26.87c0.22,0,0.22-0.33,0-0.33C6.33,26.54,6.33,26.87,6.54,26.87L6.54,26.87z"/>
		</g>
		<g>
			<path class="st6" d="M6.08,27.42c-0.03,0-0.06,0.01-0.09,0.01c-0.05,0.01-0.05,0.1,0,0.11c0.03,0,0.06,0.01,0.09,0.01
				C6.2,27.56,6.2,27.4,6.08,27.42L6.08,27.42z"/>
		</g>
		<g>
			<path class="st6" d="M6.3,24.69c-0.01,0-0.03,0-0.04,0c-0.23,0.02-0.15,0.36,0.04,0.29c0.01,0,0.03-0.01,0.04-0.01
				C6.48,24.92,6.47,24.67,6.3,24.69L6.3,24.69z"/>
		</g>
		<g>
			<path class="st6" d="M6.23,31.62c0-0.02,0-0.03,0-0.05c-0.04-0.44-0.61,0.12-0.17,0.17c0.02,0,0.03,0,0.05,0
				C6.17,31.75,6.23,31.68,6.23,31.62L6.23,31.62z"/>
		</g>
		<g>
			<path class="st6" d="M6.69,32.18c0.16,0,0.16-0.25,0-0.25C6.53,31.93,6.53,32.18,6.69,32.18L6.69,32.18z"/>
		</g>
		<g>
			<path class="st6" d="M6.2,33.34c0.23,0,0.23-0.36,0-0.36C5.97,32.98,5.97,33.34,6.2,33.34L6.2,33.34z"/>
		</g>
		<g>
			<path class="st6" d="M6.87,33.79c0.01-0.01,0.02-0.02,0.03-0.02c0.09-0.06,0.09-0.19,0-0.25c-0.01-0.01-0.02-0.02-0.03-0.02
				C6.55,33.28,6.55,34.01,6.87,33.79L6.87,33.79z"/>
		</g>
		<g>
			<path class="st6" d="M7.54,33.73c0.01,0.03,0.02,0.06,0.03,0.09c0.03,0.09,0.16,0.09,0.19,0c0.01-0.03,0.02-0.06,0.03-0.09
				C7.87,33.52,7.46,33.52,7.54,33.73L7.54,33.73z"/>
		</g>
		<g>
			<path class="st6" d="M7.03,34.85c0.19,0,0.19-0.29,0-0.29C6.84,34.56,6.84,34.85,7.03,34.85L7.03,34.85z"/>
		</g>
		<g>
			<path class="st6" d="M6.35,34.54c0.16,0,0.16-0.24,0-0.24C6.19,34.29,6.19,34.54,6.35,34.54L6.35,34.54z"/>
		</g>
		<g>
			<path class="st6" d="M6.35,35.32c-0.01,0-0.03,0-0.04,0.01c-0.21,0.03-0.12,0.38,0.09,0.31c0.01,0,0.03-0.01,0.04-0.01
				C6.64,35.56,6.56,35.29,6.35,35.32L6.35,35.32z"/>
		</g>
		<g>
			<path class="st6" d="M7.23,39.48c0.2,0,0.2-0.31,0-0.31C7.02,39.17,7.02,39.48,7.23,39.48L7.23,39.48z"/>
		</g>
		<g>
			<path class="st6" d="M7.72,40.4c0.21,0,0.21-0.32,0-0.32C7.51,40.08,7.51,40.4,7.72,40.4L7.72,40.4z"/>
		</g>
		<g>
			<path class="st6" d="M8.5,40.21c0.21,0,0.21-0.31,0-0.31C8.29,39.89,8.29,40.21,8.5,40.21L8.5,40.21z"/>
		</g>
		<g>
			<path class="st6" d="M9.28,39.71c0.19,0,0.19-0.29,0-0.29C9.09,39.42,9.09,39.71,9.28,39.71L9.28,39.71z"/>
		</g>
		<g>
			<path class="st6" d="M9.38,40.62c0.17,0,0.17-0.27,0-0.27C9.2,40.35,9.2,40.62,9.38,40.62L9.38,40.62z"/>
		</g>
		<g>
			<path class="st6" d="M8.64,41.3c0.19,0,0.19-0.29,0-0.29C8.46,41.01,8.46,41.3,8.64,41.3L8.64,41.3z"/>
		</g>
		<g>
			<path class="st6" d="M7.72,41.6c0.19,0,0.19-0.3,0-0.3C7.52,41.3,7.52,41.6,7.72,41.6L7.72,41.6z"/>
		</g>
		<g>
			<path class="st6" d="M8.55,42.2c0.17,0,0.17-0.26,0-0.26C8.38,41.94,8.38,42.2,8.55,42.2L8.55,42.2z"/>
		</g>
		<g>
			<path class="st6" d="M9.52,41.92c0.18,0,0.18-0.28,0-0.28C9.34,41.65,9.34,41.92,9.52,41.92L9.52,41.92z"/>
		</g>
		<g>
			<path class="st6" d="M10.21,41.37c0.22,0,0.22-0.33,0-0.33C9.99,41.04,9.99,41.37,10.21,41.37L10.21,41.37z"/>
		</g>
		<g>
			<path class="st6" d="M10.26,40.33c0.18,0,0.18-0.28,0-0.28C10.08,40.06,10.08,40.33,10.26,40.33L10.26,40.33z"/>
		</g>
		<g>
			<path class="st6" d="M10.89,40.75c0.15,0,0.15-0.23,0-0.23C10.74,40.51,10.74,40.75,10.89,40.75L10.89,40.75z"/>
		</g>
		<g>
			<path class="st6" d="M11.09,40.25c0.14,0,0.14-0.21,0-0.21C10.95,40.04,10.95,40.25,11.09,40.25L11.09,40.25z"/>
		</g>
		<g>
			<path class="st6" d="M29.12,19.35c0.27,0,0.27-0.41,0-0.41C28.85,18.94,28.85,19.35,29.12,19.35L29.12,19.35z"/>
		</g>
		<g>
			<path class="st6" d="M29.8,18.57c0.25,0,0.25-0.38,0-0.38C29.55,18.19,29.55,18.57,29.8,18.57L29.8,18.57z"/>
		</g>
		<g>
			<path class="st6" d="M30.58,19.4c0.27,0,0.27-0.42,0-0.42C30.31,18.99,30.31,19.4,30.58,19.4L30.58,19.4z"/>
		</g>
		<g>
			<path class="st6" d="M30.09,20.15c0.24,0,0.24-0.37,0-0.37C29.85,19.78,29.85,20.15,30.09,20.15L30.09,20.15z"/>
		</g>
		<g>
			<path class="st6" d="M30.92,18.25c0.15,0,0.15-0.23,0-0.23C30.78,18.02,30.78,18.25,30.92,18.25L30.92,18.25z"/>
		</g>
		<g>
			<path class="st6" d="M30.92,17.62c0.15,0,0.15-0.22,0-0.22C30.78,17.4,30.78,17.62,30.92,17.62L30.92,17.62z"/>
		</g>
		<g>
			<path class="st6" d="M31.82,17.32c-0.01,0.01-0.02,0.01-0.03,0.02c-0.13,0.09-0.07,0.25,0.08,0.27c0.01,0,0.03,0,0.04,0
				C32.17,17.65,32.06,17.17,31.82,17.32L31.82,17.32z"/>
		</g>
		<g>
			<path class="st6" d="M32,18.55c0.23,0,0.23-0.35,0-0.35C31.77,18.2,31.77,18.55,32,18.55L32,18.55z"/>
		</g>
		<g>
			<path class="st6" d="M31.45,19.07c0,0.02-0.01,0.04-0.01,0.06c-0.01,0.05,0.03,0.1,0.09,0.08c0.02,0,0.04-0.01,0.06-0.01
				C31.83,19.16,31.5,18.84,31.45,19.07L31.45,19.07z"/>
		</g>
		<g>
			<path class="st6" d="M31.32,20.27c0.27,0,0.27-0.41,0-0.41C31.05,19.86,31.05,20.27,31.32,20.27L31.32,20.27z"/>
		</g>
		<g>
			<path class="st6" d="M32.34,20.33c0.22,0,0.22-0.34,0-0.34C32.12,19.99,32.12,20.33,32.34,20.33L32.34,20.33z"/>
		</g>
		<g>
			<path class="st6" d="M32.63,19.55c0.27,0,0.27-0.42,0-0.42C32.36,19.13,32.36,19.55,32.63,19.55L32.63,19.55z"/>
		</g>
		<g>
			<path class="st6" d="M32.85,21.09c-0.03,0.01-0.05,0.02-0.08,0.03c-0.07,0.03-0.07,0.15,0,0.19c0.03,0.01,0.05,0.02,0.08,0.03
				C33.14,21.48,33.14,20.96,32.85,21.09L32.85,21.09z"/>
		</g>
		<g>
			<path class="st6" d="M31.56,20.96c0.16,0,0.16-0.25,0-0.25C31.4,20.71,31.4,20.96,31.56,20.96L31.56,20.96z"/>
		</g>
		<g>
			<path class="st6" d="M33.14,24.42c-0.02,0-0.04,0.01-0.06,0.01c-0.38,0.06,0.15,0.58,0.21,0.21c0-0.02,0.01-0.04,0.01-0.06
				C33.31,24.47,33.24,24.4,33.14,24.42L33.14,24.42z"/>
		</g>
		<g>
			<path class="st6" d="M33.44,25.42c-0.04,0.13,0.15,0.22,0.23,0.09C33.76,25.36,33.5,25.25,33.44,25.42L33.44,25.42z"/>
		</g>
		<g>
			<path class="st6" d="M33.67,26.78c0-0.02-0.01-0.04-0.01-0.05c-0.01-0.05-0.05-0.08-0.1-0.1c-0.01,0-0.02-0.01-0.03-0.01
				c-0.15-0.04-0.24,0.14-0.14,0.24c0.01,0.02,0.03,0.02,0.05,0.03c0.04,0.01,0.11,0.04,0.06,0.01
				C33.6,26.96,33.69,26.87,33.67,26.78L33.67,26.78z"/>
		</g>
		<g>
			<path class="st6" d="M33.82,31.1c-0.05,0.15,0.18,0.25,0.26,0.11C34.18,31.04,33.88,30.91,33.82,31.1L33.82,31.1z"/>
		</g>
		<g>
			<path class="st6" d="M33.42,31.93c0.15,0,0.15-0.23,0-0.23C33.27,31.7,33.27,31.93,33.42,31.93L33.42,31.93z"/>
		</g>
		<g>
			<path class="st6" d="M33.76,32.92c0.19,0,0.19-0.29,0-0.29C33.57,32.63,33.57,32.92,33.76,32.92L33.76,32.92z"/>
		</g>
		<g>
			<path class="st6" d="M33.07,33.53c0.22,0,0.22-0.34,0-0.34C32.85,33.19,32.85,33.53,33.07,33.53L33.07,33.53z"/>
		</g>
		<g>
			<path class="st6" d="M32.63,34.09c0.14,0,0.14-0.21,0-0.21S32.5,34.09,32.63,34.09L32.63,34.09z"/>
		</g>
		<g>
			<path class="st6" d="M33.32,34.75c0.25,0,0.25-0.38,0-0.38C33.07,34.37,33.07,34.75,33.32,34.75L33.32,34.75z"/>
		</g>
		<g>
			<path class="st6" d="M33.86,33.97c0.17,0,0.17-0.27,0-0.27C33.68,33.7,33.68,33.97,33.86,33.97L33.86,33.97z"/>
		</g>
		<g>
			<path class="st6" d="M33.73,35.45c-0.03,0.01-0.06,0.02-0.09,0.03c-0.09,0.03-0.09,0.15,0,0.18c0.03,0.01,0.06,0.02,0.09,0.03
				C33.93,35.76,33.93,35.39,33.73,35.45L33.73,35.45z"/>
		</g>
		<g>
			<path class="st6" d="M33.61,37.18c0.21,0,0.21-0.32,0-0.32C33.4,36.86,33.4,37.18,33.61,37.18L33.61,37.18z"/>
		</g>
		<g>
			<path class="st6" d="M33.12,37.93c0.19,0,0.19-0.29,0-0.29C32.94,37.64,32.94,37.93,33.12,37.93L33.12,37.93z"/>
		</g>
		<g>
			<path class="st6" d="M33.57,38.55c0.01,0.01,0.02,0.02,0.02,0.02c0.04,0.03,0.09,0.03,0.12,0c0.01-0.01,0.02-0.02,0.03-0.02
				C34.01,38.31,33.31,38.31,33.57,38.55L33.57,38.55z"/>
		</g>
		<g>
			<path class="st6" d="M32.73,38.85c0.25,0,0.25-0.39,0-0.39C32.48,38.46,32.48,38.85,32.73,38.85L32.73,38.85z"/>
		</g>
		<g>
			<path class="st6" d="M31.51,39.1c0.21,0,0.21-0.33,0-0.33C31.3,38.78,31.3,39.1,31.51,39.1L31.51,39.1z"/>
		</g>
		<g>
			<path class="st6" d="M32.05,39.98c0.28,0,0.28-0.43,0-0.43C31.77,39.55,31.77,39.98,32.05,39.98L32.05,39.98z"/>
		</g>
		<g>
			<path class="st6" d="M33.07,39.98c0.22,0,0.22-0.34,0-0.34C32.86,39.64,32.86,39.98,33.07,39.98L33.07,39.98z"/>
		</g>
		<g>
			<path class="st6" d="M32.35,40.76c-0.01,0.01-0.02,0.01-0.03,0.02c-0.15,0.09-0.08,0.3,0.08,0.31c0.01,0,0.03,0,0.04,0
				C32.73,41.11,32.62,40.61,32.35,40.76L32.35,40.76z"/>
		</g>
		<g>
			<path class="st6" d="M31.07,40.83c0.26,0,0.26-0.4,0-0.4C30.81,40.43,30.81,40.83,31.07,40.83L31.07,40.83z"/>
		</g>
		<g>
			<path class="st6" d="M30.81,39.73c-0.04,0.13,0.15,0.21,0.22,0.09C31.12,39.67,30.86,39.56,30.81,39.73L30.81,39.73z"/>
		</g>
		<g>
			<path class="st6" d="M30,40.36c0.28,0,0.28-0.43,0-0.43C29.72,39.93,29.72,40.36,30,40.36L30,40.36z"/>
		</g>
		<g>
			<path class="st6" d="M30.58,41.73c0.3,0,0.3-0.46,0-0.46C30.28,41.26,30.28,41.73,30.58,41.73L30.58,41.73z"/>
		</g>
		<g>
			<path class="st6" d="M29.8,41.12c0.2,0,0.2-0.32,0-0.32C29.6,40.81,29.6,41.12,29.8,41.12L29.8,41.12z"/>
		</g>
		<g>
			<path class="st6" d="M31.46,42.17c0.19,0,0.19-0.3,0-0.3C31.27,41.88,31.27,42.17,31.46,42.17L31.46,42.17z"/>
		</g>
		<g>
			<path class="st6" d="M29.36,40.14c0.24,0,0.24-0.37,0-0.37C29.12,39.77,29.12,40.14,29.36,40.14L29.36,40.14z"/>
		</g>
	</g>
	<g>
		<g>
			<g>
				<path class="st7" d="M34.31,48.64c0-0.1,0.04-0.24,0.04-0.34c0-0.1,0-0.2-0.01-0.3c-0.04-0.34-0.16-0.66-0.42-0.89
					c0.23-0.01,0.82-0.01,1.06,0c-0.26,0.23-0.38,0.55-0.42,0.89c-0.01,0.1-0.01,0.2-0.01,0.3c0,0.1,0.04,0.24,0.04,0.34H34.31z"/>
			</g>
		</g>
		<g>
			<path class="st7" d="M34.4,48.26c-0.21-0.31-0.57-0.53-0.96-0.52c-0.38,0.01-0.75,0.28-0.82,0.65c-0.06,0.32,0.1,0.66,0.32,0.9
				c0.23,0.24,0.54,0.4,0.82,0.58c0.29,0.18,0.69,0.65,0.69,0.65s0.44-0.45,0.68-0.63c0.27-0.2,0.6-0.35,0.82-0.59
				c0.23-0.24,0.39-0.58,0.32-0.9c-0.07-0.37-0.44-0.64-0.82-0.65c-0.38-0.01-0.75,0.21-0.95,0.52H34.4z"/>
		</g>
	</g>
	<g>
		<g>
			<g>
				<path class="st7" d="M4.92,10.79c0,0.1-0.04,0.24-0.04,0.34c0,0.1,0,0.2,0.01,0.3c0.04,0.34,0.16,0.67,0.42,0.9
					c-0.24,0.01-0.82,0.01-1.06,0c0.26-0.23,0.38-0.55,0.42-0.9c0.01-0.1,0.01-0.2,0.01-0.3c0-0.1-0.04-0.24-0.04-0.34H4.92z"/>
			</g>
		</g>
		<g>
			<path class="st7" d="M4.83,11.17c0.21,0.31,0.57,0.53,0.96,0.52c0.38-0.01,0.75-0.29,0.82-0.65c0.06-0.32-0.1-0.66-0.32-0.9
				C6.06,9.9,5.75,9.74,5.47,9.55C5.18,9.37,4.78,8.91,4.78,8.91S4.34,9.36,4.1,9.54c-0.27,0.2-0.6,0.35-0.82,0.59
				c-0.23,0.24-0.39,0.58-0.32,0.9c0.07,0.37,0.44,0.64,0.82,0.65c0.38,0.01,0.75-0.21,0.96-0.52H4.83z"/>
		</g>
	</g>
	<g>
		<path class="st7" d="M4.52,7.48c-0.72,0-1.29-0.27-1.7-0.81C2.41,6.13,2.21,5.45,2.21,4.64c0-0.86,0.21-1.56,0.64-2.11
			c0.42-0.54,0.98-0.81,1.67-0.81c0.67,0,1.22,0.26,1.66,0.78C6.61,3.02,6.82,3.7,6.82,4.56c0,0.71-0.16,1.33-0.49,1.86
			c-0.32,0.53-0.74,0.86-1.24,1l0,0.08c0,0.41,0.25,0.61,0.75,0.61c0.24,0,0.45-0.02,0.65-0.05V8.6C6.3,8.66,6.1,8.69,5.9,8.69
			c-0.43,0-0.76-0.09-0.99-0.27C4.68,8.24,4.55,7.93,4.52,7.48z M4.52,6.92c0.49,0,0.88-0.22,1.15-0.66
			c0.28-0.44,0.42-1.01,0.42-1.71c0-0.71-0.14-1.27-0.43-1.67c-0.29-0.4-0.67-0.6-1.14-0.6c-0.48,0-0.86,0.22-1.14,0.65
			C3.09,3.36,2.95,3.93,2.95,4.62c0,0.68,0.14,1.23,0.43,1.66C3.66,6.71,4.04,6.92,4.52,6.92z"/>
	</g>
	<g>
		<path class="st7" d="M34.84,52.21c0.72,0,1.29,0.27,1.7,0.81c0.41,0.54,0.61,1.22,0.61,2.03c0,0.86-0.21,1.56-0.64,2.11
			c-0.43,0.54-0.98,0.81-1.67,0.81c-0.67,0-1.22-0.26-1.66-0.78c-0.43-0.52-0.65-1.21-0.65-2.06c0-0.71,0.16-1.33,0.49-1.86
			c0.32-0.53,0.74-0.87,1.24-1l0-0.08c0-0.4-0.25-0.61-0.75-0.61c-0.24,0-0.45,0.02-0.65,0.05v-0.56c0.19-0.06,0.38-0.08,0.58-0.08
			c0.43,0,0.76,0.09,0.99,0.27C34.68,51.46,34.81,51.77,34.84,52.21z M34.84,52.78c-0.49,0-0.87,0.22-1.15,0.66
			c-0.28,0.44-0.42,1.01-0.42,1.7c0,0.71,0.14,1.27,0.43,1.67c0.29,0.4,0.67,0.6,1.14,0.6c0.48,0,0.86-0.21,1.14-0.65
			c0.28-0.43,0.42-0.99,0.42-1.69c0-0.68-0.14-1.23-0.43-1.66C35.7,52.99,35.32,52.78,34.84,52.78z"/>
	</g>
	<g>
		<g>
			<path class="st13" d="M15.69,56.79H5.73c-1.62,0-2.93-1.38-2.93-3.07V14.93c0-0.05,0.04-0.09,0.09-0.09
				c0.05,0,0.09,0.04,0.09,0.09v38.78c0,1.6,1.23,2.89,2.75,2.89h9.95c0.05,0,0.09,0.04,0.09,0.09
				C15.78,56.75,15.74,56.79,15.69,56.79z"/>
		</g>
		<g>
			<path class="st13" d="M31.71,56.79h-5.4c-0.05,0-0.09-0.04-0.09-0.09c0-0.05,0.04-0.09,0.09-0.09h5.4c0.05,0,0.09,0.04,0.09,0.09
				C31.8,56.75,31.76,56.79,31.71,56.79z"/>
		</g>
		<g>
			<path class="st13" d="M36.47,45.04c-0.05,0-0.09-0.04-0.09-0.09V5.98c0-1.6-1.23-2.89-2.75-2.89H23.19
				c-0.05,0-0.09-0.04-0.09-0.09c0-0.05,0.04-0.09,0.09-0.09h10.43c1.62,0,2.93,1.38,2.93,3.07v38.98
				C36.56,45,36.52,45.04,36.47,45.04z"/>
		</g>
		<g>
			<path class="st13" d="M13.15,3.09H7.93C7.88,3.09,7.84,3.05,7.84,3c0-0.05,0.04-0.09,0.09-0.09h5.21c0.05,0,0.09,0.04,0.09,0.09
				C13.24,3.05,13.2,3.09,13.15,3.09z"/>
		</g>
	</g>
</g>
</svg>
