<svg width="60" height="65" viewBox="0 0 60 65" fill="none" xmlns="http://www.w3.org/2000/svg">
<path d="M56.87 59.7566L54.8384 55.1856L56.87 50.6145H54.7358C53.2942 53.7696 51.5654 56.8272 49.5594 59.7514H56.87V59.7566Z" fill="white"/>
<path d="M3.1568 50.6198L5.18836 55.1908L3.1568 59.7618H10.4417C8.43064 56.8376 6.70177 53.78 5.26531 50.625H3.1568V50.6198Z" fill="white"/>
<path d="M23.1697 58.3201H23.6674L23.4211 57.7199L23.1697 58.3201Z" fill="white"/>
<path d="M18.5064 52.1279H18.2601V53.2412H18.5064C18.6397 53.2412 18.7475 53.2053 18.8193 53.1386C18.8911 53.0719 18.927 52.959 18.927 52.8051V52.5589C18.927 52.405 18.8911 52.2921 18.8193 52.2254C18.7526 52.1639 18.6449 52.1279 18.5064 52.1279Z" fill="white"/>
<path d="M36.7801 57.5454L36.3697 57.5814V58.7203C36.4364 58.7408 36.5082 58.7459 36.5801 58.7459C36.7391 58.7459 36.8622 58.6895 36.9597 58.5817C37.0572 58.4689 37.1033 58.3304 37.1033 58.1559C37.1033 58.0226 37.0726 57.8994 37.011 57.7866C36.9546 57.6788 36.8776 57.5967 36.7801 57.5454Z" fill="white"/>
<path d="M23.7802 52.1279C23.6161 52.1279 23.4929 52.169 23.4108 52.2459C23.3288 52.3229 23.2877 52.4511 23.2877 52.6307V54.6828C23.2877 54.8572 23.3288 54.9855 23.4108 55.0675C23.4929 55.1445 23.6161 55.1855 23.7802 55.1855C23.9444 55.1855 24.0675 55.1445 24.1496 55.0675C24.2317 54.9906 24.2727 54.8623 24.2727 54.6828V52.6307C24.2727 52.4563 24.2317 52.328 24.1496 52.2459C24.0675 52.169 23.9444 52.1279 23.7802 52.1279Z" fill="white"/>
<path d="M55.1103 15.129L29.998 3.72453L4.88055 15.129C0.96108 31.3301 5.0755 48.3265 16.0593 61.3161H43.9368C54.9205 48.3265 59.0349 31.3301 55.1103 15.129ZM17.2443 57.8327H17.075L17.0443 57.5711L16.68 57.5506V58.7767L16.9519 58.8075V58.9203H16.1362L16.1208 58.8485L16.3004 58.7818L16.3773 58.7562V57.5506L16.0131 57.5711L15.9823 57.8327H15.8181C15.7925 57.7045 15.7822 57.5814 15.7822 57.4685L15.7874 57.3967L16.5364 57.4069C16.798 57.4069 17.0494 57.4018 17.2802 57.3967V57.4582C17.2802 57.5762 17.2648 57.6994 17.2443 57.8327ZM19.3323 58.9255H18.1062L18.0908 58.8536L18.3012 58.7716V57.5454L18.1216 57.5301L18.1267 57.4121H19.3426V57.4788C19.3426 57.5865 19.3323 57.7045 19.3067 57.8225H19.1322L19.0963 57.6019L18.6038 57.5711V58.0995L19.1579 58.0585V58.2739L18.6038 58.2534V58.7613L19.1169 58.7357L19.1938 58.4843L19.3631 58.4945C19.3631 58.6382 19.3528 58.787 19.3323 58.9255ZM19.0502 54.2108H18.255V55.1907H18.9527V56.3039H15.7771V55.1907H16.2132V52.1331H15.7771V51.0198H19.0502C19.3477 51.0198 19.6145 51.0506 19.8556 51.107C20.0967 51.1635 20.2968 51.2558 20.4661 51.3841C20.6303 51.5123 20.7585 51.6765 20.8509 51.8817C20.9432 52.0869 20.9842 52.3332 20.9842 52.6205C20.9842 52.9129 20.9381 53.1643 20.8509 53.3643C20.7585 53.5644 20.6354 53.7286 20.4661 53.8568C20.3019 53.9851 20.0967 54.0774 19.8556 54.1339C19.6145 54.18 19.3477 54.2108 19.0502 54.2108ZM21.9231 58.9255H21.2356L21.2202 58.8536L21.3844 58.787L21.0355 58.2996L20.6918 58.787L20.9022 58.8126V58.9255H20.2609L20.2455 58.8536C20.3019 58.828 20.3738 58.7972 20.4507 58.7716L20.9227 58.1354L20.502 57.5454L20.3327 57.5249V57.4121H20.9637L20.9791 57.4839L20.8406 57.5403L21.1484 57.9661L21.4203 57.5454L21.2356 57.5198V57.4069H21.8205L21.8359 57.4788C21.7948 57.4993 21.7281 57.5249 21.6409 57.5557L21.251 58.1098L21.7384 58.787L21.9128 58.8075L21.9231 58.9255ZM24.365 58.9255H23.6417L23.6263 58.8536C23.6827 58.828 23.7597 58.7972 23.8572 58.7664L23.7392 58.4843H23.1081L22.985 58.7818L23.2261 58.8126L23.221 58.9255H22.5643L22.549 58.8536C22.6105 58.8229 22.6772 58.7972 22.7542 58.7716L23.3185 57.4839L23.2928 57.4275L23.5545 57.3556L24.1804 58.7921L24.3599 58.8126L24.365 58.9255ZM26.1606 58.8434C26.0529 58.9306 25.9092 58.9716 25.7451 58.9716C25.6527 58.9716 25.5501 58.9563 25.4424 58.9306C25.3347 58.9049 25.2474 58.8639 25.1859 58.8177V58.8126V58.7305C25.1859 58.6125 25.1961 58.5048 25.2167 58.4073H25.3757L25.4526 58.7151C25.5553 58.7716 25.6835 58.8023 25.8272 58.8023H25.8836C25.9759 58.7613 26.0221 58.6895 26.0221 58.5869C26.0221 58.4997 25.9657 58.4278 25.8528 58.3663L25.4629 58.1765C25.2834 58.079 25.1961 57.9559 25.1961 57.802C25.1961 57.6737 25.2526 57.566 25.3654 57.4839C25.4783 57.4018 25.6271 57.3608 25.8015 57.3608C25.9349 57.3608 26.0888 57.3864 26.253 57.4377C26.2632 57.566 26.253 57.7045 26.2222 57.8481H26.058L26.0118 57.607C25.9195 57.5557 25.8118 57.5301 25.6835 57.5301H25.6066C25.5296 57.5762 25.4886 57.6429 25.4886 57.7301C25.4886 57.8122 25.5501 57.884 25.6681 57.9405L26.0426 58.1098C26.2324 58.2124 26.3299 58.3458 26.3299 58.5099C26.3248 58.6484 26.2683 58.7562 26.1606 58.8434ZM26.3658 54.9239C26.2324 55.2728 26.0478 55.5549 25.8066 55.7704C25.5655 55.9859 25.2731 56.1449 24.9294 56.2475C24.5856 56.345 24.2009 56.3963 23.7802 56.3963C23.3595 56.3963 22.9748 56.345 22.631 56.2475C22.2873 56.15 21.9949 55.991 21.7538 55.7704C21.5127 55.5549 21.328 55.2728 21.1946 54.9239C21.0612 54.5751 20.9996 54.1544 20.9996 53.6568C20.9996 53.1643 21.0663 52.7385 21.1946 52.3896C21.328 52.0407 21.5127 51.7586 21.7538 51.538C21.9949 51.3225 22.2873 51.1635 22.631 51.0609C22.9748 50.9634 23.3595 50.9121 23.7802 50.9121C24.2009 50.9121 24.5856 50.9634 24.9294 51.0609C25.2731 51.1583 25.5655 51.3174 25.8066 51.538C26.0478 51.7535 26.2324 52.0407 26.3658 52.3896C26.4992 52.7385 26.5608 53.1591 26.5608 53.6568C26.5608 54.1544 26.4941 54.5802 26.3658 54.9239ZM26.7814 52.128V51.0147H29.2593V52.8411L30.5931 51.0096H32.4708V52.1228H32.1783L31.0343 53.4977L32.2861 55.1856H32.5785V56.2988H30.4084L29.2593 54.4365V56.2988H26.7814V55.1856H27.2174V52.128H26.7814V52.128ZM30.4341 58.9255H29.7005L29.6851 58.8536L29.8954 58.7716V58.2637H29.1567V58.787L29.3926 58.8126L29.3875 58.9255H28.6539L28.6385 58.8536L28.8488 58.7716V57.5506L28.659 57.5249L28.6642 57.4121H29.3516L29.367 57.4839C29.3259 57.5044 29.2541 57.5352 29.1567 57.566V58.079H29.8954V57.5454L29.7056 57.5198L29.7107 57.4069H30.3982L30.4135 57.4788C30.3725 57.4993 30.3007 57.5301 30.2032 57.5608V58.7767L30.4392 58.8023L30.4341 58.9255ZM32.6144 58.7562C32.4708 58.8998 32.2861 58.9716 32.0552 58.9716C31.8244 58.9716 31.6345 58.8998 31.4858 58.751C31.337 58.6074 31.2652 58.4124 31.2652 58.1765C31.2652 57.9353 31.337 57.7404 31.4858 57.5916C31.6294 57.4377 31.8141 57.3659 32.0398 57.3659C32.2707 57.3659 32.4605 57.4428 32.6093 57.5967C32.7581 57.7507 32.835 57.9456 32.835 58.1919C32.835 58.4227 32.7632 58.6125 32.6144 58.7562ZM34.9794 58.9255H33.702L33.6866 58.8536L33.897 58.7716V57.5506L33.7071 57.5249L33.7123 57.4121H34.3997L34.4151 57.4839C34.3741 57.5044 34.3022 57.5352 34.2048 57.566V58.751L34.7537 58.7203L34.8358 58.4176L35.0153 58.4278C35.0153 58.6279 35.0051 58.7921 34.9794 58.9255ZM37.2111 58.7049C37.0623 58.8485 36.8622 58.9203 36.6108 58.9203H35.8721L35.8567 58.8485L36.067 58.7664V57.5403L35.8926 57.5249V57.4069C36.1696 57.3967 36.421 57.3864 36.6621 57.3864C36.8879 57.3864 37.0725 57.4582 37.2162 57.607C37.365 57.7558 37.4368 57.9353 37.4368 58.1508C37.4368 58.3817 37.3598 58.5664 37.2111 58.7049ZM37.8421 53.0668H36.2107V52.128H35.3283V53.2002H35.9696V53.9748H35.3283V55.1856H36.2107V54.1133H37.8421V56.3039H32.8504V55.1907H33.2865V52.1331H32.8504V51.0198H37.8421V53.0668ZM38.3551 57.7866L38.1653 57.7301C38.2268 57.5711 38.2576 57.4172 38.2576 57.2633L38.3397 57.1966L38.55 57.2325C38.5398 57.4274 38.4731 57.6121 38.3551 57.7866ZM40.715 58.9255H39.4889L39.4735 58.8536L39.6838 58.7716V57.5454L39.5043 57.5301L39.5094 57.4121H40.7252V57.4788C40.7252 57.5865 40.715 57.7045 40.6893 57.8225H40.52L40.4841 57.6019L39.9916 57.5711V58.0995L40.5457 58.0585V58.2739L39.9916 58.2534V58.7613L40.5046 58.7357L40.5816 58.4843L40.7509 58.4945C40.7458 58.6382 40.7355 58.787 40.715 58.9255ZM43.8444 58.9255H43.1159L43.1005 58.8536C43.1621 58.8229 43.2288 58.7972 43.316 58.7716L43.3057 58.0431L43.3416 57.6532L42.8594 58.8844V58.8896L42.608 58.9409L42.1155 57.6583L42.1566 58.0379L42.1412 58.7818L42.3515 58.8126V58.9203H41.7051L41.6897 58.8485C41.741 58.8229 41.8128 58.7972 41.9103 58.7613L41.9514 57.5506L41.7513 57.5198V57.4121H42.331L42.7927 58.6125L43.2596 57.4121H43.7777L43.7931 57.4839C43.7418 57.5095 43.6802 57.5352 43.5982 57.5608L43.6187 58.7716L43.8547 58.8075L43.8444 58.9255ZM43.8444 56.3039H41.5358V54.7033C41.5358 54.5648 41.5204 54.4571 41.4896 54.375C41.4589 54.2929 41.4076 54.2262 41.3357 54.1852C41.2639 54.1441 41.1767 54.1133 41.069 54.098C40.9612 54.0826 40.833 54.0723 40.6842 54.0723V55.1856H41.1664V56.2988H38.2115V55.1856H38.6475V52.128H38.2115V51.0147H41.6282C41.9257 51.0147 42.1925 51.0404 42.4336 51.0968C42.6747 51.1532 42.8748 51.2404 43.0441 51.3584C43.2134 51.4764 43.3365 51.6355 43.4289 51.8304C43.5161 52.0254 43.5622 52.2613 43.5622 52.5435C43.5622 52.8411 43.4956 53.1027 43.3673 53.3233C43.239 53.5439 43.0492 53.7029 42.803 53.7901L42.8081 53.8568C43.275 53.9235 43.5058 54.1903 43.5058 54.6571V55.1804H43.8495V56.3039H43.8444ZM46.9431 35.3112C47.1534 36.1576 47.2663 37.04 47.2663 37.9481C47.2663 43.9863 42.3515 48.9011 36.3133 48.9011C32.6401 48.9011 29.3875 47.085 27.4021 44.3044L18.0857 47.5159L17.7009 47.6493C17.3675 47.7673 17.0135 47.8237 16.6595 47.8237C16.3722 47.8237 16.0798 47.7827 15.7976 47.7057C14.7818 47.4236 13.9661 46.6592 13.6224 45.6639L5.90659 23.2757C5.45513 21.9624 5.8912 20.5157 6.99932 19.6795C7.27122 19.4742 7.56878 19.3152 7.89198 19.2023L10.0005 18.4739C10.2006 17.5915 10.77 16.8219 11.5652 16.3756C11.8628 16.2114 12.1808 16.0934 12.5143 16.0267L14.7049 15.6009C15.023 14.7545 15.695 14.0721 16.5466 13.7438C16.8596 13.6207 17.193 13.5489 17.5316 13.5335L19.7633 13.4155C20.1993 12.6203 20.9586 12.0406 21.8461 11.8302C22.0821 11.7738 22.3284 11.7482 22.5746 11.7482C22.6669 11.7482 22.7593 11.7533 22.8568 11.7584L25.0833 11.9534C25.6219 11.23 26.4582 10.758 27.3662 10.676C27.4586 10.6657 27.556 10.6606 27.6535 10.6606C27.8946 10.6606 28.1357 10.6862 28.3769 10.7426L40.1661 13.4616C40.9561 13.2924 41.7718 13.1949 42.608 13.1949C42.6132 13.1949 42.6183 13.1949 42.6234 13.1949C42.6286 13.1949 42.6388 13.1949 42.6388 13.1949C48.9643 13.1949 54.1151 18.3456 54.1151 24.6711C54.1151 29.4833 51.1447 33.6028 46.9431 35.3112Z" fill="white"/>
<path d="M41.0792 52.1279H40.6842V53.2412H41.0792C41.2177 53.2412 41.3255 53.2053 41.3973 53.1386C41.4691 53.0719 41.505 52.959 41.505 52.8051V52.5589C41.505 52.405 41.4691 52.2921 41.3973 52.2254C41.3255 52.1639 41.2177 52.1279 41.0792 52.1279Z" fill="white"/>
<path d="M32.0091 57.5403C31.9424 57.5403 31.8705 57.5506 31.7987 57.5762C31.7372 57.6224 31.6858 57.6942 31.6499 57.7968C31.614 57.8994 31.5935 58.0123 31.5935 58.1354C31.5935 58.3303 31.6397 58.4894 31.732 58.6074C31.8244 58.7254 31.9475 58.7818 32.1014 58.7818C32.1578 58.7818 32.2091 58.7767 32.2656 58.7613C32.3374 58.7151 32.3938 58.6382 32.4349 58.5356C32.4759 58.433 32.5016 58.3201 32.5016 58.1918C32.5016 57.9969 32.4554 57.8378 32.3682 57.7199C32.2758 57.6019 32.1578 57.5403 32.0091 57.5403Z" fill="white"/>
<path d="M58.3578 12.8819L29.998 0L1.63827 12.8819C-1.4655 25.7126 -0.105994 38.8561 5.26532 50.6197C6.70691 53.7747 8.43579 56.8323 10.4417 59.7566C11.6216 61.47 12.8939 63.1425 14.2637 64.7585H45.7426C47.1124 63.1425 48.3846 61.47 49.5646 59.7566C51.5756 56.8323 53.3045 53.7747 54.741 50.6197C60.1071 38.8561 61.4667 25.7126 58.3578 12.8819ZM44.8807 62.9321H15.1102C3.65444 48.9985 -0.660056 31.325 3.20811 14.1747L29.998 2.00591L56.7879 14.1747C60.6561 31.325 56.3416 48.9985 44.8807 62.9321Z" fill="white"/>
<path d="M45.6656 35.7421C45.6759 35.8088 45.6913 35.8755 45.6964 35.9319C45.7016 35.9678 45.7067 36.0037 45.717 36.0396C45.758 36.2756 45.7785 36.3987 45.7785 36.3987C45.7785 36.3987 45.7785 36.3885 45.7734 36.3731C45.7888 36.4757 45.8042 36.5732 45.8196 36.6758H43.8957V39.2204H45.8196C45.5938 40.9185 44.9269 42.4729 43.9368 43.7657L42.5773 42.4062L40.7766 44.2069L42.1361 45.5664C41.9719 45.6895 41.8077 45.8075 41.6384 45.9204C41.1306 46.259 40.5868 46.5565 40.0122 46.7925C39.8224 46.8746 39.6274 46.9464 39.4325 47.0131C38.8425 47.2132 38.2269 47.362 37.5907 47.4441V45.5202H35.0461V47.4441C34.9641 47.4338 34.8871 47.4235 34.805 47.4133C34.8101 47.4133 34.8204 47.4184 34.8204 47.4184C34.8204 47.4184 34.6562 47.3928 34.3536 47.3415C34.0458 47.3004 33.6046 47.1927 33.0505 47.0234C32.8453 46.9516 32.6247 46.8695 32.3938 46.772C32.3169 46.7412 32.2348 46.7053 32.1578 46.6694C31.8398 46.5309 31.496 46.3565 31.1523 46.1461C30.4597 45.7306 29.7056 45.1817 29.0335 44.4326C28.8796 44.2633 28.7257 44.0838 28.577 43.894L27.8639 44.1402C27.9819 44.2993 28.105 44.4583 28.2281 44.6122C28.3358 44.7405 28.4436 44.8687 28.5564 44.9918C30.4751 47.1055 33.2454 48.4342 36.3184 48.4342C38.6681 48.4342 40.8381 47.6595 42.5875 46.3462C42.8543 46.1461 43.1159 45.9307 43.3622 45.7049C43.4853 45.5921 43.6084 45.4741 43.7264 45.3561C43.8444 45.2381 43.9624 45.115 44.0753 44.9918C44.5267 44.4942 44.932 43.9555 45.2809 43.3758C45.4553 43.0885 45.6195 42.791 45.7631 42.4832C45.8349 42.3293 45.9068 42.1754 45.9735 42.0163C46.507 40.7594 46.7994 39.3845 46.7994 37.9378C46.7994 37.0862 46.6968 36.2602 46.5019 35.4702C46.23 35.5779 45.9529 35.6651 45.6656 35.7421Z" fill="white"/>
<path d="M38.8066 43.7349C38.8066 43.7349 38.8117 43.7349 38.822 43.7298C38.8527 43.7144 38.9194 43.6836 39.0118 43.6375C39.1349 43.5759 39.3042 43.5041 39.4581 43.4015C39.612 43.304 39.7762 43.2168 39.8839 43.1347C39.9096 43.1142 39.9352 43.0937 39.9609 43.0783C39.9814 43.0629 40.0019 43.0475 40.0173 43.0372C40.0481 43.0116 40.0686 43.0013 40.0686 43.0013L39.6223 42.4011C39.3401 42.7448 38.9861 43.027 38.586 43.227L38.8066 43.7349Z" fill="white"/>
<path d="M41.8026 41.0365L41.0947 40.6363C41.0947 40.6363 41.069 40.6722 41.0331 40.7389C41.0228 40.7594 41.0074 40.7851 40.9921 40.8107C40.9305 40.9133 40.8484 41.0519 40.7458 41.175C40.5662 41.4417 40.3405 41.6675 40.3405 41.6675L40.9356 42.2164C40.9356 42.2164 40.9715 42.1805 41.028 42.1189C41.0485 42.0984 41.069 42.0728 41.0895 42.0471C41.1819 41.9445 41.2947 41.8009 41.4025 41.6521C41.5153 41.5084 41.6128 41.3494 41.6846 41.2314C41.7 41.2006 41.7205 41.175 41.7359 41.1493C41.7667 41.1032 41.7872 41.0672 41.7975 41.0467C41.8026 41.0416 41.8026 41.0365 41.8026 41.0365Z" fill="white"/>
<path d="M41.6795 39.1024C41.6589 39.1793 41.6384 39.2563 41.623 39.3281C41.6128 39.364 41.6025 39.3999 41.5974 39.4307C41.5871 39.4615 41.582 39.4974 41.5717 39.5231C41.5666 39.5538 41.5563 39.5795 41.5512 39.6C41.5409 39.6205 41.5358 39.641 41.5307 39.6616C41.5204 39.6923 41.5102 39.7129 41.5102 39.7129L42.2797 39.9745C42.2797 39.9745 42.2797 39.9694 42.2848 39.9591C42.29 39.9489 42.2951 39.9335 42.3002 39.9129C42.3105 39.877 42.3361 39.8206 42.3515 39.7539C42.3618 39.7231 42.3669 39.6821 42.3772 39.6462C42.3874 39.6103 42.3977 39.5692 42.4079 39.5282C42.4285 39.4461 42.4541 39.3538 42.4746 39.2665C42.4849 39.2204 42.4952 39.1742 42.5003 39.1332C42.5106 39.087 42.5157 39.0459 42.5208 38.9998C42.5311 38.9126 42.5465 38.8356 42.5567 38.7689C42.567 38.7022 42.5772 38.6458 42.5824 38.6047C42.5875 38.5637 42.5875 38.5432 42.5875 38.5432L41.7769 38.4662C41.7769 38.4662 41.7769 38.4867 41.7718 38.5227C41.7667 38.5381 41.7667 38.5586 41.7615 38.5842C41.7564 38.6099 41.7513 38.6355 41.7513 38.6663C41.7308 38.7894 41.7102 38.9485 41.6795 39.1024Z" fill="white"/>
<path d="M32.4913 42.95C32.6042 43.0321 32.676 43.0885 32.676 43.0885L32.8401 42.8628L32.4041 42.8833C32.4297 42.909 32.4605 42.9295 32.4913 42.95Z" fill="white"/>
<path d="M33.6815 43.6682C33.6815 43.6682 33.7636 43.7093 33.8918 43.7657C34.0201 43.8119 34.1945 43.8786 34.3638 43.9401C34.4921 43.9863 34.6306 44.0171 34.7434 44.0479C34.7794 44.0581 34.8204 44.0684 34.8512 44.0735C34.9179 44.0889 34.9743 44.1043 35.0102 44.1146C35.0512 44.1248 35.0718 44.13 35.0718 44.13L35.2308 43.3348C35.2308 43.3348 35.2257 43.3348 35.2154 43.3297C35.1898 43.3245 35.1231 43.3091 35.0359 43.2835C34.9794 43.2681 34.9076 43.2527 34.8358 43.2322C34.7999 43.2219 34.764 43.2117 34.7229 43.2014C34.687 43.1911 34.646 43.1809 34.6101 43.1655C34.4613 43.1091 34.3074 43.0577 34.1996 43.0167C34.174 43.0064 34.1483 42.9962 34.1227 42.9859C34.1022 42.9757 34.0816 42.9654 34.0663 42.9603C34.0509 42.9551 34.0406 42.95 34.0355 42.9449H34.0149L33.6815 43.6682Z" fill="white"/>
<path d="M37.1495 43.5656C36.9084 43.5656 36.6673 43.54 36.4262 43.4836L36.2312 43.4374L36.2209 44.2428C36.2209 44.2428 36.3133 44.2531 36.4518 44.2428C36.5903 44.2377 36.775 44.2274 36.9546 44.2172C37.0931 44.1967 37.2265 44.1761 37.3445 44.1556C37.3855 44.1505 37.4214 44.1454 37.4522 44.1402C37.5907 44.1248 37.6779 44.0941 37.6779 44.0941L37.5548 43.5349C37.5138 43.54 37.4778 43.5451 37.4368 43.5503C37.3445 43.5605 37.247 43.5656 37.1495 43.5656Z" fill="white"/>
<path d="M41.5102 36.1936C41.5102 36.1936 41.5153 36.2141 41.5307 36.2449C41.5358 36.2602 41.5461 36.2808 41.5512 36.3064C41.5615 36.3269 41.5666 36.3577 41.5717 36.3834C41.6025 36.5014 41.6435 36.6553 41.6795 36.8092C41.6897 36.8502 41.6949 36.8861 41.7 36.9272C41.7205 37.0452 41.7308 37.1529 41.7462 37.2452C41.7564 37.3068 41.7615 37.353 41.7667 37.3889C41.7667 37.4043 41.7667 37.4197 41.7667 37.4299C41.7667 37.4402 41.7667 37.4453 41.7667 37.4453L42.5772 37.3735C42.5772 37.3735 42.5772 37.3684 42.5772 37.3581C42.5772 37.3478 42.5772 37.3325 42.5721 37.3119C42.567 37.2709 42.5567 37.2145 42.5465 37.1478C42.5259 37.0144 42.5003 36.8297 42.4644 36.6501C42.4439 36.5629 42.4182 36.4706 42.3977 36.3885C42.3772 36.3064 42.3566 36.2295 42.3413 36.1628V36.1576C42.136 36.1525 41.9308 36.1423 41.7308 36.1269L41.5102 36.1936Z" fill="white"/>
<path d="M28.9361 43.776C29.0489 43.9248 29.1669 44.0735 29.2849 44.212C29.3875 44.3352 29.4953 44.4532 29.603 44.566C29.7107 44.6789 29.8185 44.7866 29.9313 44.8944C30.1519 45.1047 30.3725 45.2945 30.5983 45.4689L31.8551 44.212L30.7829 43.1398L28.9361 43.776Z" fill="white"/>
<path d="M42.8748 36.1474C42.8953 36.2243 42.9158 36.3013 42.9312 36.3782C43.0031 36.7117 43.0544 37.0554 43.08 37.4094L43.0954 37.7634L43.1005 37.9429L43.0903 38.1122L43.0697 38.4816L43.0595 38.6663L43.0287 38.8407C42.9877 39.0716 42.962 39.3076 42.8902 39.5436C42.8286 39.7796 42.7722 40.0155 42.6747 40.2413C42.3823 41.0467 41.9257 41.806 41.346 42.4575C41.2639 42.5499 41.1767 42.6422 41.0895 42.7294C40.9151 42.9039 40.7252 43.0731 40.5303 43.2271C40.0429 43.6169 39.5094 43.935 38.9451 44.1761C38.8322 44.2223 38.7193 44.2685 38.6013 44.3095C37.6779 44.643 36.7134 44.7815 35.7592 44.7148C35.6412 44.7046 35.5284 44.6943 35.4155 44.684C35.1846 44.6584 34.9589 44.6173 34.7383 44.5712C34.5177 44.5199 34.2971 44.4634 34.0868 44.3916C33.7687 44.289 33.4609 44.1607 33.1685 44.0171C32.5836 43.7247 32.0655 43.3656 31.6243 42.9654L31.1882 43.0526C31.3216 43.1911 31.4601 43.3297 31.6089 43.463C32.0039 43.817 32.4554 44.1402 32.9633 44.4173C33.7738 44.8533 34.7178 45.1611 35.7336 45.2483C36.7237 45.3356 37.801 45.2227 38.7963 44.8636C39.5504 44.5968 40.2635 44.1967 40.8997 43.699C41.0074 43.6169 41.11 43.5297 41.2126 43.4374C41.3152 43.345 41.4127 43.2578 41.5102 43.1604C41.7975 42.8731 42.054 42.5601 42.29 42.2267C42.6029 41.7855 42.8645 41.3135 43.0697 40.821C43.121 40.6979 43.1672 40.5747 43.2134 40.4465C43.3109 40.2002 43.3776 39.9437 43.4391 39.6872C43.4955 39.4974 43.5212 39.2973 43.5469 39.1024C43.5571 39.0357 43.5622 38.969 43.5725 38.9074C43.5982 38.774 43.6033 38.6458 43.6084 38.5227C43.6084 38.4611 43.6135 38.3995 43.6135 38.338C43.6135 38.2764 43.6187 38.2148 43.6238 38.1533L43.6289 37.9532L43.6187 37.7634C43.6084 37.6351 43.6033 37.512 43.5982 37.3838C43.5622 36.958 43.4853 36.5424 43.3776 36.1422C43.2134 36.1371 43.0441 36.1422 42.8748 36.1474Z" fill="white"/>
<path d="M40.3148 40.898C40.4534 40.7133 40.5816 40.5234 40.6894 40.3182C41.0741 39.6154 41.2896 38.8048 41.2896 37.9481C41.2896 37.6351 41.2588 37.3325 41.2024 37.0349L40.992 37.9635C40.992 38.6817 40.8227 39.364 40.5303 39.9694L40.3148 40.898Z" fill="white"/>
<path d="M42.9261 29.5705C44.4908 29.4679 45.8554 28.647 46.6814 27.4209C47.2098 26.636 47.5176 25.692 47.5176 24.6763C47.5176 23.6605 47.2098 22.7165 46.6814 21.9316C46.2607 21.3057 45.6964 20.7876 45.0397 20.4131L42.9261 29.5705Z" fill="white"/>
<path d="M53.6534 24.6763C53.6534 18.6021 48.713 13.6617 42.6388 13.6617C42.6337 13.6617 42.6286 13.6617 42.6234 13.6617C42.6183 13.6617 42.6132 13.6617 42.608 13.6617C42.1822 13.6617 41.7616 13.6874 41.346 13.7336L43.1878 14.1594C43.4494 14.2209 43.6956 14.3133 43.9214 14.4313C44.1984 14.4672 44.4754 14.5133 44.7422 14.5749C45.0551 14.6467 45.3578 14.7288 45.6554 14.8212C45.9529 14.9186 46.2402 15.0264 46.5224 15.1444C46.8045 15.2624 47.0713 15.3906 47.3329 15.5343C47.8511 15.8113 48.3282 16.1294 48.7643 16.4628C48.9797 16.6321 49.185 16.8065 49.3799 16.981C49.7749 17.3298 50.1186 17.7043 50.4162 18.0788C50.7138 18.4533 50.9703 18.833 51.1909 19.1972C51.4166 19.5563 51.5961 19.9154 51.7449 20.2489C51.8937 20.5824 52.0117 20.9004 52.1194 21.1877C52.2323 21.552 52.3195 21.87 52.3811 22.1317C52.417 22.2907 52.4426 22.4292 52.458 22.5524C52.4837 22.7114 52.5093 22.8345 52.5196 22.9166C52.535 22.9987 52.5401 23.0397 52.5401 23.0397C52.5401 23.0397 52.5298 22.9987 52.5093 22.9166C52.4991 22.8756 52.4888 22.8243 52.4734 22.7678C52.458 22.7063 52.4426 22.6396 52.4221 22.5575C52.3605 22.2394 52.2015 21.788 51.9963 21.2236C51.9655 21.1569 51.9347 21.0851 51.904 21.0133C51.6834 20.5054 51.4063 19.9154 50.9857 19.3203C50.9138 19.2126 50.8317 19.1049 50.7497 18.992C50.6676 18.8843 50.5804 18.7714 50.4932 18.6585L49.1696 19.9821L47.2816 18.0942L48.5642 16.8117C48.4 16.6937 48.2307 16.5757 48.0563 16.4628C47.533 16.1242 46.9533 15.8215 46.3326 15.5753C46.1992 15.5189 46.0607 15.4676 45.9221 15.4214C45.7836 15.3752 45.6451 15.329 45.5015 15.288C45.2809 15.2213 45.0551 15.17 44.8294 15.1187C45.4656 15.8215 45.7836 16.7911 45.6195 17.7813C45.6708 17.8018 45.7169 17.8223 45.7682 17.8428C45.8452 17.8736 45.9273 17.9095 46.0042 17.9454C46.5583 18.1968 47.138 18.5662 47.6921 19.0484C48.0101 19.3203 48.3179 19.6333 48.6052 19.9873C48.7489 20.1617 48.8874 20.3464 49.0157 20.5413C49.1439 20.7363 49.2722 20.9415 49.385 21.1518C49.5595 21.4699 49.7134 21.8085 49.8416 22.1625C49.9699 22.5165 50.0725 22.891 50.1494 23.2706C50.2007 23.5271 50.2366 23.7887 50.2572 24.0504C50.2674 24.1838 50.2726 24.3172 50.2828 24.4505L50.2931 24.6506L50.2879 24.861C50.2726 25.061 50.2777 25.2457 50.2623 25.4509C50.2572 25.5176 50.2469 25.5843 50.2366 25.6561C50.1956 25.9332 50.17 26.2153 50.093 26.477C50.0776 26.5437 50.0622 26.6103 50.0417 26.677C49.9904 26.8771 49.934 27.0772 49.8519 27.2721C49.8057 27.4055 49.7544 27.5338 49.698 27.662C49.4261 28.3084 49.0618 28.9241 48.6258 29.4781C48.4513 29.6987 48.2615 29.9142 48.0614 30.1194C47.7588 30.417 47.4304 30.694 47.0816 30.9351C46.6199 31.2634 46.1222 31.5353 45.6041 31.7559C45.4758 31.8124 45.3424 31.8585 45.2142 31.9098C44.26 32.2587 43.2391 32.3818 42.2797 32.3357L42.213 32.6178H43.9368V34.6391C43.7213 34.6648 43.5058 34.6904 43.2904 34.7007C43.0749 34.7161 42.8543 34.7212 42.6337 34.7212C42.331 34.7212 42.0335 34.7007 41.7359 34.675L41.5204 35.6138C41.8744 35.6498 42.2335 35.6651 42.5978 35.6651C42.6029 35.6651 42.608 35.6651 42.6132 35.6651C42.6183 35.6651 42.6234 35.6651 42.6286 35.6651C48.713 35.6908 53.6534 30.7504 53.6534 24.6763ZM47.2919 31.248L49.1798 29.3601L50.6265 30.8069C50.0827 31.5148 49.4466 32.151 48.7335 32.6948L47.2919 31.248ZM52.6171 23.3424C52.6735 23.7785 52.7094 24.2248 52.7094 24.6763C52.7094 25.1277 52.6786 25.574 52.6171 26.0101H50.565V23.3424H52.6171Z" fill="white"/>
<path d="M46.1222 18.3045C45.9734 18.2173 45.8247 18.1353 45.6759 18.0634C45.6451 18.048 45.6143 18.0326 45.5836 18.0173L45.4245 18.6944C45.4348 18.6996 45.4399 18.7047 45.4502 18.7047C45.5784 18.7714 45.758 18.8432 45.917 18.951C46.0812 19.0536 46.2505 19.1459 46.3633 19.2331C46.4198 19.2742 46.4711 19.3101 46.5019 19.3357C46.5378 19.3614 46.5532 19.3768 46.5532 19.3768L46.0401 20.0591C46.0401 20.0591 45.9734 20.0078 45.8708 19.9308C45.8195 19.8898 45.758 19.8539 45.6913 19.8128C45.6554 19.7923 45.6246 19.7718 45.5887 19.7513C45.5528 19.7307 45.5169 19.7102 45.481 19.6846C45.3937 19.6281 45.3014 19.582 45.2193 19.5409L45.0962 20.0796C45.3886 20.2386 45.6605 20.4233 45.917 20.6337C47.0764 21.593 47.8203 23.0449 47.8203 24.666C47.8203 26.2871 47.0764 27.739 45.917 28.6983C45.6605 28.9138 45.3783 29.0985 45.0859 29.2627C44.8653 29.3858 44.6345 29.4884 44.3933 29.5756C43.906 29.7552 43.3827 29.8629 42.844 29.8885L42.7209 30.4272H42.726C42.8543 30.4221 43.0185 30.4118 43.1878 30.4067C43.3519 30.381 43.5212 30.3554 43.6443 30.3349C43.6751 30.3297 43.7059 30.3246 43.7316 30.3246C43.8085 30.3092 43.8547 30.299 43.8547 30.299L44.0394 31.13C44.0394 31.13 44.0342 31.13 44.024 31.1352C43.9932 31.1454 43.9111 31.166 43.8034 31.1762C43.7316 31.1865 43.6495 31.2019 43.5571 31.2121C43.4699 31.2275 43.3724 31.2378 43.275 31.2532C43.08 31.2634 42.8902 31.2737 42.7466 31.2788C42.6388 31.2891 42.5567 31.284 42.526 31.284L42.408 31.7918C43.2801 31.8072 44.1625 31.6585 45.009 31.3506C45.9734 31.0018 46.8764 30.4272 47.6202 29.6885C48.1743 29.1344 48.636 28.488 48.9797 27.7903C49.0926 27.5594 49.1952 27.3183 49.2824 27.0772C49.3799 26.8412 49.4415 26.5898 49.5082 26.3436C49.5646 26.1589 49.5954 25.9742 49.621 25.7895C49.6313 25.7279 49.6415 25.6664 49.6518 25.6048L49.6826 25.4201L49.698 25.2252L49.7236 24.8353L49.7339 24.6557L49.7236 24.471L49.7082 24.1017C49.6723 23.6092 49.5902 23.1321 49.4671 22.6755C49.4363 22.5626 49.4004 22.4498 49.3645 22.3369C49.2568 22.0034 49.1234 21.6802 48.9695 21.3775C48.7181 20.8696 48.4103 20.4079 48.0768 20.0026C47.8768 19.7564 47.6664 19.5307 47.4509 19.3255C47.3791 19.2588 47.3073 19.1921 47.2303 19.1254C47.0097 18.9304 46.7891 18.756 46.5634 18.597C46.4198 18.4944 46.271 18.3969 46.1222 18.3045ZM48.8669 22.5575C48.8669 22.5575 48.8771 22.578 48.8874 22.619C48.8925 22.6396 48.9028 22.6652 48.9131 22.6909C48.9233 22.7165 48.9336 22.7524 48.9387 22.7883C48.9644 22.8909 49.0003 23.0243 49.0362 23.1628C49.0464 23.209 49.0618 23.2552 49.0721 23.3014C49.108 23.4912 49.1336 23.681 49.1542 23.8246C49.1644 23.8965 49.1747 23.958 49.1798 23.9991C49.1798 24.0401 49.185 24.0658 49.185 24.0658L48.3385 24.1427C48.3385 24.1427 48.3385 24.1222 48.3333 24.0863C48.3282 24.0658 48.3282 24.0452 48.3231 24.0196C48.3179 23.9939 48.3128 23.9683 48.3077 23.9324C48.2872 23.8093 48.2666 23.64 48.2359 23.4758C48.2051 23.3527 48.1743 23.2295 48.1487 23.1269C48.1384 23.091 48.1333 23.0602 48.123 23.0295C48.1076 22.9679 48.0922 22.9166 48.0768 22.8858C48.0666 22.8499 48.0563 22.8294 48.0563 22.8294L48.8669 22.5575ZM49.185 25.3688C49.1798 25.4099 49.1696 25.4714 49.1593 25.5433C49.1542 25.5792 49.149 25.6202 49.1439 25.6561C49.1234 25.7792 49.108 25.9229 49.0772 26.0614C49.031 26.2461 48.9797 26.4359 48.9438 26.5744C48.9336 26.6103 48.9233 26.6411 48.9182 26.6668C48.9079 26.6924 48.8977 26.7181 48.8925 26.7386C48.8771 26.7796 48.872 26.8002 48.872 26.8002L48.0666 26.5231C48.0666 26.5231 48.0717 26.5026 48.0871 26.4667C48.0922 26.4513 48.1025 26.4308 48.1127 26.4051C48.123 26.3795 48.1281 26.3538 48.1384 26.3231C48.1692 26.1999 48.2102 26.0409 48.2513 25.8767C48.2615 25.8357 48.2666 25.7946 48.2769 25.7536C48.2974 25.6305 48.3128 25.5125 48.3282 25.4201C48.3385 25.3586 48.3436 25.3073 48.3539 25.2714C48.359 25.2354 48.359 25.2149 48.359 25.2149L49.2055 25.297C49.1901 25.3073 49.1901 25.3278 49.185 25.3688ZM44.8858 29.9706C44.8858 29.9706 44.9269 29.9501 44.9987 29.9142C45.0192 29.9039 45.05 29.8885 45.0757 29.8783C45.1321 29.8475 45.1988 29.8218 45.2706 29.7859C45.3424 29.75 45.4143 29.7141 45.4861 29.6628C45.5938 29.5961 45.7015 29.5346 45.7939 29.4781C45.8247 29.4576 45.8503 29.4371 45.876 29.4217C45.9786 29.3447 46.0453 29.2934 46.0453 29.2934L46.5532 29.9758C46.5532 29.9758 46.5326 29.9911 46.5019 30.0168C46.4865 30.0271 46.4659 30.0424 46.4403 30.063C46.4146 30.0784 46.389 30.0989 46.3633 30.1245C46.3069 30.1656 46.2351 30.2117 46.1581 30.2579C46.1171 30.2836 46.0812 30.3041 46.0401 30.3297C45.9991 30.3554 45.9581 30.381 45.917 30.4067C45.8349 30.458 45.7528 30.5042 45.6708 30.5452C45.5887 30.5862 45.5117 30.6222 45.4502 30.6529C45.3219 30.7145 45.2347 30.7555 45.2347 30.7555L44.8858 29.9706ZM46.8353 28.5803C46.8353 28.5803 46.8507 28.5649 46.8764 28.5393C46.9533 28.4572 47.1175 28.2725 47.2611 28.0622C47.3689 27.9339 47.4509 27.7852 47.5176 27.6774C47.533 27.6518 47.5484 27.6261 47.5638 27.6056C47.6049 27.5389 47.6305 27.4979 47.6305 27.4979L48.3744 27.9185C48.3744 27.9185 48.3692 27.9237 48.3641 27.9339C48.3487 27.9647 48.3026 28.0314 48.2461 28.1237C48.2256 28.1545 48.2051 28.1904 48.1846 28.2264C48.1179 28.3341 48.0409 28.4521 47.9486 28.5649C47.9229 28.606 47.8921 28.6419 47.8665 28.6829C47.6664 28.9497 47.4612 29.16 47.4612 29.16L46.8353 28.5803ZM47.5638 20.3053C47.6613 20.4131 47.8203 20.5977 47.9537 20.7978C47.9845 20.8337 48.0153 20.8748 48.0409 20.9107C48.0666 20.9517 48.0922 20.9876 48.1179 21.0236C48.1692 21.1005 48.2102 21.1723 48.2461 21.2339C48.2666 21.2647 48.282 21.2955 48.2974 21.316C48.3436 21.3929 48.3693 21.4391 48.3693 21.4391L47.6254 21.8546C47.6254 21.8546 47.6151 21.8393 47.5946 21.8033C47.5741 21.7726 47.5484 21.7264 47.5176 21.6751C47.5022 21.6494 47.4817 21.6187 47.4663 21.5879C47.4099 21.4955 47.3432 21.3878 47.2611 21.2903C47.0713 21.0133 46.8353 20.7722 46.8353 20.7722L47.4612 20.1925C47.4663 20.1976 47.5022 20.2386 47.5638 20.3053Z" fill="white"/>
<path d="M17.034 47.3312C17.0648 47.3261 17.0904 47.3261 17.1212 47.321C17.1674 47.3107 17.2136 47.3004 17.2649 47.2902C17.2905 47.285 17.311 47.2799 17.3367 47.2748C17.4085 47.2543 17.4803 47.2337 17.547 47.2132L17.6445 47.1773L17.9318 47.0798L30.7214 42.6679L31.8603 42.4473L33.0146 42.3857L34.1689 42.4883L36.5339 43.0321C36.6262 43.0526 36.7135 43.068 36.8058 43.0783C36.8315 43.0834 36.8571 43.0834 36.8776 43.0885C36.9546 43.0937 37.0315 43.0988 37.1136 43.1039C37.1239 43.1039 37.1393 43.1039 37.1495 43.1039C37.1547 43.1039 37.1598 43.1039 37.1649 43.1039C37.2419 43.1039 37.3188 43.0988 37.3958 43.0937C37.6472 43.0732 37.8883 43.0116 38.114 42.9295C38.191 42.8987 38.2628 42.8679 38.3397 42.832C38.4988 42.7551 38.6475 42.6679 38.7912 42.5601C38.9605 42.4319 39.1144 42.2882 39.2529 42.1241C39.3914 41.9599 39.5094 41.7803 39.6018 41.5905C39.6685 41.4623 39.7198 41.3289 39.7659 41.1852C39.7864 41.1134 39.807 41.0416 39.8224 40.9698L42.4798 29.432L45.1372 17.8941C45.286 17.2477 45.1937 16.6065 44.9166 16.0575C44.7987 15.8215 44.6499 15.6061 44.4652 15.4111C44.3472 15.2829 44.2138 15.1649 44.0702 15.0623C43.9983 15.011 43.9214 14.9597 43.8444 14.9135C43.6136 14.7801 43.3571 14.6724 43.08 14.6108L28.264 11.1992C28.1717 11.1787 28.0845 11.1633 27.9921 11.1531C27.9665 11.1479 27.9408 11.1479 27.9203 11.1428C27.8433 11.1377 27.7664 11.1325 27.6843 11.1274C27.674 11.1274 27.6587 11.1274 27.6484 11.1274C27.6433 11.1274 27.6381 11.1274 27.633 11.1274C27.5561 11.1274 27.4791 11.1325 27.4021 11.1377C27.1815 11.1582 26.9661 11.2044 26.766 11.2711C26.4633 11.3737 26.1812 11.5276 25.9349 11.7276C25.6887 11.9277 25.4783 12.1637 25.309 12.4407L22.8157 12.2253C22.7388 12.2201 22.6618 12.215 22.5849 12.215C22.5798 12.215 22.5798 12.215 22.5746 12.215C22.5644 12.215 22.5541 12.215 22.5438 12.215C22.4618 12.215 22.3797 12.2201 22.3027 12.2304C22.2771 12.2304 22.2514 12.2355 22.2309 12.2407C22.1386 12.2509 22.0462 12.2663 21.9539 12.2868C21.7384 12.3381 21.5332 12.41 21.3434 12.5074C20.7688 12.7947 20.3173 13.277 20.066 13.8669L17.5624 14.0003C17.4906 14.0055 17.4188 14.0106 17.347 14.0208C17.1315 14.0516 16.9211 14.1029 16.7211 14.1799C16.4133 14.2979 16.1311 14.4723 15.8951 14.6826C15.813 14.7545 15.7412 14.8263 15.6694 14.9084C15.3872 15.2213 15.182 15.6009 15.0691 16.0114L13.8379 16.2525L12.6067 16.4936C12.463 16.5193 12.3245 16.5603 12.1911 16.6116C12.0577 16.6629 11.9243 16.7193 11.7961 16.7911C11.6986 16.8476 11.6063 16.904 11.5191 16.9707C11.1651 17.2272 10.888 17.5555 10.6931 17.9301C10.5956 18.1199 10.5238 18.3148 10.4725 18.52C10.4468 18.6226 10.4263 18.7252 10.4161 18.833L8.04591 19.6487C7.8407 19.7205 7.64575 19.8128 7.46106 19.9308C7.3995 19.9719 7.34307 20.0129 7.28151 20.054C7.07117 20.213 6.88648 20.4028 6.73771 20.608C6.20929 21.3211 6.04513 22.2599 6.34781 23.1321L14.0688 45.5203C14.1047 45.6331 14.1508 45.7357 14.2021 45.8383C14.2534 45.9409 14.3099 46.0384 14.3714 46.1308C14.4946 46.3154 14.6382 46.4847 14.8024 46.6335C15.0435 46.8541 15.3205 47.0337 15.6232 47.1568C15.7258 47.1978 15.8284 47.2337 15.931 47.2645C16.0439 47.2953 16.1567 47.3158 16.2696 47.3363C16.2799 47.3363 16.2901 47.3415 16.3055 47.3415C16.4133 47.3569 16.5261 47.362 16.639 47.362C16.6492 47.362 16.6595 47.362 16.6698 47.362C16.68 47.362 16.6903 47.362 16.7006 47.362C16.7416 47.362 16.7826 47.3569 16.8237 47.3569C16.8545 47.3569 16.8852 47.3517 16.916 47.3517C16.9468 47.3466 16.993 47.3364 17.034 47.3312ZM14.8947 45.2278L7.17377 22.8397C7.13786 22.7422 7.11734 22.6447 7.09682 22.5472C6.97882 21.8547 7.26098 21.1621 7.80992 20.7465C7.96382 20.6285 8.13825 20.5362 8.32807 20.4695L10.4468 19.741L10.652 20.7876L8.74361 21.4442C8.2152 21.6238 7.93304 22.2035 8.11773 22.7319L14.8229 42.1754L14.9717 42.9449C15.0538 43.3656 15.2333 43.7452 15.4744 44.0633L15.7053 44.7302C15.8849 45.2586 16.4646 45.5408 16.993 45.3561L17.5778 45.156C17.7779 45.1611 17.9831 45.1509 18.1883 45.1098L24.5446 43.8735L17.27 46.3821C16.2901 46.7156 15.2282 46.2026 14.8947 45.2278ZM11.7653 17.9044C11.832 17.8326 11.9038 17.771 11.9756 17.7095C12.0526 17.6479 12.1347 17.5966 12.2168 17.5504C12.2988 17.5042 12.3912 17.4632 12.4835 17.4273C12.5759 17.3914 12.6733 17.3657 12.7708 17.3452L14.9717 16.9194L15.0281 17.9865L13.0427 18.3713C12.8375 18.4123 12.658 18.5098 12.5194 18.6483C12.3809 18.7868 12.2835 18.9612 12.2424 19.1562C12.2168 19.2844 12.2116 19.4229 12.2373 19.5563L16.1721 39.7437L16.2183 40.5286C16.2234 40.6363 16.2337 40.7389 16.2542 40.8467C16.2696 40.9493 16.2953 41.0519 16.326 41.1493C16.3825 41.3443 16.4646 41.5341 16.562 41.7085L16.6954 42.4011C16.8032 42.95 17.3316 43.3091 17.8805 43.2014L18.4859 43.0834C18.6859 43.1193 18.8911 43.1347 19.0964 43.1193L25.5604 42.7756L18.0088 44.248C16.9981 44.4429 16.0182 43.7863 15.8233 42.7756L11.2933 19.5307C11.2728 19.4281 11.2625 19.3306 11.2574 19.228C11.2523 18.7304 11.437 18.2584 11.7653 17.9044ZM26.0632 12.8973C26.1658 12.728 26.294 12.5844 26.4377 12.4561C26.5813 12.333 26.7455 12.2304 26.925 12.1535C27.0995 12.0765 27.2893 12.0303 27.4842 12.0149C27.674 11.9995 27.8741 12.0098 28.0691 12.056L42.8851 15.4676C43.198 15.5394 43.4751 15.6882 43.7008 15.8882C43.7931 15.9703 43.8701 16.0575 43.947 16.1499C43.9829 16.196 44.0189 16.2473 44.0496 16.2987C44.301 16.7039 44.4036 17.2016 44.2856 17.7043L38.9656 40.78C38.7809 41.5854 38.0986 42.1497 37.3188 42.2164C37.129 42.2318 36.9289 42.2215 36.734 42.1754L21.918 38.7638C21.4768 38.6612 21.1125 38.4149 20.856 38.0815C20.5277 37.6557 20.3892 37.0913 20.5174 36.527L25.8374 13.4514C25.8836 13.2513 25.9606 13.0615 26.0632 12.8973ZM17.6086 14.8725L19.8454 14.7545L19.753 15.8164L17.7369 15.9241C17.4598 15.9395 17.2136 16.0678 17.0391 16.2576C16.8647 16.4526 16.7672 16.7091 16.7826 16.9861L17.8651 37.5274L17.7984 38.3123C17.7779 38.5278 17.7882 38.7381 17.8189 38.9382C17.8497 39.1434 17.901 39.3384 17.9728 39.5282L18.0088 40.231C18.0395 40.7902 18.5166 41.216 19.0707 41.1904L19.6863 41.1596C19.7838 41.1904 19.8813 41.216 19.9787 41.2365C20.0814 41.2571 20.1788 41.2725 20.2866 41.2827L26.7352 41.8419L19.0553 42.2472C18.0293 42.3036 17.152 41.5136 17.0956 40.4824L15.8489 16.8322C15.8284 16.4218 15.9413 16.0319 16.1516 15.7087C16.362 15.3855 16.6698 15.1341 17.034 14.9956C17.2136 14.9289 17.4085 14.8827 17.6086 14.8725ZM21.6204 13.359C21.7846 13.2616 21.9641 13.1846 22.154 13.1436C22.3386 13.0974 22.5387 13.0871 22.7388 13.1025L24.9704 13.2975L24.7293 14.3338L22.7183 14.1594C22.1591 14.1132 21.6717 14.5236 21.6204 15.0777L19.8351 35.5677L19.6607 36.3321C19.5889 36.645 19.5735 36.958 19.6094 37.2606C19.6196 37.3632 19.6402 37.4607 19.6607 37.5582L19.5991 38.261C19.594 38.3329 19.594 38.3995 19.6042 38.4662C19.6607 38.9331 20.0352 39.3127 20.5225 39.3589L21.1382 39.4102C21.3177 39.4974 21.5127 39.5692 21.7179 39.6154L28.028 41.0673L20.3635 40.4003C20.1737 40.3849 19.989 40.3388 19.8197 40.2669C19.594 40.1746 19.3888 40.0412 19.2195 39.8719C19.0091 39.6616 18.845 39.4051 18.7526 39.1178C18.6757 38.8869 18.6449 38.6407 18.6705 38.3842L20.7226 14.7904C20.738 14.5852 20.7893 14.3902 20.8714 14.2107C20.9484 14.0311 21.0561 13.8669 21.1792 13.7233C21.3075 13.5796 21.4562 13.4565 21.6204 13.359Z" fill="white"/>
<path d="M26.9968 15.3906L27.1405 15.0007L27.5252 15.0879L27.4893 15.5035L27.8279 15.5804L27.9818 13.2564L27.4996 13.1436L26.6429 15.3034L26.9968 15.3906ZM27.6535 13.6463L27.556 14.8109L27.2431 14.7391L27.6484 13.6463H27.6535Z" fill="white"/>
<path d="M38.0268 39.4717L37.6728 39.3897L37.5291 39.7796L37.1444 39.6923L37.1803 39.2768L36.8417 39.1998L36.6878 41.5238L37.17 41.6367L38.0268 39.4717ZM37.0212 41.1339L37.1187 39.9694L37.4317 40.0412L37.0264 41.1339H37.0212Z" fill="white"/>
<path d="M38.4064 38.2867C38.4628 38.0456 38.2166 37.7993 37.8729 37.9327C37.8729 37.9327 37.878 37.8763 37.9139 37.8147C37.9293 37.7839 37.9549 37.748 37.9857 37.7172C38.0165 37.6864 38.0575 37.6557 38.114 37.6351L37.8267 37.5684L37.5394 37.5018C37.6369 37.6044 37.6471 37.7275 37.6369 37.7993C37.6317 37.8455 37.6215 37.8763 37.6215 37.8763C37.3701 37.6044 37.0418 37.7172 36.9853 37.9583C36.9699 38.0199 36.9648 38.0712 36.9597 38.1174C36.9597 38.1636 36.9648 38.2097 36.9751 38.2559C36.9802 38.2764 36.9905 38.3021 37.0007 38.3277C37.0366 38.3995 37.0879 38.4816 37.17 38.5894C37.3855 38.8766 37.4419 39.1999 37.4419 39.1999C37.4419 39.1999 37.4522 39.1845 37.4778 39.1537C37.5137 39.1126 37.5702 39.0459 37.6523 38.9741C37.7036 38.928 37.7703 38.8767 37.8421 38.8305C37.878 38.81 37.9139 38.7843 37.9549 38.7638C38.037 38.7227 38.0986 38.6868 38.1499 38.656C38.3192 38.5586 38.3654 38.4662 38.4064 38.2867Z" fill="white"/>
<path d="M31.614 28.4213C31.614 28.4213 31.5217 29.2011 30.7419 29.4986L31.7987 29.7398L32.8555 29.9809C32.7837 29.9039 32.7273 29.827 32.676 29.75C32.5067 29.473 32.4759 29.196 32.481 28.9856C32.4862 28.7753 32.5375 28.6316 32.5375 28.6316C33.4558 29.632 34.6665 29.2114 34.8717 28.3187C34.8974 28.2058 34.9179 28.1032 34.9333 28.0058C34.9692 27.7646 34.9743 27.5543 34.9333 27.344C34.9179 27.2619 34.8922 27.1747 34.8563 27.0926C34.7742 26.8771 34.6409 26.6463 34.4408 26.3641C34.3638 26.2512 34.2715 26.1281 34.174 25.9999C33.7739 25.4714 33.5225 24.9123 33.3737 24.4813C33.2967 24.2658 33.2506 24.0812 33.2147 23.9529C33.1839 23.8246 33.1685 23.7477 33.1685 23.7477C33.1685 23.7477 32.8915 24.1325 32.399 24.5685C32.1989 24.743 31.968 24.9225 31.7012 25.0918C31.5679 25.1739 31.4293 25.256 31.2806 25.3329C30.983 25.4817 30.747 25.61 30.5572 25.7382C30.2186 25.9588 30.0185 26.1589 29.8749 26.4257C29.7723 26.6155 29.7056 26.8361 29.644 27.1131C29.444 28.0109 30.3469 28.9189 31.614 28.4213Z" fill="white"/>
<path d="M26.3145 16.3448C26.294 16.391 26.2786 16.4372 26.2684 16.4987C26.2119 16.7398 26.4582 16.9861 26.8019 16.8527C26.8019 16.8527 26.7762 17.0733 26.5608 17.1554L26.8481 17.2221L27.1354 17.2888C27.0584 17.2067 27.0379 17.1143 27.0379 17.0374C27.0379 16.9656 27.0533 16.9143 27.0533 16.9143C27.3047 17.1862 27.633 17.0733 27.6894 16.8322C27.7305 16.6526 27.7253 16.55 27.6279 16.3858C27.5971 16.3345 27.5509 16.273 27.4996 16.2012C27.4175 16.0934 27.3611 15.9806 27.32 15.8831C27.3046 15.8523 27.2944 15.8164 27.2841 15.7907C27.2636 15.7343 27.2482 15.683 27.2431 15.6471C27.2328 15.6112 27.2328 15.5907 27.2328 15.5907C27.2328 15.5907 27.2226 15.6061 27.1969 15.6368C27.1764 15.6625 27.1405 15.7035 27.0943 15.7446C27.0738 15.7651 27.0481 15.7907 27.0225 15.8113C26.9404 15.8831 26.8378 15.96 26.7198 16.0165C26.5608 16.0986 26.4633 16.1601 26.3966 16.2268C26.3607 16.2627 26.335 16.2986 26.3145 16.3448Z" fill="white"/>
<path d="M22.5336 37.2709C22.6105 37.3273 22.7028 37.3735 22.8055 37.394L36.0875 40.4567L36.1594 40.1387L22.8773 37.0708C22.7901 37.0503 22.7182 37.0093 22.6618 36.9477C22.5695 36.8502 22.5233 36.7066 22.5592 36.5629L26.8686 17.8685L26.5505 17.7967L22.2411 36.4911C22.1693 36.7938 22.2976 37.0965 22.5336 37.2709Z" fill="white"/>
<path d="M28.895 13.8208L28.8232 14.1388L41.9257 17.1605C42.1514 17.2118 42.2951 17.4427 42.2438 17.6684L37.8113 36.8913L38.1294 36.9631L42.5619 17.7402C42.5721 17.6889 42.5772 17.6376 42.5824 17.5915C42.5824 17.5401 42.5772 17.494 42.5721 17.4427C42.5362 17.2477 42.4285 17.0784 42.2694 16.9604C42.2284 16.9297 42.1874 16.9091 42.1412 16.8835C42.095 16.863 42.0488 16.8476 41.9975 16.8322L28.895 13.8208Z" fill="white"/>
</svg>
